ISO-10303-21;
HEADER;
FILE_DESCRIPTION(('Open CASCADE Model'),'2;1');
FILE_NAME('Open CASCADE Shape Model','2026-09-05T04:29:48',('Author'),(
    'Open CASCADE'),'Open CASCADE STEP processor 7.8','Open CASCADE 7.8'
  ,'Unknown');
FILE_SCHEMA(('AUTOMOTIVE_DESIGN { 1 0 10303 214 1 1 1 1 }'));
ENDSEC;
DATA;
#1 = APPLICATION_PROTOCOL_DEFINITION('international standard',
  'automotive_design',2000,#2);
#2 = APPLICATION_CONTEXT(
  'core data for automotive mechanical design processes');
#3 = SHAPE_DEFINITION_REPRESENTATION(#4,#10);
#4 = PRODUCT_DEFINITION_SHAPE('','',#5);
#5 = PRODUCT_DEFINITION('design','',#6,#9);
#6 = PRODUCT_DEFINITION_FORMATION('','',#7);
#7 = PRODUCT('Open CASCADE STEP translator 7.8 76',
  'Open CASCADE STEP translator 7.8 76','',(#8));
#8 = PRODUCT_CONTEXT('',#2,'mechanical');
#9 = PRODUCT_DEFINITION_CONTEXT('part definition',#2,'design');
#10 = ADVANCED_BREP_SHAPE_REPRESENTATION('',(#11,#15),#1327);
#11 = AXIS2_PLACEMENT_3D('',#12,#13,#14);
#12 = CARTESIAN_POINT('',(0.,0.,0.));
#13 = DIRECTION('',(0.,0.,1.));
#14 = DIRECTION('',(1.,0.,-0.));
#15 = MANIFOLD_SOLID_BREP('',#16);
#16 = CLOSED_SHELL('',(#17,#632,#799,#1218,#1289,#1320));
#17 = ADVANCED_FACE('',(#18),#44,.T.);
#18 = FACE_BOUND('',#19,.T.);
#19 = EDGE_LOOP('',(#20,#150,#182,#234));
#20 = ORIENTED_EDGE('',*,*,#21,.T.);
#21 = EDGE_CURVE('',#22,#24,#26,.T.);
#22 = VERTEX_POINT('',#23);
#23 = CARTESIAN_POINT('',(-32.17499999573,-1.035293491895E-14,-110.5));
#24 = VERTEX_POINT('',#25);
#25 = CARTESIAN_POINT('',(32.175,0.,-110.5));
#26 = SURFACE_CURVE('',#27,(#43,#126),.PCURVE_S1.);
#27 = B_SPLINE_CURVE_WITH_KNOTS('',14,(#28,#29,#30,#31,#32,#33,#34,#35,
    #36,#37,#38,#39,#40,#41,#42),.UNSPECIFIED.,.T.,.F.,(15,15),(0.,1.),
  .PIECEWISE_BEZIER_KNOTS.);
#28 = CARTESIAN_POINT('',(32.175,1.704620093857E-14,-110.5));
#29 = CARTESIAN_POINT('',(32.175000000007,10.501895442006,-110.5));
#30 = CARTESIAN_POINT('',(25.195780428381,21.003794760494,-110.5));
#31 = CARTESIAN_POINT('',(11.237332363014,28.847972709797,-110.5));
#32 = CARTESIAN_POINT('',(-7.612946529291,31.377003742364,-110.5));
#33 = CARTESIAN_POINT('',(-27.18065687335,26.886058547577,-110.5));
#34 = CARTESIAN_POINT('',(-42.11841675103,15.581714739275,-110.5));
#35 = CARTESIAN_POINT('',(-47.74218527071,2.023710914575E-10,-110.5));
#36 = CARTESIAN_POINT('',(-42.11841675106,-15.58171473964,-110.5));
#37 = CARTESIAN_POINT('',(-27.18065687331,-26.88605854729,-110.5));
#38 = CARTESIAN_POINT('',(-7.612946529326,-31.37700374254,-110.5));
#39 = CARTESIAN_POINT('',(11.237332363034,-28.8479727097,-110.5));
#40 = CARTESIAN_POINT('',(25.195780428372,-21.00379476052,-110.5));
#41 = CARTESIAN_POINT('',(32.175000000009,-10.50189544199,-110.5));
#42 = CARTESIAN_POINT('',(32.175,-3.979721813792E-14,-110.5));
#43 = PCURVE('',#44,#120);
#44 = ( BOUNDED_SURFACE() B_SPLINE_SURFACE(14,4,(
    (#45,#46,#47,#48,#49)
    ,(#50,#51,#52,#53,#54)
    ,(#55,#56,#57,#58,#59)
    ,(#60,#61,#62,#63,#64)
    ,(#65,#66,#67,#68,#69)
    ,(#70,#71,#72,#73,#74)
    ,(#75,#76,#77,#78,#79)
    ,(#80,#81,#82,#83,#84)
    ,(#85,#86,#87,#88,#89)
    ,(#90,#91,#92,#93,#94)
    ,(#95,#96,#97,#98,#99)
    ,(#100,#101,#102,#103,#104)
    ,(#105,#106,#107,#108,#109)
    ,(#110,#111,#112,#113,#114)
    ,(#115,#116,#117,#118,#119
)),.UNSPECIFIED.,.T.,.F.,.F.) B_SPLINE_SURFACE_WITH_KNOTS((15,15),(5,5),
  (0.,1.),(0.,1.),.PIECEWISE_BEZIER_KNOTS.) 
GEOMETRIC_REPRESENTATION_ITEM() RATIONAL_B_SPLINE_SURFACE((
    (1.,1.,1.,1.,1.)
    ,(1.,1.,1.,1.,1.)
    ,(1.,1.,1.,1.,1.)
    ,(1.,1.,1.,1.,1.)
    ,(1.,1.,1.,1.,1.)
    ,(1.,1.,1.,1.,1.)
    ,(1.,1.,1.,1.,1.)
    ,(1.,1.,1.,1.,1.)
    ,(1.,1.,1.,1.,1.)
    ,(1.,1.,1.,1.,1.)
    ,(1.,1.,1.,1.,1.)
    ,(1.,1.,1.,1.,1.)
    ,(1.,1.,1.,1.,1.)
    ,(1.,1.,1.,1.,1.)
,(1.,1.,1.,1.,1.))) REPRESENTATION_ITEM('') SURFACE() );
#45 = CARTESIAN_POINT('',(32.175,1.704620093857E-14,-110.5));
#46 = CARTESIAN_POINT('',(73.037277411024,4.011961727145E-14,
    -67.98009888345));
#47 = CARTESIAN_POINT('',(35.833928157823,-5.166281701347E-14,
    8.002452033405));
#48 = CARTESIAN_POINT('',(46.76441371994,-3.668082974683E-14,
    52.682596298459));
#49 = CARTESIAN_POINT('',(27.72,-4.277408552737E-15,110.5));
#50 = CARTESIAN_POINT('',(32.175000000007,10.501895442006,-110.5));
#51 = CARTESIAN_POINT('',(73.037277411009,23.8393116003,-67.98009888345)
  );
#52 = CARTESIAN_POINT('',(35.833928157868,11.696166799987,8.002452033405
    ));
#53 = CARTESIAN_POINT('',(46.764413719936,15.263868944631,
    52.682596298459));
#54 = CARTESIAN_POINT('',(27.720000000006,9.047786842345,110.5));
#55 = CARTESIAN_POINT('',(25.195780428381,21.003794760494,-110.5));
#56 = CARTESIAN_POINT('',(57.194443037746,47.678632000153,
    -67.98009888345));
#57 = CARTESIAN_POINT('',(28.061034522001,23.392337917338,8.002452033405
    ));
#58 = CARTESIAN_POINT('',(36.620540791037,30.5277435235,52.682596298459)
  );
#59 = CARTESIAN_POINT('',(21.707133907527,18.09557702442,110.5));
#60 = CARTESIAN_POINT('',(11.237332363014,28.847972709797,-110.5));
#61 = CARTESIAN_POINT('',(25.508754037112,65.484922627993,
    -67.98009888345));
#62 = CARTESIAN_POINT('',(12.515237314602,32.128552652006,8.002452033405
    ));
#63 = CARTESIAN_POINT('',(16.332781965083,41.928781065488,
    52.682596298459));
#64 = CARTESIAN_POINT('',(9.681394035829,24.85363802692,110.5));
#65 = CARTESIAN_POINT('',(-7.612946529291,31.377003742364,-110.5));
#66 = CARTESIAN_POINT('',(-17.28139510635,71.225825226026,
    -67.98009888345));
#67 = CARTESIAN_POINT('',(-8.478687771014,34.945184084512,8.002452033405
    ));
#68 = CARTESIAN_POINT('',(-11.06495667788,45.604574492642,
    52.682596298459));
#69 = CARTESIAN_POINT('',(-6.558846240619,27.032495531842,110.5));
#70 = CARTESIAN_POINT('',(-27.18065687335,26.886058547577,-110.5));
#71 = CARTESIAN_POINT('',(-61.70011426015,61.031375808756,
    -67.98009888345));
#72 = CARTESIAN_POINT('',(-30.27163032256,29.943530394021,8.002452033405
    ));
#73 = CARTESIAN_POINT('',(-39.50543848411,39.077257660183,
    52.682596298459));
#74 = CARTESIAN_POINT('',(-23.41718130628,23.163373517982,110.5));
#75 = CARTESIAN_POINT('',(-42.11841675103,15.581714739275,-110.5));
#76 = CARTESIAN_POINT('',(-95.608841905,35.370505731954,-67.98009888345)
  );
#77 = CARTESIAN_POINT('',(-46.90810629524,17.353661120798,8.002452033405
    ));
#78 = CARTESIAN_POINT('',(-61.21656771237,22.64707861801,52.682596298459
    ));
#79 = CARTESIAN_POINT('',(-36.2866359701,13.424246544506,110.5));
#80 = CARTESIAN_POINT('',(-47.74218527071,2.023710914575E-10,-110.5));
#81 = CARTESIAN_POINT('',(-108.37480124,1.416183771117E-09,
    -67.98009888345));
#82 = CARTESIAN_POINT('',(-53.17140752164,-4.522439854809E-10,
    8.002452033405));
#83 = CARTESIAN_POINT('',(-69.39037463639,2.769206143695E-10,
    52.682596298459));
#84 = CARTESIAN_POINT('',(-41.13172884865,2.925799036967E-10,110.5));
#85 = CARTESIAN_POINT('',(-42.11841675106,-15.58171473964,-110.5));
#86 = CARTESIAN_POINT('',(-95.60884190496,-35.37050573453,
    -67.98009888345));
#87 = CARTESIAN_POINT('',(-46.90810629528,-17.35366111998,8.002452033405
    ));
#88 = CARTESIAN_POINT('',(-61.21656771237,-22.64707861851,
    52.682596298459));
#89 = CARTESIAN_POINT('',(-36.28663597009,-13.42424654504,110.5));
#90 = CARTESIAN_POINT('',(-27.18065687331,-26.88605854729,-110.5));
#91 = CARTESIAN_POINT('',(-61.7001142602,-61.0313758068,-67.98009888345)
  );
#92 = CARTESIAN_POINT('',(-30.27163032251,-29.94353039461,8.002452033405
    ));
#93 = CARTESIAN_POINT('',(-39.50543848409,-39.07725765979,
    52.682596298459));
#94 = CARTESIAN_POINT('',(-23.41718130628,-23.16337351757,110.5));
#95 = CARTESIAN_POINT('',(-7.612946529326,-31.37700374254,-110.5));
#96 = CARTESIAN_POINT('',(-17.28139510631,-71.22582522722,
    -67.98009888345));
#97 = CARTESIAN_POINT('',(-8.478687771059,-34.94518408417,8.002452033405
    ));
#98 = CARTESIAN_POINT('',(-11.06495667789,-45.60457449288,
    52.682596298459));
#99 = CARTESIAN_POINT('',(-6.558846240615,-27.0324955321,110.5));
#100 = CARTESIAN_POINT('',(11.237332363034,-28.8479727097,-110.5));
#101 = CARTESIAN_POINT('',(25.508754037087,-65.48492262741,
    -67.98009888345));
#102 = CARTESIAN_POINT('',(12.515237314626,-32.12855265215,
    8.002452033405));
#103 = CARTESIAN_POINT('',(16.33278196509,-41.92878106537,
    52.682596298459));
#104 = CARTESIAN_POINT('',(9.681394035826,-24.85363802679,110.5));
#105 = CARTESIAN_POINT('',(25.195780428372,-21.00379476052,-110.5));
#106 = CARTESIAN_POINT('',(57.194443037756,-47.67863200036,
    -67.98009888345));
#107 = CARTESIAN_POINT('',(28.061034521993,-23.39233791728,
    8.002452033405));
#108 = CARTESIAN_POINT('',(36.620540791034,-30.52774352354,
    52.682596298459));
#109 = CARTESIAN_POINT('',(21.707133907528,-18.09557702446,110.5));
#110 = CARTESIAN_POINT('',(32.175000000009,-10.50189544199,-110.5));
#111 = CARTESIAN_POINT('',(73.037277411007,-23.83931160025,
    -67.98009888345));
#112 = CARTESIAN_POINT('',(35.833928157869,-11.69616679999,
    8.002452033405));
#113 = CARTESIAN_POINT('',(46.764413719937,-15.26386894462,
    52.682596298459));
#114 = CARTESIAN_POINT('',(27.720000000006,-9.047786842335,110.5));
#115 = CARTESIAN_POINT('',(32.175,-3.979721813792E-14,-110.5));
#116 = CARTESIAN_POINT('',(73.037277411024,-2.126977504156E-14,
    -67.98009888345));
#117 = CARTESIAN_POINT('',(35.833928157823,7.440515355194E-14,
    8.002452033405));
#118 = CARTESIAN_POINT('',(46.76441371994,-5.068381862399E-14,
    52.682596298459));
#119 = CARTESIAN_POINT('',(27.72,-4.277408738547E-15,110.5));
#120 = DEFINITIONAL_REPRESENTATION('',(#121),#125);
#121 = LINE('',#122,#123);
#122 = CARTESIAN_POINT('',(0.,0.));
#123 = VECTOR('',#124,1.);
#124 = DIRECTION('',(1.,0.));
#125 = ( GEOMETRIC_REPRESENTATION_CONTEXT(2) 
PARAMETRIC_REPRESENTATION_CONTEXT() REPRESENTATION_CONTEXT('2D SPACE',''
  ) );
#126 = PCURVE('',#127,#132);
#127 = PLANE('',#128);
#128 = AXIS2_PLACEMENT_3D('',#129,#130,#131);
#129 = CARTESIAN_POINT('',(32.175,1.704620093857E-14,-110.5));
#130 = DIRECTION('',(0.,0.,1.));
#131 = DIRECTION('',(-1.,-2.02787848497E-16,0.));
#132 = DEFINITIONAL_REPRESENTATION('',(#133),#149);
#133 = B_SPLINE_CURVE_WITH_KNOTS('',14,(#134,#135,#136,#137,#138,#139,
    #140,#141,#142,#143,#144,#145,#146,#147,#148),.UNSPECIFIED.,.F.,.F.,
  (15,15),(0.,1.),.PIECEWISE_BEZIER_KNOTS.);
#134 = CARTESIAN_POINT('',(0.,0.));
#135 = CARTESIAN_POINT('',(-6.792788553867E-12,-10.501895442));
#136 = CARTESIAN_POINT('',(6.979219571619,-21.00379476049));
#137 = CARTESIAN_POINT('',(20.937667636986,-28.84797270979));
#138 = CARTESIAN_POINT('',(39.787946529291,-31.37700374236));
#139 = CARTESIAN_POINT('',(59.355656873353,-26.88605854757));
#140 = CARTESIAN_POINT('',(74.293416751036,-15.58171473927));
#141 = CARTESIAN_POINT('',(79.917185270714,-2.023702514907E-10));
#142 = CARTESIAN_POINT('',(74.293416751062,15.581714739647));
#143 = CARTESIAN_POINT('',(59.355656873313,26.886058547291));
#144 = CARTESIAN_POINT('',(39.787946529326,31.377003742544));
#145 = CARTESIAN_POINT('',(20.937667636966,28.847972709706));
#146 = CARTESIAN_POINT('',(6.979219571628,21.003794760527));
#147 = CARTESIAN_POINT('',(-8.725464795134E-12,10.501895441999));
#148 = CARTESIAN_POINT('',(1.42108547152E-14,5.684341907649E-14));
#149 = ( GEOMETRIC_REPRESENTATION_CONTEXT(2) 
PARAMETRIC_REPRESENTATION_CONTEXT() REPRESENTATION_CONTEXT('2D SPACE',''
  ) );
#150 = ORIENTED_EDGE('',*,*,#151,.T.);
#151 = EDGE_CURVE('',#24,#152,#154,.T.);
#152 = VERTEX_POINT('',#153);
#153 = CARTESIAN_POINT('',(27.72,0.,110.5));
#154 = SURFACE_CURVE('',#155,(#161,#168),.PCURVE_S1.);
#155 = ( BOUNDED_CURVE() B_SPLINE_CURVE(4,(#156,#157,#158,#159,#160),
.UNSPECIFIED.,.F.,.F.) B_SPLINE_CURVE_WITH_KNOTS((5,5),(0.,1.),
.PIECEWISE_BEZIER_KNOTS.) CURVE() GEOMETRIC_REPRESENTATION_ITEM() 
RATIONAL_B_SPLINE_CURVE((1.,1.,1.,1.,1.)) REPRESENTATION_ITEM('') );
#156 = CARTESIAN_POINT('',(32.175,1.704620093857E-14,-110.5));
#157 = CARTESIAN_POINT('',(73.037277411024,4.011961727145E-14,
    -67.98009888345));
#158 = CARTESIAN_POINT('',(35.833928157823,-5.166281701347E-14,
    8.002452033405));
#159 = CARTESIAN_POINT('',(46.76441371994,-3.668082974683E-14,
    52.682596298459));
#160 = CARTESIAN_POINT('',(27.72,-4.277408552737E-15,110.5));
#161 = PCURVE('',#44,#162);
#162 = DEFINITIONAL_REPRESENTATION('',(#163),#167);
#163 = LINE('',#164,#165);
#164 = CARTESIAN_POINT('',(1.,0.));
#165 = VECTOR('',#166,1.);
#166 = DIRECTION('',(0.,1.));
#167 = ( GEOMETRIC_REPRESENTATION_CONTEXT(2) 
PARAMETRIC_REPRESENTATION_CONTEXT() REPRESENTATION_CONTEXT('2D SPACE',''
  ) );
#168 = PCURVE('',#169,#174);
#169 = PLANE('',#170);
#170 = AXIS2_PLACEMENT_3D('',#171,#172,#173);
#171 = CARTESIAN_POINT('',(-99.,0.,-132.6));
#172 = DIRECTION('',(0.,1.,0.));
#173 = DIRECTION('',(0.,0.,1.));
#174 = DEFINITIONAL_REPRESENTATION('',(#175),#181);
#175 = ( BOUNDED_CURVE() B_SPLINE_CURVE(4,(#176,#177,#178,#179,#180),
.UNSPECIFIED.,.F.,.F.) B_SPLINE_CURVE_WITH_KNOTS((5,5),(0.,1.),
.PIECEWISE_BEZIER_KNOTS.) CURVE() GEOMETRIC_REPRESENTATION_ITEM() 
RATIONAL_B_SPLINE_CURVE((1.,1.,1.,1.,1.)) REPRESENTATION_ITEM('') );
#176 = CARTESIAN_POINT('',(22.1,131.175));
#177 = CARTESIAN_POINT('',(64.619901116541,172.03727741102));
#178 = CARTESIAN_POINT('',(140.6024520334,134.83392815782));
#179 = CARTESIAN_POINT('',(185.28259629845,145.76441371994));
#180 = CARTESIAN_POINT('',(243.1,126.72));
#181 = ( GEOMETRIC_REPRESENTATION_CONTEXT(2) 
PARAMETRIC_REPRESENTATION_CONTEXT() REPRESENTATION_CONTEXT('2D SPACE',''
  ) );
#182 = ORIENTED_EDGE('',*,*,#183,.F.);
#183 = EDGE_CURVE('',#184,#152,#186,.T.);
#184 = VERTEX_POINT('',#185);
#185 = CARTESIAN_POINT('',(-27.71999999632,2.22044604925E-15,110.5));
#186 = SURFACE_CURVE('',#187,(#203,#210),.PCURVE_S1.);
#187 = B_SPLINE_CURVE_WITH_KNOTS('',14,(#188,#189,#190,#191,#192,#193,
    #194,#195,#196,#197,#198,#199,#200,#201,#202),.UNSPECIFIED.,.T.,.F.,
  (15,15),(0.,1.),.PIECEWISE_BEZIER_KNOTS.);
#188 = CARTESIAN_POINT('',(27.72,-4.277408552737E-15,110.5));
#189 = CARTESIAN_POINT('',(27.720000000006,9.047786842345,110.5));
#190 = CARTESIAN_POINT('',(21.707133907527,18.09557702442,110.5));
#191 = CARTESIAN_POINT('',(9.681394035829,24.85363802692,110.5));
#192 = CARTESIAN_POINT('',(-6.558846240619,27.032495531842,110.5));
#193 = CARTESIAN_POINT('',(-23.41718130628,23.163373517982,110.5));
#194 = CARTESIAN_POINT('',(-36.2866359701,13.424246544506,110.5));
#195 = CARTESIAN_POINT('',(-41.13172884865,2.925799036967E-10,110.5));
#196 = CARTESIAN_POINT('',(-36.28663597009,-13.42424654504,110.5));
#197 = CARTESIAN_POINT('',(-23.41718130628,-23.16337351757,110.5));
#198 = CARTESIAN_POINT('',(-6.558846240615,-27.0324955321,110.5));
#199 = CARTESIAN_POINT('',(9.681394035826,-24.85363802679,110.5));
#200 = CARTESIAN_POINT('',(21.707133907528,-18.09557702446,110.5));
#201 = CARTESIAN_POINT('',(27.720000000006,-9.047786842335,110.5));
#202 = CARTESIAN_POINT('',(27.72,-4.277408738547E-15,110.5));
#203 = PCURVE('',#44,#204);
#204 = DEFINITIONAL_REPRESENTATION('',(#205),#209);
#205 = LINE('',#206,#207);
#206 = CARTESIAN_POINT('',(0.,1.));
#207 = VECTOR('',#208,1.);
#208 = DIRECTION('',(1.,0.));
#209 = ( GEOMETRIC_REPRESENTATION_CONTEXT(2) 
PARAMETRIC_REPRESENTATION_CONTEXT() REPRESENTATION_CONTEXT('2D SPACE',''
  ) );
#210 = PCURVE('',#211,#216);
#211 = PLANE('',#212);
#212 = AXIS2_PLACEMENT_3D('',#213,#214,#215);
#213 = CARTESIAN_POINT('',(27.72,-4.277408552737E-15,110.5));
#214 = DIRECTION('',(0.,0.,-1.));
#215 = DIRECTION('',(-1.,1.172051695963E-16,0.));
#216 = DEFINITIONAL_REPRESENTATION('',(#217),#233);
#217 = B_SPLINE_CURVE_WITH_KNOTS('',14,(#218,#219,#220,#221,#222,#223,
    #224,#225,#226,#227,#228,#229,#230,#231,#232),.UNSPECIFIED.,.F.,.F.,
  (15,15),(0.,1.),.PIECEWISE_BEZIER_KNOTS.);
#218 = CARTESIAN_POINT('',(0.,0.));
#219 = CARTESIAN_POINT('',(-6.313172207228E-12,9.047786842345));
#220 = CARTESIAN_POINT('',(6.012866092473,18.09557702442));
#221 = CARTESIAN_POINT('',(18.038605964171,24.85363802692));
#222 = CARTESIAN_POINT('',(34.278846240619,27.032495531842));
#223 = CARTESIAN_POINT('',(51.137181306282,23.163373517982));
#224 = CARTESIAN_POINT('',(64.006635970101,13.424246544506));
#225 = CARTESIAN_POINT('',(68.851728848652,2.925761113267E-10));
#226 = CARTESIAN_POINT('',(64.006635970098,-13.42424654504));
#227 = CARTESIAN_POINT('',(51.137181306286,-23.16337351757));
#228 = CARTESIAN_POINT('',(34.278846240615,-27.0324955321));
#229 = CARTESIAN_POINT('',(18.038605964174,-24.85363802679));
#230 = CARTESIAN_POINT('',(6.012866092472,-18.09557702446));
#231 = CARTESIAN_POINT('',(-5.950795411991E-12,-9.047786842335));
#232 = CARTESIAN_POINT('',(-7.105427357601E-15,-1.858097104656E-22));
#233 = ( GEOMETRIC_REPRESENTATION_CONTEXT(2) 
PARAMETRIC_REPRESENTATION_CONTEXT() REPRESENTATION_CONTEXT('2D SPACE',''
  ) );
#234 = ORIENTED_EDGE('',*,*,#235,.F.);
#235 = EDGE_CURVE('',#22,#184,#236,.T.);
#236 = SURFACE_CURVE('',#237,(#365,#496),.PCURVE_S1.);
#237 = B_SPLINE_CURVE_WITH_KNOTS('',6,(#238,#239,#240,#241,#242,#243,
    #244,#245,#246,#247,#248,#249,#250,#251,#252,#253,#254,#255,#256,
    #257,#258,#259,#260,#261,#262,#263,#264,#265,#266,#267,#268,#269,
    #270,#271,#272,#273,#274,#275,#276,#277,#278,#279,#280,#281,#282,
    #283,#284,#285,#286,#287,#288,#289,#290,#291,#292,#293,#294,#295,
    #296,#297,#298,#299,#300,#301,#302,#303,#304,#305,#306,#307,#308,
    #309,#310,#311,#312,#313,#314,#315,#316,#317,#318,#319,#320,#321,
    #322,#323,#324,#325,#326,#327,#328,#329,#330,#331,#332,#333,#334,
    #335,#336,#337,#338,#339,#340,#341,#342,#343,#344,#345,#346,#347,
    #348,#349,#350,#351,#352,#353,#354,#355,#356,#357,#358,#359,#360,
    #361,#362,#363,#364),.UNSPECIFIED.,.F.,.F.,(7,5,5,5,5,5,5,5,5,5,5,5,
    5,5,5,5,5,5,5,5,5,5,5,5,5,7),(0.,2.003965728761E-02,
    4.69260053009E-02,7.318911575047E-02,9.929908058342E-02,
    0.12527005234,0.160890969325,0.196820947211,0.236949046431,
    0.277547616156,0.318715008609,0.360099076215,0.405153156531,
    0.481273096594,0.563226529403,0.621894568195,0.708963376008,
    0.794373291715,0.829179186299,0.851080477526,0.873101901275,
    0.895294399649,0.917715294068,0.940428846944,0.986923385215,1.),
  .UNSPECIFIED.);
#238 = CARTESIAN_POINT('',(-32.17499999573,0.,-110.5));
#239 = CARTESIAN_POINT('',(-32.70164055157,0.,-109.9519956845));
#240 = CARTESIAN_POINT('',(-33.21971565873,0.,-109.3957583196));
#241 = CARTESIAN_POINT('',(-33.72901438386,0.,-108.8314106095));
#242 = CARTESIAN_POINT('',(-34.229345274,0.,-108.2590960399));
#243 = CARTESIAN_POINT('',(-34.7205363566,0.,-107.6789788774));
#244 = CARTESIAN_POINT('',(-35.84897805179,0.,-106.3027057409));
#245 = CARTESIAN_POINT('',(-36.47879901947,0.,-105.5004505014));
#246 = CARTESIAN_POINT('',(-37.09152736529,0.,-104.6849297586));
#247 = CARTESIAN_POINT('',(-37.68687742906,0.,-103.8566429979));
#248 = CARTESIAN_POINT('',(-38.26464483594,0.,-103.016135185));
#249 = CARTESIAN_POINT('',(-39.37177830052,0.,-101.3316059631));
#250 = CARTESIAN_POINT('',(-39.90196005643,0.,-100.4881112046));
#251 = CARTESIAN_POINT('',(-40.41513074429,0.,-99.63405482907));
#252 = CARTESIAN_POINT('',(-40.91125722897,0.,-98.76999879839));
#253 = CARTESIAN_POINT('',(-41.39038031227,0.,-97.89651600133));
#254 = CARTESIAN_POINT('',(-42.31213339639,0.,-96.13699756556));
#255 = CARTESIAN_POINT('',(-42.75496195351,0.,-95.25106084188));
#256 = CARTESIAN_POINT('',(-43.18119435059,0.,-94.35693871205));
#257 = CARTESIAN_POINT('',(-43.59100316529,0.,-93.45518696007));
#258 = CARTESIAN_POINT('',(-43.98461676221,0.,-92.5463466157));
#259 = CARTESIAN_POINT('',(-44.73798598324,0.,-90.72040253564));
#260 = CARTESIAN_POINT('',(-45.09791122677,0.,-89.80336720965));
#261 = CARTESIAN_POINT('',(-45.44235096314,0.,-88.88034165589));
#262 = CARTESIAN_POINT('',(-45.77161717428,0.,-87.9518110348));
#263 = CARTESIAN_POINT('',(-46.08605421909,0.,-87.01823202459));
#264 = CARTESIAN_POINT('',(-46.79746153036,0.,-84.79322053164));
#265 = CARTESIAN_POINT('',(-47.18168513159,0.,-83.49771736296));
#266 = CARTESIAN_POINT('',(-47.53964708952,0.,-82.19460569547));
#267 = CARTESIAN_POINT('',(-47.8723644449,0.,-80.88486892872));
#268 = CARTESIAN_POINT('',(-48.18088785328,0.,-79.56937794378));
#269 = CARTESIAN_POINT('',(-48.75412150148,0.,-76.91692815658));
#270 = CARTESIAN_POINT('',(-49.01842659056,0.,-75.57989090664));
#271 = CARTESIAN_POINT('',(-49.26026205015,0.,-74.23853599138));
#272 = CARTESIAN_POINT('',(-49.48070065671,0.,-72.89353585542));
#273 = CARTESIAN_POINT('',(-49.6807920251,0.,-71.5454664311));
#274 = CARTESIAN_POINT('',(-50.06342128819,0.,-68.68632845505));
#275 = CARTESIAN_POINT('',(-50.24117482721,0.,-67.1746322085));
#276 = CARTESIAN_POINT('',(-50.39621785704,0.,-65.66037817454));
#277 = CARTESIAN_POINT('',(-50.52989457262,0.,-64.14412682029));
#278 = CARTESIAN_POINT('',(-50.64347750581,0.,-62.62633588664));
#279 = CARTESIAN_POINT('',(-50.83395680204,0.,-59.57057492096));
#280 = CARTESIAN_POINT('',(-50.91040674594,0.,-58.03258949222));
#281 = CARTESIAN_POINT('',(-50.96875077651,0.,-56.49377431298));
#282 = CARTESIAN_POINT('',(-51.01014585723,0.,-54.95443496702));
#283 = CARTESIAN_POINT('',(-51.03567120749,0.,-53.41481196102));
#284 = CARTESIAN_POINT('',(-51.05714304043,0.,-50.31377672619));
#285 = CARTESIAN_POINT('',(-51.05267006165,0.,-48.75237028176));
#286 = CARTESIAN_POINT('',(-51.03396212104,0.,-47.1910477812));
#287 = CARTESIAN_POINT('',(-51.00199050844,0.,-45.62995661495));
#288 = CARTESIAN_POINT('',(-50.95765603843,0.,-44.06920520836));
#289 = CARTESIAN_POINT('',(-50.84564176534,0.,-40.94030813398));
#290 = CARTESIAN_POINT('',(-50.77784052975,0.,-39.37217249969));
#291 = CARTESIAN_POINT('',(-50.69924257264,0.,-37.80452880475));
#292 = CARTESIAN_POINT('',(-50.61063419914,0.,-36.23742883496));
#293 = CARTESIAN_POINT('',(-50.51274394409,0.,-34.67090305331));
#294 = CARTESIAN_POINT('',(-50.29030962424,0.,-31.40014690752));
#295 = CARTESIAN_POINT('',(-50.16417203067,0.,-29.6960291169));
#296 = CARTESIAN_POINT('',(-50.02870940266,0.,-27.99261953476));
#297 = CARTESIAN_POINT('',(-49.88472402383,0.,-26.28991704121));
#298 = CARTESIAN_POINT('',(-49.73295416453,0.,-24.58790620286));
#299 = CARTESIAN_POINT('',(-49.30566127334,0.,-20.01208628479));
#300 = CARTESIAN_POINT('',(-49.01696701703,0.,-17.13952221735));
#301 = CARTESIAN_POINT('',(-48.71128186181,0.,-14.26870693492));
#302 = CARTESIAN_POINT('',(-48.39142864837,0.,-11.39946393931));
#303 = CARTESIAN_POINT('',(-48.05984760241,0.,-8.531589491473));
#304 = CARTESIAN_POINT('',(-47.35122173933,0.,-2.578418798171));
#305 = CARTESIAN_POINT('',(-46.97264289961,0.,0.506674231303));
#306 = CARTESIAN_POINT('',(-46.58546102431,0.,3.590701185861));
#307 = CARTESIAN_POINT('',(-46.19177987168,0.,6.673896027078));
#308 = CARTESIAN_POINT('',(-45.79324333677,0.,9.756456356326));
#309 = CARTESIAN_POINT('',(-45.10303366542,0.,15.044909116909));
#310 = CARTESIAN_POINT('',(-44.81317171485,0.,17.251031413766));
#311 = CARTESIAN_POINT('',(-44.52182607678,0.,19.456958316728));
#312 = CARTESIAN_POINT('',(-44.22928584717,0.,21.662726712696));
#313 = CARTESIAN_POINT('',(-43.93570061833,0.,23.868355696536));
#314 = CARTESIAN_POINT('',(-43.20381316918,0.,29.346996326131));
#315 = CARTESIAN_POINT('',(-42.76425557177,0.,32.619836196387));
#316 = CARTESIAN_POINT('',(-42.32239740519,0.,35.892369666595));
#317 = CARTESIAN_POINT('',(-41.87751848332,0.,39.164496757661));
#318 = CARTESIAN_POINT('',(-41.42808424631,0.,42.435999873897));
#319 = CARTESIAN_POINT('',(-40.52406399994,0.,48.914770211096));
#320 = CARTESIAN_POINT('',(-40.06974259177,0.,52.122052040668));
#321 = CARTESIAN_POINT('',(-39.60652413748,0.,55.328093047515));
#322 = CARTESIAN_POINT('',(-39.13141642587,0.,58.532421132818));
#323 = CARTESIAN_POINT('',(-38.6406595137,0.,61.73438395203));
#324 = CARTESIAN_POINT('',(-37.92182066697,0.,66.236742185104));
#325 = CARTESIAN_POINT('',(-37.71038262937,0.,67.539773475868));
#326 = CARTESIAN_POINT('',(-37.49533981113,0.,68.842218849376));
#327 = CARTESIAN_POINT('',(-37.2763864184,0.,70.144014485034));
#328 = CARTESIAN_POINT('',(-37.0532052023,0.,71.445089804231));
#329 = CARTESIAN_POINT('',(-36.68217096432,0.,73.563556220742));
#330 = CARTESIAN_POINT('',(-36.5370684557,0.,74.381428666583));
#331 = CARTESIAN_POINT('',(-36.39008197068,0.,75.198966081565));
#332 = CARTESIAN_POINT('',(-36.2411294563,0.,76.016148007449));
#333 = CARTESIAN_POINT('',(-36.09012808353,0.,76.832952810488));
#334 = CARTESIAN_POINT('',(-35.78302044427,0.,78.47024067993));
#335 = CARTESIAN_POINT('',(-35.62689091547,0.,79.290719321347));
#336 = CARTESIAN_POINT('',(-35.46852064621,0.,80.110770392861));
#337 = CARTESIAN_POINT('',(-35.30782479657,0.,80.930369448276));
#338 = CARTESIAN_POINT('',(-35.14471870139,0.,81.749490808016));
#339 = CARTESIAN_POINT('',(-34.81223055992,0.,83.393083778867));
#340 = CARTESIAN_POINT('',(-34.64280982046,0.,84.217547515589));
#341 = CARTESIAN_POINT('',(-34.47076916391,0.,85.041471187347));
#342 = CARTESIAN_POINT('',(-34.29602337144,0.,85.864825994227));
#343 = CARTESIAN_POINT('',(-34.11848849333,0.,86.687581918355));
#344 = CARTESIAN_POINT('',(-33.75581853361,0.,88.340294509371));
#345 = CARTESIAN_POINT('',(-33.57062426611,0.,89.170238167411));
#346 = CARTESIAN_POINT('',(-33.38241379285,0.,89.999506441345));
#347 = CARTESIAN_POINT('',(-33.19110433363,0.,90.828065978462));
#348 = CARTESIAN_POINT('',(-32.99661558153,0.,91.655882330007));
#349 = CARTESIAN_POINT('',(-32.59854266052,0.,93.320752839889));
#350 = CARTESIAN_POINT('',(-32.39487312674,0.,94.157786603975));
#351 = CARTESIAN_POINT('',(-32.1877802113,0.,94.993984236163));
#352 = CARTESIAN_POINT('',(-31.97718675678,0.,95.829307893128));
#353 = CARTESIAN_POINT('',(-31.76301933862,0.,96.663718895501));
#354 = CARTESIAN_POINT('',(-31.09934999961,0.,99.203264124436));
#355 = CARTESIAN_POINT('',(-30.6382242143,0.,100.90536279151));
#356 = CARTESIAN_POINT('',(-30.16123602443,0.,102.6031319241));
#357 = CARTESIAN_POINT('',(-29.66786572286,0.,104.29622405644));
#358 = CARTESIAN_POINT('',(-29.15768154932,0.,105.98428964776));
#359 = CARTESIAN_POINT('',(-28.4820408595,0.,108.14023845474));
#360 = CARTESIAN_POINT('',(-28.33237301075,0.,108.61307124133));
#361 = CARTESIAN_POINT('',(-28.18134150058,0.,109.08547135904));
#362 = CARTESIAN_POINT('',(-28.02893952434,0.,109.55743120503));
#363 = CARTESIAN_POINT('',(-27.87516088565,0.,110.02894324235));
#364 = CARTESIAN_POINT('',(-27.71999999632,0.,110.5));
#365 = PCURVE('',#44,#366);
#366 = DEFINITIONAL_REPRESENTATION('',(#367),#495);
#367 = B_SPLINE_CURVE_WITH_KNOTS('',6,(#368,#369,#370,#371,#372,#373,
    #374,#375,#376,#377,#378,#379,#380,#381,#382,#383,#384,#385,#386,
    #387,#388,#389,#390,#391,#392,#393,#394,#395,#396,#397,#398,#399,
    #400,#401,#402,#403,#404,#405,#406,#407,#408,#409,#410,#411,#412,
    #413,#414,#415,#416,#417,#418,#419,#420,#421,#422,#423,#424,#425,
    #426,#427,#428,#429,#430,#431,#432,#433,#434,#435,#436,#437,#438,
    #439,#440,#441,#442,#443,#444,#445,#446,#447,#448,#449,#450,#451,
    #452,#453,#454,#455,#456,#457,#458,#459,#460,#461,#462,#463,#464,
    #465,#466,#467,#468,#469,#470,#471,#472,#473,#474,#475,#476,#477,
    #478,#479,#480,#481,#482,#483,#484,#485,#486,#487,#488,#489,#490,
    #491,#492,#493,#494),.UNSPECIFIED.,.F.,.F.,(7,5,5,5,5,5,5,5,5,5,5,5,
    5,5,5,5,5,5,5,5,5,5,5,5,5,7),(0.,2.003965728761E-02,
    4.69260053009E-02,7.318911575047E-02,9.929908058342E-02,
    0.12527005234,0.160890969325,0.196820947211,0.236949046431,
    0.277547616156,0.318715008609,0.360099076215,0.405153156531,
    0.481273096594,0.563226529403,0.621894568195,0.708963376008,
    0.794373291715,0.829179186299,0.851080477526,0.873101901275,
    0.895294399649,0.917715294068,0.940428846944,0.986923385215,1.),
  .UNSPECIFIED.);
#368 = CARTESIAN_POINT('',(0.5,0.));
#369 = CARTESIAN_POINT('',(0.5,3.222046036544E-03));
#370 = CARTESIAN_POINT('',(0.5,6.46308694231E-03));
#371 = CARTESIAN_POINT('',(0.5,9.722299811862E-03));
#372 = CARTESIAN_POINT('',(0.5,1.299881232984E-02));
#373 = CARTESIAN_POINT('',(0.5,1.629170277096E-02));
#374 = CARTESIAN_POINT('',(0.5,2.403860038896E-02));
#375 = CARTESIAN_POINT('',(0.5,2.850496205005E-02));
#376 = CARTESIAN_POINT('',(0.5,3.299671602986E-02));
#377 = CARTESIAN_POINT('',(0.5,3.751145003125E-02));
#378 = CARTESIAN_POINT('',(0.5,4.204670971475E-02));
#379 = CARTESIAN_POINT('',(0.5,5.104774298136E-02));
#380 = CARTESIAN_POINT('',(0.5,5.551272460759E-02));
#381 = CARTESIAN_POINT('',(0.5,5.999263259731E-02));
#382 = CARTESIAN_POINT('',(0.5,6.448523345272E-02));
#383 = CARTESIAN_POINT('',(0.5,6.898837684507E-02));
#384 = CARTESIAN_POINT('',(0.5,7.79853149493E-02));
#385 = CARTESIAN_POINT('',(0.5,8.24790313535E-02));
#386 = CARTESIAN_POINT('',(0.5,8.697913817625E-02));
#387 = CARTESIAN_POINT('',(0.5,9.148377795046E-02));
#388 = CARTESIAN_POINT('',(0.5,9.59912477231E-02));
#389 = CARTESIAN_POINT('',(0.5,0.104984750508));
#390 = CARTESIAN_POINT('',(0.5,0.109470776447));
#391 = CARTESIAN_POINT('',(0.5,0.113956568007));
#392 = CARTESIAN_POINT('',(0.5,0.118440787284));
#393 = CARTESIAN_POINT('',(0.5,0.122922265464));
#394 = CARTESIAN_POINT('',(0.5,0.133541511057));
#395 = CARTESIAN_POINT('',(0.5,0.139675959266));
#396 = CARTESIAN_POINT('',(0.5,0.145800800417));
#397 = CARTESIAN_POINT('',(0.5,0.151914015359));
#398 = CARTESIAN_POINT('',(0.5,0.158014090781));
#399 = CARTESIAN_POINT('',(0.5,0.170238712929));
#400 = CARTESIAN_POINT('',(0.5,0.176362972509));
#401 = CARTESIAN_POINT('',(0.5,0.18247174145));
#402 = CARTESIAN_POINT('',(0.5,0.188564338286));
#403 = CARTESIAN_POINT('',(0.5,0.194640425891));
#404 = CARTESIAN_POINT('',(0.5,0.207467585325));
#405 = CARTESIAN_POINT('',(0.5,0.214214512057));
#406 = CARTESIAN_POINT('',(0.5,0.22094078438));
#407 = CARTESIAN_POINT('',(0.5,0.227646692039));
#408 = CARTESIAN_POINT('',(0.5,0.234332810314));
#409 = CARTESIAN_POINT('',(0.5,0.247745357258));
#410 = CARTESIAN_POINT('',(0.5,0.254471284558));
#411 = CARTESIAN_POINT('',(0.5,0.261178658693));
#412 = CARTESIAN_POINT('',(0.5,0.267868469595));
#413 = CARTESIAN_POINT('',(0.5,0.27454183248));
#414 = CARTESIAN_POINT('',(0.5,0.287951454476));
#415 = CARTESIAN_POINT('',(0.5,0.294687246672));
#416 = CARTESIAN_POINT('',(0.5,0.301408668871));
#417 = CARTESIAN_POINT('',(0.5,0.308117031008));
#418 = CARTESIAN_POINT('',(0.5,0.31481367682));
#419 = CARTESIAN_POINT('',(0.5,0.328221515113));
#420 = CARTESIAN_POINT('',(0.5,0.334932574173));
#421 = CARTESIAN_POINT('',(0.5,0.341634582552));
#422 = CARTESIAN_POINT('',(0.5,0.348328916009));
#423 = CARTESIAN_POINT('',(0.5,0.35501693517));
#424 = CARTESIAN_POINT('',(0.5,0.368975730904));
#425 = CARTESIAN_POINT('',(0.5,0.376245570257));
#426 = CARTESIAN_POINT('',(0.5,0.383511266587));
#427 = CARTESIAN_POINT('',(0.5,0.390774496658));
#428 = CARTESIAN_POINT('',(0.5,0.398036881093));
#429 = CARTESIAN_POINT('',(0.5,0.417571212108));
#430 = CARTESIAN_POINT('',(0.5,0.429844441309));
#431 = CARTESIAN_POINT('',(0.5,0.4421273537));
#432 = CARTESIAN_POINT('',(0.5,0.454426838321));
#433 = CARTESIAN_POINT('',(0.5,0.466749169106));
#434 = CARTESIAN_POINT('',(0.5,0.492397343494));
#435 = CARTESIAN_POINT('',(0.5,0.505727626288));
#436 = CARTESIAN_POINT('',(0.5,0.519097830967));
#437 = CARTESIAN_POINT('',(0.5,0.532513773499));
#438 = CARTESIAN_POINT('',(0.5,0.545980087312));
#439 = CARTESIAN_POINT('',(0.5,0.569178505645));
#440 = CARTESIAN_POINT('',(0.5,0.578884463989));
#441 = CARTESIAN_POINT('',(0.5,0.588619041682));
#442 = CARTESIAN_POINT('',(0.5,0.598383014889));
#443 = CARTESIAN_POINT('',(0.5,0.608176719276));
#444 = CARTESIAN_POINT('',(0.5,0.632578659165));
#445 = CARTESIAN_POINT('',(0.5,0.647222442669));
#446 = CARTESIAN_POINT('',(0.5,0.661930858707));
#447 = CARTESIAN_POINT('',(0.5,0.676700986245));
#448 = CARTESIAN_POINT('',(0.5,0.691527010326));
#449 = CARTESIAN_POINT('',(0.5,0.720989619708));
#450 = CARTESIAN_POINT('',(0.5,0.735624334708));
#451 = CARTESIAN_POINT('',(0.5,0.750295827408));
#452 = CARTESIAN_POINT('',(0.5,0.764992621588));
#453 = CARTESIAN_POINT('',(0.5,0.779699865315));
#454 = CARTESIAN_POINT('',(0.5,0.800390537913));
#455 = CARTESIAN_POINT('',(0.5,0.806379877974));
#456 = CARTESIAN_POINT('',(0.5,0.812366821516));
#457 = CARTESIAN_POINT('',(0.5,0.81835007969));
#458 = CARTESIAN_POINT('',(0.5,0.824328284528));
#459 = CARTESIAN_POINT('',(0.5,0.834057647411));
#460 = CARTESIAN_POINT('',(0.5,0.837812724997));
#461 = CARTESIAN_POINT('',(0.5,0.841564873661));
#462 = CARTESIAN_POINT('',(0.5,0.845313723965));
#463 = CARTESIAN_POINT('',(0.5,0.849058896122));
#464 = CARTESIAN_POINT('',(0.5,0.856561624506));
#465 = CARTESIAN_POINT('',(0.5,0.860319136386));
#466 = CARTESIAN_POINT('',(0.5,0.864072138823));
#467 = CARTESIAN_POINT('',(0.5,0.867820226914));
#468 = CARTESIAN_POINT('',(0.5,0.871562987666));
#469 = CARTESIAN_POINT('',(0.5,0.879066043516));
#470 = CARTESIAN_POINT('',(0.5,0.882826249556));
#471 = CARTESIAN_POINT('',(0.5,0.886580186895));
#472 = CARTESIAN_POINT('',(0.5,0.890327419346));
#473 = CARTESIAN_POINT('',(0.5,0.894067505754));
#474 = CARTESIAN_POINT('',(0.5,0.901570907538));
#475 = CARTESIAN_POINT('',(0.5,0.905334066658));
#476 = CARTESIAN_POINT('',(0.5,0.909089017069));
#477 = CARTESIAN_POINT('',(0.5,0.912835297605));
#478 = CARTESIAN_POINT('',(0.5,0.916572446223));
#479 = CARTESIAN_POINT('',(0.5,0.924076209291));
#480 = CARTESIAN_POINT('',(0.5,0.927842572658));
#481 = CARTESIAN_POINT('',(0.5,0.931598608597));
#482 = CARTESIAN_POINT('',(0.5,0.935343839817));
#483 = CARTESIAN_POINT('',(0.5,0.93907779324));
#484 = CARTESIAN_POINT('',(0.5,0.950419340118));
#485 = CARTESIAN_POINT('',(0.5,0.957989470503));
#486 = CARTESIAN_POINT('',(0.5,0.965506363949));
#487 = CARTESIAN_POINT('',(0.5,0.972966144164));
#488 = CARTESIAN_POINT('',(0.5,0.980365150052));
#489 = CARTESIAN_POINT('',(0.5,0.989762930633));
#490 = CARTESIAN_POINT('',(0.5,0.991820786992));
#491 = CARTESIAN_POINT('',(0.5,0.99387349409));
#492 = CARTESIAN_POINT('',(0.5,0.995920978942));
#493 = CARTESIAN_POINT('',(0.5,0.99796317057));
#494 = CARTESIAN_POINT('',(0.5,1.));
#495 = ( GEOMETRIC_REPRESENTATION_CONTEXT(2) 
PARAMETRIC_REPRESENTATION_CONTEXT() REPRESENTATION_CONTEXT('2D SPACE',''
  ) );
#496 = PCURVE('',#497,#502);
#497 = PLANE('',#498);
#498 = AXIS2_PLACEMENT_3D('',#499,#500,#501);
#499 = CARTESIAN_POINT('',(-99.,0.,-132.6));
#500 = DIRECTION('',(0.,1.,0.));
#501 = DIRECTION('',(0.,0.,1.));
#502 = DEFINITIONAL_REPRESENTATION('',(#503),#631);
#503 = B_SPLINE_CURVE_WITH_KNOTS('',6,(#504,#505,#506,#507,#508,#509,
    #510,#511,#512,#513,#514,#515,#516,#517,#518,#519,#520,#521,#522,
    #523,#524,#525,#526,#527,#528,#529,#530,#531,#532,#533,#534,#535,
    #536,#537,#538,#539,#540,#541,#542,#543,#544,#545,#546,#547,#548,
    #549,#550,#551,#552,#553,#554,#555,#556,#557,#558,#559,#560,#561,
    #562,#563,#564,#565,#566,#567,#568,#569,#570,#571,#572,#573,#574,
    #575,#576,#577,#578,#579,#580,#581,#582,#583,#584,#585,#586,#587,
    #588,#589,#590,#591,#592,#593,#594,#595,#596,#597,#598,#599,#600,
    #601,#602,#603,#604,#605,#606,#607,#608,#609,#610,#611,#612,#613,
    #614,#615,#616,#617,#618,#619,#620,#621,#622,#623,#624,#625,#626,
    #627,#628,#629,#630),.UNSPECIFIED.,.F.,.F.,(7,5,5,5,5,5,5,5,5,5,5,5,
    5,5,5,5,5,5,5,5,5,5,5,5,5,7),(0.,2.003965728761E-02,
    4.69260053009E-02,7.318911575047E-02,9.929908058342E-02,
    0.12527005234,0.160890969325,0.196820947211,0.236949046431,
    0.277547616156,0.318715008609,0.360099076215,0.405153156531,
    0.481273096594,0.563226529403,0.621894568195,0.708963376008,
    0.794373291715,0.829179186299,0.851080477526,0.873101901275,
    0.895294399649,0.917715294068,0.940428846944,0.986923385215,1.),
  .UNSPECIFIED.);
#504 = CARTESIAN_POINT('',(22.1,66.825000004264));
#505 = CARTESIAN_POINT('',(22.648004315467,66.298359448428));
#506 = CARTESIAN_POINT('',(23.204241680386,65.780284341269));
#507 = CARTESIAN_POINT('',(23.768589390445,65.27098561614));
#508 = CARTESIAN_POINT('',(24.340903960097,64.770654725998));
#509 = CARTESIAN_POINT('',(24.921021122566,64.279463643399));
#510 = CARTESIAN_POINT('',(26.297294259033,63.151021948208));
#511 = CARTESIAN_POINT('',(27.09954949853,62.521200980523));
#512 = CARTESIAN_POINT('',(27.91507024134,61.908472634702));
#513 = CARTESIAN_POINT('',(28.743357002071,61.313122570936));
#514 = CARTESIAN_POINT('',(29.583864814957,60.735355164051));
#515 = CARTESIAN_POINT('',(31.268394036836,59.62822169948));
#516 = CARTESIAN_POINT('',(32.111888795317,59.098039943564));
#517 = CARTESIAN_POINT('',(32.965945170926,58.584869255708));
#518 = CARTESIAN_POINT('',(33.830001201607,58.088742771026));
#519 = CARTESIAN_POINT('',(34.703483998663,57.609619687722));
#520 = CARTESIAN_POINT('',(36.463002434433,56.687866603605));
#521 = CARTESIAN_POINT('',(37.348939158116,56.245038046484));
#522 = CARTESIAN_POINT('',(38.243061287946,55.818805649404));
#523 = CARTESIAN_POINT('',(39.144813039925,55.40899683471));
#524 = CARTESIAN_POINT('',(40.053653384294,55.015383237782));
#525 = CARTESIAN_POINT('',(41.879597464351,54.26201401676));
#526 = CARTESIAN_POINT('',(42.796632790347,53.90208877323));
#527 = CARTESIAN_POINT('',(43.719658344108,53.557649036855));
#528 = CARTESIAN_POINT('',(44.648188965195,53.228382825714));
#529 = CARTESIAN_POINT('',(45.581767975409,52.913945780909));
#530 = CARTESIAN_POINT('',(47.806779468353,52.202538469632));
#531 = CARTESIAN_POINT('',(49.102282637038,51.818314868404));
#532 = CARTESIAN_POINT('',(50.405394304526,51.460352910473));
#533 = CARTESIAN_POINT('',(51.715131071276,51.127635555099));
#534 = CARTESIAN_POINT('',(53.030622056215,50.819112146711));
#535 = CARTESIAN_POINT('',(55.68307184342,50.245878498516));
#536 = CARTESIAN_POINT('',(57.020109093356,49.981573409433));
#537 = CARTESIAN_POINT('',(58.361464008612,49.739737949844));
#538 = CARTESIAN_POINT('',(59.706464144579,49.519299343288));
#539 = CARTESIAN_POINT('',(61.054533568897,49.319207974899));
#540 = CARTESIAN_POINT('',(63.91367154495,48.93657871181));
#541 = CARTESIAN_POINT('',(65.425367791498,48.758825172788));
#542 = CARTESIAN_POINT('',(66.939621825453,48.603782142958));
#543 = CARTESIAN_POINT('',(68.455873179701,48.470105427372));
#544 = CARTESIAN_POINT('',(69.97366411336,48.356522494185));
#545 = CARTESIAN_POINT('',(73.029425079036,48.166043197954));
#546 = CARTESIAN_POINT('',(74.567410507774,48.089593254057));
#547 = CARTESIAN_POINT('',(76.106225687013,48.031249223486));
#548 = CARTESIAN_POINT('',(77.645565032972,47.989854142763));
#549 = CARTESIAN_POINT('',(79.185188038974,47.964328792509));
#550 = CARTESIAN_POINT('',(82.286223273802,47.942856959567));
#551 = CARTESIAN_POINT('',(83.847629718235,47.947329938347));
#552 = CARTESIAN_POINT('',(85.408952218791,47.96603787896));
#553 = CARTESIAN_POINT('',(86.970043385042,47.998009491559));
#554 = CARTESIAN_POINT('',(88.530794791637,48.042343961563));
#555 = CARTESIAN_POINT('',(91.659691866013,48.154358234653));
#556 = CARTESIAN_POINT('',(93.227827500303,48.222159470242));
#557 = CARTESIAN_POINT('',(94.795471195243,48.30075742736));
#558 = CARTESIAN_POINT('',(96.362571165038,48.389365800852));
#559 = CARTESIAN_POINT('',(97.929096946684,48.48725605591));
#560 = CARTESIAN_POINT('',(101.19985309247,48.709690375753));
#561 = CARTESIAN_POINT('',(102.90397088309,48.835827969321));
#562 = CARTESIAN_POINT('',(104.60738046523,48.97129059734));
#563 = CARTESIAN_POINT('',(106.31008295878,49.115275976162));
#564 = CARTESIAN_POINT('',(108.01209379713,49.267045835466));
#565 = CARTESIAN_POINT('',(112.58791371521,49.694338726652));
#566 = CARTESIAN_POINT('',(115.46047778264,49.983032982967));
#567 = CARTESIAN_POINT('',(118.33129306507,50.288718138183));
#568 = CARTESIAN_POINT('',(121.20053606068,50.608571351624));
#569 = CARTESIAN_POINT('',(124.06841050852,50.940152397583));
#570 = CARTESIAN_POINT('',(130.02158120182,51.648778260668));
#571 = CARTESIAN_POINT('',(133.1066742313,52.027357100381));
#572 = CARTESIAN_POINT('',(136.19070118586,52.414538975686));
#573 = CARTESIAN_POINT('',(139.27389602707,52.808220128314));
#574 = CARTESIAN_POINT('',(142.35645635632,53.206756663226));
#575 = CARTESIAN_POINT('',(147.6449091169,53.896966334575));
#576 = CARTESIAN_POINT('',(149.85103141376,54.186828285142));
#577 = CARTESIAN_POINT('',(152.05695831672,54.47817392322));
#578 = CARTESIAN_POINT('',(154.26272671269,54.770714152827));
#579 = CARTESIAN_POINT('',(156.46835569653,55.064299381662));
#580 = CARTESIAN_POINT('',(161.94699632613,55.796186830812));
#581 = CARTESIAN_POINT('',(165.21983619638,56.235744428221));
#582 = CARTESIAN_POINT('',(168.49236966659,56.677602594806));
#583 = CARTESIAN_POINT('',(171.76449675766,57.12248151668));
#584 = CARTESIAN_POINT('',(175.03599987389,57.571915753687));
#585 = CARTESIAN_POINT('',(181.51477021109,58.475936000057));
#586 = CARTESIAN_POINT('',(184.72205204066,58.930257408221));
#587 = CARTESIAN_POINT('',(187.92809304751,59.393475862511));
#588 = CARTESIAN_POINT('',(191.13242113281,59.868583574129));
#589 = CARTESIAN_POINT('',(194.33438395202,60.359340486294));
#590 = CARTESIAN_POINT('',(198.8367421851,61.078179333026));
#591 = CARTESIAN_POINT('',(200.13977347586,61.289617370629));
#592 = CARTESIAN_POINT('',(201.44221884937,61.504660188866));
#593 = CARTESIAN_POINT('',(202.74401448503,61.723613581597));
#594 = CARTESIAN_POINT('',(204.04508980423,61.946794797697));
#595 = CARTESIAN_POINT('',(206.16355622074,62.317829035677));
#596 = CARTESIAN_POINT('',(206.98142866658,62.462931544298));
#597 = CARTESIAN_POINT('',(207.79896608156,62.609918029316));
#598 = CARTESIAN_POINT('',(208.61614800744,62.758870543691));
#599 = CARTESIAN_POINT('',(209.43295281048,62.90987191647));
#600 = CARTESIAN_POINT('',(211.07024067993,63.216979555728));
#601 = CARTESIAN_POINT('',(211.89071932134,63.373109084525));
#602 = CARTESIAN_POINT('',(212.71077039286,63.531479353789));
#603 = CARTESIAN_POINT('',(213.53036944827,63.692175203421));
#604 = CARTESIAN_POINT('',(214.34949080801,63.855281298607));
#605 = CARTESIAN_POINT('',(215.99308377886,64.187769440074));
#606 = CARTESIAN_POINT('',(216.81754751558,64.357190179536));
#607 = CARTESIAN_POINT('',(217.64147118734,64.52923083609));
#608 = CARTESIAN_POINT('',(218.46482599422,64.703976628551));
#609 = CARTESIAN_POINT('',(219.28758191835,64.881511506666));
#610 = CARTESIAN_POINT('',(220.94029450937,65.244181466386));
#611 = CARTESIAN_POINT('',(221.77023816741,65.42937573389));
#612 = CARTESIAN_POINT('',(222.59950644134,65.617586207147));
#613 = CARTESIAN_POINT('',(223.42806597846,65.80889566637));
#614 = CARTESIAN_POINT('',(224.25588233,66.003384418461));
#615 = CARTESIAN_POINT('',(225.92075283988,66.401457339475));
#616 = CARTESIAN_POINT('',(226.75778660397,66.605126873259));
#617 = CARTESIAN_POINT('',(227.59398423616,66.812219788695));
#618 = CARTESIAN_POINT('',(228.42930789312,67.02281324322));
#619 = CARTESIAN_POINT('',(229.2637188955,67.236980661378));
#620 = CARTESIAN_POINT('',(231.80326412443,67.900650000385));
#621 = CARTESIAN_POINT('',(233.50536279151,68.361775785699));
#622 = CARTESIAN_POINT('',(235.2031319241,68.838763975569));
#623 = CARTESIAN_POINT('',(236.89622405644,69.33213427714));
#624 = CARTESIAN_POINT('',(238.58428964776,69.842318450673));
#625 = CARTESIAN_POINT('',(240.74023845474,70.517959140495));
#626 = CARTESIAN_POINT('',(241.21307124133,70.667626989242));
#627 = CARTESIAN_POINT('',(241.68547135904,70.818658499418));
#628 = CARTESIAN_POINT('',(242.15743120503,70.971060475652));
#629 = CARTESIAN_POINT('',(242.62894324235,71.124839114346));
#630 = CARTESIAN_POINT('',(243.1,71.280000003673));
#631 = ( GEOMETRIC_REPRESENTATION_CONTEXT(2) 
PARAMETRIC_REPRESENTATION_CONTEXT() REPRESENTATION_CONTEXT('2D SPACE',''
  ) );
#632 = ADVANCED_FACE('',(#633),#127,.F.);
#633 = FACE_BOUND('',#634,.F.);
#634 = EDGE_LOOP('',(#635,#636,#657,#780));
#635 = ORIENTED_EDGE('',*,*,#21,.T.);
#636 = ORIENTED_EDGE('',*,*,#637,.T.);
#637 = EDGE_CURVE('',#24,#638,#640,.T.);
#638 = VERTEX_POINT('',#639);
#639 = CARTESIAN_POINT('',(29.175,0.,-110.5));
#640 = SURFACE_CURVE('',#641,(#645,#651),.PCURVE_S1.);
#641 = LINE('',#642,#643);
#642 = CARTESIAN_POINT('',(-33.4125,0.,-110.5));
#643 = VECTOR('',#644,1.);
#644 = DIRECTION('',(-1.,0.,0.));
#645 = PCURVE('',#127,#646);
#646 = DEFINITIONAL_REPRESENTATION('',(#647),#650);
#647 = B_SPLINE_CURVE_WITH_KNOTS('',1,(#648,#649),.UNSPECIFIED.,.F.,.F.,
  (2,2),(-65.5875,14.329685270714),.PIECEWISE_BEZIER_KNOTS.);
#648 = CARTESIAN_POINT('',(-8.725464795134E-12,1.704620093857E-14));
#649 = CARTESIAN_POINT('',(79.917185270714,8.399668795832E-16));
#650 = ( GEOMETRIC_REPRESENTATION_CONTEXT(2) 
PARAMETRIC_REPRESENTATION_CONTEXT() REPRESENTATION_CONTEXT('2D SPACE',''
  ) );
#651 = PCURVE('',#169,#652);
#652 = DEFINITIONAL_REPRESENTATION('',(#653),#656);
#653 = B_SPLINE_CURVE_WITH_KNOTS('',1,(#654,#655),.UNSPECIFIED.,.F.,.F.,
  (2,2),(-65.5875,14.329685270714),.PIECEWISE_BEZIER_KNOTS.);
#654 = CARTESIAN_POINT('',(22.1,131.175));
#655 = CARTESIAN_POINT('',(22.1,51.257814729286));
#656 = ( GEOMETRIC_REPRESENTATION_CONTEXT(2) 
PARAMETRIC_REPRESENTATION_CONTEXT() REPRESENTATION_CONTEXT('2D SPACE',''
  ) );
#657 = ORIENTED_EDGE('',*,*,#658,.F.);
#658 = EDGE_CURVE('',#659,#638,#661,.T.);
#659 = VERTEX_POINT('',#660);
#660 = CARTESIAN_POINT('',(-29.17499999613,2.6645352591E-15,-110.5));
#661 = SURFACE_CURVE('',#662,(#678,#697),.PCURVE_S1.);
#662 = B_SPLINE_CURVE_WITH_KNOTS('',14,(#663,#664,#665,#666,#667,#668,
    #669,#670,#671,#672,#673,#674,#675,#676,#677),.UNSPECIFIED.,.T.,.F.,
  (15,15),(0.,1.),.PIECEWISE_BEZIER_KNOTS.);
#663 = CARTESIAN_POINT('',(29.175,-2.628077228483E-14,-110.5));
#664 = CARTESIAN_POINT('',(29.175000000003,9.155498590467,-110.5));
#665 = CARTESIAN_POINT('',(22.846523511994,18.311000560429,-110.5));
#666 = CARTESIAN_POINT('',(10.18956244568,25.149514670085,-110.5));
#667 = CARTESIAN_POINT('',(-6.903114684989,27.354310954864,-110.5));
#668 = CARTESIAN_POINT('',(-24.64632989229,23.439127964591,-110.5));
#669 = CARTESIAN_POINT('',(-38.19129164585,13.584059003407,-110.5));
#670 = CARTESIAN_POINT('',(-43.29069946479,2.642304463671E-10,-110.5));
#671 = CARTESIAN_POINT('',(-38.19129164587,-13.58405900389,-110.5));
#672 = CARTESIAN_POINT('',(-24.64632989226,-23.43912796421,-110.5));
#673 = CARTESIAN_POINT('',(-6.903114685011,-27.35431095509,-110.5));
#674 = CARTESIAN_POINT('',(10.189562445692,-25.14951466996,-110.5));
#675 = CARTESIAN_POINT('',(22.846523511989,-18.31100056047,-110.5));
#676 = CARTESIAN_POINT('',(29.175000000005,-9.155498590458,-110.5));
#677 = CARTESIAN_POINT('',(29.175,1.635179167275E-14,-110.5));
#678 = PCURVE('',#127,#679);
#679 = DEFINITIONAL_REPRESENTATION('',(#680),#696);
#680 = B_SPLINE_CURVE_WITH_KNOTS('',14,(#681,#682,#683,#684,#685,#686,
    #687,#688,#689,#690,#691,#692,#693,#694,#695),.UNSPECIFIED.,.F.,.F.,
  (15,15),(0.,1.),.PIECEWISE_BEZIER_KNOTS.);
#681 = CARTESIAN_POINT('',(3.,4.271860967791E-14));
#682 = CARTESIAN_POINT('',(2.999999999997,-9.155498590467));
#683 = CARTESIAN_POINT('',(9.328476488006,-18.31100056042));
#684 = CARTESIAN_POINT('',(21.98543755432,-25.14951467008));
#685 = CARTESIAN_POINT('',(39.078114684989,-27.35431095486));
#686 = CARTESIAN_POINT('',(56.82132989229,-23.43912796459));
#687 = CARTESIAN_POINT('',(70.366291645857,-13.5840590034));
#688 = CARTESIAN_POINT('',(75.465699464797,-2.64228703693E-10));
#689 = CARTESIAN_POINT('',(70.366291645875,13.584059003892));
#690 = CARTESIAN_POINT('',(56.821329892264,23.439127964218));
#691 = CARTESIAN_POINT('',(39.078114685011,27.354310955099));
#692 = CARTESIAN_POINT('',(21.985437554308,25.149514669968));
#693 = CARTESIAN_POINT('',(9.328476488011,18.311000560472));
#694 = CARTESIAN_POINT('',(2.999999999995,9.155498590458));
#695 = CARTESIAN_POINT('',(3.,8.604572032765E-17));
#696 = ( GEOMETRIC_REPRESENTATION_CONTEXT(2) 
PARAMETRIC_REPRESENTATION_CONTEXT() REPRESENTATION_CONTEXT('2D SPACE',''
  ) );
#697 = PCURVE('',#698,#774);
#698 = ( BOUNDED_SURFACE() B_SPLINE_SURFACE(14,4,(
    (#699,#700,#701,#702,#703)
    ,(#704,#705,#706,#707,#708)
    ,(#709,#710,#711,#712,#713)
    ,(#714,#715,#716,#717,#718)
    ,(#719,#720,#721,#722,#723)
    ,(#724,#725,#726,#727,#728)
    ,(#729,#730,#731,#732,#733)
    ,(#734,#735,#736,#737,#738)
    ,(#739,#740,#741,#742,#743)
    ,(#744,#745,#746,#747,#748)
    ,(#749,#750,#751,#752,#753)
    ,(#754,#755,#756,#757,#758)
    ,(#759,#760,#761,#762,#763)
    ,(#764,#765,#766,#767,#768)
    ,(#769,#770,#771,#772,#773
)),.UNSPECIFIED.,.T.,.F.,.F.) B_SPLINE_SURFACE_WITH_KNOTS((15,15),(5,5),
  (0.,1.),(0.,1.),.PIECEWISE_BEZIER_KNOTS.) 
GEOMETRIC_REPRESENTATION_ITEM() RATIONAL_B_SPLINE_SURFACE((
    (1.,1.,1.,1.,1.)
    ,(1.,1.,1.,1.,1.)
    ,(1.,1.,1.,1.,1.)
    ,(1.,1.,1.,1.,1.)
    ,(1.,1.,1.,1.,1.)
    ,(1.,1.,1.,1.,1.)
    ,(1.,1.,1.,1.,1.)
    ,(1.,1.,1.,1.,1.)
    ,(1.,1.,1.,1.,1.)
    ,(1.,1.,1.,1.,1.)
    ,(1.,1.,1.,1.,1.)
    ,(1.,1.,1.,1.,1.)
    ,(1.,1.,1.,1.,1.)
    ,(1.,1.,1.,1.,1.)
,(1.,1.,1.,1.,1.))) REPRESENTATION_ITEM('') SURFACE() );
#699 = CARTESIAN_POINT('',(29.175,-2.628077228483E-14,-110.5));
#700 = CARTESIAN_POINT('',(70.037277411024,3.642548839354E-14,
    -67.98009888345));
#701 = CARTESIAN_POINT('',(32.833928157823,-9.302862178848E-14,
    8.002452033405));
#702 = CARTESIAN_POINT('',(43.76441371994,-4.355349198025E-15,
    52.682596298459));
#703 = CARTESIAN_POINT('',(24.72,1.65519983175E-14,110.5));
#704 = CARTESIAN_POINT('',(29.175000000003,9.155498590467,-110.5));
#705 = CARTESIAN_POINT('',(70.037277411043,22.492914748753,
    -67.98009888345));
#706 = CARTESIAN_POINT('',(32.833928157816,10.349769948462,
    8.002452033405));
#707 = CARTESIAN_POINT('',(43.764413719946,13.917472093095,
    52.682596298459));
#708 = CARTESIAN_POINT('',(24.720000000005,7.701389990806,110.5));
#709 = CARTESIAN_POINT('',(22.846523511994,18.311000560429,-110.5));
#710 = CARTESIAN_POINT('',(54.845186121187,44.985837800126,
    -67.98009888345));
#711 = CARTESIAN_POINT('',(25.711777605838,20.699543717211,
    8.002452033405));
#712 = CARTESIAN_POINT('',(34.271283874588,27.834949323421,
    52.682596298459));
#713 = CARTESIAN_POINT('',(19.357876991129,15.402782824357,110.5));
#714 = CARTESIAN_POINT('',(10.18956244568,25.149514670085,-110.5));
#715 = CARTESIAN_POINT('',(24.460984120267,61.786464588169,
    -67.98009888345));
#716 = CARTESIAN_POINT('',(11.467467396633,28.430094612465,
    8.002452033405));
#717 = CARTESIAN_POINT('',(15.285012047932,38.230323025819,
    52.682596298459));
#718 = CARTESIAN_POINT('',(8.633624118527,21.155179987199,110.5));
#719 = CARTESIAN_POINT('',(-6.903114684989,27.354310954864,-110.5));
#720 = CARTESIAN_POINT('',(-16.57156326307,67.203132438769,
    -67.98009888345));
#721 = CARTESIAN_POINT('',(-7.768855925372,30.922491296666,
    8.002452033405));
#722 = CARTESIAN_POINT('',(-10.35512483398,41.581881705046,
    52.682596298459));
#723 = CARTESIAN_POINT('',(-5.849014396388,23.00980274437,110.5));
#724 = CARTESIAN_POINT('',(-24.64632989229,23.439127964591,-110.5));
#725 = CARTESIAN_POINT('',(-59.16578727739,57.58444522535,
    -67.98009888345));
#726 = CARTESIAN_POINT('',(-27.73730334375,26.496599811594,
    8.002452033405));
#727 = CARTESIAN_POINT('',(-36.97111150236,35.630327077366,
    52.682596298459));
#728 = CARTESIAN_POINT('',(-20.88285432509,19.716442934938,110.5));
#729 = CARTESIAN_POINT('',(-38.19129164585,13.584059003407,-110.5));
#730 = CARTESIAN_POINT('',(-91.6817168021,33.372849996684,
    -67.98009888345));
#731 = CARTESIAN_POINT('',(-42.980981187,15.35600538419,8.002452033405)
  );
#732 = CARTESIAN_POINT('',(-57.28944260814,20.64942288191,
    52.682596298459));
#733 = CARTESIAN_POINT('',(-32.35951086509,11.426590808738,110.5));
#734 = CARTESIAN_POINT('',(-43.29069946479,2.642304463671E-10,-110.5));
#735 = CARTESIAN_POINT('',(-103.9233154316,7.657447035973E-10,
    -67.98009888345));
#736 = CARTESIAN_POINT('',(-48.71992171917,4.302094116341E-10,
    8.002452033405));
#737 = CARTESIAN_POINT('',(-64.93888882937,5.983125688583E-10,
    52.682596298459));
#738 = CARTESIAN_POINT('',(-36.68024304253,2.170044386714E-10,110.5));
#739 = CARTESIAN_POINT('',(-38.19129164587,-13.58405900389,-110.5));
#740 = CARTESIAN_POINT('',(-91.6817168021,-33.37284999807,
    -67.98009888345));
#741 = CARTESIAN_POINT('',(-42.98098118689,-15.35600538499,
    8.002452033405));
#742 = CARTESIAN_POINT('',(-57.28944260824,-20.649422883,52.682596298459
    ));
#743 = CARTESIAN_POINT('',(-32.3595108651,-11.42659080913,110.5));
#744 = CARTESIAN_POINT('',(-24.64632989226,-23.43912796421,-110.5));
#745 = CARTESIAN_POINT('',(-59.1657872774,-57.58444522431,
    -67.98009888345));
#746 = CARTESIAN_POINT('',(-27.73730334391,-26.49659981094,
    8.002452033405));
#747 = CARTESIAN_POINT('',(-36.97111150222,-35.63032707654,
    52.682596298459));
#748 = CARTESIAN_POINT('',(-20.88285432508,-19.71644293463,110.5));
#749 = CARTESIAN_POINT('',(-6.903114685011,-27.35431095509,-110.5));
#750 = CARTESIAN_POINT('',(-16.57156326306,-67.20313243939,
    -67.98009888345));
#751 = CARTESIAN_POINT('',(-7.768855925235,-30.9224912971,8.002452033405
    ));
#752 = CARTESIAN_POINT('',(-10.3551248341,-41.58188170554,
    52.682596298459));
#753 = CARTESIAN_POINT('',(-5.8490143964,-23.00980274456,110.5));
#754 = CARTESIAN_POINT('',(10.189562445692,-25.14951466996,-110.5));
#755 = CARTESIAN_POINT('',(24.460984120255,-61.78646458787,
    -67.98009888345));
#756 = CARTESIAN_POINT('',(11.467467396555,-28.43009461223,
    8.002452033405));
#757 = CARTESIAN_POINT('',(15.285012048006,-38.23032302557,
    52.682596298459));
#758 = CARTESIAN_POINT('',(8.633624118534,-21.1551799871,110.5));
#759 = CARTESIAN_POINT('',(22.846523511989,-18.31100056047,-110.5));
#760 = CARTESIAN_POINT('',(54.845186121194,-44.98583780022,
    -67.98009888345));
#761 = CARTESIAN_POINT('',(25.711777605868,-20.6995437173,8.002452033405
    ));
#762 = CARTESIAN_POINT('',(34.271283874558,-27.8349493235,
    52.682596298459));
#763 = CARTESIAN_POINT('',(19.357876991127,-15.40278282439,110.5));
#764 = CARTESIAN_POINT('',(29.175000000005,-9.155498590458,-110.5));
#765 = CARTESIAN_POINT('',(70.037277411041,-22.49291474873,
    -67.98009888345));
#766 = CARTESIAN_POINT('',(32.83392815781,-10.34976994844,8.002452033405
    ));
#767 = CARTESIAN_POINT('',(43.764413719953,-13.91747209307,
    52.682596298459));
#768 = CARTESIAN_POINT('',(24.720000000006,-7.701389990798,110.5));
#769 = CARTESIAN_POINT('',(29.175,1.635179167275E-14,-110.5));
#770 = CARTESIAN_POINT('',(70.037277411024,-3.214431877124E-15,
    -67.98009888345));
#771 = CARTESIAN_POINT('',(32.833928157823,1.406447062296E-13,
    8.002452033405));
#772 = CARTESIAN_POINT('',(43.76441371994,-1.025799525589E-13,
    52.682596298459));
#773 = CARTESIAN_POINT('',(24.72,-1.897513862867E-14,110.5));
#774 = DEFINITIONAL_REPRESENTATION('',(#775),#779);
#775 = LINE('',#776,#777);
#776 = CARTESIAN_POINT('',(0.,0.));
#777 = VECTOR('',#778,1.);
#778 = DIRECTION('',(1.,0.));
#779 = ( GEOMETRIC_REPRESENTATION_CONTEXT(2) 
PARAMETRIC_REPRESENTATION_CONTEXT() REPRESENTATION_CONTEXT('2D SPACE',''
  ) );
#780 = ORIENTED_EDGE('',*,*,#781,.T.);
#781 = EDGE_CURVE('',#659,#22,#782,.T.);
#782 = SURFACE_CURVE('',#783,(#787,#793),.PCURVE_S1.);
#783 = LINE('',#784,#785);
#784 = CARTESIAN_POINT('',(-33.4125,0.,-110.5));
#785 = VECTOR('',#786,1.);
#786 = DIRECTION('',(-1.,0.,0.));
#787 = PCURVE('',#127,#788);
#788 = DEFINITIONAL_REPRESENTATION('',(#789),#792);
#789 = B_SPLINE_CURVE_WITH_KNOTS('',1,(#790,#791),.UNSPECIFIED.,.F.,.F.,
  (2,2),(-65.5875,14.329685270714),.PIECEWISE_BEZIER_KNOTS.);
#790 = CARTESIAN_POINT('',(-8.725464795134E-12,1.704620093857E-14));
#791 = CARTESIAN_POINT('',(79.917185270714,8.399668795832E-16));
#792 = ( GEOMETRIC_REPRESENTATION_CONTEXT(2) 
PARAMETRIC_REPRESENTATION_CONTEXT() REPRESENTATION_CONTEXT('2D SPACE',''
  ) );
#793 = PCURVE('',#497,#794);
#794 = DEFINITIONAL_REPRESENTATION('',(#795),#798);
#795 = B_SPLINE_CURVE_WITH_KNOTS('',1,(#796,#797),.UNSPECIFIED.,.F.,.F.,
  (2,2),(-65.5875,14.329685270714),.PIECEWISE_BEZIER_KNOTS.);
#796 = CARTESIAN_POINT('',(22.1,131.175));
#797 = CARTESIAN_POINT('',(22.1,51.257814729286));
#798 = ( GEOMETRIC_REPRESENTATION_CONTEXT(2) 
PARAMETRIC_REPRESENTATION_CONTEXT() REPRESENTATION_CONTEXT('2D SPACE',''
  ) );
#799 = ADVANCED_FACE('',(#800),#497,.T.);
#800 = FACE_BOUND('',#801,.T.);
#801 = EDGE_LOOP('',(#802,#803,#804,#825));
#802 = ORIENTED_EDGE('',*,*,#781,.T.);
#803 = ORIENTED_EDGE('',*,*,#235,.T.);
#804 = ORIENTED_EDGE('',*,*,#805,.T.);
#805 = EDGE_CURVE('',#184,#806,#808,.T.);
#806 = VERTEX_POINT('',#807);
#807 = CARTESIAN_POINT('',(-24.71999999672,1.7763568394E-15,110.5));
#808 = SURFACE_CURVE('',#809,(#813,#819),.PCURVE_S1.);
#809 = LINE('',#810,#811);
#810 = CARTESIAN_POINT('',(-35.64,0.,110.5));
#811 = VECTOR('',#812,1.);
#812 = DIRECTION('',(1.,-0.,0.));
#813 = PCURVE('',#497,#814);
#814 = DEFINITIONAL_REPRESENTATION('',(#815),#818);
#815 = B_SPLINE_CURVE_WITH_KNOTS('',1,(#816,#817),.UNSPECIFIED.,.F.,.F.,
  (2,2),(-5.491728848652,63.360000000006),.PIECEWISE_BEZIER_KNOTS.);
#816 = CARTESIAN_POINT('',(243.1,57.868271151348));
#817 = CARTESIAN_POINT('',(243.1,126.72));
#818 = ( GEOMETRIC_REPRESENTATION_CONTEXT(2) 
PARAMETRIC_REPRESENTATION_CONTEXT() REPRESENTATION_CONTEXT('2D SPACE',''
  ) );
#819 = PCURVE('',#211,#820);
#820 = DEFINITIONAL_REPRESENTATION('',(#821),#824);
#821 = B_SPLINE_CURVE_WITH_KNOTS('',1,(#822,#823),.UNSPECIFIED.,.F.,.F.,
  (2,2),(-5.491728848652,63.360000000006),.PIECEWISE_BEZIER_KNOTS.);
#822 = CARTESIAN_POINT('',(68.851728848652,-3.792370003967E-15));
#823 = CARTESIAN_POINT('',(-6.316724920907E-12,4.277408552738E-15));
#824 = ( GEOMETRIC_REPRESENTATION_CONTEXT(2) 
PARAMETRIC_REPRESENTATION_CONTEXT() REPRESENTATION_CONTEXT('2D SPACE',''
  ) );
#825 = ORIENTED_EDGE('',*,*,#826,.F.);
#826 = EDGE_CURVE('',#659,#806,#827,.T.);
#827 = SURFACE_CURVE('',#828,(#956,#1087),.PCURVE_S1.);
#828 = B_SPLINE_CURVE_WITH_KNOTS('',6,(#829,#830,#831,#832,#833,#834,
    #835,#836,#837,#838,#839,#840,#841,#842,#843,#844,#845,#846,#847,
    #848,#849,#850,#851,#852,#853,#854,#855,#856,#857,#858,#859,#860,
    #861,#862,#863,#864,#865,#866,#867,#868,#869,#870,#871,#872,#873,
    #874,#875,#876,#877,#878,#879,#880,#881,#882,#883,#884,#885,#886,
    #887,#888,#889,#890,#891,#892,#893,#894,#895,#896,#897,#898,#899,
    #900,#901,#902,#903,#904,#905,#906,#907,#908,#909,#910,#911,#912,
    #913,#914,#915,#916,#917,#918,#919,#920,#921,#922,#923,#924,#925,
    #926,#927,#928,#929,#930,#931,#932,#933,#934,#935,#936,#937,#938,
    #939,#940,#941,#942,#943,#944,#945,#946,#947,#948,#949,#950,#951,
    #952,#953,#954,#955),.UNSPECIFIED.,.F.,.F.,(7,5,5,5,5,5,5,5,5,5,5,5,
    5,5,5,5,5,5,5,5,5,5,5,5,5,7),(0.,2.003965728781E-02,
    4.692600530135E-02,7.318911575118E-02,9.929908058439E-02,
    0.125270052341,0.160890969326,0.196820947213,0.236949046434,
    0.277547616159,0.318715008612,0.360099076219,0.405153156535,
    0.481273096598,0.563226529407,0.621894568199,0.708963376011,
    0.794373291717,0.8291791863,0.851080477527,0.873101901276,
    0.895294399649,0.917715294069,0.940428846944,0.986923385215,1.),
  .UNSPECIFIED.);
#829 = CARTESIAN_POINT('',(-29.17499999613,0.,-110.5));
#830 = CARTESIAN_POINT('',(-29.70164055197,0.,-109.9519956845));
#831 = CARTESIAN_POINT('',(-30.21971565912,0.,-109.3957583196));
#832 = CARTESIAN_POINT('',(-30.72901438425,0.,-108.8314106095));
#833 = CARTESIAN_POINT('',(-31.2293452744,0.,-108.2590960399));
#834 = CARTESIAN_POINT('',(-31.72053635699,0.,-107.6789788774));
#835 = CARTESIAN_POINT('',(-32.84897805219,0.,-106.3027057409));
#836 = CARTESIAN_POINT('',(-33.47879901987,0.,-105.5004505014));
#837 = CARTESIAN_POINT('',(-34.09152736569,0.,-104.6849297586));
#838 = CARTESIAN_POINT('',(-34.68687742946,0.,-103.8566429979));
#839 = CARTESIAN_POINT('',(-35.26464483634,0.,-103.016135185));
#840 = CARTESIAN_POINT('',(-36.37177830091,0.,-101.3316059631));
#841 = CARTESIAN_POINT('',(-36.90196005683,0.,-100.4881112046));
#842 = CARTESIAN_POINT('',(-37.41513074468,0.,-99.63405482907));
#843 = CARTESIAN_POINT('',(-37.91125722937,0.,-98.76999879839));
#844 = CARTESIAN_POINT('',(-38.39038031267,0.,-97.89651600133));
#845 = CARTESIAN_POINT('',(-39.31213339679,0.,-96.13699756556));
#846 = CARTESIAN_POINT('',(-39.75496195391,0.,-95.25106084188));
#847 = CARTESIAN_POINT('',(-40.18119435099,0.,-94.35693871205));
#848 = CARTESIAN_POINT('',(-40.59100316568,0.,-93.45518696007));
#849 = CARTESIAN_POINT('',(-40.98461676261,0.,-92.5463466157));
#850 = CARTESIAN_POINT('',(-41.73798598363,0.,-90.72040253565));
#851 = CARTESIAN_POINT('',(-42.09791122716,0.,-89.80336720965));
#852 = CARTESIAN_POINT('',(-42.44235096354,0.,-88.88034165589));
#853 = CARTESIAN_POINT('',(-42.77161717468,0.,-87.9518110348));
#854 = CARTESIAN_POINT('',(-43.08605421948,0.,-87.01823202459));
#855 = CARTESIAN_POINT('',(-43.79746153076,0.,-84.79322053164));
#856 = CARTESIAN_POINT('',(-44.18168513199,0.,-83.49771736296));
#857 = CARTESIAN_POINT('',(-44.53964708992,0.,-82.19460569547));
#858 = CARTESIAN_POINT('',(-44.87236444529,0.,-80.88486892872));
#859 = CARTESIAN_POINT('',(-45.18088785368,0.,-79.56937794378));
#860 = CARTESIAN_POINT('',(-45.75412150188,0.,-76.91692815658));
#861 = CARTESIAN_POINT('',(-46.01842659096,0.,-75.57989090664));
#862 = CARTESIAN_POINT('',(-46.26026205055,0.,-74.23853599138));
#863 = CARTESIAN_POINT('',(-46.48070065711,0.,-72.89353585542));
#864 = CARTESIAN_POINT('',(-46.68079202549,0.,-71.5454664311));
#865 = CARTESIAN_POINT('',(-47.06342128858,0.,-68.68632845505));
#866 = CARTESIAN_POINT('',(-47.2411748276,0.,-67.1746322085));
#867 = CARTESIAN_POINT('',(-47.39621785743,0.,-65.66037817454));
#868 = CARTESIAN_POINT('',(-47.52989457302,0.,-64.1441268203));
#869 = CARTESIAN_POINT('',(-47.64347750621,0.,-62.62633588664));
#870 = CARTESIAN_POINT('',(-47.83395680244,0.,-59.57057492096));
#871 = CARTESIAN_POINT('',(-47.91040674634,0.,-58.03258949222));
#872 = CARTESIAN_POINT('',(-47.96875077691,0.,-56.49377431298));
#873 = CARTESIAN_POINT('',(-48.01014585763,0.,-54.95443496702));
#874 = CARTESIAN_POINT('',(-48.03567120788,0.,-53.41481196102));
#875 = CARTESIAN_POINT('',(-48.05714304083,0.,-50.31377672619));
#876 = CARTESIAN_POINT('',(-48.05267006205,0.,-48.75237028176));
#877 = CARTESIAN_POINT('',(-48.03396212143,0.,-47.19104778121));
#878 = CARTESIAN_POINT('',(-48.00199050883,0.,-45.62995661495));
#879 = CARTESIAN_POINT('',(-47.95765603883,0.,-44.06920520836));
#880 = CARTESIAN_POINT('',(-47.84564176574,0.,-40.94030813398));
#881 = CARTESIAN_POINT('',(-47.77784053015,0.,-39.37217249969));
#882 = CARTESIAN_POINT('',(-47.69924257303,0.,-37.80452880475));
#883 = CARTESIAN_POINT('',(-47.61063419954,0.,-36.23742883496));
#884 = CARTESIAN_POINT('',(-47.51274394448,0.,-34.67090305331));
#885 = CARTESIAN_POINT('',(-47.29030962464,0.,-31.40014690752));
#886 = CARTESIAN_POINT('',(-47.16417203107,0.,-29.6960291169));
#887 = CARTESIAN_POINT('',(-47.02870940305,0.,-27.99261953476));
#888 = CARTESIAN_POINT('',(-46.88472402423,0.,-26.28991704121));
#889 = CARTESIAN_POINT('',(-46.73295416493,0.,-24.58790620286));
#890 = CARTESIAN_POINT('',(-46.30566127374,0.,-20.01208628479));
#891 = CARTESIAN_POINT('',(-46.01696701742,0.,-17.13952221732));
#892 = CARTESIAN_POINT('',(-45.71128186221,0.,-14.26870693496));
#893 = CARTESIAN_POINT('',(-45.39142864877,0.,-11.39946393927));
#894 = CARTESIAN_POINT('',(-45.05984760281,0.,-8.531589491484));
#895 = CARTESIAN_POINT('',(-44.35122173973,0.,-2.578418798185));
#896 = CARTESIAN_POINT('',(-43.97264290001,0.,0.506674231347));
#897 = CARTESIAN_POINT('',(-43.58546102471,0.,3.590701185802));
#898 = CARTESIAN_POINT('',(-43.19177987207,0.,6.673896027117));
#899 = CARTESIAN_POINT('',(-42.79324333717,0.,9.756456356314));
#900 = CARTESIAN_POINT('',(-42.10303366582,0.,15.04490911691));
#901 = CARTESIAN_POINT('',(-41.81317171525,0.,17.251031413765));
#902 = CARTESIAN_POINT('',(-41.52182607717,0.,19.456958316728));
#903 = CARTESIAN_POINT('',(-41.22928584757,0.,21.662726712698));
#904 = CARTESIAN_POINT('',(-40.93570061873,0.,23.868355696536));
#905 = CARTESIAN_POINT('',(-40.20381316958,0.,29.346996326122));
#906 = CARTESIAN_POINT('',(-39.76425557217,0.,32.619836196422));
#907 = CARTESIAN_POINT('',(-39.3223974056,0.,35.892369666535));
#908 = CARTESIAN_POINT('',(-38.87751848371,0.,39.164496757712));
#909 = CARTESIAN_POINT('',(-38.42808424671,0.,42.435999873879));
#910 = CARTESIAN_POINT('',(-37.52406400034,0.,48.9147702111));
#911 = CARTESIAN_POINT('',(-37.06974259217,0.,52.122052040675));
#912 = CARTESIAN_POINT('',(-36.60652413788,0.,55.328093047484));
#913 = CARTESIAN_POINT('',(-36.13141642626,0.,58.532421132855));
#914 = CARTESIAN_POINT('',(-35.6406595141,0.,61.734383952014));
#915 = CARTESIAN_POINT('',(-34.92182066737,0.,66.236742185108));
#916 = CARTESIAN_POINT('',(-34.71038262977,0.,67.539773475862));
#917 = CARTESIAN_POINT('',(-34.49533981153,0.,68.842218849375));
#918 = CARTESIAN_POINT('',(-34.2763864188,0.,70.144014485039));
#919 = CARTESIAN_POINT('',(-34.0532052027,0.,71.445089804229));
#920 = CARTESIAN_POINT('',(-33.68217096472,0.,73.563556220741));
#921 = CARTESIAN_POINT('',(-33.5370684561,0.,74.381428666583));
#922 = CARTESIAN_POINT('',(-33.39008197108,0.,75.198966081565));
#923 = CARTESIAN_POINT('',(-33.2411294567,0.,76.016148007449));
#924 = CARTESIAN_POINT('',(-33.09012808392,0.,76.832952810488));
#925 = CARTESIAN_POINT('',(-32.78302044467,0.,78.470240679931));
#926 = CARTESIAN_POINT('',(-32.62689091587,0.,79.290719321346));
#927 = CARTESIAN_POINT('',(-32.4685206466,0.,80.11077039286));
#928 = CARTESIAN_POINT('',(-32.30782479697,0.,80.930369448276));
#929 = CARTESIAN_POINT('',(-32.14471870179,0.,81.749490808017));
#930 = CARTESIAN_POINT('',(-31.81223056032,0.,83.393083778868));
#931 = CARTESIAN_POINT('',(-31.64280982086,0.,84.217547515589));
#932 = CARTESIAN_POINT('',(-31.4707691643,0.,85.041471187346));
#933 = CARTESIAN_POINT('',(-31.29602337184,0.,85.864825994226));
#934 = CARTESIAN_POINT('',(-31.11848849373,0.,86.687581918356));
#935 = CARTESIAN_POINT('',(-30.75581853401,0.,88.340294509372));
#936 = CARTESIAN_POINT('',(-30.5706242665,0.,89.170238167411));
#937 = CARTESIAN_POINT('',(-30.38241379325,0.,89.999506441345));
#938 = CARTESIAN_POINT('',(-30.19110433402,0.,90.828065978462));
#939 = CARTESIAN_POINT('',(-29.99661558193,0.,91.655882330008));
#940 = CARTESIAN_POINT('',(-29.59854266092,0.,93.320752839889));
#941 = CARTESIAN_POINT('',(-29.39487312713,0.,94.157786603975));
#942 = CARTESIAN_POINT('',(-29.1877802117,0.,94.993984236163));
#943 = CARTESIAN_POINT('',(-28.97718675717,0.,95.829307893128));
#944 = CARTESIAN_POINT('',(-28.76301933901,0.,96.663718895501));
#945 = CARTESIAN_POINT('',(-28.09935000001,0.,99.203264124442));
#946 = CARTESIAN_POINT('',(-27.6382242147,0.,100.9053627915));
#947 = CARTESIAN_POINT('',(-27.16123602482,0.,102.6031319241));
#948 = CARTESIAN_POINT('',(-26.66786572325,0.,104.29622405645));
#949 = CARTESIAN_POINT('',(-26.15768154972,0.,105.98428964776));
#950 = CARTESIAN_POINT('',(-25.4820408599,0.,108.14023845474));
#951 = CARTESIAN_POINT('',(-25.33237301115,0.,108.61307124133));
#952 = CARTESIAN_POINT('',(-25.18134150098,0.,109.08547135904));
#953 = CARTESIAN_POINT('',(-25.02893952474,0.,109.55743120503));
#954 = CARTESIAN_POINT('',(-24.87516088605,0.,110.02894324235));
#955 = CARTESIAN_POINT('',(-24.71999999672,0.,110.5));
#956 = PCURVE('',#497,#957);
#957 = DEFINITIONAL_REPRESENTATION('',(#958),#1086);
#958 = B_SPLINE_CURVE_WITH_KNOTS('',6,(#959,#960,#961,#962,#963,#964,
    #965,#966,#967,#968,#969,#970,#971,#972,#973,#974,#975,#976,#977,
    #978,#979,#980,#981,#982,#983,#984,#985,#986,#987,#988,#989,#990,
    #991,#992,#993,#994,#995,#996,#997,#998,#999,#1000,#1001,#1002,#1003
    ,#1004,#1005,#1006,#1007,#1008,#1009,#1010,#1011,#1012,#1013,#1014,
    #1015,#1016,#1017,#1018,#1019,#1020,#1021,#1022,#1023,#1024,#1025,
    #1026,#1027,#1028,#1029,#1030,#1031,#1032,#1033,#1034,#1035,#1036,
    #1037,#1038,#1039,#1040,#1041,#1042,#1043,#1044,#1045,#1046,#1047,
    #1048,#1049,#1050,#1051,#1052,#1053,#1054,#1055,#1056,#1057,#1058,
    #1059,#1060,#1061,#1062,#1063,#1064,#1065,#1066,#1067,#1068,#1069,
    #1070,#1071,#1072,#1073,#1074,#1075,#1076,#1077,#1078,#1079,#1080,
    #1081,#1082,#1083,#1084,#1085),.UNSPECIFIED.,.F.,.F.,(7,5,5,5,5,5,5,
    5,5,5,5,5,5,5,5,5,5,5,5,5,5,5,5,5,5,7),(0.,2.003965728781E-02,
    4.692600530135E-02,7.318911575118E-02,9.929908058439E-02,
    0.125270052341,0.160890969326,0.196820947213,0.236949046434,
    0.277547616159,0.318715008612,0.360099076219,0.405153156535,
    0.481273096598,0.563226529407,0.621894568199,0.708963376011,
    0.794373291717,0.8291791863,0.851080477527,0.873101901276,
    0.895294399649,0.917715294069,0.940428846944,0.986923385215,1.),
  .UNSPECIFIED.);
#959 = CARTESIAN_POINT('',(22.1,69.825000003866));
#960 = CARTESIAN_POINT('',(22.648004315467,69.29835944803));
#961 = CARTESIAN_POINT('',(23.204241680386,68.780284340871));
#962 = CARTESIAN_POINT('',(23.768589390445,68.270985615743));
#963 = CARTESIAN_POINT('',(24.340903960097,67.7706547256));
#964 = CARTESIAN_POINT('',(24.921021122566,67.279463643002));
#965 = CARTESIAN_POINT('',(26.297294259033,66.15102194781));
#966 = CARTESIAN_POINT('',(27.09954949853,65.521200980126));
#967 = CARTESIAN_POINT('',(27.91507024134,64.908472634305));
#968 = CARTESIAN_POINT('',(28.743357002071,64.313122570538));
#969 = CARTESIAN_POINT('',(29.583864814957,63.735355163653));
#970 = CARTESIAN_POINT('',(31.268394036836,62.628221699083));
#971 = CARTESIAN_POINT('',(32.111888795317,62.098039943167));
#972 = CARTESIAN_POINT('',(32.965945170926,61.584869255311));
#973 = CARTESIAN_POINT('',(33.830001201607,61.088742770629));
#974 = CARTESIAN_POINT('',(34.703483998663,60.609619687324));
#975 = CARTESIAN_POINT('',(36.463002434433,59.687866603207));
#976 = CARTESIAN_POINT('',(37.348939158116,59.245038046086));
#977 = CARTESIAN_POINT('',(38.243061287946,58.818805649006));
#978 = CARTESIAN_POINT('',(39.144813039925,58.408996834312));
#979 = CARTESIAN_POINT('',(40.053653384294,58.015383237385));
#980 = CARTESIAN_POINT('',(41.87959746435,57.262014016363));
#981 = CARTESIAN_POINT('',(42.796632790348,56.902088772832));
#982 = CARTESIAN_POINT('',(43.719658344108,56.557649036458));
#983 = CARTESIAN_POINT('',(44.648188965195,56.228382825317));
#984 = CARTESIAN_POINT('',(45.581767975409,55.913945780512));
#985 = CARTESIAN_POINT('',(47.806779468353,55.202538469234));
#986 = CARTESIAN_POINT('',(49.102282637038,54.818314868006));
#987 = CARTESIAN_POINT('',(50.405394304526,54.460352910076));
#988 = CARTESIAN_POINT('',(51.715131071276,54.127635554701));
#989 = CARTESIAN_POINT('',(53.030622056215,53.819112146313));
#990 = CARTESIAN_POINT('',(55.68307184342,53.245878498119));
#991 = CARTESIAN_POINT('',(57.020109093356,52.981573409036));
#992 = CARTESIAN_POINT('',(58.361464008611,52.739737949446));
#993 = CARTESIAN_POINT('',(59.70646414458,52.51929934289));
#994 = CARTESIAN_POINT('',(61.054533568897,52.319207974502));
#995 = CARTESIAN_POINT('',(63.913671544949,51.936578711412));
#996 = CARTESIAN_POINT('',(65.425367791499,51.758825172391));
#997 = CARTESIAN_POINT('',(66.939621825453,51.603782142561));
#998 = CARTESIAN_POINT('',(68.455873179699,51.470105426974));
#999 = CARTESIAN_POINT('',(69.97366411336,51.356522493787));
#1000 = CARTESIAN_POINT('',(73.029425079036,51.166043197557));
#1001 = CARTESIAN_POINT('',(74.567410507775,51.08959325366));
#1002 = CARTESIAN_POINT('',(76.106225687013,51.031249223088));
#1003 = CARTESIAN_POINT('',(77.645565032972,50.989854142366));
#1004 = CARTESIAN_POINT('',(79.185188038975,50.964328792112));
#1005 = CARTESIAN_POINT('',(82.286223273804,50.942856959169));
#1006 = CARTESIAN_POINT('',(83.847629718233,50.94732993795));
#1007 = CARTESIAN_POINT('',(85.40895221879,50.966037878562));
#1008 = CARTESIAN_POINT('',(86.970043385044,50.998009491162));
#1009 = CARTESIAN_POINT('',(88.530794791636,51.042343961165));
#1010 = CARTESIAN_POINT('',(91.659691866012,51.154358234256));
#1011 = CARTESIAN_POINT('',(93.227827500305,51.222159469844));
#1012 = CARTESIAN_POINT('',(94.795471195243,51.300757426962));
#1013 = CARTESIAN_POINT('',(96.362571165037,51.389365800455));
#1014 = CARTESIAN_POINT('',(97.929096946685,51.487256055513));
#1015 = CARTESIAN_POINT('',(101.19985309247,51.709690375355));
#1016 = CARTESIAN_POINT('',(102.90397088309,51.835827968924));
#1017 = CARTESIAN_POINT('',(104.60738046523,51.971290596943));
#1018 = CARTESIAN_POINT('',(106.31008295878,52.115275975764));
#1019 = CARTESIAN_POINT('',(108.01209379713,52.267045835068));
#1020 = CARTESIAN_POINT('',(112.5879137152,52.694338726254));
#1021 = CARTESIAN_POINT('',(115.46047778267,52.983032982572));
#1022 = CARTESIAN_POINT('',(118.33129306503,53.288718137781));
#1023 = CARTESIAN_POINT('',(121.20053606072,53.60857135123));
#1024 = CARTESIAN_POINT('',(124.06841050851,53.940152397184));
#1025 = CARTESIAN_POINT('',(130.02158120181,54.648778260269));
#1026 = CARTESIAN_POINT('',(133.10667423134,55.027357099989));
#1027 = CARTESIAN_POINT('',(136.1907011858,55.414538975282));
#1028 = CARTESIAN_POINT('',(139.27389602711,55.808220127921));
#1029 = CARTESIAN_POINT('',(142.35645635631,56.206756662827));
#1030 = CARTESIAN_POINT('',(147.64490911691,56.896966334178));
#1031 = CARTESIAN_POINT('',(149.85103141376,57.186828284745));
#1032 = CARTESIAN_POINT('',(152.05695831672,57.478173922822));
#1033 = CARTESIAN_POINT('',(154.26272671269,57.770714152429));
#1034 = CARTESIAN_POINT('',(156.46835569653,58.064299381264));
#1035 = CARTESIAN_POINT('',(161.94699632612,58.796186830413));
#1036 = CARTESIAN_POINT('',(165.21983619642,59.235744427829));
#1037 = CARTESIAN_POINT('',(168.49236966653,59.6776025944));
#1038 = CARTESIAN_POINT('',(171.76449675771,60.12248151629));
#1039 = CARTESIAN_POINT('',(175.03599987387,60.571915753287));
#1040 = CARTESIAN_POINT('',(181.5147702111,61.47593599966));
#1041 = CARTESIAN_POINT('',(184.72205204067,61.930257407823));
#1042 = CARTESIAN_POINT('',(187.92809304748,62.393475862111));
#1043 = CARTESIAN_POINT('',(191.13242113285,62.868583573736));
#1044 = CARTESIAN_POINT('',(194.33438395201,63.359340485893));
#1045 = CARTESIAN_POINT('',(198.8367421851,64.078179332629));
#1046 = CARTESIAN_POINT('',(200.13977347586,64.28961737023));
#1047 = CARTESIAN_POINT('',(201.44221884937,64.504660188468));
#1048 = CARTESIAN_POINT('',(202.74401448503,64.7236135812));
#1049 = CARTESIAN_POINT('',(204.04508980422,64.946794797299));
#1050 = CARTESIAN_POINT('',(206.16355622074,65.317829035279));
#1051 = CARTESIAN_POINT('',(206.98142866658,65.4629315439));
#1052 = CARTESIAN_POINT('',(207.79896608156,65.609918028918));
#1053 = CARTESIAN_POINT('',(208.61614800744,65.758870543293));
#1054 = CARTESIAN_POINT('',(209.43295281048,65.909871916072));
#1055 = CARTESIAN_POINT('',(211.07024067993,66.21697955533));
#1056 = CARTESIAN_POINT('',(211.89071932134,66.373109084128));
#1057 = CARTESIAN_POINT('',(212.71077039286,66.531479353391));
#1058 = CARTESIAN_POINT('',(213.53036944827,66.692175203023));
#1059 = CARTESIAN_POINT('',(214.34949080801,66.85528129821));
#1060 = CARTESIAN_POINT('',(215.99308377886,67.187769439676));
#1061 = CARTESIAN_POINT('',(216.81754751558,67.357190179138));
#1062 = CARTESIAN_POINT('',(217.64147118734,67.529230835693));
#1063 = CARTESIAN_POINT('',(218.46482599422,67.703976628154));
#1064 = CARTESIAN_POINT('',(219.28758191835,67.881511506268));
#1065 = CARTESIAN_POINT('',(220.94029450937,68.244181465988));
#1066 = CARTESIAN_POINT('',(221.77023816741,68.429375733492));
#1067 = CARTESIAN_POINT('',(222.59950644134,68.617586206749));
#1068 = CARTESIAN_POINT('',(223.42806597846,68.808895665972));
#1069 = CARTESIAN_POINT('',(224.25588233,69.003384418064));
#1070 = CARTESIAN_POINT('',(225.92075283988,69.401457339077));
#1071 = CARTESIAN_POINT('',(226.75778660397,69.605126872861));
#1072 = CARTESIAN_POINT('',(227.59398423616,69.812219788297));
#1073 = CARTESIAN_POINT('',(228.42930789312,70.022813242823));
#1074 = CARTESIAN_POINT('',(229.2637188955,70.236980660981));
#1075 = CARTESIAN_POINT('',(231.80326412444,70.900649999989));
#1076 = CARTESIAN_POINT('',(233.5053627915,71.361775785299));
#1077 = CARTESIAN_POINT('',(235.2031319241,71.838763975172));
#1078 = CARTESIAN_POINT('',(236.89622405645,72.332134276745));
#1079 = CARTESIAN_POINT('',(238.58428964776,72.842318450274));
#1080 = CARTESIAN_POINT('',(240.74023845474,73.517959140098));
#1081 = CARTESIAN_POINT('',(241.21307124133,73.667626988844));
#1082 = CARTESIAN_POINT('',(241.68547135904,73.81865849902));
#1083 = CARTESIAN_POINT('',(242.15743120503,73.971060475254));
#1084 = CARTESIAN_POINT('',(242.62894324235,74.124839113948));
#1085 = CARTESIAN_POINT('',(243.1,74.280000003276));
#1086 = ( GEOMETRIC_REPRESENTATION_CONTEXT(2) 
PARAMETRIC_REPRESENTATION_CONTEXT() REPRESENTATION_CONTEXT('2D SPACE',''
  ) );
#1087 = PCURVE('',#698,#1088);
#1088 = DEFINITIONAL_REPRESENTATION('',(#1089),#1217);
#1089 = B_SPLINE_CURVE_WITH_KNOTS('',6,(#1090,#1091,#1092,#1093,#1094,
    #1095,#1096,#1097,#1098,#1099,#1100,#1101,#1102,#1103,#1104,#1105,
    #1106,#1107,#1108,#1109,#1110,#1111,#1112,#1113,#1114,#1115,#1116,
    #1117,#1118,#1119,#1120,#1121,#1122,#1123,#1124,#1125,#1126,#1127,
    #1128,#1129,#1130,#1131,#1132,#1133,#1134,#1135,#1136,#1137,#1138,
    #1139,#1140,#1141,#1142,#1143,#1144,#1145,#1146,#1147,#1148,#1149,
    #1150,#1151,#1152,#1153,#1154,#1155,#1156,#1157,#1158,#1159,#1160,
    #1161,#1162,#1163,#1164,#1165,#1166,#1167,#1168,#1169,#1170,#1171,
    #1172,#1173,#1174,#1175,#1176,#1177,#1178,#1179,#1180,#1181,#1182,
    #1183,#1184,#1185,#1186,#1187,#1188,#1189,#1190,#1191,#1192,#1193,
    #1194,#1195,#1196,#1197,#1198,#1199,#1200,#1201,#1202,#1203,#1204,
    #1205,#1206,#1207,#1208,#1209,#1210,#1211,#1212,#1213,#1214,#1215,
    #1216),.UNSPECIFIED.,.F.,.F.,(7,5,5,5,5,5,5,5,5,5,5,5,5,5,5,5,5,5,5,
    5,5,5,5,5,5,7),(0.,2.003965728781E-02,4.692600530135E-02,
    7.318911575118E-02,9.929908058439E-02,0.125270052341,0.160890969326,
    0.196820947213,0.236949046434,0.277547616159,0.318715008612,
    0.360099076219,0.405153156535,0.481273096598,0.563226529407,
    0.621894568199,0.708963376011,0.794373291717,0.8291791863,
    0.851080477527,0.873101901276,0.895294399649,0.917715294069,
    0.940428846944,0.986923385215,1.),.UNSPECIFIED.);
#1090 = CARTESIAN_POINT('',(0.5,0.));
#1091 = CARTESIAN_POINT('',(0.5,3.222046036545E-03));
#1092 = CARTESIAN_POINT('',(0.5,6.463086942309E-03));
#1093 = CARTESIAN_POINT('',(0.5,9.722299811861E-03));
#1094 = CARTESIAN_POINT('',(0.5,1.299881232984E-02));
#1095 = CARTESIAN_POINT('',(0.5,1.629170277096E-02));
#1096 = CARTESIAN_POINT('',(0.5,2.403860038896E-02));
#1097 = CARTESIAN_POINT('',(0.5,2.850496205005E-02));
#1098 = CARTESIAN_POINT('',(0.5,3.299671602986E-02));
#1099 = CARTESIAN_POINT('',(0.5,3.751145003125E-02));
#1100 = CARTESIAN_POINT('',(0.5,4.204670971475E-02));
#1101 = CARTESIAN_POINT('',(0.5,5.104774298136E-02));
#1102 = CARTESIAN_POINT('',(0.5,5.551272460759E-02));
#1103 = CARTESIAN_POINT('',(0.5,5.999263259731E-02));
#1104 = CARTESIAN_POINT('',(0.5,6.448523345272E-02));
#1105 = CARTESIAN_POINT('',(0.5,6.898837684507E-02));
#1106 = CARTESIAN_POINT('',(0.5,7.79853149493E-02));
#1107 = CARTESIAN_POINT('',(0.5,8.24790313535E-02));
#1108 = CARTESIAN_POINT('',(0.5,8.697913817625E-02));
#1109 = CARTESIAN_POINT('',(0.5,9.148377795046E-02));
#1110 = CARTESIAN_POINT('',(0.5,9.599124772309E-02));
#1111 = CARTESIAN_POINT('',(0.5,0.104984750508));
#1112 = CARTESIAN_POINT('',(0.5,0.109470776447));
#1113 = CARTESIAN_POINT('',(0.5,0.113956568007));
#1114 = CARTESIAN_POINT('',(0.5,0.118440787284));
#1115 = CARTESIAN_POINT('',(0.5,0.122922265464));
#1116 = CARTESIAN_POINT('',(0.5,0.133541511057));
#1117 = CARTESIAN_POINT('',(0.5,0.139675959266));
#1118 = CARTESIAN_POINT('',(0.5,0.145800800417));
#1119 = CARTESIAN_POINT('',(0.5,0.151914015359));
#1120 = CARTESIAN_POINT('',(0.5,0.158014090781));
#1121 = CARTESIAN_POINT('',(0.5,0.170238712929));
#1122 = CARTESIAN_POINT('',(0.5,0.176362972509));
#1123 = CARTESIAN_POINT('',(0.5,0.18247174145));
#1124 = CARTESIAN_POINT('',(0.5,0.188564338286));
#1125 = CARTESIAN_POINT('',(0.5,0.194640425891));
#1126 = CARTESIAN_POINT('',(0.5,0.207467585325));
#1127 = CARTESIAN_POINT('',(0.5,0.214214512057));
#1128 = CARTESIAN_POINT('',(0.5,0.22094078438));
#1129 = CARTESIAN_POINT('',(0.5,0.227646692039));
#1130 = CARTESIAN_POINT('',(0.5,0.234332810314));
#1131 = CARTESIAN_POINT('',(0.5,0.247745357258));
#1132 = CARTESIAN_POINT('',(0.5,0.254471284558));
#1133 = CARTESIAN_POINT('',(0.5,0.261178658693));
#1134 = CARTESIAN_POINT('',(0.5,0.267868469595));
#1135 = CARTESIAN_POINT('',(0.5,0.27454183248));
#1136 = CARTESIAN_POINT('',(0.5,0.287951454476));
#1137 = CARTESIAN_POINT('',(0.5,0.294687246672));
#1138 = CARTESIAN_POINT('',(0.5,0.301408668871));
#1139 = CARTESIAN_POINT('',(0.5,0.308117031008));
#1140 = CARTESIAN_POINT('',(0.5,0.31481367682));
#1141 = CARTESIAN_POINT('',(0.5,0.328221515113));
#1142 = CARTESIAN_POINT('',(0.5,0.334932574173));
#1143 = CARTESIAN_POINT('',(0.5,0.341634582552));
#1144 = CARTESIAN_POINT('',(0.5,0.348328916009));
#1145 = CARTESIAN_POINT('',(0.5,0.35501693517));
#1146 = CARTESIAN_POINT('',(0.5,0.368975730904));
#1147 = CARTESIAN_POINT('',(0.5,0.376245570257));
#1148 = CARTESIAN_POINT('',(0.5,0.383511266587));
#1149 = CARTESIAN_POINT('',(0.5,0.390774496658));
#1150 = CARTESIAN_POINT('',(0.5,0.398036881093));
#1151 = CARTESIAN_POINT('',(0.5,0.417571212108));
#1152 = CARTESIAN_POINT('',(0.5,0.429844441309));
#1153 = CARTESIAN_POINT('',(0.5,0.4421273537));
#1154 = CARTESIAN_POINT('',(0.5,0.454426838321));
#1155 = CARTESIAN_POINT('',(0.5,0.466749169106));
#1156 = CARTESIAN_POINT('',(0.5,0.492397343494));
#1157 = CARTESIAN_POINT('',(0.5,0.505727626288));
#1158 = CARTESIAN_POINT('',(0.5,0.519097830967));
#1159 = CARTESIAN_POINT('',(0.5,0.532513773499));
#1160 = CARTESIAN_POINT('',(0.5,0.545980087312));
#1161 = CARTESIAN_POINT('',(0.5,0.569178505645));
#1162 = CARTESIAN_POINT('',(0.5,0.578884463989));
#1163 = CARTESIAN_POINT('',(0.5,0.588619041682));
#1164 = CARTESIAN_POINT('',(0.5,0.598383014889));
#1165 = CARTESIAN_POINT('',(0.5,0.608176719276));
#1166 = CARTESIAN_POINT('',(0.5,0.632578659165));
#1167 = CARTESIAN_POINT('',(0.5,0.647222442669));
#1168 = CARTESIAN_POINT('',(0.5,0.661930858707));
#1169 = CARTESIAN_POINT('',(0.5,0.676700986246));
#1170 = CARTESIAN_POINT('',(0.5,0.691527010326));
#1171 = CARTESIAN_POINT('',(0.5,0.720989619708));
#1172 = CARTESIAN_POINT('',(0.5,0.735624334708));
#1173 = CARTESIAN_POINT('',(0.5,0.750295827407));
#1174 = CARTESIAN_POINT('',(0.5,0.764992621588));
#1175 = CARTESIAN_POINT('',(0.5,0.779699865315));
#1176 = CARTESIAN_POINT('',(0.5,0.800390537913));
#1177 = CARTESIAN_POINT('',(0.5,0.806379877974));
#1178 = CARTESIAN_POINT('',(0.5,0.812366821516));
#1179 = CARTESIAN_POINT('',(0.5,0.81835007969));
#1180 = CARTESIAN_POINT('',(0.5,0.824328284528));
#1181 = CARTESIAN_POINT('',(0.5,0.834057647411));
#1182 = CARTESIAN_POINT('',(0.5,0.837812724997));
#1183 = CARTESIAN_POINT('',(0.5,0.841564873661));
#1184 = CARTESIAN_POINT('',(0.5,0.845313723965));
#1185 = CARTESIAN_POINT('',(0.5,0.849058896122));
#1186 = CARTESIAN_POINT('',(0.5,0.856561624506));
#1187 = CARTESIAN_POINT('',(0.5,0.860319136386));
#1188 = CARTESIAN_POINT('',(0.5,0.864072138823));
#1189 = CARTESIAN_POINT('',(0.5,0.867820226914));
#1190 = CARTESIAN_POINT('',(0.5,0.871562987666));
#1191 = CARTESIAN_POINT('',(0.5,0.879066043516));
#1192 = CARTESIAN_POINT('',(0.5,0.882826249556));
#1193 = CARTESIAN_POINT('',(0.5,0.886580186895));
#1194 = CARTESIAN_POINT('',(0.5,0.890327419346));
#1195 = CARTESIAN_POINT('',(0.5,0.894067505754));
#1196 = CARTESIAN_POINT('',(0.5,0.901570907538));
#1197 = CARTESIAN_POINT('',(0.5,0.905334066658));
#1198 = CARTESIAN_POINT('',(0.5,0.909089017069));
#1199 = CARTESIAN_POINT('',(0.5,0.912835297605));
#1200 = CARTESIAN_POINT('',(0.5,0.916572446223));
#1201 = CARTESIAN_POINT('',(0.5,0.924076209291));
#1202 = CARTESIAN_POINT('',(0.5,0.927842572658));
#1203 = CARTESIAN_POINT('',(0.5,0.931598608597));
#1204 = CARTESIAN_POINT('',(0.5,0.935343839817));
#1205 = CARTESIAN_POINT('',(0.5,0.93907779324));
#1206 = CARTESIAN_POINT('',(0.5,0.950419340118));
#1207 = CARTESIAN_POINT('',(0.5,0.957989470503));
#1208 = CARTESIAN_POINT('',(0.5,0.965506363949));
#1209 = CARTESIAN_POINT('',(0.5,0.972966144164));
#1210 = CARTESIAN_POINT('',(0.5,0.980365150052));
#1211 = CARTESIAN_POINT('',(0.5,0.989762930633));
#1212 = CARTESIAN_POINT('',(0.5,0.991820786992));
#1213 = CARTESIAN_POINT('',(0.5,0.99387349409));
#1214 = CARTESIAN_POINT('',(0.5,0.995920978942));
#1215 = CARTESIAN_POINT('',(0.5,0.99796317057));
#1216 = CARTESIAN_POINT('',(0.5,1.));
#1217 = ( GEOMETRIC_REPRESENTATION_CONTEXT(2) 
PARAMETRIC_REPRESENTATION_CONTEXT() REPRESENTATION_CONTEXT('2D SPACE',''
  ) );
#1218 = ADVANCED_FACE('',(#1219),#211,.F.);
#1219 = FACE_BOUND('',#1220,.F.);
#1220 = EDGE_LOOP('',(#1221,#1242,#1243,#1244));
#1221 = ORIENTED_EDGE('',*,*,#1222,.T.);
#1222 = EDGE_CURVE('',#1223,#152,#1225,.T.);
#1223 = VERTEX_POINT('',#1224);
#1224 = CARTESIAN_POINT('',(24.72,0.,110.5));
#1225 = SURFACE_CURVE('',#1226,(#1230,#1236),.PCURVE_S1.);
#1226 = LINE('',#1227,#1228);
#1227 = CARTESIAN_POINT('',(-35.64,0.,110.5));
#1228 = VECTOR('',#1229,1.);
#1229 = DIRECTION('',(1.,-0.,0.));
#1230 = PCURVE('',#211,#1231);
#1231 = DEFINITIONAL_REPRESENTATION('',(#1232),#1235);
#1232 = B_SPLINE_CURVE_WITH_KNOTS('',1,(#1233,#1234),.UNSPECIFIED.,.F.,
  .F.,(2,2),(-5.491728848652,63.360000000006),.PIECEWISE_BEZIER_KNOTS.);
#1233 = CARTESIAN_POINT('',(68.851728848652,-3.792370003967E-15));
#1234 = CARTESIAN_POINT('',(-6.316724920907E-12,4.277408552738E-15));
#1235 = ( GEOMETRIC_REPRESENTATION_CONTEXT(2) 
PARAMETRIC_REPRESENTATION_CONTEXT() REPRESENTATION_CONTEXT('2D SPACE',''
  ) );
#1236 = PCURVE('',#169,#1237);
#1237 = DEFINITIONAL_REPRESENTATION('',(#1238),#1241);
#1238 = B_SPLINE_CURVE_WITH_KNOTS('',1,(#1239,#1240),.UNSPECIFIED.,.F.,
  .F.,(2,2),(-5.491728848652,63.360000000006),.PIECEWISE_BEZIER_KNOTS.);
#1239 = CARTESIAN_POINT('',(243.1,57.868271151348));
#1240 = CARTESIAN_POINT('',(243.1,126.72));
#1241 = ( GEOMETRIC_REPRESENTATION_CONTEXT(2) 
PARAMETRIC_REPRESENTATION_CONTEXT() REPRESENTATION_CONTEXT('2D SPACE',''
  ) );
#1242 = ORIENTED_EDGE('',*,*,#183,.F.);
#1243 = ORIENTED_EDGE('',*,*,#805,.T.);
#1244 = ORIENTED_EDGE('',*,*,#1245,.T.);
#1245 = EDGE_CURVE('',#806,#1223,#1246,.T.);
#1246 = SURFACE_CURVE('',#1247,(#1263,#1282),.PCURVE_S1.);
#1247 = B_SPLINE_CURVE_WITH_KNOTS('',14,(#1248,#1249,#1250,#1251,#1252,
    #1253,#1254,#1255,#1256,#1257,#1258,#1259,#1260,#1261,#1262),
  .UNSPECIFIED.,.T.,.F.,(15,15),(0.,1.),.PIECEWISE_BEZIER_KNOTS.);
#1248 = CARTESIAN_POINT('',(24.72,1.65519983175E-14,110.5));
#1249 = CARTESIAN_POINT('',(24.720000000005,7.701389990806,110.5));
#1250 = CARTESIAN_POINT('',(19.357876991129,15.402782824357,110.5));
#1251 = CARTESIAN_POINT('',(8.633624118527,21.155179987199,110.5));
#1252 = CARTESIAN_POINT('',(-5.849014396388,23.00980274437,110.5));
#1253 = CARTESIAN_POINT('',(-20.88285432509,19.716442934938,110.5));
#1254 = CARTESIAN_POINT('',(-32.35951086509,11.426590808738,110.5));
#1255 = CARTESIAN_POINT('',(-36.68024304253,2.170044386714E-10,110.5));
#1256 = CARTESIAN_POINT('',(-32.3595108651,-11.42659080913,110.5));
#1257 = CARTESIAN_POINT('',(-20.88285432508,-19.71644293463,110.5));
#1258 = CARTESIAN_POINT('',(-5.8490143964,-23.00980274456,110.5));
#1259 = CARTESIAN_POINT('',(8.633624118534,-21.1551799871,110.5));
#1260 = CARTESIAN_POINT('',(19.357876991127,-15.40278282439,110.5));
#1261 = CARTESIAN_POINT('',(24.720000000006,-7.701389990798,110.5));
#1262 = CARTESIAN_POINT('',(24.72,-1.897513862867E-14,110.5));
#1263 = PCURVE('',#211,#1264);
#1264 = DEFINITIONAL_REPRESENTATION('',(#1265),#1281);
#1265 = B_SPLINE_CURVE_WITH_KNOTS('',14,(#1266,#1267,#1268,#1269,#1270,
    #1271,#1272,#1273,#1274,#1275,#1276,#1277,#1278,#1279,#1280),
  .UNSPECIFIED.,.F.,.F.,(15,15),(0.,1.),.PIECEWISE_BEZIER_KNOTS.);
#1266 = CARTESIAN_POINT('',(3.,2.047779136145E-14));
#1267 = CARTESIAN_POINT('',(2.999999999995,7.701389990806));
#1268 = CARTESIAN_POINT('',(8.362123008871,15.402782824357));
#1269 = CARTESIAN_POINT('',(19.086375881473,21.155179987199));
#1270 = CARTESIAN_POINT('',(33.569014396388,23.00980274437));
#1271 = CARTESIAN_POINT('',(48.602854325096,19.716442934938));
#1272 = CARTESIAN_POINT('',(60.079510865095,11.426590808738));
#1273 = CARTESIAN_POINT('',(64.400243042534,2.170011680386E-10));
#1274 = CARTESIAN_POINT('',(60.079510865106,-11.42659080913));
#1275 = CARTESIAN_POINT('',(48.602854325081,-19.71644293463));
#1276 = CARTESIAN_POINT('',(33.5690143964,-23.00980274456));
#1277 = CARTESIAN_POINT('',(19.086375881466,-21.1551799871));
#1278 = CARTESIAN_POINT('',(8.362123008873,-15.40278282439));
#1279 = CARTESIAN_POINT('',(2.999999999994,-7.701389990798));
#1280 = CARTESIAN_POINT('',(3.,-1.504934558472E-14));
#1281 = ( GEOMETRIC_REPRESENTATION_CONTEXT(2) 
PARAMETRIC_REPRESENTATION_CONTEXT() REPRESENTATION_CONTEXT('2D SPACE',''
  ) );
#1282 = PCURVE('',#698,#1283);
#1283 = DEFINITIONAL_REPRESENTATION('',(#1284),#1288);
#1284 = LINE('',#1285,#1286);
#1285 = CARTESIAN_POINT('',(0.,1.));
#1286 = VECTOR('',#1287,1.);
#1287 = DIRECTION('',(1.,0.));
#1288 = ( GEOMETRIC_REPRESENTATION_CONTEXT(2) 
PARAMETRIC_REPRESENTATION_CONTEXT() REPRESENTATION_CONTEXT('2D SPACE',''
  ) );
#1289 = ADVANCED_FACE('',(#1290),#169,.T.);
#1290 = FACE_BOUND('',#1291,.T.);
#1291 = EDGE_LOOP('',(#1292,#1293,#1294,#1319));
#1292 = ORIENTED_EDGE('',*,*,#151,.F.);
#1293 = ORIENTED_EDGE('',*,*,#637,.T.);
#1294 = ORIENTED_EDGE('',*,*,#1295,.T.);
#1295 = EDGE_CURVE('',#638,#1223,#1296,.T.);
#1296 = SURFACE_CURVE('',#1297,(#1303,#1312),.PCURVE_S1.);
#1297 = ( BOUNDED_CURVE() B_SPLINE_CURVE(4,(#1298,#1299,#1300,#1301,
#1302),.UNSPECIFIED.,.F.,.F.) B_SPLINE_CURVE_WITH_KNOTS((5,5),(0.,1.),
.PIECEWISE_BEZIER_KNOTS.) CURVE() GEOMETRIC_REPRESENTATION_ITEM() 
RATIONAL_B_SPLINE_CURVE((1.,1.,1.,1.,1.)) REPRESENTATION_ITEM('') );
#1298 = CARTESIAN_POINT('',(29.175,-2.628077228483E-14,-110.5));
#1299 = CARTESIAN_POINT('',(70.037277411024,3.642548839354E-14,
    -67.98009888345));
#1300 = CARTESIAN_POINT('',(32.833928157823,-9.302862178848E-14,
    8.002452033405));
#1301 = CARTESIAN_POINT('',(43.76441371994,-4.355349198025E-15,
    52.682596298459));
#1302 = CARTESIAN_POINT('',(24.72,1.65519983175E-14,110.5));
#1303 = PCURVE('',#169,#1304);
#1304 = DEFINITIONAL_REPRESENTATION('',(#1305),#1311);
#1305 = ( BOUNDED_CURVE() B_SPLINE_CURVE(4,(#1306,#1307,#1308,#1309,
#1310),.UNSPECIFIED.,.F.,.F.) B_SPLINE_CURVE_WITH_KNOTS((5,5),(0.,1.),
.PIECEWISE_BEZIER_KNOTS.) CURVE() GEOMETRIC_REPRESENTATION_ITEM() 
RATIONAL_B_SPLINE_CURVE((1.,1.,1.,1.,1.)) REPRESENTATION_ITEM('') );
#1306 = CARTESIAN_POINT('',(22.1,128.175));
#1307 = CARTESIAN_POINT('',(64.619901116541,169.03727741102));
#1308 = CARTESIAN_POINT('',(140.6024520334,131.83392815782));
#1309 = CARTESIAN_POINT('',(185.28259629845,142.76441371994));
#1310 = CARTESIAN_POINT('',(243.1,123.72));
#1311 = ( GEOMETRIC_REPRESENTATION_CONTEXT(2) 
PARAMETRIC_REPRESENTATION_CONTEXT() REPRESENTATION_CONTEXT('2D SPACE',''
  ) );
#1312 = PCURVE('',#698,#1313);
#1313 = DEFINITIONAL_REPRESENTATION('',(#1314),#1318);
#1314 = LINE('',#1315,#1316);
#1315 = CARTESIAN_POINT('',(1.,0.));
#1316 = VECTOR('',#1317,1.);
#1317 = DIRECTION('',(0.,1.));
#1318 = ( GEOMETRIC_REPRESENTATION_CONTEXT(2) 
PARAMETRIC_REPRESENTATION_CONTEXT() REPRESENTATION_CONTEXT('2D SPACE',''
  ) );
#1319 = ORIENTED_EDGE('',*,*,#1222,.T.);
#1320 = ADVANCED_FACE('',(#1321),#698,.F.);
#1321 = FACE_BOUND('',#1322,.F.);
#1322 = EDGE_LOOP('',(#1323,#1324,#1325,#1326));
#1323 = ORIENTED_EDGE('',*,*,#658,.T.);
#1324 = ORIENTED_EDGE('',*,*,#1295,.T.);
#1325 = ORIENTED_EDGE('',*,*,#1245,.F.);
#1326 = ORIENTED_EDGE('',*,*,#826,.F.);
#1327 = ( GEOMETRIC_REPRESENTATION_CONTEXT(3) 
GLOBAL_UNCERTAINTY_ASSIGNED_CONTEXT((#1331)) 
GLOBAL_UNIT_ASSIGNED_CONTEXT((#1328,#1329,#1330)) REPRESENTATION_CONTEXT
('Context #1','3D Context with UNIT and UNCERTAINTY') );
#1328 = ( LENGTH_UNIT() NAMED_UNIT(*) SI_UNIT(.MILLI.,.METRE.) );
#1329 = ( NAMED_UNIT(*) PLANE_ANGLE_UNIT() SI_UNIT($,.RADIAN.) );
#1330 = ( NAMED_UNIT(*) SI_UNIT($,.STERADIAN.) SOLID_ANGLE_UNIT() );
#1331 = UNCERTAINTY_MEASURE_WITH_UNIT(LENGTH_MEASURE(2.E-06),#1328,
  'distance_accuracy_value','confusion accuracy');
#1332 = PRODUCT_RELATED_PRODUCT_CATEGORY('part',$,(#7));
ENDSEC;
END-ISO-10303-21;
