ISO-10303-21;
HEADER;
FILE_DESCRIPTION(('Open CASCADE Model'),'2;1');
FILE_NAME('Open CASCADE Shape Model','2026-09-05T04:29:44',('Author'),(
    'Open CASCADE'),'Open CASCADE STEP processor 7.8','Open CASCADE 7.8'
  ,'Unknown');
FILE_SCHEMA(('AUTOMOTIVE_DESIGN { 1 0 10303 214 1 1 1 1 }'));
ENDSEC;
DATA;
#1 = APPLICATION_PROTOCOL_DEFINITION('international standard',
  'automotive_design',2000,#2);
#2 = APPLICATION_CONTEXT(
  'core data for automotive mechanical design processes');
#3 = SHAPE_DEFINITION_REPRESENTATION(#4,#10);
#4 = PRODUCT_DEFINITION_SHAPE('','',#5);
#5 = PRODUCT_DEFINITION('design','',#6,#9);
#6 = PRODUCT_DEFINITION_FORMATION('','',#7);
#7 = PRODUCT('Open CASCADE STEP translator 7.8 5',
  'Open CASCADE STEP translator 7.8 5','',(#8));
#8 = PRODUCT_CONTEXT('',#2,'mechanical');
#9 = PRODUCT_DEFINITION_CONTEXT('part definition',#2,'design');
#10 = ADVANCED_BREP_SHAPE_REPRESENTATION('',(#11,#15),#693);
#11 = AXIS2_PLACEMENT_3D('',#12,#13,#14);
#12 = CARTESIAN_POINT('',(0.,0.,0.));
#13 = DIRECTION('',(0.,0.,1.));
#14 = DIRECTION('',(1.,0.,-0.));
#15 = MANIFOLD_SOLID_BREP('',#16);
#16 = CLOSED_SHELL('',(#17,#199,#311,#430,#501,#572,#649,#684));
#17 = ADVANCED_FACE('',(#18),#33,.F.);
#18 = FACE_BOUND('',#19,.F.);
#19 = EDGE_LOOP('',(#20,#60,#82,#116,#144,#167));
#20 = ORIENTED_EDGE('',*,*,#21,.F.);
#21 = EDGE_CURVE('',#22,#24,#26,.T.);
#22 = VERTEX_POINT('',#23);
#23 = CARTESIAN_POINT('',(228.,0.,0.));
#24 = VERTEX_POINT('',#25);
#25 = CARTESIAN_POINT('',(-185.6277366335,-90.,0.));
#26 = SURFACE_CURVE('',#27,(#32,#46),.PCURVE_S1.);
#27 = ELLIPSE('',#28,228.,155.);
#28 = AXIS2_PLACEMENT_3D('',#29,#30,#31);
#29 = CARTESIAN_POINT('',(0.,0.,0.));
#30 = DIRECTION('',(0.,0.,1.));
#31 = DIRECTION('',(1.,0.,0.));
#32 = PCURVE('',#33,#41);
#33 = SURFACE_OF_LINEAR_EXTRUSION('',#34,#39);
#34 = ELLIPSE('',#35,228.,155.);
#35 = AXIS2_PLACEMENT_3D('',#36,#37,#38);
#36 = CARTESIAN_POINT('',(0.,0.,0.));
#37 = DIRECTION('',(0.,0.,1.));
#38 = DIRECTION('',(1.,0.,0.));
#39 = VECTOR('',#40,1.);
#40 = DIRECTION('',(-0.,-0.,-1.));
#41 = DEFINITIONAL_REPRESENTATION('',(#42),#45);
#42 = B_SPLINE_CURVE_WITH_KNOTS('',1,(#43,#44),.UNSPECIFIED.,.F.,.F.,(2,
    2),(0.,3.761113549403),.PIECEWISE_BEZIER_KNOTS.);
#43 = CARTESIAN_POINT('',(6.28318530718,0.));
#44 = CARTESIAN_POINT('',(10.044298856582,0.));
#45 = ( GEOMETRIC_REPRESENTATION_CONTEXT(2) 
PARAMETRIC_REPRESENTATION_CONTEXT() REPRESENTATION_CONTEXT('2D SPACE',''
  ) );
#46 = PCURVE('',#47,#55);
#47 = SURFACE_OF_LINEAR_EXTRUSION('',#48,#53);
#48 = ELLIPSE('',#49,228.,155.);
#49 = AXIS2_PLACEMENT_3D('',#50,#51,#52);
#50 = CARTESIAN_POINT('',(0.,0.,0.));
#51 = DIRECTION('',(0.,0.,1.));
#52 = DIRECTION('',(1.,0.,0.));
#53 = VECTOR('',#54,1.);
#54 = DIRECTION('',(0.,0.,1.));
#55 = DEFINITIONAL_REPRESENTATION('',(#56),#59);
#56 = B_SPLINE_CURVE_WITH_KNOTS('',1,(#57,#58),.UNSPECIFIED.,.F.,.F.,(2,
    2),(0.,3.761113549403),.PIECEWISE_BEZIER_KNOTS.);
#57 = CARTESIAN_POINT('',(6.28318530718,0.));
#58 = CARTESIAN_POINT('',(10.044298856582,0.));
#59 = ( GEOMETRIC_REPRESENTATION_CONTEXT(2) 
PARAMETRIC_REPRESENTATION_CONTEXT() REPRESENTATION_CONTEXT('2D SPACE',''
  ) );
#60 = ORIENTED_EDGE('',*,*,#61,.F.);
#61 = EDGE_CURVE('',#62,#22,#64,.T.);
#62 = VERTEX_POINT('',#63);
#63 = CARTESIAN_POINT('',(185.62773663356,-90.,0.));
#64 = SURFACE_CURVE('',#65,(#70,#76),.PCURVE_S1.);
#65 = ELLIPSE('',#66,228.,155.);
#66 = AXIS2_PLACEMENT_3D('',#67,#68,#69);
#67 = CARTESIAN_POINT('',(0.,0.,0.));
#68 = DIRECTION('',(0.,0.,1.));
#69 = DIRECTION('',(1.,0.,0.));
#70 = PCURVE('',#33,#71);
#71 = DEFINITIONAL_REPRESENTATION('',(#72),#75);
#72 = B_SPLINE_CURVE_WITH_KNOTS('',1,(#73,#74),.UNSPECIFIED.,.F.,.F.,(2,
    2),(5.663664411367,6.28318530718),.PIECEWISE_BEZIER_KNOTS.);
#73 = CARTESIAN_POINT('',(5.663664411367,0.));
#74 = CARTESIAN_POINT('',(6.28318530718,0.));
#75 = ( GEOMETRIC_REPRESENTATION_CONTEXT(2) 
PARAMETRIC_REPRESENTATION_CONTEXT() REPRESENTATION_CONTEXT('2D SPACE',''
  ) );
#76 = PCURVE('',#47,#77);
#77 = DEFINITIONAL_REPRESENTATION('',(#78),#81);
#78 = B_SPLINE_CURVE_WITH_KNOTS('',1,(#79,#80),.UNSPECIFIED.,.F.,.F.,(2,
    2),(5.663664411367,6.28318530718),.PIECEWISE_BEZIER_KNOTS.);
#79 = CARTESIAN_POINT('',(5.663664411367,0.));
#80 = CARTESIAN_POINT('',(6.28318530718,0.));
#81 = ( GEOMETRIC_REPRESENTATION_CONTEXT(2) 
PARAMETRIC_REPRESENTATION_CONTEXT() REPRESENTATION_CONTEXT('2D SPACE',''
  ) );
#82 = ORIENTED_EDGE('',*,*,#83,.F.);
#83 = EDGE_CURVE('',#84,#62,#86,.T.);
#84 = VERTEX_POINT('',#85);
#85 = CARTESIAN_POINT('',(185.62773663356,-90.,22.));
#86 = SURFACE_CURVE('',#87,(#93,#102),.PCURVE_S1.);
#87 = B_SPLINE_CURVE_WITH_KNOTS('',4,(#88,#89,#90,#91,#92),
  .UNSPECIFIED.,.F.,.F.,(5,5),(0.,1.),.PIECEWISE_BEZIER_KNOTS.);
#88 = CARTESIAN_POINT('',(185.62773663356,-90.,22.0000006));
#89 = CARTESIAN_POINT('',(185.62773663356,-90.,16.5000003));
#90 = CARTESIAN_POINT('',(185.62773663356,-90.,11.));
#91 = CARTESIAN_POINT('',(185.62773663356,-90.,5.4999997));
#92 = CARTESIAN_POINT('',(185.62773663356,-90.,-5.999999999062E-07));
#93 = PCURVE('',#33,#94);
#94 = DEFINITIONAL_REPRESENTATION('',(#95),#101);
#95 = B_SPLINE_CURVE_WITH_KNOTS('',4,(#96,#97,#98,#99,#100),
  .UNSPECIFIED.,.F.,.F.,(5,5),(2.727272578086E-08,0.999999972727),
  .PIECEWISE_BEZIER_KNOTS.);
#96 = CARTESIAN_POINT('',(5.663664411367,-22.));
#97 = CARTESIAN_POINT('',(5.663664411367,-16.5));
#98 = CARTESIAN_POINT('',(5.663664411367,-11.));
#99 = CARTESIAN_POINT('',(5.663664411367,-5.5));
#100 = CARTESIAN_POINT('',(5.663664411367,8.014632605582E-16));
#101 = ( GEOMETRIC_REPRESENTATION_CONTEXT(2) 
PARAMETRIC_REPRESENTATION_CONTEXT() REPRESENTATION_CONTEXT('2D SPACE',''
  ) );
#102 = PCURVE('',#103,#108);
#103 = PLANE('',#104);
#104 = AXIS2_PLACEMENT_3D('',#105,#106,#107);
#105 = CARTESIAN_POINT('',(-250.,-90.,-35.));
#106 = DIRECTION('',(0.,1.,0.));
#107 = DIRECTION('',(0.,0.,1.));
#108 = DEFINITIONAL_REPRESENTATION('',(#109),#115);
#109 = B_SPLINE_CURVE_WITH_KNOTS('',4,(#110,#111,#112,#113,#114),
  .UNSPECIFIED.,.F.,.F.,(5,5),(0.,1.),.PIECEWISE_BEZIER_KNOTS.);
#110 = CARTESIAN_POINT('',(57.0000006,435.62773663356));
#111 = CARTESIAN_POINT('',(51.5000003,435.62773663356));
#112 = CARTESIAN_POINT('',(46.,435.62773663356));
#113 = CARTESIAN_POINT('',(40.4999997,435.62773663356));
#114 = CARTESIAN_POINT('',(34.9999994,435.62773663356));
#115 = ( GEOMETRIC_REPRESENTATION_CONTEXT(2) 
PARAMETRIC_REPRESENTATION_CONTEXT() REPRESENTATION_CONTEXT('2D SPACE',''
  ) );
#116 = ORIENTED_EDGE('',*,*,#117,.T.);
#117 = EDGE_CURVE('',#84,#118,#120,.T.);
#118 = VERTEX_POINT('',#119);
#119 = CARTESIAN_POINT('',(228.,0.,22.));
#120 = SURFACE_CURVE('',#121,(#126,#132),.PCURVE_S1.);
#121 = ELLIPSE('',#122,228.,155.);
#122 = AXIS2_PLACEMENT_3D('',#123,#124,#125);
#123 = CARTESIAN_POINT('',(0.,0.,22.));
#124 = DIRECTION('',(0.,0.,1.));
#125 = DIRECTION('',(1.,0.,0.));
#126 = PCURVE('',#33,#127);
#127 = DEFINITIONAL_REPRESENTATION('',(#128),#131);
#128 = B_SPLINE_CURVE_WITH_KNOTS('',1,(#129,#130),.UNSPECIFIED.,.F.,.F.,
  (2,2),(5.663664411367,6.28318530718),.PIECEWISE_BEZIER_KNOTS.);
#129 = CARTESIAN_POINT('',(5.663664411367,-22.));
#130 = CARTESIAN_POINT('',(6.28318530718,-22.));
#131 = ( GEOMETRIC_REPRESENTATION_CONTEXT(2) 
PARAMETRIC_REPRESENTATION_CONTEXT() REPRESENTATION_CONTEXT('2D SPACE',''
  ) );
#132 = PCURVE('',#133,#138);
#133 = PLANE('',#134);
#134 = AXIS2_PLACEMENT_3D('',#135,#136,#137);
#135 = CARTESIAN_POINT('',(11.24152508406,7.553236531041E-15,22.));
#136 = DIRECTION('',(0.,0.,1.));
#137 = DIRECTION('',(1.,0.,-0.));
#138 = DEFINITIONAL_REPRESENTATION('',(#139),#143);
#139 = ELLIPSE('',#140,228.,155.);
#140 = AXIS2_PLACEMENT_2D('',#141,#142);
#141 = CARTESIAN_POINT('',(-11.24152508406,-7.553236531041E-15));
#142 = DIRECTION('',(1.,0.));
#143 = ( GEOMETRIC_REPRESENTATION_CONTEXT(2) 
PARAMETRIC_REPRESENTATION_CONTEXT() REPRESENTATION_CONTEXT('2D SPACE',''
  ) );
#144 = ORIENTED_EDGE('',*,*,#145,.T.);
#145 = EDGE_CURVE('',#118,#146,#148,.T.);
#146 = VERTEX_POINT('',#147);
#147 = CARTESIAN_POINT('',(-185.6277366335,-90.,22.));
#148 = SURFACE_CURVE('',#149,(#154,#160),.PCURVE_S1.);
#149 = ELLIPSE('',#150,228.,155.);
#150 = AXIS2_PLACEMENT_3D('',#151,#152,#153);
#151 = CARTESIAN_POINT('',(0.,0.,22.));
#152 = DIRECTION('',(0.,0.,1.));
#153 = DIRECTION('',(1.,0.,0.));
#154 = PCURVE('',#33,#155);
#155 = DEFINITIONAL_REPRESENTATION('',(#156),#159);
#156 = B_SPLINE_CURVE_WITH_KNOTS('',1,(#157,#158),.UNSPECIFIED.,.F.,.F.,
  (2,2),(0.,3.761113549403),.PIECEWISE_BEZIER_KNOTS.);
#157 = CARTESIAN_POINT('',(6.28318530718,-22.));
#158 = CARTESIAN_POINT('',(10.044298856582,-22.));
#159 = ( GEOMETRIC_REPRESENTATION_CONTEXT(2) 
PARAMETRIC_REPRESENTATION_CONTEXT() REPRESENTATION_CONTEXT('2D SPACE',''
  ) );
#160 = PCURVE('',#133,#161);
#161 = DEFINITIONAL_REPRESENTATION('',(#162),#166);
#162 = ELLIPSE('',#163,228.,155.);
#163 = AXIS2_PLACEMENT_2D('',#164,#165);
#164 = CARTESIAN_POINT('',(-11.24152508406,-7.553236531041E-15));
#165 = DIRECTION('',(1.,0.));
#166 = ( GEOMETRIC_REPRESENTATION_CONTEXT(2) 
PARAMETRIC_REPRESENTATION_CONTEXT() REPRESENTATION_CONTEXT('2D SPACE',''
  ) );
#167 = ORIENTED_EDGE('',*,*,#168,.T.);
#168 = EDGE_CURVE('',#146,#24,#169,.T.);
#169 = SURFACE_CURVE('',#170,(#176,#185),.PCURVE_S1.);
#170 = B_SPLINE_CURVE_WITH_KNOTS('',4,(#171,#172,#173,#174,#175),
  .UNSPECIFIED.,.F.,.F.,(5,5),(0.,1.),.PIECEWISE_BEZIER_KNOTS.);
#171 = CARTESIAN_POINT('',(-185.6277366335,-90.,22.0000006));
#172 = CARTESIAN_POINT('',(-185.6277366335,-90.,16.5000003));
#173 = CARTESIAN_POINT('',(-185.6277366335,-90.,11.));
#174 = CARTESIAN_POINT('',(-185.6277366335,-90.,5.4999997));
#175 = CARTESIAN_POINT('',(-185.6277366335,-90.,-5.999999999062E-07));
#176 = PCURVE('',#33,#177);
#177 = DEFINITIONAL_REPRESENTATION('',(#178),#184);
#178 = B_SPLINE_CURVE_WITH_KNOTS('',4,(#179,#180,#181,#182,#183),
  .UNSPECIFIED.,.F.,.F.,(5,5),(2.727272578086E-08,0.999999972727),
  .PIECEWISE_BEZIER_KNOTS.);
#179 = CARTESIAN_POINT('',(10.044298856582,-22.));
#180 = CARTESIAN_POINT('',(10.044298856582,-16.5));
#181 = CARTESIAN_POINT('',(10.044298856582,-11.));
#182 = CARTESIAN_POINT('',(10.044298856582,-5.5));
#183 = CARTESIAN_POINT('',(10.044298856582,8.014632605582E-16));
#184 = ( GEOMETRIC_REPRESENTATION_CONTEXT(2) 
PARAMETRIC_REPRESENTATION_CONTEXT() REPRESENTATION_CONTEXT('2D SPACE',''
  ) );
#185 = PCURVE('',#186,#191);
#186 = PLANE('',#187);
#187 = AXIS2_PLACEMENT_3D('',#188,#189,#190);
#188 = CARTESIAN_POINT('',(-250.,-90.,-35.));
#189 = DIRECTION('',(0.,1.,0.));
#190 = DIRECTION('',(0.,0.,1.));
#191 = DEFINITIONAL_REPRESENTATION('',(#192),#198);
#192 = B_SPLINE_CURVE_WITH_KNOTS('',4,(#193,#194,#195,#196,#197),
  .UNSPECIFIED.,.F.,.F.,(5,5),(0.,1.),.PIECEWISE_BEZIER_KNOTS.);
#193 = CARTESIAN_POINT('',(57.0000006,64.372263366435));
#194 = CARTESIAN_POINT('',(51.5000003,64.372263366435));
#195 = CARTESIAN_POINT('',(46.,64.372263366435));
#196 = CARTESIAN_POINT('',(40.4999997,64.372263366435));
#197 = CARTESIAN_POINT('',(34.9999994,64.372263366435));
#198 = ( GEOMETRIC_REPRESENTATION_CONTEXT(2) 
PARAMETRIC_REPRESENTATION_CONTEXT() REPRESENTATION_CONTEXT('2D SPACE',''
  ) );
#199 = ADVANCED_FACE('',(#200),#47,.T.);
#200 = FACE_BOUND('',#201,.T.);
#201 = EDGE_LOOP('',(#202,#203,#204,#233,#261,#284));
#202 = ORIENTED_EDGE('',*,*,#21,.F.);
#203 = ORIENTED_EDGE('',*,*,#61,.F.);
#204 = ORIENTED_EDGE('',*,*,#205,.F.);
#205 = EDGE_CURVE('',#206,#62,#208,.T.);
#206 = VERTEX_POINT('',#207);
#207 = CARTESIAN_POINT('',(185.62773663356,-90.,-22.));
#208 = SURFACE_CURVE('',#209,(#215,#224),.PCURVE_S1.);
#209 = B_SPLINE_CURVE_WITH_KNOTS('',4,(#210,#211,#212,#213,#214),
  .UNSPECIFIED.,.F.,.F.,(5,5),(0.,1.),.PIECEWISE_BEZIER_KNOTS.);
#210 = CARTESIAN_POINT('',(185.62773663356,-90.,-22.0000006));
#211 = CARTESIAN_POINT('',(185.62773663356,-90.,-16.5000003));
#212 = CARTESIAN_POINT('',(185.62773663356,-90.,-11.));
#213 = CARTESIAN_POINT('',(185.62773663356,-90.,-5.4999997));
#214 = CARTESIAN_POINT('',(185.62773663356,-90.,5.999999999062E-07));
#215 = PCURVE('',#47,#216);
#216 = DEFINITIONAL_REPRESENTATION('',(#217),#223);
#217 = B_SPLINE_CURVE_WITH_KNOTS('',4,(#218,#219,#220,#221,#222),
  .UNSPECIFIED.,.F.,.F.,(5,5),(2.727272578086E-08,1.),
  .PIECEWISE_BEZIER_KNOTS.);
#218 = CARTESIAN_POINT('',(5.663664411367,-22.));
#219 = CARTESIAN_POINT('',(5.663664411367,-16.49999985));
#220 = CARTESIAN_POINT('',(5.663664411367,-10.9999997));
#221 = CARTESIAN_POINT('',(5.663664411367,-5.49999955));
#222 = CARTESIAN_POINT('',(5.663664411367,5.999999999062E-07));
#223 = ( GEOMETRIC_REPRESENTATION_CONTEXT(2) 
PARAMETRIC_REPRESENTATION_CONTEXT() REPRESENTATION_CONTEXT('2D SPACE',''
  ) );
#224 = PCURVE('',#103,#225);
#225 = DEFINITIONAL_REPRESENTATION('',(#226),#232);
#226 = B_SPLINE_CURVE_WITH_KNOTS('',4,(#227,#228,#229,#230,#231),
  .UNSPECIFIED.,.F.,.F.,(5,5),(0.,1.),.PIECEWISE_BEZIER_KNOTS.);
#227 = CARTESIAN_POINT('',(12.9999994,435.62773663356));
#228 = CARTESIAN_POINT('',(18.4999997,435.62773663356));
#229 = CARTESIAN_POINT('',(24.,435.62773663356));
#230 = CARTESIAN_POINT('',(29.5000003,435.62773663356));
#231 = CARTESIAN_POINT('',(35.0000006,435.62773663356));
#232 = ( GEOMETRIC_REPRESENTATION_CONTEXT(2) 
PARAMETRIC_REPRESENTATION_CONTEXT() REPRESENTATION_CONTEXT('2D SPACE',''
  ) );
#233 = ORIENTED_EDGE('',*,*,#234,.T.);
#234 = EDGE_CURVE('',#206,#235,#237,.T.);
#235 = VERTEX_POINT('',#236);
#236 = CARTESIAN_POINT('',(228.,0.,-22.));
#237 = SURFACE_CURVE('',#238,(#243,#249),.PCURVE_S1.);
#238 = ELLIPSE('',#239,228.,155.);
#239 = AXIS2_PLACEMENT_3D('',#240,#241,#242);
#240 = CARTESIAN_POINT('',(0.,0.,-22.));
#241 = DIRECTION('',(0.,0.,1.));
#242 = DIRECTION('',(1.,0.,0.));
#243 = PCURVE('',#47,#244);
#244 = DEFINITIONAL_REPRESENTATION('',(#245),#248);
#245 = B_SPLINE_CURVE_WITH_KNOTS('',1,(#246,#247),.UNSPECIFIED.,.F.,.F.,
  (2,2),(5.663664411367,6.28318530718),.PIECEWISE_BEZIER_KNOTS.);
#246 = CARTESIAN_POINT('',(5.663664411367,-22.));
#247 = CARTESIAN_POINT('',(6.28318530718,-22.));
#248 = ( GEOMETRIC_REPRESENTATION_CONTEXT(2) 
PARAMETRIC_REPRESENTATION_CONTEXT() REPRESENTATION_CONTEXT('2D SPACE',''
  ) );
#249 = PCURVE('',#250,#255);
#250 = PLANE('',#251);
#251 = AXIS2_PLACEMENT_3D('',#252,#253,#254);
#252 = CARTESIAN_POINT('',(11.24152508406,7.553236531041E-15,-22.));
#253 = DIRECTION('',(0.,0.,1.));
#254 = DIRECTION('',(1.,0.,-0.));
#255 = DEFINITIONAL_REPRESENTATION('',(#256),#260);
#256 = ELLIPSE('',#257,228.,155.);
#257 = AXIS2_PLACEMENT_2D('',#258,#259);
#258 = CARTESIAN_POINT('',(-11.24152508406,-7.553236531041E-15));
#259 = DIRECTION('',(1.,0.));
#260 = ( GEOMETRIC_REPRESENTATION_CONTEXT(2) 
PARAMETRIC_REPRESENTATION_CONTEXT() REPRESENTATION_CONTEXT('2D SPACE',''
  ) );
#261 = ORIENTED_EDGE('',*,*,#262,.T.);
#262 = EDGE_CURVE('',#235,#263,#265,.T.);
#263 = VERTEX_POINT('',#264);
#264 = CARTESIAN_POINT('',(-185.6277366335,-90.,-22.));
#265 = SURFACE_CURVE('',#266,(#271,#277),.PCURVE_S1.);
#266 = ELLIPSE('',#267,228.,155.);
#267 = AXIS2_PLACEMENT_3D('',#268,#269,#270);
#268 = CARTESIAN_POINT('',(0.,0.,-22.));
#269 = DIRECTION('',(0.,0.,1.));
#270 = DIRECTION('',(1.,0.,0.));
#271 = PCURVE('',#47,#272);
#272 = DEFINITIONAL_REPRESENTATION('',(#273),#276);
#273 = B_SPLINE_CURVE_WITH_KNOTS('',1,(#274,#275),.UNSPECIFIED.,.F.,.F.,
  (2,2),(0.,3.761113549403),.PIECEWISE_BEZIER_KNOTS.);
#274 = CARTESIAN_POINT('',(6.28318530718,-22.));
#275 = CARTESIAN_POINT('',(10.044298856582,-22.));
#276 = ( GEOMETRIC_REPRESENTATION_CONTEXT(2) 
PARAMETRIC_REPRESENTATION_CONTEXT() REPRESENTATION_CONTEXT('2D SPACE',''
  ) );
#277 = PCURVE('',#250,#278);
#278 = DEFINITIONAL_REPRESENTATION('',(#279),#283);
#279 = ELLIPSE('',#280,228.,155.);
#280 = AXIS2_PLACEMENT_2D('',#281,#282);
#281 = CARTESIAN_POINT('',(-11.24152508406,-7.553236531041E-15));
#282 = DIRECTION('',(1.,0.));
#283 = ( GEOMETRIC_REPRESENTATION_CONTEXT(2) 
PARAMETRIC_REPRESENTATION_CONTEXT() REPRESENTATION_CONTEXT('2D SPACE',''
  ) );
#284 = ORIENTED_EDGE('',*,*,#285,.T.);
#285 = EDGE_CURVE('',#263,#24,#286,.T.);
#286 = SURFACE_CURVE('',#287,(#293,#302),.PCURVE_S1.);
#287 = B_SPLINE_CURVE_WITH_KNOTS('',4,(#288,#289,#290,#291,#292),
  .UNSPECIFIED.,.F.,.F.,(5,5),(0.,1.),.PIECEWISE_BEZIER_KNOTS.);
#288 = CARTESIAN_POINT('',(-185.6277366335,-90.,-22.0000006));
#289 = CARTESIAN_POINT('',(-185.6277366335,-90.,-16.5000003));
#290 = CARTESIAN_POINT('',(-185.6277366335,-90.,-11.));
#291 = CARTESIAN_POINT('',(-185.6277366335,-90.,-5.4999997));
#292 = CARTESIAN_POINT('',(-185.6277366335,-90.,5.999999999062E-07));
#293 = PCURVE('',#47,#294);
#294 = DEFINITIONAL_REPRESENTATION('',(#295),#301);
#295 = B_SPLINE_CURVE_WITH_KNOTS('',4,(#296,#297,#298,#299,#300),
  .UNSPECIFIED.,.F.,.F.,(5,5),(2.727272578086E-08,1.),
  .PIECEWISE_BEZIER_KNOTS.);
#296 = CARTESIAN_POINT('',(10.044298856582,-22.));
#297 = CARTESIAN_POINT('',(10.044298856582,-16.49999985));
#298 = CARTESIAN_POINT('',(10.044298856582,-10.9999997));
#299 = CARTESIAN_POINT('',(10.044298856582,-5.49999955));
#300 = CARTESIAN_POINT('',(10.044298856582,5.999999999062E-07));
#301 = ( GEOMETRIC_REPRESENTATION_CONTEXT(2) 
PARAMETRIC_REPRESENTATION_CONTEXT() REPRESENTATION_CONTEXT('2D SPACE',''
  ) );
#302 = PCURVE('',#186,#303);
#303 = DEFINITIONAL_REPRESENTATION('',(#304),#310);
#304 = B_SPLINE_CURVE_WITH_KNOTS('',4,(#305,#306,#307,#308,#309),
  .UNSPECIFIED.,.F.,.F.,(5,5),(0.,1.),.PIECEWISE_BEZIER_KNOTS.);
#305 = CARTESIAN_POINT('',(12.9999994,64.372263366435));
#306 = CARTESIAN_POINT('',(18.4999997,64.372263366435));
#307 = CARTESIAN_POINT('',(24.,64.372263366435));
#308 = CARTESIAN_POINT('',(29.5000003,64.372263366435));
#309 = CARTESIAN_POINT('',(35.0000006,64.372263366435));
#310 = ( GEOMETRIC_REPRESENTATION_CONTEXT(2) 
PARAMETRIC_REPRESENTATION_CONTEXT() REPRESENTATION_CONTEXT('2D SPACE',''
  ) );
#311 = ADVANCED_FACE('',(#312),#186,.F.);
#312 = FACE_BOUND('',#313,.F.);
#313 = EDGE_LOOP('',(#314,#315,#336,#373,#410,#429));
#314 = ORIENTED_EDGE('',*,*,#168,.F.);
#315 = ORIENTED_EDGE('',*,*,#316,.F.);
#316 = EDGE_CURVE('',#317,#146,#319,.T.);
#317 = VERTEX_POINT('',#318);
#318 = CARTESIAN_POINT('',(-164.8259143828,-90.,22.));
#319 = SURFACE_CURVE('',#320,(#324,#330),.PCURVE_S1.);
#320 = LINE('',#321,#322);
#321 = CARTESIAN_POINT('',(-119.3792374579,-90.,22.));
#322 = VECTOR('',#323,1.);
#323 = DIRECTION('',(-1.,0.,0.));
#324 = PCURVE('',#186,#325);
#325 = DEFINITIONAL_REPRESENTATION('',(#326),#329);
#326 = B_SPLINE_CURVE_WITH_KNOTS('',1,(#327,#328),.UNSPECIFIED.,.F.,.F.,
  (2,2),(-347.3792374579,108.62076254203),.PIECEWISE_BEZIER_KNOTS.);
#327 = CARTESIAN_POINT('',(57.,478.));
#328 = CARTESIAN_POINT('',(57.,22.));
#329 = ( GEOMETRIC_REPRESENTATION_CONTEXT(2) 
PARAMETRIC_REPRESENTATION_CONTEXT() REPRESENTATION_CONTEXT('2D SPACE',''
  ) );
#330 = PCURVE('',#133,#331);
#331 = DEFINITIONAL_REPRESENTATION('',(#332),#335);
#332 = B_SPLINE_CURVE_WITH_KNOTS('',1,(#333,#334),.UNSPECIFIED.,.F.,.F.,
  (2,2),(-347.3792374579,108.62076254203),.PIECEWISE_BEZIER_KNOTS.);
#333 = CARTESIAN_POINT('',(216.75847491594,-90.));
#334 = CARTESIAN_POINT('',(-239.241525084,-90.));
#335 = ( GEOMETRIC_REPRESENTATION_CONTEXT(2) 
PARAMETRIC_REPRESENTATION_CONTEXT() REPRESENTATION_CONTEXT('2D SPACE',''
  ) );
#336 = ORIENTED_EDGE('',*,*,#337,.T.);
#337 = EDGE_CURVE('',#317,#338,#340,.T.);
#338 = VERTEX_POINT('',#339);
#339 = CARTESIAN_POINT('',(-164.8259143828,-90.,0.));
#340 = SURFACE_CURVE('',#341,(#347,#356),.PCURVE_S1.);
#341 = B_SPLINE_CURVE_WITH_KNOTS('',4,(#342,#343,#344,#345,#346),
  .UNSPECIFIED.,.F.,.F.,(5,5),(0.,1.),.PIECEWISE_BEZIER_KNOTS.);
#342 = CARTESIAN_POINT('',(-164.8259143828,-90.,22.0000006));
#343 = CARTESIAN_POINT('',(-164.8259143828,-90.,16.5000003));
#344 = CARTESIAN_POINT('',(-164.8259143828,-90.,11.));
#345 = CARTESIAN_POINT('',(-164.8259143828,-90.,5.4999997));
#346 = CARTESIAN_POINT('',(-164.8259143828,-90.,-5.999999999062E-07));
#347 = PCURVE('',#186,#348);
#348 = DEFINITIONAL_REPRESENTATION('',(#349),#355);
#349 = B_SPLINE_CURVE_WITH_KNOTS('',4,(#350,#351,#352,#353,#354),
  .UNSPECIFIED.,.F.,.F.,(5,5),(0.,1.),.PIECEWISE_BEZIER_KNOTS.);
#350 = CARTESIAN_POINT('',(57.0000006,85.174085617191));
#351 = CARTESIAN_POINT('',(51.5000003,85.174085617191));
#352 = CARTESIAN_POINT('',(46.,85.174085617191));
#353 = CARTESIAN_POINT('',(40.4999997,85.174085617191));
#354 = CARTESIAN_POINT('',(34.9999994,85.174085617191));
#355 = ( GEOMETRIC_REPRESENTATION_CONTEXT(2) 
PARAMETRIC_REPRESENTATION_CONTEXT() REPRESENTATION_CONTEXT('2D SPACE',''
  ) );
#356 = PCURVE('',#357,#365);
#357 = SURFACE_OF_LINEAR_EXTRUSION('',#358,#363);
#358 = ELLIPSE('',#359,214.,141.);
#359 = AXIS2_PLACEMENT_3D('',#360,#361,#362);
#360 = CARTESIAN_POINT('',(-9.096807485773E-02,-3.323609453954E-15,0.));
#361 = DIRECTION('',(0.,0.,1.));
#362 = DIRECTION('',(1.,0.,0.));
#363 = VECTOR('',#364,1.);
#364 = DIRECTION('',(-0.,-0.,-1.));
#365 = DEFINITIONAL_REPRESENTATION('',(#366),#372);
#366 = B_SPLINE_CURVE_WITH_KNOTS('',4,(#367,#368,#369,#370,#371),
  .UNSPECIFIED.,.F.,.F.,(5,5),(2.727272578086E-08,0.999999972727),
  .PIECEWISE_BEZIER_KNOTS.);
#367 = CARTESIAN_POINT('',(10.117063033853,-22.));
#368 = CARTESIAN_POINT('',(10.117063033853,-16.5));
#369 = CARTESIAN_POINT('',(10.117063033853,-11.));
#370 = CARTESIAN_POINT('',(10.117063033853,-5.5));
#371 = CARTESIAN_POINT('',(10.117063033853,8.014632605582E-16));
#372 = ( GEOMETRIC_REPRESENTATION_CONTEXT(2) 
PARAMETRIC_REPRESENTATION_CONTEXT() REPRESENTATION_CONTEXT('2D SPACE',''
  ) );
#373 = ORIENTED_EDGE('',*,*,#374,.F.);
#374 = EDGE_CURVE('',#375,#338,#377,.T.);
#375 = VERTEX_POINT('',#376);
#376 = CARTESIAN_POINT('',(-164.8259143828,-90.,-22.));
#377 = SURFACE_CURVE('',#378,(#384,#393),.PCURVE_S1.);
#378 = B_SPLINE_CURVE_WITH_KNOTS('',4,(#379,#380,#381,#382,#383),
  .UNSPECIFIED.,.F.,.F.,(5,5),(0.,1.),.PIECEWISE_BEZIER_KNOTS.);
#379 = CARTESIAN_POINT('',(-164.8259143828,-90.,-22.0000006));
#380 = CARTESIAN_POINT('',(-164.8259143828,-90.,-16.5000003));
#381 = CARTESIAN_POINT('',(-164.8259143828,-90.,-11.));
#382 = CARTESIAN_POINT('',(-164.8259143828,-90.,-5.4999997));
#383 = CARTESIAN_POINT('',(-164.8259143828,-90.,5.999999999062E-07));
#384 = PCURVE('',#186,#385);
#385 = DEFINITIONAL_REPRESENTATION('',(#386),#392);
#386 = B_SPLINE_CURVE_WITH_KNOTS('',4,(#387,#388,#389,#390,#391),
  .UNSPECIFIED.,.F.,.F.,(5,5),(0.,1.),.PIECEWISE_BEZIER_KNOTS.);
#387 = CARTESIAN_POINT('',(12.9999994,85.174085617191));
#388 = CARTESIAN_POINT('',(18.4999997,85.174085617191));
#389 = CARTESIAN_POINT('',(24.,85.174085617191));
#390 = CARTESIAN_POINT('',(29.5000003,85.174085617191));
#391 = CARTESIAN_POINT('',(35.0000006,85.174085617191));
#392 = ( GEOMETRIC_REPRESENTATION_CONTEXT(2) 
PARAMETRIC_REPRESENTATION_CONTEXT() REPRESENTATION_CONTEXT('2D SPACE',''
  ) );
#393 = PCURVE('',#394,#402);
#394 = SURFACE_OF_LINEAR_EXTRUSION('',#395,#400);
#395 = ELLIPSE('',#396,214.,141.);
#396 = AXIS2_PLACEMENT_3D('',#397,#398,#399);
#397 = CARTESIAN_POINT('',(-9.096807485773E-02,-3.323609453954E-15,0.));
#398 = DIRECTION('',(0.,0.,1.));
#399 = DIRECTION('',(1.,0.,0.));
#400 = VECTOR('',#401,1.);
#401 = DIRECTION('',(0.,0.,1.));
#402 = DEFINITIONAL_REPRESENTATION('',(#403),#409);
#403 = B_SPLINE_CURVE_WITH_KNOTS('',4,(#404,#405,#406,#407,#408),
  .UNSPECIFIED.,.F.,.F.,(5,5),(2.727272578086E-08,1.),
  .PIECEWISE_BEZIER_KNOTS.);
#404 = CARTESIAN_POINT('',(10.117063033853,-22.));
#405 = CARTESIAN_POINT('',(10.117063033853,-16.49999985));
#406 = CARTESIAN_POINT('',(10.117063033853,-10.9999997));
#407 = CARTESIAN_POINT('',(10.117063033853,-5.49999955));
#408 = CARTESIAN_POINT('',(10.117063033853,5.999999999062E-07));
#409 = ( GEOMETRIC_REPRESENTATION_CONTEXT(2) 
PARAMETRIC_REPRESENTATION_CONTEXT() REPRESENTATION_CONTEXT('2D SPACE',''
  ) );
#410 = ORIENTED_EDGE('',*,*,#411,.T.);
#411 = EDGE_CURVE('',#375,#263,#412,.T.);
#412 = SURFACE_CURVE('',#413,(#417,#423),.PCURVE_S1.);
#413 = LINE('',#414,#415);
#414 = CARTESIAN_POINT('',(-119.3792374579,-90.,-22.));
#415 = VECTOR('',#416,1.);
#416 = DIRECTION('',(-1.,0.,0.));
#417 = PCURVE('',#186,#418);
#418 = DEFINITIONAL_REPRESENTATION('',(#419),#422);
#419 = B_SPLINE_CURVE_WITH_KNOTS('',1,(#420,#421),.UNSPECIFIED.,.F.,.F.,
  (2,2),(-347.3792374579,108.62076254203),.PIECEWISE_BEZIER_KNOTS.);
#420 = CARTESIAN_POINT('',(13.,478.));
#421 = CARTESIAN_POINT('',(13.,22.));
#422 = ( GEOMETRIC_REPRESENTATION_CONTEXT(2) 
PARAMETRIC_REPRESENTATION_CONTEXT() REPRESENTATION_CONTEXT('2D SPACE',''
  ) );
#423 = PCURVE('',#250,#424);
#424 = DEFINITIONAL_REPRESENTATION('',(#425),#428);
#425 = B_SPLINE_CURVE_WITH_KNOTS('',1,(#426,#427),.UNSPECIFIED.,.F.,.F.,
  (2,2),(-347.3792374579,108.62076254203),.PIECEWISE_BEZIER_KNOTS.);
#426 = CARTESIAN_POINT('',(216.75847491594,-90.));
#427 = CARTESIAN_POINT('',(-239.241525084,-90.));
#428 = ( GEOMETRIC_REPRESENTATION_CONTEXT(2) 
PARAMETRIC_REPRESENTATION_CONTEXT() REPRESENTATION_CONTEXT('2D SPACE',''
  ) );
#429 = ORIENTED_EDGE('',*,*,#285,.T.);
#430 = ADVANCED_FACE('',(#431),#133,.T.);
#431 = FACE_BOUND('',#432,.T.);
#432 = EDGE_LOOP('',(#433,#434,#435,#436,#459,#482));
#433 = ORIENTED_EDGE('',*,*,#117,.T.);
#434 = ORIENTED_EDGE('',*,*,#145,.T.);
#435 = ORIENTED_EDGE('',*,*,#316,.F.);
#436 = ORIENTED_EDGE('',*,*,#437,.F.);
#437 = EDGE_CURVE('',#438,#317,#440,.T.);
#438 = VERTEX_POINT('',#439);
#439 = CARTESIAN_POINT('',(213.90903192514,-3.323609453954E-15,22.));
#440 = SURFACE_CURVE('',#441,(#446,#453),.PCURVE_S1.);
#441 = ELLIPSE('',#442,214.,141.);
#442 = AXIS2_PLACEMENT_3D('',#443,#444,#445);
#443 = CARTESIAN_POINT('',(-9.096807485773E-02,-3.323609453954E-15,22.)
  );
#444 = DIRECTION('',(0.,0.,1.));
#445 = DIRECTION('',(1.,0.,0.));
#446 = PCURVE('',#133,#447);
#447 = DEFINITIONAL_REPRESENTATION('',(#448),#452);
#448 = ELLIPSE('',#449,214.,141.);
#449 = AXIS2_PLACEMENT_2D('',#450,#451);
#450 = CARTESIAN_POINT('',(-11.33249315891,-1.0876845985E-14));
#451 = DIRECTION('',(1.,0.));
#452 = ( GEOMETRIC_REPRESENTATION_CONTEXT(2) 
PARAMETRIC_REPRESENTATION_CONTEXT() REPRESENTATION_CONTEXT('2D SPACE',''
  ) );
#453 = PCURVE('',#357,#454);
#454 = DEFINITIONAL_REPRESENTATION('',(#455),#458);
#455 = B_SPLINE_CURVE_WITH_KNOTS('',1,(#456,#457),.UNSPECIFIED.,.F.,.F.,
  (2,2),(0.,3.833877726673),.PIECEWISE_BEZIER_KNOTS.);
#456 = CARTESIAN_POINT('',(6.28318530718,-22.));
#457 = CARTESIAN_POINT('',(10.117063033853,-22.));
#458 = ( GEOMETRIC_REPRESENTATION_CONTEXT(2) 
PARAMETRIC_REPRESENTATION_CONTEXT() REPRESENTATION_CONTEXT('2D SPACE',''
  ) );
#459 = ORIENTED_EDGE('',*,*,#460,.F.);
#460 = EDGE_CURVE('',#461,#438,#463,.T.);
#461 = VERTEX_POINT('',#462);
#462 = CARTESIAN_POINT('',(164.64397823309,-90.,22.));
#463 = SURFACE_CURVE('',#464,(#469,#476),.PCURVE_S1.);
#464 = ELLIPSE('',#465,214.,141.);
#465 = AXIS2_PLACEMENT_3D('',#466,#467,#468);
#466 = CARTESIAN_POINT('',(-9.096807485773E-02,-3.323609453954E-15,22.)
  );
#467 = DIRECTION('',(0.,0.,1.));
#468 = DIRECTION('',(1.,0.,0.));
#469 = PCURVE('',#133,#470);
#470 = DEFINITIONAL_REPRESENTATION('',(#471),#475);
#471 = ELLIPSE('',#472,214.,141.);
#472 = AXIS2_PLACEMENT_2D('',#473,#474);
#473 = CARTESIAN_POINT('',(-11.33249315891,-1.0876845985E-14));
#474 = DIRECTION('',(1.,0.));
#475 = ( GEOMETRIC_REPRESENTATION_CONTEXT(2) 
PARAMETRIC_REPRESENTATION_CONTEXT() REPRESENTATION_CONTEXT('2D SPACE',''
  ) );
#476 = PCURVE('',#357,#477);
#477 = DEFINITIONAL_REPRESENTATION('',(#478),#481);
#478 = B_SPLINE_CURVE_WITH_KNOTS('',1,(#479,#480),.UNSPECIFIED.,.F.,.F.,
  (2,2),(5.590900234096,6.28318530718),.PIECEWISE_BEZIER_KNOTS.);
#479 = CARTESIAN_POINT('',(5.590900234096,-22.));
#480 = CARTESIAN_POINT('',(6.28318530718,-22.));
#481 = ( GEOMETRIC_REPRESENTATION_CONTEXT(2) 
PARAMETRIC_REPRESENTATION_CONTEXT() REPRESENTATION_CONTEXT('2D SPACE',''
  ) );
#482 = ORIENTED_EDGE('',*,*,#483,.F.);
#483 = EDGE_CURVE('',#84,#461,#484,.T.);
#484 = SURFACE_CURVE('',#485,(#489,#495),.PCURVE_S1.);
#485 = LINE('',#486,#487);
#486 = CARTESIAN_POINT('',(-119.3792374579,-90.,22.));
#487 = VECTOR('',#488,1.);
#488 = DIRECTION('',(-1.,0.,0.));
#489 = PCURVE('',#133,#490);
#490 = DEFINITIONAL_REPRESENTATION('',(#491),#494);
#491 = B_SPLINE_CURVE_WITH_KNOTS('',1,(#492,#493),.UNSPECIFIED.,.F.,.F.,
  (2,2),(-347.3792374579,108.62076254203),.PIECEWISE_BEZIER_KNOTS.);
#492 = CARTESIAN_POINT('',(216.75847491594,-90.));
#493 = CARTESIAN_POINT('',(-239.241525084,-90.));
#494 = ( GEOMETRIC_REPRESENTATION_CONTEXT(2) 
PARAMETRIC_REPRESENTATION_CONTEXT() REPRESENTATION_CONTEXT('2D SPACE',''
  ) );
#495 = PCURVE('',#103,#496);
#496 = DEFINITIONAL_REPRESENTATION('',(#497),#500);
#497 = B_SPLINE_CURVE_WITH_KNOTS('',1,(#498,#499),.UNSPECIFIED.,.F.,.F.,
  (2,2),(-347.3792374579,108.62076254203),.PIECEWISE_BEZIER_KNOTS.);
#498 = CARTESIAN_POINT('',(57.,478.));
#499 = CARTESIAN_POINT('',(57.,22.));
#500 = ( GEOMETRIC_REPRESENTATION_CONTEXT(2) 
PARAMETRIC_REPRESENTATION_CONTEXT() REPRESENTATION_CONTEXT('2D SPACE',''
  ) );
#501 = ADVANCED_FACE('',(#502),#250,.F.);
#502 = FACE_BOUND('',#503,.F.);
#503 = EDGE_LOOP('',(#504,#505,#506,#507,#530,#553));
#504 = ORIENTED_EDGE('',*,*,#234,.T.);
#505 = ORIENTED_EDGE('',*,*,#262,.T.);
#506 = ORIENTED_EDGE('',*,*,#411,.F.);
#507 = ORIENTED_EDGE('',*,*,#508,.F.);
#508 = EDGE_CURVE('',#509,#375,#511,.T.);
#509 = VERTEX_POINT('',#510);
#510 = CARTESIAN_POINT('',(213.90903192514,-3.323609453954E-15,-22.));
#511 = SURFACE_CURVE('',#512,(#517,#524),.PCURVE_S1.);
#512 = ELLIPSE('',#513,214.,141.);
#513 = AXIS2_PLACEMENT_3D('',#514,#515,#516);
#514 = CARTESIAN_POINT('',(-9.096807485773E-02,-3.323609453954E-15,-22.)
  );
#515 = DIRECTION('',(0.,0.,1.));
#516 = DIRECTION('',(1.,0.,0.));
#517 = PCURVE('',#250,#518);
#518 = DEFINITIONAL_REPRESENTATION('',(#519),#523);
#519 = ELLIPSE('',#520,214.,141.);
#520 = AXIS2_PLACEMENT_2D('',#521,#522);
#521 = CARTESIAN_POINT('',(-11.33249315891,-1.0876845985E-14));
#522 = DIRECTION('',(1.,0.));
#523 = ( GEOMETRIC_REPRESENTATION_CONTEXT(2) 
PARAMETRIC_REPRESENTATION_CONTEXT() REPRESENTATION_CONTEXT('2D SPACE',''
  ) );
#524 = PCURVE('',#394,#525);
#525 = DEFINITIONAL_REPRESENTATION('',(#526),#529);
#526 = B_SPLINE_CURVE_WITH_KNOTS('',1,(#527,#528),.UNSPECIFIED.,.F.,.F.,
  (2,2),(0.,3.833877726673),.PIECEWISE_BEZIER_KNOTS.);
#527 = CARTESIAN_POINT('',(6.28318530718,-22.));
#528 = CARTESIAN_POINT('',(10.117063033853,-22.));
#529 = ( GEOMETRIC_REPRESENTATION_CONTEXT(2) 
PARAMETRIC_REPRESENTATION_CONTEXT() REPRESENTATION_CONTEXT('2D SPACE',''
  ) );
#530 = ORIENTED_EDGE('',*,*,#531,.F.);
#531 = EDGE_CURVE('',#532,#509,#534,.T.);
#532 = VERTEX_POINT('',#533);
#533 = CARTESIAN_POINT('',(164.64397823309,-90.,-22.));
#534 = SURFACE_CURVE('',#535,(#540,#547),.PCURVE_S1.);
#535 = ELLIPSE('',#536,214.,141.);
#536 = AXIS2_PLACEMENT_3D('',#537,#538,#539);
#537 = CARTESIAN_POINT('',(-9.096807485773E-02,-3.323609453954E-15,-22.)
  );
#538 = DIRECTION('',(0.,0.,1.));
#539 = DIRECTION('',(1.,0.,0.));
#540 = PCURVE('',#250,#541);
#541 = DEFINITIONAL_REPRESENTATION('',(#542),#546);
#542 = ELLIPSE('',#543,214.,141.);
#543 = AXIS2_PLACEMENT_2D('',#544,#545);
#544 = CARTESIAN_POINT('',(-11.33249315891,-1.0876845985E-14));
#545 = DIRECTION('',(1.,0.));
#546 = ( GEOMETRIC_REPRESENTATION_CONTEXT(2) 
PARAMETRIC_REPRESENTATION_CONTEXT() REPRESENTATION_CONTEXT('2D SPACE',''
  ) );
#547 = PCURVE('',#394,#548);
#548 = DEFINITIONAL_REPRESENTATION('',(#549),#552);
#549 = B_SPLINE_CURVE_WITH_KNOTS('',1,(#550,#551),.UNSPECIFIED.,.F.,.F.,
  (2,2),(5.590900234096,6.28318530718),.PIECEWISE_BEZIER_KNOTS.);
#550 = CARTESIAN_POINT('',(5.590900234096,-22.));
#551 = CARTESIAN_POINT('',(6.28318530718,-22.));
#552 = ( GEOMETRIC_REPRESENTATION_CONTEXT(2) 
PARAMETRIC_REPRESENTATION_CONTEXT() REPRESENTATION_CONTEXT('2D SPACE',''
  ) );
#553 = ORIENTED_EDGE('',*,*,#554,.F.);
#554 = EDGE_CURVE('',#206,#532,#555,.T.);
#555 = SURFACE_CURVE('',#556,(#560,#566),.PCURVE_S1.);
#556 = LINE('',#557,#558);
#557 = CARTESIAN_POINT('',(-119.3792374579,-90.,-22.));
#558 = VECTOR('',#559,1.);
#559 = DIRECTION('',(-1.,0.,0.));
#560 = PCURVE('',#250,#561);
#561 = DEFINITIONAL_REPRESENTATION('',(#562),#565);
#562 = B_SPLINE_CURVE_WITH_KNOTS('',1,(#563,#564),.UNSPECIFIED.,.F.,.F.,
  (2,2),(-347.3792374579,108.62076254203),.PIECEWISE_BEZIER_KNOTS.);
#563 = CARTESIAN_POINT('',(216.75847491594,-90.));
#564 = CARTESIAN_POINT('',(-239.241525084,-90.));
#565 = ( GEOMETRIC_REPRESENTATION_CONTEXT(2) 
PARAMETRIC_REPRESENTATION_CONTEXT() REPRESENTATION_CONTEXT('2D SPACE',''
  ) );
#566 = PCURVE('',#103,#567);
#567 = DEFINITIONAL_REPRESENTATION('',(#568),#571);
#568 = B_SPLINE_CURVE_WITH_KNOTS('',1,(#569,#570),.UNSPECIFIED.,.F.,.F.,
  (2,2),(-347.3792374579,108.62076254203),.PIECEWISE_BEZIER_KNOTS.);
#569 = CARTESIAN_POINT('',(13.,478.));
#570 = CARTESIAN_POINT('',(13.,22.));
#571 = ( GEOMETRIC_REPRESENTATION_CONTEXT(2) 
PARAMETRIC_REPRESENTATION_CONTEXT() REPRESENTATION_CONTEXT('2D SPACE',''
  ) );
#572 = ADVANCED_FACE('',(#573),#394,.F.);
#573 = FACE_BOUND('',#574,.F.);
#574 = EDGE_LOOP('',(#575,#597,#619,#646,#647,#648));
#575 = ORIENTED_EDGE('',*,*,#576,.F.);
#576 = EDGE_CURVE('',#577,#338,#579,.T.);
#577 = VERTEX_POINT('',#578);
#578 = CARTESIAN_POINT('',(213.90903192514,-3.323609453954E-15,0.));
#579 = SURFACE_CURVE('',#580,(#585,#591),.PCURVE_S1.);
#580 = ELLIPSE('',#581,214.,141.);
#581 = AXIS2_PLACEMENT_3D('',#582,#583,#584);
#582 = CARTESIAN_POINT('',(-9.096807485773E-02,-3.323609453954E-15,0.));
#583 = DIRECTION('',(0.,0.,1.));
#584 = DIRECTION('',(1.,0.,0.));
#585 = PCURVE('',#394,#586);
#586 = DEFINITIONAL_REPRESENTATION('',(#587),#590);
#587 = B_SPLINE_CURVE_WITH_KNOTS('',1,(#588,#589),.UNSPECIFIED.,.F.,.F.,
  (2,2),(0.,3.833877726673),.PIECEWISE_BEZIER_KNOTS.);
#588 = CARTESIAN_POINT('',(6.28318530718,0.));
#589 = CARTESIAN_POINT('',(10.117063033853,0.));
#590 = ( GEOMETRIC_REPRESENTATION_CONTEXT(2) 
PARAMETRIC_REPRESENTATION_CONTEXT() REPRESENTATION_CONTEXT('2D SPACE',''
  ) );
#591 = PCURVE('',#357,#592);
#592 = DEFINITIONAL_REPRESENTATION('',(#593),#596);
#593 = B_SPLINE_CURVE_WITH_KNOTS('',1,(#594,#595),.UNSPECIFIED.,.F.,.F.,
  (2,2),(0.,3.833877726673),.PIECEWISE_BEZIER_KNOTS.);
#594 = CARTESIAN_POINT('',(6.28318530718,0.));
#595 = CARTESIAN_POINT('',(10.117063033853,0.));
#596 = ( GEOMETRIC_REPRESENTATION_CONTEXT(2) 
PARAMETRIC_REPRESENTATION_CONTEXT() REPRESENTATION_CONTEXT('2D SPACE',''
  ) );
#597 = ORIENTED_EDGE('',*,*,#598,.F.);
#598 = EDGE_CURVE('',#599,#577,#601,.T.);
#599 = VERTEX_POINT('',#600);
#600 = CARTESIAN_POINT('',(164.64397823309,-90.,0.));
#601 = SURFACE_CURVE('',#602,(#607,#613),.PCURVE_S1.);
#602 = ELLIPSE('',#603,214.,141.);
#603 = AXIS2_PLACEMENT_3D('',#604,#605,#606);
#604 = CARTESIAN_POINT('',(-9.096807485773E-02,-3.323609453954E-15,0.));
#605 = DIRECTION('',(0.,0.,1.));
#606 = DIRECTION('',(1.,0.,0.));
#607 = PCURVE('',#394,#608);
#608 = DEFINITIONAL_REPRESENTATION('',(#609),#612);
#609 = B_SPLINE_CURVE_WITH_KNOTS('',1,(#610,#611),.UNSPECIFIED.,.F.,.F.,
  (2,2),(5.590900234096,6.28318530718),.PIECEWISE_BEZIER_KNOTS.);
#610 = CARTESIAN_POINT('',(5.590900234096,0.));
#611 = CARTESIAN_POINT('',(6.28318530718,0.));
#612 = ( GEOMETRIC_REPRESENTATION_CONTEXT(2) 
PARAMETRIC_REPRESENTATION_CONTEXT() REPRESENTATION_CONTEXT('2D SPACE',''
  ) );
#613 = PCURVE('',#357,#614);
#614 = DEFINITIONAL_REPRESENTATION('',(#615),#618);
#615 = B_SPLINE_CURVE_WITH_KNOTS('',1,(#616,#617),.UNSPECIFIED.,.F.,.F.,
  (2,2),(5.590900234096,6.28318530718),.PIECEWISE_BEZIER_KNOTS.);
#616 = CARTESIAN_POINT('',(5.590900234096,0.));
#617 = CARTESIAN_POINT('',(6.28318530718,0.));
#618 = ( GEOMETRIC_REPRESENTATION_CONTEXT(2) 
PARAMETRIC_REPRESENTATION_CONTEXT() REPRESENTATION_CONTEXT('2D SPACE',''
  ) );
#619 = ORIENTED_EDGE('',*,*,#620,.F.);
#620 = EDGE_CURVE('',#532,#599,#621,.T.);
#621 = SURFACE_CURVE('',#622,(#628,#637),.PCURVE_S1.);
#622 = B_SPLINE_CURVE_WITH_KNOTS('',4,(#623,#624,#625,#626,#627),
  .UNSPECIFIED.,.F.,.F.,(5,5),(0.,1.),.PIECEWISE_BEZIER_KNOTS.);
#623 = CARTESIAN_POINT('',(164.64397823309,-90.,-22.0000006));
#624 = CARTESIAN_POINT('',(164.64397823309,-90.,-16.5000003));
#625 = CARTESIAN_POINT('',(164.64397823309,-90.,-11.));
#626 = CARTESIAN_POINT('',(164.64397823309,-90.,-5.4999997));
#627 = CARTESIAN_POINT('',(164.64397823309,-90.,5.999999999062E-07));
#628 = PCURVE('',#394,#629);
#629 = DEFINITIONAL_REPRESENTATION('',(#630),#636);
#630 = B_SPLINE_CURVE_WITH_KNOTS('',4,(#631,#632,#633,#634,#635),
  .UNSPECIFIED.,.F.,.F.,(5,5),(2.727272578086E-08,1.),
  .PIECEWISE_BEZIER_KNOTS.);
#631 = CARTESIAN_POINT('',(5.590900234096,-22.));
#632 = CARTESIAN_POINT('',(5.590900234096,-16.49999985));
#633 = CARTESIAN_POINT('',(5.590900234096,-10.9999997));
#634 = CARTESIAN_POINT('',(5.590900234096,-5.49999955));
#635 = CARTESIAN_POINT('',(5.590900234096,5.999999999062E-07));
#636 = ( GEOMETRIC_REPRESENTATION_CONTEXT(2) 
PARAMETRIC_REPRESENTATION_CONTEXT() REPRESENTATION_CONTEXT('2D SPACE',''
  ) );
#637 = PCURVE('',#103,#638);
#638 = DEFINITIONAL_REPRESENTATION('',(#639),#645);
#639 = B_SPLINE_CURVE_WITH_KNOTS('',4,(#640,#641,#642,#643,#644),
  .UNSPECIFIED.,.F.,.F.,(5,5),(0.,1.),.PIECEWISE_BEZIER_KNOTS.);
#640 = CARTESIAN_POINT('',(12.9999994,414.64397823309));
#641 = CARTESIAN_POINT('',(18.4999997,414.64397823309));
#642 = CARTESIAN_POINT('',(24.,414.64397823309));
#643 = CARTESIAN_POINT('',(29.5000003,414.64397823309));
#644 = CARTESIAN_POINT('',(35.0000006,414.64397823309));
#645 = ( GEOMETRIC_REPRESENTATION_CONTEXT(2) 
PARAMETRIC_REPRESENTATION_CONTEXT() REPRESENTATION_CONTEXT('2D SPACE',''
  ) );
#646 = ORIENTED_EDGE('',*,*,#531,.T.);
#647 = ORIENTED_EDGE('',*,*,#508,.T.);
#648 = ORIENTED_EDGE('',*,*,#374,.T.);
#649 = ADVANCED_FACE('',(#650),#357,.T.);
#650 = FACE_BOUND('',#651,.T.);
#651 = EDGE_LOOP('',(#652,#653,#654,#681,#682,#683));
#652 = ORIENTED_EDGE('',*,*,#576,.F.);
#653 = ORIENTED_EDGE('',*,*,#598,.F.);
#654 = ORIENTED_EDGE('',*,*,#655,.F.);
#655 = EDGE_CURVE('',#461,#599,#656,.T.);
#656 = SURFACE_CURVE('',#657,(#663,#672),.PCURVE_S1.);
#657 = B_SPLINE_CURVE_WITH_KNOTS('',4,(#658,#659,#660,#661,#662),
  .UNSPECIFIED.,.F.,.F.,(5,5),(0.,1.),.PIECEWISE_BEZIER_KNOTS.);
#658 = CARTESIAN_POINT('',(164.64397823309,-90.,22.0000006));
#659 = CARTESIAN_POINT('',(164.64397823309,-90.,16.5000003));
#660 = CARTESIAN_POINT('',(164.64397823309,-90.,11.));
#661 = CARTESIAN_POINT('',(164.64397823309,-90.,5.4999997));
#662 = CARTESIAN_POINT('',(164.64397823309,-90.,-5.999999999062E-07));
#663 = PCURVE('',#357,#664);
#664 = DEFINITIONAL_REPRESENTATION('',(#665),#671);
#665 = B_SPLINE_CURVE_WITH_KNOTS('',4,(#666,#667,#668,#669,#670),
  .UNSPECIFIED.,.F.,.F.,(5,5),(2.727272578086E-08,0.999999972727),
  .PIECEWISE_BEZIER_KNOTS.);
#666 = CARTESIAN_POINT('',(5.590900234096,-22.));
#667 = CARTESIAN_POINT('',(5.590900234096,-16.5));
#668 = CARTESIAN_POINT('',(5.590900234096,-11.));
#669 = CARTESIAN_POINT('',(5.590900234096,-5.5));
#670 = CARTESIAN_POINT('',(5.590900234096,8.014632605582E-16));
#671 = ( GEOMETRIC_REPRESENTATION_CONTEXT(2) 
PARAMETRIC_REPRESENTATION_CONTEXT() REPRESENTATION_CONTEXT('2D SPACE',''
  ) );
#672 = PCURVE('',#103,#673);
#673 = DEFINITIONAL_REPRESENTATION('',(#674),#680);
#674 = B_SPLINE_CURVE_WITH_KNOTS('',4,(#675,#676,#677,#678,#679),
  .UNSPECIFIED.,.F.,.F.,(5,5),(0.,1.),.PIECEWISE_BEZIER_KNOTS.);
#675 = CARTESIAN_POINT('',(57.0000006,414.64397823309));
#676 = CARTESIAN_POINT('',(51.5000003,414.64397823309));
#677 = CARTESIAN_POINT('',(46.,414.64397823309));
#678 = CARTESIAN_POINT('',(40.4999997,414.64397823309));
#679 = CARTESIAN_POINT('',(34.9999994,414.64397823309));
#680 = ( GEOMETRIC_REPRESENTATION_CONTEXT(2) 
PARAMETRIC_REPRESENTATION_CONTEXT() REPRESENTATION_CONTEXT('2D SPACE',''
  ) );
#681 = ORIENTED_EDGE('',*,*,#460,.T.);
#682 = ORIENTED_EDGE('',*,*,#437,.T.);
#683 = ORIENTED_EDGE('',*,*,#337,.T.);
#684 = ADVANCED_FACE('',(#685),#103,.F.);
#685 = FACE_BOUND('',#686,.F.);
#686 = EDGE_LOOP('',(#687,#688,#689,#690,#691,#692));
#687 = ORIENTED_EDGE('',*,*,#483,.F.);
#688 = ORIENTED_EDGE('',*,*,#83,.T.);
#689 = ORIENTED_EDGE('',*,*,#205,.F.);
#690 = ORIENTED_EDGE('',*,*,#554,.T.);
#691 = ORIENTED_EDGE('',*,*,#620,.T.);
#692 = ORIENTED_EDGE('',*,*,#655,.F.);
#693 = ( GEOMETRIC_REPRESENTATION_CONTEXT(3) 
GLOBAL_UNCERTAINTY_ASSIGNED_CONTEXT((#697)) GLOBAL_UNIT_ASSIGNED_CONTEXT
((#694,#695,#696)) REPRESENTATION_CONTEXT('Context #1',
  '3D Context with UNIT and UNCERTAINTY') );
#694 = ( LENGTH_UNIT() NAMED_UNIT(*) SI_UNIT(.MILLI.,.METRE.) );
#695 = ( NAMED_UNIT(*) PLANE_ANGLE_UNIT() SI_UNIT($,.RADIAN.) );
#696 = ( NAMED_UNIT(*) SI_UNIT($,.STERADIAN.) SOLID_ANGLE_UNIT() );
#697 = UNCERTAINTY_MEASURE_WITH_UNIT(LENGTH_MEASURE(2.E-06),#694,
  'distance_accuracy_value','confusion accuracy');
#698 = PRODUCT_RELATED_PRODUCT_CATEGORY('part',$,(#7));
ENDSEC;
END-ISO-10303-21;
