ISO-10303-21;
HEADER;
FILE_DESCRIPTION(('Open CASCADE Model'),'2;1');
FILE_NAME('Open CASCADE Shape Model','2026-09-05T05:20:56',('Author'),(
    'Open CASCADE'),'Open CASCADE STEP processor 7.8','Open CASCADE 7.8'
  ,'Unknown');
FILE_SCHEMA(('AUTOMOTIVE_DESIGN { 1 0 10303 214 1 1 1 1 }'));
ENDSEC;
DATA;
#1 = APPLICATION_PROTOCOL_DEFINITION('international standard',
  'automotive_design',2000,#2);
#2 = APPLICATION_CONTEXT(
  'core data for automotive mechanical design processes');
#3 = SHAPE_DEFINITION_REPRESENTATION(#4,#10);
#4 = PRODUCT_DEFINITION_SHAPE('','',#5);
#5 = PRODUCT_DEFINITION('design','',#6,#9);
#6 = PRODUCT_DEFINITION_FORMATION('','',#7);
#7 = PRODUCT('Open CASCADE STEP translator 7.8 71',
  'Open CASCADE STEP translator 7.8 71','',(#8));
#8 = PRODUCT_CONTEXT('',#2,'mechanical');
#9 = PRODUCT_DEFINITION_CONTEXT('part definition',#2,'design');
#10 = ADVANCED_BREP_SHAPE_REPRESENTATION('',(#11,#15),#649);
#11 = AXIS2_PLACEMENT_3D('',#12,#13,#14);
#12 = CARTESIAN_POINT('',(0.,0.,0.));
#13 = DIRECTION('',(0.,0.,1.));
#14 = DIRECTION('',(1.,0.,-0.));
#15 = MANIFOLD_SOLID_BREP('',#16);
#16 = CLOSED_SHELL('',(#17,#191,#279,#386,#510,#584,#637,#643));
#17 = ADVANCED_FACE('',(#18),#34,.T.);
#18 = FACE_BOUND('',#19,.T.);
#19 = EDGE_LOOP('',(#20,#67,#113,#147));
#20 = ORIENTED_EDGE('',*,*,#21,.T.);
#21 = EDGE_CURVE('',#22,#24,#26,.T.);
#22 = VERTEX_POINT('',#23);
#23 = CARTESIAN_POINT('',(29.5,-38.21347787231,-62.));
#24 = VERTEX_POINT('',#25);
#25 = CARTESIAN_POINT('',(-29.5,-38.21347787231,-62.));
#26 = SURFACE_CURVE('',#27,(#33,#53),.PCURVE_S1.);
#27 = B_SPLINE_CURVE_WITH_KNOTS('',4,(#28,#29,#30,#31,#32),
  .UNSPECIFIED.,.F.,.F.,(5,5),(0.,1.),.PIECEWISE_BEZIER_KNOTS.);
#28 = CARTESIAN_POINT('',(29.5,-38.21347787231,-62.));
#29 = CARTESIAN_POINT('',(14.75,-38.21347787231,-62.));
#30 = CARTESIAN_POINT('',(2.84217094304E-14,-38.21347787231,-62.));
#31 = CARTESIAN_POINT('',(-14.75,-38.21347787231,-62.));
#32 = CARTESIAN_POINT('',(-29.5,-38.21347787231,-62.));
#33 = PCURVE('',#34,#45);
#34 = ( BOUNDED_SURFACE() B_SPLINE_SURFACE(1,4,(
    (#35,#36,#37,#38,#39)
    ,(#40,#41,#42,#43,#44
)),.UNSPECIFIED.,.F.,.F.,.F.) B_SPLINE_SURFACE_WITH_KNOTS((2,2),(5,5),(
    0.,1.),(0.,1.),.PIECEWISE_BEZIER_KNOTS.) 
GEOMETRIC_REPRESENTATION_ITEM() RATIONAL_B_SPLINE_SURFACE((
    (1.,1.,1.,1.,1.)
,(1.,1.,1.,1.,1.))) REPRESENTATION_ITEM('') SURFACE() );
#35 = CARTESIAN_POINT('',(-23.328,-23.4,-134.));
#36 = CARTESIAN_POINT('',(-48.82777904233,-48.97848206407,
    -74.89946339855));
#37 = CARTESIAN_POINT('',(-34.69141113837,-34.79848339497,4.704294879977
    ));
#38 = CARTESIAN_POINT('',(-45.21218077478,-45.3517245426,66.857252864212
    ));
#39 = CARTESIAN_POINT('',(-25.6608,-25.74,134.));
#40 = CARTESIAN_POINT('',(23.328,-23.4,-134.));
#41 = CARTESIAN_POINT('',(48.827779042337,-48.97848206407,
    -74.89946339855));
#42 = CARTESIAN_POINT('',(34.691411138377,-34.79848339497,4.704294879977
    ));
#43 = CARTESIAN_POINT('',(45.212180774783,-45.3517245426,66.857252864212
    ));
#44 = CARTESIAN_POINT('',(25.6608,-25.74,134.));
#45 = DEFINITIONAL_REPRESENTATION('',(#46),#52);
#46 = B_SPLINE_CURVE_WITH_KNOTS('',4,(#47,#48,#49,#50,#51),
  .UNSPECIFIED.,.F.,.F.,(5,5),(0.,1.),.PIECEWISE_BEZIER_KNOTS.);
#47 = CARTESIAN_POINT('',(0.887180793666,0.276812842676));
#48 = CARTESIAN_POINT('',(0.693590396833,0.276812842676));
#49 = CARTESIAN_POINT('',(0.5,0.276812842676));
#50 = CARTESIAN_POINT('',(0.306409603167,0.276812842676));
#51 = CARTESIAN_POINT('',(0.112819206334,0.276812842676));
#52 = ( GEOMETRIC_REPRESENTATION_CONTEXT(2) 
PARAMETRIC_REPRESENTATION_CONTEXT() REPRESENTATION_CONTEXT('2D SPACE',''
  ) );
#53 = PCURVE('',#54,#59);
#54 = PLANE('',#55);
#55 = AXIS2_PLACEMENT_3D('',#56,#57,#58);
#56 = CARTESIAN_POINT('',(-29.5,-142.,-62.));
#57 = DIRECTION('',(0.,0.,1.));
#58 = DIRECTION('',(1.,0.,0.));
#59 = DEFINITIONAL_REPRESENTATION('',(#60),#66);
#60 = B_SPLINE_CURVE_WITH_KNOTS('',4,(#61,#62,#63,#64,#65),
  .UNSPECIFIED.,.F.,.F.,(5,5),(0.,1.),.PIECEWISE_BEZIER_KNOTS.);
#61 = CARTESIAN_POINT('',(59.,103.78652212768));
#62 = CARTESIAN_POINT('',(44.25,103.78652212768));
#63 = CARTESIAN_POINT('',(29.5,103.78652212768));
#64 = CARTESIAN_POINT('',(14.75,103.78652212768));
#65 = CARTESIAN_POINT('',(0.,103.78652212768));
#66 = ( GEOMETRIC_REPRESENTATION_CONTEXT(2) 
PARAMETRIC_REPRESENTATION_CONTEXT() REPRESENTATION_CONTEXT('2D SPACE',''
  ) );
#67 = ORIENTED_EDGE('',*,*,#68,.T.);
#68 = EDGE_CURVE('',#24,#69,#71,.T.);
#69 = VERTEX_POINT('',#70);
#70 = CARTESIAN_POINT('',(-29.5,-30.81364810708,-112.));
#71 = SURFACE_CURVE('',#72,(#82,#95),.PCURVE_S1.);
#72 = B_SPLINE_CURVE_WITH_KNOTS('',8,(#73,#74,#75,#76,#77,#78,#79,#80,
    #81),.UNSPECIFIED.,.F.,.F.,(9,9),(0.,1.),.PIECEWISE_BEZIER_KNOTS.);
#73 = CARTESIAN_POINT('',(-29.5,-38.21347787231,-62.));
#74 = CARTESIAN_POINT('',(-29.5,-37.76739423322,-68.31171106999));
#75 = CARTESIAN_POINT('',(-29.5,-37.22426510583,-74.61455750847));
#76 = CARTESIAN_POINT('',(-29.5,-36.56836411425,-80.90829564007));
#77 = CARTESIAN_POINT('',(-29.5,-35.78094269493,-87.18941331623));
#78 = CARTESIAN_POINT('',(-29.5,-34.83987519728,-93.45108011434));
#79 = CARTESIAN_POINT('',(-29.5,-33.71922459607,-99.68308598947));
#80 = CARTESIAN_POINT('',(-29.5,-32.38879238964,-105.8717796047));
#81 = CARTESIAN_POINT('',(-29.5,-30.81364810708,-112.));
#82 = PCURVE('',#34,#83);
#83 = DEFINITIONAL_REPRESENTATION('',(#84),#94);
#84 = B_SPLINE_CURVE_WITH_KNOTS('',8,(#85,#86,#87,#88,#89,#90,#91,#92,
    #93),.UNSPECIFIED.,.F.,.F.,(9,9),(0.,1.),.PIECEWISE_BEZIER_KNOTS.);
#85 = CARTESIAN_POINT('',(0.112819206334,0.276812842676));
#86 = CARTESIAN_POINT('',(0.108299465471,0.253838945405));
#87 = CARTESIAN_POINT('',(0.102675077681,0.230788800333));
#88 = CARTESIAN_POINT('',(9.569520959934E-02,0.207627756632));
#89 = CARTESIAN_POINT('',(8.698811290977E-02,0.184327598852));
#90 = CARTESIAN_POINT('',(7.611379529902E-02,0.160865673736));
#91 = CARTESIAN_POINT('',(6.224876167247E-02,0.137224061623));
#92 = CARTESIAN_POINT('',(4.438367231025E-02,0.113388807612));
#93 = CARTESIAN_POINT('',(1.983859100556E-02,8.93492034742E-02));
#94 = ( GEOMETRIC_REPRESENTATION_CONTEXT(2) 
PARAMETRIC_REPRESENTATION_CONTEXT() REPRESENTATION_CONTEXT('2D SPACE',''
  ) );
#95 = PCURVE('',#96,#101);
#96 = PLANE('',#97);
#97 = AXIS2_PLACEMENT_3D('',#98,#99,#100);
#98 = CARTESIAN_POINT('',(-29.5,-142.,-112.));
#99 = DIRECTION('',(1.,0.,0.));
#100 = DIRECTION('',(0.,0.,1.));
#101 = DEFINITIONAL_REPRESENTATION('',(#102),#112);
#102 = B_SPLINE_CURVE_WITH_KNOTS('',8,(#103,#104,#105,#106,#107,#108,
    #109,#110,#111),.UNSPECIFIED.,.F.,.F.,(9,9),(0.,1.),
  .PIECEWISE_BEZIER_KNOTS.);
#103 = CARTESIAN_POINT('',(50.,-103.7865221276));
#104 = CARTESIAN_POINT('',(43.688288930006,-104.2326057667));
#105 = CARTESIAN_POINT('',(37.385442491525,-104.7757348941));
#106 = CARTESIAN_POINT('',(31.09170435993,-105.4316358857));
#107 = CARTESIAN_POINT('',(24.810586683766,-106.219057305));
#108 = CARTESIAN_POINT('',(18.54891988566,-107.1601248027));
#109 = CARTESIAN_POINT('',(12.316914010528,-108.2807754039));
#110 = CARTESIAN_POINT('',(6.128220395217,-109.6112076103));
#111 = CARTESIAN_POINT('',(0.,-111.1863518929));
#112 = ( GEOMETRIC_REPRESENTATION_CONTEXT(2) 
PARAMETRIC_REPRESENTATION_CONTEXT() REPRESENTATION_CONTEXT('2D SPACE',''
  ) );
#113 = ORIENTED_EDGE('',*,*,#114,.F.);
#114 = EDGE_CURVE('',#115,#69,#117,.T.);
#115 = VERTEX_POINT('',#116);
#116 = CARTESIAN_POINT('',(29.5,-30.81364810708,-112.));
#117 = SURFACE_CURVE('',#118,(#124,#133),.PCURVE_S1.);
#118 = B_SPLINE_CURVE_WITH_KNOTS('',4,(#119,#120,#121,#122,#123),
  .UNSPECIFIED.,.F.,.F.,(5,5),(0.,1.),.PIECEWISE_BEZIER_KNOTS.);
#119 = CARTESIAN_POINT('',(29.5,-30.81364810708,-112.));
#120 = CARTESIAN_POINT('',(14.75,-30.81364810708,-112.));
#121 = CARTESIAN_POINT('',(1.847411112976E-13,-30.81364810708,-112.));
#122 = CARTESIAN_POINT('',(-14.75,-30.81364810708,-112.));
#123 = CARTESIAN_POINT('',(-29.5,-30.81364810708,-112.));
#124 = PCURVE('',#34,#125);
#125 = DEFINITIONAL_REPRESENTATION('',(#126),#132);
#126 = B_SPLINE_CURVE_WITH_KNOTS('',4,(#127,#128,#129,#130,#131),
  .UNSPECIFIED.,.F.,.F.,(5,5),(0.,1.),.PIECEWISE_BEZIER_KNOTS.);
#127 = CARTESIAN_POINT('',(0.980161408994,8.93492034742E-02));
#128 = CARTESIAN_POINT('',(0.740080704497,8.93492034742E-02));
#129 = CARTESIAN_POINT('',(0.5,8.93492034742E-02));
#130 = CARTESIAN_POINT('',(0.259919295503,8.93492034742E-02));
#131 = CARTESIAN_POINT('',(1.983859100556E-02,8.93492034742E-02));
#132 = ( GEOMETRIC_REPRESENTATION_CONTEXT(2) 
PARAMETRIC_REPRESENTATION_CONTEXT() REPRESENTATION_CONTEXT('2D SPACE',''
  ) );
#133 = PCURVE('',#134,#139);
#134 = PLANE('',#135);
#135 = AXIS2_PLACEMENT_3D('',#136,#137,#138);
#136 = CARTESIAN_POINT('',(-29.5,-142.,-112.));
#137 = DIRECTION('',(0.,0.,1.));
#138 = DIRECTION('',(1.,0.,0.));
#139 = DEFINITIONAL_REPRESENTATION('',(#140),#146);
#140 = B_SPLINE_CURVE_WITH_KNOTS('',4,(#141,#142,#143,#144,#145),
  .UNSPECIFIED.,.F.,.F.,(5,5),(0.,1.),.PIECEWISE_BEZIER_KNOTS.);
#141 = CARTESIAN_POINT('',(59.,111.18635189291));
#142 = CARTESIAN_POINT('',(44.25,111.18635189291));
#143 = CARTESIAN_POINT('',(29.5,111.18635189291));
#144 = CARTESIAN_POINT('',(14.75,111.18635189291));
#145 = CARTESIAN_POINT('',(0.,111.18635189291));
#146 = ( GEOMETRIC_REPRESENTATION_CONTEXT(2) 
PARAMETRIC_REPRESENTATION_CONTEXT() REPRESENTATION_CONTEXT('2D SPACE',''
  ) );
#147 = ORIENTED_EDGE('',*,*,#148,.T.);
#148 = EDGE_CURVE('',#115,#22,#149,.T.);
#149 = SURFACE_CURVE('',#150,(#160,#173),.PCURVE_S1.);
#150 = B_SPLINE_CURVE_WITH_KNOTS('',8,(#151,#152,#153,#154,#155,#156,
    #157,#158,#159),.UNSPECIFIED.,.F.,.F.,(9,9),(0.,1.),
  .PIECEWISE_BEZIER_KNOTS.);
#151 = CARTESIAN_POINT('',(29.5,-30.81364810708,-112.));
#152 = CARTESIAN_POINT('',(29.5,-32.38879251454,-105.8717791188));
#153 = CARTESIAN_POINT('',(29.5,-33.71922460766,-99.68308578393));
#154 = CARTESIAN_POINT('',(29.5,-34.83987514046,-93.45108033825));
#155 = CARTESIAN_POINT('',(29.5,-35.78094264046,-87.18941373728));
#156 = CARTESIAN_POINT('',(29.5,-36.568364101,-80.90829589585));
#157 = CARTESIAN_POINT('',(29.5,-37.22426512988,-74.61455735824));
#158 = CARTESIAN_POINT('',(29.5,-37.76739426393,-68.31171063545));
#159 = CARTESIAN_POINT('',(29.5,-38.21347787231,-62.));
#160 = PCURVE('',#34,#161);
#161 = DEFINITIONAL_REPRESENTATION('',(#162),#172);
#162 = B_SPLINE_CURVE_WITH_KNOTS('',8,(#163,#164,#165,#166,#167,#168,
    #169,#170,#171),.UNSPECIFIED.,.F.,.F.,(9,9),(0.,1.),
  .PIECEWISE_BEZIER_KNOTS.);
#163 = CARTESIAN_POINT('',(0.980161408994,8.93492034742E-02));
#164 = CARTESIAN_POINT('',(0.955616325744,0.113388809518));
#165 = CARTESIAN_POINT('',(0.937751237965,0.137224062359));
#166 = CARTESIAN_POINT('',(0.923886207117,0.160865672861));
#167 = CARTESIAN_POINT('',(0.913011885317,0.18432759729));
#168 = CARTESIAN_POINT('',(0.904304792109,0.207627755711));
#169 = CARTESIAN_POINT('',(0.897324921588,0.230788800894));
#170 = CARTESIAN_POINT('',(0.891700534217,0.253838946987));
#171 = CARTESIAN_POINT('',(0.887180793666,0.276812842676));
#172 = ( GEOMETRIC_REPRESENTATION_CONTEXT(2) 
PARAMETRIC_REPRESENTATION_CONTEXT() REPRESENTATION_CONTEXT('2D SPACE',''
  ) );
#173 = PCURVE('',#174,#179);
#174 = PLANE('',#175);
#175 = AXIS2_PLACEMENT_3D('',#176,#177,#178);
#176 = CARTESIAN_POINT('',(29.5,-142.,-112.));
#177 = DIRECTION('',(1.,0.,0.));
#178 = DIRECTION('',(0.,0.,1.));
#179 = DEFINITIONAL_REPRESENTATION('',(#180),#190);
#180 = B_SPLINE_CURVE_WITH_KNOTS('',8,(#181,#182,#183,#184,#185,#186,
    #187,#188,#189),.UNSPECIFIED.,.F.,.F.,(9,9),(0.,1.),
  .PIECEWISE_BEZIER_KNOTS.);
#181 = CARTESIAN_POINT('',(0.,-111.1863518929));
#182 = CARTESIAN_POINT('',(6.128220881134,-109.6112074854));
#183 = CARTESIAN_POINT('',(12.316914216061,-108.2807753923));
#184 = CARTESIAN_POINT('',(18.548919661748,-107.1601248595));
#185 = CARTESIAN_POINT('',(24.810586262717,-106.2190573595));
#186 = CARTESIAN_POINT('',(31.091704104144,-105.4316358989));
#187 = CARTESIAN_POINT('',(37.385442641756,-104.7757348701));
#188 = CARTESIAN_POINT('',(43.688289364542,-104.232605736));
#189 = CARTESIAN_POINT('',(50.,-103.7865221276));
#190 = ( GEOMETRIC_REPRESENTATION_CONTEXT(2) 
PARAMETRIC_REPRESENTATION_CONTEXT() REPRESENTATION_CONTEXT('2D SPACE',''
  ) );
#191 = ADVANCED_FACE('',(#192),#54,.T.);
#192 = FACE_BOUND('',#193,.T.);
#193 = EDGE_LOOP('',(#194,#217,#218,#241));
#194 = ORIENTED_EDGE('',*,*,#195,.F.);
#195 = EDGE_CURVE('',#24,#196,#198,.T.);
#196 = VERTEX_POINT('',#197);
#197 = CARTESIAN_POINT('',(-29.5,-35.21347787231,-62.));
#198 = SURFACE_CURVE('',#199,(#203,#210),.PCURVE_S1.);
#199 = LINE('',#200,#201);
#200 = CARTESIAN_POINT('',(-29.5,-142.,-62.));
#201 = VECTOR('',#202,1.);
#202 = DIRECTION('',(0.,1.,0.));
#203 = PCURVE('',#54,#204);
#204 = DEFINITIONAL_REPRESENTATION('',(#205),#209);
#205 = LINE('',#206,#207);
#206 = CARTESIAN_POINT('',(0.,0.));
#207 = VECTOR('',#208,1.);
#208 = DIRECTION('',(0.,1.));
#209 = ( GEOMETRIC_REPRESENTATION_CONTEXT(2) 
PARAMETRIC_REPRESENTATION_CONTEXT() REPRESENTATION_CONTEXT('2D SPACE',''
  ) );
#210 = PCURVE('',#96,#211);
#211 = DEFINITIONAL_REPRESENTATION('',(#212),#216);
#212 = LINE('',#213,#214);
#213 = CARTESIAN_POINT('',(50.,0.));
#214 = VECTOR('',#215,1.);
#215 = DIRECTION('',(0.,-1.));
#216 = ( GEOMETRIC_REPRESENTATION_CONTEXT(2) 
PARAMETRIC_REPRESENTATION_CONTEXT() REPRESENTATION_CONTEXT('2D SPACE',''
  ) );
#217 = ORIENTED_EDGE('',*,*,#21,.F.);
#218 = ORIENTED_EDGE('',*,*,#219,.T.);
#219 = EDGE_CURVE('',#22,#220,#222,.T.);
#220 = VERTEX_POINT('',#221);
#221 = CARTESIAN_POINT('',(29.5,-35.21347787231,-62.));
#222 = SURFACE_CURVE('',#223,(#227,#234),.PCURVE_S1.);
#223 = LINE('',#224,#225);
#224 = CARTESIAN_POINT('',(29.5,-142.,-62.));
#225 = VECTOR('',#226,1.);
#226 = DIRECTION('',(0.,1.,0.));
#227 = PCURVE('',#54,#228);
#228 = DEFINITIONAL_REPRESENTATION('',(#229),#233);
#229 = LINE('',#230,#231);
#230 = CARTESIAN_POINT('',(59.,0.));
#231 = VECTOR('',#232,1.);
#232 = DIRECTION('',(0.,1.));
#233 = ( GEOMETRIC_REPRESENTATION_CONTEXT(2) 
PARAMETRIC_REPRESENTATION_CONTEXT() REPRESENTATION_CONTEXT('2D SPACE',''
  ) );
#234 = PCURVE('',#174,#235);
#235 = DEFINITIONAL_REPRESENTATION('',(#236),#240);
#236 = LINE('',#237,#238);
#237 = CARTESIAN_POINT('',(50.,0.));
#238 = VECTOR('',#239,1.);
#239 = DIRECTION('',(0.,-1.));
#240 = ( GEOMETRIC_REPRESENTATION_CONTEXT(2) 
PARAMETRIC_REPRESENTATION_CONTEXT() REPRESENTATION_CONTEXT('2D SPACE',''
  ) );
#241 = ORIENTED_EDGE('',*,*,#242,.T.);
#242 = EDGE_CURVE('',#220,#196,#243,.T.);
#243 = SURFACE_CURVE('',#244,(#250,#259),.PCURVE_S1.);
#244 = B_SPLINE_CURVE_WITH_KNOTS('',4,(#245,#246,#247,#248,#249),
  .UNSPECIFIED.,.F.,.F.,(5,5),(0.,1.),.PIECEWISE_BEZIER_KNOTS.);
#245 = CARTESIAN_POINT('',(29.5,-35.21347787231,-62.));
#246 = CARTESIAN_POINT('',(14.75,-35.21347787231,-62.));
#247 = CARTESIAN_POINT('',(-9.592326932761E-14,-35.21347787231,-62.));
#248 = CARTESIAN_POINT('',(-14.75,-35.21347787231,-62.));
#249 = CARTESIAN_POINT('',(-29.5,-35.21347787231,-62.));
#250 = PCURVE('',#54,#251);
#251 = DEFINITIONAL_REPRESENTATION('',(#252),#258);
#252 = B_SPLINE_CURVE_WITH_KNOTS('',4,(#253,#254,#255,#256,#257),
  .UNSPECIFIED.,.F.,.F.,(5,5),(0.,1.),.PIECEWISE_BEZIER_KNOTS.);
#253 = CARTESIAN_POINT('',(59.,106.78652212768));
#254 = CARTESIAN_POINT('',(44.25,106.78652212768));
#255 = CARTESIAN_POINT('',(29.5,106.78652212768));
#256 = CARTESIAN_POINT('',(14.75,106.78652212768));
#257 = CARTESIAN_POINT('',(0.,106.78652212768));
#258 = ( GEOMETRIC_REPRESENTATION_CONTEXT(2) 
PARAMETRIC_REPRESENTATION_CONTEXT() REPRESENTATION_CONTEXT('2D SPACE',''
  ) );
#259 = PCURVE('',#260,#271);
#260 = ( BOUNDED_SURFACE() B_SPLINE_SURFACE(1,4,(
    (#261,#262,#263,#264,#265)
    ,(#266,#267,#268,#269,#270
)),.UNSPECIFIED.,.F.,.F.,.F.) B_SPLINE_SURFACE_WITH_KNOTS((2,2),(5,5),(
    0.,1.),(0.,1.),.PIECEWISE_BEZIER_KNOTS.) 
GEOMETRIC_REPRESENTATION_ITEM() RATIONAL_B_SPLINE_SURFACE((
    (1.,1.,1.,1.,1.)
,(1.,1.,1.,1.,1.))) REPRESENTATION_ITEM('') SURFACE() );
#261 = CARTESIAN_POINT('',(-21.168,-20.4,-134.));
#262 = CARTESIAN_POINT('',(-46.66777904233,-45.97848206407,
    -74.89946339855));
#263 = CARTESIAN_POINT('',(-32.53141113837,-31.79848339497,
    4.704294879977));
#264 = CARTESIAN_POINT('',(-43.05218077478,-42.3517245426,
    66.857252864212));
#265 = CARTESIAN_POINT('',(-23.5008,-22.74,134.));
#266 = CARTESIAN_POINT('',(21.168,-20.4,-134.));
#267 = CARTESIAN_POINT('',(46.667779042337,-45.97848206407,
    -74.89946339855));
#268 = CARTESIAN_POINT('',(32.531411138377,-31.79848339497,
    4.704294879977));
#269 = CARTESIAN_POINT('',(43.052180774783,-42.3517245426,
    66.857252864212));
#270 = CARTESIAN_POINT('',(23.5008,-22.74,134.));
#271 = DEFINITIONAL_REPRESENTATION('',(#272),#278);
#272 = B_SPLINE_CURVE_WITH_KNOTS('',4,(#273,#274,#275,#276,#277),
  .UNSPECIFIED.,.F.,.F.,(5,5),(0.,1.),.PIECEWISE_BEZIER_KNOTS.);
#273 = CARTESIAN_POINT('',(0.910453080217,0.276812842676));
#274 = CARTESIAN_POINT('',(0.705226540108,0.276812842676));
#275 = CARTESIAN_POINT('',(0.5,0.276812842676));
#276 = CARTESIAN_POINT('',(0.294773459892,0.276812842676));
#277 = CARTESIAN_POINT('',(8.954691978306E-02,0.276812842676));
#278 = ( GEOMETRIC_REPRESENTATION_CONTEXT(2) 
PARAMETRIC_REPRESENTATION_CONTEXT() REPRESENTATION_CONTEXT('2D SPACE',''
  ) );
#279 = ADVANCED_FACE('',(#280),#174,.T.);
#280 = FACE_BOUND('',#281,.T.);
#281 = EDGE_LOOP('',(#282,#283,#284,#307,#347));
#282 = ORIENTED_EDGE('',*,*,#219,.F.);
#283 = ORIENTED_EDGE('',*,*,#148,.F.);
#284 = ORIENTED_EDGE('',*,*,#285,.T.);
#285 = EDGE_CURVE('',#115,#286,#288,.T.);
#286 = VERTEX_POINT('',#287);
#287 = CARTESIAN_POINT('',(29.5,-26.87248498923,-112.));
#288 = SURFACE_CURVE('',#289,(#293,#300),.PCURVE_S1.);
#289 = LINE('',#290,#291);
#290 = CARTESIAN_POINT('',(29.5,-142.,-112.));
#291 = VECTOR('',#292,1.);
#292 = DIRECTION('',(0.,1.,0.));
#293 = PCURVE('',#174,#294);
#294 = DEFINITIONAL_REPRESENTATION('',(#295),#299);
#295 = LINE('',#296,#297);
#296 = CARTESIAN_POINT('',(0.,0.));
#297 = VECTOR('',#298,1.);
#298 = DIRECTION('',(0.,-1.));
#299 = ( GEOMETRIC_REPRESENTATION_CONTEXT(2) 
PARAMETRIC_REPRESENTATION_CONTEXT() REPRESENTATION_CONTEXT('2D SPACE',''
  ) );
#300 = PCURVE('',#134,#301);
#301 = DEFINITIONAL_REPRESENTATION('',(#302),#306);
#302 = LINE('',#303,#304);
#303 = CARTESIAN_POINT('',(59.,0.));
#304 = VECTOR('',#305,1.);
#305 = DIRECTION('',(0.,1.));
#306 = ( GEOMETRIC_REPRESENTATION_CONTEXT(2) 
PARAMETRIC_REPRESENTATION_CONTEXT() REPRESENTATION_CONTEXT('2D SPACE',''
  ) );
#307 = ORIENTED_EDGE('',*,*,#308,.T.);
#308 = EDGE_CURVE('',#286,#309,#311,.T.);
#309 = VERTEX_POINT('',#310);
#310 = CARTESIAN_POINT('',(29.5,-28.75771604938,-108.1578327717));
#311 = SURFACE_CURVE('',#312,(#318,#327),.PCURVE_S1.);
#312 = B_SPLINE_CURVE_WITH_KNOTS('',4,(#313,#314,#315,#316,#317),
  .UNSPECIFIED.,.F.,.F.,(5,5),(0.,1.),.PIECEWISE_BEZIER_KNOTS.);
#313 = CARTESIAN_POINT('',(29.5,-26.87248498923,-112.));
#314 = CARTESIAN_POINT('',(29.5,-27.36106879451,-111.0480990361));
#315 = CARTESIAN_POINT('',(29.5,-27.83808384968,-110.0902349937));
#316 = CARTESIAN_POINT('',(29.5,-28.30359531101,-109.1267124435));
#317 = CARTESIAN_POINT('',(29.5,-28.75771604938,-108.1578327717));
#318 = PCURVE('',#174,#319);
#319 = DEFINITIONAL_REPRESENTATION('',(#320),#326);
#320 = B_SPLINE_CURVE_WITH_KNOTS('',4,(#321,#322,#323,#324,#325),
  .UNSPECIFIED.,.F.,.F.,(5,5),(0.,1.),.PIECEWISE_BEZIER_KNOTS.);
#321 = CARTESIAN_POINT('',(0.,-115.1275150107));
#322 = CARTESIAN_POINT('',(0.951900963821,-114.6389312054));
#323 = CARTESIAN_POINT('',(1.909765006251,-114.1619161503));
#324 = CARTESIAN_POINT('',(2.873287556475,-113.6964046889));
#325 = CARTESIAN_POINT('',(3.842167228203,-113.2422839506));
#326 = ( GEOMETRIC_REPRESENTATION_CONTEXT(2) 
PARAMETRIC_REPRESENTATION_CONTEXT() REPRESENTATION_CONTEXT('2D SPACE',''
  ) );
#327 = PCURVE('',#328,#339);
#328 = ( BOUNDED_SURFACE() B_SPLINE_SURFACE(1,4,(
    (#329,#330,#331,#332,#333)
    ,(#334,#335,#336,#337,#338
)),.UNSPECIFIED.,.F.,.F.,.F.) B_SPLINE_SURFACE_WITH_KNOTS((2,2),(5,5),(
    1.,2.),(0.,1.),.PIECEWISE_BEZIER_KNOTS.) 
GEOMETRIC_REPRESENTATION_ITEM() RATIONAL_B_SPLINE_SURFACE((
    (1.,1.,1.,1.,1.)
,(1.,1.,1.,1.,1.))) REPRESENTATION_ITEM('') SURFACE() );
#329 = CARTESIAN_POINT('',(21.168,-20.4,-134.));
#330 = CARTESIAN_POINT('',(46.667779042337,-45.97848206407,
    -74.89946339855));
#331 = CARTESIAN_POINT('',(32.531411138377,-31.79848339497,
    4.704294879977));
#332 = CARTESIAN_POINT('',(43.052180774783,-42.3517245426,
    66.857252864212));
#333 = CARTESIAN_POINT('',(23.5008,-22.74,134.));
#334 = CARTESIAN_POINT('',(29.4,-12.168,-134.));
#335 = CARTESIAN_POINT('',(64.816359781023,-27.82990132538,
    -74.89946339855));
#336 = CARTESIAN_POINT('',(45.182515469969,-19.14737906338,
    4.704294879977));
#337 = CARTESIAN_POINT('',(59.794695520533,-25.60920979685,
    66.857252864212));
#338 = CARTESIAN_POINT('',(32.64,-13.6008,134.));
#339 = DEFINITIONAL_REPRESENTATION('',(#340),#346);
#340 = B_SPLINE_CURVE_WITH_KNOTS('',4,(#341,#342,#343,#344,#345),
  .UNSPECIFIED.,.F.,.F.,(5,5),(0.,1.),.PIECEWISE_BEZIER_KNOTS.);
#341 = CARTESIAN_POINT('',(1.084742027192,8.93492034742E-02));
#342 = CARTESIAN_POINT('',(1.062056188992,9.308329279749E-02));
#343 = CARTESIAN_POINT('',(1.040424120151,9.682834397749E-02));
#344 = CARTESIAN_POINT('',(1.019761690708,0.100583424499));
#345 = CARTESIAN_POINT('',(1.,0.104347656482));
#346 = ( GEOMETRIC_REPRESENTATION_CONTEXT(2) 
PARAMETRIC_REPRESENTATION_CONTEXT() REPRESENTATION_CONTEXT('2D SPACE',''
  ) );
#347 = ORIENTED_EDGE('',*,*,#348,.T.);
#348 = EDGE_CURVE('',#309,#220,#349,.T.);
#349 = SURFACE_CURVE('',#350,(#360,#373),.PCURVE_S1.);
#350 = B_SPLINE_CURVE_WITH_KNOTS('',8,(#351,#352,#353,#354,#355,#356,
    #357,#358,#359),.UNSPECIFIED.,.F.,.F.,(9,9),(0.,1.),
  .PIECEWISE_BEZIER_KNOTS.);
#351 = CARTESIAN_POINT('',(29.5,-28.75771604938,-108.1578327717));
#352 = CARTESIAN_POINT('',(29.5,-30.09047613664,-102.4796179011));
#353 = CARTESIAN_POINT('',(29.5,-31.22865900693,-96.75721253589));
#354 = CARTESIAN_POINT('',(29.5,-32.19839455502,-91.00254018791));
#355 = CARTESIAN_POINT('',(29.5,-33.02234187022,-85.22516023035));
#356 = CARTESIAN_POINT('',(29.5,-33.72011152871,-79.43232752422));
#357 = CARTESIAN_POINT('',(29.5,-34.3085979526,-73.62903681927));
#358 = CARTESIAN_POINT('',(29.5,-34.80228299274,-67.81806425046));
#359 = CARTESIAN_POINT('',(29.5,-35.21347787231,-62.));
#360 = PCURVE('',#174,#361);
#361 = DEFINITIONAL_REPRESENTATION('',(#362),#372);
#362 = B_SPLINE_CURVE_WITH_KNOTS('',8,(#363,#364,#365,#366,#367,#368,
    #369,#370,#371),.UNSPECIFIED.,.F.,.F.,(9,9),(0.,1.),
  .PIECEWISE_BEZIER_KNOTS.);
#363 = CARTESIAN_POINT('',(3.842167228203,-113.2422839506));
#364 = CARTESIAN_POINT('',(9.520382098874,-111.9095238633));
#365 = CARTESIAN_POINT('',(15.242787464108,-110.771340993));
#366 = CARTESIAN_POINT('',(20.997459812083,-109.8016054449));
#367 = CARTESIAN_POINT('',(26.774839769643,-108.9776581297));
#368 = CARTESIAN_POINT('',(32.567672475776,-108.2798884712));
#369 = CARTESIAN_POINT('',(38.370963180726,-107.6914020473));
#370 = CARTESIAN_POINT('',(44.181935749535,-107.1977170072));
#371 = CARTESIAN_POINT('',(50.,-106.7865221276));
#372 = ( GEOMETRIC_REPRESENTATION_CONTEXT(2) 
PARAMETRIC_REPRESENTATION_CONTEXT() REPRESENTATION_CONTEXT('2D SPACE',''
  ) );
#373 = PCURVE('',#260,#374);
#374 = DEFINITIONAL_REPRESENTATION('',(#375),#385);
#375 = B_SPLINE_CURVE_WITH_KNOTS('',8,(#376,#377,#378,#379,#380,#381,
    #382,#383,#384),.UNSPECIFIED.,.F.,.F.,(9,9),(0.,1.),
  .PIECEWISE_BEZIER_KNOTS.);
#376 = CARTESIAN_POINT('',(1.,0.104347656482));
#377 = CARTESIAN_POINT('',(0.977480351068,0.126408309257));
#378 = CARTESIAN_POINT('',(0.960566178285,0.148297324098));
#379 = CARTESIAN_POINT('',(0.947218989829,0.170026009537));
#380 = CARTESIAN_POINT('',(0.936559511488,0.191607365019));
#381 = CARTESIAN_POINT('',(0.927913114713,0.213056719228));
#382 = CARTESIAN_POINT('',(0.920879149547,0.234392291743));
#383 = CARTESIAN_POINT('',(0.915135219892,0.255635762654));
#384 = CARTESIAN_POINT('',(0.910453080217,0.276812842676));
#385 = ( GEOMETRIC_REPRESENTATION_CONTEXT(2) 
PARAMETRIC_REPRESENTATION_CONTEXT() REPRESENTATION_CONTEXT('2D SPACE',''
  ) );
#386 = ADVANCED_FACE('',(#387),#134,.F.);
#387 = FACE_BOUND('',#388,.F.);
#388 = EDGE_LOOP('',(#389,#412,#413,#414,#443,#472));
#389 = ORIENTED_EDGE('',*,*,#390,.F.);
#390 = EDGE_CURVE('',#69,#391,#393,.T.);
#391 = VERTEX_POINT('',#392);
#392 = CARTESIAN_POINT('',(-29.5,-26.87248498923,-112.));
#393 = SURFACE_CURVE('',#394,(#398,#405),.PCURVE_S1.);
#394 = LINE('',#395,#396);
#395 = CARTESIAN_POINT('',(-29.5,-142.,-112.));
#396 = VECTOR('',#397,1.);
#397 = DIRECTION('',(0.,1.,0.));
#398 = PCURVE('',#134,#399);
#399 = DEFINITIONAL_REPRESENTATION('',(#400),#404);
#400 = LINE('',#401,#402);
#401 = CARTESIAN_POINT('',(0.,0.));
#402 = VECTOR('',#403,1.);
#403 = DIRECTION('',(0.,1.));
#404 = ( GEOMETRIC_REPRESENTATION_CONTEXT(2) 
PARAMETRIC_REPRESENTATION_CONTEXT() REPRESENTATION_CONTEXT('2D SPACE',''
  ) );
#405 = PCURVE('',#96,#406);
#406 = DEFINITIONAL_REPRESENTATION('',(#407),#411);
#407 = LINE('',#408,#409);
#408 = CARTESIAN_POINT('',(0.,0.));
#409 = VECTOR('',#410,1.);
#410 = DIRECTION('',(0.,-1.));
#411 = ( GEOMETRIC_REPRESENTATION_CONTEXT(2) 
PARAMETRIC_REPRESENTATION_CONTEXT() REPRESENTATION_CONTEXT('2D SPACE',''
  ) );
#412 = ORIENTED_EDGE('',*,*,#114,.F.);
#413 = ORIENTED_EDGE('',*,*,#285,.T.);
#414 = ORIENTED_EDGE('',*,*,#415,.T.);
#415 = EDGE_CURVE('',#286,#416,#418,.T.);
#416 = VERTEX_POINT('',#417);
#417 = CARTESIAN_POINT('',(28.558836882143,-27.81364810708,-112.));
#418 = SURFACE_CURVE('',#419,(#425,#434),.PCURVE_S1.);
#419 = B_SPLINE_CURVE_WITH_KNOTS('',4,(#420,#421,#422,#423,#424),
  .UNSPECIFIED.,.F.,.F.,(5,5),(0.,1.),.PIECEWISE_BEZIER_KNOTS.);
#420 = CARTESIAN_POINT('',(29.5,-26.87248498923,-112.));
#421 = CARTESIAN_POINT('',(29.264709220536,-27.10777576869,-112.));
#422 = CARTESIAN_POINT('',(29.029418441071,-27.34306654815,-112.));
#423 = CARTESIAN_POINT('',(28.794127661607,-27.57835732762,-112.));
#424 = CARTESIAN_POINT('',(28.558836882143,-27.81364810708,-112.));
#425 = PCURVE('',#134,#426);
#426 = DEFINITIONAL_REPRESENTATION('',(#427),#433);
#427 = B_SPLINE_CURVE_WITH_KNOTS('',4,(#428,#429,#430,#431,#432),
  .UNSPECIFIED.,.F.,.F.,(5,5),(0.,1.),.PIECEWISE_BEZIER_KNOTS.);
#428 = CARTESIAN_POINT('',(59.,115.12751501077));
#429 = CARTESIAN_POINT('',(58.764709220536,114.8922242313));
#430 = CARTESIAN_POINT('',(58.529418441071,114.65693345184));
#431 = CARTESIAN_POINT('',(58.294127661607,114.42164267237));
#432 = CARTESIAN_POINT('',(58.058836882143,114.18635189291));
#433 = ( GEOMETRIC_REPRESENTATION_CONTEXT(2) 
PARAMETRIC_REPRESENTATION_CONTEXT() REPRESENTATION_CONTEXT('2D SPACE',''
  ) );
#434 = PCURVE('',#328,#435);
#435 = DEFINITIONAL_REPRESENTATION('',(#436),#442);
#436 = B_SPLINE_CURVE_WITH_KNOTS('',4,(#437,#438,#439,#440,#441),
  .UNSPECIFIED.,.F.,.F.,(5,5),(0.,1.),.PIECEWISE_BEZIER_KNOTS.);
#437 = CARTESIAN_POINT('',(1.084742027192,8.93492034742E-02));
#438 = CARTESIAN_POINT('',(1.063556520394,8.93492034742E-02));
#439 = CARTESIAN_POINT('',(1.042371013596,8.93492034742E-02));
#440 = CARTESIAN_POINT('',(1.021185506798,8.93492034742E-02));
#441 = CARTESIAN_POINT('',(1.,8.93492034742E-02));
#442 = ( GEOMETRIC_REPRESENTATION_CONTEXT(2) 
PARAMETRIC_REPRESENTATION_CONTEXT() REPRESENTATION_CONTEXT('2D SPACE',''
  ) );
#443 = ORIENTED_EDGE('',*,*,#444,.T.);
#444 = EDGE_CURVE('',#416,#445,#447,.T.);
#445 = VERTEX_POINT('',#446);
#446 = CARTESIAN_POINT('',(-28.55883688214,-27.81364810708,-112.));
#447 = SURFACE_CURVE('',#448,(#454,#463),.PCURVE_S1.);
#448 = B_SPLINE_CURVE_WITH_KNOTS('',4,(#449,#450,#451,#452,#453),
  .UNSPECIFIED.,.F.,.F.,(5,5),(0.,1.),.PIECEWISE_BEZIER_KNOTS.);
#449 = CARTESIAN_POINT('',(28.558836882143,-27.81364810708,-112.));
#450 = CARTESIAN_POINT('',(14.279418441071,-27.81364810708,-112.));
#451 = CARTESIAN_POINT('',(-1.882938249764E-13,-27.81364810708,-112.));
#452 = CARTESIAN_POINT('',(-14.27941844107,-27.81364810708,-112.));
#453 = CARTESIAN_POINT('',(-28.55883688214,-27.81364810708,-112.));
#454 = PCURVE('',#134,#455);
#455 = DEFINITIONAL_REPRESENTATION('',(#456),#462);
#456 = B_SPLINE_CURVE_WITH_KNOTS('',4,(#457,#458,#459,#460,#461),
  .UNSPECIFIED.,.F.,.F.,(5,5),(0.,1.),.PIECEWISE_BEZIER_KNOTS.);
#457 = CARTESIAN_POINT('',(58.058836882143,114.18635189291));
#458 = CARTESIAN_POINT('',(43.779418441071,114.18635189291));
#459 = CARTESIAN_POINT('',(29.5,114.18635189291));
#460 = CARTESIAN_POINT('',(15.220581558929,114.18635189291));
#461 = CARTESIAN_POINT('',(0.941163117857,114.18635189291));
#462 = ( GEOMETRIC_REPRESENTATION_CONTEXT(2) 
PARAMETRIC_REPRESENTATION_CONTEXT() REPRESENTATION_CONTEXT('2D SPACE',''
  ) );
#463 = PCURVE('',#260,#464);
#464 = DEFINITIONAL_REPRESENTATION('',(#465),#471);
#465 = B_SPLINE_CURVE_WITH_KNOTS('',4,(#466,#467,#468,#469,#470),
  .UNSPECIFIED.,.F.,.F.,(5,5),(0.,1.),.PIECEWISE_BEZIER_KNOTS.);
#466 = CARTESIAN_POINT('',(1.,8.93492034742E-02));
#467 = CARTESIAN_POINT('',(0.75,8.93492034742E-02));
#468 = CARTESIAN_POINT('',(0.5,8.93492034742E-02));
#469 = CARTESIAN_POINT('',(0.25,8.93492034742E-02));
#470 = CARTESIAN_POINT('',(0.,8.93492034742E-02));
#471 = ( GEOMETRIC_REPRESENTATION_CONTEXT(2) 
PARAMETRIC_REPRESENTATION_CONTEXT() REPRESENTATION_CONTEXT('2D SPACE',''
  ) );
#472 = ORIENTED_EDGE('',*,*,#473,.T.);
#473 = EDGE_CURVE('',#445,#391,#474,.T.);
#474 = SURFACE_CURVE('',#475,(#481,#490),.PCURVE_S1.);
#475 = B_SPLINE_CURVE_WITH_KNOTS('',4,(#476,#477,#478,#479,#480),
  .UNSPECIFIED.,.F.,.F.,(5,5),(0.,1.),.PIECEWISE_BEZIER_KNOTS.);
#476 = CARTESIAN_POINT('',(-28.55883688214,-27.81364810708,-112.));
#477 = CARTESIAN_POINT('',(-28.7941276616,-27.57835732762,-112.));
#478 = CARTESIAN_POINT('',(-29.02941844107,-27.34306654815,-112.));
#479 = CARTESIAN_POINT('',(-29.26470922053,-27.10777576869,-112.));
#480 = CARTESIAN_POINT('',(-29.5,-26.87248498923,-112.));
#481 = PCURVE('',#134,#482);
#482 = DEFINITIONAL_REPRESENTATION('',(#483),#489);
#483 = B_SPLINE_CURVE_WITH_KNOTS('',4,(#484,#485,#486,#487,#488),
  .UNSPECIFIED.,.F.,.F.,(5,5),(0.,1.),.PIECEWISE_BEZIER_KNOTS.);
#484 = CARTESIAN_POINT('',(0.941163117857,114.18635189291));
#485 = CARTESIAN_POINT('',(0.705872338393,114.42164267237));
#486 = CARTESIAN_POINT('',(0.470581558929,114.65693345184));
#487 = CARTESIAN_POINT('',(0.235290779464,114.8922242313));
#488 = CARTESIAN_POINT('',(0.,115.12751501077));
#489 = ( GEOMETRIC_REPRESENTATION_CONTEXT(2) 
PARAMETRIC_REPRESENTATION_CONTEXT() REPRESENTATION_CONTEXT('2D SPACE',''
  ) );
#490 = PCURVE('',#491,#502);
#491 = ( BOUNDED_SURFACE() B_SPLINE_SURFACE(1,4,(
    (#492,#493,#494,#495,#496)
    ,(#497,#498,#499,#500,#501
)),.UNSPECIFIED.,.F.,.F.,.F.) B_SPLINE_SURFACE_WITH_KNOTS((2,2),(5,5),(
    7.,8.),(0.,1.),.PIECEWISE_BEZIER_KNOTS.) 
GEOMETRIC_REPRESENTATION_ITEM() RATIONAL_B_SPLINE_SURFACE((
    (1.,1.,1.,1.,1.)
,(1.,1.,1.,1.,1.))) REPRESENTATION_ITEM('') SURFACE() );
#492 = CARTESIAN_POINT('',(-29.4,-12.168,-134.));
#493 = CARTESIAN_POINT('',(-64.81635978102,-27.82990132538,
    -74.89946339855));
#494 = CARTESIAN_POINT('',(-45.18251546996,-19.14737906338,
    4.704294879977));
#495 = CARTESIAN_POINT('',(-59.79469552053,-25.60920979685,
    66.857252864212));
#496 = CARTESIAN_POINT('',(-32.64,-13.6008,134.));
#497 = CARTESIAN_POINT('',(-21.168,-20.4,-134.));
#498 = CARTESIAN_POINT('',(-46.66777904233,-45.97848206407,
    -74.89946339855));
#499 = CARTESIAN_POINT('',(-32.53141113837,-31.79848339497,
    4.704294879977));
#500 = CARTESIAN_POINT('',(-43.05218077478,-42.3517245426,
    66.857252864212));
#501 = CARTESIAN_POINT('',(-23.5008,-22.74,134.));
#502 = DEFINITIONAL_REPRESENTATION('',(#503),#509);
#503 = B_SPLINE_CURVE_WITH_KNOTS('',4,(#504,#505,#506,#507,#508),
  .UNSPECIFIED.,.F.,.F.,(5,5),(0.,1.),.PIECEWISE_BEZIER_KNOTS.);
#504 = CARTESIAN_POINT('',(8.,8.93492034742E-02));
#505 = CARTESIAN_POINT('',(7.978814493202,8.93492034742E-02));
#506 = CARTESIAN_POINT('',(7.957628986404,8.93492034742E-02));
#507 = CARTESIAN_POINT('',(7.936443479606,8.93492034742E-02));
#508 = CARTESIAN_POINT('',(7.915257972808,8.93492034742E-02));
#509 = ( GEOMETRIC_REPRESENTATION_CONTEXT(2) 
PARAMETRIC_REPRESENTATION_CONTEXT() REPRESENTATION_CONTEXT('2D SPACE',''
  ) );
#510 = ADVANCED_FACE('',(#511),#96,.F.);
#511 = FACE_BOUND('',#512,.F.);
#512 = EDGE_LOOP('',(#513,#514,#515,#516,#545));
#513 = ORIENTED_EDGE('',*,*,#195,.F.);
#514 = ORIENTED_EDGE('',*,*,#68,.T.);
#515 = ORIENTED_EDGE('',*,*,#390,.T.);
#516 = ORIENTED_EDGE('',*,*,#517,.F.);
#517 = EDGE_CURVE('',#518,#391,#520,.T.);
#518 = VERTEX_POINT('',#519);
#519 = CARTESIAN_POINT('',(-29.5,-28.75771604938,-108.1578327717));
#520 = SURFACE_CURVE('',#521,(#527,#536),.PCURVE_S1.);
#521 = B_SPLINE_CURVE_WITH_KNOTS('',4,(#522,#523,#524,#525,#526),
  .UNSPECIFIED.,.F.,.F.,(5,5),(0.,1.),.PIECEWISE_BEZIER_KNOTS.);
#522 = CARTESIAN_POINT('',(-29.5,-28.75771604938,-108.1578327717));
#523 = CARTESIAN_POINT('',(-29.5,-28.30359531102,-109.1267124435));
#524 = CARTESIAN_POINT('',(-29.5,-27.83808384968,-110.0902349937));
#525 = CARTESIAN_POINT('',(-29.5,-27.36106879452,-111.0480990361));
#526 = CARTESIAN_POINT('',(-29.5,-26.87248498923,-112.));
#527 = PCURVE('',#96,#528);
#528 = DEFINITIONAL_REPRESENTATION('',(#529),#535);
#529 = B_SPLINE_CURVE_WITH_KNOTS('',4,(#530,#531,#532,#533,#534),
  .UNSPECIFIED.,.F.,.F.,(5,5),(0.,1.),.PIECEWISE_BEZIER_KNOTS.);
#530 = CARTESIAN_POINT('',(3.842167228203,-113.2422839506));
#531 = CARTESIAN_POINT('',(2.873287556493,-113.6964046889));
#532 = CARTESIAN_POINT('',(1.909765006242,-114.1619161503));
#533 = CARTESIAN_POINT('',(0.951900963828,-114.6389312054));
#534 = CARTESIAN_POINT('',(0.,-115.1275150107));
#535 = ( GEOMETRIC_REPRESENTATION_CONTEXT(2) 
PARAMETRIC_REPRESENTATION_CONTEXT() REPRESENTATION_CONTEXT('2D SPACE',''
  ) );
#536 = PCURVE('',#491,#537);
#537 = DEFINITIONAL_REPRESENTATION('',(#538),#544);
#538 = B_SPLINE_CURVE_WITH_KNOTS('',4,(#539,#540,#541,#542,#543),
  .UNSPECIFIED.,.F.,.F.,(5,5),(0.,1.),.PIECEWISE_BEZIER_KNOTS.);
#539 = CARTESIAN_POINT('',(8.,0.104347656482));
#540 = CARTESIAN_POINT('',(7.980238309292,0.100583424499));
#541 = CARTESIAN_POINT('',(7.959575879849,9.682834397746E-02));
#542 = CARTESIAN_POINT('',(7.937943811008,9.308329279752E-02));
#543 = CARTESIAN_POINT('',(7.915257972808,8.93492034742E-02));
#544 = ( GEOMETRIC_REPRESENTATION_CONTEXT(2) 
PARAMETRIC_REPRESENTATION_CONTEXT() REPRESENTATION_CONTEXT('2D SPACE',''
  ) );
#545 = ORIENTED_EDGE('',*,*,#546,.F.);
#546 = EDGE_CURVE('',#196,#518,#547,.T.);
#547 = SURFACE_CURVE('',#548,(#558,#571),.PCURVE_S1.);
#548 = B_SPLINE_CURVE_WITH_KNOTS('',8,(#549,#550,#551,#552,#553,#554,
    #555,#556,#557),.UNSPECIFIED.,.F.,.F.,(9,9),(0.,1.),
  .PIECEWISE_BEZIER_KNOTS.);
#549 = CARTESIAN_POINT('',(-29.5,-35.21347787231,-62.));
#550 = CARTESIAN_POINT('',(-29.5,-34.80228297298,-67.81806453));
#551 = CARTESIAN_POINT('',(-29.5,-34.30859793737,-73.62903692191));
#552 = CARTESIAN_POINT('',(-29.5,-33.72011153656,-79.43232737082));
#553 = CARTESIAN_POINT('',(-29.5,-33.02234190247,-85.22515996991));
#554 = CARTESIAN_POINT('',(-29.5,-32.19839458772,-91.002540049));
#555 = CARTESIAN_POINT('',(-29.5,-31.22865899865,-96.75721266552));
#556 = CARTESIAN_POINT('',(-29.5,-30.09047606453,-102.4796182083));
#557 = CARTESIAN_POINT('',(-29.5,-28.75771604938,-108.1578327717));
#558 = PCURVE('',#96,#559);
#559 = DEFINITIONAL_REPRESENTATION('',(#560),#570);
#560 = B_SPLINE_CURVE_WITH_KNOTS('',8,(#561,#562,#563,#564,#565,#566,
    #567,#568,#569),.UNSPECIFIED.,.F.,.F.,(9,9),(0.,1.),
  .PIECEWISE_BEZIER_KNOTS.);
#561 = CARTESIAN_POINT('',(50.,-106.7865221276));
#562 = CARTESIAN_POINT('',(44.181935469993,-107.197717027));
#563 = CARTESIAN_POINT('',(38.370963078083,-107.6914020626));
#564 = CARTESIAN_POINT('',(32.567672629171,-108.2798884634));
#565 = CARTESIAN_POINT('',(26.774840030085,-108.9776580975));
#566 = CARTESIAN_POINT('',(20.997459950998,-109.8016054122));
#567 = CARTESIAN_POINT('',(15.242787334479,-110.7713410013));
#568 = CARTESIAN_POINT('',(9.520381791669,-111.9095239354));
#569 = CARTESIAN_POINT('',(3.842167228203,-113.2422839506));
#570 = ( GEOMETRIC_REPRESENTATION_CONTEXT(2) 
PARAMETRIC_REPRESENTATION_CONTEXT() REPRESENTATION_CONTEXT('2D SPACE',''
  ) );
#571 = PCURVE('',#260,#572);
#572 = DEFINITIONAL_REPRESENTATION('',(#573),#583);
#573 = B_SPLINE_CURVE_WITH_KNOTS('',8,(#574,#575,#576,#577,#578,#579,
    #580,#581,#582),.UNSPECIFIED.,.F.,.F.,(9,9),(0.,1.),
  .PIECEWISE_BEZIER_KNOTS.);
#574 = CARTESIAN_POINT('',(8.954691978306E-02,0.276812842676));
#575 = CARTESIAN_POINT('',(8.486477988342E-02,0.255635761636));
#576 = CARTESIAN_POINT('',(7.912085001609E-02,0.23439229136));
#577 = CARTESIAN_POINT('',(7.208688620958E-02,0.213056719781));
#578 = CARTESIAN_POINT('',(6.344048765339E-02,0.191607365983));
#579 = CARTESIAN_POINT('',(5.278101152812E-02,0.170026010076));
#580 = CARTESIAN_POINT('',(3.943382149684E-02,0.148297323631));
#581 = CARTESIAN_POINT('',(2.25196477137E-02,0.126408308064));
#582 = CARTESIAN_POINT('',(0.,0.104347656482));
#583 = ( GEOMETRIC_REPRESENTATION_CONTEXT(2) 
PARAMETRIC_REPRESENTATION_CONTEXT() REPRESENTATION_CONTEXT('2D SPACE',''
  ) );
#584 = ADVANCED_FACE('',(#585),#260,.F.);
#585 = FACE_BOUND('',#586,.F.);
#586 = EDGE_LOOP('',(#587,#610,#611,#634,#635,#636));
#587 = ORIENTED_EDGE('',*,*,#588,.F.);
#588 = EDGE_CURVE('',#445,#518,#589,.T.);
#589 = SURFACE_CURVE('',#590,(#596,#603),.PCURVE_S1.);
#590 = ( BOUNDED_CURVE() B_SPLINE_CURVE(4,(#591,#592,#593,#594,#595),
.UNSPECIFIED.,.F.,.F.) B_SPLINE_CURVE_WITH_KNOTS((5,5),(0.,1.),
.PIECEWISE_BEZIER_KNOTS.) CURVE() GEOMETRIC_REPRESENTATION_ITEM() 
RATIONAL_B_SPLINE_CURVE((1.,1.,1.,1.,1.)) REPRESENTATION_ITEM('') );
#591 = CARTESIAN_POINT('',(-21.168,-20.4,-134.));
#592 = CARTESIAN_POINT('',(-46.66777904233,-45.97848206407,
    -74.89946339855));
#593 = CARTESIAN_POINT('',(-32.53141113837,-31.79848339497,
    4.704294879977));
#594 = CARTESIAN_POINT('',(-43.05218077478,-42.3517245426,
    66.857252864212));
#595 = CARTESIAN_POINT('',(-23.5008,-22.74,134.));
#596 = PCURVE('',#260,#597);
#597 = DEFINITIONAL_REPRESENTATION('',(#598),#602);
#598 = LINE('',#599,#600);
#599 = CARTESIAN_POINT('',(0.,0.));
#600 = VECTOR('',#601,1.);
#601 = DIRECTION('',(0.,1.));
#602 = ( GEOMETRIC_REPRESENTATION_CONTEXT(2) 
PARAMETRIC_REPRESENTATION_CONTEXT() REPRESENTATION_CONTEXT('2D SPACE',''
  ) );
#603 = PCURVE('',#491,#604);
#604 = DEFINITIONAL_REPRESENTATION('',(#605),#609);
#605 = LINE('',#606,#607);
#606 = CARTESIAN_POINT('',(8.,0.));
#607 = VECTOR('',#608,1.);
#608 = DIRECTION('',(0.,1.));
#609 = ( GEOMETRIC_REPRESENTATION_CONTEXT(2) 
PARAMETRIC_REPRESENTATION_CONTEXT() REPRESENTATION_CONTEXT('2D SPACE',''
  ) );
#610 = ORIENTED_EDGE('',*,*,#444,.F.);
#611 = ORIENTED_EDGE('',*,*,#612,.T.);
#612 = EDGE_CURVE('',#416,#309,#613,.T.);
#613 = SURFACE_CURVE('',#614,(#620,#627),.PCURVE_S1.);
#614 = ( BOUNDED_CURVE() B_SPLINE_CURVE(4,(#615,#616,#617,#618,#619),
.UNSPECIFIED.,.F.,.F.) B_SPLINE_CURVE_WITH_KNOTS((5,5),(0.,1.),
.PIECEWISE_BEZIER_KNOTS.) CURVE() GEOMETRIC_REPRESENTATION_ITEM() 
RATIONAL_B_SPLINE_CURVE((1.,1.,1.,1.,1.)) REPRESENTATION_ITEM('') );
#615 = CARTESIAN_POINT('',(21.168,-20.4,-134.));
#616 = CARTESIAN_POINT('',(46.667779042337,-45.97848206407,
    -74.89946339855));
#617 = CARTESIAN_POINT('',(32.531411138377,-31.79848339497,
    4.704294879977));
#618 = CARTESIAN_POINT('',(43.052180774783,-42.3517245426,
    66.857252864212));
#619 = CARTESIAN_POINT('',(23.5008,-22.74,134.));
#620 = PCURVE('',#260,#621);
#621 = DEFINITIONAL_REPRESENTATION('',(#622),#626);
#622 = LINE('',#623,#624);
#623 = CARTESIAN_POINT('',(1.,0.));
#624 = VECTOR('',#625,1.);
#625 = DIRECTION('',(0.,1.));
#626 = ( GEOMETRIC_REPRESENTATION_CONTEXT(2) 
PARAMETRIC_REPRESENTATION_CONTEXT() REPRESENTATION_CONTEXT('2D SPACE',''
  ) );
#627 = PCURVE('',#328,#628);
#628 = DEFINITIONAL_REPRESENTATION('',(#629),#633);
#629 = LINE('',#630,#631);
#630 = CARTESIAN_POINT('',(1.,0.));
#631 = VECTOR('',#632,1.);
#632 = DIRECTION('',(0.,1.));
#633 = ( GEOMETRIC_REPRESENTATION_CONTEXT(2) 
PARAMETRIC_REPRESENTATION_CONTEXT() REPRESENTATION_CONTEXT('2D SPACE',''
  ) );
#634 = ORIENTED_EDGE('',*,*,#348,.T.);
#635 = ORIENTED_EDGE('',*,*,#242,.T.);
#636 = ORIENTED_EDGE('',*,*,#546,.T.);
#637 = ADVANCED_FACE('',(#638),#328,.F.);
#638 = FACE_BOUND('',#639,.F.);
#639 = EDGE_LOOP('',(#640,#641,#642));
#640 = ORIENTED_EDGE('',*,*,#612,.F.);
#641 = ORIENTED_EDGE('',*,*,#415,.F.);
#642 = ORIENTED_EDGE('',*,*,#308,.T.);
#643 = ADVANCED_FACE('',(#644),#491,.F.);
#644 = FACE_BOUND('',#645,.F.);
#645 = EDGE_LOOP('',(#646,#647,#648));
#646 = ORIENTED_EDGE('',*,*,#473,.F.);
#647 = ORIENTED_EDGE('',*,*,#588,.T.);
#648 = ORIENTED_EDGE('',*,*,#517,.T.);
#649 = ( GEOMETRIC_REPRESENTATION_CONTEXT(3) 
GLOBAL_UNCERTAINTY_ASSIGNED_CONTEXT((#653)) GLOBAL_UNIT_ASSIGNED_CONTEXT
((#650,#651,#652)) REPRESENTATION_CONTEXT('Context #1',
  '3D Context with UNIT and UNCERTAINTY') );
#650 = ( LENGTH_UNIT() NAMED_UNIT(*) SI_UNIT(.MILLI.,.METRE.) );
#651 = ( NAMED_UNIT(*) PLANE_ANGLE_UNIT() SI_UNIT($,.RADIAN.) );
#652 = ( NAMED_UNIT(*) SI_UNIT($,.STERADIAN.) SOLID_ANGLE_UNIT() );
#653 = UNCERTAINTY_MEASURE_WITH_UNIT(LENGTH_MEASURE(5.E-06),#650,
  'distance_accuracy_value','confusion accuracy');
#654 = PRODUCT_RELATED_PRODUCT_CATEGORY('part',$,(#7));
ENDSEC;
END-ISO-10303-21;
