ISO-10303-21;
HEADER;
FILE_DESCRIPTION(('Open CASCADE Model'),'2;1');
FILE_NAME('Open CASCADE Shape Model','2026-09-05T05:20:56',('Author'),(
    'Open CASCADE'),'Open CASCADE STEP processor 7.8','Open CASCADE 7.8'
  ,'Unknown');
FILE_SCHEMA(('AUTOMOTIVE_DESIGN { 1 0 10303 214 1 1 1 1 }'));
ENDSEC;
DATA;
#1 = APPLICATION_PROTOCOL_DEFINITION('international standard',
  'automotive_design',2000,#2);
#2 = APPLICATION_CONTEXT(
  'core data for automotive mechanical design processes');
#3 = SHAPE_DEFINITION_REPRESENTATION(#4,#10);
#4 = PRODUCT_DEFINITION_SHAPE('','',#5);
#5 = PRODUCT_DEFINITION('design','',#6,#9);
#6 = PRODUCT_DEFINITION_FORMATION('','',#7);
#7 = PRODUCT('Open CASCADE STEP translator 7.8 73',
  'Open CASCADE STEP translator 7.8 73','',(#8));
#8 = PRODUCT_CONTEXT('',#2,'mechanical');
#9 = PRODUCT_DEFINITION_CONTEXT('part definition',#2,'design');
#10 = ADVANCED_BREP_SHAPE_REPRESENTATION('',(#11,#15),#1489);
#11 = AXIS2_PLACEMENT_3D('',#12,#13,#14);
#12 = CARTESIAN_POINT('',(0.,0.,0.));
#13 = DIRECTION('',(0.,0.,1.));
#14 = DIRECTION('',(1.,0.,-0.));
#15 = MANIFOLD_SOLID_BREP('',#16);
#16 = CLOSED_SHELL('',(#17,#155,#475,#524,#737,#766,#916,#1066,#1095,
    #1124,#1153,#1182,#1332,#1482));
#17 = ADVANCED_FACE('',(#18),#31,.T.);
#18 = FACE_BOUND('',#19,.T.);
#19 = EDGE_LOOP('',(#20,#59,#95,#121));
#20 = ORIENTED_EDGE('',*,*,#21,.T.);
#21 = EDGE_CURVE('',#22,#24,#26,.T.);
#22 = VERTEX_POINT('',#23);
#23 = CARTESIAN_POINT('',(-21.384,-21.6,-110.5));
#24 = VERTEX_POINT('',#25);
#25 = CARTESIAN_POINT('',(21.384,-21.6,-110.5));
#26 = SURFACE_CURVE('',#27,(#30,#48),.PCURVE_S1.);
#27 = B_SPLINE_CURVE_WITH_KNOTS('',1,(#28,#29),.UNSPECIFIED.,.F.,.F.,(2,
    2),(0.,1.),.PIECEWISE_BEZIER_KNOTS.);
#28 = CARTESIAN_POINT('',(-21.384,-21.6,-110.5));
#29 = CARTESIAN_POINT('',(21.384,-21.6,-110.5));
#30 = PCURVE('',#31,#42);
#31 = ( BOUNDED_SURFACE() B_SPLINE_SURFACE(1,4,(
    (#32,#33,#34,#35,#36)
    ,(#37,#38,#39,#40,#41
)),.UNSPECIFIED.,.F.,.F.,.F.) B_SPLINE_SURFACE_WITH_KNOTS((2,2),(5,5),(
    0.,1.),(0.,1.),.PIECEWISE_BEZIER_KNOTS.) 
GEOMETRIC_REPRESENTATION_ITEM() RATIONAL_B_SPLINE_SURFACE((
    (1.,1.,1.,1.,1.)
,(1.,1.,1.,1.,1.))) REPRESENTATION_ITEM('') SURFACE() );
#32 = CARTESIAN_POINT('',(-21.384,-21.6,-110.5));
#33 = CARTESIAN_POINT('',(-44.34131405584,-44.78920611701,
    -63.10827354218));
#34 = CARTESIAN_POINT('',(-32.40436531419,-32.73168213554,4.510285114237
    ));
#35 = CARTESIAN_POINT('',(-41.16234352556,-41.5781247733,55.23242183461)
  );
#36 = CARTESIAN_POINT('',(-23.5224,-23.76,110.5));
#37 = CARTESIAN_POINT('',(21.384,-21.6,-110.5));
#38 = CARTESIAN_POINT('',(44.341314055848,-44.78920611701,
    -63.10827354218));
#39 = CARTESIAN_POINT('',(32.404365314191,-32.73168213554,4.510285114237
    ));
#40 = CARTESIAN_POINT('',(41.162343525569,-41.5781247733,55.23242183461)
  );
#41 = CARTESIAN_POINT('',(23.5224,-23.76,110.5));
#42 = DEFINITIONAL_REPRESENTATION('',(#43),#47);
#43 = LINE('',#44,#45);
#44 = CARTESIAN_POINT('',(0.,0.));
#45 = VECTOR('',#46,1.);
#46 = DIRECTION('',(1.,0.));
#47 = ( GEOMETRIC_REPRESENTATION_CONTEXT(2) 
PARAMETRIC_REPRESENTATION_CONTEXT() REPRESENTATION_CONTEXT('2D SPACE',''
  ) );
#48 = PCURVE('',#49,#54);
#49 = PLANE('',#50);
#50 = AXIS2_PLACEMENT_3D('',#51,#52,#53);
#51 = CARTESIAN_POINT('',(-21.384,-21.6,-110.5));
#52 = DIRECTION('',(0.,0.,1.));
#53 = DIRECTION('',(0.82582081333,0.563932606143,-0.));
#54 = DEFINITIONAL_REPRESENTATION('',(#55),#58);
#55 = B_SPLINE_CURVE_WITH_KNOTS('',1,(#56,#57),.UNSPECIFIED.,.F.,.F.,(2,
    2),(0.,1.),.PIECEWISE_BEZIER_KNOTS.);
#56 = CARTESIAN_POINT('',(0.,0.));
#57 = CARTESIAN_POINT('',(35.318704544495,-24.11826969951));
#58 = ( GEOMETRIC_REPRESENTATION_CONTEXT(2) 
PARAMETRIC_REPRESENTATION_CONTEXT() REPRESENTATION_CONTEXT('2D SPACE',''
  ) );
#59 = ORIENTED_EDGE('',*,*,#60,.T.);
#60 = EDGE_CURVE('',#24,#61,#63,.T.);
#61 = VERTEX_POINT('',#62);
#62 = CARTESIAN_POINT('',(23.5224,-23.76,110.5));
#63 = SURFACE_CURVE('',#64,(#70,#77),.PCURVE_S1.);
#64 = ( BOUNDED_CURVE() B_SPLINE_CURVE(4,(#65,#66,#67,#68,#69),
.UNSPECIFIED.,.F.,.F.) B_SPLINE_CURVE_WITH_KNOTS((5,5),(0.,1.),
.PIECEWISE_BEZIER_KNOTS.) CURVE() GEOMETRIC_REPRESENTATION_ITEM() 
RATIONAL_B_SPLINE_CURVE((1.,1.,1.,1.,1.)) REPRESENTATION_ITEM('') );
#65 = CARTESIAN_POINT('',(21.384,-21.6,-110.5));
#66 = CARTESIAN_POINT('',(44.341314055848,-44.78920611701,
    -63.10827354218));
#67 = CARTESIAN_POINT('',(32.404365314191,-32.73168213554,4.510285114237
    ));
#68 = CARTESIAN_POINT('',(41.162343525569,-41.5781247733,55.23242183461)
  );
#69 = CARTESIAN_POINT('',(23.5224,-23.76,110.5));
#70 = PCURVE('',#31,#71);
#71 = DEFINITIONAL_REPRESENTATION('',(#72),#76);
#72 = LINE('',#73,#74);
#73 = CARTESIAN_POINT('',(1.,0.));
#74 = VECTOR('',#75,1.);
#75 = DIRECTION('',(0.,1.));
#76 = ( GEOMETRIC_REPRESENTATION_CONTEXT(2) 
PARAMETRIC_REPRESENTATION_CONTEXT() REPRESENTATION_CONTEXT('2D SPACE',''
  ) );
#77 = PCURVE('',#78,#89);
#78 = ( BOUNDED_SURFACE() B_SPLINE_SURFACE(1,4,(
    (#79,#80,#81,#82,#83)
    ,(#84,#85,#86,#87,#88
)),.UNSPECIFIED.,.F.,.F.,.F.) B_SPLINE_SURFACE_WITH_KNOTS((2,2),(5,5),(
    1.,2.),(0.,1.),.PIECEWISE_BEZIER_KNOTS.) 
GEOMETRIC_REPRESENTATION_ITEM() RATIONAL_B_SPLINE_SURFACE((
    (1.,1.,1.,1.,1.)
,(1.,1.,1.,1.,1.))) REPRESENTATION_ITEM('') SURFACE() );
#79 = CARTESIAN_POINT('',(21.384,-21.6,-110.5));
#80 = CARTESIAN_POINT('',(44.341314055848,-44.78920611701,
    -63.10827354218));
#81 = CARTESIAN_POINT('',(32.404365314191,-32.73168213554,4.510285114237
    ));
#82 = CARTESIAN_POINT('',(41.162343525569,-41.5781247733,55.23242183461)
  );
#83 = CARTESIAN_POINT('',(23.5224,-23.76,110.5));
#84 = CARTESIAN_POINT('',(29.7,-13.284,-110.5));
#85 = CARTESIAN_POINT('',(61.5851584109,-27.54536176196,-63.10827354218)
  );
#86 = CARTESIAN_POINT('',(45.006062936376,-20.12998451336,4.510285114237
    ));
#87 = CARTESIAN_POINT('',(57.16992156329,-25.57054673558,55.23242183461)
  );
#88 = CARTESIAN_POINT('',(32.67,-14.6124,110.5));
#89 = DEFINITIONAL_REPRESENTATION('',(#90),#94);
#90 = LINE('',#91,#92);
#91 = CARTESIAN_POINT('',(1.,0.));
#92 = VECTOR('',#93,1.);
#93 = DIRECTION('',(0.,1.));
#94 = ( GEOMETRIC_REPRESENTATION_CONTEXT(2) 
PARAMETRIC_REPRESENTATION_CONTEXT() REPRESENTATION_CONTEXT('2D SPACE',''
  ) );
#95 = ORIENTED_EDGE('',*,*,#96,.F.);
#96 = EDGE_CURVE('',#97,#61,#99,.T.);
#97 = VERTEX_POINT('',#98);
#98 = CARTESIAN_POINT('',(-23.5224,-23.76,110.5));
#99 = SURFACE_CURVE('',#100,(#103,#110),.PCURVE_S1.);
#100 = B_SPLINE_CURVE_WITH_KNOTS('',1,(#101,#102),.UNSPECIFIED.,.F.,.F.,
  (2,2),(0.,1.),.PIECEWISE_BEZIER_KNOTS.);
#101 = CARTESIAN_POINT('',(-23.5224,-23.76,110.5));
#102 = CARTESIAN_POINT('',(23.5224,-23.76,110.5));
#103 = PCURVE('',#31,#104);
#104 = DEFINITIONAL_REPRESENTATION('',(#105),#109);
#105 = LINE('',#106,#107);
#106 = CARTESIAN_POINT('',(0.,1.));
#107 = VECTOR('',#108,1.);
#108 = DIRECTION('',(1.,0.));
#109 = ( GEOMETRIC_REPRESENTATION_CONTEXT(2) 
PARAMETRIC_REPRESENTATION_CONTEXT() REPRESENTATION_CONTEXT('2D SPACE',''
  ) );
#110 = PCURVE('',#111,#116);
#111 = PLANE('',#112);
#112 = AXIS2_PLACEMENT_3D('',#113,#114,#115);
#113 = CARTESIAN_POINT('',(-23.5224,-23.76,110.5));
#114 = DIRECTION('',(0.,0.,1.));
#115 = DIRECTION('',(0.82582081333,0.563932606143,-0.));
#116 = DEFINITIONAL_REPRESENTATION('',(#117),#120);
#117 = B_SPLINE_CURVE_WITH_KNOTS('',1,(#118,#119),.UNSPECIFIED.,.F.,.F.,
  (2,2),(0.,1.),.PIECEWISE_BEZIER_KNOTS.);
#118 = CARTESIAN_POINT('',(0.,0.));
#119 = CARTESIAN_POINT('',(38.850574998944,-26.53009666946));
#120 = ( GEOMETRIC_REPRESENTATION_CONTEXT(2) 
PARAMETRIC_REPRESENTATION_CONTEXT() REPRESENTATION_CONTEXT('2D SPACE',''
  ) );
#121 = ORIENTED_EDGE('',*,*,#122,.F.);
#122 = EDGE_CURVE('',#22,#97,#123,.T.);
#123 = SURFACE_CURVE('',#124,(#130,#137),.PCURVE_S1.);
#124 = ( BOUNDED_CURVE() B_SPLINE_CURVE(4,(#125,#126,#127,#128,#129),
.UNSPECIFIED.,.F.,.F.) B_SPLINE_CURVE_WITH_KNOTS((5,5),(0.,1.),
.PIECEWISE_BEZIER_KNOTS.) CURVE() GEOMETRIC_REPRESENTATION_ITEM() 
RATIONAL_B_SPLINE_CURVE((1.,1.,1.,1.,1.)) REPRESENTATION_ITEM('') );
#125 = CARTESIAN_POINT('',(-21.384,-21.6,-110.5));
#126 = CARTESIAN_POINT('',(-44.34131405584,-44.78920611701,
    -63.10827354218));
#127 = CARTESIAN_POINT('',(-32.40436531419,-32.73168213554,
    4.510285114237));
#128 = CARTESIAN_POINT('',(-41.16234352556,-41.5781247733,55.23242183461
    ));
#129 = CARTESIAN_POINT('',(-23.5224,-23.76,110.5));
#130 = PCURVE('',#31,#131);
#131 = DEFINITIONAL_REPRESENTATION('',(#132),#136);
#132 = LINE('',#133,#134);
#133 = CARTESIAN_POINT('',(0.,0.));
#134 = VECTOR('',#135,1.);
#135 = DIRECTION('',(0.,1.));
#136 = ( GEOMETRIC_REPRESENTATION_CONTEXT(2) 
PARAMETRIC_REPRESENTATION_CONTEXT() REPRESENTATION_CONTEXT('2D SPACE',''
  ) );
#137 = PCURVE('',#138,#149);
#138 = ( BOUNDED_SURFACE() B_SPLINE_SURFACE(1,4,(
    (#139,#140,#141,#142,#143)
    ,(#144,#145,#146,#147,#148
)),.UNSPECIFIED.,.F.,.F.,.F.) B_SPLINE_SURFACE_WITH_KNOTS((2,2),(5,5),(
    7.,8.),(0.,1.),.PIECEWISE_BEZIER_KNOTS.) 
GEOMETRIC_REPRESENTATION_ITEM() RATIONAL_B_SPLINE_SURFACE((
    (1.,1.,1.,1.,1.)
,(1.,1.,1.,1.,1.))) REPRESENTATION_ITEM('') SURFACE() );
#139 = CARTESIAN_POINT('',(-29.7,-13.284,-110.5));
#140 = CARTESIAN_POINT('',(-61.5851584109,-27.54536176196,
    -63.10827354218));
#141 = CARTESIAN_POINT('',(-45.00606293637,-20.12998451336,
    4.510285114237));
#142 = CARTESIAN_POINT('',(-57.16992156329,-25.57054673558,
    55.23242183461));
#143 = CARTESIAN_POINT('',(-32.67,-14.6124,110.5));
#144 = CARTESIAN_POINT('',(-21.384,-21.6,-110.5));
#145 = CARTESIAN_POINT('',(-44.34131405584,-44.78920611701,
    -63.10827354218));
#146 = CARTESIAN_POINT('',(-32.40436531419,-32.73168213554,
    4.510285114237));
#147 = CARTESIAN_POINT('',(-41.16234352556,-41.5781247733,55.23242183461
    ));
#148 = CARTESIAN_POINT('',(-23.5224,-23.76,110.5));
#149 = DEFINITIONAL_REPRESENTATION('',(#150),#154);
#150 = LINE('',#151,#152);
#151 = CARTESIAN_POINT('',(8.,0.));
#152 = VECTOR('',#153,1.);
#153 = DIRECTION('',(0.,1.));
#154 = ( GEOMETRIC_REPRESENTATION_CONTEXT(2) 
PARAMETRIC_REPRESENTATION_CONTEXT() REPRESENTATION_CONTEXT('2D SPACE',''
  ) );
#155 = ADVANCED_FACE('',(#156),#49,.F.);
#156 = FACE_BOUND('',#157,.F.);
#157 = EDGE_LOOP('',(#158,#179,#180,#201,#233,#259,#291,#323,#355,#387,
    #419,#445));
#158 = ORIENTED_EDGE('',*,*,#159,.T.);
#159 = EDGE_CURVE('',#160,#22,#162,.T.);
#160 = VERTEX_POINT('',#161);
#161 = CARTESIAN_POINT('',(-29.7,-13.284,-110.5));
#162 = SURFACE_CURVE('',#163,(#166,#172),.PCURVE_S1.);
#163 = B_SPLINE_CURVE_WITH_KNOTS('',1,(#164,#165),.UNSPECIFIED.,.F.,.F.,
  (2,2),(7.,8.),.PIECEWISE_BEZIER_KNOTS.);
#164 = CARTESIAN_POINT('',(-29.7,-13.284,-110.5));
#165 = CARTESIAN_POINT('',(-21.384,-21.6,-110.5));
#166 = PCURVE('',#49,#167);
#167 = DEFINITIONAL_REPRESENTATION('',(#168),#171);
#168 = B_SPLINE_CURVE_WITH_KNOTS('',1,(#169,#170),.UNSPECIFIED.,.F.,.F.,
  (2,2),(7.,8.),.PIECEWISE_BEZIER_KNOTS.);
#169 = CARTESIAN_POINT('',(-2.177862330968,11.557189436336));
#170 = CARTESIAN_POINT('',(0.,0.));
#171 = ( GEOMETRIC_REPRESENTATION_CONTEXT(2) 
PARAMETRIC_REPRESENTATION_CONTEXT() REPRESENTATION_CONTEXT('2D SPACE',''
  ) );
#172 = PCURVE('',#138,#173);
#173 = DEFINITIONAL_REPRESENTATION('',(#174),#178);
#174 = LINE('',#175,#176);
#175 = CARTESIAN_POINT('',(0.,0.));
#176 = VECTOR('',#177,1.);
#177 = DIRECTION('',(1.,0.));
#178 = ( GEOMETRIC_REPRESENTATION_CONTEXT(2) 
PARAMETRIC_REPRESENTATION_CONTEXT() REPRESENTATION_CONTEXT('2D SPACE',''
  ) );
#179 = ORIENTED_EDGE('',*,*,#21,.T.);
#180 = ORIENTED_EDGE('',*,*,#181,.T.);
#181 = EDGE_CURVE('',#24,#182,#184,.T.);
#182 = VERTEX_POINT('',#183);
#183 = CARTESIAN_POINT('',(29.7,-13.284,-110.5));
#184 = SURFACE_CURVE('',#185,(#188,#194),.PCURVE_S1.);
#185 = B_SPLINE_CURVE_WITH_KNOTS('',1,(#186,#187),.UNSPECIFIED.,.F.,.F.,
  (2,2),(1.,2.),.PIECEWISE_BEZIER_KNOTS.);
#186 = CARTESIAN_POINT('',(21.384,-21.6,-110.5));
#187 = CARTESIAN_POINT('',(29.7,-13.284,-110.5));
#188 = PCURVE('',#49,#189);
#189 = DEFINITIONAL_REPRESENTATION('',(#190),#193);
#190 = B_SPLINE_CURVE_WITH_KNOTS('',1,(#191,#192),.UNSPECIFIED.,.F.,.F.,
  (2,2),(1.,2.),.PIECEWISE_BEZIER_KNOTS.);
#191 = CARTESIAN_POINT('',(35.318704544495,-24.11826969951));
#192 = CARTESIAN_POINT('',(46.875893980831,-21.94040736855));
#193 = ( GEOMETRIC_REPRESENTATION_CONTEXT(2) 
PARAMETRIC_REPRESENTATION_CONTEXT() REPRESENTATION_CONTEXT('2D SPACE',''
  ) );
#194 = PCURVE('',#78,#195);
#195 = DEFINITIONAL_REPRESENTATION('',(#196),#200);
#196 = LINE('',#197,#198);
#197 = CARTESIAN_POINT('',(0.,0.));
#198 = VECTOR('',#199,1.);
#199 = DIRECTION('',(1.,0.));
#200 = ( GEOMETRIC_REPRESENTATION_CONTEXT(2) 
PARAMETRIC_REPRESENTATION_CONTEXT() REPRESENTATION_CONTEXT('2D SPACE',''
  ) );
#201 = ORIENTED_EDGE('',*,*,#202,.T.);
#202 = EDGE_CURVE('',#182,#203,#205,.T.);
#203 = VERTEX_POINT('',#204);
#204 = CARTESIAN_POINT('',(29.7,0.,-110.5));
#205 = SURFACE_CURVE('',#206,(#209,#215),.PCURVE_S1.);
#206 = B_SPLINE_CURVE_WITH_KNOTS('',1,(#207,#208),.UNSPECIFIED.,.F.,.F.,
  (2,2),(2.,3.),.PIECEWISE_BEZIER_KNOTS.);
#207 = CARTESIAN_POINT('',(29.7,-13.284,-110.5));
#208 = CARTESIAN_POINT('',(29.7,13.284,-110.5));
#209 = PCURVE('',#49,#210);
#210 = DEFINITIONAL_REPRESENTATION('',(#211),#214);
#211 = B_SPLINE_CURVE_WITH_KNOTS('',1,(#212,#213),.UNSPECIFIED.,.F.,.F.,
  (2,2),(2.,3.),.PIECEWISE_BEZIER_KNOTS.);
#212 = CARTESIAN_POINT('',(46.875893980831,-21.94040736855));
#213 = CARTESIAN_POINT('',(61.858455460834,3.552713678801E-15));
#214 = ( GEOMETRIC_REPRESENTATION_CONTEXT(2) 
PARAMETRIC_REPRESENTATION_CONTEXT() REPRESENTATION_CONTEXT('2D SPACE',''
  ) );
#215 = PCURVE('',#216,#227);
#216 = ( BOUNDED_SURFACE() B_SPLINE_SURFACE(1,4,(
    (#217,#218,#219,#220,#221)
    ,(#222,#223,#224,#225,#226
)),.UNSPECIFIED.,.F.,.F.,.F.) B_SPLINE_SURFACE_WITH_KNOTS((2,2),(5,5),(
    2.,3.),(0.,1.),.PIECEWISE_BEZIER_KNOTS.) 
GEOMETRIC_REPRESENTATION_ITEM() RATIONAL_B_SPLINE_SURFACE((
    (1.,1.,1.,1.,1.)
,(1.,1.,1.,1.,1.))) REPRESENTATION_ITEM('') SURFACE() );
#217 = CARTESIAN_POINT('',(29.7,-13.284,-110.5));
#218 = CARTESIAN_POINT('',(61.5851584109,-27.54536176196,-63.10827354218
    ));
#219 = CARTESIAN_POINT('',(45.006062936376,-20.12998451336,
    4.510285114237));
#220 = CARTESIAN_POINT('',(57.16992156329,-25.57054673558,55.23242183461
    ));
#221 = CARTESIAN_POINT('',(32.67,-14.6124,110.5));
#222 = CARTESIAN_POINT('',(29.7,13.284,-110.5));
#223 = CARTESIAN_POINT('',(61.5851584109,27.545361761966,-63.10827354218
    ));
#224 = CARTESIAN_POINT('',(45.006062936376,20.129984513361,
    4.510285114237));
#225 = CARTESIAN_POINT('',(57.16992156329,25.570546735581,55.23242183461
    ));
#226 = CARTESIAN_POINT('',(32.67,14.6124,110.5));
#227 = DEFINITIONAL_REPRESENTATION('',(#228),#232);
#228 = LINE('',#229,#230);
#229 = CARTESIAN_POINT('',(0.,0.));
#230 = VECTOR('',#231,1.);
#231 = DIRECTION('',(1.,0.));
#232 = ( GEOMETRIC_REPRESENTATION_CONTEXT(2) 
PARAMETRIC_REPRESENTATION_CONTEXT() REPRESENTATION_CONTEXT('2D SPACE',''
  ) );
#233 = ORIENTED_EDGE('',*,*,#234,.T.);
#234 = EDGE_CURVE('',#203,#235,#237,.T.);
#235 = VERTEX_POINT('',#236);
#236 = CARTESIAN_POINT('',(26.7,0.,-110.5));
#237 = SURFACE_CURVE('',#238,(#242,#248),.PCURVE_S1.);
#238 = LINE('',#239,#240);
#239 = CARTESIAN_POINT('',(-60.192,0.,-110.5));
#240 = VECTOR('',#241,1.);
#241 = DIRECTION('',(-1.,0.,0.));
#242 = PCURVE('',#49,#243);
#243 = DEFINITIONAL_REPRESENTATION('',(#244),#247);
#244 = B_SPLINE_CURVE_WITH_KNOTS('',1,(#245,#246),.UNSPECIFIED.,.F.,.F.,
  (2,2),(-98.96331501057,-21.42068498942),.PIECEWISE_BEZIER_KNOTS.);
#245 = CARTESIAN_POINT('',(61.858455460834,-16.08581399932));
#246 = CARTESIAN_POINT('',(-2.177862330968,27.643003435665));
#247 = ( GEOMETRIC_REPRESENTATION_CONTEXT(2) 
PARAMETRIC_REPRESENTATION_CONTEXT() REPRESENTATION_CONTEXT('2D SPACE',''
  ) );
#248 = PCURVE('',#249,#254);
#249 = PLANE('',#250);
#250 = AXIS2_PLACEMENT_3D('',#251,#252,#253);
#251 = CARTESIAN_POINT('',(-99.,0.,-132.6));
#252 = DIRECTION('',(0.,1.,0.));
#253 = DIRECTION('',(0.,0.,1.));
#254 = DEFINITIONAL_REPRESENTATION('',(#255),#258);
#255 = B_SPLINE_CURVE_WITH_KNOTS('',1,(#256,#257),.UNSPECIFIED.,.F.,.F.,
  (2,2),(-98.96331501057,-21.42068498942),.PIECEWISE_BEZIER_KNOTS.);
#256 = CARTESIAN_POINT('',(22.1,137.77131501057));
#257 = CARTESIAN_POINT('',(22.1,60.228684989429));
#258 = ( GEOMETRIC_REPRESENTATION_CONTEXT(2) 
PARAMETRIC_REPRESENTATION_CONTEXT() REPRESENTATION_CONTEXT('2D SPACE',''
  ) );
#259 = ORIENTED_EDGE('',*,*,#260,.F.);
#260 = EDGE_CURVE('',#261,#235,#263,.T.);
#261 = VERTEX_POINT('',#262);
#262 = CARTESIAN_POINT('',(26.7,-11.124,-110.5));
#263 = SURFACE_CURVE('',#264,(#267,#273),.PCURVE_S1.);
#264 = B_SPLINE_CURVE_WITH_KNOTS('',1,(#265,#266),.UNSPECIFIED.,.F.,.F.,
  (2,2),(2.,3.),.PIECEWISE_BEZIER_KNOTS.);
#265 = CARTESIAN_POINT('',(26.7,-11.124,-110.5));
#266 = CARTESIAN_POINT('',(26.7,11.124,-110.5));
#267 = PCURVE('',#49,#268);
#268 = DEFINITIONAL_REPRESENTATION('',(#269),#272);
#269 = B_SPLINE_CURVE_WITH_KNOTS('',1,(#270,#271),.UNSPECIFIED.,.F.,.F.,
  (2,2),(2.,3.),.PIECEWISE_BEZIER_KNOTS.);
#270 = CARTESIAN_POINT('',(45.616525970109,-18.46483659332));
#271 = CARTESIAN_POINT('',(58.162898591576,-9.19751383641E-02));
#272 = ( GEOMETRIC_REPRESENTATION_CONTEXT(2) 
PARAMETRIC_REPRESENTATION_CONTEXT() REPRESENTATION_CONTEXT('2D SPACE',''
  ) );
#273 = PCURVE('',#274,#285);
#274 = ( BOUNDED_SURFACE() B_SPLINE_SURFACE(1,4,(
    (#275,#276,#277,#278,#279)
    ,(#280,#281,#282,#283,#284
)),.UNSPECIFIED.,.F.,.F.,.F.) B_SPLINE_SURFACE_WITH_KNOTS((2,2),(5,5),(
    2.,3.),(0.,1.),.PIECEWISE_BEZIER_KNOTS.) 
GEOMETRIC_REPRESENTATION_ITEM() RATIONAL_B_SPLINE_SURFACE((
    (1.,1.,1.,1.,1.)
,(1.,1.,1.,1.,1.))) REPRESENTATION_ITEM('') SURFACE() );
#275 = CARTESIAN_POINT('',(26.7,-11.124,-110.5));
#276 = CARTESIAN_POINT('',(58.5851584109,-25.38536176196,-63.10827354218
    ));
#277 = CARTESIAN_POINT('',(42.006062936376,-17.96998451336,
    4.510285114236));
#278 = CARTESIAN_POINT('',(54.16992156329,-23.41054673558,55.23242183461
    ));
#279 = CARTESIAN_POINT('',(29.67,-12.4524,110.5));
#280 = CARTESIAN_POINT('',(26.7,11.124,-110.5));
#281 = CARTESIAN_POINT('',(58.5851584109,25.385361761966,-63.10827354218
    ));
#282 = CARTESIAN_POINT('',(42.006062936376,17.969984513361,
    4.510285114236));
#283 = CARTESIAN_POINT('',(54.16992156329,23.410546735581,55.23242183461
    ));
#284 = CARTESIAN_POINT('',(29.67,12.4524,110.5));
#285 = DEFINITIONAL_REPRESENTATION('',(#286),#290);
#286 = LINE('',#287,#288);
#287 = CARTESIAN_POINT('',(0.,0.));
#288 = VECTOR('',#289,1.);
#289 = DIRECTION('',(1.,0.));
#290 = ( GEOMETRIC_REPRESENTATION_CONTEXT(2) 
PARAMETRIC_REPRESENTATION_CONTEXT() REPRESENTATION_CONTEXT('2D SPACE',''
  ) );
#291 = ORIENTED_EDGE('',*,*,#292,.F.);
#292 = EDGE_CURVE('',#293,#261,#295,.T.);
#293 = VERTEX_POINT('',#294);
#294 = CARTESIAN_POINT('',(19.224,-18.6,-110.5));
#295 = SURFACE_CURVE('',#296,(#299,#305),.PCURVE_S1.);
#296 = B_SPLINE_CURVE_WITH_KNOTS('',1,(#297,#298),.UNSPECIFIED.,.F.,.F.,
  (2,2),(1.,2.),.PIECEWISE_BEZIER_KNOTS.);
#297 = CARTESIAN_POINT('',(19.224,-18.6,-110.5));
#298 = CARTESIAN_POINT('',(26.7,-11.124,-110.5));
#299 = PCURVE('',#49,#300);
#300 = DEFINITIONAL_REPRESENTATION('',(#301),#304);
#301 = B_SPLINE_CURVE_WITH_KNOTS('',1,(#302,#303),.UNSPECIFIED.,.F.,.F.,
  (2,2),(1.,2.),.PIECEWISE_BEZIER_KNOTS.);
#302 = CARTESIAN_POINT('',(35.226729406131,-20.42271283025));
#303 = CARTESIAN_POINT('',(45.616525970109,-18.46483659332));
#304 = ( GEOMETRIC_REPRESENTATION_CONTEXT(2) 
PARAMETRIC_REPRESENTATION_CONTEXT() REPRESENTATION_CONTEXT('2D SPACE',''
  ) );
#305 = PCURVE('',#306,#317);
#306 = ( BOUNDED_SURFACE() B_SPLINE_SURFACE(1,4,(
    (#307,#308,#309,#310,#311)
    ,(#312,#313,#314,#315,#316
)),.UNSPECIFIED.,.F.,.F.,.F.) B_SPLINE_SURFACE_WITH_KNOTS((2,2),(5,5),(
    1.,2.),(0.,1.),.PIECEWISE_BEZIER_KNOTS.) 
GEOMETRIC_REPRESENTATION_ITEM() RATIONAL_B_SPLINE_SURFACE((
    (1.,1.,1.,1.,1.)
,(1.,1.,1.,1.,1.))) REPRESENTATION_ITEM('') SURFACE() );
#307 = CARTESIAN_POINT('',(19.224,-18.6,-110.5));
#308 = CARTESIAN_POINT('',(42.181314055848,-41.78920611701,
    -63.10827354218));
#309 = CARTESIAN_POINT('',(30.244365314191,-29.73168213554,
    4.510285114236));
#310 = CARTESIAN_POINT('',(39.002343525569,-38.5781247733,55.23242183461
    ));
#311 = CARTESIAN_POINT('',(21.3624,-20.76,110.5));
#312 = CARTESIAN_POINT('',(26.7,-11.124,-110.5));
#313 = CARTESIAN_POINT('',(58.5851584109,-25.38536176196,-63.10827354218
    ));
#314 = CARTESIAN_POINT('',(42.006062936376,-17.96998451336,
    4.510285114236));
#315 = CARTESIAN_POINT('',(54.16992156329,-23.41054673558,55.23242183461
    ));
#316 = CARTESIAN_POINT('',(29.67,-12.4524,110.5));
#317 = DEFINITIONAL_REPRESENTATION('',(#318),#322);
#318 = LINE('',#319,#320);
#319 = CARTESIAN_POINT('',(0.,0.));
#320 = VECTOR('',#321,1.);
#321 = DIRECTION('',(1.,0.));
#322 = ( GEOMETRIC_REPRESENTATION_CONTEXT(2) 
PARAMETRIC_REPRESENTATION_CONTEXT() REPRESENTATION_CONTEXT('2D SPACE',''
  ) );
#323 = ORIENTED_EDGE('',*,*,#324,.F.);
#324 = EDGE_CURVE('',#325,#293,#327,.T.);
#325 = VERTEX_POINT('',#326);
#326 = CARTESIAN_POINT('',(-19.224,-18.6,-110.5));
#327 = SURFACE_CURVE('',#328,(#331,#337),.PCURVE_S1.);
#328 = B_SPLINE_CURVE_WITH_KNOTS('',1,(#329,#330),.UNSPECIFIED.,.F.,.F.,
  (2,2),(0.,1.),.PIECEWISE_BEZIER_KNOTS.);
#329 = CARTESIAN_POINT('',(-19.224,-18.6,-110.5));
#330 = CARTESIAN_POINT('',(19.224,-18.6,-110.5));
#331 = PCURVE('',#49,#332);
#332 = DEFINITIONAL_REPRESENTATION('',(#333),#336);
#333 = B_SPLINE_CURVE_WITH_KNOTS('',1,(#334,#335),.UNSPECIFIED.,.F.,.F.,
  (2,2),(0.,1.),.PIECEWISE_BEZIER_KNOTS.);
#334 = CARTESIAN_POINT('',(3.475570775221,1.259368010721));
#335 = CARTESIAN_POINT('',(35.226729406131,-20.42271283025));
#336 = ( GEOMETRIC_REPRESENTATION_CONTEXT(2) 
PARAMETRIC_REPRESENTATION_CONTEXT() REPRESENTATION_CONTEXT('2D SPACE',''
  ) );
#337 = PCURVE('',#338,#349);
#338 = ( BOUNDED_SURFACE() B_SPLINE_SURFACE(1,4,(
    (#339,#340,#341,#342,#343)
    ,(#344,#345,#346,#347,#348
)),.UNSPECIFIED.,.F.,.F.,.F.) B_SPLINE_SURFACE_WITH_KNOTS((2,2),(5,5),(
    0.,1.),(0.,1.),.PIECEWISE_BEZIER_KNOTS.) 
GEOMETRIC_REPRESENTATION_ITEM() RATIONAL_B_SPLINE_SURFACE((
    (1.,1.,1.,1.,1.)
,(1.,1.,1.,1.,1.))) REPRESENTATION_ITEM('') SURFACE() );
#339 = CARTESIAN_POINT('',(-19.224,-18.6,-110.5));
#340 = CARTESIAN_POINT('',(-42.18131405584,-41.78920611701,
    -63.10827354218));
#341 = CARTESIAN_POINT('',(-30.24436531419,-29.73168213554,
    4.510285114236));
#342 = CARTESIAN_POINT('',(-39.00234352556,-38.5781247733,55.23242183461
    ));
#343 = CARTESIAN_POINT('',(-21.3624,-20.76,110.5));
#344 = CARTESIAN_POINT('',(19.224,-18.6,-110.5));
#345 = CARTESIAN_POINT('',(42.181314055848,-41.78920611701,
    -63.10827354218));
#346 = CARTESIAN_POINT('',(30.244365314191,-29.73168213554,
    4.510285114236));
#347 = CARTESIAN_POINT('',(39.002343525569,-38.5781247733,55.23242183461
    ));
#348 = CARTESIAN_POINT('',(21.3624,-20.76,110.5));
#349 = DEFINITIONAL_REPRESENTATION('',(#350),#354);
#350 = LINE('',#351,#352);
#351 = CARTESIAN_POINT('',(0.,0.));
#352 = VECTOR('',#353,1.);
#353 = DIRECTION('',(1.,0.));
#354 = ( GEOMETRIC_REPRESENTATION_CONTEXT(2) 
PARAMETRIC_REPRESENTATION_CONTEXT() REPRESENTATION_CONTEXT('2D SPACE',''
  ) );
#355 = ORIENTED_EDGE('',*,*,#356,.F.);
#356 = EDGE_CURVE('',#357,#325,#359,.T.);
#357 = VERTEX_POINT('',#358);
#358 = CARTESIAN_POINT('',(-26.7,-11.124,-110.5));
#359 = SURFACE_CURVE('',#360,(#363,#369),.PCURVE_S1.);
#360 = B_SPLINE_CURVE_WITH_KNOTS('',1,(#361,#362),.UNSPECIFIED.,.F.,.F.,
  (2,2),(7.,8.),.PIECEWISE_BEZIER_KNOTS.);
#361 = CARTESIAN_POINT('',(-26.7,-11.124,-110.5));
#362 = CARTESIAN_POINT('',(-19.224,-18.6,-110.5));
#363 = PCURVE('',#49,#364);
#364 = DEFINITIONAL_REPRESENTATION('',(#365),#368);
#365 = B_SPLINE_CURVE_WITH_KNOTS('',1,(#366,#367),.UNSPECIFIED.,.F.,.F.,
  (2,2),(7.,8.),.PIECEWISE_BEZIER_KNOTS.);
#366 = CARTESIAN_POINT('',(1.517694538291,11.6491645747));
#367 = CARTESIAN_POINT('',(3.475570775221,1.259368010721));
#368 = ( GEOMETRIC_REPRESENTATION_CONTEXT(2) 
PARAMETRIC_REPRESENTATION_CONTEXT() REPRESENTATION_CONTEXT('2D SPACE',''
  ) );
#369 = PCURVE('',#370,#381);
#370 = ( BOUNDED_SURFACE() B_SPLINE_SURFACE(1,4,(
    (#371,#372,#373,#374,#375)
    ,(#376,#377,#378,#379,#380
)),.UNSPECIFIED.,.F.,.F.,.F.) B_SPLINE_SURFACE_WITH_KNOTS((2,2),(5,5),(
    7.,8.),(0.,1.),.PIECEWISE_BEZIER_KNOTS.) 
GEOMETRIC_REPRESENTATION_ITEM() RATIONAL_B_SPLINE_SURFACE((
    (1.,1.,1.,1.,1.)
,(1.,1.,1.,1.,1.))) REPRESENTATION_ITEM('') SURFACE() );
#371 = CARTESIAN_POINT('',(-26.7,-11.124,-110.5));
#372 = CARTESIAN_POINT('',(-58.5851584109,-25.38536176196,
    -63.10827354218));
#373 = CARTESIAN_POINT('',(-42.00606293637,-17.96998451336,
    4.510285114236));
#374 = CARTESIAN_POINT('',(-54.16992156329,-23.41054673558,
    55.23242183461));
#375 = CARTESIAN_POINT('',(-29.67,-12.4524,110.5));
#376 = CARTESIAN_POINT('',(-19.224,-18.6,-110.5));
#377 = CARTESIAN_POINT('',(-42.18131405584,-41.78920611701,
    -63.10827354218));
#378 = CARTESIAN_POINT('',(-30.24436531419,-29.73168213554,
    4.510285114236));
#379 = CARTESIAN_POINT('',(-39.00234352556,-38.5781247733,55.23242183461
    ));
#380 = CARTESIAN_POINT('',(-21.3624,-20.76,110.5));
#381 = DEFINITIONAL_REPRESENTATION('',(#382),#386);
#382 = LINE('',#383,#384);
#383 = CARTESIAN_POINT('',(0.,0.));
#384 = VECTOR('',#385,1.);
#385 = DIRECTION('',(1.,0.));
#386 = ( GEOMETRIC_REPRESENTATION_CONTEXT(2) 
PARAMETRIC_REPRESENTATION_CONTEXT() REPRESENTATION_CONTEXT('2D SPACE',''
  ) );
#387 = ORIENTED_EDGE('',*,*,#388,.F.);
#388 = EDGE_CURVE('',#389,#357,#391,.T.);
#389 = VERTEX_POINT('',#390);
#390 = CARTESIAN_POINT('',(-26.7,0.,-110.5));
#391 = SURFACE_CURVE('',#392,(#395,#401),.PCURVE_S1.);
#392 = B_SPLINE_CURVE_WITH_KNOTS('',1,(#393,#394),.UNSPECIFIED.,.F.,.F.,
  (2,2),(6.,7.),.PIECEWISE_BEZIER_KNOTS.);
#393 = CARTESIAN_POINT('',(-26.7,11.124,-110.5));
#394 = CARTESIAN_POINT('',(-26.7,-11.124,-110.5));
#395 = PCURVE('',#49,#396);
#396 = DEFINITIONAL_REPRESENTATION('',(#397),#400);
#397 = B_SPLINE_CURVE_WITH_KNOTS('',1,(#398,#399),.UNSPECIFIED.,.F.,.F.,
  (2,2),(6.,7.),.PIECEWISE_BEZIER_KNOTS.);
#398 = CARTESIAN_POINT('',(14.064067159757,30.022026029664));
#399 = CARTESIAN_POINT('',(1.517694538291,11.6491645747));
#400 = ( GEOMETRIC_REPRESENTATION_CONTEXT(2) 
PARAMETRIC_REPRESENTATION_CONTEXT() REPRESENTATION_CONTEXT('2D SPACE',''
  ) );
#401 = PCURVE('',#402,#413);
#402 = ( BOUNDED_SURFACE() B_SPLINE_SURFACE(1,4,(
    (#403,#404,#405,#406,#407)
    ,(#408,#409,#410,#411,#412
)),.UNSPECIFIED.,.F.,.F.,.F.) B_SPLINE_SURFACE_WITH_KNOTS((2,2),(5,5),(
    6.,7.),(0.,1.),.PIECEWISE_BEZIER_KNOTS.) 
GEOMETRIC_REPRESENTATION_ITEM() RATIONAL_B_SPLINE_SURFACE((
    (1.,1.,1.,1.,1.)
,(1.,1.,1.,1.,1.))) REPRESENTATION_ITEM('') SURFACE() );
#403 = CARTESIAN_POINT('',(-26.7,11.124,-110.5));
#404 = CARTESIAN_POINT('',(-58.5851584109,25.385361761966,
    -63.10827354218));
#405 = CARTESIAN_POINT('',(-42.00606293637,17.969984513361,
    4.510285114236));
#406 = CARTESIAN_POINT('',(-54.16992156329,23.410546735581,
    55.23242183461));
#407 = CARTESIAN_POINT('',(-29.67,12.4524,110.5));
#408 = CARTESIAN_POINT('',(-26.7,-11.124,-110.5));
#409 = CARTESIAN_POINT('',(-58.5851584109,-25.38536176196,
    -63.10827354218));
#410 = CARTESIAN_POINT('',(-42.00606293637,-17.96998451336,
    4.510285114236));
#411 = CARTESIAN_POINT('',(-54.16992156329,-23.41054673558,
    55.23242183461));
#412 = CARTESIAN_POINT('',(-29.67,-12.4524,110.5));
#413 = DEFINITIONAL_REPRESENTATION('',(#414),#418);
#414 = LINE('',#415,#416);
#415 = CARTESIAN_POINT('',(0.,0.));
#416 = VECTOR('',#417,1.);
#417 = DIRECTION('',(1.,0.));
#418 = ( GEOMETRIC_REPRESENTATION_CONTEXT(2) 
PARAMETRIC_REPRESENTATION_CONTEXT() REPRESENTATION_CONTEXT('2D SPACE',''
  ) );
#419 = ORIENTED_EDGE('',*,*,#420,.T.);
#420 = EDGE_CURVE('',#389,#421,#423,.T.);
#421 = VERTEX_POINT('',#422);
#422 = CARTESIAN_POINT('',(-29.7,0.,-110.5));
#423 = SURFACE_CURVE('',#424,(#428,#434),.PCURVE_S1.);
#424 = LINE('',#425,#426);
#425 = CARTESIAN_POINT('',(-60.192,0.,-110.5));
#426 = VECTOR('',#427,1.);
#427 = DIRECTION('',(-1.,0.,0.));
#428 = PCURVE('',#49,#429);
#429 = DEFINITIONAL_REPRESENTATION('',(#430),#433);
#430 = B_SPLINE_CURVE_WITH_KNOTS('',1,(#431,#432),.UNSPECIFIED.,.F.,.F.,
  (2,2),(-98.96331501057,-21.42068498942),.PIECEWISE_BEZIER_KNOTS.);
#431 = CARTESIAN_POINT('',(61.858455460834,-16.08581399932));
#432 = CARTESIAN_POINT('',(-2.177862330968,27.643003435665));
#433 = ( GEOMETRIC_REPRESENTATION_CONTEXT(2) 
PARAMETRIC_REPRESENTATION_CONTEXT() REPRESENTATION_CONTEXT('2D SPACE',''
  ) );
#434 = PCURVE('',#435,#440);
#435 = PLANE('',#436);
#436 = AXIS2_PLACEMENT_3D('',#437,#438,#439);
#437 = CARTESIAN_POINT('',(-99.,0.,-132.6));
#438 = DIRECTION('',(0.,1.,0.));
#439 = DIRECTION('',(0.,0.,1.));
#440 = DEFINITIONAL_REPRESENTATION('',(#441),#444);
#441 = B_SPLINE_CURVE_WITH_KNOTS('',1,(#442,#443),.UNSPECIFIED.,.F.,.F.,
  (2,2),(-98.96331501057,-21.42068498942),.PIECEWISE_BEZIER_KNOTS.);
#442 = CARTESIAN_POINT('',(22.1,137.77131501057));
#443 = CARTESIAN_POINT('',(22.1,60.228684989429));
#444 = ( GEOMETRIC_REPRESENTATION_CONTEXT(2) 
PARAMETRIC_REPRESENTATION_CONTEXT() REPRESENTATION_CONTEXT('2D SPACE',''
  ) );
#445 = ORIENTED_EDGE('',*,*,#446,.T.);
#446 = EDGE_CURVE('',#421,#160,#447,.T.);
#447 = SURFACE_CURVE('',#448,(#451,#457),.PCURVE_S1.);
#448 = B_SPLINE_CURVE_WITH_KNOTS('',1,(#449,#450),.UNSPECIFIED.,.F.,.F.,
  (2,2),(6.,7.),.PIECEWISE_BEZIER_KNOTS.);
#449 = CARTESIAN_POINT('',(-29.7,13.284,-110.5));
#450 = CARTESIAN_POINT('',(-29.7,-13.284,-110.5));
#451 = PCURVE('',#49,#452);
#452 = DEFINITIONAL_REPRESENTATION('',(#453),#456);
#453 = B_SPLINE_CURVE_WITH_KNOTS('',1,(#454,#455),.UNSPECIFIED.,.F.,.F.,
  (2,2),(6.,7.),.PIECEWISE_BEZIER_KNOTS.);
#454 = CARTESIAN_POINT('',(12.804699149036,33.497596804886));
#455 = CARTESIAN_POINT('',(-2.177862330968,11.557189436336));
#456 = ( GEOMETRIC_REPRESENTATION_CONTEXT(2) 
PARAMETRIC_REPRESENTATION_CONTEXT() REPRESENTATION_CONTEXT('2D SPACE',''
  ) );
#457 = PCURVE('',#458,#469);
#458 = ( BOUNDED_SURFACE() B_SPLINE_SURFACE(1,4,(
    (#459,#460,#461,#462,#463)
    ,(#464,#465,#466,#467,#468
)),.UNSPECIFIED.,.F.,.F.,.F.) B_SPLINE_SURFACE_WITH_KNOTS((2,2),(5,5),(
    6.,7.),(0.,1.),.PIECEWISE_BEZIER_KNOTS.) 
GEOMETRIC_REPRESENTATION_ITEM() RATIONAL_B_SPLINE_SURFACE((
    (1.,1.,1.,1.,1.)
,(1.,1.,1.,1.,1.))) REPRESENTATION_ITEM('') SURFACE() );
#459 = CARTESIAN_POINT('',(-29.7,13.284,-110.5));
#460 = CARTESIAN_POINT('',(-61.5851584109,27.545361761966,
    -63.10827354218));
#461 = CARTESIAN_POINT('',(-45.00606293637,20.129984513361,
    4.510285114237));
#462 = CARTESIAN_POINT('',(-57.16992156329,25.570546735581,
    55.23242183461));
#463 = CARTESIAN_POINT('',(-32.67,14.6124,110.5));
#464 = CARTESIAN_POINT('',(-29.7,-13.284,-110.5));
#465 = CARTESIAN_POINT('',(-61.5851584109,-27.54536176196,
    -63.10827354218));
#466 = CARTESIAN_POINT('',(-45.00606293637,-20.12998451336,
    4.510285114237));
#467 = CARTESIAN_POINT('',(-57.16992156329,-25.57054673558,
    55.23242183461));
#468 = CARTESIAN_POINT('',(-32.67,-14.6124,110.5));
#469 = DEFINITIONAL_REPRESENTATION('',(#470),#474);
#470 = LINE('',#471,#472);
#471 = CARTESIAN_POINT('',(0.,0.));
#472 = VECTOR('',#473,1.);
#473 = DIRECTION('',(1.,0.));
#474 = ( GEOMETRIC_REPRESENTATION_CONTEXT(2) 
PARAMETRIC_REPRESENTATION_CONTEXT() REPRESENTATION_CONTEXT('2D SPACE',''
  ) );
#475 = ADVANCED_FACE('',(#476),#78,.T.);
#476 = FACE_BOUND('',#477,.T.);
#477 = EDGE_LOOP('',(#478,#479,#504,#523));
#478 = ORIENTED_EDGE('',*,*,#181,.T.);
#479 = ORIENTED_EDGE('',*,*,#480,.T.);
#480 = EDGE_CURVE('',#182,#481,#483,.T.);
#481 = VERTEX_POINT('',#482);
#482 = CARTESIAN_POINT('',(32.67,-14.6124,110.5));
#483 = SURFACE_CURVE('',#484,(#490,#497),.PCURVE_S1.);
#484 = ( BOUNDED_CURVE() B_SPLINE_CURVE(4,(#485,#486,#487,#488,#489),
.UNSPECIFIED.,.F.,.F.) B_SPLINE_CURVE_WITH_KNOTS((5,5),(0.,1.),
.PIECEWISE_BEZIER_KNOTS.) CURVE() GEOMETRIC_REPRESENTATION_ITEM() 
RATIONAL_B_SPLINE_CURVE((1.,1.,1.,1.,1.)) REPRESENTATION_ITEM('') );
#485 = CARTESIAN_POINT('',(29.7,-13.284,-110.5));
#486 = CARTESIAN_POINT('',(61.5851584109,-27.54536176196,-63.10827354218
    ));
#487 = CARTESIAN_POINT('',(45.006062936376,-20.12998451336,
    4.510285114237));
#488 = CARTESIAN_POINT('',(57.16992156329,-25.57054673558,55.23242183461
    ));
#489 = CARTESIAN_POINT('',(32.67,-14.6124,110.5));
#490 = PCURVE('',#78,#491);
#491 = DEFINITIONAL_REPRESENTATION('',(#492),#496);
#492 = LINE('',#493,#494);
#493 = CARTESIAN_POINT('',(2.,0.));
#494 = VECTOR('',#495,1.);
#495 = DIRECTION('',(0.,1.));
#496 = ( GEOMETRIC_REPRESENTATION_CONTEXT(2) 
PARAMETRIC_REPRESENTATION_CONTEXT() REPRESENTATION_CONTEXT('2D SPACE',''
  ) );
#497 = PCURVE('',#216,#498);
#498 = DEFINITIONAL_REPRESENTATION('',(#499),#503);
#499 = LINE('',#500,#501);
#500 = CARTESIAN_POINT('',(2.,0.));
#501 = VECTOR('',#502,1.);
#502 = DIRECTION('',(0.,1.));
#503 = ( GEOMETRIC_REPRESENTATION_CONTEXT(2) 
PARAMETRIC_REPRESENTATION_CONTEXT() REPRESENTATION_CONTEXT('2D SPACE',''
  ) );
#504 = ORIENTED_EDGE('',*,*,#505,.F.);
#505 = EDGE_CURVE('',#61,#481,#506,.T.);
#506 = SURFACE_CURVE('',#507,(#510,#517),.PCURVE_S1.);
#507 = B_SPLINE_CURVE_WITH_KNOTS('',1,(#508,#509),.UNSPECIFIED.,.F.,.F.,
  (2,2),(1.,2.),.PIECEWISE_BEZIER_KNOTS.);
#508 = CARTESIAN_POINT('',(23.5224,-23.76,110.5));
#509 = CARTESIAN_POINT('',(32.67,-14.6124,110.5));
#510 = PCURVE('',#78,#511);
#511 = DEFINITIONAL_REPRESENTATION('',(#512),#516);
#512 = LINE('',#513,#514);
#513 = CARTESIAN_POINT('',(0.,1.));
#514 = VECTOR('',#515,1.);
#515 = DIRECTION('',(1.,0.));
#516 = ( GEOMETRIC_REPRESENTATION_CONTEXT(2) 
PARAMETRIC_REPRESENTATION_CONTEXT() REPRESENTATION_CONTEXT('2D SPACE',''
  ) );
#517 = PCURVE('',#111,#518);
#518 = DEFINITIONAL_REPRESENTATION('',(#519),#522);
#519 = B_SPLINE_CURVE_WITH_KNOTS('',1,(#520,#521),.UNSPECIFIED.,.F.,.F.,
  (2,2),(1.,2.),.PIECEWISE_BEZIER_KNOTS.);
#520 = CARTESIAN_POINT('',(38.850574998944,-26.53009666946));
#521 = CARTESIAN_POINT('',(51.563483378914,-24.1344481054));
#522 = ( GEOMETRIC_REPRESENTATION_CONTEXT(2) 
PARAMETRIC_REPRESENTATION_CONTEXT() REPRESENTATION_CONTEXT('2D SPACE',''
  ) );
#523 = ORIENTED_EDGE('',*,*,#60,.F.);
#524 = ADVANCED_FACE('',(#525),#111,.T.);
#525 = FACE_BOUND('',#526,.T.);
#526 = EDGE_LOOP('',(#527,#548,#549,#550,#571,#592,#613,#634,#655,#676,
    #697,#718));
#527 = ORIENTED_EDGE('',*,*,#528,.T.);
#528 = EDGE_CURVE('',#529,#97,#531,.T.);
#529 = VERTEX_POINT('',#530);
#530 = CARTESIAN_POINT('',(-32.67,-14.6124,110.5));
#531 = SURFACE_CURVE('',#532,(#535,#541),.PCURVE_S1.);
#532 = B_SPLINE_CURVE_WITH_KNOTS('',1,(#533,#534),.UNSPECIFIED.,.F.,.F.,
  (2,2),(7.,8.),.PIECEWISE_BEZIER_KNOTS.);
#533 = CARTESIAN_POINT('',(-32.67,-14.6124,110.5));
#534 = CARTESIAN_POINT('',(-23.5224,-23.76,110.5));
#535 = PCURVE('',#111,#536);
#536 = DEFINITIONAL_REPRESENTATION('',(#537),#540);
#537 = B_SPLINE_CURVE_WITH_KNOTS('',1,(#538,#539),.UNSPECIFIED.,.F.,.F.,
  (2,2),(7.,8.),.PIECEWISE_BEZIER_KNOTS.);
#538 = CARTESIAN_POINT('',(-2.395648564065,12.712908379969));
#539 = CARTESIAN_POINT('',(0.,0.));
#540 = ( GEOMETRIC_REPRESENTATION_CONTEXT(2) 
PARAMETRIC_REPRESENTATION_CONTEXT() REPRESENTATION_CONTEXT('2D SPACE',''
  ) );
#541 = PCURVE('',#138,#542);
#542 = DEFINITIONAL_REPRESENTATION('',(#543),#547);
#543 = LINE('',#544,#545);
#544 = CARTESIAN_POINT('',(0.,1.));
#545 = VECTOR('',#546,1.);
#546 = DIRECTION('',(1.,0.));
#547 = ( GEOMETRIC_REPRESENTATION_CONTEXT(2) 
PARAMETRIC_REPRESENTATION_CONTEXT() REPRESENTATION_CONTEXT('2D SPACE',''
  ) );
#548 = ORIENTED_EDGE('',*,*,#96,.T.);
#549 = ORIENTED_EDGE('',*,*,#505,.T.);
#550 = ORIENTED_EDGE('',*,*,#551,.T.);
#551 = EDGE_CURVE('',#481,#552,#554,.T.);
#552 = VERTEX_POINT('',#553);
#553 = CARTESIAN_POINT('',(32.67,0.,110.5));
#554 = SURFACE_CURVE('',#555,(#558,#564),.PCURVE_S1.);
#555 = B_SPLINE_CURVE_WITH_KNOTS('',1,(#556,#557),.UNSPECIFIED.,.F.,.F.,
  (2,2),(2.,3.),.PIECEWISE_BEZIER_KNOTS.);
#556 = CARTESIAN_POINT('',(32.67,-14.6124,110.5));
#557 = CARTESIAN_POINT('',(32.67,14.6124,110.5));
#558 = PCURVE('',#111,#559);
#559 = DEFINITIONAL_REPRESENTATION('',(#560),#563);
#560 = B_SPLINE_CURVE_WITH_KNOTS('',1,(#561,#562),.UNSPECIFIED.,.F.,.F.,
  (2,2),(2.,3.),.PIECEWISE_BEZIER_KNOTS.);
#561 = CARTESIAN_POINT('',(51.563483378914,-24.1344481054));
#562 = CARTESIAN_POINT('',(68.044301006918,6.217248937901E-15));
#563 = ( GEOMETRIC_REPRESENTATION_CONTEXT(2) 
PARAMETRIC_REPRESENTATION_CONTEXT() REPRESENTATION_CONTEXT('2D SPACE',''
  ) );
#564 = PCURVE('',#216,#565);
#565 = DEFINITIONAL_REPRESENTATION('',(#566),#570);
#566 = LINE('',#567,#568);
#567 = CARTESIAN_POINT('',(0.,1.));
#568 = VECTOR('',#569,1.);
#569 = DIRECTION('',(1.,0.));
#570 = ( GEOMETRIC_REPRESENTATION_CONTEXT(2) 
PARAMETRIC_REPRESENTATION_CONTEXT() REPRESENTATION_CONTEXT('2D SPACE',''
  ) );
#571 = ORIENTED_EDGE('',*,*,#572,.T.);
#572 = EDGE_CURVE('',#552,#573,#575,.T.);
#573 = VERTEX_POINT('',#574);
#574 = CARTESIAN_POINT('',(29.67,0.,110.5));
#575 = SURFACE_CURVE('',#576,(#580,#586),.PCURVE_S1.);
#576 = LINE('',#577,#578);
#577 = CARTESIAN_POINT('',(-61.2612,0.,110.5));
#578 = VECTOR('',#579,1.);
#579 = DIRECTION('',(-1.,0.,0.));
#580 = PCURVE('',#111,#581);
#581 = DEFINITIONAL_REPRESENTATION('',(#582),#585);
#582 = B_SPLINE_CURVE_WITH_KNOTS('',1,(#583,#584),.UNSPECIFIED.,.F.,.F.,
  (2,2),(-103.9096465116,-18.61275348837),.PIECEWISE_BEZIER_KNOTS.);
#583 = CARTESIAN_POINT('',(68.044301006918,-17.69439539926));
#584 = CARTESIAN_POINT('',(-2.395648564065,30.407303779231));
#585 = ( GEOMETRIC_REPRESENTATION_CONTEXT(2) 
PARAMETRIC_REPRESENTATION_CONTEXT() REPRESENTATION_CONTEXT('2D SPACE',''
  ) );
#586 = PCURVE('',#249,#587);
#587 = DEFINITIONAL_REPRESENTATION('',(#588),#591);
#588 = B_SPLINE_CURVE_WITH_KNOTS('',1,(#589,#590),.UNSPECIFIED.,.F.,.F.,
  (2,2),(-103.9096465116,-18.61275348837),.PIECEWISE_BEZIER_KNOTS.);
#589 = CARTESIAN_POINT('',(243.1,141.64844651162));
#590 = CARTESIAN_POINT('',(243.1,56.351553488372));
#591 = ( GEOMETRIC_REPRESENTATION_CONTEXT(2) 
PARAMETRIC_REPRESENTATION_CONTEXT() REPRESENTATION_CONTEXT('2D SPACE',''
  ) );
#592 = ORIENTED_EDGE('',*,*,#593,.F.);
#593 = EDGE_CURVE('',#594,#573,#596,.T.);
#594 = VERTEX_POINT('',#595);
#595 = CARTESIAN_POINT('',(29.67,-12.4524,110.5));
#596 = SURFACE_CURVE('',#597,(#600,#606),.PCURVE_S1.);
#597 = B_SPLINE_CURVE_WITH_KNOTS('',1,(#598,#599),.UNSPECIFIED.,.F.,.F.,
  (2,2),(2.,3.),.PIECEWISE_BEZIER_KNOTS.);
#598 = CARTESIAN_POINT('',(29.67,-12.4524,110.5));
#599 = CARTESIAN_POINT('',(29.67,12.4524,110.5));
#600 = PCURVE('',#111,#601);
#601 = DEFINITIONAL_REPRESENTATION('',(#602),#605);
#602 = B_SPLINE_CURVE_WITH_KNOTS('',1,(#603,#604),.UNSPECIFIED.,.F.,.F.,
  (2,2),(2.,3.),.PIECEWISE_BEZIER_KNOTS.);
#603 = CARTESIAN_POINT('',(50.304115368193,-20.65887733018));
#604 = CARTESIAN_POINT('',(64.348744137659,-9.19751383641E-02));
#605 = ( GEOMETRIC_REPRESENTATION_CONTEXT(2) 
PARAMETRIC_REPRESENTATION_CONTEXT() REPRESENTATION_CONTEXT('2D SPACE',''
  ) );
#606 = PCURVE('',#274,#607);
#607 = DEFINITIONAL_REPRESENTATION('',(#608),#612);
#608 = LINE('',#609,#610);
#609 = CARTESIAN_POINT('',(0.,1.));
#610 = VECTOR('',#611,1.);
#611 = DIRECTION('',(1.,0.));
#612 = ( GEOMETRIC_REPRESENTATION_CONTEXT(2) 
PARAMETRIC_REPRESENTATION_CONTEXT() REPRESENTATION_CONTEXT('2D SPACE',''
  ) );
#613 = ORIENTED_EDGE('',*,*,#614,.F.);
#614 = EDGE_CURVE('',#615,#594,#617,.T.);
#615 = VERTEX_POINT('',#616);
#616 = CARTESIAN_POINT('',(21.3624,-20.76,110.5));
#617 = SURFACE_CURVE('',#618,(#621,#627),.PCURVE_S1.);
#618 = B_SPLINE_CURVE_WITH_KNOTS('',1,(#619,#620),.UNSPECIFIED.,.F.,.F.,
  (2,2),(1.,2.),.PIECEWISE_BEZIER_KNOTS.);
#619 = CARTESIAN_POINT('',(21.3624,-20.76,110.5));
#620 = CARTESIAN_POINT('',(29.67,-12.4524,110.5));
#621 = PCURVE('',#111,#622);
#622 = DEFINITIONAL_REPRESENTATION('',(#623),#626);
#623 = B_SPLINE_CURVE_WITH_KNOTS('',1,(#624,#625),.UNSPECIFIED.,.F.,.F.,
  (2,2),(1.,2.),.PIECEWISE_BEZIER_KNOTS.);
#624 = CARTESIAN_POINT('',(38.75859986058,-22.83453980021));
#625 = CARTESIAN_POINT('',(50.304115368193,-20.65887733018));
#626 = ( GEOMETRIC_REPRESENTATION_CONTEXT(2) 
PARAMETRIC_REPRESENTATION_CONTEXT() REPRESENTATION_CONTEXT('2D SPACE',''
  ) );
#627 = PCURVE('',#306,#628);
#628 = DEFINITIONAL_REPRESENTATION('',(#629),#633);
#629 = LINE('',#630,#631);
#630 = CARTESIAN_POINT('',(0.,1.));
#631 = VECTOR('',#632,1.);
#632 = DIRECTION('',(1.,0.));
#633 = ( GEOMETRIC_REPRESENTATION_CONTEXT(2) 
PARAMETRIC_REPRESENTATION_CONTEXT() REPRESENTATION_CONTEXT('2D SPACE',''
  ) );
#634 = ORIENTED_EDGE('',*,*,#635,.F.);
#635 = EDGE_CURVE('',#636,#615,#638,.T.);
#636 = VERTEX_POINT('',#637);
#637 = CARTESIAN_POINT('',(-21.3624,-20.76,110.5));
#638 = SURFACE_CURVE('',#639,(#642,#648),.PCURVE_S1.);
#639 = B_SPLINE_CURVE_WITH_KNOTS('',1,(#640,#641),.UNSPECIFIED.,.F.,.F.,
  (2,2),(0.,1.),.PIECEWISE_BEZIER_KNOTS.);
#640 = CARTESIAN_POINT('',(-21.3624,-20.76,110.5));
#641 = CARTESIAN_POINT('',(21.3624,-20.76,110.5));
#642 = PCURVE('',#111,#643);
#643 = DEFINITIONAL_REPRESENTATION('',(#644),#647);
#644 = B_SPLINE_CURVE_WITH_KNOTS('',1,(#645,#646),.UNSPECIFIED.,.F.,.F.,
  (2,2),(0.,1.),.PIECEWISE_BEZIER_KNOTS.);
#645 = CARTESIAN_POINT('',(3.475570775221,1.259368010721));
#646 = CARTESIAN_POINT('',(38.75859986058,-22.83453980021));
#647 = ( GEOMETRIC_REPRESENTATION_CONTEXT(2) 
PARAMETRIC_REPRESENTATION_CONTEXT() REPRESENTATION_CONTEXT('2D SPACE',''
  ) );
#648 = PCURVE('',#338,#649);
#649 = DEFINITIONAL_REPRESENTATION('',(#650),#654);
#650 = LINE('',#651,#652);
#651 = CARTESIAN_POINT('',(0.,1.));
#652 = VECTOR('',#653,1.);
#653 = DIRECTION('',(1.,0.));
#654 = ( GEOMETRIC_REPRESENTATION_CONTEXT(2) 
PARAMETRIC_REPRESENTATION_CONTEXT() REPRESENTATION_CONTEXT('2D SPACE',''
  ) );
#655 = ORIENTED_EDGE('',*,*,#656,.F.);
#656 = EDGE_CURVE('',#657,#636,#659,.T.);
#657 = VERTEX_POINT('',#658);
#658 = CARTESIAN_POINT('',(-29.67,-12.4524,110.5));
#659 = SURFACE_CURVE('',#660,(#663,#669),.PCURVE_S1.);
#660 = B_SPLINE_CURVE_WITH_KNOTS('',1,(#661,#662),.UNSPECIFIED.,.F.,.F.,
  (2,2),(7.,8.),.PIECEWISE_BEZIER_KNOTS.);
#661 = CARTESIAN_POINT('',(-29.67,-12.4524,110.5));
#662 = CARTESIAN_POINT('',(-21.3624,-20.76,110.5));
#663 = PCURVE('',#111,#664);
#664 = DEFINITIONAL_REPRESENTATION('',(#665),#668);
#665 = B_SPLINE_CURVE_WITH_KNOTS('',1,(#666,#667),.UNSPECIFIED.,.F.,.F.,
  (2,2),(7.,8.),.PIECEWISE_BEZIER_KNOTS.);
#666 = CARTESIAN_POINT('',(1.299908305194,12.804883518333));
#667 = CARTESIAN_POINT('',(3.475570775221,1.259368010721));
#668 = ( GEOMETRIC_REPRESENTATION_CONTEXT(2) 
PARAMETRIC_REPRESENTATION_CONTEXT() REPRESENTATION_CONTEXT('2D SPACE',''
  ) );
#669 = PCURVE('',#370,#670);
#670 = DEFINITIONAL_REPRESENTATION('',(#671),#675);
#671 = LINE('',#672,#673);
#672 = CARTESIAN_POINT('',(0.,1.));
#673 = VECTOR('',#674,1.);
#674 = DIRECTION('',(1.,0.));
#675 = ( GEOMETRIC_REPRESENTATION_CONTEXT(2) 
PARAMETRIC_REPRESENTATION_CONTEXT() REPRESENTATION_CONTEXT('2D SPACE',''
  ) );
#676 = ORIENTED_EDGE('',*,*,#677,.F.);
#677 = EDGE_CURVE('',#678,#657,#680,.T.);
#678 = VERTEX_POINT('',#679);
#679 = CARTESIAN_POINT('',(-29.67,0.,110.5));
#680 = SURFACE_CURVE('',#681,(#684,#690),.PCURVE_S1.);
#681 = B_SPLINE_CURVE_WITH_KNOTS('',1,(#682,#683),.UNSPECIFIED.,.F.,.F.,
  (2,2),(6.,7.),.PIECEWISE_BEZIER_KNOTS.);
#682 = CARTESIAN_POINT('',(-29.67,12.4524,110.5));
#683 = CARTESIAN_POINT('',(-29.67,-12.4524,110.5));
#684 = PCURVE('',#111,#685);
#685 = DEFINITIONAL_REPRESENTATION('',(#686),#689);
#686 = B_SPLINE_CURVE_WITH_KNOTS('',1,(#687,#688),.UNSPECIFIED.,.F.,.F.,
  (2,2),(6.,7.),.PIECEWISE_BEZIER_KNOTS.);
#687 = CARTESIAN_POINT('',(15.34453707466,33.371785710153));
#688 = CARTESIAN_POINT('',(1.299908305194,12.804883518333));
#689 = ( GEOMETRIC_REPRESENTATION_CONTEXT(2) 
PARAMETRIC_REPRESENTATION_CONTEXT() REPRESENTATION_CONTEXT('2D SPACE',''
  ) );
#690 = PCURVE('',#402,#691);
#691 = DEFINITIONAL_REPRESENTATION('',(#692),#696);
#692 = LINE('',#693,#694);
#693 = CARTESIAN_POINT('',(0.,1.));
#694 = VECTOR('',#695,1.);
#695 = DIRECTION('',(1.,0.));
#696 = ( GEOMETRIC_REPRESENTATION_CONTEXT(2) 
PARAMETRIC_REPRESENTATION_CONTEXT() REPRESENTATION_CONTEXT('2D SPACE',''
  ) );
#697 = ORIENTED_EDGE('',*,*,#698,.T.);
#698 = EDGE_CURVE('',#678,#699,#701,.T.);
#699 = VERTEX_POINT('',#700);
#700 = CARTESIAN_POINT('',(-32.67,0.,110.5));
#701 = SURFACE_CURVE('',#702,(#706,#712),.PCURVE_S1.);
#702 = LINE('',#703,#704);
#703 = CARTESIAN_POINT('',(-61.2612,0.,110.5));
#704 = VECTOR('',#705,1.);
#705 = DIRECTION('',(-1.,0.,0.));
#706 = PCURVE('',#111,#707);
#707 = DEFINITIONAL_REPRESENTATION('',(#708),#711);
#708 = B_SPLINE_CURVE_WITH_KNOTS('',1,(#709,#710),.UNSPECIFIED.,.F.,.F.,
  (2,2),(-103.9096465116,-18.61275348837),.PIECEWISE_BEZIER_KNOTS.);
#709 = CARTESIAN_POINT('',(68.044301006918,-17.69439539926));
#710 = CARTESIAN_POINT('',(-2.395648564065,30.407303779231));
#711 = ( GEOMETRIC_REPRESENTATION_CONTEXT(2) 
PARAMETRIC_REPRESENTATION_CONTEXT() REPRESENTATION_CONTEXT('2D SPACE',''
  ) );
#712 = PCURVE('',#435,#713);
#713 = DEFINITIONAL_REPRESENTATION('',(#714),#717);
#714 = B_SPLINE_CURVE_WITH_KNOTS('',1,(#715,#716),.UNSPECIFIED.,.F.,.F.,
  (2,2),(-103.9096465116,-18.61275348837),.PIECEWISE_BEZIER_KNOTS.);
#715 = CARTESIAN_POINT('',(243.1,141.64844651162));
#716 = CARTESIAN_POINT('',(243.1,56.351553488372));
#717 = ( GEOMETRIC_REPRESENTATION_CONTEXT(2) 
PARAMETRIC_REPRESENTATION_CONTEXT() REPRESENTATION_CONTEXT('2D SPACE',''
  ) );
#718 = ORIENTED_EDGE('',*,*,#719,.T.);
#719 = EDGE_CURVE('',#699,#529,#720,.T.);
#720 = SURFACE_CURVE('',#721,(#724,#730),.PCURVE_S1.);
#721 = B_SPLINE_CURVE_WITH_KNOTS('',1,(#722,#723),.UNSPECIFIED.,.F.,.F.,
  (2,2),(6.,7.),.PIECEWISE_BEZIER_KNOTS.);
#722 = CARTESIAN_POINT('',(-32.67,14.6124,110.5));
#723 = CARTESIAN_POINT('',(-32.67,-14.6124,110.5));
#724 = PCURVE('',#111,#725);
#725 = DEFINITIONAL_REPRESENTATION('',(#726),#729);
#726 = B_SPLINE_CURVE_WITH_KNOTS('',1,(#727,#728),.UNSPECIFIED.,.F.,.F.,
  (2,2),(6.,7.),.PIECEWISE_BEZIER_KNOTS.);
#727 = CARTESIAN_POINT('',(14.085169063939,36.847356485374));
#728 = CARTESIAN_POINT('',(-2.395648564065,12.712908379969));
#729 = ( GEOMETRIC_REPRESENTATION_CONTEXT(2) 
PARAMETRIC_REPRESENTATION_CONTEXT() REPRESENTATION_CONTEXT('2D SPACE',''
  ) );
#730 = PCURVE('',#458,#731);
#731 = DEFINITIONAL_REPRESENTATION('',(#732),#736);
#732 = LINE('',#733,#734);
#733 = CARTESIAN_POINT('',(0.,1.));
#734 = VECTOR('',#735,1.);
#735 = DIRECTION('',(1.,0.));
#736 = ( GEOMETRIC_REPRESENTATION_CONTEXT(2) 
PARAMETRIC_REPRESENTATION_CONTEXT() REPRESENTATION_CONTEXT('2D SPACE',''
  ) );
#737 = ADVANCED_FACE('',(#738),#138,.T.);
#738 = FACE_BOUND('',#739,.T.);
#739 = EDGE_LOOP('',(#740,#741,#742,#743));
#740 = ORIENTED_EDGE('',*,*,#159,.T.);
#741 = ORIENTED_EDGE('',*,*,#122,.T.);
#742 = ORIENTED_EDGE('',*,*,#528,.F.);
#743 = ORIENTED_EDGE('',*,*,#744,.F.);
#744 = EDGE_CURVE('',#160,#529,#745,.T.);
#745 = SURFACE_CURVE('',#746,(#752,#759),.PCURVE_S1.);
#746 = ( BOUNDED_CURVE() B_SPLINE_CURVE(4,(#747,#748,#749,#750,#751),
.UNSPECIFIED.,.F.,.F.) B_SPLINE_CURVE_WITH_KNOTS((5,5),(0.,1.),
.PIECEWISE_BEZIER_KNOTS.) CURVE() GEOMETRIC_REPRESENTATION_ITEM() 
RATIONAL_B_SPLINE_CURVE((1.,1.,1.,1.,1.)) REPRESENTATION_ITEM('') );
#747 = CARTESIAN_POINT('',(-29.7,-13.284,-110.5));
#748 = CARTESIAN_POINT('',(-61.5851584109,-27.54536176196,
    -63.10827354218));
#749 = CARTESIAN_POINT('',(-45.00606293637,-20.12998451336,
    4.510285114237));
#750 = CARTESIAN_POINT('',(-57.16992156329,-25.57054673558,
    55.23242183461));
#751 = CARTESIAN_POINT('',(-32.67,-14.6124,110.5));
#752 = PCURVE('',#138,#753);
#753 = DEFINITIONAL_REPRESENTATION('',(#754),#758);
#754 = LINE('',#755,#756);
#755 = CARTESIAN_POINT('',(7.,0.));
#756 = VECTOR('',#757,1.);
#757 = DIRECTION('',(0.,1.));
#758 = ( GEOMETRIC_REPRESENTATION_CONTEXT(2) 
PARAMETRIC_REPRESENTATION_CONTEXT() REPRESENTATION_CONTEXT('2D SPACE',''
  ) );
#759 = PCURVE('',#458,#760);
#760 = DEFINITIONAL_REPRESENTATION('',(#761),#765);
#761 = LINE('',#762,#763);
#762 = CARTESIAN_POINT('',(7.,0.));
#763 = VECTOR('',#764,1.);
#764 = DIRECTION('',(0.,1.));
#765 = ( GEOMETRIC_REPRESENTATION_CONTEXT(2) 
PARAMETRIC_REPRESENTATION_CONTEXT() REPRESENTATION_CONTEXT('2D SPACE',''
  ) );
#766 = ADVANCED_FACE('',(#767),#458,.T.);
#767 = FACE_BOUND('',#768,.T.);
#768 = EDGE_LOOP('',(#769,#913,#914,#915));
#769 = ORIENTED_EDGE('',*,*,#770,.F.);
#770 = EDGE_CURVE('',#421,#699,#771,.T.);
#771 = SURFACE_CURVE('',#772,(#817,#865),.PCURVE_S1.);
#772 = B_SPLINE_CURVE_WITH_KNOTS('',8,(#773,#774,#775,#776,#777,#778,
    #779,#780,#781,#782,#783,#784,#785,#786,#787,#788,#789,#790,#791,
    #792,#793,#794,#795,#796,#797,#798,#799,#800,#801,#802,#803,#804,
    #805,#806,#807,#808,#809,#810,#811,#812,#813,#814,#815,#816),
  .UNSPECIFIED.,.F.,.F.,(9,7,7,7,7,7,9),(0.,0.164479236779,
    0.392400981643,0.533119501051,0.688186151293,0.840886452154,1.),
  .UNSPECIFIED.);
#773 = CARTESIAN_POINT('',(-29.7,0.,-110.5));
#774 = CARTESIAN_POINT('',(-32.30355299126,0.,-106.6302725992));
#775 = CARTESIAN_POINT('',(-34.66224535088,0.,-102.5972284078));
#776 = CARTESIAN_POINT('',(-36.7752641473,0.,-98.42656331906));
#777 = CARTESIAN_POINT('',(-38.65270318695,0.,-94.14413267618));
#778 = CARTESIAN_POINT('',(-40.31097815016,0.,-89.7740091514));
#779 = CARTESIAN_POINT('',(-41.76916774458,0.,-85.33689299873));
#780 = CARTESIAN_POINT('',(-43.04693805149,0.,-80.84919695762));
#781 = CARTESIAN_POINT('',(-45.71012455885,0.,-70.04965947535));
#782 = CARTESIAN_POINT('',(-46.94614681747,0.,-63.70517275896));
#783 = CARTESIAN_POINT('',(-47.92400401012,0.,-57.31295922815));
#784 = CARTESIAN_POINT('',(-48.68840153521,0.,-50.89164447544));
#785 = CARTESIAN_POINT('',(-49.27630385209,0.,-44.45452557077));
#786 = CARTESIAN_POINT('',(-49.71758578483,0.,-38.00963582768));
#787 = CARTESIAN_POINT('',(-50.03568756902,0.,-31.55981613247));
#788 = CARTESIAN_POINT('',(-50.37887865186,0.,-21.1161664648));
#789 = CARTESIAN_POINT('',(-50.46946047381,0.,-17.12833905542));
#790 = CARTESIAN_POINT('',(-50.52370137578,0.,-13.13975195975));
#791 = CARTESIAN_POINT('',(-50.5448131601,0.,-9.15081880101));
#792 = CARTESIAN_POINT('',(-50.53519330666,0.,-5.161882431472));
#793 = CARTESIAN_POINT('',(-50.49645134487,0.,-1.173215321206));
#794 = CARTESIAN_POINT('',(-50.42940648609,0.,2.814980243677));
#795 = CARTESIAN_POINT('',(-50.2289843458,0.,11.196752269101));
#796 = CARTESIAN_POINT('',(-50.08954629711,0.,15.589979232972));
#797 = CARTESIAN_POINT('',(-49.91574692322,0.,19.982120536488));
#798 = CARTESIAN_POINT('',(-49.70639016058,0.,24.372859781674));
#799 = CARTESIAN_POINT('',(-49.45906661326,0.,28.761695968392));
#800 = CARTESIAN_POINT('',(-49.17010481481,0.,33.14794105532));
#801 = CARTESIAN_POINT('',(-48.83454909726,0.,37.530719213294));
#802 = CARTESIAN_POINT('',(-48.06383017666,0.,46.220410129497));
#803 = CARTESIAN_POINT('',(-47.63029763874,0.,50.527098149762));
#804 = CARTESIAN_POINT('',(-47.13973671246,0.,54.82814877841));
#805 = CARTESIAN_POINT('',(-46.58516523042,0.,59.121939526332));
#806 = CARTESIAN_POINT('',(-45.95860974831,0.,63.406127162877));
#807 = CARTESIAN_POINT('',(-45.25137443716,0.,67.677688892565));
#808 = CARTESIAN_POINT('',(-44.45449815161,0.,71.932989703429));
#809 = CARTESIAN_POINT('',(-42.62674438633,0.,80.580623247752));
#810 = CARTESIAN_POINT('',(-41.5873931936,0.,84.97144474133));
#811 = CARTESIAN_POINT('',(-40.43188196825,0.,89.334563058856));
#812 = CARTESIAN_POINT('',(-39.15133700141,0.,93.663528005277));
#813 = CARTESIAN_POINT('',(-37.7383324999,0.,97.951481689275));
#814 = CARTESIAN_POINT('',(-36.18783215595,0.,102.19144478613));
#815 = CARTESIAN_POINT('',(-34.49791900701,0.,106.37653142727));
#816 = CARTESIAN_POINT('',(-32.67,0.,110.5));
#817 = PCURVE('',#458,#818);
#818 = DEFINITIONAL_REPRESENTATION('',(#819),#864);
#819 = B_SPLINE_CURVE_WITH_KNOTS('',8,(#820,#821,#822,#823,#824,#825,
    #826,#827,#828,#829,#830,#831,#832,#833,#834,#835,#836,#837,#838,
    #839,#840,#841,#842,#843,#844,#845,#846,#847,#848,#849,#850,#851,
    #852,#853,#854,#855,#856,#857,#858,#859,#860,#861,#862,#863),
  .UNSPECIFIED.,.F.,.F.,(9,7,7,7,7,7,9),(0.,0.164479236779,
    0.392400981643,0.533119501051,0.688186151293,0.840886452154,1.),
  .UNSPECIFIED.);
#820 = CARTESIAN_POINT('',(6.5,0.));
#821 = CARTESIAN_POINT('',(6.5,2.041351776983E-02));
#822 = CARTESIAN_POINT('',(6.5,4.107878037761E-02));
#823 = CARTESIAN_POINT('',(6.5,6.189483613139E-02));
#824 = CARTESIAN_POINT('',(6.5,8.277951638361E-02));
#825 = CARTESIAN_POINT('',(6.5,0.10366894032));
#826 = CARTESIAN_POINT('',(6.5,0.124517355587));
#827 = CARTESIAN_POINT('',(6.5,0.145297284548));
#828 = CARTESIAN_POINT('',(6.5,0.194688113598));
#829 = CARTESIAN_POINT('',(6.5,0.223212917989));
#830 = CARTESIAN_POINT('',(6.5,0.251582792941));
#831 = CARTESIAN_POINT('',(6.5,0.279813869455));
#832 = CARTESIAN_POINT('',(6.5,0.307930718082));
#833 = CARTESIAN_POINT('',(6.5,0.335967744372));
#834 = CARTESIAN_POINT('',(6.5,0.363970985235));
#835 = CARTESIAN_POINT('',(6.5,0.409305068723));
#836 = CARTESIAN_POINT('',(6.5,0.426613373884));
#837 = CARTESIAN_POINT('',(6.5,0.44393446024));
#838 = CARTESIAN_POINT('',(6.5,0.461276867136));
#839 = CARTESIAN_POINT('',(6.5,0.478648242339));
#840 = CARTESIAN_POINT('',(6.5,0.496055396139));
#841 = CARTESIAN_POINT('',(6.5,0.513504295753));
#842 = CARTESIAN_POINT('',(6.5,0.550279624762));
#843 = CARTESIAN_POINT('',(6.5,0.569615120144));
#844 = CARTESIAN_POINT('',(6.5,0.589013443015));
#845 = CARTESIAN_POINT('',(6.5,0.608478955444));
#846 = CARTESIAN_POINT('',(6.5,0.628013310296));
#847 = CARTESIAN_POINT('',(6.5,0.647615200876));
#848 = CARTESIAN_POINT('',(6.5,0.667280085766));
#849 = CARTESIAN_POINT('',(6.5,0.706418984235));
#850 = CARTESIAN_POINT('',(6.5,0.725889701895));
#851 = CARTESIAN_POINT('',(6.5,0.745405087722));
#852 = CARTESIAN_POINT('',(6.5,0.764952342706));
#853 = CARTESIAN_POINT('',(6.5,0.784512720561));
#854 = CARTESIAN_POINT('',(6.5,0.804061561915));
#855 = CARTESIAN_POINT('',(6.5,0.823568779796));
#856 = CARTESIAN_POINT('',(6.5,0.863247310374));
#857 = CARTESIAN_POINT('',(6.5,0.883413204548));
#858 = CARTESIAN_POINT('',(6.5,0.903453840415));
#859 = CARTESIAN_POINT('',(6.5,0.923320009301));
#860 = CARTESIAN_POINT('',(6.5,0.942959205));
#861 = CARTESIAN_POINT('',(6.5,0.962318581855));
#862 = CARTESIAN_POINT('',(6.5,0.981347705519));
#863 = CARTESIAN_POINT('',(6.5,1.));
#864 = ( GEOMETRIC_REPRESENTATION_CONTEXT(2) 
PARAMETRIC_REPRESENTATION_CONTEXT() REPRESENTATION_CONTEXT('2D SPACE',''
  ) );
#865 = PCURVE('',#435,#866);
#866 = DEFINITIONAL_REPRESENTATION('',(#867),#912);
#867 = B_SPLINE_CURVE_WITH_KNOTS('',8,(#868,#869,#870,#871,#872,#873,
    #874,#875,#876,#877,#878,#879,#880,#881,#882,#883,#884,#885,#886,
    #887,#888,#889,#890,#891,#892,#893,#894,#895,#896,#897,#898,#899,
    #900,#901,#902,#903,#904,#905,#906,#907,#908,#909,#910,#911),
  .UNSPECIFIED.,.F.,.F.,(9,7,7,7,7,7,9),(0.,0.164479236779,
    0.392400981643,0.533119501051,0.688186151293,0.840886452154,1.),
  .UNSPECIFIED.);
#868 = CARTESIAN_POINT('',(22.1,69.3));
#869 = CARTESIAN_POINT('',(25.969727400759,66.69644700874));
#870 = CARTESIAN_POINT('',(30.002771592106,64.337754649111));
#871 = CARTESIAN_POINT('',(34.173436680934,62.224735852699));
#872 = CARTESIAN_POINT('',(38.455867323815,60.347296813043));
#873 = CARTESIAN_POINT('',(42.825990848598,58.689021849837));
#874 = CARTESIAN_POINT('',(47.263107001268,57.230832255417));
#875 = CARTESIAN_POINT('',(51.750803042376,55.953061948503));
#876 = CARTESIAN_POINT('',(62.550340524649,53.289875441147));
#877 = CARTESIAN_POINT('',(68.894827241039,52.053853182525));
#878 = CARTESIAN_POINT('',(75.287040771843,51.07599598988));
#879 = CARTESIAN_POINT('',(81.708355524553,50.311598464781));
#880 = CARTESIAN_POINT('',(88.145474429226,49.723696147907));
#881 = CARTESIAN_POINT('',(94.590364172319,49.282414215167));
#882 = CARTESIAN_POINT('',(101.04018386752,48.964312430972));
#883 = CARTESIAN_POINT('',(111.48383353519,48.621121348131));
#884 = CARTESIAN_POINT('',(115.47166094457,48.530539526184));
#885 = CARTESIAN_POINT('',(119.46024804024,48.476298624213));
#886 = CARTESIAN_POINT('',(123.44918119899,48.455186839899));
#887 = CARTESIAN_POINT('',(127.43811756852,48.464806693335));
#888 = CARTESIAN_POINT('',(131.42678467879,48.50354865513));
#889 = CARTESIAN_POINT('',(135.41498024367,48.570593513904));
#890 = CARTESIAN_POINT('',(143.7967522691,48.771015654195));
#891 = CARTESIAN_POINT('',(148.18997923297,48.91045370289));
#892 = CARTESIAN_POINT('',(152.58212053648,49.084253076777));
#893 = CARTESIAN_POINT('',(156.97285978167,49.293609839418));
#894 = CARTESIAN_POINT('',(161.36169596839,49.540933386734));
#895 = CARTESIAN_POINT('',(165.74794105532,49.829895185188));
#896 = CARTESIAN_POINT('',(170.13071921329,50.165450902734));
#897 = CARTESIAN_POINT('',(178.82041012949,50.936169823332));
#898 = CARTESIAN_POINT('',(183.12709814976,51.369702361257));
#899 = CARTESIAN_POINT('',(187.42814877841,51.860263287535));
#900 = CARTESIAN_POINT('',(191.72193952633,52.414834769572));
#901 = CARTESIAN_POINT('',(196.00612716287,53.041390251689));
#902 = CARTESIAN_POINT('',(200.27768889256,53.748625562831));
#903 = CARTESIAN_POINT('',(204.53298970342,54.545501848381));
#904 = CARTESIAN_POINT('',(213.18062324775,56.373255613667));
#905 = CARTESIAN_POINT('',(217.57144474133,57.412606806395));
#906 = CARTESIAN_POINT('',(221.93456305885,58.568118031742));
#907 = CARTESIAN_POINT('',(226.26352800527,59.848662998587));
#908 = CARTESIAN_POINT('',(230.55148168927,61.261667500091));
#909 = CARTESIAN_POINT('',(234.79144478613,62.812167844047));
#910 = CARTESIAN_POINT('',(238.97653142727,64.502080992981));
#911 = CARTESIAN_POINT('',(243.1,66.33));
#912 = ( GEOMETRIC_REPRESENTATION_CONTEXT(2) 
PARAMETRIC_REPRESENTATION_CONTEXT() REPRESENTATION_CONTEXT('2D SPACE',''
  ) );
#913 = ORIENTED_EDGE('',*,*,#446,.T.);
#914 = ORIENTED_EDGE('',*,*,#744,.T.);
#915 = ORIENTED_EDGE('',*,*,#719,.F.);
#916 = ADVANCED_FACE('',(#917),#435,.T.);
#917 = FACE_BOUND('',#918,.T.);
#918 = EDGE_LOOP('',(#919,#1063,#1064,#1065));
#919 = ORIENTED_EDGE('',*,*,#920,.F.);
#920 = EDGE_CURVE('',#389,#678,#921,.T.);
#921 = SURFACE_CURVE('',#922,(#967,#1015),.PCURVE_S1.);
#922 = B_SPLINE_CURVE_WITH_KNOTS('',8,(#923,#924,#925,#926,#927,#928,
    #929,#930,#931,#932,#933,#934,#935,#936,#937,#938,#939,#940,#941,
    #942,#943,#944,#945,#946,#947,#948,#949,#950,#951,#952,#953,#954,
    #955,#956,#957,#958,#959,#960,#961,#962,#963,#964,#965,#966),
  .UNSPECIFIED.,.F.,.F.,(9,7,7,7,7,7,9),(0.,0.164479236779,
    0.392400981644,0.533119501051,0.688186151294,0.840886452156,1.),
  .UNSPECIFIED.);
#923 = CARTESIAN_POINT('',(-26.7,0.,-110.5));
#924 = CARTESIAN_POINT('',(-29.30355299125,0.,-106.6302725992));
#925 = CARTESIAN_POINT('',(-31.66224535089,0.,-102.5972284078));
#926 = CARTESIAN_POINT('',(-33.77526414728,0.,-98.42656331909));
#927 = CARTESIAN_POINT('',(-35.65270318698,0.,-94.14413267614));
#928 = CARTESIAN_POINT('',(-37.31097815014,0.,-89.77400915144));
#929 = CARTESIAN_POINT('',(-38.76916774459,0.,-85.3368929987));
#930 = CARTESIAN_POINT('',(-40.04693805149,0.,-80.84919695763));
#931 = CARTESIAN_POINT('',(-42.71012455885,0.,-70.04965947533));
#932 = CARTESIAN_POINT('',(-43.94614681746,0.,-63.70517275902));
#933 = CARTESIAN_POINT('',(-44.92400401012,0.,-57.31295922809));
#934 = CARTESIAN_POINT('',(-45.68840153522,0.,-50.89164447544));
#935 = CARTESIAN_POINT('',(-46.27630385208,0.,-44.45452557083));
#936 = CARTESIAN_POINT('',(-46.71758578483,0.,-38.00963582763));
#937 = CARTESIAN_POINT('',(-47.03568756902,0.,-31.55981613249));
#938 = CARTESIAN_POINT('',(-47.37887865186,0.,-21.1161664648));
#939 = CARTESIAN_POINT('',(-47.46946047381,0.,-17.12833905542));
#940 = CARTESIAN_POINT('',(-47.52370137578,0.,-13.13975195975));
#941 = CARTESIAN_POINT('',(-47.5448131601,0.,-9.150818801014));
#942 = CARTESIAN_POINT('',(-47.53519330666,0.,-5.161882431472));
#943 = CARTESIAN_POINT('',(-47.49645134487,0.,-1.173215321202));
#944 = CARTESIAN_POINT('',(-47.42940648609,0.,2.814980243675));
#945 = CARTESIAN_POINT('',(-47.2289843458,0.,11.196752269128));
#946 = CARTESIAN_POINT('',(-47.08954629711,0.,15.589979232881));
#947 = CARTESIAN_POINT('',(-46.91574692321,0.,19.982120536592));
#948 = CARTESIAN_POINT('',(-46.70639016058,0.,24.372859781677));
#949 = CARTESIAN_POINT('',(-46.45906661327,0.,28.761695968288));
#950 = CARTESIAN_POINT('',(-46.1701048148,0.,33.147941055406));
#951 = CARTESIAN_POINT('',(-45.83454909726,0.,37.53071921327));
#952 = CARTESIAN_POINT('',(-45.06383017666,0.,46.220410129508));
#953 = CARTESIAN_POINT('',(-44.63029763874,0.,50.52709814972));
#954 = CARTESIAN_POINT('',(-44.13973671245,0.,54.828148778471));
#955 = CARTESIAN_POINT('',(-43.58516523043,0.,59.121939526317));
#956 = CARTESIAN_POINT('',(-42.95860974832,0.,63.406127162815));
#957 = CARTESIAN_POINT('',(-42.25137443715,0.,67.677688892639));
#958 = CARTESIAN_POINT('',(-41.45449815162,0.,71.9329897034));
#959 = CARTESIAN_POINT('',(-39.62674438633,0.,80.580623247733));
#960 = CARTESIAN_POINT('',(-38.58739319359,0.,84.97144474137));
#961 = CARTESIAN_POINT('',(-37.43188196826,0.,89.334563058841));
#962 = CARTESIAN_POINT('',(-36.15133700141,0.,93.663528005252));
#963 = CARTESIAN_POINT('',(-34.7383324999,0.,97.951481689289));
#964 = CARTESIAN_POINT('',(-33.18783215594,0.,102.19144478615));
#965 = CARTESIAN_POINT('',(-31.49791900702,0.,106.37653142726));
#966 = CARTESIAN_POINT('',(-29.67,0.,110.5));
#967 = PCURVE('',#435,#968);
#968 = DEFINITIONAL_REPRESENTATION('',(#969),#1014);
#969 = B_SPLINE_CURVE_WITH_KNOTS('',8,(#970,#971,#972,#973,#974,#975,
    #976,#977,#978,#979,#980,#981,#982,#983,#984,#985,#986,#987,#988,
    #989,#990,#991,#992,#993,#994,#995,#996,#997,#998,#999,#1000,#1001,
    #1002,#1003,#1004,#1005,#1006,#1007,#1008,#1009,#1010,#1011,#1012,
    #1013),.UNSPECIFIED.,.F.,.F.,(9,7,7,7,7,7,9),(0.,0.164479236779,
    0.392400981644,0.533119501051,0.688186151294,0.840886452156,1.),
  .UNSPECIFIED.);
#970 = CARTESIAN_POINT('',(22.1,72.3));
#971 = CARTESIAN_POINT('',(25.969727400756,69.696447008742));
#972 = CARTESIAN_POINT('',(30.002771592118,67.337754649102));
#973 = CARTESIAN_POINT('',(34.173436680903,65.224735852718));
#974 = CARTESIAN_POINT('',(38.455867323859,63.34729681302));
#975 = CARTESIAN_POINT('',(42.825990848557,61.689021849853));
#976 = CARTESIAN_POINT('',(47.263107001291,60.23083225541));
#977 = CARTESIAN_POINT('',(51.75080304237,58.953061948505));
#978 = CARTESIAN_POINT('',(62.550340524669,56.289875441142));
#979 = CARTESIAN_POINT('',(68.894827240979,55.053853182536));
#980 = CARTESIAN_POINT('',(75.287040771904,54.075995989872));
#981 = CARTESIAN_POINT('',(81.708355524558,53.311598464778));
#982 = CARTESIAN_POINT('',(88.145474429165,52.723696147916));
#983 = CARTESIAN_POINT('',(94.590364172369,52.282414215163));
#984 = CARTESIAN_POINT('',(101.0401838675,51.964312430973));
#985 = CARTESIAN_POINT('',(111.48383353519,51.621121348132));
#986 = CARTESIAN_POINT('',(115.47166094457,51.530539526184));
#987 = CARTESIAN_POINT('',(119.46024804024,51.476298624213));
#988 = CARTESIAN_POINT('',(123.44918119898,51.455186839899));
#989 = CARTESIAN_POINT('',(127.43811756852,51.464806693335));
#990 = CARTESIAN_POINT('',(131.42678467879,51.50354865513));
#991 = CARTESIAN_POINT('',(135.41498024367,51.570593513904));
#992 = CARTESIAN_POINT('',(143.79675226912,51.771015654196));
#993 = CARTESIAN_POINT('',(148.18997923288,51.910453702886));
#994 = CARTESIAN_POINT('',(152.58212053659,52.084253076782));
#995 = CARTESIAN_POINT('',(156.97285978167,52.293609839417));
#996 = CARTESIAN_POINT('',(161.36169596828,52.540933386729));
#997 = CARTESIAN_POINT('',(165.7479410554,52.829895185194));
#998 = CARTESIAN_POINT('',(170.13071921327,53.165450902732));
#999 = CARTESIAN_POINT('',(178.8204101295,53.936169823333));
#1000 = CARTESIAN_POINT('',(183.12709814972,54.369702361252));
#1001 = CARTESIAN_POINT('',(187.42814877847,54.860263287545));
#1002 = CARTESIAN_POINT('',(191.72193952631,55.414834769568));
#1003 = CARTESIAN_POINT('',(196.00612716281,56.041390251679));
#1004 = CARTESIAN_POINT('',(200.27768889263,56.748625562844));
#1005 = CARTESIAN_POINT('',(204.5329897034,57.545501848375));
#1006 = CARTESIAN_POINT('',(213.18062324773,59.373255613663));
#1007 = CARTESIAN_POINT('',(217.57144474137,60.412606806405));
#1008 = CARTESIAN_POINT('',(221.93456305884,61.568118031738));
#1009 = CARTESIAN_POINT('',(226.26352800525,62.848662998581));
#1010 = CARTESIAN_POINT('',(230.55148168928,64.261667500096));
#1011 = CARTESIAN_POINT('',(234.79144478615,65.812167844051));
#1012 = CARTESIAN_POINT('',(238.97653142726,67.502080992976));
#1013 = CARTESIAN_POINT('',(243.1,69.33));
#1014 = ( GEOMETRIC_REPRESENTATION_CONTEXT(2) 
PARAMETRIC_REPRESENTATION_CONTEXT() REPRESENTATION_CONTEXT('2D SPACE',''
  ) );
#1015 = PCURVE('',#402,#1016);
#1016 = DEFINITIONAL_REPRESENTATION('',(#1017),#1062);
#1017 = B_SPLINE_CURVE_WITH_KNOTS('',8,(#1018,#1019,#1020,#1021,#1022,
    #1023,#1024,#1025,#1026,#1027,#1028,#1029,#1030,#1031,#1032,#1033,
    #1034,#1035,#1036,#1037,#1038,#1039,#1040,#1041,#1042,#1043,#1044,
    #1045,#1046,#1047,#1048,#1049,#1050,#1051,#1052,#1053,#1054,#1055,
    #1056,#1057,#1058,#1059,#1060,#1061),.UNSPECIFIED.,.F.,.F.,(9,7,7,7,
    7,7,9),(0.,0.164479236779,0.392400981644,0.533119501051,
    0.688186151294,0.840886452156,1.),.UNSPECIFIED.);
#1018 = CARTESIAN_POINT('',(6.5,0.));
#1019 = CARTESIAN_POINT('',(6.5,2.041351776982E-02));
#1020 = CARTESIAN_POINT('',(6.5,4.107878037762E-02));
#1021 = CARTESIAN_POINT('',(6.5,6.189483613143E-02));
#1022 = CARTESIAN_POINT('',(6.5,8.277951638356E-02));
#1023 = CARTESIAN_POINT('',(6.5,0.10366894032));
#1024 = CARTESIAN_POINT('',(6.5,0.124517355587));
#1025 = CARTESIAN_POINT('',(6.5,0.145297284548));
#1026 = CARTESIAN_POINT('',(6.5,0.194688113598));
#1027 = CARTESIAN_POINT('',(6.5,0.223212917989));
#1028 = CARTESIAN_POINT('',(6.5,0.251582792941));
#1029 = CARTESIAN_POINT('',(6.5,0.279813869455));
#1030 = CARTESIAN_POINT('',(6.5,0.307930718082));
#1031 = CARTESIAN_POINT('',(6.5,0.335967744372));
#1032 = CARTESIAN_POINT('',(6.5,0.363970985235));
#1033 = CARTESIAN_POINT('',(6.5,0.409305068723));
#1034 = CARTESIAN_POINT('',(6.5,0.426613373884));
#1035 = CARTESIAN_POINT('',(6.5,0.44393446024));
#1036 = CARTESIAN_POINT('',(6.5,0.461276867136));
#1037 = CARTESIAN_POINT('',(6.5,0.478648242339));
#1038 = CARTESIAN_POINT('',(6.5,0.496055396139));
#1039 = CARTESIAN_POINT('',(6.5,0.513504295753));
#1040 = CARTESIAN_POINT('',(6.5,0.550279624762));
#1041 = CARTESIAN_POINT('',(6.5,0.569615120143));
#1042 = CARTESIAN_POINT('',(6.5,0.589013443016));
#1043 = CARTESIAN_POINT('',(6.5,0.608478955444));
#1044 = CARTESIAN_POINT('',(6.5,0.628013310295));
#1045 = CARTESIAN_POINT('',(6.5,0.647615200876));
#1046 = CARTESIAN_POINT('',(6.5,0.667280085766));
#1047 = CARTESIAN_POINT('',(6.5,0.706418984235));
#1048 = CARTESIAN_POINT('',(6.5,0.725889701895));
#1049 = CARTESIAN_POINT('',(6.5,0.745405087722));
#1050 = CARTESIAN_POINT('',(6.5,0.764952342706));
#1051 = CARTESIAN_POINT('',(6.5,0.78451272056));
#1052 = CARTESIAN_POINT('',(6.5,0.804061561915));
#1053 = CARTESIAN_POINT('',(6.5,0.823568779795));
#1054 = CARTESIAN_POINT('',(6.5,0.863247310374));
#1055 = CARTESIAN_POINT('',(6.5,0.883413204548));
#1056 = CARTESIAN_POINT('',(6.5,0.903453840415));
#1057 = CARTESIAN_POINT('',(6.5,0.923320009301));
#1058 = CARTESIAN_POINT('',(6.5,0.942959205));
#1059 = CARTESIAN_POINT('',(6.5,0.962318581855));
#1060 = CARTESIAN_POINT('',(6.5,0.981347705519));
#1061 = CARTESIAN_POINT('',(6.5,1.));
#1062 = ( GEOMETRIC_REPRESENTATION_CONTEXT(2) 
PARAMETRIC_REPRESENTATION_CONTEXT() REPRESENTATION_CONTEXT('2D SPACE',''
  ) );
#1063 = ORIENTED_EDGE('',*,*,#420,.T.);
#1064 = ORIENTED_EDGE('',*,*,#770,.T.);
#1065 = ORIENTED_EDGE('',*,*,#698,.F.);
#1066 = ADVANCED_FACE('',(#1067),#402,.F.);
#1067 = FACE_BOUND('',#1068,.F.);
#1068 = EDGE_LOOP('',(#1069,#1070,#1071,#1094));
#1069 = ORIENTED_EDGE('',*,*,#920,.F.);
#1070 = ORIENTED_EDGE('',*,*,#388,.T.);
#1071 = ORIENTED_EDGE('',*,*,#1072,.T.);
#1072 = EDGE_CURVE('',#357,#657,#1073,.T.);
#1073 = SURFACE_CURVE('',#1074,(#1080,#1087),.PCURVE_S1.);
#1074 = ( BOUNDED_CURVE() B_SPLINE_CURVE(4,(#1075,#1076,#1077,#1078,
#1079),.UNSPECIFIED.,.F.,.F.) B_SPLINE_CURVE_WITH_KNOTS((5,5),(0.,1.),
.PIECEWISE_BEZIER_KNOTS.) CURVE() GEOMETRIC_REPRESENTATION_ITEM() 
RATIONAL_B_SPLINE_CURVE((1.,1.,1.,1.,1.)) REPRESENTATION_ITEM('') );
#1075 = CARTESIAN_POINT('',(-26.7,-11.124,-110.5));
#1076 = CARTESIAN_POINT('',(-58.5851584109,-25.38536176196,
    -63.10827354218));
#1077 = CARTESIAN_POINT('',(-42.00606293637,-17.96998451336,
    4.510285114236));
#1078 = CARTESIAN_POINT('',(-54.16992156329,-23.41054673558,
    55.23242183461));
#1079 = CARTESIAN_POINT('',(-29.67,-12.4524,110.5));
#1080 = PCURVE('',#402,#1081);
#1081 = DEFINITIONAL_REPRESENTATION('',(#1082),#1086);
#1082 = LINE('',#1083,#1084);
#1083 = CARTESIAN_POINT('',(7.,0.));
#1084 = VECTOR('',#1085,1.);
#1085 = DIRECTION('',(0.,1.));
#1086 = ( GEOMETRIC_REPRESENTATION_CONTEXT(2) 
PARAMETRIC_REPRESENTATION_CONTEXT() REPRESENTATION_CONTEXT('2D SPACE',''
  ) );
#1087 = PCURVE('',#370,#1088);
#1088 = DEFINITIONAL_REPRESENTATION('',(#1089),#1093);
#1089 = LINE('',#1090,#1091);
#1090 = CARTESIAN_POINT('',(7.,0.));
#1091 = VECTOR('',#1092,1.);
#1092 = DIRECTION('',(0.,1.));
#1093 = ( GEOMETRIC_REPRESENTATION_CONTEXT(2) 
PARAMETRIC_REPRESENTATION_CONTEXT() REPRESENTATION_CONTEXT('2D SPACE',''
  ) );
#1094 = ORIENTED_EDGE('',*,*,#677,.F.);
#1095 = ADVANCED_FACE('',(#1096),#370,.F.);
#1096 = FACE_BOUND('',#1097,.F.);
#1097 = EDGE_LOOP('',(#1098,#1099,#1122,#1123));
#1098 = ORIENTED_EDGE('',*,*,#356,.T.);
#1099 = ORIENTED_EDGE('',*,*,#1100,.T.);
#1100 = EDGE_CURVE('',#325,#636,#1101,.T.);
#1101 = SURFACE_CURVE('',#1102,(#1108,#1115),.PCURVE_S1.);
#1102 = ( BOUNDED_CURVE() B_SPLINE_CURVE(4,(#1103,#1104,#1105,#1106,
#1107),.UNSPECIFIED.,.F.,.F.) B_SPLINE_CURVE_WITH_KNOTS((5,5),(0.,1.),
.PIECEWISE_BEZIER_KNOTS.) CURVE() GEOMETRIC_REPRESENTATION_ITEM() 
RATIONAL_B_SPLINE_CURVE((1.,1.,1.,1.,1.)) REPRESENTATION_ITEM('') );
#1103 = CARTESIAN_POINT('',(-19.224,-18.6,-110.5));
#1104 = CARTESIAN_POINT('',(-42.18131405584,-41.78920611701,
    -63.10827354218));
#1105 = CARTESIAN_POINT('',(-30.24436531419,-29.73168213554,
    4.510285114236));
#1106 = CARTESIAN_POINT('',(-39.00234352556,-38.5781247733,
    55.23242183461));
#1107 = CARTESIAN_POINT('',(-21.3624,-20.76,110.5));
#1108 = PCURVE('',#370,#1109);
#1109 = DEFINITIONAL_REPRESENTATION('',(#1110),#1114);
#1110 = LINE('',#1111,#1112);
#1111 = CARTESIAN_POINT('',(8.,0.));
#1112 = VECTOR('',#1113,1.);
#1113 = DIRECTION('',(0.,1.));
#1114 = ( GEOMETRIC_REPRESENTATION_CONTEXT(2) 
PARAMETRIC_REPRESENTATION_CONTEXT() REPRESENTATION_CONTEXT('2D SPACE',''
  ) );
#1115 = PCURVE('',#338,#1116);
#1116 = DEFINITIONAL_REPRESENTATION('',(#1117),#1121);
#1117 = LINE('',#1118,#1119);
#1118 = CARTESIAN_POINT('',(0.,0.));
#1119 = VECTOR('',#1120,1.);
#1120 = DIRECTION('',(0.,1.));
#1121 = ( GEOMETRIC_REPRESENTATION_CONTEXT(2) 
PARAMETRIC_REPRESENTATION_CONTEXT() REPRESENTATION_CONTEXT('2D SPACE',''
  ) );
#1122 = ORIENTED_EDGE('',*,*,#656,.F.);
#1123 = ORIENTED_EDGE('',*,*,#1072,.F.);
#1124 = ADVANCED_FACE('',(#1125),#338,.F.);
#1125 = FACE_BOUND('',#1126,.F.);
#1126 = EDGE_LOOP('',(#1127,#1128,#1151,#1152));
#1127 = ORIENTED_EDGE('',*,*,#324,.T.);
#1128 = ORIENTED_EDGE('',*,*,#1129,.T.);
#1129 = EDGE_CURVE('',#293,#615,#1130,.T.);
#1130 = SURFACE_CURVE('',#1131,(#1137,#1144),.PCURVE_S1.);
#1131 = ( BOUNDED_CURVE() B_SPLINE_CURVE(4,(#1132,#1133,#1134,#1135,
#1136),.UNSPECIFIED.,.F.,.F.) B_SPLINE_CURVE_WITH_KNOTS((5,5),(0.,1.),
.PIECEWISE_BEZIER_KNOTS.) CURVE() GEOMETRIC_REPRESENTATION_ITEM() 
RATIONAL_B_SPLINE_CURVE((1.,1.,1.,1.,1.)) REPRESENTATION_ITEM('') );
#1132 = CARTESIAN_POINT('',(19.224,-18.6,-110.5));
#1133 = CARTESIAN_POINT('',(42.181314055848,-41.78920611701,
    -63.10827354218));
#1134 = CARTESIAN_POINT('',(30.244365314191,-29.73168213554,
    4.510285114236));
#1135 = CARTESIAN_POINT('',(39.002343525569,-38.5781247733,
    55.23242183461));
#1136 = CARTESIAN_POINT('',(21.3624,-20.76,110.5));
#1137 = PCURVE('',#338,#1138);
#1138 = DEFINITIONAL_REPRESENTATION('',(#1139),#1143);
#1139 = LINE('',#1140,#1141);
#1140 = CARTESIAN_POINT('',(1.,0.));
#1141 = VECTOR('',#1142,1.);
#1142 = DIRECTION('',(0.,1.));
#1143 = ( GEOMETRIC_REPRESENTATION_CONTEXT(2) 
PARAMETRIC_REPRESENTATION_CONTEXT() REPRESENTATION_CONTEXT('2D SPACE',''
  ) );
#1144 = PCURVE('',#306,#1145);
#1145 = DEFINITIONAL_REPRESENTATION('',(#1146),#1150);
#1146 = LINE('',#1147,#1148);
#1147 = CARTESIAN_POINT('',(1.,0.));
#1148 = VECTOR('',#1149,1.);
#1149 = DIRECTION('',(0.,1.));
#1150 = ( GEOMETRIC_REPRESENTATION_CONTEXT(2) 
PARAMETRIC_REPRESENTATION_CONTEXT() REPRESENTATION_CONTEXT('2D SPACE',''
  ) );
#1151 = ORIENTED_EDGE('',*,*,#635,.F.);
#1152 = ORIENTED_EDGE('',*,*,#1100,.F.);
#1153 = ADVANCED_FACE('',(#1154),#306,.F.);
#1154 = FACE_BOUND('',#1155,.F.);
#1155 = EDGE_LOOP('',(#1156,#1157,#1180,#1181));
#1156 = ORIENTED_EDGE('',*,*,#292,.T.);
#1157 = ORIENTED_EDGE('',*,*,#1158,.T.);
#1158 = EDGE_CURVE('',#261,#594,#1159,.T.);
#1159 = SURFACE_CURVE('',#1160,(#1166,#1173),.PCURVE_S1.);
#1160 = ( BOUNDED_CURVE() B_SPLINE_CURVE(4,(#1161,#1162,#1163,#1164,
#1165),.UNSPECIFIED.,.F.,.F.) B_SPLINE_CURVE_WITH_KNOTS((5,5),(0.,1.),
.PIECEWISE_BEZIER_KNOTS.) CURVE() GEOMETRIC_REPRESENTATION_ITEM() 
RATIONAL_B_SPLINE_CURVE((1.,1.,1.,1.,1.)) REPRESENTATION_ITEM('') );
#1161 = CARTESIAN_POINT('',(26.7,-11.124,-110.5));
#1162 = CARTESIAN_POINT('',(58.5851584109,-25.38536176196,
    -63.10827354218));
#1163 = CARTESIAN_POINT('',(42.006062936376,-17.96998451336,
    4.510285114236));
#1164 = CARTESIAN_POINT('',(54.16992156329,-23.41054673558,
    55.23242183461));
#1165 = CARTESIAN_POINT('',(29.67,-12.4524,110.5));
#1166 = PCURVE('',#306,#1167);
#1167 = DEFINITIONAL_REPRESENTATION('',(#1168),#1172);
#1168 = LINE('',#1169,#1170);
#1169 = CARTESIAN_POINT('',(2.,0.));
#1170 = VECTOR('',#1171,1.);
#1171 = DIRECTION('',(0.,1.));
#1172 = ( GEOMETRIC_REPRESENTATION_CONTEXT(2) 
PARAMETRIC_REPRESENTATION_CONTEXT() REPRESENTATION_CONTEXT('2D SPACE',''
  ) );
#1173 = PCURVE('',#274,#1174);
#1174 = DEFINITIONAL_REPRESENTATION('',(#1175),#1179);
#1175 = LINE('',#1176,#1177);
#1176 = CARTESIAN_POINT('',(2.,0.));
#1177 = VECTOR('',#1178,1.);
#1178 = DIRECTION('',(0.,1.));
#1179 = ( GEOMETRIC_REPRESENTATION_CONTEXT(2) 
PARAMETRIC_REPRESENTATION_CONTEXT() REPRESENTATION_CONTEXT('2D SPACE',''
  ) );
#1180 = ORIENTED_EDGE('',*,*,#614,.F.);
#1181 = ORIENTED_EDGE('',*,*,#1129,.F.);
#1182 = ADVANCED_FACE('',(#1183),#274,.F.);
#1183 = FACE_BOUND('',#1184,.F.);
#1184 = EDGE_LOOP('',(#1185,#1186,#1187,#1331));
#1185 = ORIENTED_EDGE('',*,*,#1158,.F.);
#1186 = ORIENTED_EDGE('',*,*,#260,.T.);
#1187 = ORIENTED_EDGE('',*,*,#1188,.T.);
#1188 = EDGE_CURVE('',#235,#573,#1189,.T.);
#1189 = SURFACE_CURVE('',#1190,(#1235,#1283),.PCURVE_S1.);
#1190 = B_SPLINE_CURVE_WITH_KNOTS('',8,(#1191,#1192,#1193,#1194,#1195,
    #1196,#1197,#1198,#1199,#1200,#1201,#1202,#1203,#1204,#1205,#1206,
    #1207,#1208,#1209,#1210,#1211,#1212,#1213,#1214,#1215,#1216,#1217,
    #1218,#1219,#1220,#1221,#1222,#1223,#1224,#1225,#1226,#1227,#1228,
    #1229,#1230,#1231,#1232,#1233,#1234),.UNSPECIFIED.,.F.,.F.,(9,7,7,7,
    7,7,9),(0.,0.164479236779,0.392400981642,0.53311950105,
    0.688186151292,0.840886452154,1.),.UNSPECIFIED.);
#1191 = CARTESIAN_POINT('',(26.7,0.,-110.5));
#1192 = CARTESIAN_POINT('',(29.303552991255,0.,-106.6302725992));
#1193 = CARTESIAN_POINT('',(31.662245350903,0.,-102.5972284078));
#1194 = CARTESIAN_POINT('',(33.775264147275,0.,-98.42656331914));
#1195 = CARTESIAN_POINT('',(35.652703186985,0.,-94.14413267607));
#1196 = CARTESIAN_POINT('',(37.310978150143,0.,-89.7740091515));
#1197 = CARTESIAN_POINT('',(38.769167744593,0.,-85.33689299868));
#1198 = CARTESIAN_POINT('',(40.046938051494,0.,-80.84919695763));
#1199 = CARTESIAN_POINT('',(42.710124558855,0.,-70.04965947534));
#1200 = CARTESIAN_POINT('',(43.946146817471,0.,-63.70517275898));
#1201 = CARTESIAN_POINT('',(44.924004010121,0.,-57.31295922813));
#1202 = CARTESIAN_POINT('',(45.68840153522,0.,-50.89164447544));
#1203 = CARTESIAN_POINT('',(46.276303852091,0.,-44.45452557079));
#1204 = CARTESIAN_POINT('',(46.717585784834,0.,-38.00963582765));
#1205 = CARTESIAN_POINT('',(47.035687569028,0.,-31.55981613248));
#1206 = CARTESIAN_POINT('',(47.378878651869,0.,-21.1161664648));
#1207 = CARTESIAN_POINT('',(47.469460473816,0.,-17.12833905542));
#1208 = CARTESIAN_POINT('',(47.523701375787,0.,-13.13975195976));
#1209 = CARTESIAN_POINT('',(47.544813160102,0.,-9.150818801013));
#1210 = CARTESIAN_POINT('',(47.535193306665,0.,-5.161882431471));
#1211 = CARTESIAN_POINT('',(47.49645134487,0.,-1.173215321202));
#1212 = CARTESIAN_POINT('',(47.429406486096,0.,2.814980243674));
#1213 = CARTESIAN_POINT('',(47.228984345805,0.,11.196752269112));
#1214 = CARTESIAN_POINT('',(47.08954629711,0.,15.589979232951));
#1215 = CARTESIAN_POINT('',(46.915746923225,0.,19.98212053649));
#1216 = CARTESIAN_POINT('',(46.706390160581,0.,24.372859781695));
#1217 = CARTESIAN_POINT('',(46.459066613264,0.,28.76169596839));
#1218 = CARTESIAN_POINT('',(46.170104814815,0.,33.147941055297));
#1219 = CARTESIAN_POINT('',(45.834549097265,0.,37.530719213309));
#1220 = CARTESIAN_POINT('',(45.063830176667,0.,46.22041012951));
#1221 = CARTESIAN_POINT('',(44.630297638748,0.,50.527098149713));
#1222 = CARTESIAN_POINT('',(44.139736712459,0.,54.82814877847));
#1223 = CARTESIAN_POINT('',(43.585165230429,0.,59.121939526331));
#1224 = CARTESIAN_POINT('',(42.958609748317,0.,63.406127162817));
#1225 = CARTESIAN_POINT('',(42.251374437162,0.,67.677688892617));
#1226 = CARTESIAN_POINT('',(41.454498151622,0.,71.932989703414));
#1227 = CARTESIAN_POINT('',(39.626744386331,0.,80.580623247763));
#1228 = CARTESIAN_POINT('',(38.587393193616,0.,84.971444741296));
#1229 = CARTESIAN_POINT('',(37.43188196824,0.,89.334563058899));
#1230 = CARTESIAN_POINT('',(36.151337001418,0.,93.66352800527));
#1231 = CARTESIAN_POINT('',(34.738332499927,0.,97.951481689232));
#1232 = CARTESIAN_POINT('',(33.187832155931,0.,102.19144478618));
#1233 = CARTESIAN_POINT('',(31.497919007028,0.,106.37653142725));
#1234 = CARTESIAN_POINT('',(29.67,0.,110.5));
#1235 = PCURVE('',#274,#1236);
#1236 = DEFINITIONAL_REPRESENTATION('',(#1237),#1282);
#1237 = B_SPLINE_CURVE_WITH_KNOTS('',8,(#1238,#1239,#1240,#1241,#1242,
    #1243,#1244,#1245,#1246,#1247,#1248,#1249,#1250,#1251,#1252,#1253,
    #1254,#1255,#1256,#1257,#1258,#1259,#1260,#1261,#1262,#1263,#1264,
    #1265,#1266,#1267,#1268,#1269,#1270,#1271,#1272,#1273,#1274,#1275,
    #1276,#1277,#1278,#1279,#1280,#1281),.UNSPECIFIED.,.F.,.F.,(9,7,7,7,
    7,7,9),(0.,0.164479236779,0.392400981642,0.53311950105,
    0.688186151292,0.840886452154,1.),.UNSPECIFIED.);
#1238 = CARTESIAN_POINT('',(2.5,0.));
#1239 = CARTESIAN_POINT('',(2.5,2.04135177698E-02));
#1240 = CARTESIAN_POINT('',(2.5,4.107878037776E-02));
#1241 = CARTESIAN_POINT('',(2.5,6.189483613106E-02));
#1242 = CARTESIAN_POINT('',(2.5,8.277951638407E-02));
#1243 = CARTESIAN_POINT('',(2.5,0.10366894032));
#1244 = CARTESIAN_POINT('',(2.5,0.124517355587));
#1245 = CARTESIAN_POINT('',(2.5,0.145297284548));
#1246 = CARTESIAN_POINT('',(2.5,0.194688113598));
#1247 = CARTESIAN_POINT('',(2.5,0.223212917989));
#1248 = CARTESIAN_POINT('',(2.5,0.251582792941));
#1249 = CARTESIAN_POINT('',(2.5,0.279813869455));
#1250 = CARTESIAN_POINT('',(2.5,0.307930718082));
#1251 = CARTESIAN_POINT('',(2.5,0.335967744372));
#1252 = CARTESIAN_POINT('',(2.5,0.363970985235));
#1253 = CARTESIAN_POINT('',(2.5,0.409305068723));
#1254 = CARTESIAN_POINT('',(2.5,0.426613373884));
#1255 = CARTESIAN_POINT('',(2.5,0.44393446024));
#1256 = CARTESIAN_POINT('',(2.5,0.461276867136));
#1257 = CARTESIAN_POINT('',(2.5,0.478648242339));
#1258 = CARTESIAN_POINT('',(2.5,0.496055396139));
#1259 = CARTESIAN_POINT('',(2.5,0.513504295753));
#1260 = CARTESIAN_POINT('',(2.5,0.550279624762));
#1261 = CARTESIAN_POINT('',(2.5,0.569615120144));
#1262 = CARTESIAN_POINT('',(2.5,0.589013443015));
#1263 = CARTESIAN_POINT('',(2.5,0.608478955444));
#1264 = CARTESIAN_POINT('',(2.5,0.628013310296));
#1265 = CARTESIAN_POINT('',(2.5,0.647615200876));
#1266 = CARTESIAN_POINT('',(2.5,0.667280085766));
#1267 = CARTESIAN_POINT('',(2.5,0.706418984235));
#1268 = CARTESIAN_POINT('',(2.5,0.725889701895));
#1269 = CARTESIAN_POINT('',(2.5,0.745405087722));
#1270 = CARTESIAN_POINT('',(2.5,0.764952342706));
#1271 = CARTESIAN_POINT('',(2.5,0.78451272056));
#1272 = CARTESIAN_POINT('',(2.5,0.804061561915));
#1273 = CARTESIAN_POINT('',(2.5,0.823568779795));
#1274 = CARTESIAN_POINT('',(2.5,0.863247310374));
#1275 = CARTESIAN_POINT('',(2.5,0.883413204548));
#1276 = CARTESIAN_POINT('',(2.5,0.903453840415));
#1277 = CARTESIAN_POINT('',(2.5,0.923320009301));
#1278 = CARTESIAN_POINT('',(2.5,0.942959205));
#1279 = CARTESIAN_POINT('',(2.5,0.962318581855));
#1280 = CARTESIAN_POINT('',(2.5,0.981347705519));
#1281 = CARTESIAN_POINT('',(2.5,1.));
#1282 = ( GEOMETRIC_REPRESENTATION_CONTEXT(2) 
PARAMETRIC_REPRESENTATION_CONTEXT() REPRESENTATION_CONTEXT('2D SPACE',''
  ) );
#1283 = PCURVE('',#249,#1284);
#1284 = DEFINITIONAL_REPRESENTATION('',(#1285),#1330);
#1285 = B_SPLINE_CURVE_WITH_KNOTS('',8,(#1286,#1287,#1288,#1289,#1290,
    #1291,#1292,#1293,#1294,#1295,#1296,#1297,#1298,#1299,#1300,#1301,
    #1302,#1303,#1304,#1305,#1306,#1307,#1308,#1309,#1310,#1311,#1312,
    #1313,#1314,#1315,#1316,#1317,#1318,#1319,#1320,#1321,#1322,#1323,
    #1324,#1325,#1326,#1327,#1328,#1329),.UNSPECIFIED.,.F.,.F.,(9,7,7,7,
    7,7,9),(0.,0.164479236779,0.392400981642,0.53311950105,
    0.688186151292,0.840886452154,1.),.UNSPECIFIED.);
#1286 = CARTESIAN_POINT('',(22.1,125.7));
#1287 = CARTESIAN_POINT('',(25.969727400752,128.30355299125));
#1288 = CARTESIAN_POINT('',(30.002771592139,130.6622453509));
#1289 = CARTESIAN_POINT('',(34.173436680852,132.77526414727));
#1290 = CARTESIAN_POINT('',(38.45586732393,134.65270318698));
#1291 = CARTESIAN_POINT('',(42.8259908485,136.31097815014));
#1292 = CARTESIAN_POINT('',(47.263107001317,137.76916774459));
#1293 = CARTESIAN_POINT('',(51.750803042365,139.04693805149));
#1294 = CARTESIAN_POINT('',(62.550340524658,141.71012455885));
#1295 = CARTESIAN_POINT('',(68.894827241014,142.94614681747));
#1296 = CARTESIAN_POINT('',(75.287040771867,143.92400401012));
#1297 = CARTESIAN_POINT('',(81.708355524554,144.68840153522));
#1298 = CARTESIAN_POINT('',(88.145474429202,145.27630385209));
#1299 = CARTESIAN_POINT('',(94.590364172341,145.71758578483));
#1300 = CARTESIAN_POINT('',(101.04018386751,146.03568756902));
#1301 = CARTESIAN_POINT('',(111.48383353519,146.37887865186));
#1302 = CARTESIAN_POINT('',(115.47166094457,146.46946047381));
#1303 = CARTESIAN_POINT('',(119.46024804024,146.52370137578));
#1304 = CARTESIAN_POINT('',(123.44918119898,146.5448131601));
#1305 = CARTESIAN_POINT('',(127.43811756852,146.53519330666));
#1306 = CARTESIAN_POINT('',(131.42678467879,146.49645134487));
#1307 = CARTESIAN_POINT('',(135.41498024367,146.42940648609));
#1308 = CARTESIAN_POINT('',(143.79675226911,146.2289843458));
#1309 = CARTESIAN_POINT('',(148.18997923295,146.08954629711));
#1310 = CARTESIAN_POINT('',(152.58212053649,145.91574692322));
#1311 = CARTESIAN_POINT('',(156.97285978169,145.70639016058));
#1312 = CARTESIAN_POINT('',(161.36169596839,145.45906661326));
#1313 = CARTESIAN_POINT('',(165.74794105529,145.17010481481));
#1314 = CARTESIAN_POINT('',(170.1307192133,144.83454909726));
#1315 = CARTESIAN_POINT('',(178.82041012951,144.06383017666));
#1316 = CARTESIAN_POINT('',(183.12709814971,143.63029763874));
#1317 = CARTESIAN_POINT('',(187.42814877847,143.13973671245));
#1318 = CARTESIAN_POINT('',(191.72193952633,142.58516523042));
#1319 = CARTESIAN_POINT('',(196.00612716281,141.95860974831));
#1320 = CARTESIAN_POINT('',(200.27768889261,141.25137443716));
#1321 = CARTESIAN_POINT('',(204.53298970341,140.45449815162));
#1322 = CARTESIAN_POINT('',(213.18062324776,138.62674438633));
#1323 = CARTESIAN_POINT('',(217.57144474129,137.58739319361));
#1324 = CARTESIAN_POINT('',(221.93456305889,136.43188196824));
#1325 = CARTESIAN_POINT('',(226.26352800527,135.15133700141));
#1326 = CARTESIAN_POINT('',(230.55148168923,133.73833249992));
#1327 = CARTESIAN_POINT('',(234.79144478618,132.18783215593));
#1328 = CARTESIAN_POINT('',(238.97653142725,130.49791900702));
#1329 = CARTESIAN_POINT('',(243.1,128.67));
#1330 = ( GEOMETRIC_REPRESENTATION_CONTEXT(2) 
PARAMETRIC_REPRESENTATION_CONTEXT() REPRESENTATION_CONTEXT('2D SPACE',''
  ) );
#1331 = ORIENTED_EDGE('',*,*,#593,.F.);
#1332 = ADVANCED_FACE('',(#1333),#249,.T.);
#1333 = FACE_BOUND('',#1334,.T.);
#1334 = EDGE_LOOP('',(#1335,#1479,#1480,#1481));
#1335 = ORIENTED_EDGE('',*,*,#1336,.F.);
#1336 = EDGE_CURVE('',#203,#552,#1337,.T.);
#1337 = SURFACE_CURVE('',#1338,(#1383,#1431),.PCURVE_S1.);
#1338 = B_SPLINE_CURVE_WITH_KNOTS('',8,(#1339,#1340,#1341,#1342,#1343,
    #1344,#1345,#1346,#1347,#1348,#1349,#1350,#1351,#1352,#1353,#1354,
    #1355,#1356,#1357,#1358,#1359,#1360,#1361,#1362,#1363,#1364,#1365,
    #1366,#1367,#1368,#1369,#1370,#1371,#1372,#1373,#1374,#1375,#1376,
    #1377,#1378,#1379,#1380,#1381,#1382),.UNSPECIFIED.,.F.,.F.,(9,7,7,7,
    7,7,9),(0.,0.164479236779,0.392400981643,0.533119501051,
    0.688186151292,0.840886452156,1.),.UNSPECIFIED.);
#1339 = CARTESIAN_POINT('',(29.7,0.,-110.5));
#1340 = CARTESIAN_POINT('',(32.303552991257,0.,-106.6302725992));
#1341 = CARTESIAN_POINT('',(34.662245350896,0.,-102.5972284078));
#1342 = CARTESIAN_POINT('',(36.775264147288,0.,-98.4265633191));
#1343 = CARTESIAN_POINT('',(38.652703186971,0.,-94.14413267613));
#1344 = CARTESIAN_POINT('',(40.310978150153,0.,-89.77400915144));
#1345 = CARTESIAN_POINT('',(41.769167744588,0.,-85.33689299871));
#1346 = CARTESIAN_POINT('',(43.046938051496,0.,-80.84919695762));
#1347 = CARTESIAN_POINT('',(45.710124558851,0.,-70.04965947535));
#1348 = CARTESIAN_POINT('',(46.946146817479,0.,-63.70517275894));
#1349 = CARTESIAN_POINT('',(47.924004010116,0.,-57.31295922817));
#1350 = CARTESIAN_POINT('',(48.688401535218,0.,-50.89164447544));
#1351 = CARTESIAN_POINT('',(49.276303852097,0.,-44.45452557075));
#1352 = CARTESIAN_POINT('',(49.71758578483,0.,-38.00963582769));
#1353 = CARTESIAN_POINT('',(50.035687569028,0.,-31.55981613247));
#1354 = CARTESIAN_POINT('',(50.378878651869,0.,-21.1161664648));
#1355 = CARTESIAN_POINT('',(50.469460473816,0.,-17.12833905543));
#1356 = CARTESIAN_POINT('',(50.523701375787,0.,-13.13975195976));
#1357 = CARTESIAN_POINT('',(50.544813160101,0.,-9.150818801008));
#1358 = CARTESIAN_POINT('',(50.535193306665,0.,-5.161882431471));
#1359 = CARTESIAN_POINT('',(50.49645134487,0.,-1.173215321207));
#1360 = CARTESIAN_POINT('',(50.429406486096,0.,2.814980243677));
#1361 = CARTESIAN_POINT('',(50.228984345805,0.,11.196752269082));
#1362 = CARTESIAN_POINT('',(50.089546297108,0.,15.589979233027));
#1363 = CARTESIAN_POINT('',(49.915746923227,0.,19.982120536429));
#1364 = CARTESIAN_POINT('',(49.706390160581,0.,24.372859781676));
#1365 = CARTESIAN_POINT('',(49.459066613262,0.,28.761695968451));
#1366 = CARTESIAN_POINT('',(49.170104814817,0.,33.147941055262));
#1367 = CARTESIAN_POINT('',(48.834549097264,0.,37.530719213315));
#1368 = CARTESIAN_POINT('',(48.063830176663,0.,46.220410129547));
#1369 = CARTESIAN_POINT('',(47.630297638759,0.,50.52709814961));
#1370 = CARTESIAN_POINT('',(47.139736712443,0.,54.82814877858));
#1371 = CARTESIAN_POINT('',(46.585165230433,0.,59.121939526327));
#1372 = CARTESIAN_POINT('',(45.958609748333,0.,63.406127162705));
#1373 = CARTESIAN_POINT('',(45.251374437142,0.,67.677688892728));
#1374 = CARTESIAN_POINT('',(44.454498151631,0.,71.932989703374));
#1375 = CARTESIAN_POINT('',(42.62674438634,0.,80.580623247718));
#1376 = CARTESIAN_POINT('',(41.587393193584,0.,84.971444741426));
#1377 = CARTESIAN_POINT('',(40.431881968277,0.,89.334563058771));
#1378 = CARTESIAN_POINT('',(39.151337001416,0.,93.663528005256));
#1379 = CARTESIAN_POINT('',(37.738332499889,0.,97.95148168936));
#1380 = CARTESIAN_POINT('',(36.187832155967,0.,102.19144478608));
#1381 = CARTESIAN_POINT('',(34.497919007016,0.,106.37653142728));
#1382 = CARTESIAN_POINT('',(32.67,0.,110.5));
#1383 = PCURVE('',#249,#1384);
#1384 = DEFINITIONAL_REPRESENTATION('',(#1385),#1430);
#1385 = B_SPLINE_CURVE_WITH_KNOTS('',8,(#1386,#1387,#1388,#1389,#1390,
    #1391,#1392,#1393,#1394,#1395,#1396,#1397,#1398,#1399,#1400,#1401,
    #1402,#1403,#1404,#1405,#1406,#1407,#1408,#1409,#1410,#1411,#1412,
    #1413,#1414,#1415,#1416,#1417,#1418,#1419,#1420,#1421,#1422,#1423,
    #1424,#1425,#1426,#1427,#1428,#1429),.UNSPECIFIED.,.F.,.F.,(9,7,7,7,
    7,7,9),(0.,0.164479236779,0.392400981643,0.533119501051,
    0.688186151292,0.840886452156,1.),.UNSPECIFIED.);
#1386 = CARTESIAN_POINT('',(22.1,128.7));
#1387 = CARTESIAN_POINT('',(25.969727400755,131.30355299125));
#1388 = CARTESIAN_POINT('',(30.002771592122,133.66224535089));
#1389 = CARTESIAN_POINT('',(34.173436680898,135.77526414728));
#1390 = CARTESIAN_POINT('',(38.455867323864,137.65270318697));
#1391 = CARTESIAN_POINT('',(42.825990848556,139.31097815015));
#1392 = CARTESIAN_POINT('',(47.26310700129,140.76916774458));
#1393 = CARTESIAN_POINT('',(51.750803042371,142.04693805149));
#1394 = CARTESIAN_POINT('',(62.550340524644,144.71012455885));
#1395 = CARTESIAN_POINT('',(68.894827241055,145.94614681747));
#1396 = CARTESIAN_POINT('',(75.287040771826,146.92400401011));
#1397 = CARTESIAN_POINT('',(81.708355524554,147.68840153521));
#1398 = CARTESIAN_POINT('',(88.145474429243,148.27630385209));
#1399 = CARTESIAN_POINT('',(94.590364172302,148.71758578483));
#1400 = CARTESIAN_POINT('',(101.04018386752,149.03568756902));
#1401 = CARTESIAN_POINT('',(111.48383353519,149.37887865186));
#1402 = CARTESIAN_POINT('',(115.47166094456,149.46946047381));
#1403 = CARTESIAN_POINT('',(119.46024804023,149.52370137578));
#1404 = CARTESIAN_POINT('',(123.44918119899,149.5448131601));
#1405 = CARTESIAN_POINT('',(127.43811756852,149.53519330666));
#1406 = CARTESIAN_POINT('',(131.42678467879,149.49645134487));
#1407 = CARTESIAN_POINT('',(135.41498024367,149.42940648609));
#1408 = CARTESIAN_POINT('',(143.79675226908,149.2289843458));
#1409 = CARTESIAN_POINT('',(148.18997923302,149.0895462971));
#1410 = CARTESIAN_POINT('',(152.58212053642,148.91574692322));
#1411 = CARTESIAN_POINT('',(156.97285978167,148.70639016058));
#1412 = CARTESIAN_POINT('',(161.36169596845,148.45906661326));
#1413 = CARTESIAN_POINT('',(165.74794105526,148.17010481481));
#1414 = CARTESIAN_POINT('',(170.13071921331,147.83454909726));
#1415 = CARTESIAN_POINT('',(178.82041012954,147.06383017666));
#1416 = CARTESIAN_POINT('',(183.12709814961,146.63029763875));
#1417 = CARTESIAN_POINT('',(187.42814877858,146.13973671244));
#1418 = CARTESIAN_POINT('',(191.72193952632,145.58516523043));
#1419 = CARTESIAN_POINT('',(196.0061271627,144.95860974833));
#1420 = CARTESIAN_POINT('',(200.27768889272,144.25137443714));
#1421 = CARTESIAN_POINT('',(204.53298970337,143.45449815163));
#1422 = CARTESIAN_POINT('',(213.18062324771,141.62674438634));
#1423 = CARTESIAN_POINT('',(217.57144474142,140.58739319358));
#1424 = CARTESIAN_POINT('',(221.93456305877,139.43188196827));
#1425 = CARTESIAN_POINT('',(226.26352800525,138.15133700141));
#1426 = CARTESIAN_POINT('',(230.55148168936,136.73833249988));
#1427 = CARTESIAN_POINT('',(234.79144478608,135.18783215596));
#1428 = CARTESIAN_POINT('',(238.97653142728,133.49791900701));
#1429 = CARTESIAN_POINT('',(243.1,131.67));
#1430 = ( GEOMETRIC_REPRESENTATION_CONTEXT(2) 
PARAMETRIC_REPRESENTATION_CONTEXT() REPRESENTATION_CONTEXT('2D SPACE',''
  ) );
#1431 = PCURVE('',#216,#1432);
#1432 = DEFINITIONAL_REPRESENTATION('',(#1433),#1478);
#1433 = B_SPLINE_CURVE_WITH_KNOTS('',8,(#1434,#1435,#1436,#1437,#1438,
    #1439,#1440,#1441,#1442,#1443,#1444,#1445,#1446,#1447,#1448,#1449,
    #1450,#1451,#1452,#1453,#1454,#1455,#1456,#1457,#1458,#1459,#1460,
    #1461,#1462,#1463,#1464,#1465,#1466,#1467,#1468,#1469,#1470,#1471,
    #1472,#1473,#1474,#1475,#1476,#1477),.UNSPECIFIED.,.F.,.F.,(9,7,7,7,
    7,7,9),(0.,0.164479236779,0.392400981643,0.533119501051,
    0.688186151292,0.840886452156,1.),.UNSPECIFIED.);
#1434 = CARTESIAN_POINT('',(2.5,0.));
#1435 = CARTESIAN_POINT('',(2.5,2.041351776982E-02));
#1436 = CARTESIAN_POINT('',(2.5,4.107878037767E-02));
#1437 = CARTESIAN_POINT('',(2.5,6.18948361313E-02));
#1438 = CARTESIAN_POINT('',(2.5,8.277951638374E-02));
#1439 = CARTESIAN_POINT('',(2.5,0.10366894032));
#1440 = CARTESIAN_POINT('',(2.5,0.124517355587));
#1441 = CARTESIAN_POINT('',(2.5,0.145297284548));
#1442 = CARTESIAN_POINT('',(2.5,0.194688113598));
#1443 = CARTESIAN_POINT('',(2.5,0.223212917989));
#1444 = CARTESIAN_POINT('',(2.5,0.251582792941));
#1445 = CARTESIAN_POINT('',(2.5,0.279813869455));
#1446 = CARTESIAN_POINT('',(2.5,0.307930718082));
#1447 = CARTESIAN_POINT('',(2.5,0.335967744372));
#1448 = CARTESIAN_POINT('',(2.5,0.363970985235));
#1449 = CARTESIAN_POINT('',(2.5,0.409305068723));
#1450 = CARTESIAN_POINT('',(2.5,0.426613373884));
#1451 = CARTESIAN_POINT('',(2.5,0.44393446024));
#1452 = CARTESIAN_POINT('',(2.5,0.461276867136));
#1453 = CARTESIAN_POINT('',(2.5,0.478648242339));
#1454 = CARTESIAN_POINT('',(2.5,0.496055396139));
#1455 = CARTESIAN_POINT('',(2.5,0.513504295753));
#1456 = CARTESIAN_POINT('',(2.5,0.550279624762));
#1457 = CARTESIAN_POINT('',(2.5,0.569615120144));
#1458 = CARTESIAN_POINT('',(2.5,0.589013443015));
#1459 = CARTESIAN_POINT('',(2.5,0.608478955444));
#1460 = CARTESIAN_POINT('',(2.5,0.628013310296));
#1461 = CARTESIAN_POINT('',(2.5,0.647615200876));
#1462 = CARTESIAN_POINT('',(2.5,0.667280085766));
#1463 = CARTESIAN_POINT('',(2.5,0.706418984235));
#1464 = CARTESIAN_POINT('',(2.5,0.725889701895));
#1465 = CARTESIAN_POINT('',(2.5,0.745405087723));
#1466 = CARTESIAN_POINT('',(2.5,0.764952342706));
#1467 = CARTESIAN_POINT('',(2.5,0.78451272056));
#1468 = CARTESIAN_POINT('',(2.5,0.804061561916));
#1469 = CARTESIAN_POINT('',(2.5,0.823568779795));
#1470 = CARTESIAN_POINT('',(2.5,0.863247310374));
#1471 = CARTESIAN_POINT('',(2.5,0.883413204548));
#1472 = CARTESIAN_POINT('',(2.5,0.903453840414));
#1473 = CARTESIAN_POINT('',(2.5,0.923320009301));
#1474 = CARTESIAN_POINT('',(2.5,0.942959205));
#1475 = CARTESIAN_POINT('',(2.5,0.962318581854));
#1476 = CARTESIAN_POINT('',(2.5,0.981347705519));
#1477 = CARTESIAN_POINT('',(2.5,1.));
#1478 = ( GEOMETRIC_REPRESENTATION_CONTEXT(2) 
PARAMETRIC_REPRESENTATION_CONTEXT() REPRESENTATION_CONTEXT('2D SPACE',''
  ) );
#1479 = ORIENTED_EDGE('',*,*,#234,.T.);
#1480 = ORIENTED_EDGE('',*,*,#1188,.T.);
#1481 = ORIENTED_EDGE('',*,*,#572,.F.);
#1482 = ADVANCED_FACE('',(#1483),#216,.T.);
#1483 = FACE_BOUND('',#1484,.T.);
#1484 = EDGE_LOOP('',(#1485,#1486,#1487,#1488));
#1485 = ORIENTED_EDGE('',*,*,#480,.F.);
#1486 = ORIENTED_EDGE('',*,*,#202,.T.);
#1487 = ORIENTED_EDGE('',*,*,#1336,.T.);
#1488 = ORIENTED_EDGE('',*,*,#551,.F.);
#1489 = ( GEOMETRIC_REPRESENTATION_CONTEXT(3) 
GLOBAL_UNCERTAINTY_ASSIGNED_CONTEXT((#1493)) 
GLOBAL_UNIT_ASSIGNED_CONTEXT((#1490,#1491,#1492)) REPRESENTATION_CONTEXT
('Context #1','3D Context with UNIT and UNCERTAINTY') );
#1490 = ( LENGTH_UNIT() NAMED_UNIT(*) SI_UNIT(.MILLI.,.METRE.) );
#1491 = ( NAMED_UNIT(*) PLANE_ANGLE_UNIT() SI_UNIT($,.RADIAN.) );
#1492 = ( NAMED_UNIT(*) SI_UNIT($,.STERADIAN.) SOLID_ANGLE_UNIT() );
#1493 = UNCERTAINTY_MEASURE_WITH_UNIT(LENGTH_MEASURE(1.E-06),#1490,
  'distance_accuracy_value','confusion accuracy');
#1494 = PRODUCT_RELATED_PRODUCT_CATEGORY('part',$,(#7));
ENDSEC;
END-ISO-10303-21;
