ISO-10303-21;
HEADER;
FILE_DESCRIPTION(('Open CASCADE Model'),'2;1');
FILE_NAME('Open CASCADE Shape Model','2026-09-05T05:20:55',('Author'),(
    'Open CASCADE'),'Open CASCADE STEP processor 7.8','Open CASCADE 7.8'
  ,'Unknown');
FILE_SCHEMA(('AUTOMOTIVE_DESIGN { 1 0 10303 214 1 1 1 1 }'));
ENDSEC;
DATA;
#1 = APPLICATION_PROTOCOL_DEFINITION('international standard',
  'automotive_design',2000,#2);
#2 = APPLICATION_CONTEXT(
  'core data for automotive mechanical design processes');
#3 = SHAPE_DEFINITION_REPRESENTATION(#4,#10);
#4 = PRODUCT_DEFINITION_SHAPE('','',#5);
#5 = PRODUCT_DEFINITION('design','',#6,#9);
#6 = PRODUCT_DEFINITION_FORMATION('','',#7);
#7 = PRODUCT('Open CASCADE STEP translator 7.8 68',
  'Open CASCADE STEP translator 7.8 68','',(#8));
#8 = PRODUCT_CONTEXT('',#2,'mechanical');
#9 = PRODUCT_DEFINITION_CONTEXT('part definition',#2,'design');
#10 = ADVANCED_BREP_SHAPE_REPRESENTATION('',(#11,#15),#537);
#11 = AXIS2_PLACEMENT_3D('',#12,#13,#14);
#12 = CARTESIAN_POINT('',(0.,0.,0.));
#13 = DIRECTION('',(0.,0.,1.));
#14 = DIRECTION('',(1.,0.,-0.));
#15 = MANIFOLD_SOLID_BREP('',#16);
#16 = CLOSED_SHELL('',(#17,#233,#321,#409,#464,#530));
#17 = ADVANCED_FACE('',(#18),#34,.T.);
#18 = FACE_BOUND('',#19,.T.);
#19 = EDGE_LOOP('',(#20,#67,#134,#168));
#20 = ORIENTED_EDGE('',*,*,#21,.T.);
#21 = EDGE_CURVE('',#22,#24,#26,.T.);
#22 = VERTEX_POINT('',#23);
#23 = CARTESIAN_POINT('',(45.,-44.41007411998,45.));
#24 = VERTEX_POINT('',#25);
#25 = CARTESIAN_POINT('',(-45.,-44.41007411998,45.));
#26 = SURFACE_CURVE('',#27,(#33,#53),.PCURVE_S1.);
#27 = B_SPLINE_CURVE_WITH_KNOTS('',4,(#28,#29,#30,#31,#32),
  .UNSPECIFIED.,.F.,.F.,(5,5),(0.,1.),.PIECEWISE_BEZIER_KNOTS.);
#28 = CARTESIAN_POINT('',(45.,-44.41007411998,45.));
#29 = CARTESIAN_POINT('',(22.5,-44.41007411998,45.));
#30 = CARTESIAN_POINT('',(2.84217094304E-13,-44.41007411998,45.));
#31 = CARTESIAN_POINT('',(-22.5,-44.41007411998,45.));
#32 = CARTESIAN_POINT('',(-45.,-44.41007411998,45.));
#33 = PCURVE('',#34,#45);
#34 = ( BOUNDED_SURFACE() B_SPLINE_SURFACE(1,4,(
    (#35,#36,#37,#38,#39)
    ,(#40,#41,#42,#43,#44
)),.UNSPECIFIED.,.F.,.F.,.F.) B_SPLINE_SURFACE_WITH_KNOTS((2,2),(5,5),(
    0.,1.),(0.,1.),.PIECEWISE_BEZIER_KNOTS.) 
GEOMETRIC_REPRESENTATION_ITEM() RATIONAL_B_SPLINE_SURFACE((
    (1.,1.,1.,1.,1.)
,(1.,1.,1.,1.,1.))) REPRESENTATION_ITEM('') SURFACE() );
#35 = CARTESIAN_POINT('',(-33.696,-28.8,-79.));
#36 = CARTESIAN_POINT('',(-62.24873636705,-53.20404817696,
    -55.89428949229));
#37 = CARTESIAN_POINT('',(-61.26192134755,-52.36061653637,4.481661438521
    ));
#38 = CARTESIAN_POINT('',(-59.80129893929,-51.11222131563,
    43.275891913936));
#39 = CARTESIAN_POINT('',(-37.0656,-31.68,79.));
#40 = CARTESIAN_POINT('',(33.696,-28.8,-79.));
#41 = CARTESIAN_POINT('',(62.24873636705,-53.20404817696,-55.89428949229
    ));
#42 = CARTESIAN_POINT('',(61.261921347559,-52.36061653637,4.481661438521
    ));
#43 = CARTESIAN_POINT('',(59.801298939292,-51.11222131563,
    43.275891913936));
#44 = CARTESIAN_POINT('',(37.0656,-31.68,79.));
#45 = DEFINITIONAL_REPRESENTATION('',(#46),#52);
#46 = B_SPLINE_CURVE_WITH_KNOTS('',4,(#47,#48,#49,#50,#51),
  .UNSPECIFIED.,.F.,.F.,(5,5),(0.,1.),.PIECEWISE_BEZIER_KNOTS.);
#47 = CARTESIAN_POINT('',(0.933027181599,0.773297978423));
#48 = CARTESIAN_POINT('',(0.716513590799,0.773297978423));
#49 = CARTESIAN_POINT('',(0.5,0.773297978423));
#50 = CARTESIAN_POINT('',(0.283486409201,0.773297978423));
#51 = CARTESIAN_POINT('',(6.697281840127E-02,0.773297978423));
#52 = ( GEOMETRIC_REPRESENTATION_CONTEXT(2) 
PARAMETRIC_REPRESENTATION_CONTEXT() REPRESENTATION_CONTEXT('2D SPACE',''
  ) );
#53 = PCURVE('',#54,#59);
#54 = PLANE('',#55);
#55 = AXIS2_PLACEMENT_3D('',#56,#57,#58);
#56 = CARTESIAN_POINT('',(-45.,-142.,45.));
#57 = DIRECTION('',(0.,0.,1.));
#58 = DIRECTION('',(1.,0.,0.));
#59 = DEFINITIONAL_REPRESENTATION('',(#60),#66);
#60 = B_SPLINE_CURVE_WITH_KNOTS('',4,(#61,#62,#63,#64,#65),
  .UNSPECIFIED.,.F.,.F.,(5,5),(0.,1.),.PIECEWISE_BEZIER_KNOTS.);
#61 = CARTESIAN_POINT('',(90.,97.589925880011));
#62 = CARTESIAN_POINT('',(67.5,97.589925880011));
#63 = CARTESIAN_POINT('',(45.,97.589925880011));
#64 = CARTESIAN_POINT('',(22.5,97.589925880011));
#65 = CARTESIAN_POINT('',(0.,97.589925880011));
#66 = ( GEOMETRIC_REPRESENTATION_CONTEXT(2) 
PARAMETRIC_REPRESENTATION_CONTEXT() REPRESENTATION_CONTEXT('2D SPACE',''
  ) );
#67 = ORIENTED_EDGE('',*,*,#68,.T.);
#68 = EDGE_CURVE('',#24,#69,#71,.T.);
#69 = VERTEX_POINT('',#70);
#70 = CARTESIAN_POINT('',(-45.,-48.74758318589,-21.));
#71 = SURFACE_CURVE('',#72,(#89,#109),.PCURVE_S1.);
#72 = B_SPLINE_CURVE_WITH_KNOTS('',8,(#73,#74,#75,#76,#77,#78,#79,#80,
    #81,#82,#83,#84,#85,#86,#87,#88),.UNSPECIFIED.,.F.,.F.,(9,7,9),(0.,
    0.675273259426,1.),.UNSPECIFIED.);
#73 = CARTESIAN_POINT('',(-45.,-44.41007411998,45.));
#74 = CARTESIAN_POINT('',(-45.,-45.68777596362,39.542604447238));
#75 = CARTESIAN_POINT('',(-45.,-46.74973777617,34.036718777457));
#76 = CARTESIAN_POINT('',(-45.,-47.61530129598,28.494535453071));
#77 = CARTESIAN_POINT('',(-45.,-48.30255961555,22.926683297873));
#78 = CARTESIAN_POINT('',(-45.,-48.8252817597,17.34180472154));
#79 = CARTESIAN_POINT('',(-45.,-49.19294638559,11.746535040946));
#80 = CARTESIAN_POINT('',(-45.,-49.41070553602,6.14549250199));
#81 = CARTESIAN_POINT('',(-45.,-49.51100399201,-2.153807467903));
#82 = CARTESIAN_POINT('',(-45.,-49.50887442097,-4.849183138789));
#83 = CARTESIAN_POINT('',(-45.,-49.47204806684,-7.544474285806));
#84 = CARTESIAN_POINT('',(-45.,-49.40025087087,-10.23917261821));
#85 = CARTESIAN_POINT('',(-45.,-49.29293264282,-12.93271714466));
#86 = CARTESIAN_POINT('',(-45.,-49.14924482652,-15.62449319814));
#87 = CARTESIAN_POINT('',(-45.,-48.9679957251,-18.31383046246));
#88 = CARTESIAN_POINT('',(-45.,-48.74758318589,-21.));
#89 = PCURVE('',#34,#90);
#90 = DEFINITIONAL_REPRESENTATION('',(#91),#108);
#91 = B_SPLINE_CURVE_WITH_KNOTS('',8,(#92,#93,#94,#95,#96,#97,#98,#99,
    #100,#101,#102,#103,#104,#105,#106,#107),.UNSPECIFIED.,.F.,.F.,(9,7,
    9),(0.,0.675273259426,1.),.UNSPECIFIED.);
#92 = CARTESIAN_POINT('',(6.697281840127E-02,0.773297978423));
#93 = CARTESIAN_POINT('',(7.943124454074E-02,0.738987590404));
#94 = CARTESIAN_POINT('',(8.89668359139E-02,0.70513230326));
#95 = CARTESIAN_POINT('',(9.63462051571E-02,0.671782586687));
#96 = CARTESIAN_POINT('',(0.101991120202,0.638932724101));
#97 = CARTESIAN_POINT('',(0.10618182088,0.606539565814));
#98 = CARTESIAN_POINT('',(0.109085972376,0.5745362261));
#99 = CARTESIAN_POINT('',(0.1107982473,0.542834689599));
#100 = CARTESIAN_POINT('',(0.111586125357,0.496166200451));
#101 = CARTESIAN_POINT('',(0.111569005968,0.481057205122));
#102 = CARTESIAN_POINT('',(0.111280403337,0.465981982106));
#103 = CARTESIAN_POINT('',(0.110717411825,0.450928279401));
#104 = CARTESIAN_POINT('',(0.109872923995,0.435883227352));
#105 = CARTESIAN_POINT('',(0.108735203443,0.420833104038));
#106 = CARTESIAN_POINT('',(0.107286845384,0.40576297039));
#107 = CARTESIAN_POINT('',(0.105503124997,0.390656175071));
#108 = ( GEOMETRIC_REPRESENTATION_CONTEXT(2) 
PARAMETRIC_REPRESENTATION_CONTEXT() REPRESENTATION_CONTEXT('2D SPACE',''
  ) );
#109 = PCURVE('',#110,#115);
#110 = PLANE('',#111);
#111 = AXIS2_PLACEMENT_3D('',#112,#113,#114);
#112 = CARTESIAN_POINT('',(-45.,-142.,-21.));
#113 = DIRECTION('',(1.,0.,0.));
#114 = DIRECTION('',(0.,0.,1.));
#115 = DEFINITIONAL_REPRESENTATION('',(#116),#133);
#116 = B_SPLINE_CURVE_WITH_KNOTS('',8,(#117,#118,#119,#120,#121,#122,
    #123,#124,#125,#126,#127,#128,#129,#130,#131,#132),.UNSPECIFIED.,.F.
  ,.F.,(9,7,9),(0.,0.675273259426,1.),.UNSPECIFIED.);
#117 = CARTESIAN_POINT('',(66.,-97.58992588001));
#118 = CARTESIAN_POINT('',(60.542604447238,-96.31222403637));
#119 = CARTESIAN_POINT('',(55.036718777457,-95.25026222382));
#120 = CARTESIAN_POINT('',(49.494535453071,-94.38469870401));
#121 = CARTESIAN_POINT('',(43.926683297873,-93.69744038444));
#122 = CARTESIAN_POINT('',(38.34180472154,-93.17471824029));
#123 = CARTESIAN_POINT('',(32.746535040946,-92.8070536144));
#124 = CARTESIAN_POINT('',(27.14549250199,-92.58929446397));
#125 = CARTESIAN_POINT('',(18.846192532097,-92.48899600798));
#126 = CARTESIAN_POINT('',(16.150816861211,-92.49112557902));
#127 = CARTESIAN_POINT('',(13.455525714194,-92.52795193315));
#128 = CARTESIAN_POINT('',(10.760827381781,-92.59974912912));
#129 = CARTESIAN_POINT('',(8.06728285534,-92.70706735717));
#130 = CARTESIAN_POINT('',(5.375506801856,-92.85075517347));
#131 = CARTESIAN_POINT('',(2.686169537534,-93.03200427489));
#132 = CARTESIAN_POINT('',(0.,-93.2524168141));
#133 = ( GEOMETRIC_REPRESENTATION_CONTEXT(2) 
PARAMETRIC_REPRESENTATION_CONTEXT() REPRESENTATION_CONTEXT('2D SPACE',''
  ) );
#134 = ORIENTED_EDGE('',*,*,#135,.F.);
#135 = EDGE_CURVE('',#136,#69,#138,.T.);
#136 = VERTEX_POINT('',#137);
#137 = CARTESIAN_POINT('',(45.,-48.74758318589,-21.));
#138 = SURFACE_CURVE('',#139,(#145,#154),.PCURVE_S1.);
#139 = B_SPLINE_CURVE_WITH_KNOTS('',4,(#140,#141,#142,#143,#144),
  .UNSPECIFIED.,.F.,.F.,(5,5),(0.,1.),.PIECEWISE_BEZIER_KNOTS.);
#140 = CARTESIAN_POINT('',(45.,-48.74758318589,-21.));
#141 = CARTESIAN_POINT('',(22.5,-48.74758318589,-21.));
#142 = CARTESIAN_POINT('',(5.613287612505E-13,-48.74758318589,-21.));
#143 = CARTESIAN_POINT('',(-22.5,-48.74758318589,-21.));
#144 = CARTESIAN_POINT('',(-45.,-48.74758318589,-21.));
#145 = PCURVE('',#34,#146);
#146 = DEFINITIONAL_REPRESENTATION('',(#147),#153);
#147 = B_SPLINE_CURVE_WITH_KNOTS('',4,(#148,#149,#150,#151,#152),
  .UNSPECIFIED.,.F.,.F.,(5,5),(0.,1.),.PIECEWISE_BEZIER_KNOTS.);
#148 = CARTESIAN_POINT('',(0.894496875003,0.390656175071));
#149 = CARTESIAN_POINT('',(0.697248437501,0.390656175071));
#150 = CARTESIAN_POINT('',(0.5,0.390656175071));
#151 = CARTESIAN_POINT('',(0.302751562499,0.390656175071));
#152 = CARTESIAN_POINT('',(0.105503124997,0.390656175071));
#153 = ( GEOMETRIC_REPRESENTATION_CONTEXT(2) 
PARAMETRIC_REPRESENTATION_CONTEXT() REPRESENTATION_CONTEXT('2D SPACE',''
  ) );
#154 = PCURVE('',#155,#160);
#155 = PLANE('',#156);
#156 = AXIS2_PLACEMENT_3D('',#157,#158,#159);
#157 = CARTESIAN_POINT('',(-45.,-142.,-21.));
#158 = DIRECTION('',(0.,0.,1.));
#159 = DIRECTION('',(1.,0.,0.));
#160 = DEFINITIONAL_REPRESENTATION('',(#161),#167);
#161 = B_SPLINE_CURVE_WITH_KNOTS('',4,(#162,#163,#164,#165,#166),
  .UNSPECIFIED.,.F.,.F.,(5,5),(0.,1.),.PIECEWISE_BEZIER_KNOTS.);
#162 = CARTESIAN_POINT('',(90.,93.252416814109));
#163 = CARTESIAN_POINT('',(67.5,93.252416814109));
#164 = CARTESIAN_POINT('',(45.000000000001,93.252416814109));
#165 = CARTESIAN_POINT('',(22.5,93.252416814109));
#166 = CARTESIAN_POINT('',(0.,93.252416814109));
#167 = ( GEOMETRIC_REPRESENTATION_CONTEXT(2) 
PARAMETRIC_REPRESENTATION_CONTEXT() REPRESENTATION_CONTEXT('2D SPACE',''
  ) );
#168 = ORIENTED_EDGE('',*,*,#169,.T.);
#169 = EDGE_CURVE('',#136,#22,#170,.T.);
#170 = SURFACE_CURVE('',#171,(#188,#208),.PCURVE_S1.);
#171 = B_SPLINE_CURVE_WITH_KNOTS('',8,(#172,#173,#174,#175,#176,#177,
    #178,#179,#180,#181,#182,#183,#184,#185,#186,#187),.UNSPECIFIED.,.F.
  ,.F.,(9,7,9),(0.,0.324326402586,1.),.UNSPECIFIED.);
#172 = CARTESIAN_POINT('',(45.,-48.74758318589,-21.));
#173 = CARTESIAN_POINT('',(45.,-48.96772416915,-18.31713991721));
#174 = CARTESIAN_POINT('',(45.,-49.14879806752,-15.63112109943));
#175 = CARTESIAN_POINT('',(45.,-49.29240124183,-12.9426686784));
#176 = CARTESIAN_POINT('',(45.,-49.39972153601,-10.25244992948));
#177 = CARTESIAN_POINT('',(45.,-49.47160518513,-7.561077251339));
#178 = CARTESIAN_POINT('',(45.,-49.50860138237,-4.869110120597));
#179 = CARTESIAN_POINT('',(45.,-49.5109845049,-2.177056021244));
#180 = CARTESIAN_POINT('',(45.,-49.41160774764,6.122254953303));
#181 = CARTESIAN_POINT('',(45.,-49.19425304647,11.726637845087));
#182 = CARTESIAN_POINT('',(45.,-48.82683017343,17.325256283374));
#183 = CARTESIAN_POINT('',(45.,-48.30418824486,22.913486313712));
#184 = CARTESIAN_POINT('',(45.,-47.61683969379,28.484683444861));
#185 = CARTESIAN_POINT('',(45.,-46.7509963238,34.030192598166));
#186 = CARTESIAN_POINT('',(45.,-45.68853355016,39.539368598886));
#187 = CARTESIAN_POINT('',(45.,-44.41007411998,45.));
#188 = PCURVE('',#34,#189);
#189 = DEFINITIONAL_REPRESENTATION('',(#190),#207);
#190 = B_SPLINE_CURVE_WITH_KNOTS('',8,(#191,#192,#193,#194,#195,#196,
    #197,#198,#199,#200,#201,#202,#203,#204,#205,#206),.UNSPECIFIED.,.F.
  ,.F.,(9,7,9),(0.,0.324326402586,1.),.UNSPECIFIED.);
#191 = CARTESIAN_POINT('',(0.894496875003,0.390656175071));
#192 = CARTESIAN_POINT('',(0.892715352222,0.405744358291));
#193 = CARTESIAN_POINT('',(0.891268366491,0.420795963475));
#194 = CARTESIAN_POINT('',(0.890131283768,0.435827586659));
#195 = CARTESIAN_POINT('',(0.889286753775,0.450854117508));
#196 = CARTESIAN_POINT('',(0.888723069523,0.465889231078));
#197 = CARTESIAN_POINT('',(0.88843313357,0.480945750587));
#198 = CARTESIAN_POINT('',(0.888414031008,0.496035881207));
#199 = CARTESIAN_POINT('',(0.889194658727,0.542703169242));
#200 = CARTESIAN_POINT('',(0.890903706132,0.574422422123));
#201 = CARTESIAN_POINT('',(0.893805766934,0.60644358407));
#202 = CARTESIAN_POINT('',(0.897995502187,0.638854863869));
#203 = CARTESIAN_POINT('',(0.903640680112,0.671723303987));
#204 = CARTESIAN_POINT('',(0.911021864029,0.705092174922));
#205 = CARTESIAN_POINT('',(0.920561368496,0.738967246778));
#206 = CARTESIAN_POINT('',(0.933027181599,0.773297978423));
#207 = ( GEOMETRIC_REPRESENTATION_CONTEXT(2) 
PARAMETRIC_REPRESENTATION_CONTEXT() REPRESENTATION_CONTEXT('2D SPACE',''
  ) );
#208 = PCURVE('',#209,#214);
#209 = PLANE('',#210);
#210 = AXIS2_PLACEMENT_3D('',#211,#212,#213);
#211 = CARTESIAN_POINT('',(45.,-142.,-21.));
#212 = DIRECTION('',(1.,0.,0.));
#213 = DIRECTION('',(0.,0.,1.));
#214 = DEFINITIONAL_REPRESENTATION('',(#215),#232);
#215 = B_SPLINE_CURVE_WITH_KNOTS('',8,(#216,#217,#218,#219,#220,#221,
    #222,#223,#224,#225,#226,#227,#228,#229,#230,#231),.UNSPECIFIED.,.F.
  ,.F.,(9,7,9),(0.,0.324326402586,1.),.UNSPECIFIED.);
#216 = CARTESIAN_POINT('',(0.,-93.2524168141));
#217 = CARTESIAN_POINT('',(2.682860082786,-93.03227583084));
#218 = CARTESIAN_POINT('',(5.368878900567,-92.85120193247));
#219 = CARTESIAN_POINT('',(8.057331321593,-92.70759875816));
#220 = CARTESIAN_POINT('',(10.747550070519,-92.60027846398));
#221 = CARTESIAN_POINT('',(13.438922748661,-92.52839481486));
#222 = CARTESIAN_POINT('',(16.130889879403,-92.49139861762));
#223 = CARTESIAN_POINT('',(18.822943978756,-92.48901549509));
#224 = CARTESIAN_POINT('',(27.122254953303,-92.58839225235));
#225 = CARTESIAN_POINT('',(32.726637845087,-92.80574695352));
#226 = CARTESIAN_POINT('',(38.325256283374,-93.17316982656));
#227 = CARTESIAN_POINT('',(43.913486313712,-93.69581175513));
#228 = CARTESIAN_POINT('',(49.484683444861,-94.3831603062));
#229 = CARTESIAN_POINT('',(55.030192598166,-95.24900367619));
#230 = CARTESIAN_POINT('',(60.539368598886,-96.31146644983));
#231 = CARTESIAN_POINT('',(66.,-97.58992588001));
#232 = ( GEOMETRIC_REPRESENTATION_CONTEXT(2) 
PARAMETRIC_REPRESENTATION_CONTEXT() REPRESENTATION_CONTEXT('2D SPACE',''
  ) );
#233 = ADVANCED_FACE('',(#234),#54,.T.);
#234 = FACE_BOUND('',#235,.T.);
#235 = EDGE_LOOP('',(#236,#259,#260,#283));
#236 = ORIENTED_EDGE('',*,*,#237,.F.);
#237 = EDGE_CURVE('',#24,#238,#240,.T.);
#238 = VERTEX_POINT('',#239);
#239 = CARTESIAN_POINT('',(-45.,-41.41007411998,45.));
#240 = SURFACE_CURVE('',#241,(#245,#252),.PCURVE_S1.);
#241 = LINE('',#242,#243);
#242 = CARTESIAN_POINT('',(-45.,-142.,45.));
#243 = VECTOR('',#244,1.);
#244 = DIRECTION('',(0.,1.,0.));
#245 = PCURVE('',#54,#246);
#246 = DEFINITIONAL_REPRESENTATION('',(#247),#251);
#247 = LINE('',#248,#249);
#248 = CARTESIAN_POINT('',(0.,0.));
#249 = VECTOR('',#250,1.);
#250 = DIRECTION('',(0.,1.));
#251 = ( GEOMETRIC_REPRESENTATION_CONTEXT(2) 
PARAMETRIC_REPRESENTATION_CONTEXT() REPRESENTATION_CONTEXT('2D SPACE',''
  ) );
#252 = PCURVE('',#110,#253);
#253 = DEFINITIONAL_REPRESENTATION('',(#254),#258);
#254 = LINE('',#255,#256);
#255 = CARTESIAN_POINT('',(66.,0.));
#256 = VECTOR('',#257,1.);
#257 = DIRECTION('',(0.,-1.));
#258 = ( GEOMETRIC_REPRESENTATION_CONTEXT(2) 
PARAMETRIC_REPRESENTATION_CONTEXT() REPRESENTATION_CONTEXT('2D SPACE',''
  ) );
#259 = ORIENTED_EDGE('',*,*,#21,.F.);
#260 = ORIENTED_EDGE('',*,*,#261,.T.);
#261 = EDGE_CURVE('',#22,#262,#264,.T.);
#262 = VERTEX_POINT('',#263);
#263 = CARTESIAN_POINT('',(45.,-41.41007411998,45.));
#264 = SURFACE_CURVE('',#265,(#269,#276),.PCURVE_S1.);
#265 = LINE('',#266,#267);
#266 = CARTESIAN_POINT('',(45.,-142.,45.));
#267 = VECTOR('',#268,1.);
#268 = DIRECTION('',(0.,1.,0.));
#269 = PCURVE('',#54,#270);
#270 = DEFINITIONAL_REPRESENTATION('',(#271),#275);
#271 = LINE('',#272,#273);
#272 = CARTESIAN_POINT('',(90.,0.));
#273 = VECTOR('',#274,1.);
#274 = DIRECTION('',(0.,1.));
#275 = ( GEOMETRIC_REPRESENTATION_CONTEXT(2) 
PARAMETRIC_REPRESENTATION_CONTEXT() REPRESENTATION_CONTEXT('2D SPACE',''
  ) );
#276 = PCURVE('',#209,#277);
#277 = DEFINITIONAL_REPRESENTATION('',(#278),#282);
#278 = LINE('',#279,#280);
#279 = CARTESIAN_POINT('',(66.,0.));
#280 = VECTOR('',#281,1.);
#281 = DIRECTION('',(0.,-1.));
#282 = ( GEOMETRIC_REPRESENTATION_CONTEXT(2) 
PARAMETRIC_REPRESENTATION_CONTEXT() REPRESENTATION_CONTEXT('2D SPACE',''
  ) );
#283 = ORIENTED_EDGE('',*,*,#284,.T.);
#284 = EDGE_CURVE('',#262,#238,#285,.T.);
#285 = SURFACE_CURVE('',#286,(#292,#301),.PCURVE_S1.);
#286 = B_SPLINE_CURVE_WITH_KNOTS('',4,(#287,#288,#289,#290,#291),
  .UNSPECIFIED.,.F.,.F.,(5,5),(0.,1.),.PIECEWISE_BEZIER_KNOTS.);
#287 = CARTESIAN_POINT('',(45.,-41.41007411998,45.));
#288 = CARTESIAN_POINT('',(22.5,-41.41007411998,45.));
#289 = CARTESIAN_POINT('',(-2.13162820728E-13,-41.41007411998,45.));
#290 = CARTESIAN_POINT('',(-22.5,-41.41007411998,45.));
#291 = CARTESIAN_POINT('',(-45.,-41.41007411998,45.));
#292 = PCURVE('',#54,#293);
#293 = DEFINITIONAL_REPRESENTATION('',(#294),#300);
#294 = B_SPLINE_CURVE_WITH_KNOTS('',4,(#295,#296,#297,#298,#299),
  .UNSPECIFIED.,.F.,.F.,(5,5),(0.,1.),.PIECEWISE_BEZIER_KNOTS.);
#295 = CARTESIAN_POINT('',(90.,100.58992588001));
#296 = CARTESIAN_POINT('',(67.5,100.58992588001));
#297 = CARTESIAN_POINT('',(45.,100.58992588001));
#298 = CARTESIAN_POINT('',(22.5,100.58992588001));
#299 = CARTESIAN_POINT('',(0.,100.58992588001));
#300 = ( GEOMETRIC_REPRESENTATION_CONTEXT(2) 
PARAMETRIC_REPRESENTATION_CONTEXT() REPRESENTATION_CONTEXT('2D SPACE',''
  ) );
#301 = PCURVE('',#302,#313);
#302 = ( BOUNDED_SURFACE() B_SPLINE_SURFACE(1,4,(
    (#303,#304,#305,#306,#307)
    ,(#308,#309,#310,#311,#312
)),.UNSPECIFIED.,.F.,.F.,.F.) B_SPLINE_SURFACE_WITH_KNOTS((2,2),(5,5),(
    0.,1.),(0.,1.),.PIECEWISE_BEZIER_KNOTS.) 
GEOMETRIC_REPRESENTATION_ITEM() RATIONAL_B_SPLINE_SURFACE((
    (1.,1.,1.,1.,1.)
,(1.,1.,1.,1.,1.))) REPRESENTATION_ITEM('') SURFACE() );
#303 = CARTESIAN_POINT('',(-31.536,-25.8,-79.));
#304 = CARTESIAN_POINT('',(-60.08873636705,-50.20404817696,
    -55.89428949229));
#305 = CARTESIAN_POINT('',(-59.10192134755,-49.36061653637,
    4.481661438521));
#306 = CARTESIAN_POINT('',(-57.64129893929,-48.11222131563,
    43.275891913936));
#307 = CARTESIAN_POINT('',(-34.9056,-28.68,79.));
#308 = CARTESIAN_POINT('',(31.536,-25.8,-79.));
#309 = CARTESIAN_POINT('',(60.08873636705,-50.20404817696,
    -55.89428949229));
#310 = CARTESIAN_POINT('',(59.101921347559,-49.36061653637,
    4.481661438521));
#311 = CARTESIAN_POINT('',(57.641298939292,-48.11222131563,
    43.275891913936));
#312 = CARTESIAN_POINT('',(34.9056,-28.68,79.));
#313 = DEFINITIONAL_REPRESENTATION('',(#314),#320);
#314 = B_SPLINE_CURVE_WITH_KNOTS('',4,(#315,#316,#317,#318,#319),
  .UNSPECIFIED.,.F.,.F.,(5,5),(0.,1.),.PIECEWISE_BEZIER_KNOTS.);
#315 = CARTESIAN_POINT('',(0.951809163889,0.773297978423));
#316 = CARTESIAN_POINT('',(0.725904581945,0.773297978423));
#317 = CARTESIAN_POINT('',(0.5,0.773297978423));
#318 = CARTESIAN_POINT('',(0.274095418055,0.773297978423));
#319 = CARTESIAN_POINT('',(4.819083611077E-02,0.773297978423));
#320 = ( GEOMETRIC_REPRESENTATION_CONTEXT(2) 
PARAMETRIC_REPRESENTATION_CONTEXT() REPRESENTATION_CONTEXT('2D SPACE',''
  ) );
#321 = ADVANCED_FACE('',(#322),#209,.T.);
#322 = FACE_BOUND('',#323,.T.);
#323 = EDGE_LOOP('',(#324,#325,#326,#349));
#324 = ORIENTED_EDGE('',*,*,#261,.F.);
#325 = ORIENTED_EDGE('',*,*,#169,.F.);
#326 = ORIENTED_EDGE('',*,*,#327,.T.);
#327 = EDGE_CURVE('',#136,#328,#330,.T.);
#328 = VERTEX_POINT('',#329);
#329 = CARTESIAN_POINT('',(45.,-45.74758318589,-21.));
#330 = SURFACE_CURVE('',#331,(#335,#342),.PCURVE_S1.);
#331 = LINE('',#332,#333);
#332 = CARTESIAN_POINT('',(45.,-142.,-21.));
#333 = VECTOR('',#334,1.);
#334 = DIRECTION('',(0.,1.,0.));
#335 = PCURVE('',#209,#336);
#336 = DEFINITIONAL_REPRESENTATION('',(#337),#341);
#337 = LINE('',#338,#339);
#338 = CARTESIAN_POINT('',(0.,0.));
#339 = VECTOR('',#340,1.);
#340 = DIRECTION('',(0.,-1.));
#341 = ( GEOMETRIC_REPRESENTATION_CONTEXT(2) 
PARAMETRIC_REPRESENTATION_CONTEXT() REPRESENTATION_CONTEXT('2D SPACE',''
  ) );
#342 = PCURVE('',#155,#343);
#343 = DEFINITIONAL_REPRESENTATION('',(#344),#348);
#344 = LINE('',#345,#346);
#345 = CARTESIAN_POINT('',(90.,0.));
#346 = VECTOR('',#347,1.);
#347 = DIRECTION('',(0.,1.));
#348 = ( GEOMETRIC_REPRESENTATION_CONTEXT(2) 
PARAMETRIC_REPRESENTATION_CONTEXT() REPRESENTATION_CONTEXT('2D SPACE',''
  ) );
#349 = ORIENTED_EDGE('',*,*,#350,.T.);
#350 = EDGE_CURVE('',#328,#262,#351,.T.);
#351 = SURFACE_CURVE('',#352,(#369,#389),.PCURVE_S1.);
#352 = B_SPLINE_CURVE_WITH_KNOTS('',8,(#353,#354,#355,#356,#357,#358,
    #359,#360,#361,#362,#363,#364,#365,#366,#367,#368),.UNSPECIFIED.,.F.
  ,.F.,(9,7,9),(0.,0.323485142549,1.),.UNSPECIFIED.);
#353 = CARTESIAN_POINT('',(45.,-45.74758318589,-21.));
#354 = CARTESIAN_POINT('',(45.,-45.96715309945,-18.32409954866));
#355 = CARTESIAN_POINT('',(45.,-46.14785847692,-15.64505502223));
#356 = CARTESIAN_POINT('',(45.,-46.29128312918,-12.9635875298));
#357 = CARTESIAN_POINT('',(45.,-46.3986066525,-10.28036022192));
#358 = CARTESIAN_POINT('',(45.,-46.47067051248,-7.595981198881));
#359 = CARTESIAN_POINT('',(45.,-46.50802204549,-4.911005444114));
#360 = CARTESIAN_POINT('',(45.,-46.51093637762,-2.225935782729));
#361 = CARTESIAN_POINT('',(45.,-46.41349723049,6.073403396792));
#362 = CARTESIAN_POINT('',(45.,-46.1969946425,11.684809211693));
#363 = CARTESIAN_POINT('',(45.,-45.83008148619,17.29046828612));
#364 = CARTESIAN_POINT('',(45.,-45.30760940118,22.885744568627));
#365 = CARTESIAN_POINT('',(45.,-44.62007213838,28.463974130925));
#366 = CARTESIAN_POINT('',(45.,-43.75364121442,34.016475081561));
#367 = CARTESIAN_POINT('',(45.,-42.69012581719,39.532567613921));
#368 = CARTESIAN_POINT('',(45.,-41.41007411998,45.));
#369 = PCURVE('',#209,#370);
#370 = DEFINITIONAL_REPRESENTATION('',(#371),#388);
#371 = B_SPLINE_CURVE_WITH_KNOTS('',8,(#372,#373,#374,#375,#376,#377,
    #378,#379,#380,#381,#382,#383,#384,#385,#386,#387),.UNSPECIFIED.,.F.
  ,.F.,(9,7,9),(0.,0.323485142549,1.),.UNSPECIFIED.);
#372 = CARTESIAN_POINT('',(0.,-96.2524168141));
#373 = CARTESIAN_POINT('',(2.675900451336,-96.03284690054));
#374 = CARTESIAN_POINT('',(5.354944977761,-95.85214152307));
#375 = CARTESIAN_POINT('',(8.036412470194,-95.70871687081));
#376 = CARTESIAN_POINT('',(10.719639778077,-95.60139334749));
#377 = CARTESIAN_POINT('',(13.404018801119,-95.52932948751));
#378 = CARTESIAN_POINT('',(16.088994555886,-95.4919779545));
#379 = CARTESIAN_POINT('',(18.774064217271,-95.48906362237));
#380 = CARTESIAN_POINT('',(27.073403396792,-95.5865027695));
#381 = CARTESIAN_POINT('',(32.684809211693,-95.80300535749));
#382 = CARTESIAN_POINT('',(38.29046828612,-96.1699185138));
#383 = CARTESIAN_POINT('',(43.885744568627,-96.69239059882));
#384 = CARTESIAN_POINT('',(49.463974130925,-97.37992786162));
#385 = CARTESIAN_POINT('',(55.016475081561,-98.24635878557));
#386 = CARTESIAN_POINT('',(60.532567613921,-99.3098741828));
#387 = CARTESIAN_POINT('',(66.,-100.58992588));
#388 = ( GEOMETRIC_REPRESENTATION_CONTEXT(2) 
PARAMETRIC_REPRESENTATION_CONTEXT() REPRESENTATION_CONTEXT('2D SPACE',''
  ) );
#389 = PCURVE('',#302,#390);
#390 = DEFINITIONAL_REPRESENTATION('',(#391),#408);
#391 = B_SPLINE_CURVE_WITH_KNOTS('',8,(#392,#393,#394,#395,#396,#397,
    #398,#399,#400,#401,#402,#403,#404,#405,#406,#407),.UNSPECIFIED.,.F.
  ,.F.,(9,7,9),(0.,0.323485142549,1.),.UNSPECIFIED.);
#392 = CARTESIAN_POINT('',(0.910025227408,0.390656175071));
#393 = CARTESIAN_POINT('',(0.908105686681,0.405705217899));
#394 = CARTESIAN_POINT('',(0.906546441767,0.420717881716));
#395 = CARTESIAN_POINT('',(0.905320580101,0.435710624958));
#396 = CARTESIAN_POINT('',(0.904409164695,0.450698220822));
#397 = CARTESIAN_POINT('',(0.903799420667,0.465694243414));
#398 = CARTESIAN_POINT('',(0.903483593943,0.480711426321));
#399 = CARTESIAN_POINT('',(0.903458482105,0.495761893616));
#400 = CARTESIAN_POINT('',(0.904284347893,0.542426694246));
#401 = CARTESIAN_POINT('',(0.906121179589,0.574183194468));
#402 = CARTESIAN_POINT('',(0.909248409526,0.606241824567));
#403 = CARTESIAN_POINT('',(0.913770630533,0.638691200442));
#404 = CARTESIAN_POINT('',(0.919872593617,0.671598694151));
#405 = CARTESIAN_POINT('',(0.92786651009,0.705007829901));
#406 = CARTESIAN_POINT('',(0.938221621122,0.738924489307));
#407 = CARTESIAN_POINT('',(0.951809163889,0.773297978423));
#408 = ( GEOMETRIC_REPRESENTATION_CONTEXT(2) 
PARAMETRIC_REPRESENTATION_CONTEXT() REPRESENTATION_CONTEXT('2D SPACE',''
  ) );
#409 = ADVANCED_FACE('',(#410),#155,.F.);
#410 = FACE_BOUND('',#411,.F.);
#411 = EDGE_LOOP('',(#412,#435,#436,#437));
#412 = ORIENTED_EDGE('',*,*,#413,.F.);
#413 = EDGE_CURVE('',#69,#414,#416,.T.);
#414 = VERTEX_POINT('',#415);
#415 = CARTESIAN_POINT('',(-45.,-45.74758318589,-21.));
#416 = SURFACE_CURVE('',#417,(#421,#428),.PCURVE_S1.);
#417 = LINE('',#418,#419);
#418 = CARTESIAN_POINT('',(-45.,-142.,-21.));
#419 = VECTOR('',#420,1.);
#420 = DIRECTION('',(0.,1.,0.));
#421 = PCURVE('',#155,#422);
#422 = DEFINITIONAL_REPRESENTATION('',(#423),#427);
#423 = LINE('',#424,#425);
#424 = CARTESIAN_POINT('',(0.,0.));
#425 = VECTOR('',#426,1.);
#426 = DIRECTION('',(0.,1.));
#427 = ( GEOMETRIC_REPRESENTATION_CONTEXT(2) 
PARAMETRIC_REPRESENTATION_CONTEXT() REPRESENTATION_CONTEXT('2D SPACE',''
  ) );
#428 = PCURVE('',#110,#429);
#429 = DEFINITIONAL_REPRESENTATION('',(#430),#434);
#430 = LINE('',#431,#432);
#431 = CARTESIAN_POINT('',(0.,0.));
#432 = VECTOR('',#433,1.);
#433 = DIRECTION('',(0.,-1.));
#434 = ( GEOMETRIC_REPRESENTATION_CONTEXT(2) 
PARAMETRIC_REPRESENTATION_CONTEXT() REPRESENTATION_CONTEXT('2D SPACE',''
  ) );
#435 = ORIENTED_EDGE('',*,*,#135,.F.);
#436 = ORIENTED_EDGE('',*,*,#327,.T.);
#437 = ORIENTED_EDGE('',*,*,#438,.T.);
#438 = EDGE_CURVE('',#328,#414,#439,.T.);
#439 = SURFACE_CURVE('',#440,(#446,#455),.PCURVE_S1.);
#440 = B_SPLINE_CURVE_WITH_KNOTS('',4,(#441,#442,#443,#444,#445),
  .UNSPECIFIED.,.F.,.F.,(5,5),(0.,1.),.PIECEWISE_BEZIER_KNOTS.);
#441 = CARTESIAN_POINT('',(45.,-45.74758318589,-21.));
#442 = CARTESIAN_POINT('',(22.5,-45.74758318589,-21.));
#443 = CARTESIAN_POINT('',(-3.19744231092E-13,-45.74758318589,-21.));
#444 = CARTESIAN_POINT('',(-22.5,-45.74758318589,-21.));
#445 = CARTESIAN_POINT('',(-45.,-45.74758318589,-21.));
#446 = PCURVE('',#155,#447);
#447 = DEFINITIONAL_REPRESENTATION('',(#448),#454);
#448 = B_SPLINE_CURVE_WITH_KNOTS('',4,(#449,#450,#451,#452,#453),
  .UNSPECIFIED.,.F.,.F.,(5,5),(0.,1.),.PIECEWISE_BEZIER_KNOTS.);
#449 = CARTESIAN_POINT('',(90.,96.252416814109));
#450 = CARTESIAN_POINT('',(67.5,96.252416814109));
#451 = CARTESIAN_POINT('',(45.,96.252416814109));
#452 = CARTESIAN_POINT('',(22.5,96.252416814109));
#453 = CARTESIAN_POINT('',(0.,96.252416814109));
#454 = ( GEOMETRIC_REPRESENTATION_CONTEXT(2) 
PARAMETRIC_REPRESENTATION_CONTEXT() REPRESENTATION_CONTEXT('2D SPACE',''
  ) );
#455 = PCURVE('',#302,#456);
#456 = DEFINITIONAL_REPRESENTATION('',(#457),#463);
#457 = B_SPLINE_CURVE_WITH_KNOTS('',4,(#458,#459,#460,#461,#462),
  .UNSPECIFIED.,.F.,.F.,(5,5),(0.,1.),.PIECEWISE_BEZIER_KNOTS.);
#458 = CARTESIAN_POINT('',(0.910025227408,0.390656175071));
#459 = CARTESIAN_POINT('',(0.705012613704,0.390656175071));
#460 = CARTESIAN_POINT('',(0.5,0.390656175071));
#461 = CARTESIAN_POINT('',(0.294987386296,0.390656175071));
#462 = CARTESIAN_POINT('',(8.997477259236E-02,0.390656175071));
#463 = ( GEOMETRIC_REPRESENTATION_CONTEXT(2) 
PARAMETRIC_REPRESENTATION_CONTEXT() REPRESENTATION_CONTEXT('2D SPACE',''
  ) );
#464 = ADVANCED_FACE('',(#465),#110,.F.);
#465 = FACE_BOUND('',#466,.F.);
#466 = EDGE_LOOP('',(#467,#468,#469,#470));
#467 = ORIENTED_EDGE('',*,*,#237,.F.);
#468 = ORIENTED_EDGE('',*,*,#68,.T.);
#469 = ORIENTED_EDGE('',*,*,#413,.T.);
#470 = ORIENTED_EDGE('',*,*,#471,.F.);
#471 = EDGE_CURVE('',#238,#414,#472,.T.);
#472 = SURFACE_CURVE('',#473,(#490,#510),.PCURVE_S1.);
#473 = B_SPLINE_CURVE_WITH_KNOTS('',8,(#474,#475,#476,#477,#478,#479,
    #480,#481,#482,#483,#484,#485,#486,#487,#488,#489),.UNSPECIFIED.,.F.
  ,.F.,(9,7,9),(0.,0.677090499646,1.),.UNSPECIFIED.);
#474 = CARTESIAN_POINT('',(-45.,-41.41007411998,45.));
#475 = CARTESIAN_POINT('',(-45.,-42.69121539218,39.527913756882));
#476 = CARTESIAN_POINT('',(-45.,-43.7554504877,34.007089139955));
#477 = CARTESIAN_POINT('',(-45.,-44.62228260478,28.449805077978));
#478 = CARTESIAN_POINT('',(-45.,-45.30994802606,22.866764838041));
#479 = CARTESIAN_POINT('',(-45.,-45.8323028351,17.266668514354));
#480 = CARTESIAN_POINT('',(-45.,-46.19886603527,11.656193295225));
#481 = CARTESIAN_POINT('',(-45.,-46.41478419033,6.039983561809));
#482 = CARTESIAN_POINT('',(-45.,-46.51089779578,-2.259372128485));
#483 = CARTESIAN_POINT('',(-45.,-46.50762172947,-4.9396643142));
#484 = CARTESIAN_POINT('',(-45.,-46.47002840107,-7.619858647272));
#485 = CARTESIAN_POINT('',(-45.,-46.39784224206,-10.29945425965));
#486 = CARTESIAN_POINT('',(-45.,-46.29051730081,-12.97789870391));
#487 = CARTESIAN_POINT('',(-45.,-46.1472154057,-15.65458700619));
#488 = CARTESIAN_POINT('',(-45.,-45.96676250531,-18.32885972277));
#489 = CARTESIAN_POINT('',(-45.,-45.74758318589,-21.));
#490 = PCURVE('',#110,#491);
#491 = DEFINITIONAL_REPRESENTATION('',(#492),#509);
#492 = B_SPLINE_CURVE_WITH_KNOTS('',8,(#493,#494,#495,#496,#497,#498,
    #499,#500,#501,#502,#503,#504,#505,#506,#507,#508),.UNSPECIFIED.,.F.
  ,.F.,(9,7,9),(0.,0.677090499646,1.),.UNSPECIFIED.);
#493 = CARTESIAN_POINT('',(66.,-100.58992588));
#494 = CARTESIAN_POINT('',(60.527913756882,-99.30878460781));
#495 = CARTESIAN_POINT('',(55.007089139955,-98.24454951229));
#496 = CARTESIAN_POINT('',(49.449805077978,-97.37771739521));
#497 = CARTESIAN_POINT('',(43.866764838041,-96.69005197393));
#498 = CARTESIAN_POINT('',(38.266668514354,-96.16769716489));
#499 = CARTESIAN_POINT('',(32.656193295225,-95.80113396472));
#500 = CARTESIAN_POINT('',(27.039983561809,-95.58521580966));
#501 = CARTESIAN_POINT('',(18.740627871515,-95.48910220421));
#502 = CARTESIAN_POINT('',(16.0603356858,-95.49237827052));
#503 = CARTESIAN_POINT('',(13.380141352728,-95.52997159892));
#504 = CARTESIAN_POINT('',(10.700545740343,-95.60215775793));
#505 = CARTESIAN_POINT('',(8.022101296087,-95.70948269918));
#506 = CARTESIAN_POINT('',(5.345412993801,-95.85278459429));
#507 = CARTESIAN_POINT('',(2.671140277226,-96.03323749468));
#508 = CARTESIAN_POINT('',(0.,-96.2524168141));
#509 = ( GEOMETRIC_REPRESENTATION_CONTEXT(2) 
PARAMETRIC_REPRESENTATION_CONTEXT() REPRESENTATION_CONTEXT('2D SPACE',''
  ) );
#510 = PCURVE('',#302,#511);
#511 = DEFINITIONAL_REPRESENTATION('',(#512),#529);
#512 = B_SPLINE_CURVE_WITH_KNOTS('',8,(#513,#514,#515,#516,#517,#518,
    #519,#520,#521,#522,#523,#524,#525,#526,#527,#528),.UNSPECIFIED.,.F.
  ,.F.,(9,7,9),(0.,0.677090499646,1.),.UNSPECIFIED.);
#513 = CARTESIAN_POINT('',(4.819083611077E-02,0.773297978423));
#514 = CARTESIAN_POINT('',(6.178994454092E-02,0.738895230727));
#515 = CARTESIAN_POINT('',(7.215110480014E-02,0.704950119952));
#516 = CARTESIAN_POINT('',(8.014779872331E-02,0.671513441731));
#517 = CARTESIAN_POINT('',(8.6250125907E-02,0.638579235944));
#518 = CARTESIAN_POINT('',(9.077081401186E-02,0.606103803342));
#519 = CARTESIAN_POINT('',(9.389477087406E-02,0.574019545484));
#520 = CARTESIAN_POINT('',(9.572657028667E-02,0.542237567504));
#521 = CARTESIAN_POINT('',(9.654118593058E-02,0.495574476988));
#522 = CARTESIAN_POINT('',(9.651302133336E-02,0.480551136936));
#523 = CARTESIAN_POINT('',(9.619514620997E-02,0.465560854424));
#524 = CARTESIAN_POINT('',(9.55843434646E-02,0.450591567692));
#525 = CARTESIAN_POINT('',(9.467287411774E-02,0.435630607338));
#526 = CARTESIAN_POINT('',(9.344800941587E-02,0.420664466827));
#527 = CARTESIAN_POINT('',(9.189089863704E-02,0.405678447073));
#528 = CARTESIAN_POINT('',(8.997477259236E-02,0.390656175071));
#529 = ( GEOMETRIC_REPRESENTATION_CONTEXT(2) 
PARAMETRIC_REPRESENTATION_CONTEXT() REPRESENTATION_CONTEXT('2D SPACE',''
  ) );
#530 = ADVANCED_FACE('',(#531),#302,.F.);
#531 = FACE_BOUND('',#532,.F.);
#532 = EDGE_LOOP('',(#533,#534,#535,#536));
#533 = ORIENTED_EDGE('',*,*,#284,.T.);
#534 = ORIENTED_EDGE('',*,*,#471,.T.);
#535 = ORIENTED_EDGE('',*,*,#438,.F.);
#536 = ORIENTED_EDGE('',*,*,#350,.T.);
#537 = ( GEOMETRIC_REPRESENTATION_CONTEXT(3) 
GLOBAL_UNCERTAINTY_ASSIGNED_CONTEXT((#541)) GLOBAL_UNIT_ASSIGNED_CONTEXT
((#538,#539,#540)) REPRESENTATION_CONTEXT('Context #1',
  '3D Context with UNIT and UNCERTAINTY') );
#538 = ( LENGTH_UNIT() NAMED_UNIT(*) SI_UNIT(.MILLI.,.METRE.) );
#539 = ( NAMED_UNIT(*) PLANE_ANGLE_UNIT() SI_UNIT($,.RADIAN.) );
#540 = ( NAMED_UNIT(*) SI_UNIT($,.STERADIAN.) SOLID_ANGLE_UNIT() );
#541 = UNCERTAINTY_MEASURE_WITH_UNIT(LENGTH_MEASURE(5.E-06),#538,
  'distance_accuracy_value','confusion accuracy');
#542 = PRODUCT_RELATED_PRODUCT_CATEGORY('part',$,(#7));
ENDSEC;
END-ISO-10303-21;
