ISO-10303-21;
HEADER;
FILE_DESCRIPTION(('Open CASCADE Model'),'2;1');
FILE_NAME('Open CASCADE Shape Model','2026-09-05T05:20:50',('Author'),(
    'Open CASCADE'),'Open CASCADE STEP processor 7.8','Open CASCADE 7.8'
  ,'Unknown');
FILE_SCHEMA(('AUTOMOTIVE_DESIGN { 1 0 10303 214 1 1 1 1 }'));
ENDSEC;
DATA;
#1 = APPLICATION_PROTOCOL_DEFINITION('international standard',
  'automotive_design',2000,#2);
#2 = APPLICATION_CONTEXT(
  'core data for automotive mechanical design processes');
#3 = SHAPE_DEFINITION_REPRESENTATION(#4,#10);
#4 = PRODUCT_DEFINITION_SHAPE('','',#5);
#5 = PRODUCT_DEFINITION('design','',#6,#9);
#6 = PRODUCT_DEFINITION_FORMATION('','',#7);
#7 = PRODUCT('Open CASCADE STEP translator 7.8 6',
  'Open CASCADE STEP translator 7.8 6','',(#8));
#8 = PRODUCT_CONTEXT('',#2,'mechanical');
#9 = PRODUCT_DEFINITION_CONTEXT('part definition',#2,'design');
#10 = ADVANCED_BREP_SHAPE_REPRESENTATION('',(#11,#15),#1489);
#11 = AXIS2_PLACEMENT_3D('',#12,#13,#14);
#12 = CARTESIAN_POINT('',(0.,0.,0.));
#13 = DIRECTION('',(0.,0.,1.));
#14 = DIRECTION('',(1.,0.,-0.));
#15 = MANIFOLD_SOLID_BREP('',#16);
#16 = CLOSED_SHELL('',(#17,#155,#475,#524,#737,#766,#916,#1066,#1095,
    #1124,#1153,#1182,#1332,#1482));
#17 = ADVANCED_FACE('',(#18),#31,.T.);
#18 = FACE_BOUND('',#19,.T.);
#19 = EDGE_LOOP('',(#20,#59,#95,#121));
#20 = ORIENTED_EDGE('',*,*,#21,.T.);
#21 = EDGE_CURVE('',#22,#24,#26,.T.);
#22 = VERTEX_POINT('',#23);
#23 = CARTESIAN_POINT('',(-25.488,-18.6,-82.));
#24 = VERTEX_POINT('',#25);
#25 = CARTESIAN_POINT('',(25.488,-18.6,-82.));
#26 = SURFACE_CURVE('',#27,(#30,#48),.PCURVE_S1.);
#27 = B_SPLINE_CURVE_WITH_KNOTS('',1,(#28,#29),.UNSPECIFIED.,.F.,.F.,(2,
    2),(0.,1.),.PIECEWISE_BEZIER_KNOTS.);
#28 = CARTESIAN_POINT('',(-25.488,-18.6,-82.));
#29 = CARTESIAN_POINT('',(25.488,-18.6,-82.));
#30 = PCURVE('',#31,#42);
#31 = ( BOUNDED_SURFACE() B_SPLINE_SURFACE(1,4,(
    (#32,#33,#34,#35,#36)
    ,(#37,#38,#39,#40,#41
)),.UNSPECIFIED.,.F.,.F.,.F.) B_SPLINE_SURFACE_WITH_KNOTS((2,2),(5,5),(
    0.,1.),(0.,1.),.PIECEWISE_BEZIER_KNOTS.) 
GEOMETRIC_REPRESENTATION_ITEM() RATIONAL_B_SPLINE_SURFACE((
    (1.,1.,1.,1.,1.)
,(1.,1.,1.,1.,1.))) REPRESENTATION_ITEM('') SURFACE() );
#32 = CARTESIAN_POINT('',(-25.488,-18.6,-82.));
#33 = CARTESIAN_POINT('',(-50.45637105403,-36.82079808557,
    -51.58565895354));
#34 = CARTESIAN_POINT('',(-41.96941834531,-30.62740039324,4.887363060211
    ));
#35 = CARTESIAN_POINT('',(-47.46051870941,-34.63455932183,
    41.868399186784));
#36 = CARTESIAN_POINT('',(-28.0368,-20.46,82.));
#37 = CARTESIAN_POINT('',(25.488,-18.6,-82.));
#38 = CARTESIAN_POINT('',(50.456371054037,-36.82079808557,
    -51.58565895354));
#39 = CARTESIAN_POINT('',(41.969418345317,-30.62740039324,4.887363060211
    ));
#40 = CARTESIAN_POINT('',(47.46051870941,-34.63455932183,41.868399186784
    ));
#41 = CARTESIAN_POINT('',(28.0368,-20.46,82.));
#42 = DEFINITIONAL_REPRESENTATION('',(#43),#47);
#43 = LINE('',#44,#45);
#44 = CARTESIAN_POINT('',(0.,0.));
#45 = VECTOR('',#46,1.);
#46 = DIRECTION('',(1.,0.));
#47 = ( GEOMETRIC_REPRESENTATION_CONTEXT(2) 
PARAMETRIC_REPRESENTATION_CONTEXT() REPRESENTATION_CONTEXT('2D SPACE',''
  ) );
#48 = PCURVE('',#49,#54);
#49 = PLANE('',#50);
#50 = AXIS2_PLACEMENT_3D('',#51,#52,#53);
#51 = CARTESIAN_POINT('',(-25.488,-18.6,-82.));
#52 = DIRECTION('',(0.,0.,1.));
#53 = DIRECTION('',(0.912546358681,0.408973279393,-0.));
#54 = DEFINITIONAL_REPRESENTATION('',(#55),#58);
#55 = B_SPLINE_CURVE_WITH_KNOTS('',1,(#56,#57),.UNSPECIFIED.,.F.,.F.,(2,
    2),(0.,1.),.PIECEWISE_BEZIER_KNOTS.);
#56 = CARTESIAN_POINT('',(0.,0.));
#57 = CARTESIAN_POINT('',(46.517963180134,-20.84782189034));
#58 = ( GEOMETRIC_REPRESENTATION_CONTEXT(2) 
PARAMETRIC_REPRESENTATION_CONTEXT() REPRESENTATION_CONTEXT('2D SPACE',''
  ) );
#59 = ORIENTED_EDGE('',*,*,#60,.T.);
#60 = EDGE_CURVE('',#24,#61,#63,.T.);
#61 = VERTEX_POINT('',#62);
#62 = CARTESIAN_POINT('',(28.0368,-20.46,82.));
#63 = SURFACE_CURVE('',#64,(#70,#77),.PCURVE_S1.);
#64 = ( BOUNDED_CURVE() B_SPLINE_CURVE(4,(#65,#66,#67,#68,#69),
.UNSPECIFIED.,.F.,.F.) B_SPLINE_CURVE_WITH_KNOTS((5,5),(0.,1.),
.PIECEWISE_BEZIER_KNOTS.) CURVE() GEOMETRIC_REPRESENTATION_ITEM() 
RATIONAL_B_SPLINE_CURVE((1.,1.,1.,1.,1.)) REPRESENTATION_ITEM('') );
#65 = CARTESIAN_POINT('',(25.488,-18.6,-82.));
#66 = CARTESIAN_POINT('',(50.456371054037,-36.82079808557,
    -51.58565895354));
#67 = CARTESIAN_POINT('',(41.969418345317,-30.62740039324,4.887363060211
    ));
#68 = CARTESIAN_POINT('',(47.46051870941,-34.63455932183,41.868399186784
    ));
#69 = CARTESIAN_POINT('',(28.0368,-20.46,82.));
#70 = PCURVE('',#31,#71);
#71 = DEFINITIONAL_REPRESENTATION('',(#72),#76);
#72 = LINE('',#73,#74);
#73 = CARTESIAN_POINT('',(1.,0.));
#74 = VECTOR('',#75,1.);
#75 = DIRECTION('',(0.,1.));
#76 = ( GEOMETRIC_REPRESENTATION_CONTEXT(2) 
PARAMETRIC_REPRESENTATION_CONTEXT() REPRESENTATION_CONTEXT('2D SPACE',''
  ) );
#77 = PCURVE('',#78,#89);
#78 = ( BOUNDED_SURFACE() B_SPLINE_SURFACE(1,4,(
    (#79,#80,#81,#82,#83)
    ,(#84,#85,#86,#87,#88
)),.UNSPECIFIED.,.F.,.F.,.F.) B_SPLINE_SURFACE_WITH_KNOTS((2,2),(5,5),(
    1.,2.),(0.,1.),.PIECEWISE_BEZIER_KNOTS.) 
GEOMETRIC_REPRESENTATION_ITEM() RATIONAL_B_SPLINE_SURFACE((
    (1.,1.,1.,1.,1.)
,(1.,1.,1.,1.,1.))) REPRESENTATION_ITEM('') SURFACE() );
#79 = CARTESIAN_POINT('',(25.488,-18.6,-82.));
#80 = CARTESIAN_POINT('',(50.456371054037,-36.82079808557,
    -51.58565895354));
#81 = CARTESIAN_POINT('',(41.969418345317,-30.62740039324,4.887363060211
    ));
#82 = CARTESIAN_POINT('',(47.46051870941,-34.63455932183,41.868399186784
    ));
#83 = CARTESIAN_POINT('',(28.0368,-20.46,82.));
#84 = CARTESIAN_POINT('',(35.4,-8.688,-82.));
#85 = CARTESIAN_POINT('',(70.078293130607,-17.198876009,-51.58565895354)
  );
#86 = CARTESIAN_POINT('',(58.29085881294,-14.30595992561,4.887363060211)
  );
#87 = CARTESIAN_POINT('',(65.917387096402,-16.17769093484,
    41.868399186784));
#88 = CARTESIAN_POINT('',(38.94,-9.5568,82.));
#89 = DEFINITIONAL_REPRESENTATION('',(#90),#94);
#90 = LINE('',#91,#92);
#91 = CARTESIAN_POINT('',(1.,0.));
#92 = VECTOR('',#93,1.);
#93 = DIRECTION('',(0.,1.));
#94 = ( GEOMETRIC_REPRESENTATION_CONTEXT(2) 
PARAMETRIC_REPRESENTATION_CONTEXT() REPRESENTATION_CONTEXT('2D SPACE',''
  ) );
#95 = ORIENTED_EDGE('',*,*,#96,.F.);
#96 = EDGE_CURVE('',#97,#61,#99,.T.);
#97 = VERTEX_POINT('',#98);
#98 = CARTESIAN_POINT('',(-28.0368,-20.46,82.));
#99 = SURFACE_CURVE('',#100,(#103,#110),.PCURVE_S1.);
#100 = B_SPLINE_CURVE_WITH_KNOTS('',1,(#101,#102),.UNSPECIFIED.,.F.,.F.,
  (2,2),(0.,1.),.PIECEWISE_BEZIER_KNOTS.);
#101 = CARTESIAN_POINT('',(-28.0368,-20.46,82.));
#102 = CARTESIAN_POINT('',(28.0368,-20.46,82.));
#103 = PCURVE('',#31,#104);
#104 = DEFINITIONAL_REPRESENTATION('',(#105),#109);
#105 = LINE('',#106,#107);
#106 = CARTESIAN_POINT('',(0.,1.));
#107 = VECTOR('',#108,1.);
#108 = DIRECTION('',(1.,0.));
#109 = ( GEOMETRIC_REPRESENTATION_CONTEXT(2) 
PARAMETRIC_REPRESENTATION_CONTEXT() REPRESENTATION_CONTEXT('2D SPACE',''
  ) );
#110 = PCURVE('',#111,#116);
#111 = PLANE('',#112);
#112 = AXIS2_PLACEMENT_3D('',#113,#114,#115);
#113 = CARTESIAN_POINT('',(-28.0368,-20.46,82.));
#114 = DIRECTION('',(0.,0.,1.));
#115 = DIRECTION('',(0.912546358681,0.408973279393,-0.));
#116 = DEFINITIONAL_REPRESENTATION('',(#117),#120);
#117 = B_SPLINE_CURVE_WITH_KNOTS('',1,(#118,#119),.UNSPECIFIED.,.F.,.F.,
  (2,2),(0.,1.),.PIECEWISE_BEZIER_KNOTS.);
#118 = CARTESIAN_POINT('',(0.,0.));
#119 = CARTESIAN_POINT('',(51.169759498148,-22.93260407938));
#120 = ( GEOMETRIC_REPRESENTATION_CONTEXT(2) 
PARAMETRIC_REPRESENTATION_CONTEXT() REPRESENTATION_CONTEXT('2D SPACE',''
  ) );
#121 = ORIENTED_EDGE('',*,*,#122,.F.);
#122 = EDGE_CURVE('',#22,#97,#123,.T.);
#123 = SURFACE_CURVE('',#124,(#130,#137),.PCURVE_S1.);
#124 = ( BOUNDED_CURVE() B_SPLINE_CURVE(4,(#125,#126,#127,#128,#129),
.UNSPECIFIED.,.F.,.F.) B_SPLINE_CURVE_WITH_KNOTS((5,5),(0.,1.),
.PIECEWISE_BEZIER_KNOTS.) CURVE() GEOMETRIC_REPRESENTATION_ITEM() 
RATIONAL_B_SPLINE_CURVE((1.,1.,1.,1.,1.)) REPRESENTATION_ITEM('') );
#125 = CARTESIAN_POINT('',(-25.488,-18.6,-82.));
#126 = CARTESIAN_POINT('',(-50.45637105403,-36.82079808557,
    -51.58565895354));
#127 = CARTESIAN_POINT('',(-41.96941834531,-30.62740039324,
    4.887363060211));
#128 = CARTESIAN_POINT('',(-47.46051870941,-34.63455932183,
    41.868399186784));
#129 = CARTESIAN_POINT('',(-28.0368,-20.46,82.));
#130 = PCURVE('',#31,#131);
#131 = DEFINITIONAL_REPRESENTATION('',(#132),#136);
#132 = LINE('',#133,#134);
#133 = CARTESIAN_POINT('',(0.,0.));
#134 = VECTOR('',#135,1.);
#135 = DIRECTION('',(0.,1.));
#136 = ( GEOMETRIC_REPRESENTATION_CONTEXT(2) 
PARAMETRIC_REPRESENTATION_CONTEXT() REPRESENTATION_CONTEXT('2D SPACE',''
  ) );
#137 = PCURVE('',#138,#149);
#138 = ( BOUNDED_SURFACE() B_SPLINE_SURFACE(1,4,(
    (#139,#140,#141,#142,#143)
    ,(#144,#145,#146,#147,#148
)),.UNSPECIFIED.,.F.,.F.,.F.) B_SPLINE_SURFACE_WITH_KNOTS((2,2),(5,5),(
    7.,8.),(0.,1.),.PIECEWISE_BEZIER_KNOTS.) 
GEOMETRIC_REPRESENTATION_ITEM() RATIONAL_B_SPLINE_SURFACE((
    (1.,1.,1.,1.,1.)
,(1.,1.,1.,1.,1.))) REPRESENTATION_ITEM('') SURFACE() );
#139 = CARTESIAN_POINT('',(-35.4,-8.688,-82.));
#140 = CARTESIAN_POINT('',(-70.0782931306,-17.198876009,-51.58565895354)
  );
#141 = CARTESIAN_POINT('',(-58.29085881294,-14.30595992561,
    4.887363060211));
#142 = CARTESIAN_POINT('',(-65.9173870964,-16.17769093484,
    41.868399186784));
#143 = CARTESIAN_POINT('',(-38.94,-9.5568,82.));
#144 = CARTESIAN_POINT('',(-25.488,-18.6,-82.));
#145 = CARTESIAN_POINT('',(-50.45637105403,-36.82079808557,
    -51.58565895354));
#146 = CARTESIAN_POINT('',(-41.96941834531,-30.62740039324,
    4.887363060211));
#147 = CARTESIAN_POINT('',(-47.46051870941,-34.63455932183,
    41.868399186784));
#148 = CARTESIAN_POINT('',(-28.0368,-20.46,82.));
#149 = DEFINITIONAL_REPRESENTATION('',(#150),#154);
#150 = LINE('',#151,#152);
#151 = CARTESIAN_POINT('',(8.,0.));
#152 = VECTOR('',#153,1.);
#153 = DIRECTION('',(0.,1.));
#154 = ( GEOMETRIC_REPRESENTATION_CONTEXT(2) 
PARAMETRIC_REPRESENTATION_CONTEXT() REPRESENTATION_CONTEXT('2D SPACE',''
  ) );
#155 = ADVANCED_FACE('',(#156),#49,.F.);
#156 = FACE_BOUND('',#157,.F.);
#157 = EDGE_LOOP('',(#158,#179,#180,#201,#233,#259,#291,#323,#355,#387,
    #419,#445));
#158 = ORIENTED_EDGE('',*,*,#159,.T.);
#159 = EDGE_CURVE('',#160,#22,#162,.T.);
#160 = VERTEX_POINT('',#161);
#161 = CARTESIAN_POINT('',(-35.4,-8.688,-82.));
#162 = SURFACE_CURVE('',#163,(#166,#172),.PCURVE_S1.);
#163 = B_SPLINE_CURVE_WITH_KNOTS('',1,(#164,#165),.UNSPECIFIED.,.F.,.F.,
  (2,2),(7.,8.),.PIECEWISE_BEZIER_KNOTS.);
#164 = CARTESIAN_POINT('',(-35.4,-8.688,-82.));
#165 = CARTESIAN_POINT('',(-25.488,-18.6,-82.));
#166 = PCURVE('',#49,#167);
#167 = DEFINITIONAL_REPRESENTATION('',(#168),#171);
#168 = B_SPLINE_CURVE_WITH_KNOTS('',1,(#169,#170),.UNSPECIFIED.,.F.,.F.,
  (2,2),(7.,8.),.PIECEWISE_BEZIER_KNOTS.);
#169 = CARTESIAN_POINT('',(-4.991416361903,13.098902652594));
#170 = CARTESIAN_POINT('',(0.,0.));
#171 = ( GEOMETRIC_REPRESENTATION_CONTEXT(2) 
PARAMETRIC_REPRESENTATION_CONTEXT() REPRESENTATION_CONTEXT('2D SPACE',''
  ) );
#172 = PCURVE('',#138,#173);
#173 = DEFINITIONAL_REPRESENTATION('',(#174),#178);
#174 = LINE('',#175,#176);
#175 = CARTESIAN_POINT('',(0.,0.));
#176 = VECTOR('',#177,1.);
#177 = DIRECTION('',(1.,0.));
#178 = ( GEOMETRIC_REPRESENTATION_CONTEXT(2) 
PARAMETRIC_REPRESENTATION_CONTEXT() REPRESENTATION_CONTEXT('2D SPACE',''
  ) );
#179 = ORIENTED_EDGE('',*,*,#21,.T.);
#180 = ORIENTED_EDGE('',*,*,#181,.T.);
#181 = EDGE_CURVE('',#24,#182,#184,.T.);
#182 = VERTEX_POINT('',#183);
#183 = CARTESIAN_POINT('',(35.4,-8.688,-82.));
#184 = SURFACE_CURVE('',#185,(#188,#194),.PCURVE_S1.);
#185 = B_SPLINE_CURVE_WITH_KNOTS('',1,(#186,#187),.UNSPECIFIED.,.F.,.F.,
  (2,2),(1.,2.),.PIECEWISE_BEZIER_KNOTS.);
#186 = CARTESIAN_POINT('',(25.488,-18.6,-82.));
#187 = CARTESIAN_POINT('',(35.4,-8.688,-82.));
#188 = PCURVE('',#49,#189);
#189 = DEFINITIONAL_REPRESENTATION('',(#190),#193);
#190 = B_SPLINE_CURVE_WITH_KNOTS('',1,(#191,#192),.UNSPECIFIED.,.F.,.F.,
  (2,2),(1.,2.),.PIECEWISE_BEZIER_KNOTS.);
#191 = CARTESIAN_POINT('',(46.517963180134,-20.84782189034));
#192 = CARTESIAN_POINT('',(59.616865832728,-15.85640552844));
#193 = ( GEOMETRIC_REPRESENTATION_CONTEXT(2) 
PARAMETRIC_REPRESENTATION_CONTEXT() REPRESENTATION_CONTEXT('2D SPACE',''
  ) );
#194 = PCURVE('',#78,#195);
#195 = DEFINITIONAL_REPRESENTATION('',(#196),#200);
#196 = LINE('',#197,#198);
#197 = CARTESIAN_POINT('',(0.,0.));
#198 = VECTOR('',#199,1.);
#199 = DIRECTION('',(1.,0.));
#200 = ( GEOMETRIC_REPRESENTATION_CONTEXT(2) 
PARAMETRIC_REPRESENTATION_CONTEXT() REPRESENTATION_CONTEXT('2D SPACE',''
  ) );
#201 = ORIENTED_EDGE('',*,*,#202,.T.);
#202 = EDGE_CURVE('',#182,#203,#205,.T.);
#203 = VERTEX_POINT('',#204);
#204 = CARTESIAN_POINT('',(35.4,0.,-82.));
#205 = SURFACE_CURVE('',#206,(#209,#215),.PCURVE_S1.);
#206 = B_SPLINE_CURVE_WITH_KNOTS('',1,(#207,#208),.UNSPECIFIED.,.F.,.F.,
  (2,2),(2.,3.),.PIECEWISE_BEZIER_KNOTS.);
#207 = CARTESIAN_POINT('',(35.4,-8.688,-82.));
#208 = CARTESIAN_POINT('',(35.4,8.688,-82.));
#209 = PCURVE('',#49,#210);
#210 = DEFINITIONAL_REPRESENTATION('',(#211),#214);
#211 = B_SPLINE_CURVE_WITH_KNOTS('',1,(#212,#213),.UNSPECIFIED.,.F.,.F.,
  (2,2),(2.,3.),.PIECEWISE_BEZIER_KNOTS.);
#212 = CARTESIAN_POINT('',(59.616865832728,-15.85640552844));
#213 = CARTESIAN_POINT('',(66.723185535464,-3.552713678801E-15));
#214 = ( GEOMETRIC_REPRESENTATION_CONTEXT(2) 
PARAMETRIC_REPRESENTATION_CONTEXT() REPRESENTATION_CONTEXT('2D SPACE',''
  ) );
#215 = PCURVE('',#216,#227);
#216 = ( BOUNDED_SURFACE() B_SPLINE_SURFACE(1,4,(
    (#217,#218,#219,#220,#221)
    ,(#222,#223,#224,#225,#226
)),.UNSPECIFIED.,.F.,.F.,.F.) B_SPLINE_SURFACE_WITH_KNOTS((2,2),(5,5),(
    2.,3.),(0.,1.),.PIECEWISE_BEZIER_KNOTS.) 
GEOMETRIC_REPRESENTATION_ITEM() RATIONAL_B_SPLINE_SURFACE((
    (1.,1.,1.,1.,1.)
,(1.,1.,1.,1.,1.))) REPRESENTATION_ITEM('') SURFACE() );
#217 = CARTESIAN_POINT('',(35.4,-8.688,-82.));
#218 = CARTESIAN_POINT('',(70.078293130607,-17.198876009,-51.58565895354
    ));
#219 = CARTESIAN_POINT('',(58.29085881294,-14.30595992561,4.887363060211
    ));
#220 = CARTESIAN_POINT('',(65.917387096402,-16.17769093484,
    41.868399186784));
#221 = CARTESIAN_POINT('',(38.94,-9.5568,82.));
#222 = CARTESIAN_POINT('',(35.4,8.688,-82.));
#223 = CARTESIAN_POINT('',(70.078293130607,17.198876009003,
    -51.58565895354));
#224 = CARTESIAN_POINT('',(58.29085881294,14.305959925616,4.887363060211
    ));
#225 = CARTESIAN_POINT('',(65.917387096402,16.177690934846,
    41.868399186784));
#226 = CARTESIAN_POINT('',(38.94,9.5568,82.));
#227 = DEFINITIONAL_REPRESENTATION('',(#228),#232);
#228 = LINE('',#229,#230);
#229 = CARTESIAN_POINT('',(0.,0.));
#230 = VECTOR('',#231,1.);
#231 = DIRECTION('',(1.,0.));
#232 = ( GEOMETRIC_REPRESENTATION_CONTEXT(2) 
PARAMETRIC_REPRESENTATION_CONTEXT() REPRESENTATION_CONTEXT('2D SPACE',''
  ) );
#233 = ORIENTED_EDGE('',*,*,#234,.T.);
#234 = EDGE_CURVE('',#203,#235,#237,.T.);
#235 = VERTEX_POINT('',#236);
#236 = CARTESIAN_POINT('',(32.4,0.,-82.));
#237 = SURFACE_CURVE('',#238,(#242,#248),.PCURVE_S1.);
#238 = LINE('',#239,#240);
#239 = CARTESIAN_POINT('',(-71.744,0.,-82.));
#240 = VECTOR('',#241,1.);
#241 = DIRECTION('',(-1.,0.,0.));
#242 = PCURVE('',#49,#243);
#243 = DEFINITIONAL_REPRESENTATION('',(#244),#247);
#244 = B_SPLINE_CURVE_WITH_KNOTS('',1,(#245,#246),.UNSPECIFIED.,.F.,.F.,
  (2,2),(-111.0376759952,-32.45032400473),.PIECEWISE_BEZIER_KNOTS.);
#245 = CARTESIAN_POINT('',(66.723185535464,-9.520612204903));
#246 = CARTESIAN_POINT('',(-4.991416361903,22.619514857496));
#247 = ( GEOMETRIC_REPRESENTATION_CONTEXT(2) 
PARAMETRIC_REPRESENTATION_CONTEXT() REPRESENTATION_CONTEXT('2D SPACE',''
  ) );
#248 = PCURVE('',#249,#254);
#249 = PLANE('',#250);
#250 = AXIS2_PLACEMENT_3D('',#251,#252,#253);
#251 = CARTESIAN_POINT('',(-118.,0.,-98.4));
#252 = DIRECTION('',(0.,1.,0.));
#253 = DIRECTION('',(0.,0.,1.));
#254 = DEFINITIONAL_REPRESENTATION('',(#255),#258);
#255 = B_SPLINE_CURVE_WITH_KNOTS('',1,(#256,#257),.UNSPECIFIED.,.F.,.F.,
  (2,2),(-111.0376759952,-32.45032400473),.PIECEWISE_BEZIER_KNOTS.);
#256 = CARTESIAN_POINT('',(16.4,157.29367599527));
#257 = CARTESIAN_POINT('',(16.4,78.70632400473));
#258 = ( GEOMETRIC_REPRESENTATION_CONTEXT(2) 
PARAMETRIC_REPRESENTATION_CONTEXT() REPRESENTATION_CONTEXT('2D SPACE',''
  ) );
#259 = ORIENTED_EDGE('',*,*,#260,.F.);
#260 = EDGE_CURVE('',#261,#235,#263,.T.);
#261 = VERTEX_POINT('',#262);
#262 = CARTESIAN_POINT('',(32.4,-6.528,-82.));
#263 = SURFACE_CURVE('',#264,(#267,#273),.PCURVE_S1.);
#264 = B_SPLINE_CURVE_WITH_KNOTS('',1,(#265,#266),.UNSPECIFIED.,.F.,.F.,
  (2,2),(2.,3.),.PIECEWISE_BEZIER_KNOTS.);
#265 = CARTESIAN_POINT('',(32.4,-6.528,-82.));
#266 = CARTESIAN_POINT('',(32.4,6.528,-82.));
#267 = PCURVE('',#49,#268);
#268 = DEFINITIONAL_REPRESENTATION('',(#269),#272);
#269 = B_SPLINE_CURVE_WITH_KNOTS('',1,(#270,#271),.UNSPECIFIED.,.F.,.F.,
  (2,2),(2.,3.),.PIECEWISE_BEZIER_KNOTS.);
#270 = CARTESIAN_POINT('',(57.762609040174,-12.65838555551));
#271 = CARTESIAN_POINT('',(63.102164175931,-0.744180296572));
#272 = ( GEOMETRIC_REPRESENTATION_CONTEXT(2) 
PARAMETRIC_REPRESENTATION_CONTEXT() REPRESENTATION_CONTEXT('2D SPACE',''
  ) );
#273 = PCURVE('',#274,#285);
#274 = ( BOUNDED_SURFACE() B_SPLINE_SURFACE(1,4,(
    (#275,#276,#277,#278,#279)
    ,(#280,#281,#282,#283,#284
)),.UNSPECIFIED.,.F.,.F.,.F.) B_SPLINE_SURFACE_WITH_KNOTS((2,2),(5,5),(
    2.,3.),(0.,1.),.PIECEWISE_BEZIER_KNOTS.) 
GEOMETRIC_REPRESENTATION_ITEM() RATIONAL_B_SPLINE_SURFACE((
    (1.,1.,1.,1.,1.)
,(1.,1.,1.,1.,1.))) REPRESENTATION_ITEM('') SURFACE() );
#275 = CARTESIAN_POINT('',(32.4,-6.528,-82.));
#276 = CARTESIAN_POINT('',(67.078293130607,-15.038876009,-51.58565895354
    ));
#277 = CARTESIAN_POINT('',(55.29085881294,-12.14595992561,4.887363060211
    ));
#278 = CARTESIAN_POINT('',(62.917387096402,-14.01769093484,
    41.868399186784));
#279 = CARTESIAN_POINT('',(35.94,-7.3968,82.));
#280 = CARTESIAN_POINT('',(32.4,6.528,-82.));
#281 = CARTESIAN_POINT('',(67.078293130607,15.038876009003,
    -51.58565895354));
#282 = CARTESIAN_POINT('',(55.29085881294,12.145959925616,4.887363060211
    ));
#283 = CARTESIAN_POINT('',(62.917387096402,14.017690934846,
    41.868399186784));
#284 = CARTESIAN_POINT('',(35.94,7.3968,82.));
#285 = DEFINITIONAL_REPRESENTATION('',(#286),#290);
#286 = LINE('',#287,#288);
#287 = CARTESIAN_POINT('',(0.,0.));
#288 = VECTOR('',#289,1.);
#289 = DIRECTION('',(1.,0.));
#290 = ( GEOMETRIC_REPRESENTATION_CONTEXT(2) 
PARAMETRIC_REPRESENTATION_CONTEXT() REPRESENTATION_CONTEXT('2D SPACE',''
  ) );
#291 = ORIENTED_EDGE('',*,*,#292,.F.);
#292 = EDGE_CURVE('',#293,#261,#295,.T.);
#293 = VERTEX_POINT('',#294);
#294 = CARTESIAN_POINT('',(23.328,-15.6,-82.));
#295 = SURFACE_CURVE('',#296,(#299,#305),.PCURVE_S1.);
#296 = B_SPLINE_CURVE_WITH_KNOTS('',1,(#297,#298),.UNSPECIFIED.,.F.,.F.,
  (2,2),(1.,2.),.PIECEWISE_BEZIER_KNOTS.);
#297 = CARTESIAN_POINT('',(23.328,-15.6,-82.));
#298 = CARTESIAN_POINT('',(32.4,-6.528,-82.));
#299 = PCURVE('',#49,#300);
#300 = DEFINITIONAL_REPRESENTATION('',(#301),#304);
#301 = B_SPLINE_CURVE_WITH_KNOTS('',1,(#302,#303),.UNSPECIFIED.,.F.,.F.,
  (2,2),(1.,2.),.PIECEWISE_BEZIER_KNOTS.);
#302 = CARTESIAN_POINT('',(45.773782883562,-17.22680053081));
#303 = CARTESIAN_POINT('',(57.762609040174,-12.65838555551));
#304 = ( GEOMETRIC_REPRESENTATION_CONTEXT(2) 
PARAMETRIC_REPRESENTATION_CONTEXT() REPRESENTATION_CONTEXT('2D SPACE',''
  ) );
#305 = PCURVE('',#306,#317);
#306 = ( BOUNDED_SURFACE() B_SPLINE_SURFACE(1,4,(
    (#307,#308,#309,#310,#311)
    ,(#312,#313,#314,#315,#316
)),.UNSPECIFIED.,.F.,.F.,.F.) B_SPLINE_SURFACE_WITH_KNOTS((2,2),(5,5),(
    1.,2.),(0.,1.),.PIECEWISE_BEZIER_KNOTS.) 
GEOMETRIC_REPRESENTATION_ITEM() RATIONAL_B_SPLINE_SURFACE((
    (1.,1.,1.,1.,1.)
,(1.,1.,1.,1.,1.))) REPRESENTATION_ITEM('') SURFACE() );
#307 = CARTESIAN_POINT('',(23.328,-15.6,-82.));
#308 = CARTESIAN_POINT('',(48.296371054037,-33.82079808557,
    -51.58565895354));
#309 = CARTESIAN_POINT('',(39.809418345317,-27.62740039323,
    4.887363060211));
#310 = CARTESIAN_POINT('',(45.30051870941,-31.63455932183,
    41.868399186784));
#311 = CARTESIAN_POINT('',(25.8768,-17.46,82.));
#312 = CARTESIAN_POINT('',(32.4,-6.528,-82.));
#313 = CARTESIAN_POINT('',(67.078293130607,-15.038876009,-51.58565895354
    ));
#314 = CARTESIAN_POINT('',(55.29085881294,-12.14595992561,4.887363060211
    ));
#315 = CARTESIAN_POINT('',(62.917387096402,-14.01769093484,
    41.868399186784));
#316 = CARTESIAN_POINT('',(35.94,-7.3968,82.));
#317 = DEFINITIONAL_REPRESENTATION('',(#318),#322);
#318 = LINE('',#319,#320);
#319 = CARTESIAN_POINT('',(0.,0.));
#320 = VECTOR('',#321,1.);
#321 = DIRECTION('',(1.,0.));
#322 = ( GEOMETRIC_REPRESENTATION_CONTEXT(2) 
PARAMETRIC_REPRESENTATION_CONTEXT() REPRESENTATION_CONTEXT('2D SPACE',''
  ) );
#323 = ORIENTED_EDGE('',*,*,#324,.F.);
#324 = EDGE_CURVE('',#325,#293,#327,.T.);
#325 = VERTEX_POINT('',#326);
#326 = CARTESIAN_POINT('',(-23.328,-15.6,-82.));
#327 = SURFACE_CURVE('',#328,(#331,#337),.PCURVE_S1.);
#328 = B_SPLINE_CURVE_WITH_KNOTS('',1,(#329,#330),.UNSPECIFIED.,.F.,.F.,
  (2,2),(0.,1.),.PIECEWISE_BEZIER_KNOTS.);
#329 = CARTESIAN_POINT('',(-23.328,-15.6,-82.));
#330 = CARTESIAN_POINT('',(23.328,-15.6,-82.));
#331 = PCURVE('',#49,#332);
#332 = DEFINITIONAL_REPRESENTATION('',(#333),#336);
#333 = B_SPLINE_CURVE_WITH_KNOTS('',1,(#334,#335),.UNSPECIFIED.,.F.,.F.,
  (2,2),(0.,1.),.PIECEWISE_BEZIER_KNOTS.);
#334 = CARTESIAN_POINT('',(3.198019972931,1.854256792554));
#335 = CARTESIAN_POINT('',(45.773782883562,-17.22680053081));
#336 = ( GEOMETRIC_REPRESENTATION_CONTEXT(2) 
PARAMETRIC_REPRESENTATION_CONTEXT() REPRESENTATION_CONTEXT('2D SPACE',''
  ) );
#337 = PCURVE('',#338,#349);
#338 = ( BOUNDED_SURFACE() B_SPLINE_SURFACE(1,4,(
    (#339,#340,#341,#342,#343)
    ,(#344,#345,#346,#347,#348
)),.UNSPECIFIED.,.F.,.F.,.F.) B_SPLINE_SURFACE_WITH_KNOTS((2,2),(5,5),(
    0.,1.),(0.,1.),.PIECEWISE_BEZIER_KNOTS.) 
GEOMETRIC_REPRESENTATION_ITEM() RATIONAL_B_SPLINE_SURFACE((
    (1.,1.,1.,1.,1.)
,(1.,1.,1.,1.,1.))) REPRESENTATION_ITEM('') SURFACE() );
#339 = CARTESIAN_POINT('',(-23.328,-15.6,-82.));
#340 = CARTESIAN_POINT('',(-48.29637105403,-33.82079808557,
    -51.58565895354));
#341 = CARTESIAN_POINT('',(-39.80941834531,-27.62740039323,
    4.887363060211));
#342 = CARTESIAN_POINT('',(-45.30051870941,-31.63455932183,
    41.868399186784));
#343 = CARTESIAN_POINT('',(-25.8768,-17.46,82.));
#344 = CARTESIAN_POINT('',(23.328,-15.6,-82.));
#345 = CARTESIAN_POINT('',(48.296371054037,-33.82079808557,
    -51.58565895354));
#346 = CARTESIAN_POINT('',(39.809418345317,-27.62740039323,
    4.887363060211));
#347 = CARTESIAN_POINT('',(45.30051870941,-31.63455932183,
    41.868399186784));
#348 = CARTESIAN_POINT('',(25.8768,-17.46,82.));
#349 = DEFINITIONAL_REPRESENTATION('',(#350),#354);
#350 = LINE('',#351,#352);
#351 = CARTESIAN_POINT('',(0.,0.));
#352 = VECTOR('',#353,1.);
#353 = DIRECTION('',(1.,0.));
#354 = ( GEOMETRIC_REPRESENTATION_CONTEXT(2) 
PARAMETRIC_REPRESENTATION_CONTEXT() REPRESENTATION_CONTEXT('2D SPACE',''
  ) );
#355 = ORIENTED_EDGE('',*,*,#356,.F.);
#356 = EDGE_CURVE('',#357,#325,#359,.T.);
#357 = VERTEX_POINT('',#358);
#358 = CARTESIAN_POINT('',(-32.4,-6.528,-82.));
#359 = SURFACE_CURVE('',#360,(#363,#369),.PCURVE_S1.);
#360 = B_SPLINE_CURVE_WITH_KNOTS('',1,(#361,#362),.UNSPECIFIED.,.F.,.F.,
  (2,2),(7.,8.),.PIECEWISE_BEZIER_KNOTS.);
#361 = CARTESIAN_POINT('',(-32.4,-6.528,-82.));
#362 = CARTESIAN_POINT('',(-23.328,-15.6,-82.));
#363 = PCURVE('',#49,#364);
#364 = DEFINITIONAL_REPRESENTATION('',(#365),#368);
#365 = B_SPLINE_CURVE_WITH_KNOTS('',1,(#366,#367),.UNSPECIFIED.,.F.,.F.,
  (2,2),(7.,8.),.PIECEWISE_BEZIER_KNOTS.);
#366 = CARTESIAN_POINT('',(-1.37039500237,13.843082949166));
#367 = CARTESIAN_POINT('',(3.198019972931,1.854256792554));
#368 = ( GEOMETRIC_REPRESENTATION_CONTEXT(2) 
PARAMETRIC_REPRESENTATION_CONTEXT() REPRESENTATION_CONTEXT('2D SPACE',''
  ) );
#369 = PCURVE('',#370,#381);
#370 = ( BOUNDED_SURFACE() B_SPLINE_SURFACE(1,4,(
    (#371,#372,#373,#374,#375)
    ,(#376,#377,#378,#379,#380
)),.UNSPECIFIED.,.F.,.F.,.F.) B_SPLINE_SURFACE_WITH_KNOTS((2,2),(5,5),(
    7.,8.),(0.,1.),.PIECEWISE_BEZIER_KNOTS.) 
GEOMETRIC_REPRESENTATION_ITEM() RATIONAL_B_SPLINE_SURFACE((
    (1.,1.,1.,1.,1.)
,(1.,1.,1.,1.,1.))) REPRESENTATION_ITEM('') SURFACE() );
#371 = CARTESIAN_POINT('',(-32.4,-6.528,-82.));
#372 = CARTESIAN_POINT('',(-67.0782931306,-15.038876009,-51.58565895354)
  );
#373 = CARTESIAN_POINT('',(-55.29085881294,-12.14595992561,
    4.887363060211));
#374 = CARTESIAN_POINT('',(-62.9173870964,-14.01769093484,
    41.868399186784));
#375 = CARTESIAN_POINT('',(-35.94,-7.3968,82.));
#376 = CARTESIAN_POINT('',(-23.328,-15.6,-82.));
#377 = CARTESIAN_POINT('',(-48.29637105403,-33.82079808557,
    -51.58565895354));
#378 = CARTESIAN_POINT('',(-39.80941834531,-27.62740039323,
    4.887363060211));
#379 = CARTESIAN_POINT('',(-45.30051870941,-31.63455932183,
    41.868399186784));
#380 = CARTESIAN_POINT('',(-25.8768,-17.46,82.));
#381 = DEFINITIONAL_REPRESENTATION('',(#382),#386);
#382 = LINE('',#383,#384);
#383 = CARTESIAN_POINT('',(0.,0.));
#384 = VECTOR('',#385,1.);
#385 = DIRECTION('',(1.,0.));
#386 = ( GEOMETRIC_REPRESENTATION_CONTEXT(2) 
PARAMETRIC_REPRESENTATION_CONTEXT() REPRESENTATION_CONTEXT('2D SPACE',''
  ) );
#387 = ORIENTED_EDGE('',*,*,#388,.F.);
#388 = EDGE_CURVE('',#389,#357,#391,.T.);
#389 = VERTEX_POINT('',#390);
#390 = CARTESIAN_POINT('',(-32.4,0.,-82.));
#391 = SURFACE_CURVE('',#392,(#395,#401),.PCURVE_S1.);
#392 = B_SPLINE_CURVE_WITH_KNOTS('',1,(#393,#394),.UNSPECIFIED.,.F.,.F.,
  (2,2),(6.,7.),.PIECEWISE_BEZIER_KNOTS.);
#393 = CARTESIAN_POINT('',(-32.4,6.528,-82.));
#394 = CARTESIAN_POINT('',(-32.4,-6.528,-82.));
#395 = PCURVE('',#49,#396);
#396 = DEFINITIONAL_REPRESENTATION('',(#397),#400);
#397 = B_SPLINE_CURVE_WITH_KNOTS('',1,(#398,#399),.UNSPECIFIED.,.F.,.F.,
  (2,2),(6.,7.),.PIECEWISE_BEZIER_KNOTS.);
#398 = CARTESIAN_POINT('',(3.969160133388,25.757288208108));
#399 = CARTESIAN_POINT('',(-1.37039500237,13.843082949166));
#400 = ( GEOMETRIC_REPRESENTATION_CONTEXT(2) 
PARAMETRIC_REPRESENTATION_CONTEXT() REPRESENTATION_CONTEXT('2D SPACE',''
  ) );
#401 = PCURVE('',#402,#413);
#402 = ( BOUNDED_SURFACE() B_SPLINE_SURFACE(1,4,(
    (#403,#404,#405,#406,#407)
    ,(#408,#409,#410,#411,#412
)),.UNSPECIFIED.,.F.,.F.,.F.) B_SPLINE_SURFACE_WITH_KNOTS((2,2),(5,5),(
    6.,7.),(0.,1.),.PIECEWISE_BEZIER_KNOTS.) 
GEOMETRIC_REPRESENTATION_ITEM() RATIONAL_B_SPLINE_SURFACE((
    (1.,1.,1.,1.,1.)
,(1.,1.,1.,1.,1.))) REPRESENTATION_ITEM('') SURFACE() );
#403 = CARTESIAN_POINT('',(-32.4,6.528,-82.));
#404 = CARTESIAN_POINT('',(-67.0782931306,15.038876009003,
    -51.58565895354));
#405 = CARTESIAN_POINT('',(-55.29085881294,12.145959925616,
    4.887363060211));
#406 = CARTESIAN_POINT('',(-62.9173870964,14.017690934846,
    41.868399186784));
#407 = CARTESIAN_POINT('',(-35.94,7.3968,82.));
#408 = CARTESIAN_POINT('',(-32.4,-6.528,-82.));
#409 = CARTESIAN_POINT('',(-67.0782931306,-15.038876009,-51.58565895354)
  );
#410 = CARTESIAN_POINT('',(-55.29085881294,-12.14595992561,
    4.887363060211));
#411 = CARTESIAN_POINT('',(-62.9173870964,-14.01769093484,
    41.868399186784));
#412 = CARTESIAN_POINT('',(-35.94,-7.3968,82.));
#413 = DEFINITIONAL_REPRESENTATION('',(#414),#418);
#414 = LINE('',#415,#416);
#415 = CARTESIAN_POINT('',(0.,0.));
#416 = VECTOR('',#417,1.);
#417 = DIRECTION('',(1.,0.));
#418 = ( GEOMETRIC_REPRESENTATION_CONTEXT(2) 
PARAMETRIC_REPRESENTATION_CONTEXT() REPRESENTATION_CONTEXT('2D SPACE',''
  ) );
#419 = ORIENTED_EDGE('',*,*,#420,.T.);
#420 = EDGE_CURVE('',#389,#421,#423,.T.);
#421 = VERTEX_POINT('',#422);
#422 = CARTESIAN_POINT('',(-35.4,0.,-82.));
#423 = SURFACE_CURVE('',#424,(#428,#434),.PCURVE_S1.);
#424 = LINE('',#425,#426);
#425 = CARTESIAN_POINT('',(-71.744,0.,-82.));
#426 = VECTOR('',#427,1.);
#427 = DIRECTION('',(-1.,0.,0.));
#428 = PCURVE('',#49,#429);
#429 = DEFINITIONAL_REPRESENTATION('',(#430),#433);
#430 = B_SPLINE_CURVE_WITH_KNOTS('',1,(#431,#432),.UNSPECIFIED.,.F.,.F.,
  (2,2),(-111.0376759952,-32.45032400473),.PIECEWISE_BEZIER_KNOTS.);
#431 = CARTESIAN_POINT('',(66.723185535464,-9.520612204903));
#432 = CARTESIAN_POINT('',(-4.991416361903,22.619514857496));
#433 = ( GEOMETRIC_REPRESENTATION_CONTEXT(2) 
PARAMETRIC_REPRESENTATION_CONTEXT() REPRESENTATION_CONTEXT('2D SPACE',''
  ) );
#434 = PCURVE('',#435,#440);
#435 = PLANE('',#436);
#436 = AXIS2_PLACEMENT_3D('',#437,#438,#439);
#437 = CARTESIAN_POINT('',(-118.,0.,-98.4));
#438 = DIRECTION('',(0.,1.,0.));
#439 = DIRECTION('',(0.,0.,1.));
#440 = DEFINITIONAL_REPRESENTATION('',(#441),#444);
#441 = B_SPLINE_CURVE_WITH_KNOTS('',1,(#442,#443),.UNSPECIFIED.,.F.,.F.,
  (2,2),(-111.0376759952,-32.45032400473),.PIECEWISE_BEZIER_KNOTS.);
#442 = CARTESIAN_POINT('',(16.4,157.29367599527));
#443 = CARTESIAN_POINT('',(16.4,78.70632400473));
#444 = ( GEOMETRIC_REPRESENTATION_CONTEXT(2) 
PARAMETRIC_REPRESENTATION_CONTEXT() REPRESENTATION_CONTEXT('2D SPACE',''
  ) );
#445 = ORIENTED_EDGE('',*,*,#446,.T.);
#446 = EDGE_CURVE('',#421,#160,#447,.T.);
#447 = SURFACE_CURVE('',#448,(#451,#457),.PCURVE_S1.);
#448 = B_SPLINE_CURVE_WITH_KNOTS('',1,(#449,#450),.UNSPECIFIED.,.F.,.F.,
  (2,2),(6.,7.),.PIECEWISE_BEZIER_KNOTS.);
#449 = CARTESIAN_POINT('',(-35.4,8.688,-82.));
#450 = CARTESIAN_POINT('',(-35.4,-8.688,-82.));
#451 = PCURVE('',#49,#452);
#452 = DEFINITIONAL_REPRESENTATION('',(#453),#456);
#453 = B_SPLINE_CURVE_WITH_KNOTS('',1,(#454,#455),.UNSPECIFIED.,.F.,.F.,
  (2,2),(6.,7.),.PIECEWISE_BEZIER_KNOTS.);
#454 = CARTESIAN_POINT('',(2.114903340833,28.955308181039));
#455 = CARTESIAN_POINT('',(-4.991416361903,13.098902652594));
#456 = ( GEOMETRIC_REPRESENTATION_CONTEXT(2) 
PARAMETRIC_REPRESENTATION_CONTEXT() REPRESENTATION_CONTEXT('2D SPACE',''
  ) );
#457 = PCURVE('',#458,#469);
#458 = ( BOUNDED_SURFACE() B_SPLINE_SURFACE(1,4,(
    (#459,#460,#461,#462,#463)
    ,(#464,#465,#466,#467,#468
)),.UNSPECIFIED.,.F.,.F.,.F.) B_SPLINE_SURFACE_WITH_KNOTS((2,2),(5,5),(
    6.,7.),(0.,1.),.PIECEWISE_BEZIER_KNOTS.) 
GEOMETRIC_REPRESENTATION_ITEM() RATIONAL_B_SPLINE_SURFACE((
    (1.,1.,1.,1.,1.)
,(1.,1.,1.,1.,1.))) REPRESENTATION_ITEM('') SURFACE() );
#459 = CARTESIAN_POINT('',(-35.4,8.688,-82.));
#460 = CARTESIAN_POINT('',(-70.0782931306,17.198876009003,
    -51.58565895354));
#461 = CARTESIAN_POINT('',(-58.29085881294,14.305959925616,
    4.887363060211));
#462 = CARTESIAN_POINT('',(-65.9173870964,16.177690934846,
    41.868399186784));
#463 = CARTESIAN_POINT('',(-38.94,9.5568,82.));
#464 = CARTESIAN_POINT('',(-35.4,-8.688,-82.));
#465 = CARTESIAN_POINT('',(-70.0782931306,-17.198876009,-51.58565895354)
  );
#466 = CARTESIAN_POINT('',(-58.29085881294,-14.30595992561,
    4.887363060211));
#467 = CARTESIAN_POINT('',(-65.9173870964,-16.17769093484,
    41.868399186784));
#468 = CARTESIAN_POINT('',(-38.94,-9.5568,82.));
#469 = DEFINITIONAL_REPRESENTATION('',(#470),#474);
#470 = LINE('',#471,#472);
#471 = CARTESIAN_POINT('',(0.,0.));
#472 = VECTOR('',#473,1.);
#473 = DIRECTION('',(1.,0.));
#474 = ( GEOMETRIC_REPRESENTATION_CONTEXT(2) 
PARAMETRIC_REPRESENTATION_CONTEXT() REPRESENTATION_CONTEXT('2D SPACE',''
  ) );
#475 = ADVANCED_FACE('',(#476),#78,.T.);
#476 = FACE_BOUND('',#477,.T.);
#477 = EDGE_LOOP('',(#478,#479,#504,#523));
#478 = ORIENTED_EDGE('',*,*,#181,.T.);
#479 = ORIENTED_EDGE('',*,*,#480,.T.);
#480 = EDGE_CURVE('',#182,#481,#483,.T.);
#481 = VERTEX_POINT('',#482);
#482 = CARTESIAN_POINT('',(38.94,-9.5568,82.));
#483 = SURFACE_CURVE('',#484,(#490,#497),.PCURVE_S1.);
#484 = ( BOUNDED_CURVE() B_SPLINE_CURVE(4,(#485,#486,#487,#488,#489),
.UNSPECIFIED.,.F.,.F.) B_SPLINE_CURVE_WITH_KNOTS((5,5),(0.,1.),
.PIECEWISE_BEZIER_KNOTS.) CURVE() GEOMETRIC_REPRESENTATION_ITEM() 
RATIONAL_B_SPLINE_CURVE((1.,1.,1.,1.,1.)) REPRESENTATION_ITEM('') );
#485 = CARTESIAN_POINT('',(35.4,-8.688,-82.));
#486 = CARTESIAN_POINT('',(70.078293130607,-17.198876009,-51.58565895354
    ));
#487 = CARTESIAN_POINT('',(58.29085881294,-14.30595992561,4.887363060211
    ));
#488 = CARTESIAN_POINT('',(65.917387096402,-16.17769093484,
    41.868399186784));
#489 = CARTESIAN_POINT('',(38.94,-9.5568,82.));
#490 = PCURVE('',#78,#491);
#491 = DEFINITIONAL_REPRESENTATION('',(#492),#496);
#492 = LINE('',#493,#494);
#493 = CARTESIAN_POINT('',(2.,0.));
#494 = VECTOR('',#495,1.);
#495 = DIRECTION('',(0.,1.));
#496 = ( GEOMETRIC_REPRESENTATION_CONTEXT(2) 
PARAMETRIC_REPRESENTATION_CONTEXT() REPRESENTATION_CONTEXT('2D SPACE',''
  ) );
#497 = PCURVE('',#216,#498);
#498 = DEFINITIONAL_REPRESENTATION('',(#499),#503);
#499 = LINE('',#500,#501);
#500 = CARTESIAN_POINT('',(2.,0.));
#501 = VECTOR('',#502,1.);
#502 = DIRECTION('',(0.,1.));
#503 = ( GEOMETRIC_REPRESENTATION_CONTEXT(2) 
PARAMETRIC_REPRESENTATION_CONTEXT() REPRESENTATION_CONTEXT('2D SPACE',''
  ) );
#504 = ORIENTED_EDGE('',*,*,#505,.F.);
#505 = EDGE_CURVE('',#61,#481,#506,.T.);
#506 = SURFACE_CURVE('',#507,(#510,#517),.PCURVE_S1.);
#507 = B_SPLINE_CURVE_WITH_KNOTS('',1,(#508,#509),.UNSPECIFIED.,.F.,.F.,
  (2,2),(1.,2.),.PIECEWISE_BEZIER_KNOTS.);
#508 = CARTESIAN_POINT('',(28.0368,-20.46,82.));
#509 = CARTESIAN_POINT('',(38.94,-9.5568,82.));
#510 = PCURVE('',#78,#511);
#511 = DEFINITIONAL_REPRESENTATION('',(#512),#516);
#512 = LINE('',#513,#514);
#513 = CARTESIAN_POINT('',(0.,1.));
#514 = VECTOR('',#515,1.);
#515 = DIRECTION('',(1.,0.));
#516 = ( GEOMETRIC_REPRESENTATION_CONTEXT(2) 
PARAMETRIC_REPRESENTATION_CONTEXT() REPRESENTATION_CONTEXT('2D SPACE',''
  ) );
#517 = PCURVE('',#111,#518);
#518 = DEFINITIONAL_REPRESENTATION('',(#519),#522);
#519 = B_SPLINE_CURVE_WITH_KNOTS('',1,(#520,#521),.UNSPECIFIED.,.F.,.F.,
  (2,2),(1.,2.),.PIECEWISE_BEZIER_KNOTS.);
#520 = CARTESIAN_POINT('',(51.169759498148,-22.93260407938));
#521 = CARTESIAN_POINT('',(65.578552416001,-17.44204608129));
#522 = ( GEOMETRIC_REPRESENTATION_CONTEXT(2) 
PARAMETRIC_REPRESENTATION_CONTEXT() REPRESENTATION_CONTEXT('2D SPACE',''
  ) );
#523 = ORIENTED_EDGE('',*,*,#60,.F.);
#524 = ADVANCED_FACE('',(#525),#111,.T.);
#525 = FACE_BOUND('',#526,.T.);
#526 = EDGE_LOOP('',(#527,#548,#549,#550,#571,#592,#613,#634,#655,#676,
    #697,#718));
#527 = ORIENTED_EDGE('',*,*,#528,.T.);
#528 = EDGE_CURVE('',#529,#97,#531,.T.);
#529 = VERTEX_POINT('',#530);
#530 = CARTESIAN_POINT('',(-38.94,-9.5568,82.));
#531 = SURFACE_CURVE('',#532,(#535,#541),.PCURVE_S1.);
#532 = B_SPLINE_CURVE_WITH_KNOTS('',1,(#533,#534),.UNSPECIFIED.,.F.,.F.,
  (2,2),(7.,8.),.PIECEWISE_BEZIER_KNOTS.);
#533 = CARTESIAN_POINT('',(-38.94,-9.5568,82.));
#534 = CARTESIAN_POINT('',(-28.0368,-20.46,82.));
#535 = PCURVE('',#111,#536);
#536 = DEFINITIONAL_REPRESENTATION('',(#537),#540);
#537 = B_SPLINE_CURVE_WITH_KNOTS('',1,(#538,#539),.UNSPECIFIED.,.F.,.F.,
  (2,2),(7.,8.),.PIECEWISE_BEZIER_KNOTS.);
#538 = CARTESIAN_POINT('',(-5.490557998093,14.408792917853));
#539 = CARTESIAN_POINT('',(0.,0.));
#540 = ( GEOMETRIC_REPRESENTATION_CONTEXT(2) 
PARAMETRIC_REPRESENTATION_CONTEXT() REPRESENTATION_CONTEXT('2D SPACE',''
  ) );
#541 = PCURVE('',#138,#542);
#542 = DEFINITIONAL_REPRESENTATION('',(#543),#547);
#543 = LINE('',#544,#545);
#544 = CARTESIAN_POINT('',(0.,1.));
#545 = VECTOR('',#546,1.);
#546 = DIRECTION('',(1.,0.));
#547 = ( GEOMETRIC_REPRESENTATION_CONTEXT(2) 
PARAMETRIC_REPRESENTATION_CONTEXT() REPRESENTATION_CONTEXT('2D SPACE',''
  ) );
#548 = ORIENTED_EDGE('',*,*,#96,.T.);
#549 = ORIENTED_EDGE('',*,*,#505,.T.);
#550 = ORIENTED_EDGE('',*,*,#551,.T.);
#551 = EDGE_CURVE('',#481,#552,#554,.T.);
#552 = VERTEX_POINT('',#553);
#553 = CARTESIAN_POINT('',(38.94,0.,82.));
#554 = SURFACE_CURVE('',#555,(#558,#564),.PCURVE_S1.);
#555 = B_SPLINE_CURVE_WITH_KNOTS('',1,(#556,#557),.UNSPECIFIED.,.F.,.F.,
  (2,2),(2.,3.),.PIECEWISE_BEZIER_KNOTS.);
#556 = CARTESIAN_POINT('',(38.94,-9.5568,82.));
#557 = CARTESIAN_POINT('',(38.94,9.5568,82.));
#558 = PCURVE('',#111,#559);
#559 = DEFINITIONAL_REPRESENTATION('',(#560),#563);
#560 = B_SPLINE_CURVE_WITH_KNOTS('',1,(#561,#562),.UNSPECIFIED.,.F.,.F.,
  (2,2),(2.,3.),.PIECEWISE_BEZIER_KNOTS.);
#561 = CARTESIAN_POINT('',(65.578552416001,-17.44204608129));
#562 = CARTESIAN_POINT('',(73.395504089011,4.440892098501E-15));
#563 = ( GEOMETRIC_REPRESENTATION_CONTEXT(2) 
PARAMETRIC_REPRESENTATION_CONTEXT() REPRESENTATION_CONTEXT('2D SPACE',''
  ) );
#564 = PCURVE('',#216,#565);
#565 = DEFINITIONAL_REPRESENTATION('',(#566),#570);
#566 = LINE('',#567,#568);
#567 = CARTESIAN_POINT('',(0.,1.));
#568 = VECTOR('',#569,1.);
#569 = DIRECTION('',(1.,0.));
#570 = ( GEOMETRIC_REPRESENTATION_CONTEXT(2) 
PARAMETRIC_REPRESENTATION_CONTEXT() REPRESENTATION_CONTEXT('2D SPACE',''
  ) );
#571 = ORIENTED_EDGE('',*,*,#572,.T.);
#572 = EDGE_CURVE('',#552,#573,#575,.T.);
#573 = VERTEX_POINT('',#574);
#574 = CARTESIAN_POINT('',(35.94,0.,82.));
#575 = SURFACE_CURVE('',#576,(#580,#586),.PCURVE_S1.);
#576 = LINE('',#577,#578);
#577 = CARTESIAN_POINT('',(-73.0184,0.,82.));
#578 = VECTOR('',#579,1.);
#579 = DIRECTION('',(-1.,0.,0.));
#580 = PCURVE('',#111,#581);
#581 = DEFINITIONAL_REPRESENTATION('',(#582),#585);
#582 = B_SPLINE_CURVE_WITH_KNOTS('',1,(#583,#584),.UNSPECIFIED.,.F.,.F.,
  (2,2),(-116.2414435947,-29.7953564052),.PIECEWISE_BEZIER_KNOTS.);
#583 = CARTESIAN_POINT('',(73.395504089011,-10.47267342539));
#584 = CARTESIAN_POINT('',(-5.490557998093,24.881466343246));
#585 = ( GEOMETRIC_REPRESENTATION_CONTEXT(2) 
PARAMETRIC_REPRESENTATION_CONTEXT() REPRESENTATION_CONTEXT('2D SPACE',''
  ) );
#586 = PCURVE('',#249,#587);
#587 = DEFINITIONAL_REPRESENTATION('',(#588),#591);
#588 = B_SPLINE_CURVE_WITH_KNOTS('',1,(#589,#590),.UNSPECIFIED.,.F.,.F.,
  (2,2),(-116.2414435947,-29.7953564052),.PIECEWISE_BEZIER_KNOTS.);
#589 = CARTESIAN_POINT('',(180.4,161.22304359479));
#590 = CARTESIAN_POINT('',(180.4,74.776956405203));
#591 = ( GEOMETRIC_REPRESENTATION_CONTEXT(2) 
PARAMETRIC_REPRESENTATION_CONTEXT() REPRESENTATION_CONTEXT('2D SPACE',''
  ) );
#592 = ORIENTED_EDGE('',*,*,#593,.F.);
#593 = EDGE_CURVE('',#594,#573,#596,.T.);
#594 = VERTEX_POINT('',#595);
#595 = CARTESIAN_POINT('',(35.94,-7.3968,82.));
#596 = SURFACE_CURVE('',#597,(#600,#606),.PCURVE_S1.);
#597 = B_SPLINE_CURVE_WITH_KNOTS('',1,(#598,#599),.UNSPECIFIED.,.F.,.F.,
  (2,2),(2.,3.),.PIECEWISE_BEZIER_KNOTS.);
#598 = CARTESIAN_POINT('',(35.94,-7.3968,82.));
#599 = CARTESIAN_POINT('',(35.94,7.3968,82.));
#600 = PCURVE('',#111,#601);
#601 = DEFINITIONAL_REPRESENTATION('',(#602),#605);
#602 = B_SPLINE_CURVE_WITH_KNOTS('',1,(#603,#604),.UNSPECIFIED.,.F.,.F.,
  (2,2),(2.,3.),.PIECEWISE_BEZIER_KNOTS.);
#603 = CARTESIAN_POINT('',(63.724295623447,-14.24402610835));
#604 = CARTESIAN_POINT('',(69.774482729478,-0.744180296572));
#605 = ( GEOMETRIC_REPRESENTATION_CONTEXT(2) 
PARAMETRIC_REPRESENTATION_CONTEXT() REPRESENTATION_CONTEXT('2D SPACE',''
  ) );
#606 = PCURVE('',#274,#607);
#607 = DEFINITIONAL_REPRESENTATION('',(#608),#612);
#608 = LINE('',#609,#610);
#609 = CARTESIAN_POINT('',(0.,1.));
#610 = VECTOR('',#611,1.);
#611 = DIRECTION('',(1.,0.));
#612 = ( GEOMETRIC_REPRESENTATION_CONTEXT(2) 
PARAMETRIC_REPRESENTATION_CONTEXT() REPRESENTATION_CONTEXT('2D SPACE',''
  ) );
#613 = ORIENTED_EDGE('',*,*,#614,.F.);
#614 = EDGE_CURVE('',#615,#594,#617,.T.);
#615 = VERTEX_POINT('',#616);
#616 = CARTESIAN_POINT('',(25.8768,-17.46,82.));
#617 = SURFACE_CURVE('',#618,(#621,#627),.PCURVE_S1.);
#618 = B_SPLINE_CURVE_WITH_KNOTS('',1,(#619,#620),.UNSPECIFIED.,.F.,.F.,
  (2,2),(1.,2.),.PIECEWISE_BEZIER_KNOTS.);
#619 = CARTESIAN_POINT('',(25.8768,-17.46,82.));
#620 = CARTESIAN_POINT('',(35.94,-7.3968,82.));
#621 = PCURVE('',#111,#622);
#622 = DEFINITIONAL_REPRESENTATION('',(#623),#626);
#623 = B_SPLINE_CURVE_WITH_KNOTS('',1,(#624,#625),.UNSPECIFIED.,.F.,.F.,
  (2,2),(1.,2.),.PIECEWISE_BEZIER_KNOTS.);
#624 = CARTESIAN_POINT('',(50.425579201576,-19.31158271985));
#625 = CARTESIAN_POINT('',(63.724295623447,-14.24402610835));
#626 = ( GEOMETRIC_REPRESENTATION_CONTEXT(2) 
PARAMETRIC_REPRESENTATION_CONTEXT() REPRESENTATION_CONTEXT('2D SPACE',''
  ) );
#627 = PCURVE('',#306,#628);
#628 = DEFINITIONAL_REPRESENTATION('',(#629),#633);
#629 = LINE('',#630,#631);
#630 = CARTESIAN_POINT('',(0.,1.));
#631 = VECTOR('',#632,1.);
#632 = DIRECTION('',(1.,0.));
#633 = ( GEOMETRIC_REPRESENTATION_CONTEXT(2) 
PARAMETRIC_REPRESENTATION_CONTEXT() REPRESENTATION_CONTEXT('2D SPACE',''
  ) );
#634 = ORIENTED_EDGE('',*,*,#635,.F.);
#635 = EDGE_CURVE('',#636,#615,#638,.T.);
#636 = VERTEX_POINT('',#637);
#637 = CARTESIAN_POINT('',(-25.8768,-17.46,82.));
#638 = SURFACE_CURVE('',#639,(#642,#648),.PCURVE_S1.);
#639 = B_SPLINE_CURVE_WITH_KNOTS('',1,(#640,#641),.UNSPECIFIED.,.F.,.F.,
  (2,2),(0.,1.),.PIECEWISE_BEZIER_KNOTS.);
#640 = CARTESIAN_POINT('',(-25.8768,-17.46,82.));
#641 = CARTESIAN_POINT('',(25.8768,-17.46,82.));
#642 = PCURVE('',#111,#643);
#643 = DEFINITIONAL_REPRESENTATION('',(#644),#647);
#644 = B_SPLINE_CURVE_WITH_KNOTS('',1,(#645,#646),.UNSPECIFIED.,.F.,.F.,
  (2,2),(0.,1.),.PIECEWISE_BEZIER_KNOTS.);
#645 = CARTESIAN_POINT('',(3.198019972931,1.854256792554));
#646 = CARTESIAN_POINT('',(50.425579201576,-19.31158271985));
#647 = ( GEOMETRIC_REPRESENTATION_CONTEXT(2) 
PARAMETRIC_REPRESENTATION_CONTEXT() REPRESENTATION_CONTEXT('2D SPACE',''
  ) );
#648 = PCURVE('',#338,#649);
#649 = DEFINITIONAL_REPRESENTATION('',(#650),#654);
#650 = LINE('',#651,#652);
#651 = CARTESIAN_POINT('',(0.,1.));
#652 = VECTOR('',#653,1.);
#653 = DIRECTION('',(1.,0.));
#654 = ( GEOMETRIC_REPRESENTATION_CONTEXT(2) 
PARAMETRIC_REPRESENTATION_CONTEXT() REPRESENTATION_CONTEXT('2D SPACE',''
  ) );
#655 = ORIENTED_EDGE('',*,*,#656,.F.);
#656 = EDGE_CURVE('',#657,#636,#659,.T.);
#657 = VERTEX_POINT('',#658);
#658 = CARTESIAN_POINT('',(-35.94,-7.3968,82.));
#659 = SURFACE_CURVE('',#660,(#663,#669),.PCURVE_S1.);
#660 = B_SPLINE_CURVE_WITH_KNOTS('',1,(#661,#662),.UNSPECIFIED.,.F.,.F.,
  (2,2),(7.,8.),.PIECEWISE_BEZIER_KNOTS.);
#661 = CARTESIAN_POINT('',(-35.94,-7.3968,82.));
#662 = CARTESIAN_POINT('',(-25.8768,-17.46,82.));
#663 = PCURVE('',#111,#664);
#664 = DEFINITIONAL_REPRESENTATION('',(#665),#668);
#665 = B_SPLINE_CURVE_WITH_KNOTS('',1,(#666,#667),.UNSPECIFIED.,.F.,.F.,
  (2,2),(7.,8.),.PIECEWISE_BEZIER_KNOTS.);
#666 = CARTESIAN_POINT('',(-1.86953663856,15.152973214425));
#667 = CARTESIAN_POINT('',(3.198019972931,1.854256792554));
#668 = ( GEOMETRIC_REPRESENTATION_CONTEXT(2) 
PARAMETRIC_REPRESENTATION_CONTEXT() REPRESENTATION_CONTEXT('2D SPACE',''
  ) );
#669 = PCURVE('',#370,#670);
#670 = DEFINITIONAL_REPRESENTATION('',(#671),#675);
#671 = LINE('',#672,#673);
#672 = CARTESIAN_POINT('',(0.,1.));
#673 = VECTOR('',#674,1.);
#674 = DIRECTION('',(1.,0.));
#675 = ( GEOMETRIC_REPRESENTATION_CONTEXT(2) 
PARAMETRIC_REPRESENTATION_CONTEXT() REPRESENTATION_CONTEXT('2D SPACE',''
  ) );
#676 = ORIENTED_EDGE('',*,*,#677,.F.);
#677 = EDGE_CURVE('',#678,#657,#680,.T.);
#678 = VERTEX_POINT('',#679);
#679 = CARTESIAN_POINT('',(-35.94,0.,82.));
#680 = SURFACE_CURVE('',#681,(#684,#690),.PCURVE_S1.);
#681 = B_SPLINE_CURVE_WITH_KNOTS('',1,(#682,#683),.UNSPECIFIED.,.F.,.F.,
  (2,2),(6.,7.),.PIECEWISE_BEZIER_KNOTS.);
#682 = CARTESIAN_POINT('',(-35.94,7.3968,82.));
#683 = CARTESIAN_POINT('',(-35.94,-7.3968,82.));
#684 = PCURVE('',#111,#685);
#685 = DEFINITIONAL_REPRESENTATION('',(#686),#689);
#686 = B_SPLINE_CURVE_WITH_KNOTS('',1,(#687,#688),.UNSPECIFIED.,.F.,.F.,
  (2,2),(6.,7.),.PIECEWISE_BEZIER_KNOTS.);
#687 = CARTESIAN_POINT('',(4.180650467471,28.652819026212));
#688 = CARTESIAN_POINT('',(-1.86953663856,15.152973214425));
#689 = ( GEOMETRIC_REPRESENTATION_CONTEXT(2) 
PARAMETRIC_REPRESENTATION_CONTEXT() REPRESENTATION_CONTEXT('2D SPACE',''
  ) );
#690 = PCURVE('',#402,#691);
#691 = DEFINITIONAL_REPRESENTATION('',(#692),#696);
#692 = LINE('',#693,#694);
#693 = CARTESIAN_POINT('',(0.,1.));
#694 = VECTOR('',#695,1.);
#695 = DIRECTION('',(1.,0.));
#696 = ( GEOMETRIC_REPRESENTATION_CONTEXT(2) 
PARAMETRIC_REPRESENTATION_CONTEXT() REPRESENTATION_CONTEXT('2D SPACE',''
  ) );
#697 = ORIENTED_EDGE('',*,*,#698,.T.);
#698 = EDGE_CURVE('',#678,#699,#701,.T.);
#699 = VERTEX_POINT('',#700);
#700 = CARTESIAN_POINT('',(-38.94,0.,82.));
#701 = SURFACE_CURVE('',#702,(#706,#712),.PCURVE_S1.);
#702 = LINE('',#703,#704);
#703 = CARTESIAN_POINT('',(-73.0184,0.,82.));
#704 = VECTOR('',#705,1.);
#705 = DIRECTION('',(-1.,0.,0.));
#706 = PCURVE('',#111,#707);
#707 = DEFINITIONAL_REPRESENTATION('',(#708),#711);
#708 = B_SPLINE_CURVE_WITH_KNOTS('',1,(#709,#710),.UNSPECIFIED.,.F.,.F.,
  (2,2),(-116.2414435947,-29.7953564052),.PIECEWISE_BEZIER_KNOTS.);
#709 = CARTESIAN_POINT('',(73.395504089011,-10.47267342539));
#710 = CARTESIAN_POINT('',(-5.490557998093,24.881466343246));
#711 = ( GEOMETRIC_REPRESENTATION_CONTEXT(2) 
PARAMETRIC_REPRESENTATION_CONTEXT() REPRESENTATION_CONTEXT('2D SPACE',''
  ) );
#712 = PCURVE('',#435,#713);
#713 = DEFINITIONAL_REPRESENTATION('',(#714),#717);
#714 = B_SPLINE_CURVE_WITH_KNOTS('',1,(#715,#716),.UNSPECIFIED.,.F.,.F.,
  (2,2),(-116.2414435947,-29.7953564052),.PIECEWISE_BEZIER_KNOTS.);
#715 = CARTESIAN_POINT('',(180.4,161.22304359479));
#716 = CARTESIAN_POINT('',(180.4,74.776956405203));
#717 = ( GEOMETRIC_REPRESENTATION_CONTEXT(2) 
PARAMETRIC_REPRESENTATION_CONTEXT() REPRESENTATION_CONTEXT('2D SPACE',''
  ) );
#718 = ORIENTED_EDGE('',*,*,#719,.T.);
#719 = EDGE_CURVE('',#699,#529,#720,.T.);
#720 = SURFACE_CURVE('',#721,(#724,#730),.PCURVE_S1.);
#721 = B_SPLINE_CURVE_WITH_KNOTS('',1,(#722,#723),.UNSPECIFIED.,.F.,.F.,
  (2,2),(6.,7.),.PIECEWISE_BEZIER_KNOTS.);
#722 = CARTESIAN_POINT('',(-38.94,9.5568,82.));
#723 = CARTESIAN_POINT('',(-38.94,-9.5568,82.));
#724 = PCURVE('',#111,#725);
#725 = DEFINITIONAL_REPRESENTATION('',(#726),#729);
#726 = B_SPLINE_CURVE_WITH_KNOTS('',1,(#727,#728),.UNSPECIFIED.,.F.,.F.,
  (2,2),(6.,7.),.PIECEWISE_BEZIER_KNOTS.);
#727 = CARTESIAN_POINT('',(2.326393674917,31.850838999143));
#728 = CARTESIAN_POINT('',(-5.490557998093,14.408792917853));
#729 = ( GEOMETRIC_REPRESENTATION_CONTEXT(2) 
PARAMETRIC_REPRESENTATION_CONTEXT() REPRESENTATION_CONTEXT('2D SPACE',''
  ) );
#730 = PCURVE('',#458,#731);
#731 = DEFINITIONAL_REPRESENTATION('',(#732),#736);
#732 = LINE('',#733,#734);
#733 = CARTESIAN_POINT('',(0.,1.));
#734 = VECTOR('',#735,1.);
#735 = DIRECTION('',(1.,0.));
#736 = ( GEOMETRIC_REPRESENTATION_CONTEXT(2) 
PARAMETRIC_REPRESENTATION_CONTEXT() REPRESENTATION_CONTEXT('2D SPACE',''
  ) );
#737 = ADVANCED_FACE('',(#738),#138,.T.);
#738 = FACE_BOUND('',#739,.T.);
#739 = EDGE_LOOP('',(#740,#741,#742,#743));
#740 = ORIENTED_EDGE('',*,*,#159,.T.);
#741 = ORIENTED_EDGE('',*,*,#122,.T.);
#742 = ORIENTED_EDGE('',*,*,#528,.F.);
#743 = ORIENTED_EDGE('',*,*,#744,.F.);
#744 = EDGE_CURVE('',#160,#529,#745,.T.);
#745 = SURFACE_CURVE('',#746,(#752,#759),.PCURVE_S1.);
#746 = ( BOUNDED_CURVE() B_SPLINE_CURVE(4,(#747,#748,#749,#750,#751),
.UNSPECIFIED.,.F.,.F.) B_SPLINE_CURVE_WITH_KNOTS((5,5),(0.,1.),
.PIECEWISE_BEZIER_KNOTS.) CURVE() GEOMETRIC_REPRESENTATION_ITEM() 
RATIONAL_B_SPLINE_CURVE((1.,1.,1.,1.,1.)) REPRESENTATION_ITEM('') );
#747 = CARTESIAN_POINT('',(-35.4,-8.688,-82.));
#748 = CARTESIAN_POINT('',(-70.0782931306,-17.198876009,-51.58565895354)
  );
#749 = CARTESIAN_POINT('',(-58.29085881294,-14.30595992561,
    4.887363060211));
#750 = CARTESIAN_POINT('',(-65.9173870964,-16.17769093484,
    41.868399186784));
#751 = CARTESIAN_POINT('',(-38.94,-9.5568,82.));
#752 = PCURVE('',#138,#753);
#753 = DEFINITIONAL_REPRESENTATION('',(#754),#758);
#754 = LINE('',#755,#756);
#755 = CARTESIAN_POINT('',(7.,0.));
#756 = VECTOR('',#757,1.);
#757 = DIRECTION('',(0.,1.));
#758 = ( GEOMETRIC_REPRESENTATION_CONTEXT(2) 
PARAMETRIC_REPRESENTATION_CONTEXT() REPRESENTATION_CONTEXT('2D SPACE',''
  ) );
#759 = PCURVE('',#458,#760);
#760 = DEFINITIONAL_REPRESENTATION('',(#761),#765);
#761 = LINE('',#762,#763);
#762 = CARTESIAN_POINT('',(7.,0.));
#763 = VECTOR('',#764,1.);
#764 = DIRECTION('',(0.,1.));
#765 = ( GEOMETRIC_REPRESENTATION_CONTEXT(2) 
PARAMETRIC_REPRESENTATION_CONTEXT() REPRESENTATION_CONTEXT('2D SPACE',''
  ) );
#766 = ADVANCED_FACE('',(#767),#458,.T.);
#767 = FACE_BOUND('',#768,.T.);
#768 = EDGE_LOOP('',(#769,#913,#914,#915));
#769 = ORIENTED_EDGE('',*,*,#770,.F.);
#770 = EDGE_CURVE('',#421,#699,#771,.T.);
#771 = SURFACE_CURVE('',#772,(#817,#865),.PCURVE_S1.);
#772 = B_SPLINE_CURVE_WITH_KNOTS('',8,(#773,#774,#775,#776,#777,#778,
    #779,#780,#781,#782,#783,#784,#785,#786,#787,#788,#789,#790,#791,
    #792,#793,#794,#795,#796,#797,#798,#799,#800,#801,#802,#803,#804,
    #805,#806,#807,#808,#809,#810,#811,#812,#813,#814,#815,#816),
  .UNSPECIFIED.,.F.,.F.,(9,7,7,7,7,7,9),(0.,0.196598427438,
    0.285691361193,0.526569152472,0.749051092457,0.927596057467,1.),
  .UNSPECIFIED.);
#773 = CARTESIAN_POINT('',(-35.4,0.,-82.));
#774 = CARTESIAN_POINT('',(-38.62673224274,0.,-79.17001830145));
#775 = CARTESIAN_POINT('',(-41.6089711168,0.,-76.05866192717));
#776 = CARTESIAN_POINT('',(-44.30839875028,0.,-72.69314107414));
#777 = CARTESIAN_POINT('',(-46.71400454615,0.,-69.11062570507));
#778 = CARTESIAN_POINT('',(-48.83405479753,0.,-65.35329159372));
#779 = CARTESIAN_POINT('',(-50.68693845395,0.,-61.46238436587));
#780 = CARTESIAN_POINT('',(-52.29578095889,0.,-57.47467446413));
#781 = CARTESIAN_POINT('',(-54.3143344708,0.,-51.58253097775));
#782 = CARTESIAN_POINT('',(-54.89918660319,0.,-49.72985257127));
#783 = CARTESIAN_POINT('',(-55.44175566345,0.,-47.86406698848));
#784 = CARTESIAN_POINT('',(-55.9443422649,0.,-45.98705239544));
#785 = CARTESIAN_POINT('',(-56.40916106181,0.,-44.10045102525));
#786 = CARTESIAN_POINT('',(-56.83831473505,0.,-42.20566218956));
#787 = CARTESIAN_POINT('',(-57.23377724289,0.,-40.30383782387));
#788 = CARTESIAN_POINT('',(-58.58046492314,0.,-33.23739592956));
#789 = CARTESIAN_POINT('',(-59.33000625682,0.,-28.03772212613));
#790 = CARTESIAN_POINT('',(-59.88357300897,0.,-22.81120880202));
#791 = CARTESIAN_POINT('',(-60.26826364011,0.,-17.56906657217));
#792 = CARTESIAN_POINT('',(-60.50390988953,0.,-12.31964272143));
#793 = CARTESIAN_POINT('',(-60.60367792044,0.,-7.068481304134));
#794 = CARTESIAN_POINT('',(-60.57443236989,0.,-1.818387068589));
#795 = CARTESIAN_POINT('',(-60.26964319538,0.,8.278711869949));
#796 = CARTESIAN_POINT('',(-60.01318965734,0.,13.122254399267));
#797 = CARTESIAN_POINT('',(-59.64680390541,0.,17.960180467874));
#798 = CARTESIAN_POINT('',(-59.1657841091,0.,22.789584948932));
#799 = CARTESIAN_POINT('',(-58.5609546362,0.,27.605741842859));
#800 = CARTESIAN_POINT('',(-57.81851460445,0.,32.402103310798));
#801 = CARTESIAN_POINT('',(-56.92070712053,0.,37.170411771318));
#802 = CARTESIAN_POINT('',(-54.9883741829,0.,45.697511792796));
#803 = CARTESIAN_POINT('',(-54.01589338597,0.,49.469570304064));
#804 = CARTESIAN_POINT('',(-52.92199734792,0.,53.210156120914));
#805 = CARTESIAN_POINT('',(-51.69748525778,0.,56.911116267931));
#806 = CARTESIAN_POINT('',(-50.33427584604,0.,60.563638166862));
#807 = CARTESIAN_POINT('',(-48.82718116105,0.,64.158871691593));
#808 = CARTESIAN_POINT('',(-47.175452981,0.,67.688451900644));
#809 = CARTESIAN_POINT('',(-44.65636581062,0.,72.546135896179));
#810 = CARTESIAN_POINT('',(-43.90639981857,0.,73.935686481823));
#811 = CARTESIAN_POINT('',(-43.13351606687,0.,75.312777471983));
#812 = CARTESIAN_POINT('',(-42.33804887951,0.,76.677015917768));
#813 = CARTESIAN_POINT('',(-41.52042227568,0.,78.028080813115));
#814 = CARTESIAN_POINT('',(-40.68114257417,0.,79.365718622864));
#815 = CARTESIAN_POINT('',(-39.82078867237,0.,80.68973747256));
#816 = CARTESIAN_POINT('',(-38.94,0.,82.));
#817 = PCURVE('',#458,#818);
#818 = DEFINITIONAL_REPRESENTATION('',(#819),#864);
#819 = B_SPLINE_CURVE_WITH_KNOTS('',8,(#820,#821,#822,#823,#824,#825,
    #826,#827,#828,#829,#830,#831,#832,#833,#834,#835,#836,#837,#838,
    #839,#840,#841,#842,#843,#844,#845,#846,#847,#848,#849,#850,#851,
    #852,#853,#854,#855,#856,#857,#858,#859,#860,#861,#862,#863),
  .UNSPECIFIED.,.F.,.F.,(9,7,7,7,7,7,9),(0.,0.196598427438,
    0.285691361193,0.526569152472,0.749051092457,0.927596057467,1.),
  .UNSPECIFIED.);
#820 = CARTESIAN_POINT('',(6.5,0.));
#821 = CARTESIAN_POINT('',(6.5,2.326190212555E-02));
#822 = CARTESIAN_POINT('',(6.5,4.724708967272E-02));
#823 = CARTESIAN_POINT('',(6.5,7.173125179954E-02));
#824 = CARTESIAN_POINT('',(6.5,9.652203477919E-02));
#825 = CARTESIAN_POINT('',(6.5,0.121457919756));
#826 = CARTESIAN_POINT('',(6.5,0.146408701042));
#827 = CARTESIAN_POINT('',(6.5,0.171276774126));
#828 = CARTESIAN_POINT('',(6.5,0.207203877639));
#829 = CARTESIAN_POINT('',(6.5,0.21838690544));
#830 = CARTESIAN_POINT('',(6.5,0.229547086493));
#831 = CARTESIAN_POINT('',(6.5,0.24068336889));
#832 = CARTESIAN_POINT('',(6.5,0.251795606857));
#833 = CARTESIAN_POINT('',(6.5,0.2628845443));
#834 = CARTESIAN_POINT('',(6.5,0.273951820797));
#835 = CARTESIAN_POINT('',(6.5,0.314870618151));
#836 = CARTESIAN_POINT('',(6.5,0.344580552632));
#837 = CARTESIAN_POINT('',(6.5,0.374201611129));
#838 = CARTESIAN_POINT('',(6.5,0.403793370875));
#839 = CARTESIAN_POINT('',(6.5,0.433412132472));
#840 = CARTESIAN_POINT('',(6.5,0.463113687476));
#841 = CARTESIAN_POINT('',(6.5,0.492956066171));
#842 = CARTESIAN_POINT('',(6.5,0.55074947681));
#843 = CARTESIAN_POINT('',(6.5,0.578650136432));
#844 = CARTESIAN_POINT('',(6.5,0.606743684139));
#845 = CARTESIAN_POINT('',(6.5,0.635050905158));
#846 = CARTESIAN_POINT('',(6.5,0.663571629249));
#847 = CARTESIAN_POINT('',(6.5,0.692279727123));
#848 = CARTESIAN_POINT('',(6.5,0.721118272054));
#849 = CARTESIAN_POINT('',(6.5,0.773178003149));
#850 = CARTESIAN_POINT('',(6.5,0.796383034821));
#851 = CARTESIAN_POINT('',(6.5,0.819556835432));
#852 = CARTESIAN_POINT('',(6.5,0.842625339923));
#853 = CARTESIAN_POINT('',(6.5,0.8654998866));
#854 = CARTESIAN_POINT('',(6.5,0.888083772601));
#855 = CARTESIAN_POINT('',(6.5,0.910280492929));
#856 = CARTESIAN_POINT('',(6.5,0.940807741746));
#857 = CARTESIAN_POINT('',(6.5,0.949537540433));
#858 = CARTESIAN_POINT('',(6.5,0.958183707651));
#859 = CARTESIAN_POINT('',(6.5,0.966741093702));
#860 = CARTESIAN_POINT('',(6.5,0.97520512139));
#861 = CARTESIAN_POINT('',(6.5,0.98357179912));
#862 = CARTESIAN_POINT('',(6.5,0.991837713293));
#863 = CARTESIAN_POINT('',(6.5,1.));
#864 = ( GEOMETRIC_REPRESENTATION_CONTEXT(2) 
PARAMETRIC_REPRESENTATION_CONTEXT() REPRESENTATION_CONTEXT('2D SPACE',''
  ) );
#865 = PCURVE('',#435,#866);
#866 = DEFINITIONAL_REPRESENTATION('',(#867),#912);
#867 = B_SPLINE_CURVE_WITH_KNOTS('',8,(#868,#869,#870,#871,#872,#873,
    #874,#875,#876,#877,#878,#879,#880,#881,#882,#883,#884,#885,#886,
    #887,#888,#889,#890,#891,#892,#893,#894,#895,#896,#897,#898,#899,
    #900,#901,#902,#903,#904,#905,#906,#907,#908,#909,#910,#911),
  .UNSPECIFIED.,.F.,.F.,(9,7,7,7,7,7,9),(0.,0.196598427438,
    0.285691361193,0.526569152472,0.749051092457,0.927596057467,1.),
  .UNSPECIFIED.);
#868 = CARTESIAN_POINT('',(16.4,82.6));
#869 = CARTESIAN_POINT('',(19.229981698543,79.373267757259));
#870 = CARTESIAN_POINT('',(22.341338072828,76.391028883199));
#871 = CARTESIAN_POINT('',(25.706858925857,73.691601249719));
#872 = CARTESIAN_POINT('',(29.289374294924,71.285995453841));
#873 = CARTESIAN_POINT('',(33.046708406272,69.165945202469));
#874 = CARTESIAN_POINT('',(36.937615634127,67.313061546042));
#875 = CARTESIAN_POINT('',(40.925325535865,65.704219041104));
#876 = CARTESIAN_POINT('',(46.817469022248,63.685665529197));
#877 = CARTESIAN_POINT('',(48.670147428727,63.100813396809));
#878 = CARTESIAN_POINT('',(50.53593301152,62.558244336541));
#879 = CARTESIAN_POINT('',(52.412947604557,62.055657735091));
#880 = CARTESIAN_POINT('',(54.299548974748,61.59083893819));
#881 = CARTESIAN_POINT('',(56.194337810434,61.161685264941));
#882 = CARTESIAN_POINT('',(58.096162176129,60.766222757108));
#883 = CARTESIAN_POINT('',(65.162604070437,59.419535076856));
#884 = CARTESIAN_POINT('',(70.362277873866,58.669993743175));
#885 = CARTESIAN_POINT('',(75.588791197979,58.11642699103));
#886 = CARTESIAN_POINT('',(80.830933427829,57.731736359889));
#887 = CARTESIAN_POINT('',(86.08035727857,57.496090110463));
#888 = CARTESIAN_POINT('',(91.331518695866,57.396322079557));
#889 = CARTESIAN_POINT('',(96.581612931411,57.425567630101));
#890 = CARTESIAN_POINT('',(106.67871186994,57.730356804615));
#891 = CARTESIAN_POINT('',(111.52225439926,57.986810342652));
#892 = CARTESIAN_POINT('',(116.36018046787,58.353196094585));
#893 = CARTESIAN_POINT('',(121.18958494893,58.834215890896));
#894 = CARTESIAN_POINT('',(126.00574184285,59.439045363791));
#895 = CARTESIAN_POINT('',(130.80210331079,60.181485395548));
#896 = CARTESIAN_POINT('',(135.57041177131,61.079292879467));
#897 = CARTESIAN_POINT('',(144.09751179279,63.011625817099));
#898 = CARTESIAN_POINT('',(147.86957030406,63.984106614025));
#899 = CARTESIAN_POINT('',(151.61015612091,65.078002652071));
#900 = CARTESIAN_POINT('',(155.31111626793,66.302514742217));
#901 = CARTESIAN_POINT('',(158.96363816686,67.665724153951));
#902 = CARTESIAN_POINT('',(162.55887169159,69.172818838942));
#903 = CARTESIAN_POINT('',(166.08845190064,70.824547018994));
#904 = CARTESIAN_POINT('',(170.94613589617,73.343634189371));
#905 = CARTESIAN_POINT('',(172.33568648182,74.093600181423));
#906 = CARTESIAN_POINT('',(173.71277747198,74.866483933122));
#907 = CARTESIAN_POINT('',(175.07701591776,75.661951120485));
#908 = CARTESIAN_POINT('',(176.42808081311,76.479577724314));
#909 = CARTESIAN_POINT('',(177.76571862286,77.318857425825));
#910 = CARTESIAN_POINT('',(179.08973747256,78.179211327622));
#911 = CARTESIAN_POINT('',(180.4,79.06));
#912 = ( GEOMETRIC_REPRESENTATION_CONTEXT(2) 
PARAMETRIC_REPRESENTATION_CONTEXT() REPRESENTATION_CONTEXT('2D SPACE',''
  ) );
#913 = ORIENTED_EDGE('',*,*,#446,.T.);
#914 = ORIENTED_EDGE('',*,*,#744,.T.);
#915 = ORIENTED_EDGE('',*,*,#719,.F.);
#916 = ADVANCED_FACE('',(#917),#435,.T.);
#917 = FACE_BOUND('',#918,.T.);
#918 = EDGE_LOOP('',(#919,#1063,#1064,#1065));
#919 = ORIENTED_EDGE('',*,*,#920,.F.);
#920 = EDGE_CURVE('',#389,#678,#921,.T.);
#921 = SURFACE_CURVE('',#922,(#967,#1015),.PCURVE_S1.);
#922 = B_SPLINE_CURVE_WITH_KNOTS('',8,(#923,#924,#925,#926,#927,#928,
    #929,#930,#931,#932,#933,#934,#935,#936,#937,#938,#939,#940,#941,
    #942,#943,#944,#945,#946,#947,#948,#949,#950,#951,#952,#953,#954,
    #955,#956,#957,#958,#959,#960,#961,#962,#963,#964,#965,#966),
  .UNSPECIFIED.,.F.,.F.,(9,7,7,7,7,7,9),(0.,0.196598427436,0.28569136119
    ,0.526569152468,0.749051092454,0.927596057466,1.),.UNSPECIFIED.);
#923 = CARTESIAN_POINT('',(-32.4,0.,-82.));
#924 = CARTESIAN_POINT('',(-35.62673224274,0.,-79.17001830145));
#925 = CARTESIAN_POINT('',(-38.60897111678,0.,-76.05866192718));
#926 = CARTESIAN_POINT('',(-41.30839875031,0.,-72.69314107411));
#927 = CARTESIAN_POINT('',(-43.71400454612,0.,-69.11062570512));
#928 = CARTESIAN_POINT('',(-45.83405479756,0.,-65.35329159368));
#929 = CARTESIAN_POINT('',(-47.68693845394,0.,-61.46238436589));
#930 = CARTESIAN_POINT('',(-49.29578095889,0.,-57.47467446412));
#931 = CARTESIAN_POINT('',(-51.3143344708,0.,-51.58253097775));
#932 = CARTESIAN_POINT('',(-51.89918660319,0.,-49.72985257127));
#933 = CARTESIAN_POINT('',(-52.44175566345,0.,-47.86406698848));
#934 = CARTESIAN_POINT('',(-52.9443422649,0.,-45.98705239544));
#935 = CARTESIAN_POINT('',(-53.40916106181,0.,-44.10045102525));
#936 = CARTESIAN_POINT('',(-53.83831473505,0.,-42.20566218956));
#937 = CARTESIAN_POINT('',(-54.23377724289,0.,-40.30383782387));
#938 = CARTESIAN_POINT('',(-55.58046492315,0.,-33.23739592952));
#939 = CARTESIAN_POINT('',(-56.3300062568,0.,-28.03772212632));
#940 = CARTESIAN_POINT('',(-56.883573009,0.,-22.8112088016));
#941 = CARTESIAN_POINT('',(-57.26826364007,0.,-17.56906657269));
#942 = CARTESIAN_POINT('',(-57.50390988955,0.,-12.31964272103));
#943 = CARTESIAN_POINT('',(-57.60367792044,0.,-7.068481304308));
#944 = CARTESIAN_POINT('',(-57.57443236989,0.,-1.818387068553));
#945 = CARTESIAN_POINT('',(-57.26964319538,0.,8.278711869949));
#946 = CARTESIAN_POINT('',(-57.01318965734,0.,13.122254399277));
#947 = CARTESIAN_POINT('',(-56.64680390542,0.,17.960180467848));
#948 = CARTESIAN_POINT('',(-56.1657841091,0.,22.789584948947));
#949 = CARTESIAN_POINT('',(-55.5609546362,0.,27.605741842884));
#950 = CARTESIAN_POINT('',(-54.81851460446,0.,32.402103310756));
#951 = CARTESIAN_POINT('',(-53.92070712052,0.,37.170411771337));
#952 = CARTESIAN_POINT('',(-51.98837418289,0.,45.697511792816));
#953 = CARTESIAN_POINT('',(-51.01589338599,0.,49.46957030401));
#954 = CARTESIAN_POINT('',(-49.92199734791,0.,53.210156120966));
#955 = CARTESIAN_POINT('',(-48.69748525778,0.,56.911116267936));
#956 = CARTESIAN_POINT('',(-47.33427584606,0.,60.56363816681));
#957 = CARTESIAN_POINT('',(-45.82718116104,0.,64.158871691636));
#958 = CARTESIAN_POINT('',(-44.17545298101,0.,67.688451900631));
#959 = CARTESIAN_POINT('',(-41.65636581062,0.,72.54613589618));
#960 = CARTESIAN_POINT('',(-40.90639981857,0.,73.93568648182));
#961 = CARTESIAN_POINT('',(-40.13351606687,0.,75.312777471984));
#962 = CARTESIAN_POINT('',(-39.33804887951,0.,76.67701591777));
#963 = CARTESIAN_POINT('',(-38.52042227568,0.,78.028080813114));
#964 = CARTESIAN_POINT('',(-37.68114257417,0.,79.365718622861));
#965 = CARTESIAN_POINT('',(-36.82078867237,0.,80.689737472562));
#966 = CARTESIAN_POINT('',(-35.94,0.,82.));
#967 = PCURVE('',#435,#968);
#968 = DEFINITIONAL_REPRESENTATION('',(#969),#1014);
#969 = B_SPLINE_CURVE_WITH_KNOTS('',8,(#970,#971,#972,#973,#974,#975,
    #976,#977,#978,#979,#980,#981,#982,#983,#984,#985,#986,#987,#988,
    #989,#990,#991,#992,#993,#994,#995,#996,#997,#998,#999,#1000,#1001,
    #1002,#1003,#1004,#1005,#1006,#1007,#1008,#1009,#1010,#1011,#1012,
    #1013),.UNSPECIFIED.,.F.,.F.,(9,7,7,7,7,7,9),(0.,0.196598427436,
    0.28569136119,0.526569152468,0.749051092454,0.927596057466,1.),
  .UNSPECIFIED.);
#970 = CARTESIAN_POINT('',(16.4,85.6));
#971 = CARTESIAN_POINT('',(19.229981698545,82.373267757256));
#972 = CARTESIAN_POINT('',(22.341338072817,79.391028883212));
#973 = CARTESIAN_POINT('',(25.706858925887,76.69160124969));
#974 = CARTESIAN_POINT('',(29.289374294875,74.28599545388));
#975 = CARTESIAN_POINT('',(33.04670840632,72.16594520244));
#976 = CARTESIAN_POINT('',(36.937615634101,70.313061546054));
#977 = CARTESIAN_POINT('',(40.925325535872,68.704219041102));
#978 = CARTESIAN_POINT('',(46.817469022248,66.685665529198));
#979 = CARTESIAN_POINT('',(48.670147428727,66.100813396808));
#980 = CARTESIAN_POINT('',(50.53593301152,65.558244336541));
#981 = CARTESIAN_POINT('',(52.412947604556,65.055657735091));
#982 = CARTESIAN_POINT('',(54.299548974748,64.59083893819));
#983 = CARTESIAN_POINT('',(56.194337810435,64.161685264941));
#984 = CARTESIAN_POINT('',(58.096162176129,63.766222757108));
#985 = CARTESIAN_POINT('',(65.162604070478,62.419535076849));
#986 = CARTESIAN_POINT('',(70.362277873677,61.6699937432));
#987 = CARTESIAN_POINT('',(75.588791198391,61.116426990992));
#988 = CARTESIAN_POINT('',(80.83093342731,60.731736359921));
#989 = CARTESIAN_POINT('',(86.080357278966,60.496090110449));
#990 = CARTESIAN_POINT('',(91.331518695692,60.396322079559));
#991 = CARTESIAN_POINT('',(96.581612931447,60.425567630103));
#992 = CARTESIAN_POINT('',(106.67871186994,60.730356804615));
#993 = CARTESIAN_POINT('',(111.52225439927,60.986810342655));
#994 = CARTESIAN_POINT('',(116.36018046784,61.353196094579));
#995 = CARTESIAN_POINT('',(121.18958494894,61.834215890899));
#996 = CARTESIAN_POINT('',(126.00574184288,62.439045363797));
#997 = CARTESIAN_POINT('',(130.80210331075,63.181485395539));
#998 = CARTESIAN_POINT('',(135.57041177133,64.079292879471));
#999 = CARTESIAN_POINT('',(144.09751179281,66.011625817103));
#1000 = CARTESIAN_POINT('',(147.86957030401,66.98410661401));
#1001 = CARTESIAN_POINT('',(151.61015612096,68.078002652088));
#1002 = CARTESIAN_POINT('',(155.31111626793,69.302514742215));
#1003 = CARTESIAN_POINT('',(158.96363816681,70.665724153935));
#1004 = CARTESIAN_POINT('',(162.55887169163,72.17281883896));
#1005 = CARTESIAN_POINT('',(166.08845190063,73.824547018987));
#1006 = CARTESIAN_POINT('',(170.94613589618,76.343634189372));
#1007 = CARTESIAN_POINT('',(172.33568648182,77.093600181422));
#1008 = CARTESIAN_POINT('',(173.71277747198,77.866483933122));
#1009 = CARTESIAN_POINT('',(175.07701591777,78.661951120487));
#1010 = CARTESIAN_POINT('',(176.42808081311,79.479577724313));
#1011 = CARTESIAN_POINT('',(177.76571862286,80.318857425823));
#1012 = CARTESIAN_POINT('',(179.08973747256,81.179211327624));
#1013 = CARTESIAN_POINT('',(180.4,82.06));
#1014 = ( GEOMETRIC_REPRESENTATION_CONTEXT(2) 
PARAMETRIC_REPRESENTATION_CONTEXT() REPRESENTATION_CONTEXT('2D SPACE',''
  ) );
#1015 = PCURVE('',#402,#1016);
#1016 = DEFINITIONAL_REPRESENTATION('',(#1017),#1062);
#1017 = B_SPLINE_CURVE_WITH_KNOTS('',8,(#1018,#1019,#1020,#1021,#1022,
    #1023,#1024,#1025,#1026,#1027,#1028,#1029,#1030,#1031,#1032,#1033,
    #1034,#1035,#1036,#1037,#1038,#1039,#1040,#1041,#1042,#1043,#1044,
    #1045,#1046,#1047,#1048,#1049,#1050,#1051,#1052,#1053,#1054,#1055,
    #1056,#1057,#1058,#1059,#1060,#1061),.UNSPECIFIED.,.F.,.F.,(9,7,7,7,
    7,7,9),(0.,0.196598427436,0.28569136119,0.526569152468,
    0.749051092454,0.927596057466,1.),.UNSPECIFIED.);
#1018 = CARTESIAN_POINT('',(6.5,0.));
#1019 = CARTESIAN_POINT('',(6.5,2.326190212557E-02));
#1020 = CARTESIAN_POINT('',(6.5,4.724708967268E-02));
#1021 = CARTESIAN_POINT('',(6.5,7.173125179962E-02));
#1022 = CARTESIAN_POINT('',(6.5,9.652203477905E-02));
#1023 = CARTESIAN_POINT('',(6.5,0.121457919756));
#1024 = CARTESIAN_POINT('',(6.5,0.146408701042));
#1025 = CARTESIAN_POINT('',(6.5,0.171276774126));
#1026 = CARTESIAN_POINT('',(6.5,0.207203877639));
#1027 = CARTESIAN_POINT('',(6.5,0.21838690544));
#1028 = CARTESIAN_POINT('',(6.5,0.229547086493));
#1029 = CARTESIAN_POINT('',(6.5,0.24068336889));
#1030 = CARTESIAN_POINT('',(6.5,0.251795606857));
#1031 = CARTESIAN_POINT('',(6.5,0.2628845443));
#1032 = CARTESIAN_POINT('',(6.5,0.273951820797));
#1033 = CARTESIAN_POINT('',(6.5,0.314870618151));
#1034 = CARTESIAN_POINT('',(6.5,0.344580552632));
#1035 = CARTESIAN_POINT('',(6.5,0.374201611131));
#1036 = CARTESIAN_POINT('',(6.5,0.403793370873));
#1037 = CARTESIAN_POINT('',(6.5,0.433412132474));
#1038 = CARTESIAN_POINT('',(6.5,0.463113687475));
#1039 = CARTESIAN_POINT('',(6.5,0.492956066171));
#1040 = CARTESIAN_POINT('',(6.5,0.55074947681));
#1041 = CARTESIAN_POINT('',(6.5,0.578650136432));
#1042 = CARTESIAN_POINT('',(6.5,0.606743684139));
#1043 = CARTESIAN_POINT('',(6.5,0.635050905158));
#1044 = CARTESIAN_POINT('',(6.5,0.663571629249));
#1045 = CARTESIAN_POINT('',(6.5,0.692279727122));
#1046 = CARTESIAN_POINT('',(6.5,0.721118272054));
#1047 = CARTESIAN_POINT('',(6.5,0.773178003149));
#1048 = CARTESIAN_POINT('',(6.5,0.79638303482));
#1049 = CARTESIAN_POINT('',(6.5,0.819556835433));
#1050 = CARTESIAN_POINT('',(6.5,0.842625339923));
#1051 = CARTESIAN_POINT('',(6.5,0.865499886599));
#1052 = CARTESIAN_POINT('',(6.5,0.888083772601));
#1053 = CARTESIAN_POINT('',(6.5,0.910280492929));
#1054 = CARTESIAN_POINT('',(6.5,0.940807741746));
#1055 = CARTESIAN_POINT('',(6.5,0.949537540433));
#1056 = CARTESIAN_POINT('',(6.5,0.958183707651));
#1057 = CARTESIAN_POINT('',(6.5,0.966741093702));
#1058 = CARTESIAN_POINT('',(6.5,0.97520512139));
#1059 = CARTESIAN_POINT('',(6.5,0.98357179912));
#1060 = CARTESIAN_POINT('',(6.5,0.991837713293));
#1061 = CARTESIAN_POINT('',(6.5,1.));
#1062 = ( GEOMETRIC_REPRESENTATION_CONTEXT(2) 
PARAMETRIC_REPRESENTATION_CONTEXT() REPRESENTATION_CONTEXT('2D SPACE',''
  ) );
#1063 = ORIENTED_EDGE('',*,*,#420,.T.);
#1064 = ORIENTED_EDGE('',*,*,#770,.T.);
#1065 = ORIENTED_EDGE('',*,*,#698,.F.);
#1066 = ADVANCED_FACE('',(#1067),#402,.F.);
#1067 = FACE_BOUND('',#1068,.F.);
#1068 = EDGE_LOOP('',(#1069,#1070,#1071,#1094));
#1069 = ORIENTED_EDGE('',*,*,#920,.F.);
#1070 = ORIENTED_EDGE('',*,*,#388,.T.);
#1071 = ORIENTED_EDGE('',*,*,#1072,.T.);
#1072 = EDGE_CURVE('',#357,#657,#1073,.T.);
#1073 = SURFACE_CURVE('',#1074,(#1080,#1087),.PCURVE_S1.);
#1074 = ( BOUNDED_CURVE() B_SPLINE_CURVE(4,(#1075,#1076,#1077,#1078,
#1079),.UNSPECIFIED.,.F.,.F.) B_SPLINE_CURVE_WITH_KNOTS((5,5),(0.,1.),
.PIECEWISE_BEZIER_KNOTS.) CURVE() GEOMETRIC_REPRESENTATION_ITEM() 
RATIONAL_B_SPLINE_CURVE((1.,1.,1.,1.,1.)) REPRESENTATION_ITEM('') );
#1075 = CARTESIAN_POINT('',(-32.4,-6.528,-82.));
#1076 = CARTESIAN_POINT('',(-67.0782931306,-15.038876009,-51.58565895354
    ));
#1077 = CARTESIAN_POINT('',(-55.29085881294,-12.14595992561,
    4.887363060211));
#1078 = CARTESIAN_POINT('',(-62.9173870964,-14.01769093484,
    41.868399186784));
#1079 = CARTESIAN_POINT('',(-35.94,-7.3968,82.));
#1080 = PCURVE('',#402,#1081);
#1081 = DEFINITIONAL_REPRESENTATION('',(#1082),#1086);
#1082 = LINE('',#1083,#1084);
#1083 = CARTESIAN_POINT('',(7.,0.));
#1084 = VECTOR('',#1085,1.);
#1085 = DIRECTION('',(0.,1.));
#1086 = ( GEOMETRIC_REPRESENTATION_CONTEXT(2) 
PARAMETRIC_REPRESENTATION_CONTEXT() REPRESENTATION_CONTEXT('2D SPACE',''
  ) );
#1087 = PCURVE('',#370,#1088);
#1088 = DEFINITIONAL_REPRESENTATION('',(#1089),#1093);
#1089 = LINE('',#1090,#1091);
#1090 = CARTESIAN_POINT('',(7.,0.));
#1091 = VECTOR('',#1092,1.);
#1092 = DIRECTION('',(0.,1.));
#1093 = ( GEOMETRIC_REPRESENTATION_CONTEXT(2) 
PARAMETRIC_REPRESENTATION_CONTEXT() REPRESENTATION_CONTEXT('2D SPACE',''
  ) );
#1094 = ORIENTED_EDGE('',*,*,#677,.F.);
#1095 = ADVANCED_FACE('',(#1096),#370,.F.);
#1096 = FACE_BOUND('',#1097,.F.);
#1097 = EDGE_LOOP('',(#1098,#1099,#1122,#1123));
#1098 = ORIENTED_EDGE('',*,*,#356,.T.);
#1099 = ORIENTED_EDGE('',*,*,#1100,.T.);
#1100 = EDGE_CURVE('',#325,#636,#1101,.T.);
#1101 = SURFACE_CURVE('',#1102,(#1108,#1115),.PCURVE_S1.);
#1102 = ( BOUNDED_CURVE() B_SPLINE_CURVE(4,(#1103,#1104,#1105,#1106,
#1107),.UNSPECIFIED.,.F.,.F.) B_SPLINE_CURVE_WITH_KNOTS((5,5),(0.,1.),
.PIECEWISE_BEZIER_KNOTS.) CURVE() GEOMETRIC_REPRESENTATION_ITEM() 
RATIONAL_B_SPLINE_CURVE((1.,1.,1.,1.,1.)) REPRESENTATION_ITEM('') );
#1103 = CARTESIAN_POINT('',(-23.328,-15.6,-82.));
#1104 = CARTESIAN_POINT('',(-48.29637105403,-33.82079808557,
    -51.58565895354));
#1105 = CARTESIAN_POINT('',(-39.80941834531,-27.62740039323,
    4.887363060211));
#1106 = CARTESIAN_POINT('',(-45.30051870941,-31.63455932183,
    41.868399186784));
#1107 = CARTESIAN_POINT('',(-25.8768,-17.46,82.));
#1108 = PCURVE('',#370,#1109);
#1109 = DEFINITIONAL_REPRESENTATION('',(#1110),#1114);
#1110 = LINE('',#1111,#1112);
#1111 = CARTESIAN_POINT('',(8.,0.));
#1112 = VECTOR('',#1113,1.);
#1113 = DIRECTION('',(0.,1.));
#1114 = ( GEOMETRIC_REPRESENTATION_CONTEXT(2) 
PARAMETRIC_REPRESENTATION_CONTEXT() REPRESENTATION_CONTEXT('2D SPACE',''
  ) );
#1115 = PCURVE('',#338,#1116);
#1116 = DEFINITIONAL_REPRESENTATION('',(#1117),#1121);
#1117 = LINE('',#1118,#1119);
#1118 = CARTESIAN_POINT('',(0.,0.));
#1119 = VECTOR('',#1120,1.);
#1120 = DIRECTION('',(0.,1.));
#1121 = ( GEOMETRIC_REPRESENTATION_CONTEXT(2) 
PARAMETRIC_REPRESENTATION_CONTEXT() REPRESENTATION_CONTEXT('2D SPACE',''
  ) );
#1122 = ORIENTED_EDGE('',*,*,#656,.F.);
#1123 = ORIENTED_EDGE('',*,*,#1072,.F.);
#1124 = ADVANCED_FACE('',(#1125),#338,.F.);
#1125 = FACE_BOUND('',#1126,.F.);
#1126 = EDGE_LOOP('',(#1127,#1128,#1151,#1152));
#1127 = ORIENTED_EDGE('',*,*,#324,.T.);
#1128 = ORIENTED_EDGE('',*,*,#1129,.T.);
#1129 = EDGE_CURVE('',#293,#615,#1130,.T.);
#1130 = SURFACE_CURVE('',#1131,(#1137,#1144),.PCURVE_S1.);
#1131 = ( BOUNDED_CURVE() B_SPLINE_CURVE(4,(#1132,#1133,#1134,#1135,
#1136),.UNSPECIFIED.,.F.,.F.) B_SPLINE_CURVE_WITH_KNOTS((5,5),(0.,1.),
.PIECEWISE_BEZIER_KNOTS.) CURVE() GEOMETRIC_REPRESENTATION_ITEM() 
RATIONAL_B_SPLINE_CURVE((1.,1.,1.,1.,1.)) REPRESENTATION_ITEM('') );
#1132 = CARTESIAN_POINT('',(23.328,-15.6,-82.));
#1133 = CARTESIAN_POINT('',(48.296371054037,-33.82079808557,
    -51.58565895354));
#1134 = CARTESIAN_POINT('',(39.809418345317,-27.62740039323,
    4.887363060211));
#1135 = CARTESIAN_POINT('',(45.30051870941,-31.63455932183,
    41.868399186784));
#1136 = CARTESIAN_POINT('',(25.8768,-17.46,82.));
#1137 = PCURVE('',#338,#1138);
#1138 = DEFINITIONAL_REPRESENTATION('',(#1139),#1143);
#1139 = LINE('',#1140,#1141);
#1140 = CARTESIAN_POINT('',(1.,0.));
#1141 = VECTOR('',#1142,1.);
#1142 = DIRECTION('',(0.,1.));
#1143 = ( GEOMETRIC_REPRESENTATION_CONTEXT(2) 
PARAMETRIC_REPRESENTATION_CONTEXT() REPRESENTATION_CONTEXT('2D SPACE',''
  ) );
#1144 = PCURVE('',#306,#1145);
#1145 = DEFINITIONAL_REPRESENTATION('',(#1146),#1150);
#1146 = LINE('',#1147,#1148);
#1147 = CARTESIAN_POINT('',(1.,0.));
#1148 = VECTOR('',#1149,1.);
#1149 = DIRECTION('',(0.,1.));
#1150 = ( GEOMETRIC_REPRESENTATION_CONTEXT(2) 
PARAMETRIC_REPRESENTATION_CONTEXT() REPRESENTATION_CONTEXT('2D SPACE',''
  ) );
#1151 = ORIENTED_EDGE('',*,*,#635,.F.);
#1152 = ORIENTED_EDGE('',*,*,#1100,.F.);
#1153 = ADVANCED_FACE('',(#1154),#306,.F.);
#1154 = FACE_BOUND('',#1155,.F.);
#1155 = EDGE_LOOP('',(#1156,#1157,#1180,#1181));
#1156 = ORIENTED_EDGE('',*,*,#292,.T.);
#1157 = ORIENTED_EDGE('',*,*,#1158,.T.);
#1158 = EDGE_CURVE('',#261,#594,#1159,.T.);
#1159 = SURFACE_CURVE('',#1160,(#1166,#1173),.PCURVE_S1.);
#1160 = ( BOUNDED_CURVE() B_SPLINE_CURVE(4,(#1161,#1162,#1163,#1164,
#1165),.UNSPECIFIED.,.F.,.F.) B_SPLINE_CURVE_WITH_KNOTS((5,5),(0.,1.),
.PIECEWISE_BEZIER_KNOTS.) CURVE() GEOMETRIC_REPRESENTATION_ITEM() 
RATIONAL_B_SPLINE_CURVE((1.,1.,1.,1.,1.)) REPRESENTATION_ITEM('') );
#1161 = CARTESIAN_POINT('',(32.4,-6.528,-82.));
#1162 = CARTESIAN_POINT('',(67.078293130607,-15.038876009,
    -51.58565895354));
#1163 = CARTESIAN_POINT('',(55.29085881294,-12.14595992561,
    4.887363060211));
#1164 = CARTESIAN_POINT('',(62.917387096402,-14.01769093484,
    41.868399186784));
#1165 = CARTESIAN_POINT('',(35.94,-7.3968,82.));
#1166 = PCURVE('',#306,#1167);
#1167 = DEFINITIONAL_REPRESENTATION('',(#1168),#1172);
#1168 = LINE('',#1169,#1170);
#1169 = CARTESIAN_POINT('',(2.,0.));
#1170 = VECTOR('',#1171,1.);
#1171 = DIRECTION('',(0.,1.));
#1172 = ( GEOMETRIC_REPRESENTATION_CONTEXT(2) 
PARAMETRIC_REPRESENTATION_CONTEXT() REPRESENTATION_CONTEXT('2D SPACE',''
  ) );
#1173 = PCURVE('',#274,#1174);
#1174 = DEFINITIONAL_REPRESENTATION('',(#1175),#1179);
#1175 = LINE('',#1176,#1177);
#1176 = CARTESIAN_POINT('',(2.,0.));
#1177 = VECTOR('',#1178,1.);
#1178 = DIRECTION('',(0.,1.));
#1179 = ( GEOMETRIC_REPRESENTATION_CONTEXT(2) 
PARAMETRIC_REPRESENTATION_CONTEXT() REPRESENTATION_CONTEXT('2D SPACE',''
  ) );
#1180 = ORIENTED_EDGE('',*,*,#614,.F.);
#1181 = ORIENTED_EDGE('',*,*,#1129,.F.);
#1182 = ADVANCED_FACE('',(#1183),#274,.F.);
#1183 = FACE_BOUND('',#1184,.F.);
#1184 = EDGE_LOOP('',(#1185,#1186,#1187,#1331));
#1185 = ORIENTED_EDGE('',*,*,#1158,.F.);
#1186 = ORIENTED_EDGE('',*,*,#260,.T.);
#1187 = ORIENTED_EDGE('',*,*,#1188,.T.);
#1188 = EDGE_CURVE('',#235,#573,#1189,.T.);
#1189 = SURFACE_CURVE('',#1190,(#1235,#1283),.PCURVE_S1.);
#1190 = B_SPLINE_CURVE_WITH_KNOTS('',8,(#1191,#1192,#1193,#1194,#1195,
    #1196,#1197,#1198,#1199,#1200,#1201,#1202,#1203,#1204,#1205,#1206,
    #1207,#1208,#1209,#1210,#1211,#1212,#1213,#1214,#1215,#1216,#1217,
    #1218,#1219,#1220,#1221,#1222,#1223,#1224,#1225,#1226,#1227,#1228,
    #1229,#1230,#1231,#1232,#1233,#1234),.UNSPECIFIED.,.F.,.F.,(9,7,7,7,
    7,7,9),(0.,0.196598427435,0.28569136119,0.526569152468,
    0.749051092455,0.927596057466,1.),.UNSPECIFIED.);
#1191 = CARTESIAN_POINT('',(32.4,0.,-82.));
#1192 = CARTESIAN_POINT('',(35.626732242742,0.,-79.17001830145));
#1193 = CARTESIAN_POINT('',(38.608971116797,0.,-76.05866192717));
#1194 = CARTESIAN_POINT('',(41.308398750293,0.,-72.69314107413));
#1195 = CARTESIAN_POINT('',(43.71400454614,0.,-69.11062570508));
#1196 = CARTESIAN_POINT('',(45.834054797546,0.,-65.35329159371));
#1197 = CARTESIAN_POINT('',(47.686938453952,0.,-61.46238436588));
#1198 = CARTESIAN_POINT('',(49.295780958897,0.,-57.47467446413));
#1199 = CARTESIAN_POINT('',(51.314334470803,0.,-51.58253097774));
#1200 = CARTESIAN_POINT('',(51.89918660319,0.,-49.72985257127));
#1201 = CARTESIAN_POINT('',(52.441755663459,0.,-47.86406698848));
#1202 = CARTESIAN_POINT('',(52.94434226491,0.,-45.98705239544));
#1203 = CARTESIAN_POINT('',(53.40916106181,0.,-44.10045102525));
#1204 = CARTESIAN_POINT('',(53.838314735059,0.,-42.20566218956));
#1205 = CARTESIAN_POINT('',(54.233777242892,0.,-40.30383782386));
#1206 = CARTESIAN_POINT('',(55.580464923153,0.,-33.23739592951));
#1207 = CARTESIAN_POINT('',(56.330006256802,0.,-28.03772212636));
#1208 = CARTESIAN_POINT('',(56.883573008991,0.,-22.81120880154));
#1209 = CARTESIAN_POINT('',(57.268263640109,0.,-17.56906657272));
#1210 = CARTESIAN_POINT('',(57.503909889528,0.,-12.31964272105));
#1211 = CARTESIAN_POINT('',(57.603677920448,0.,-7.068481304283));
#1212 = CARTESIAN_POINT('',(57.574432369898,0.,-1.818387068563));
#1213 = CARTESIAN_POINT('',(57.269643195385,0.,8.27871186995));
#1214 = CARTESIAN_POINT('',(57.013189657347,0.,13.122254399275));
#1215 = CARTESIAN_POINT('',(56.646803905419,0.,17.960180467851));
#1216 = CARTESIAN_POINT('',(56.165784109102,0.,22.789584948943));
#1217 = CARTESIAN_POINT('',(55.560954636206,0.,27.60574184288));
#1218 = CARTESIAN_POINT('',(54.818514604458,0.,32.402103310766));
#1219 = CARTESIAN_POINT('',(53.92070712053,0.,37.170411771333));
#1220 = CARTESIAN_POINT('',(51.9883741829,0.,45.697511792803));
#1221 = CARTESIAN_POINT('',(51.015893385982,0.,49.469570304052));
#1222 = CARTESIAN_POINT('',(49.92199734792,0.,53.210156120918));
#1223 = CARTESIAN_POINT('',(48.697485257783,0.,56.911116267937));
#1224 = CARTESIAN_POINT('',(47.334275846058,0.,60.563638166858));
#1225 = CARTESIAN_POINT('',(45.827181161052,0.,64.158871691592));
#1226 = CARTESIAN_POINT('',(44.175452981006,0.,67.688451900644));
#1227 = CARTESIAN_POINT('',(41.656365810631,0.,72.546135896176));
#1228 = CARTESIAN_POINT('',(40.906399818575,0.,73.935686481827));
#1229 = CARTESIAN_POINT('',(40.133516066878,0.,75.312777471983));
#1230 = CARTESIAN_POINT('',(39.338048879517,0.,76.677015917764));
#1231 = CARTESIAN_POINT('',(38.520422275686,0.,78.028080813114));
#1232 = CARTESIAN_POINT('',(37.681142574173,0.,79.365718622868));
#1233 = CARTESIAN_POINT('',(36.820788672379,0.,80.689737472558));
#1234 = CARTESIAN_POINT('',(35.94,0.,82.));
#1235 = PCURVE('',#274,#1236);
#1236 = DEFINITIONAL_REPRESENTATION('',(#1237),#1282);
#1237 = B_SPLINE_CURVE_WITH_KNOTS('',8,(#1238,#1239,#1240,#1241,#1242,
    #1243,#1244,#1245,#1246,#1247,#1248,#1249,#1250,#1251,#1252,#1253,
    #1254,#1255,#1256,#1257,#1258,#1259,#1260,#1261,#1262,#1263,#1264,
    #1265,#1266,#1267,#1268,#1269,#1270,#1271,#1272,#1273,#1274,#1275,
    #1276,#1277,#1278,#1279,#1280,#1281),.UNSPECIFIED.,.F.,.F.,(9,7,7,7,
    7,7,9),(0.,0.196598427435,0.28569136119,0.526569152468,
    0.749051092455,0.927596057466,1.),.UNSPECIFIED.);
#1238 = CARTESIAN_POINT('',(2.5,0.));
#1239 = CARTESIAN_POINT('',(2.5,2.326190212555E-02));
#1240 = CARTESIAN_POINT('',(2.5,4.724708967276E-02));
#1241 = CARTESIAN_POINT('',(2.5,7.17312517994E-02));
#1242 = CARTESIAN_POINT('',(2.5,9.652203477936E-02));
#1243 = CARTESIAN_POINT('',(2.5,0.121457919756));
#1244 = CARTESIAN_POINT('',(2.5,0.146408701042));
#1245 = CARTESIAN_POINT('',(2.5,0.171276774126));
#1246 = CARTESIAN_POINT('',(2.5,0.207203877639));
#1247 = CARTESIAN_POINT('',(2.5,0.21838690544));
#1248 = CARTESIAN_POINT('',(2.5,0.229547086493));
#1249 = CARTESIAN_POINT('',(2.5,0.24068336889));
#1250 = CARTESIAN_POINT('',(2.5,0.251795606857));
#1251 = CARTESIAN_POINT('',(2.5,0.2628845443));
#1252 = CARTESIAN_POINT('',(2.5,0.273951820797));
#1253 = CARTESIAN_POINT('',(2.5,0.314870618151));
#1254 = CARTESIAN_POINT('',(2.5,0.344580552631));
#1255 = CARTESIAN_POINT('',(2.5,0.374201611131));
#1256 = CARTESIAN_POINT('',(2.5,0.403793370873));
#1257 = CARTESIAN_POINT('',(2.5,0.433412132474));
#1258 = CARTESIAN_POINT('',(2.5,0.463113687475));
#1259 = CARTESIAN_POINT('',(2.5,0.492956066171));
#1260 = CARTESIAN_POINT('',(2.5,0.55074947681));
#1261 = CARTESIAN_POINT('',(2.5,0.578650136432));
#1262 = CARTESIAN_POINT('',(2.5,0.606743684139));
#1263 = CARTESIAN_POINT('',(2.5,0.635050905158));
#1264 = CARTESIAN_POINT('',(2.5,0.663571629249));
#1265 = CARTESIAN_POINT('',(2.5,0.692279727123));
#1266 = CARTESIAN_POINT('',(2.5,0.721118272054));
#1267 = CARTESIAN_POINT('',(2.5,0.773178003149));
#1268 = CARTESIAN_POINT('',(2.5,0.796383034821));
#1269 = CARTESIAN_POINT('',(2.5,0.819556835432));
#1270 = CARTESIAN_POINT('',(2.5,0.842625339923));
#1271 = CARTESIAN_POINT('',(2.5,0.8654998866));
#1272 = CARTESIAN_POINT('',(2.5,0.888083772601));
#1273 = CARTESIAN_POINT('',(2.5,0.910280492929));
#1274 = CARTESIAN_POINT('',(2.5,0.940807741746));
#1275 = CARTESIAN_POINT('',(2.5,0.949537540433));
#1276 = CARTESIAN_POINT('',(2.5,0.958183707651));
#1277 = CARTESIAN_POINT('',(2.5,0.966741093702));
#1278 = CARTESIAN_POINT('',(2.5,0.97520512139));
#1279 = CARTESIAN_POINT('',(2.5,0.98357179912));
#1280 = CARTESIAN_POINT('',(2.5,0.991837713293));
#1281 = CARTESIAN_POINT('',(2.5,1.));
#1282 = ( GEOMETRIC_REPRESENTATION_CONTEXT(2) 
PARAMETRIC_REPRESENTATION_CONTEXT() REPRESENTATION_CONTEXT('2D SPACE',''
  ) );
#1283 = PCURVE('',#249,#1284);
#1284 = DEFINITIONAL_REPRESENTATION('',(#1285),#1330);
#1285 = B_SPLINE_CURVE_WITH_KNOTS('',8,(#1286,#1287,#1288,#1289,#1290,
    #1291,#1292,#1293,#1294,#1295,#1296,#1297,#1298,#1299,#1300,#1301,
    #1302,#1303,#1304,#1305,#1306,#1307,#1308,#1309,#1310,#1311,#1312,
    #1313,#1314,#1315,#1316,#1317,#1318,#1319,#1320,#1321,#1322,#1323,
    #1324,#1325,#1326,#1327,#1328,#1329),.UNSPECIFIED.,.F.,.F.,(9,7,7,7,
    7,7,9),(0.,0.196598427435,0.28569136119,0.526569152468,
    0.749051092455,0.927596057466,1.),.UNSPECIFIED.);
#1286 = CARTESIAN_POINT('',(16.4,150.4));
#1287 = CARTESIAN_POINT('',(19.229981698543,153.62673224274));
#1288 = CARTESIAN_POINT('',(22.341338072826,156.60897111679));
#1289 = CARTESIAN_POINT('',(25.706858925863,159.30839875029));
#1290 = CARTESIAN_POINT('',(29.289374294911,161.71400454614));
#1291 = CARTESIAN_POINT('',(33.046708406287,163.83405479754));
#1292 = CARTESIAN_POINT('',(36.937615634118,165.68693845395));
#1293 = CARTESIAN_POINT('',(40.925325535868,167.29578095889));
#1294 = CARTESIAN_POINT('',(46.817469022251,169.3143344708));
#1295 = CARTESIAN_POINT('',(48.670147428723,169.89918660319));
#1296 = CARTESIAN_POINT('',(50.53593301152,170.44175566345));
#1297 = CARTESIAN_POINT('',(52.41294760456,170.94434226491));
#1298 = CARTESIAN_POINT('',(54.299548974749,171.40916106181));
#1299 = CARTESIAN_POINT('',(56.194337810431,171.83831473505));
#1300 = CARTESIAN_POINT('',(58.096162176131,172.23377724289));
#1301 = CARTESIAN_POINT('',(65.162604070488,173.58046492315));
#1302 = CARTESIAN_POINT('',(70.362277873635,174.3300062568));
#1303 = CARTESIAN_POINT('',(75.588791198454,174.88357300899));
#1304 = CARTESIAN_POINT('',(80.830933427277,175.2682636401));
#1305 = CARTESIAN_POINT('',(86.08035727895,175.50390988952));
#1306 = CARTESIAN_POINT('',(91.331518695717,175.60367792044));
#1307 = CARTESIAN_POINT('',(96.581612931437,175.57443236989));
#1308 = CARTESIAN_POINT('',(106.67871186995,175.26964319538));
#1309 = CARTESIAN_POINT('',(111.52225439927,175.01318965734));
#1310 = CARTESIAN_POINT('',(116.36018046785,174.64680390541));
#1311 = CARTESIAN_POINT('',(121.18958494894,174.1657841091));
#1312 = CARTESIAN_POINT('',(126.00574184288,173.5609546362));
#1313 = CARTESIAN_POINT('',(130.80210331076,172.81851460445));
#1314 = CARTESIAN_POINT('',(135.57041177133,171.92070712053));
#1315 = CARTESIAN_POINT('',(144.0975117928,169.9883741829));
#1316 = CARTESIAN_POINT('',(147.86957030405,169.01589338598));
#1317 = CARTESIAN_POINT('',(151.61015612091,167.92199734792));
#1318 = CARTESIAN_POINT('',(155.31111626793,166.69748525778));
#1319 = CARTESIAN_POINT('',(158.96363816685,165.33427584605));
#1320 = CARTESIAN_POINT('',(162.55887169159,163.82718116105));
#1321 = CARTESIAN_POINT('',(166.08845190064,162.175452981));
#1322 = CARTESIAN_POINT('',(170.94613589617,159.65636581063));
#1323 = CARTESIAN_POINT('',(172.33568648182,158.90639981857));
#1324 = CARTESIAN_POINT('',(173.71277747198,158.13351606687));
#1325 = CARTESIAN_POINT('',(175.07701591776,157.33804887951));
#1326 = CARTESIAN_POINT('',(176.42808081311,156.52042227568));
#1327 = CARTESIAN_POINT('',(177.76571862286,155.68114257417));
#1328 = CARTESIAN_POINT('',(179.08973747255,154.82078867237));
#1329 = CARTESIAN_POINT('',(180.4,153.94));
#1330 = ( GEOMETRIC_REPRESENTATION_CONTEXT(2) 
PARAMETRIC_REPRESENTATION_CONTEXT() REPRESENTATION_CONTEXT('2D SPACE',''
  ) );
#1331 = ORIENTED_EDGE('',*,*,#593,.F.);
#1332 = ADVANCED_FACE('',(#1333),#249,.T.);
#1333 = FACE_BOUND('',#1334,.T.);
#1334 = EDGE_LOOP('',(#1335,#1479,#1480,#1481));
#1335 = ORIENTED_EDGE('',*,*,#1336,.F.);
#1336 = EDGE_CURVE('',#203,#552,#1337,.T.);
#1337 = SURFACE_CURVE('',#1338,(#1383,#1431),.PCURVE_S1.);
#1338 = B_SPLINE_CURVE_WITH_KNOTS('',8,(#1339,#1340,#1341,#1342,#1343,
    #1344,#1345,#1346,#1347,#1348,#1349,#1350,#1351,#1352,#1353,#1354,
    #1355,#1356,#1357,#1358,#1359,#1360,#1361,#1362,#1363,#1364,#1365,
    #1366,#1367,#1368,#1369,#1370,#1371,#1372,#1373,#1374,#1375,#1376,
    #1377,#1378,#1379,#1380,#1381,#1382),.UNSPECIFIED.,.F.,.F.,(9,7,7,7,
    7,7,9),(0.,0.196598427434,0.285691361187,0.526569152464,
    0.749051092453,0.927596057466,1.),.UNSPECIFIED.);
#1339 = CARTESIAN_POINT('',(35.4,0.,-82.));
#1340 = CARTESIAN_POINT('',(38.626732242737,0.,-79.17001830146));
#1341 = CARTESIAN_POINT('',(41.608971116811,0.,-76.05866192714));
#1342 = CARTESIAN_POINT('',(44.308398750274,0.,-72.6931410742));
#1343 = CARTESIAN_POINT('',(46.714004546157,0.,-69.110625705));
#1344 = CARTESIAN_POINT('',(48.834054797534,0.,-65.35329159377));
#1345 = CARTESIAN_POINT('',(50.686938453958,0.,-61.46238436585));
#1346 = CARTESIAN_POINT('',(52.295780958894,0.,-57.47467446413));
#1347 = CARTESIAN_POINT('',(54.314334470803,0.,-51.58253097775));
#1348 = CARTESIAN_POINT('',(54.899186603191,0.,-49.72985257127));
#1349 = CARTESIAN_POINT('',(55.441755663459,0.,-47.86406698848));
#1350 = CARTESIAN_POINT('',(55.94434226491,0.,-45.98705239544));
#1351 = CARTESIAN_POINT('',(56.40916106181,0.,-44.10045102525));
#1352 = CARTESIAN_POINT('',(56.838314735059,0.,-42.20566218956));
#1353 = CARTESIAN_POINT('',(57.233777242892,0.,-40.30383782387));
#1354 = CARTESIAN_POINT('',(58.580464923156,0.,-33.23739592949));
#1355 = CARTESIAN_POINT('',(59.330006256786,0.,-28.03772212644));
#1356 = CARTESIAN_POINT('',(59.883573009026,0.,-22.81120880134));
#1357 = CARTESIAN_POINT('',(60.26826364007,0.,-17.56906657304));
#1358 = CARTESIAN_POINT('',(60.503909889551,0.,-12.31964272074));
#1359 = CARTESIAN_POINT('',(60.603677920445,0.,-7.068481304456));
#1360 = CARTESIAN_POINT('',(60.574432369896,0.,-1.818387068517));
#1361 = CARTESIAN_POINT('',(60.269643195384,0.,8.278711869988));
#1362 = CARTESIAN_POINT('',(60.013189657354,0.,13.122254399165));
#1363 = CARTESIAN_POINT('',(59.646803905407,0.,17.960180467966));
#1364 = CARTESIAN_POINT('',(59.165784109106,0.,22.789584948949));
#1365 = CARTESIAN_POINT('',(58.560954636217,0.,27.605741842765));
#1366 = CARTESIAN_POINT('',(57.818514604443,0.,32.402103310861));
#1367 = CARTESIAN_POINT('',(56.920707120536,0.,37.170411771305));
#1368 = CARTESIAN_POINT('',(54.988374182894,0.,45.697511792829));
#1369 = CARTESIAN_POINT('',(54.015893385993,0.,49.469570303985));
#1370 = CARTESIAN_POINT('',(52.921997347914,0.,53.210156120976));
#1371 = CARTESIAN_POINT('',(51.697485257782,0.,56.911116267947));
#1372 = CARTESIAN_POINT('',(50.334275846063,0.,60.5636381668));
#1373 = CARTESIAN_POINT('',(48.827181161043,0.,64.158871691636));
#1374 = CARTESIAN_POINT('',(47.175452981012,0.,67.688451900632));
#1375 = CARTESIAN_POINT('',(44.656365810631,0.,72.546135896176));
#1376 = CARTESIAN_POINT('',(43.906399818575,0.,73.935686481827));
#1377 = CARTESIAN_POINT('',(43.133516066878,0.,75.312777471984));
#1378 = CARTESIAN_POINT('',(42.338048879517,0.,76.677015917764));
#1379 = CARTESIAN_POINT('',(41.520422275686,0.,78.028080813114));
#1380 = CARTESIAN_POINT('',(40.681142574173,0.,79.365718622867));
#1381 = CARTESIAN_POINT('',(39.820788672379,0.,80.689737472559));
#1382 = CARTESIAN_POINT('',(38.94,0.,82.));
#1383 = PCURVE('',#249,#1384);
#1384 = DEFINITIONAL_REPRESENTATION('',(#1385),#1430);
#1385 = B_SPLINE_CURVE_WITH_KNOTS('',8,(#1386,#1387,#1388,#1389,#1390,
    #1391,#1392,#1393,#1394,#1395,#1396,#1397,#1398,#1399,#1400,#1401,
    #1402,#1403,#1404,#1405,#1406,#1407,#1408,#1409,#1410,#1411,#1412,
    #1413,#1414,#1415,#1416,#1417,#1418,#1419,#1420,#1421,#1422,#1423,
    #1424,#1425,#1426,#1427,#1428,#1429),.UNSPECIFIED.,.F.,.F.,(9,7,7,7,
    7,7,9),(0.,0.196598427434,0.285691361187,0.526569152464,
    0.749051092453,0.927596057466,1.),.UNSPECIFIED.);
#1386 = CARTESIAN_POINT('',(16.4,153.4));
#1387 = CARTESIAN_POINT('',(19.229981698539,156.62673224273));
#1388 = CARTESIAN_POINT('',(22.341338072852,159.60897111681));
#1389 = CARTESIAN_POINT('',(25.7068589258,162.30839875027));
#1390 = CARTESIAN_POINT('',(29.289374294996,164.71400454615));
#1391 = CARTESIAN_POINT('',(33.046708406221,166.83405479753));
#1392 = CARTESIAN_POINT('',(36.937615634148,168.68693845395));
#1393 = CARTESIAN_POINT('',(40.925325535862,170.29578095889));
#1394 = CARTESIAN_POINT('',(46.81746902225,172.3143344708));
#1395 = CARTESIAN_POINT('',(48.670147428725,172.89918660319));
#1396 = CARTESIAN_POINT('',(50.53593301152,173.44175566345));
#1397 = CARTESIAN_POINT('',(52.412947604558,173.94434226491));
#1398 = CARTESIAN_POINT('',(54.299548974748,174.40916106181));
#1399 = CARTESIAN_POINT('',(56.194337810432,174.83831473505));
#1400 = CARTESIAN_POINT('',(58.09616217613,175.23377724289));
#1401 = CARTESIAN_POINT('',(65.162604070504,176.58046492315));
#1402 = CARTESIAN_POINT('',(70.362277873555,177.33000625678));
#1403 = CARTESIAN_POINT('',(75.588791198658,177.88357300902));
#1404 = CARTESIAN_POINT('',(80.830933426958,178.26826364007));
#1405 = CARTESIAN_POINT('',(86.080357279259,178.50390988955));
#1406 = CARTESIAN_POINT('',(91.331518695544,178.60367792044));
#1407 = CARTESIAN_POINT('',(96.581612931483,178.57443236989));
#1408 = CARTESIAN_POINT('',(106.67871186998,178.26964319538));
#1409 = CARTESIAN_POINT('',(111.52225439916,178.01318965735));
#1410 = CARTESIAN_POINT('',(116.36018046796,177.6468039054));
#1411 = CARTESIAN_POINT('',(121.18958494894,177.1657841091));
#1412 = CARTESIAN_POINT('',(126.00574184276,176.56095463621));
#1413 = CARTESIAN_POINT('',(130.80210331086,175.81851460444));
#1414 = CARTESIAN_POINT('',(135.5704117713,174.92070712053));
#1415 = CARTESIAN_POINT('',(144.09751179282,172.98837418289));
#1416 = CARTESIAN_POINT('',(147.86957030398,172.01589338599));
#1417 = CARTESIAN_POINT('',(151.61015612097,170.92199734791));
#1418 = CARTESIAN_POINT('',(155.31111626794,169.69748525778));
#1419 = CARTESIAN_POINT('',(158.9636381668,168.33427584606));
#1420 = CARTESIAN_POINT('',(162.55887169163,166.82718116104));
#1421 = CARTESIAN_POINT('',(166.08845190063,165.17545298101));
#1422 = CARTESIAN_POINT('',(170.94613589617,162.65636581063));
#1423 = CARTESIAN_POINT('',(172.33568648182,161.90639981857));
#1424 = CARTESIAN_POINT('',(173.71277747198,161.13351606687));
#1425 = CARTESIAN_POINT('',(175.07701591776,160.33804887951));
#1426 = CARTESIAN_POINT('',(176.42808081311,159.52042227568));
#1427 = CARTESIAN_POINT('',(177.76571862286,158.68114257417));
#1428 = CARTESIAN_POINT('',(179.08973747255,157.82078867237));
#1429 = CARTESIAN_POINT('',(180.4,156.94));
#1430 = ( GEOMETRIC_REPRESENTATION_CONTEXT(2) 
PARAMETRIC_REPRESENTATION_CONTEXT() REPRESENTATION_CONTEXT('2D SPACE',''
  ) );
#1431 = PCURVE('',#216,#1432);
#1432 = DEFINITIONAL_REPRESENTATION('',(#1433),#1478);
#1433 = B_SPLINE_CURVE_WITH_KNOTS('',8,(#1434,#1435,#1436,#1437,#1438,
    #1439,#1440,#1441,#1442,#1443,#1444,#1445,#1446,#1447,#1448,#1449,
    #1450,#1451,#1452,#1453,#1454,#1455,#1456,#1457,#1458,#1459,#1460,
    #1461,#1462,#1463,#1464,#1465,#1466,#1467,#1468,#1469,#1470,#1471,
    #1472,#1473,#1474,#1475,#1476,#1477),.UNSPECIFIED.,.F.,.F.,(9,7,7,7,
    7,7,9),(0.,0.196598427434,0.285691361187,0.526569152464,
    0.749051092453,0.927596057466,1.),.UNSPECIFIED.);
#1434 = CARTESIAN_POINT('',(2.5,0.));
#1435 = CARTESIAN_POINT('',(2.5,2.326190212552E-02));
#1436 = CARTESIAN_POINT('',(2.5,4.724708967287E-02));
#1437 = CARTESIAN_POINT('',(2.5,7.173125179922E-02));
#1438 = CARTESIAN_POINT('',(2.5,9.652203477958E-02));
#1439 = CARTESIAN_POINT('',(2.5,0.121457919755));
#1440 = CARTESIAN_POINT('',(2.5,0.146408701042));
#1441 = CARTESIAN_POINT('',(2.5,0.171276774126));
#1442 = CARTESIAN_POINT('',(2.5,0.207203877639));
#1443 = CARTESIAN_POINT('',(2.5,0.21838690544));
#1444 = CARTESIAN_POINT('',(2.5,0.229547086493));
#1445 = CARTESIAN_POINT('',(2.5,0.24068336889));
#1446 = CARTESIAN_POINT('',(2.5,0.251795606857));
#1447 = CARTESIAN_POINT('',(2.5,0.2628845443));
#1448 = CARTESIAN_POINT('',(2.5,0.273951820797));
#1449 = CARTESIAN_POINT('',(2.5,0.314870618151));
#1450 = CARTESIAN_POINT('',(2.5,0.344580552631));
#1451 = CARTESIAN_POINT('',(2.5,0.374201611132));
#1452 = CARTESIAN_POINT('',(2.5,0.403793370871));
#1453 = CARTESIAN_POINT('',(2.5,0.433412132475));
#1454 = CARTESIAN_POINT('',(2.5,0.463113687474));
#1455 = CARTESIAN_POINT('',(2.5,0.492956066171));
#1456 = CARTESIAN_POINT('',(2.5,0.55074947681));
#1457 = CARTESIAN_POINT('',(2.5,0.578650136432));
#1458 = CARTESIAN_POINT('',(2.5,0.60674368414));
#1459 = CARTESIAN_POINT('',(2.5,0.635050905158));
#1460 = CARTESIAN_POINT('',(2.5,0.663571629248));
#1461 = CARTESIAN_POINT('',(2.5,0.692279727123));
#1462 = CARTESIAN_POINT('',(2.5,0.721118272053));
#1463 = CARTESIAN_POINT('',(2.5,0.773178003149));
#1464 = CARTESIAN_POINT('',(2.5,0.79638303482));
#1465 = CARTESIAN_POINT('',(2.5,0.819556835433));
#1466 = CARTESIAN_POINT('',(2.5,0.842625339923));
#1467 = CARTESIAN_POINT('',(2.5,0.865499886599));
#1468 = CARTESIAN_POINT('',(2.5,0.888083772601));
#1469 = CARTESIAN_POINT('',(2.5,0.910280492929));
#1470 = CARTESIAN_POINT('',(2.5,0.940807741746));
#1471 = CARTESIAN_POINT('',(2.5,0.949537540433));
#1472 = CARTESIAN_POINT('',(2.5,0.958183707651));
#1473 = CARTESIAN_POINT('',(2.5,0.966741093702));
#1474 = CARTESIAN_POINT('',(2.5,0.97520512139));
#1475 = CARTESIAN_POINT('',(2.5,0.98357179912));
#1476 = CARTESIAN_POINT('',(2.5,0.991837713293));
#1477 = CARTESIAN_POINT('',(2.5,1.));
#1478 = ( GEOMETRIC_REPRESENTATION_CONTEXT(2) 
PARAMETRIC_REPRESENTATION_CONTEXT() REPRESENTATION_CONTEXT('2D SPACE',''
  ) );
#1479 = ORIENTED_EDGE('',*,*,#234,.T.);
#1480 = ORIENTED_EDGE('',*,*,#1188,.T.);
#1481 = ORIENTED_EDGE('',*,*,#572,.F.);
#1482 = ADVANCED_FACE('',(#1483),#216,.T.);
#1483 = FACE_BOUND('',#1484,.T.);
#1484 = EDGE_LOOP('',(#1485,#1486,#1487,#1488));
#1485 = ORIENTED_EDGE('',*,*,#480,.F.);
#1486 = ORIENTED_EDGE('',*,*,#202,.T.);
#1487 = ORIENTED_EDGE('',*,*,#1336,.T.);
#1488 = ORIENTED_EDGE('',*,*,#551,.F.);
#1489 = ( GEOMETRIC_REPRESENTATION_CONTEXT(3) 
GLOBAL_UNCERTAINTY_ASSIGNED_CONTEXT((#1493)) 
GLOBAL_UNIT_ASSIGNED_CONTEXT((#1490,#1491,#1492)) REPRESENTATION_CONTEXT
('Context #1','3D Context with UNIT and UNCERTAINTY') );
#1490 = ( LENGTH_UNIT() NAMED_UNIT(*) SI_UNIT(.MILLI.,.METRE.) );
#1491 = ( NAMED_UNIT(*) PLANE_ANGLE_UNIT() SI_UNIT($,.RADIAN.) );
#1492 = ( NAMED_UNIT(*) SI_UNIT($,.STERADIAN.) SOLID_ANGLE_UNIT() );
#1493 = UNCERTAINTY_MEASURE_WITH_UNIT(LENGTH_MEASURE(1.E-06),#1490,
  'distance_accuracy_value','confusion accuracy');
#1494 = PRODUCT_RELATED_PRODUCT_CATEGORY('part',$,(#7));
ENDSEC;
END-ISO-10303-21;
