ISO-10303-21;
HEADER;
FILE_DESCRIPTION(('Open CASCADE Model'),'2;1');
FILE_NAME('Open CASCADE Shape Model','2026-09-05T05:20:54',('Author'),(
    'Open CASCADE'),'Open CASCADE STEP processor 7.8','Open CASCADE 7.8'
  ,'Unknown');
FILE_SCHEMA(('AUTOMOTIVE_DESIGN { 1 0 10303 214 1 1 1 1 }'));
ENDSEC;
DATA;
#1 = APPLICATION_PROTOCOL_DEFINITION('international standard',
  'automotive_design',2000,#2);
#2 = APPLICATION_CONTEXT(
  'core data for automotive mechanical design processes');
#3 = SHAPE_DEFINITION_REPRESENTATION(#4,#10);
#4 = PRODUCT_DEFINITION_SHAPE('','',#5);
#5 = PRODUCT_DEFINITION('design','',#6,#9);
#6 = PRODUCT_DEFINITION_FORMATION('','',#7);
#7 = PRODUCT('Open CASCADE STEP translator 7.8 56',
  'Open CASCADE STEP translator 7.8 56','',(#8));
#8 = PRODUCT_CONTEXT('',#2,'mechanical');
#9 = PRODUCT_DEFINITION_CONTEXT('part definition',#2,'design');
#10 = ADVANCED_BREP_SHAPE_REPRESENTATION('',(#11,#15),#525);
#11 = AXIS2_PLACEMENT_3D('',#12,#13,#14);
#12 = CARTESIAN_POINT('',(0.,0.,0.));
#13 = DIRECTION('',(0.,0.,1.));
#14 = DIRECTION('',(1.,0.,-0.));
#15 = MANIFOLD_SOLID_BREP('',#16);
#16 = CLOSED_SHELL('',(#17,#227,#315,#403,#458,#518));
#17 = ADVANCED_FACE('',(#18),#34,.T.);
#18 = FACE_BOUND('',#19,.T.);
#19 = EDGE_LOOP('',(#20,#67,#128,#162));
#20 = ORIENTED_EDGE('',*,*,#21,.T.);
#21 = EDGE_CURVE('',#22,#24,#26,.T.);
#22 = VERTEX_POINT('',#23);
#23 = CARTESIAN_POINT('',(29.,-30.492935524,-20.));
#24 = VERTEX_POINT('',#25);
#25 = CARTESIAN_POINT('',(-29.,-30.492935524,-20.));
#26 = SURFACE_CURVE('',#27,(#33,#53),.PCURVE_S1.);
#27 = B_SPLINE_CURVE_WITH_KNOTS('',4,(#28,#29,#30,#31,#32),
  .UNSPECIFIED.,.F.,.F.,(5,5),(0.,1.),.PIECEWISE_BEZIER_KNOTS.);
#28 = CARTESIAN_POINT('',(29.,-30.492935524,-20.));
#29 = CARTESIAN_POINT('',(14.5,-30.492935524,-20.));
#30 = CARTESIAN_POINT('',(-7.815970093361E-14,-30.492935524,-20.));
#31 = CARTESIAN_POINT('',(-14.5,-30.492935524,-20.));
#32 = CARTESIAN_POINT('',(-29.,-30.492935524,-20.));
#33 = PCURVE('',#34,#45);
#34 = ( BOUNDED_SURFACE() B_SPLINE_SURFACE(1,4,(
    (#35,#36,#37,#38,#39)
    ,(#40,#41,#42,#43,#44
)),.UNSPECIFIED.,.F.,.F.,.F.) B_SPLINE_SURFACE_WITH_KNOTS((2,2),(5,5),(
    0.,1.),(0.,1.),.PIECEWISE_BEZIER_KNOTS.) 
GEOMETRIC_REPRESENTATION_ITEM() RATIONAL_B_SPLINE_SURFACE((
    (1.,1.,1.,1.,1.)
,(1.,1.,1.,1.,1.))) REPRESENTATION_ITEM('') SURFACE() );
#35 = CARTESIAN_POINT('',(-22.896,-18.,-167.5));
#36 = CARTESIAN_POINT('',(-48.87544566917,-38.42409250721,
    -89.27249727004));
#37 = CARTESIAN_POINT('',(-32.6474029145,-25.66619725982,3.532654884302)
  );
#38 = CARTESIAN_POINT('',(-45.02260469941,-35.39512948067,
    83.473119878126));
#39 = CARTESIAN_POINT('',(-25.1856,-19.8,167.5));
#40 = CARTESIAN_POINT('',(22.896,-18.,-167.5));
#41 = CARTESIAN_POINT('',(48.875445669179,-38.42409250721,
    -89.27249727004));
#42 = CARTESIAN_POINT('',(32.6474029145,-25.66619725982,3.532654884302)
  );
#43 = CARTESIAN_POINT('',(45.022604699412,-35.39512948067,
    83.473119878126));
#44 = CARTESIAN_POINT('',(25.1856,-19.8,167.5));
#45 = DEFINITIONAL_REPRESENTATION('',(#46),#52);
#46 = B_SPLINE_CURVE_WITH_KNOTS('',4,(#47,#48,#49,#50,#51),
  .UNSPECIFIED.,.F.,.F.,(5,5),(0.,1.),.PIECEWISE_BEZIER_KNOTS.);
#47 = CARTESIAN_POINT('',(0.87383645993,0.44167880893));
#48 = CARTESIAN_POINT('',(0.686918229965,0.44167880893));
#49 = CARTESIAN_POINT('',(0.5,0.44167880893));
#50 = CARTESIAN_POINT('',(0.313081770035,0.44167880893));
#51 = CARTESIAN_POINT('',(0.12616354007,0.44167880893));
#52 = ( GEOMETRIC_REPRESENTATION_CONTEXT(2) 
PARAMETRIC_REPRESENTATION_CONTEXT() REPRESENTATION_CONTEXT('2D SPACE',''
  ) );
#53 = PCURVE('',#54,#59);
#54 = PLANE('',#55);
#55 = AXIS2_PLACEMENT_3D('',#56,#57,#58);
#56 = CARTESIAN_POINT('',(-29.,-142.,-20.));
#57 = DIRECTION('',(0.,0.,1.));
#58 = DIRECTION('',(1.,0.,0.));
#59 = DEFINITIONAL_REPRESENTATION('',(#60),#66);
#60 = B_SPLINE_CURVE_WITH_KNOTS('',4,(#61,#62,#63,#64,#65),
  .UNSPECIFIED.,.F.,.F.,(5,5),(0.,1.),.PIECEWISE_BEZIER_KNOTS.);
#61 = CARTESIAN_POINT('',(58.,111.50706447599));
#62 = CARTESIAN_POINT('',(43.5,111.50706447599));
#63 = CARTESIAN_POINT('',(29.,111.50706447599));
#64 = CARTESIAN_POINT('',(14.5,111.50706447599));
#65 = CARTESIAN_POINT('',(0.,111.50706447599));
#66 = ( GEOMETRIC_REPRESENTATION_CONTEXT(2) 
PARAMETRIC_REPRESENTATION_CONTEXT() REPRESENTATION_CONTEXT('2D SPACE',''
  ) );
#67 = ORIENTED_EDGE('',*,*,#68,.T.);
#68 = EDGE_CURVE('',#24,#69,#71,.T.);
#69 = VERTEX_POINT('',#70);
#70 = CARTESIAN_POINT('',(-29.,-26.35965710316,-120.));
#71 = SURFACE_CURVE('',#72,(#87,#105),.PCURVE_S1.);
#72 = B_SPLINE_CURVE_WITH_KNOTS('',7,(#73,#74,#75,#76,#77,#78,#79,#80,
    #81,#82,#83,#84,#85,#86),.UNSPECIFIED.,.F.,.F.,(8,6,8),(0.,
    0.680874197446,1.),.UNSPECIFIED.);
#73 = CARTESIAN_POINT('',(-29.,-30.492935524,-20.));
#74 = CARTESIAN_POINT('',(-29.,-30.47920106041,-29.7397248125));
#75 = CARTESIAN_POINT('',(-29.,-30.41765579962,-39.47892770899));
#76 = CARTESIAN_POINT('',(-29.,-30.29941555823,-49.21802386412));
#77 = CARTESIAN_POINT('',(-29.,-30.11077003277,-58.95654563363));
#78 = CARTESIAN_POINT('',(-29.,-29.83303236718,-68.69313600142));
#79 = CARTESIAN_POINT('',(-29.,-29.44207902636,-78.42553713058));
#80 = CARTESIAN_POINT('',(-29.,-28.65577418278,-92.70866448842));
#81 = CARTESIAN_POINT('',(-29.,-28.37312644114,-97.26499276116));
#82 = CARTESIAN_POINT('',(-29.,-28.05555459748,-101.8191577201));
#83 = CARTESIAN_POINT('',(-29.,-27.69952013428,-106.3705938877));
#84 = CARTESIAN_POINT('',(-29.,-27.30112606848,-110.9185453188));
#85 = CARTESIAN_POINT('',(-29.,-26.8560814888,-115.4620627507));
#86 = CARTESIAN_POINT('',(-29.,-26.35965710316,-120.));
#87 = PCURVE('',#34,#88);
#88 = DEFINITIONAL_REPRESENTATION('',(#89),#104);
#89 = B_SPLINE_CURVE_WITH_KNOTS('',7,(#90,#91,#92,#93,#94,#95,#96,#97,
    #98,#99,#100,#101,#102,#103),.UNSPECIFIED.,.F.,.F.,(8,6,8),(0.,
    0.680874197446,1.),.UNSPECIFIED.);
#90 = CARTESIAN_POINT('',(0.12616354007,0.44167880893));
#91 = CARTESIAN_POINT('',(0.125995158667,0.413136023432));
#92 = CARTESIAN_POINT('',(0.125240688692,0.384628308734));
#93 = CARTESIAN_POINT('',(0.12378729591,0.356133367551));
#94 = CARTESIAN_POINT('',(0.121458230025,0.327625970148));
#95 = CARTESIAN_POINT('',(0.117971410423,0.299077687538));
#96 = CARTESIAN_POINT('',(0.112953254583,0.270456213199));
#97 = CARTESIAN_POINT('',(0.102226343501,0.228256074064));
#98 = CARTESIAN_POINT('',(9.830094764238E-02,0.214764905875));
#99 = CARTESIAN_POINT('',(9.379624510397E-02,0.201245921728));
#100 = CARTESIAN_POINT('',(8.86140698494E-02,0.187695454621));
#101 = CARTESIAN_POINT('',(8.263275569893E-02,0.174109937112));
#102 = CARTESIAN_POINT('',(7.568910274249E-02,0.1604858585));
#103 = CARTESIAN_POINT('',(6.754478919938E-02,0.146819713654));
#104 = ( GEOMETRIC_REPRESENTATION_CONTEXT(2) 
PARAMETRIC_REPRESENTATION_CONTEXT() REPRESENTATION_CONTEXT('2D SPACE',''
  ) );
#105 = PCURVE('',#106,#111);
#106 = PLANE('',#107);
#107 = AXIS2_PLACEMENT_3D('',#108,#109,#110);
#108 = CARTESIAN_POINT('',(-29.,-142.,-120.));
#109 = DIRECTION('',(1.,0.,0.));
#110 = DIRECTION('',(0.,0.,1.));
#111 = DEFINITIONAL_REPRESENTATION('',(#112),#127);
#112 = B_SPLINE_CURVE_WITH_KNOTS('',7,(#113,#114,#115,#116,#117,#118,
    #119,#120,#121,#122,#123,#124,#125,#126),.UNSPECIFIED.,.F.,.F.,(8,6,
    8),(0.,0.680874197446,1.),.UNSPECIFIED.);
#113 = CARTESIAN_POINT('',(100.,-111.5070644759));
#114 = CARTESIAN_POINT('',(90.260275187498,-111.5207989395));
#115 = CARTESIAN_POINT('',(80.521072291001,-111.5823442003));
#116 = CARTESIAN_POINT('',(70.78197613588,-111.7005844417));
#117 = CARTESIAN_POINT('',(61.043454366369,-111.8892299672));
#118 = CARTESIAN_POINT('',(51.306863998572,-112.1669676328));
#119 = CARTESIAN_POINT('',(41.574462869413,-112.5579209736));
#120 = CARTESIAN_POINT('',(27.291335511576,-113.3442258172));
#121 = CARTESIAN_POINT('',(22.735007238835,-113.6268735588));
#122 = CARTESIAN_POINT('',(18.180842279891,-113.9444454025));
#123 = CARTESIAN_POINT('',(13.629406112209,-114.3004798657));
#124 = CARTESIAN_POINT('',(9.081454681108,-114.6988739315));
#125 = CARTESIAN_POINT('',(4.537937249291,-115.1439185111));
#126 = CARTESIAN_POINT('',(0.,-115.6403428968));
#127 = ( GEOMETRIC_REPRESENTATION_CONTEXT(2) 
PARAMETRIC_REPRESENTATION_CONTEXT() REPRESENTATION_CONTEXT('2D SPACE',''
  ) );
#128 = ORIENTED_EDGE('',*,*,#129,.F.);
#129 = EDGE_CURVE('',#130,#69,#132,.T.);
#130 = VERTEX_POINT('',#131);
#131 = CARTESIAN_POINT('',(29.,-26.35965710316,-120.));
#132 = SURFACE_CURVE('',#133,(#139,#148),.PCURVE_S1.);
#133 = B_SPLINE_CURVE_WITH_KNOTS('',4,(#134,#135,#136,#137,#138),
  .UNSPECIFIED.,.F.,.F.,(5,5),(0.,1.),.PIECEWISE_BEZIER_KNOTS.);
#134 = CARTESIAN_POINT('',(29.,-26.35965710316,-120.));
#135 = CARTESIAN_POINT('',(14.5,-26.35965710316,-120.));
#136 = CARTESIAN_POINT('',(1.172395514004E-13,-26.35965710316,-120.));
#137 = CARTESIAN_POINT('',(-14.5,-26.35965710316,-120.));
#138 = CARTESIAN_POINT('',(-29.,-26.35965710316,-120.));
#139 = PCURVE('',#34,#140);
#140 = DEFINITIONAL_REPRESENTATION('',(#141),#147);
#141 = B_SPLINE_CURVE_WITH_KNOTS('',4,(#142,#143,#144,#145,#146),
  .UNSPECIFIED.,.F.,.F.,(5,5),(0.,1.),.PIECEWISE_BEZIER_KNOTS.);
#142 = CARTESIAN_POINT('',(0.932455210801,0.146819713654));
#143 = CARTESIAN_POINT('',(0.7162276054,0.146819713654));
#144 = CARTESIAN_POINT('',(0.5,0.146819713654));
#145 = CARTESIAN_POINT('',(0.2837723946,0.146819713654));
#146 = CARTESIAN_POINT('',(6.754478919938E-02,0.146819713654));
#147 = ( GEOMETRIC_REPRESENTATION_CONTEXT(2) 
PARAMETRIC_REPRESENTATION_CONTEXT() REPRESENTATION_CONTEXT('2D SPACE',''
  ) );
#148 = PCURVE('',#149,#154);
#149 = PLANE('',#150);
#150 = AXIS2_PLACEMENT_3D('',#151,#152,#153);
#151 = CARTESIAN_POINT('',(-29.,-142.,-120.));
#152 = DIRECTION('',(0.,0.,1.));
#153 = DIRECTION('',(1.,0.,0.));
#154 = DEFINITIONAL_REPRESENTATION('',(#155),#161);
#155 = B_SPLINE_CURVE_WITH_KNOTS('',4,(#156,#157,#158,#159,#160),
  .UNSPECIFIED.,.F.,.F.,(5,5),(0.,1.),.PIECEWISE_BEZIER_KNOTS.);
#156 = CARTESIAN_POINT('',(58.,115.64034289683));
#157 = CARTESIAN_POINT('',(43.5,115.64034289683));
#158 = CARTESIAN_POINT('',(29.,115.64034289683));
#159 = CARTESIAN_POINT('',(14.5,115.64034289683));
#160 = CARTESIAN_POINT('',(0.,115.64034289683));
#161 = ( GEOMETRIC_REPRESENTATION_CONTEXT(2) 
PARAMETRIC_REPRESENTATION_CONTEXT() REPRESENTATION_CONTEXT('2D SPACE',''
  ) );
#162 = ORIENTED_EDGE('',*,*,#163,.T.);
#163 = EDGE_CURVE('',#130,#22,#164,.T.);
#164 = SURFACE_CURVE('',#165,(#182,#202),.PCURVE_S1.);
#165 = B_SPLINE_CURVE_WITH_KNOTS('',8,(#166,#167,#168,#169,#170,#171,
    #172,#173,#174,#175,#176,#177,#178,#179,#180,#181),.UNSPECIFIED.,.F.
  ,.F.,(9,7,9),(0.,0.691271853132,1.),.UNSPECIFIED.);
#166 = CARTESIAN_POINT('',(29.,-26.35965710316,-120.));
#167 = CARTESIAN_POINT('',(29.,-27.30058153102,-111.3987786791));
#168 = CARTESIAN_POINT('',(29.,-28.06059320211,-102.7787881267));
#169 = CARTESIAN_POINT('',(29.,-28.66992915876,-94.14614058401));
#170 = CARTESIAN_POINT('',(29.,-29.15374481832,-85.50556409219));
#171 = CARTESIAN_POINT('',(29.,-29.53317350095,-76.86046269615));
#172 = CARTESIAN_POINT('',(29.,-29.82588026077,-68.212947086));
#173 = CARTESIAN_POINT('',(29.,-30.04646504301,-59.56385786495));
#174 = CARTESIAN_POINT('',(29.,-30.27824225681,-47.04912978277));
#175 = CARTESIAN_POINT('',(29.,-30.33775529647,-43.18526232418));
#176 = CARTESIAN_POINT('',(29.,-30.38627192317,-39.32123270421));
#177 = CARTESIAN_POINT('',(29.,-30.42472808354,-35.457088396));
#178 = CARTESIAN_POINT('',(29.,-30.45395155938,-31.59286788959));
#179 = CARTESIAN_POINT('',(29.,-30.47466455333,-27.72860072361));
#180 = CARTESIAN_POINT('',(29.,-30.48748627447,-23.86430751687));
#181 = CARTESIAN_POINT('',(29.,-30.492935524,-20.));
#182 = PCURVE('',#34,#183);
#183 = DEFINITIONAL_REPRESENTATION('',(#184),#201);
#184 = B_SPLINE_CURVE_WITH_KNOTS('',8,(#185,#186,#187,#188,#189,#190,
    #191,#192,#193,#194,#195,#196,#197,#198,#199,#200),.UNSPECIFIED.,.F.
  ,.F.,(9,7,9),(0.,0.691271853132,1.),.UNSPECIFIED.);
#185 = CARTESIAN_POINT('',(0.932455210801,0.146819713654));
#186 = CARTESIAN_POINT('',(0.917018451885,0.172722569945));
#187 = CARTESIAN_POINT('',(0.905808777927,0.198474768887));
#188 = CARTESIAN_POINT('',(0.897306510652,0.224102172612));
#189 = CARTESIAN_POINT('',(0.890841245023,0.24962814325));
#190 = CARTESIAN_POINT('',(0.885897335962,0.275074802762));
#191 = CARTESIAN_POINT('',(0.882161131385,0.300463726529));
#192 = CARTESIAN_POINT('',(0.879380747179,0.325816480378));
#193 = CARTESIAN_POINT('',(0.876485101203,0.362471377018));
#194 = CARTESIAN_POINT('',(0.875746405976,0.37378441017));
#195 = CARTESIAN_POINT('',(0.875147093871,0.38509575554));
#196 = CARTESIAN_POINT('',(0.87467363408,0.39640698665));
#197 = CARTESIAN_POINT('',(0.874314607959,0.407719576829));
#198 = CARTESIAN_POINT('',(0.87406046295,0.419034902866));
#199 = CARTESIAN_POINT('',(0.873903266491,0.430354248671));
#200 = CARTESIAN_POINT('',(0.87383645993,0.44167880893));
#201 = ( GEOMETRIC_REPRESENTATION_CONTEXT(2) 
PARAMETRIC_REPRESENTATION_CONTEXT() REPRESENTATION_CONTEXT('2D SPACE',''
  ) );
#202 = PCURVE('',#203,#208);
#203 = PLANE('',#204);
#204 = AXIS2_PLACEMENT_3D('',#205,#206,#207);
#205 = CARTESIAN_POINT('',(29.,-142.,-120.));
#206 = DIRECTION('',(1.,0.,0.));
#207 = DIRECTION('',(0.,0.,1.));
#208 = DEFINITIONAL_REPRESENTATION('',(#209),#226);
#209 = B_SPLINE_CURVE_WITH_KNOTS('',8,(#210,#211,#212,#213,#214,#215,
    #216,#217,#218,#219,#220,#221,#222,#223,#224,#225),.UNSPECIFIED.,.F.
  ,.F.,(9,7,9),(0.,0.691271853132,1.),.UNSPECIFIED.);
#210 = CARTESIAN_POINT('',(0.,-115.6403428968));
#211 = CARTESIAN_POINT('',(8.601221320883,-114.6994184689));
#212 = CARTESIAN_POINT('',(17.221211873225,-113.9394067978));
#213 = CARTESIAN_POINT('',(25.853859415983,-113.3300708412));
#214 = CARTESIAN_POINT('',(34.494435907808,-112.8462551816));
#215 = CARTESIAN_POINT('',(43.139537303848,-112.466826499));
#216 = CARTESIAN_POINT('',(51.787052914,-112.1741197392));
#217 = CARTESIAN_POINT('',(60.436142135049,-111.9535349569));
#218 = CARTESIAN_POINT('',(72.950870217229,-111.7217577431));
#219 = CARTESIAN_POINT('',(76.814737675815,-111.6622447035));
#220 = CARTESIAN_POINT('',(80.678767295783,-111.6137280768));
#221 = CARTESIAN_POINT('',(84.542911604,-111.5752719164));
#222 = CARTESIAN_POINT('',(88.407132110406,-111.5460484406));
#223 = CARTESIAN_POINT('',(92.271399276385,-111.5253354466));
#224 = CARTESIAN_POINT('',(96.135692483126,-111.5125137255));
#225 = CARTESIAN_POINT('',(100.,-111.5070644759));
#226 = ( GEOMETRIC_REPRESENTATION_CONTEXT(2) 
PARAMETRIC_REPRESENTATION_CONTEXT() REPRESENTATION_CONTEXT('2D SPACE',''
  ) );
#227 = ADVANCED_FACE('',(#228),#54,.T.);
#228 = FACE_BOUND('',#229,.T.);
#229 = EDGE_LOOP('',(#230,#253,#254,#277));
#230 = ORIENTED_EDGE('',*,*,#231,.F.);
#231 = EDGE_CURVE('',#24,#232,#234,.T.);
#232 = VERTEX_POINT('',#233);
#233 = CARTESIAN_POINT('',(-29.,-27.492935524,-20.));
#234 = SURFACE_CURVE('',#235,(#239,#246),.PCURVE_S1.);
#235 = LINE('',#236,#237);
#236 = CARTESIAN_POINT('',(-29.,-142.,-20.));
#237 = VECTOR('',#238,1.);
#238 = DIRECTION('',(0.,1.,0.));
#239 = PCURVE('',#54,#240);
#240 = DEFINITIONAL_REPRESENTATION('',(#241),#245);
#241 = LINE('',#242,#243);
#242 = CARTESIAN_POINT('',(0.,0.));
#243 = VECTOR('',#244,1.);
#244 = DIRECTION('',(0.,1.));
#245 = ( GEOMETRIC_REPRESENTATION_CONTEXT(2) 
PARAMETRIC_REPRESENTATION_CONTEXT() REPRESENTATION_CONTEXT('2D SPACE',''
  ) );
#246 = PCURVE('',#106,#247);
#247 = DEFINITIONAL_REPRESENTATION('',(#248),#252);
#248 = LINE('',#249,#250);
#249 = CARTESIAN_POINT('',(100.,0.));
#250 = VECTOR('',#251,1.);
#251 = DIRECTION('',(0.,-1.));
#252 = ( GEOMETRIC_REPRESENTATION_CONTEXT(2) 
PARAMETRIC_REPRESENTATION_CONTEXT() REPRESENTATION_CONTEXT('2D SPACE',''
  ) );
#253 = ORIENTED_EDGE('',*,*,#21,.F.);
#254 = ORIENTED_EDGE('',*,*,#255,.T.);
#255 = EDGE_CURVE('',#22,#256,#258,.T.);
#256 = VERTEX_POINT('',#257);
#257 = CARTESIAN_POINT('',(29.,-27.492935524,-20.));
#258 = SURFACE_CURVE('',#259,(#263,#270),.PCURVE_S1.);
#259 = LINE('',#260,#261);
#260 = CARTESIAN_POINT('',(29.,-142.,-20.));
#261 = VECTOR('',#262,1.);
#262 = DIRECTION('',(0.,1.,0.));
#263 = PCURVE('',#54,#264);
#264 = DEFINITIONAL_REPRESENTATION('',(#265),#269);
#265 = LINE('',#266,#267);
#266 = CARTESIAN_POINT('',(58.,0.));
#267 = VECTOR('',#268,1.);
#268 = DIRECTION('',(0.,1.));
#269 = ( GEOMETRIC_REPRESENTATION_CONTEXT(2) 
PARAMETRIC_REPRESENTATION_CONTEXT() REPRESENTATION_CONTEXT('2D SPACE',''
  ) );
#270 = PCURVE('',#203,#271);
#271 = DEFINITIONAL_REPRESENTATION('',(#272),#276);
#272 = LINE('',#273,#274);
#273 = CARTESIAN_POINT('',(100.,0.));
#274 = VECTOR('',#275,1.);
#275 = DIRECTION('',(0.,-1.));
#276 = ( GEOMETRIC_REPRESENTATION_CONTEXT(2) 
PARAMETRIC_REPRESENTATION_CONTEXT() REPRESENTATION_CONTEXT('2D SPACE',''
  ) );
#277 = ORIENTED_EDGE('',*,*,#278,.T.);
#278 = EDGE_CURVE('',#256,#232,#279,.T.);
#279 = SURFACE_CURVE('',#280,(#286,#295),.PCURVE_S1.);
#280 = B_SPLINE_CURVE_WITH_KNOTS('',4,(#281,#282,#283,#284,#285),
  .UNSPECIFIED.,.F.,.F.,(5,5),(0.,1.),.PIECEWISE_BEZIER_KNOTS.);
#281 = CARTESIAN_POINT('',(29.,-27.492935524,-20.));
#282 = CARTESIAN_POINT('',(14.5,-27.492935524,-20.));
#283 = CARTESIAN_POINT('',(-4.654054919229E-13,-27.492935524,-20.));
#284 = CARTESIAN_POINT('',(-14.5,-27.492935524,-20.));
#285 = CARTESIAN_POINT('',(-29.,-27.492935524,-20.));
#286 = PCURVE('',#54,#287);
#287 = DEFINITIONAL_REPRESENTATION('',(#288),#294);
#288 = B_SPLINE_CURVE_WITH_KNOTS('',4,(#289,#290,#291,#292,#293),
  .UNSPECIFIED.,.F.,.F.,(5,5),(0.,1.),.PIECEWISE_BEZIER_KNOTS.);
#289 = CARTESIAN_POINT('',(58.,114.50706447599));
#290 = CARTESIAN_POINT('',(43.5,114.50706447599));
#291 = CARTESIAN_POINT('',(29.,114.50706447599));
#292 = CARTESIAN_POINT('',(14.5,114.50706447599));
#293 = CARTESIAN_POINT('',(0.,114.50706447599));
#294 = ( GEOMETRIC_REPRESENTATION_CONTEXT(2) 
PARAMETRIC_REPRESENTATION_CONTEXT() REPRESENTATION_CONTEXT('2D SPACE',''
  ) );
#295 = PCURVE('',#296,#307);
#296 = ( BOUNDED_SURFACE() B_SPLINE_SURFACE(1,4,(
    (#297,#298,#299,#300,#301)
    ,(#302,#303,#304,#305,#306
)),.UNSPECIFIED.,.F.,.F.,.F.) B_SPLINE_SURFACE_WITH_KNOTS((2,2),(5,5),(
    0.,1.),(0.,1.),.PIECEWISE_BEZIER_KNOTS.) 
GEOMETRIC_REPRESENTATION_ITEM() RATIONAL_B_SPLINE_SURFACE((
    (1.,1.,1.,1.,1.)
,(1.,1.,1.,1.,1.))) REPRESENTATION_ITEM('') SURFACE() );
#297 = CARTESIAN_POINT('',(-20.736,-15.,-167.5));
#298 = CARTESIAN_POINT('',(-46.71544566917,-35.42409250721,
    -89.27249727004));
#299 = CARTESIAN_POINT('',(-30.4874029145,-22.66619725982,3.532654884302
    ));
#300 = CARTESIAN_POINT('',(-42.86260469941,-32.39512948067,
    83.473119878126));
#301 = CARTESIAN_POINT('',(-23.0256,-16.8,167.5));
#302 = CARTESIAN_POINT('',(20.736,-15.,-167.5));
#303 = CARTESIAN_POINT('',(46.715445669179,-35.42409250721,
    -89.27249727004));
#304 = CARTESIAN_POINT('',(30.4874029145,-22.66619725982,3.532654884302)
  );
#305 = CARTESIAN_POINT('',(42.862604699412,-32.39512948067,
    83.473119878126));
#306 = CARTESIAN_POINT('',(23.0256,-16.8,167.5));
#307 = DEFINITIONAL_REPRESENTATION('',(#308),#314);
#308 = B_SPLINE_CURVE_WITH_KNOTS('',4,(#309,#310,#311,#312,#313),
  .UNSPECIFIED.,.F.,.F.,(5,5),(0.,1.),.PIECEWISE_BEZIER_KNOTS.);
#309 = CARTESIAN_POINT('',(0.895882667512,0.44167880893));
#310 = CARTESIAN_POINT('',(0.697941333756,0.44167880893));
#311 = CARTESIAN_POINT('',(0.5,0.44167880893));
#312 = CARTESIAN_POINT('',(0.302058666244,0.44167880893));
#313 = CARTESIAN_POINT('',(0.104117332488,0.44167880893));
#314 = ( GEOMETRIC_REPRESENTATION_CONTEXT(2) 
PARAMETRIC_REPRESENTATION_CONTEXT() REPRESENTATION_CONTEXT('2D SPACE',''
  ) );
#315 = ADVANCED_FACE('',(#316),#203,.T.);
#316 = FACE_BOUND('',#317,.T.);
#317 = EDGE_LOOP('',(#318,#319,#320,#343));
#318 = ORIENTED_EDGE('',*,*,#255,.F.);
#319 = ORIENTED_EDGE('',*,*,#163,.F.);
#320 = ORIENTED_EDGE('',*,*,#321,.T.);
#321 = EDGE_CURVE('',#130,#322,#324,.T.);
#322 = VERTEX_POINT('',#323);
#323 = CARTESIAN_POINT('',(29.,-23.35965710316,-120.));
#324 = SURFACE_CURVE('',#325,(#329,#336),.PCURVE_S1.);
#325 = LINE('',#326,#327);
#326 = CARTESIAN_POINT('',(29.,-142.,-120.));
#327 = VECTOR('',#328,1.);
#328 = DIRECTION('',(0.,1.,0.));
#329 = PCURVE('',#203,#330);
#330 = DEFINITIONAL_REPRESENTATION('',(#331),#335);
#331 = LINE('',#332,#333);
#332 = CARTESIAN_POINT('',(0.,0.));
#333 = VECTOR('',#334,1.);
#334 = DIRECTION('',(0.,-1.));
#335 = ( GEOMETRIC_REPRESENTATION_CONTEXT(2) 
PARAMETRIC_REPRESENTATION_CONTEXT() REPRESENTATION_CONTEXT('2D SPACE',''
  ) );
#336 = PCURVE('',#149,#337);
#337 = DEFINITIONAL_REPRESENTATION('',(#338),#342);
#338 = LINE('',#339,#340);
#339 = CARTESIAN_POINT('',(58.,0.));
#340 = VECTOR('',#341,1.);
#341 = DIRECTION('',(0.,1.));
#342 = ( GEOMETRIC_REPRESENTATION_CONTEXT(2) 
PARAMETRIC_REPRESENTATION_CONTEXT() REPRESENTATION_CONTEXT('2D SPACE',''
  ) );
#343 = ORIENTED_EDGE('',*,*,#344,.T.);
#344 = EDGE_CURVE('',#322,#256,#345,.T.);
#345 = SURFACE_CURVE('',#346,(#363,#383),.PCURVE_S1.);
#346 = B_SPLINE_CURVE_WITH_KNOTS('',8,(#347,#348,#349,#350,#351,#352,
    #353,#354,#355,#356,#357,#358,#359,#360,#361,#362),.UNSPECIFIED.,.F.
  ,.F.,(9,7,9),(0.,0.691708999886,1.),.UNSPECIFIED.);
#347 = CARTESIAN_POINT('',(29.,-23.35965710316,-120.));
#348 = CARTESIAN_POINT('',(29.,-24.30117624444,-111.3933422577));
#349 = CARTESIAN_POINT('',(29.,-25.06155394099,-102.7678908477));
#350 = CARTESIAN_POINT('',(29.,-25.67108459552,-94.12976921563));
#351 = CARTESIAN_POINT('',(29.,-26.15496807968,-85.48371331996));
#352 = CARTESIAN_POINT('',(29.,-26.53437264296,-76.83313230749));
#353 = CARTESIAN_POINT('',(29.,-26.82699025779,-68.18013916686));
#354 = CARTESIAN_POINT('',(29.,-27.04744080589,-59.52557413138));
#355 = CARTESIAN_POINT('',(29.,-27.27883159628,-47.01083684081));
#356 = CARTESIAN_POINT('',(29.,-27.33816713003,-43.15243843882));
#357 = CARTESIAN_POINT('',(29.,-27.38654396913,-39.293878674));
#358 = CARTESIAN_POINT('',(29.,-27.42489347919,-35.43520475445));
#359 = CARTESIAN_POINT('',(29.,-27.45403948644,-31.57645496401));
#360 = CARTESIAN_POINT('',(29.,-27.47470084257,-27.7176586936));
#361 = CARTESIAN_POINT('',(29.,-27.48749398946,-23.85883647256));
#362 = CARTESIAN_POINT('',(29.,-27.492935524,-20.));
#363 = PCURVE('',#203,#364);
#364 = DEFINITIONAL_REPRESENTATION('',(#365),#382);
#365 = B_SPLINE_CURVE_WITH_KNOTS('',8,(#366,#367,#368,#369,#370,#371,
    #372,#373,#374,#375,#376,#377,#378,#379,#380,#381),.UNSPECIFIED.,.F.
  ,.F.,(9,7,9),(0.,0.691708999886,1.),.UNSPECIFIED.);
#366 = CARTESIAN_POINT('',(0.,-118.6403428968));
#367 = CARTESIAN_POINT('',(8.606657742299,-117.6988237555));
#368 = CARTESIAN_POINT('',(17.23210915222,-116.938446059));
#369 = CARTESIAN_POINT('',(25.870230784361,-116.3289154044));
#370 = CARTESIAN_POINT('',(34.516286680033,-115.8450319203));
#371 = CARTESIAN_POINT('',(43.16686769251,-115.465627357));
#372 = CARTESIAN_POINT('',(51.819860833136,-115.1730097422));
#373 = CARTESIAN_POINT('',(60.474425868612,-114.9525591941));
#374 = CARTESIAN_POINT('',(72.989163159185,-114.7211684037));
#375 = CARTESIAN_POINT('',(76.847561561177,-114.6618328699));
#376 = CARTESIAN_POINT('',(80.706121325996,-114.6134560308));
#377 = CARTESIAN_POINT('',(84.564795245546,-114.5751065208));
#378 = CARTESIAN_POINT('',(88.423545035988,-114.5459605135));
#379 = CARTESIAN_POINT('',(92.282341306399,-114.5252991574));
#380 = CARTESIAN_POINT('',(96.141163527437,-114.5125060105));
#381 = CARTESIAN_POINT('',(100.,-114.5070644759));
#382 = ( GEOMETRIC_REPRESENTATION_CONTEXT(2) 
PARAMETRIC_REPRESENTATION_CONTEXT() REPRESENTATION_CONTEXT('2D SPACE',''
  ) );
#383 = PCURVE('',#296,#384);
#384 = DEFINITIONAL_REPRESENTATION('',(#385),#402);
#385 = B_SPLINE_CURVE_WITH_KNOTS('',8,(#386,#387,#388,#389,#390,#391,
    #392,#393,#394,#395,#396,#397,#398,#399,#400,#401),.UNSPECIFIED.,.F.
  ,.F.,(9,7,9),(0.,0.691708999886,1.),.UNSPECIFIED.);
#386 = CARTESIAN_POINT('',(0.962232661403,0.146819713654));
#387 = CARTESIAN_POINT('',(0.944585716821,0.172738941904));
#388 = CARTESIAN_POINT('',(0.931873226393,0.198507324414));
#389 = CARTESIAN_POINT('',(0.922260532311,0.224150773507));
#390 = CARTESIAN_POINT('',(0.914974309262,0.249692694511));
#391 = CARTESIAN_POINT('',(0.909410094695,0.275155248801));
#392 = CARTESIAN_POINT('',(0.90521213357,0.300560049504));
#393 = CARTESIAN_POINT('',(0.902091081009,0.325928699717));
#394 = CARTESIAN_POINT('',(0.898845807288,0.362583494983));
#395 = CARTESIAN_POINT('',(0.898019313373,0.373880496974));
#396 = CARTESIAN_POINT('',(0.897348882324,0.385175827047));
#397 = CARTESIAN_POINT('',(0.896819279485,0.396471051523));
#398 = CARTESIAN_POINT('',(0.896417678278,0.407767637091));
#399 = CARTESIAN_POINT('',(0.896133371047,0.419066954433));
#400 = CARTESIAN_POINT('',(0.895957479893,0.430370281859));
#401 = CARTESIAN_POINT('',(0.895882667512,0.44167880893));
#402 = ( GEOMETRIC_REPRESENTATION_CONTEXT(2) 
PARAMETRIC_REPRESENTATION_CONTEXT() REPRESENTATION_CONTEXT('2D SPACE',''
  ) );
#403 = ADVANCED_FACE('',(#404),#149,.F.);
#404 = FACE_BOUND('',#405,.F.);
#405 = EDGE_LOOP('',(#406,#429,#430,#431));
#406 = ORIENTED_EDGE('',*,*,#407,.F.);
#407 = EDGE_CURVE('',#69,#408,#410,.T.);
#408 = VERTEX_POINT('',#409);
#409 = CARTESIAN_POINT('',(-29.,-23.35965710316,-120.));
#410 = SURFACE_CURVE('',#411,(#415,#422),.PCURVE_S1.);
#411 = LINE('',#412,#413);
#412 = CARTESIAN_POINT('',(-29.,-142.,-120.));
#413 = VECTOR('',#414,1.);
#414 = DIRECTION('',(0.,1.,0.));
#415 = PCURVE('',#149,#416);
#416 = DEFINITIONAL_REPRESENTATION('',(#417),#421);
#417 = LINE('',#418,#419);
#418 = CARTESIAN_POINT('',(0.,0.));
#419 = VECTOR('',#420,1.);
#420 = DIRECTION('',(0.,1.));
#421 = ( GEOMETRIC_REPRESENTATION_CONTEXT(2) 
PARAMETRIC_REPRESENTATION_CONTEXT() REPRESENTATION_CONTEXT('2D SPACE',''
  ) );
#422 = PCURVE('',#106,#423);
#423 = DEFINITIONAL_REPRESENTATION('',(#424),#428);
#424 = LINE('',#425,#426);
#425 = CARTESIAN_POINT('',(0.,0.));
#426 = VECTOR('',#427,1.);
#427 = DIRECTION('',(0.,-1.));
#428 = ( GEOMETRIC_REPRESENTATION_CONTEXT(2) 
PARAMETRIC_REPRESENTATION_CONTEXT() REPRESENTATION_CONTEXT('2D SPACE',''
  ) );
#429 = ORIENTED_EDGE('',*,*,#129,.F.);
#430 = ORIENTED_EDGE('',*,*,#321,.T.);
#431 = ORIENTED_EDGE('',*,*,#432,.T.);
#432 = EDGE_CURVE('',#322,#408,#433,.T.);
#433 = SURFACE_CURVE('',#434,(#440,#449),.PCURVE_S1.);
#434 = B_SPLINE_CURVE_WITH_KNOTS('',4,(#435,#436,#437,#438,#439),
  .UNSPECIFIED.,.F.,.F.,(5,5),(0.,1.),.PIECEWISE_BEZIER_KNOTS.);
#435 = CARTESIAN_POINT('',(29.,-23.35965710316,-120.));
#436 = CARTESIAN_POINT('',(14.5,-23.35965710316,-120.));
#437 = CARTESIAN_POINT('',(-1.314504061156E-13,-23.35965710316,-120.));
#438 = CARTESIAN_POINT('',(-14.5,-23.35965710316,-120.));
#439 = CARTESIAN_POINT('',(-29.,-23.35965710316,-120.));
#440 = PCURVE('',#149,#441);
#441 = DEFINITIONAL_REPRESENTATION('',(#442),#448);
#442 = B_SPLINE_CURVE_WITH_KNOTS('',4,(#443,#444,#445,#446,#447),
  .UNSPECIFIED.,.F.,.F.,(5,5),(0.,1.),.PIECEWISE_BEZIER_KNOTS.);
#443 = CARTESIAN_POINT('',(58.,118.64034289683));
#444 = CARTESIAN_POINT('',(43.5,118.64034289683));
#445 = CARTESIAN_POINT('',(29.,118.64034289683));
#446 = CARTESIAN_POINT('',(14.5,118.64034289683));
#447 = CARTESIAN_POINT('',(0.,118.64034289683));
#448 = ( GEOMETRIC_REPRESENTATION_CONTEXT(2) 
PARAMETRIC_REPRESENTATION_CONTEXT() REPRESENTATION_CONTEXT('2D SPACE',''
  ) );
#449 = PCURVE('',#296,#450);
#450 = DEFINITIONAL_REPRESENTATION('',(#451),#457);
#451 = B_SPLINE_CURVE_WITH_KNOTS('',4,(#452,#453,#454,#455,#456),
  .UNSPECIFIED.,.F.,.F.,(5,5),(0.,1.),.PIECEWISE_BEZIER_KNOTS.);
#452 = CARTESIAN_POINT('',(0.962232661403,0.146819713654));
#453 = CARTESIAN_POINT('',(0.731116330702,0.146819713654));
#454 = CARTESIAN_POINT('',(0.5,0.146819713654));
#455 = CARTESIAN_POINT('',(0.268883669298,0.146819713654));
#456 = CARTESIAN_POINT('',(3.776733859689E-02,0.146819713654));
#457 = ( GEOMETRIC_REPRESENTATION_CONTEXT(2) 
PARAMETRIC_REPRESENTATION_CONTEXT() REPRESENTATION_CONTEXT('2D SPACE',''
  ) );
#458 = ADVANCED_FACE('',(#459),#106,.F.);
#459 = FACE_BOUND('',#460,.F.);
#460 = EDGE_LOOP('',(#461,#462,#463,#464));
#461 = ORIENTED_EDGE('',*,*,#231,.F.);
#462 = ORIENTED_EDGE('',*,*,#68,.T.);
#463 = ORIENTED_EDGE('',*,*,#407,.T.);
#464 = ORIENTED_EDGE('',*,*,#465,.F.);
#465 = EDGE_CURVE('',#232,#408,#466,.T.);
#466 = SURFACE_CURVE('',#467,(#482,#500),.PCURVE_S1.);
#467 = B_SPLINE_CURVE_WITH_KNOTS('',7,(#468,#469,#470,#471,#472,#473,
    #474,#475,#476,#477,#478,#479,#480,#481),.UNSPECIFIED.,.F.,.F.,(8,6,
    8),(0.,0.678775452962,1.),.UNSPECIFIED.);
#468 = CARTESIAN_POINT('',(-29.,-27.492935524,-20.));
#469 = CARTESIAN_POINT('',(-29.,-27.4792433972,-29.70970189177));
#470 = CARTESIAN_POINT('',(-29.,-27.41803476007,-39.41889051269));
#471 = CARTESIAN_POINT('',(-29.,-27.30050728862,-49.12797111275));
#472 = CARTESIAN_POINT('',(-29.,-27.11309174283,-58.83648033461));
#473 = CARTESIAN_POINT('',(-29.,-26.83730421009,-68.5430798079));
#474 = CARTESIAN_POINT('',(-29.,-26.44929331045,-78.24554492515));
#475 = CARTESIAN_POINT('',(-29.,-25.66690393029,-92.52888477299));
#476 = CARTESIAN_POINT('',(-29.,-25.38355176339,-97.1152482258));
#477 = CARTESIAN_POINT('',(-29.,-25.0649088257,-101.6994350316));
#478 = CARTESIAN_POINT('',(-29.,-24.70737358986,-106.2808715926));
#479 = CARTESIAN_POINT('',(-29.,-24.3069770193,-110.858789287));
#480 = CARTESIAN_POINT('',(-29.,-23.85934594843,-115.4322215233));
#481 = CARTESIAN_POINT('',(-29.,-23.35965710316,-120.));
#482 = PCURVE('',#106,#483);
#483 = DEFINITIONAL_REPRESENTATION('',(#484),#499);
#484 = B_SPLINE_CURVE_WITH_KNOTS('',7,(#485,#486,#487,#488,#489,#490,
    #491,#492,#493,#494,#495,#496,#497,#498),.UNSPECIFIED.,.F.,.F.,(8,6,
    8),(0.,0.678775452962,1.),.UNSPECIFIED.);
#485 = CARTESIAN_POINT('',(100.,-114.5070644759));
#486 = CARTESIAN_POINT('',(90.290298108225,-114.5207566027));
#487 = CARTESIAN_POINT('',(80.581109487306,-114.5819652399));
#488 = CARTESIAN_POINT('',(70.872028887244,-114.6994927113));
#489 = CARTESIAN_POINT('',(61.163519665388,-114.8869082571));
#490 = CARTESIAN_POINT('',(51.456920192092,-115.1626957899));
#491 = CARTESIAN_POINT('',(41.754455074842,-115.5507066895));
#492 = CARTESIAN_POINT('',(27.471115227007,-116.3330960697));
#493 = CARTESIAN_POINT('',(22.884751774197,-116.6164482366));
#494 = CARTESIAN_POINT('',(18.300564968358,-116.9350911742));
#495 = CARTESIAN_POINT('',(13.719128407391,-117.2926264101));
#496 = CARTESIAN_POINT('',(9.141210712942,-117.6930229807));
#497 = CARTESIAN_POINT('',(4.567778476675,-118.1406540515));
#498 = CARTESIAN_POINT('',(0.,-118.6403428968));
#499 = ( GEOMETRIC_REPRESENTATION_CONTEXT(2) 
PARAMETRIC_REPRESENTATION_CONTEXT() REPRESENTATION_CONTEXT('2D SPACE',''
  ) );
#500 = PCURVE('',#296,#501);
#501 = DEFINITIONAL_REPRESENTATION('',(#502),#517);
#502 = B_SPLINE_CURVE_WITH_KNOTS('',7,(#503,#504,#505,#506,#507,#508,
    #509,#510,#511,#512,#513,#514,#515,#516),.UNSPECIFIED.,.F.,.F.,(8,6,
    8),(0.,0.678775452962,1.),.UNSPECIFIED.);
#503 = CARTESIAN_POINT('',(0.104117332488,0.44167880893));
#504 = CARTESIAN_POINT('',(0.103929087684,0.41322400721));
#505 = CARTESIAN_POINT('',(0.103087649902,0.384804044481));
#506 = CARTESIAN_POINT('',(0.101467310158,0.356396847011));
#507 = CARTESIAN_POINT('',(9.887164004942E-02,0.327977434268));
#508 = CARTESIAN_POINT('',(9.498373103933E-02,0.299517657067));
#509 = CARTESIAN_POINT('',(8.9385679034E-02,0.270985530129));
#510 = CARTESIAN_POINT('',(7.734852057779E-02,0.228788374901));
#511 = CARTESIAN_POINT('',(7.290563409015E-02,0.215209403647));
#512 = CARTESIAN_POINT('',(6.779580753814E-02,0.201602346552));
#513 = CARTESIAN_POINT('',(6.190242390645E-02,0.187963463928));
#514 = CARTESIAN_POINT('',(5.508044259555E-02,0.174289117524));
#515 = CARTESIAN_POINT('',(4.713303385912E-02,0.160575726322));
#516 = CARTESIAN_POINT('',(3.776733859689E-02,0.146819713654));
#517 = ( GEOMETRIC_REPRESENTATION_CONTEXT(2) 
PARAMETRIC_REPRESENTATION_CONTEXT() REPRESENTATION_CONTEXT('2D SPACE',''
  ) );
#518 = ADVANCED_FACE('',(#519),#296,.F.);
#519 = FACE_BOUND('',#520,.F.);
#520 = EDGE_LOOP('',(#521,#522,#523,#524));
#521 = ORIENTED_EDGE('',*,*,#278,.T.);
#522 = ORIENTED_EDGE('',*,*,#465,.T.);
#523 = ORIENTED_EDGE('',*,*,#432,.F.);
#524 = ORIENTED_EDGE('',*,*,#344,.T.);
#525 = ( GEOMETRIC_REPRESENTATION_CONTEXT(3) 
GLOBAL_UNCERTAINTY_ASSIGNED_CONTEXT((#529)) GLOBAL_UNIT_ASSIGNED_CONTEXT
((#526,#527,#528)) REPRESENTATION_CONTEXT('Context #1',
  '3D Context with UNIT and UNCERTAINTY') );
#526 = ( LENGTH_UNIT() NAMED_UNIT(*) SI_UNIT(.MILLI.,.METRE.) );
#527 = ( NAMED_UNIT(*) PLANE_ANGLE_UNIT() SI_UNIT($,.RADIAN.) );
#528 = ( NAMED_UNIT(*) SI_UNIT($,.STERADIAN.) SOLID_ANGLE_UNIT() );
#529 = UNCERTAINTY_MEASURE_WITH_UNIT(LENGTH_MEASURE(5.E-06),#526,
  'distance_accuracy_value','confusion accuracy');
#530 = PRODUCT_RELATED_PRODUCT_CATEGORY('part',$,(#7));
ENDSEC;
END-ISO-10303-21;
