ISO-10303-21;
HEADER;
FILE_DESCRIPTION(('Open CASCADE Model'),'2;1');
FILE_NAME('Open CASCADE Shape Model','2026-09-05T05:20:54',('Author'),(
    'Open CASCADE'),'Open CASCADE STEP processor 7.8','Open CASCADE 7.8'
  ,'Unknown');
FILE_SCHEMA(('AUTOMOTIVE_DESIGN { 1 0 10303 214 1 1 1 1 }'));
ENDSEC;
DATA;
#1 = APPLICATION_PROTOCOL_DEFINITION('international standard',
  'automotive_design',2000,#2);
#2 = APPLICATION_CONTEXT(
  'core data for automotive mechanical design processes');
#3 = SHAPE_DEFINITION_REPRESENTATION(#4,#10);
#4 = PRODUCT_DEFINITION_SHAPE('','',#5);
#5 = PRODUCT_DEFINITION('design','',#6,#9);
#6 = PRODUCT_DEFINITION_FORMATION('','',#7);
#7 = PRODUCT('Open CASCADE STEP translator 7.8 57',
  'Open CASCADE STEP translator 7.8 57','',(#8));
#8 = PRODUCT_CONTEXT('',#2,'mechanical');
#9 = PRODUCT_DEFINITION_CONTEXT('part definition',#2,'design');
#10 = ADVANCED_BREP_SHAPE_REPRESENTATION('',(#11,#15),#585);
#11 = AXIS2_PLACEMENT_3D('',#12,#13,#14);
#12 = CARTESIAN_POINT('',(0.,0.,0.));
#13 = DIRECTION('',(0.,0.,1.));
#14 = DIRECTION('',(1.,0.,-0.));
#15 = MANIFOLD_SOLID_BREP('',#16);
#16 = CLOSED_SHELL('',(#17,#257,#345,#445,#500,#578));
#17 = ADVANCED_FACE('',(#18),#34,.T.);
#18 = FACE_BOUND('',#19,.T.);
#19 = EDGE_LOOP('',(#20,#67,#146,#180));
#20 = ORIENTED_EDGE('',*,*,#21,.T.);
#21 = EDGE_CURVE('',#22,#24,#26,.T.);
#22 = VERTEX_POINT('',#23);
#23 = CARTESIAN_POINT('',(22.,-23.02664231373,66.));
#24 = VERTEX_POINT('',#25);
#25 = CARTESIAN_POINT('',(-22.,-23.02664231373,66.));
#26 = SURFACE_CURVE('',#27,(#33,#53),.PCURVE_S1.);
#27 = B_SPLINE_CURVE_WITH_KNOTS('',4,(#28,#29,#30,#31,#32),
  .UNSPECIFIED.,.F.,.F.,(5,5),(0.,1.),.PIECEWISE_BEZIER_KNOTS.);
#28 = CARTESIAN_POINT('',(22.,-23.02664231373,66.));
#29 = CARTESIAN_POINT('',(11.,-23.02664231373,66.));
#30 = CARTESIAN_POINT('',(1.385558334732E-13,-23.02664231373,66.));
#31 = CARTESIAN_POINT('',(-11.,-23.02664231373,66.));
#32 = CARTESIAN_POINT('',(-22.,-23.02664231373,66.));
#33 = PCURVE('',#34,#45);
#34 = ( BOUNDED_SURFACE() B_SPLINE_SURFACE(1,4,(
    (#35,#36,#37,#38,#39)
    ,(#40,#41,#42,#43,#44
)),.UNSPECIFIED.,.F.,.F.,.F.) B_SPLINE_SURFACE_WITH_KNOTS((2,2),(5,5),(
    0.,1.),(0.,1.),.PIECEWISE_BEZIER_KNOTS.) 
GEOMETRIC_REPRESENTATION_ITEM() RATIONAL_B_SPLINE_SURFACE((
    (1.,1.,1.,1.,1.)
,(1.,1.,1.,1.,1.))) REPRESENTATION_ITEM('') SURFACE() );
#35 = CARTESIAN_POINT('',(-18.144,-14.4,-143.));
#36 = CARTESIAN_POINT('',(-38.85171538204,-30.83469474765,
    -75.62153088539));
#37 = CARTESIAN_POINT('',(-25.69207674813,-20.39053710169,2.664624612699
    ));
#38 = CARTESIAN_POINT('',(-35.76055959503,-28.38139650399,
    71.273098758925));
#39 = CARTESIAN_POINT('',(-19.9584,-15.84,143.));
#40 = CARTESIAN_POINT('',(18.144,-14.4,-143.));
#41 = CARTESIAN_POINT('',(38.851715382048,-30.83469474765,
    -75.62153088539));
#42 = CARTESIAN_POINT('',(25.69207674813,-20.39053710169,2.664624612699)
  );
#43 = CARTESIAN_POINT('',(35.760559595033,-28.38139650399,
    71.273098758925));
#44 = CARTESIAN_POINT('',(19.9584,-15.84,143.));
#45 = DEFINITIONAL_REPRESENTATION('',(#46),#52);
#46 = B_SPLINE_CURVE_WITH_KNOTS('',4,(#47,#48,#49,#50,#51),
  .UNSPECIFIED.,.F.,.F.,(5,5),(0.,1.),.PIECEWISE_BEZIER_KNOTS.);
#47 = CARTESIAN_POINT('',(0.879132945707,0.729758608481));
#48 = CARTESIAN_POINT('',(0.689566472854,0.729758608481));
#49 = CARTESIAN_POINT('',(0.5,0.729758608481));
#50 = CARTESIAN_POINT('',(0.310433527146,0.729758608481));
#51 = CARTESIAN_POINT('',(0.120867054293,0.729758608481));
#52 = ( GEOMETRIC_REPRESENTATION_CONTEXT(2) 
PARAMETRIC_REPRESENTATION_CONTEXT() REPRESENTATION_CONTEXT('2D SPACE',''
  ) );
#53 = PCURVE('',#54,#59);
#54 = PLANE('',#55);
#55 = AXIS2_PLACEMENT_3D('',#56,#57,#58);
#56 = CARTESIAN_POINT('',(-22.,-142.,66.));
#57 = DIRECTION('',(0.,0.,1.));
#58 = DIRECTION('',(1.,0.,0.));
#59 = DEFINITIONAL_REPRESENTATION('',(#60),#66);
#60 = B_SPLINE_CURVE_WITH_KNOTS('',4,(#61,#62,#63,#64,#65),
  .UNSPECIFIED.,.F.,.F.,(5,5),(0.,1.),.PIECEWISE_BEZIER_KNOTS.);
#61 = CARTESIAN_POINT('',(44.,118.97335768626));
#62 = CARTESIAN_POINT('',(33.,118.97335768626));
#63 = CARTESIAN_POINT('',(22.,118.97335768626));
#64 = CARTESIAN_POINT('',(11.,118.97335768626));
#65 = CARTESIAN_POINT('',(0.,118.97335768626));
#66 = ( GEOMETRIC_REPRESENTATION_CONTEXT(2) 
PARAMETRIC_REPRESENTATION_CONTEXT() REPRESENTATION_CONTEXT('2D SPACE',''
  ) );
#67 = ORIENTED_EDGE('',*,*,#68,.T.);
#68 = EDGE_CURVE('',#24,#69,#71,.T.);
#69 = VERTEX_POINT('',#70);
#70 = CARTESIAN_POINT('',(-22.,-23.54828835492,-66.));
#71 = SURFACE_CURVE('',#72,(#93,#117),.PCURVE_S1.);
#72 = B_SPLINE_CURVE_WITH_KNOTS('',7,(#73,#74,#75,#76,#77,#78,#79,#80,
    #81,#82,#83,#84,#85,#86,#87,#88,#89,#90,#91,#92),.UNSPECIFIED.,.F.,
  .F.,(8,6,6,8),(0.,0.424898963347,0.958918311782,1.),.UNSPECIFIED.);
#73 = CARTESIAN_POINT('',(-22.,-23.02664231373,66.));
#74 = CARTESIAN_POINT('',(-22.,-23.33749969042,57.99198486242));
#75 = CARTESIAN_POINT('',(-22.,-23.58583838826,49.981701392304));
#76 = CARTESIAN_POINT('',(-22.,-23.78588194727,41.969986774771));
#77 = CARTESIAN_POINT('',(-22.,-23.94832093812,33.9574499271));
#78 = CARTESIAN_POINT('',(-22.,-24.08011802891,25.944466323224));
#79 = CARTESIAN_POINT('',(-22.,-24.18471640258,17.931181923994));
#80 = CARTESIAN_POINT('',(-22.,-24.35940433609,-0.154181368673));
#81 = CARTESIAN_POINT('',(-22.,-24.41372717845,-10.22584495747));
#82 = CARTESIAN_POINT('',(-22.,-24.42510987345,-20.29795685406));
#83 = CARTESIAN_POINT('',(-22.,-24.38499128986,-30.37040285381));
#84 = CARTESIAN_POINT('',(-22.,-24.27651576568,-40.44247069989));
#85 = CARTESIAN_POINT('',(-22.,-24.074507061,-50.51284633146));
#86 = CARTESIAN_POINT('',(-22.,-23.7178071825,-61.354020362));
#87 = CARTESIAN_POINT('',(-22.,-23.69156216544,-62.12842212495));
#88 = CARTESIAN_POINT('',(-22.,-23.66453637387,-62.90279728637));
#89 = CARTESIAN_POINT('',(-22.,-23.63671323013,-63.67714432047));
#90 = CARTESIAN_POINT('',(-22.,-23.60807578625,-64.45146160806));
#91 = CARTESIAN_POINT('',(-22.,-23.57860672402,-65.22574743656));
#92 = CARTESIAN_POINT('',(-22.,-23.54828835492,-66.));
#93 = PCURVE('',#34,#94);
#94 = DEFINITIONAL_REPRESENTATION('',(#95),#116);
#95 = B_SPLINE_CURVE_WITH_KNOTS('',7,(#96,#97,#98,#99,#100,#101,#102,
    #103,#104,#105,#106,#107,#108,#109,#110,#111,#112,#113,#114,#115),
  .UNSPECIFIED.,.F.,.F.,(8,6,6,8),(0.,0.424898963347,0.958918311782,1.),
  .UNSPECIFIED.);
#96 = CARTESIAN_POINT('',(0.120867054293,0.729758608481));
#97 = CARTESIAN_POINT('',(0.12598531128,0.701697103084));
#98 = CARTESIAN_POINT('',(0.129913043087,0.673680178875));
#99 = CARTESIAN_POINT('',(0.133009794083,0.64572192823));
#100 = CARTESIAN_POINT('',(0.135482616025,0.61783034343));
#101 = CARTESIAN_POINT('',(0.137465566379,0.590007440876));
#102 = CARTESIAN_POINT('',(0.139025336232,0.562249810912));
#103 = CARTESIAN_POINT('',(0.141616098226,0.499733862594));
#104 = CARTESIAN_POINT('',(0.142408568397,0.465010590016));
#105 = CARTESIAN_POINT('',(0.142570430743,0.43036081821));
#106 = CARTESIAN_POINT('',(0.14198915418,0.395757447485));
#107 = CARTESIAN_POINT('',(0.140401522377,0.361165059406));
#108 = CARTESIAN_POINT('',(0.137439728609,0.326539760223));
#109 = CARTESIAN_POINT('',(0.131915859311,0.289155486936));
#110 = CARTESIAN_POINT('',(0.131508439244,0.28648447306));
#111 = CARTESIAN_POINT('',(0.131087829566,0.283812924957));
#112 = CARTESIAN_POINT('',(0.130653652269,0.281140819077));
#113 = CARTESIAN_POINT('',(0.130205512206,0.278468131699));
#114 = CARTESIAN_POINT('',(0.129742997082,0.275794838928));
#115 = CARTESIAN_POINT('',(0.129265677463,0.273120916699));
#116 = ( GEOMETRIC_REPRESENTATION_CONTEXT(2) 
PARAMETRIC_REPRESENTATION_CONTEXT() REPRESENTATION_CONTEXT('2D SPACE',''
  ) );
#117 = PCURVE('',#118,#123);
#118 = PLANE('',#119);
#119 = AXIS2_PLACEMENT_3D('',#120,#121,#122);
#120 = CARTESIAN_POINT('',(-22.,-142.,-66.));
#121 = DIRECTION('',(1.,0.,0.));
#122 = DIRECTION('',(0.,0.,1.));
#123 = DEFINITIONAL_REPRESENTATION('',(#124),#145);
#124 = B_SPLINE_CURVE_WITH_KNOTS('',7,(#125,#126,#127,#128,#129,#130,
    #131,#132,#133,#134,#135,#136,#137,#138,#139,#140,#141,#142,#143,
    #144),.UNSPECIFIED.,.F.,.F.,(8,6,6,8),(0.,0.424898963347,
    0.958918311782,1.),.UNSPECIFIED.);
#125 = CARTESIAN_POINT('',(132.,-118.9733576862));
#126 = CARTESIAN_POINT('',(123.99198486242,-118.6625003095));
#127 = CARTESIAN_POINT('',(115.9817013923,-118.4141616117));
#128 = CARTESIAN_POINT('',(107.96998677477,-118.2141180527));
#129 = CARTESIAN_POINT('',(99.9574499271,-118.0516790618));
#130 = CARTESIAN_POINT('',(91.944466323224,-117.919881971));
#131 = CARTESIAN_POINT('',(83.931181923994,-117.8152835974));
#132 = CARTESIAN_POINT('',(65.845818631327,-117.6405956639));
#133 = CARTESIAN_POINT('',(55.774155042527,-117.5862728215));
#134 = CARTESIAN_POINT('',(45.702043145932,-117.5748901265));
#135 = CARTESIAN_POINT('',(35.62959714619,-117.6150087101));
#136 = CARTESIAN_POINT('',(25.557529300109,-117.7234842343));
#137 = CARTESIAN_POINT('',(15.487153668532,-117.9254929389));
#138 = CARTESIAN_POINT('',(4.645979637995,-118.2821928174));
#139 = CARTESIAN_POINT('',(3.871577875047,-118.3084378345));
#140 = CARTESIAN_POINT('',(3.097202713623,-118.3354636261));
#141 = CARTESIAN_POINT('',(2.322855679522,-118.3632867698));
#142 = CARTESIAN_POINT('',(1.548538391934,-118.3919242137));
#143 = CARTESIAN_POINT('',(0.774252563437,-118.4213932759));
#144 = CARTESIAN_POINT('',(0.,-118.451711645));
#145 = ( GEOMETRIC_REPRESENTATION_CONTEXT(2) 
PARAMETRIC_REPRESENTATION_CONTEXT() REPRESENTATION_CONTEXT('2D SPACE',''
  ) );
#146 = ORIENTED_EDGE('',*,*,#147,.F.);
#147 = EDGE_CURVE('',#148,#69,#150,.T.);
#148 = VERTEX_POINT('',#149);
#149 = CARTESIAN_POINT('',(22.,-23.54828835492,-66.));
#150 = SURFACE_CURVE('',#151,(#157,#166),.PCURVE_S1.);
#151 = B_SPLINE_CURVE_WITH_KNOTS('',4,(#152,#153,#154,#155,#156),
  .UNSPECIFIED.,.F.,.F.,(5,5),(0.,1.),.PIECEWISE_BEZIER_KNOTS.);
#152 = CARTESIAN_POINT('',(22.,-23.54828835492,-66.));
#153 = CARTESIAN_POINT('',(11.,-23.54828835492,-66.));
#154 = CARTESIAN_POINT('',(-2.025046796916E-13,-23.54828835492,-66.));
#155 = CARTESIAN_POINT('',(-11.,-23.54828835492,-66.));
#156 = CARTESIAN_POINT('',(-22.,-23.54828835492,-66.));
#157 = PCURVE('',#34,#158);
#158 = DEFINITIONAL_REPRESENTATION('',(#159),#165);
#159 = B_SPLINE_CURVE_WITH_KNOTS('',4,(#160,#161,#162,#163,#164),
  .UNSPECIFIED.,.F.,.F.,(5,5),(0.,1.),.PIECEWISE_BEZIER_KNOTS.);
#160 = CARTESIAN_POINT('',(0.870734322537,0.273120916699));
#161 = CARTESIAN_POINT('',(0.685367161268,0.273120916699));
#162 = CARTESIAN_POINT('',(0.5,0.273120916699));
#163 = CARTESIAN_POINT('',(0.314632838732,0.273120916699));
#164 = CARTESIAN_POINT('',(0.129265677463,0.273120916699));
#165 = ( GEOMETRIC_REPRESENTATION_CONTEXT(2) 
PARAMETRIC_REPRESENTATION_CONTEXT() REPRESENTATION_CONTEXT('2D SPACE',''
  ) );
#166 = PCURVE('',#167,#172);
#167 = PLANE('',#168);
#168 = AXIS2_PLACEMENT_3D('',#169,#170,#171);
#169 = CARTESIAN_POINT('',(-22.,-142.,-66.));
#170 = DIRECTION('',(0.,0.,1.));
#171 = DIRECTION('',(1.,0.,0.));
#172 = DEFINITIONAL_REPRESENTATION('',(#173),#179);
#173 = B_SPLINE_CURVE_WITH_KNOTS('',4,(#174,#175,#176,#177,#178),
  .UNSPECIFIED.,.F.,.F.,(5,5),(0.,1.),.PIECEWISE_BEZIER_KNOTS.);
#174 = CARTESIAN_POINT('',(44.,118.45171164508));
#175 = CARTESIAN_POINT('',(33.,118.45171164508));
#176 = CARTESIAN_POINT('',(22.,118.45171164508));
#177 = CARTESIAN_POINT('',(11.,118.45171164508));
#178 = CARTESIAN_POINT('',(0.,118.45171164508));
#179 = ( GEOMETRIC_REPRESENTATION_CONTEXT(2) 
PARAMETRIC_REPRESENTATION_CONTEXT() REPRESENTATION_CONTEXT('2D SPACE',''
  ) );
#180 = ORIENTED_EDGE('',*,*,#181,.T.);
#181 = EDGE_CURVE('',#148,#22,#182,.T.);
#182 = SURFACE_CURVE('',#183,(#204,#228),.PCURVE_S1.);
#183 = B_SPLINE_CURVE_WITH_KNOTS('',7,(#184,#185,#186,#187,#188,#189,
    #190,#191,#192,#193,#194,#195,#196,#197,#198,#199,#200,#201,#202,
    #203),.UNSPECIFIED.,.F.,.F.,(8,6,6,8),(0.,0.449281631715,
    0.574394573995,1.),.UNSPECIFIED.);
#184 = CARTESIAN_POINT('',(22.,-23.54828835492,-66.));
#185 = CARTESIAN_POINT('',(22.,-23.87985757828,-57.53258144273));
#186 = CARTESIAN_POINT('',(22.,-24.10983434861,-49.06154022957));
#187 = CARTESIAN_POINT('',(22.,-24.26140418545,-40.58855952549));
#188 = CARTESIAN_POINT('',(22.,-24.35225190885,-32.11481670409));
#189 = CARTESIAN_POINT('',(22.,-24.39560654365,-23.64099916712));
#190 = CARTESIAN_POINT('',(22.,-24.40046159435,-15.16730827654));
#191 = CARTESIAN_POINT('',(22.,-24.3635289797,-4.333720931023));
#192 = CARTESIAN_POINT('',(22.,-24.35286773926,-1.973989799204));
#193 = CARTESIAN_POINT('',(22.,-24.33969273675,0.385729393007));
#194 = CARTESIAN_POINT('',(22.,-24.32408132404,2.745433883361));
#195 = CARTESIAN_POINT('',(22.,-24.30608528032,5.105120981677));
#196 = CARTESIAN_POINT('',(22.,-24.28573081215,7.464788069837));
#197 = CARTESIAN_POINT('',(22.,-24.18575667824,17.851400059702));
#198 = CARTESIAN_POINT('',(22.,-24.08121068496,25.877984049806));
#199 = CARTESIAN_POINT('',(22.,-23.9493984916,33.904267455581));
#200 = CARTESIAN_POINT('',(22.,-23.78687737402,41.930104211167));
#201 = CARTESIAN_POINT('',(22.,-23.58666237345,49.955117630611));
#202 = CARTESIAN_POINT('',(22.,-23.33801552403,57.978696442624));
#203 = CARTESIAN_POINT('',(22.,-23.02664231373,66.));
#204 = PCURVE('',#34,#205);
#205 = DEFINITIONAL_REPRESENTATION('',(#206),#227);
#206 = B_SPLINE_CURVE_WITH_KNOTS('',7,(#207,#208,#209,#210,#211,#212,
    #213,#214,#215,#216,#217,#218,#219,#220,#221,#222,#223,#224,#225,
    #226),.UNSPECIFIED.,.F.,.F.,(8,6,6,8),(0.,0.449281631715,
    0.574394573995,1.),.UNSPECIFIED.);
#207 = CARTESIAN_POINT('',(0.870734322537,0.273120916699));
#208 = CARTESIAN_POINT('',(0.865514236493,0.30236359508));
#209 = CARTESIAN_POINT('',(0.862064884312,0.331529760077));
#210 = CARTESIAN_POINT('',(0.859823468671,0.360653258655));
#211 = CARTESIAN_POINT('',(0.858493871911,0.389762377963));
#212 = CARTESIAN_POINT('',(0.857858511864,0.418881355461));
#213 = CARTESIAN_POINT('',(0.857786119362,0.448030753105));
#214 = CARTESIAN_POINT('',(0.858328950878,0.485357973519));
#215 = CARTESIAN_POINT('',(0.858485739629,0.493492075283));
#216 = CARTESIAN_POINT('',(0.858679674254,0.501630107319));
#217 = CARTESIAN_POINT('',(0.858909767196,0.509772371533));
#218 = CARTESIAN_POINT('',(0.859175448251,0.517919137513));
#219 = CARTESIAN_POINT('',(0.859476564565,0.526070642521));
#220 = CARTESIAN_POINT('',(0.860959151368,0.561973453133));
#221 = CARTESIAN_POINT('',(0.862517996626,0.589776601227));
#222 = CARTESIAN_POINT('',(0.864500978698,0.617645216755));
#223 = CARTESIAN_POINT('',(0.86697479875,0.645582751723));
#224 = CARTESIAN_POINT('',(0.870073924765,0.673587199138));
#225 = CARTESIAN_POINT('',(0.874006195536,0.701650538104));
#226 = CARTESIAN_POINT('',(0.879132945707,0.729758608481));
#227 = ( GEOMETRIC_REPRESENTATION_CONTEXT(2) 
PARAMETRIC_REPRESENTATION_CONTEXT() REPRESENTATION_CONTEXT('2D SPACE',''
  ) );
#228 = PCURVE('',#229,#234);
#229 = PLANE('',#230);
#230 = AXIS2_PLACEMENT_3D('',#231,#232,#233);
#231 = CARTESIAN_POINT('',(22.,-142.,-66.));
#232 = DIRECTION('',(1.,0.,0.));
#233 = DIRECTION('',(0.,0.,1.));
#234 = DEFINITIONAL_REPRESENTATION('',(#235),#256);
#235 = B_SPLINE_CURVE_WITH_KNOTS('',7,(#236,#237,#238,#239,#240,#241,
    #242,#243,#244,#245,#246,#247,#248,#249,#250,#251,#252,#253,#254,
    #255),.UNSPECIFIED.,.F.,.F.,(8,6,6,8),(0.,0.449281631715,
    0.574394573995,1.),.UNSPECIFIED.);
#236 = CARTESIAN_POINT('',(0.,-118.451711645));
#237 = CARTESIAN_POINT('',(8.46741855727,-118.1201424217));
#238 = CARTESIAN_POINT('',(16.938459770426,-117.8901656513));
#239 = CARTESIAN_POINT('',(25.411440474504,-117.7385958145));
#240 = CARTESIAN_POINT('',(33.885183295903,-117.6477480911));
#241 = CARTESIAN_POINT('',(42.359000832874,-117.6043934563));
#242 = CARTESIAN_POINT('',(50.832691723457,-117.5995384056));
#243 = CARTESIAN_POINT('',(61.666279068977,-117.6364710202));
#244 = CARTESIAN_POINT('',(64.026010200796,-117.6471322607));
#245 = CARTESIAN_POINT('',(66.385729393007,-117.6603072632));
#246 = CARTESIAN_POINT('',(68.745433883361,-117.6759186759));
#247 = CARTESIAN_POINT('',(71.105120981677,-117.6939147196));
#248 = CARTESIAN_POINT('',(73.464788069837,-117.7142691878));
#249 = CARTESIAN_POINT('',(83.851400059702,-117.8142433217));
#250 = CARTESIAN_POINT('',(91.877984049806,-117.918789315));
#251 = CARTESIAN_POINT('',(99.904267455581,-118.0506015083));
#252 = CARTESIAN_POINT('',(107.93010421116,-118.2131226259));
#253 = CARTESIAN_POINT('',(115.95511763061,-118.4133376265));
#254 = CARTESIAN_POINT('',(123.97869644262,-118.6619844759));
#255 = CARTESIAN_POINT('',(132.,-118.9733576862));
#256 = ( GEOMETRIC_REPRESENTATION_CONTEXT(2) 
PARAMETRIC_REPRESENTATION_CONTEXT() REPRESENTATION_CONTEXT('2D SPACE',''
  ) );
#257 = ADVANCED_FACE('',(#258),#54,.T.);
#258 = FACE_BOUND('',#259,.T.);
#259 = EDGE_LOOP('',(#260,#283,#284,#307));
#260 = ORIENTED_EDGE('',*,*,#261,.F.);
#261 = EDGE_CURVE('',#24,#262,#264,.T.);
#262 = VERTEX_POINT('',#263);
#263 = CARTESIAN_POINT('',(-22.,-20.02664231373,66.));
#264 = SURFACE_CURVE('',#265,(#269,#276),.PCURVE_S1.);
#265 = LINE('',#266,#267);
#266 = CARTESIAN_POINT('',(-22.,-142.,66.));
#267 = VECTOR('',#268,1.);
#268 = DIRECTION('',(0.,1.,0.));
#269 = PCURVE('',#54,#270);
#270 = DEFINITIONAL_REPRESENTATION('',(#271),#275);
#271 = LINE('',#272,#273);
#272 = CARTESIAN_POINT('',(0.,0.));
#273 = VECTOR('',#274,1.);
#274 = DIRECTION('',(0.,1.));
#275 = ( GEOMETRIC_REPRESENTATION_CONTEXT(2) 
PARAMETRIC_REPRESENTATION_CONTEXT() REPRESENTATION_CONTEXT('2D SPACE',''
  ) );
#276 = PCURVE('',#118,#277);
#277 = DEFINITIONAL_REPRESENTATION('',(#278),#282);
#278 = LINE('',#279,#280);
#279 = CARTESIAN_POINT('',(132.,0.));
#280 = VECTOR('',#281,1.);
#281 = DIRECTION('',(0.,-1.));
#282 = ( GEOMETRIC_REPRESENTATION_CONTEXT(2) 
PARAMETRIC_REPRESENTATION_CONTEXT() REPRESENTATION_CONTEXT('2D SPACE',''
  ) );
#283 = ORIENTED_EDGE('',*,*,#21,.F.);
#284 = ORIENTED_EDGE('',*,*,#285,.T.);
#285 = EDGE_CURVE('',#22,#286,#288,.T.);
#286 = VERTEX_POINT('',#287);
#287 = CARTESIAN_POINT('',(22.,-20.02664231373,66.));
#288 = SURFACE_CURVE('',#289,(#293,#300),.PCURVE_S1.);
#289 = LINE('',#290,#291);
#290 = CARTESIAN_POINT('',(22.,-142.,66.));
#291 = VECTOR('',#292,1.);
#292 = DIRECTION('',(0.,1.,0.));
#293 = PCURVE('',#54,#294);
#294 = DEFINITIONAL_REPRESENTATION('',(#295),#299);
#295 = LINE('',#296,#297);
#296 = CARTESIAN_POINT('',(44.,0.));
#297 = VECTOR('',#298,1.);
#298 = DIRECTION('',(0.,1.));
#299 = ( GEOMETRIC_REPRESENTATION_CONTEXT(2) 
PARAMETRIC_REPRESENTATION_CONTEXT() REPRESENTATION_CONTEXT('2D SPACE',''
  ) );
#300 = PCURVE('',#229,#301);
#301 = DEFINITIONAL_REPRESENTATION('',(#302),#306);
#302 = LINE('',#303,#304);
#303 = CARTESIAN_POINT('',(132.,0.));
#304 = VECTOR('',#305,1.);
#305 = DIRECTION('',(0.,-1.));
#306 = ( GEOMETRIC_REPRESENTATION_CONTEXT(2) 
PARAMETRIC_REPRESENTATION_CONTEXT() REPRESENTATION_CONTEXT('2D SPACE',''
  ) );
#307 = ORIENTED_EDGE('',*,*,#308,.T.);
#308 = EDGE_CURVE('',#286,#262,#309,.T.);
#309 = SURFACE_CURVE('',#310,(#316,#325),.PCURVE_S1.);
#310 = B_SPLINE_CURVE_WITH_KNOTS('',4,(#311,#312,#313,#314,#315),
  .UNSPECIFIED.,.F.,.F.,(5,5),(0.,1.),.PIECEWISE_BEZIER_KNOTS.);
#311 = CARTESIAN_POINT('',(22.,-20.02664231373,66.));
#312 = CARTESIAN_POINT('',(11.,-20.02664231373,66.));
#313 = CARTESIAN_POINT('',(-3.552713678801E-15,-20.02664231373,66.));
#314 = CARTESIAN_POINT('',(-11.,-20.02664231373,66.));
#315 = CARTESIAN_POINT('',(-22.,-20.02664231373,66.));
#316 = PCURVE('',#54,#317);
#317 = DEFINITIONAL_REPRESENTATION('',(#318),#324);
#318 = B_SPLINE_CURVE_WITH_KNOTS('',4,(#319,#320,#321,#322,#323),
  .UNSPECIFIED.,.F.,.F.,(5,5),(0.,1.),.PIECEWISE_BEZIER_KNOTS.);
#319 = CARTESIAN_POINT('',(44.,121.97335768626));
#320 = CARTESIAN_POINT('',(33.,121.97335768626));
#321 = CARTESIAN_POINT('',(22.,121.97335768626));
#322 = CARTESIAN_POINT('',(11.,121.97335768626));
#323 = CARTESIAN_POINT('',(0.,121.97335768626));
#324 = ( GEOMETRIC_REPRESENTATION_CONTEXT(2) 
PARAMETRIC_REPRESENTATION_CONTEXT() REPRESENTATION_CONTEXT('2D SPACE',''
  ) );
#325 = PCURVE('',#326,#337);
#326 = ( BOUNDED_SURFACE() B_SPLINE_SURFACE(1,4,(
    (#327,#328,#329,#330,#331)
    ,(#332,#333,#334,#335,#336
)),.UNSPECIFIED.,.F.,.F.,.F.) B_SPLINE_SURFACE_WITH_KNOTS((2,2),(5,5),(
    0.,1.),(0.,1.),.PIECEWISE_BEZIER_KNOTS.) 
GEOMETRIC_REPRESENTATION_ITEM() RATIONAL_B_SPLINE_SURFACE((
    (1.,1.,1.,1.,1.)
,(1.,1.,1.,1.,1.))) REPRESENTATION_ITEM('') SURFACE() );
#327 = CARTESIAN_POINT('',(-15.984,-11.4,-143.));
#328 = CARTESIAN_POINT('',(-36.69171538204,-27.83469474765,
    -75.62153088539));
#329 = CARTESIAN_POINT('',(-23.53207674813,-17.39053710169,
    2.664624612699));
#330 = CARTESIAN_POINT('',(-33.60055959503,-25.38139650399,
    71.273098758925));
#331 = CARTESIAN_POINT('',(-17.7984,-12.84,143.));
#332 = CARTESIAN_POINT('',(15.984,-11.4,-143.));
#333 = CARTESIAN_POINT('',(36.691715382048,-27.83469474765,
    -75.62153088539));
#334 = CARTESIAN_POINT('',(23.53207674813,-17.39053710169,2.664624612699
    ));
#335 = CARTESIAN_POINT('',(33.600559595033,-25.38139650399,
    71.273098758925));
#336 = CARTESIAN_POINT('',(17.7984,-12.84,143.));
#337 = DEFINITIONAL_REPRESENTATION('',(#338),#344);
#338 = B_SPLINE_CURVE_WITH_KNOTS('',4,(#339,#340,#341,#342,#343),
  .UNSPECIFIED.,.F.,.F.,(5,5),(0.,1.),.PIECEWISE_BEZIER_KNOTS.);
#339 = CARTESIAN_POINT('',(0.909628972255,0.729758608481));
#340 = CARTESIAN_POINT('',(0.704814486127,0.729758608481));
#341 = CARTESIAN_POINT('',(0.5,0.729758608481));
#342 = CARTESIAN_POINT('',(0.295185513873,0.729758608481));
#343 = CARTESIAN_POINT('',(9.037102774526E-02,0.729758608481));
#344 = ( GEOMETRIC_REPRESENTATION_CONTEXT(2) 
PARAMETRIC_REPRESENTATION_CONTEXT() REPRESENTATION_CONTEXT('2D SPACE',''
  ) );
#345 = ADVANCED_FACE('',(#346),#229,.T.);
#346 = FACE_BOUND('',#347,.T.);
#347 = EDGE_LOOP('',(#348,#349,#350,#373));
#348 = ORIENTED_EDGE('',*,*,#285,.F.);
#349 = ORIENTED_EDGE('',*,*,#181,.F.);
#350 = ORIENTED_EDGE('',*,*,#351,.T.);
#351 = EDGE_CURVE('',#148,#352,#354,.T.);
#352 = VERTEX_POINT('',#353);
#353 = CARTESIAN_POINT('',(22.,-20.54828835492,-66.));
#354 = SURFACE_CURVE('',#355,(#359,#366),.PCURVE_S1.);
#355 = LINE('',#356,#357);
#356 = CARTESIAN_POINT('',(22.,-142.,-66.));
#357 = VECTOR('',#358,1.);
#358 = DIRECTION('',(0.,1.,0.));
#359 = PCURVE('',#229,#360);
#360 = DEFINITIONAL_REPRESENTATION('',(#361),#365);
#361 = LINE('',#362,#363);
#362 = CARTESIAN_POINT('',(0.,0.));
#363 = VECTOR('',#364,1.);
#364 = DIRECTION('',(0.,-1.));
#365 = ( GEOMETRIC_REPRESENTATION_CONTEXT(2) 
PARAMETRIC_REPRESENTATION_CONTEXT() REPRESENTATION_CONTEXT('2D SPACE',''
  ) );
#366 = PCURVE('',#167,#367);
#367 = DEFINITIONAL_REPRESENTATION('',(#368),#372);
#368 = LINE('',#369,#370);
#369 = CARTESIAN_POINT('',(44.,0.));
#370 = VECTOR('',#371,1.);
#371 = DIRECTION('',(0.,1.));
#372 = ( GEOMETRIC_REPRESENTATION_CONTEXT(2) 
PARAMETRIC_REPRESENTATION_CONTEXT() REPRESENTATION_CONTEXT('2D SPACE',''
  ) );
#373 = ORIENTED_EDGE('',*,*,#374,.T.);
#374 = EDGE_CURVE('',#352,#286,#375,.T.);
#375 = SURFACE_CURVE('',#376,(#397,#421),.PCURVE_S1.);
#376 = B_SPLINE_CURVE_WITH_KNOTS('',7,(#377,#378,#379,#380,#381,#382,
    #383,#384,#385,#386,#387,#388,#389,#390,#391,#392,#393,#394,#395,
    #396),.UNSPECIFIED.,.F.,.F.,(8,6,6,8),(0.,0.450510144431,
    0.575618865999,1.),.UNSPECIFIED.);
#377 = CARTESIAN_POINT('',(22.,-20.54828835492,-66.));
#378 = CARTESIAN_POINT('',(22.,-20.88076414996,-57.50942995169));
#379 = CARTESIAN_POINT('',(22.,-21.11109118458,-49.01521751664));
#380 = CARTESIAN_POINT('',(22.,-21.26264569211,-40.51905926426));
#381 = CARTESIAN_POINT('',(22.,-21.35324278436,-32.02214082023));
#382 = CARTESIAN_POINT('',(22.,-21.39619569515,-23.5251528235));
#383 = CARTESIAN_POINT('',(22.,-21.40053692604,-15.02829492901));
#384 = CARTESIAN_POINT('',(22.,-21.36281706413,-4.171617271603));
#385 = CARTESIAN_POINT('',(22.,-21.35200729601,-1.811966097604));
#386 = CARTESIAN_POINT('',(22.,-21.3386879552,0.547672999597));
#387 = CARTESIAN_POINT('',(22.,-21.32293538586,2.907297267071));
#388 = CARTESIAN_POINT('',(22.,-21.30480035921,5.266904017443));
#389 = CARTESIAN_POINT('',(22.,-21.28430807361,7.62649062889));
#390 = CARTESIAN_POINT('',(22.,-21.18394897308,17.989928279755));
#391 = CARTESIAN_POINT('',(22.,-21.07931238504,25.993419853545));
#392 = CARTESIAN_POINT('',(22.,-20.94752669621,33.996610456449));
#393 = CARTESIAN_POINT('',(22.,-20.78514845874,41.999354202478));
#394 = CARTESIAN_POINT('',(22.,-20.58523142475,50.001276465274));
#395 = CARTESIAN_POINT('',(22.,-20.33711984873,58.001769986444));
#396 = CARTESIAN_POINT('',(22.,-20.02664231373,66.));
#397 = PCURVE('',#229,#398);
#398 = DEFINITIONAL_REPRESENTATION('',(#399),#420);
#399 = B_SPLINE_CURVE_WITH_KNOTS('',7,(#400,#401,#402,#403,#404,#405,
    #406,#407,#408,#409,#410,#411,#412,#413,#414,#415,#416,#417,#418,
    #419),.UNSPECIFIED.,.F.,.F.,(8,6,6,8),(0.,0.450510144431,
    0.575618865999,1.),.UNSPECIFIED.);
#400 = CARTESIAN_POINT('',(0.,-121.451711645));
#401 = CARTESIAN_POINT('',(8.490570048309,-121.11923585));
#402 = CARTESIAN_POINT('',(16.984782483354,-120.8889088154));
#403 = CARTESIAN_POINT('',(25.480940735739,-120.7373543078));
#404 = CARTESIAN_POINT('',(33.977859179768,-120.6467572156));
#405 = CARTESIAN_POINT('',(42.474847176499,-120.6038043048));
#406 = CARTESIAN_POINT('',(50.971705070988,-120.5994630739));
#407 = CARTESIAN_POINT('',(61.828382728397,-120.6371829358));
#408 = CARTESIAN_POINT('',(64.188033902396,-120.6479927039));
#409 = CARTESIAN_POINT('',(66.547672999597,-120.6613120447));
#410 = CARTESIAN_POINT('',(68.907297267071,-120.6770646141));
#411 = CARTESIAN_POINT('',(71.266904017443,-120.6951996407));
#412 = CARTESIAN_POINT('',(73.62649062889,-120.7156919263));
#413 = CARTESIAN_POINT('',(83.989928279755,-120.8160510269));
#414 = CARTESIAN_POINT('',(91.993419853545,-120.9206876149));
#415 = CARTESIAN_POINT('',(99.996610456449,-121.0524733037));
#416 = CARTESIAN_POINT('',(107.99935420247,-121.2148515412));
#417 = CARTESIAN_POINT('',(116.00127646527,-121.4147685752));
#418 = CARTESIAN_POINT('',(124.00176998644,-121.6628801512));
#419 = CARTESIAN_POINT('',(132.,-121.9733576862));
#420 = ( GEOMETRIC_REPRESENTATION_CONTEXT(2) 
PARAMETRIC_REPRESENTATION_CONTEXT() REPRESENTATION_CONTEXT('2D SPACE',''
  ) );
#421 = PCURVE('',#326,#422);
#422 = DEFINITIONAL_REPRESENTATION('',(#423),#444);
#423 = B_SPLINE_CURVE_WITH_KNOTS('',7,(#424,#425,#426,#427,#428,#429,
    #430,#431,#432,#433,#434,#435,#436,#437,#438,#439,#440,#441,#442,
    #443),.UNSPECIFIED.,.F.,.F.,(8,6,6,8),(0.,0.450510144431,
    0.575618865999,1.),.UNSPECIFIED.);
#424 = CARTESIAN_POINT('',(0.899842341042,0.273120916699));
#425 = CARTESIAN_POINT('',(0.8937537689,0.30244354998));
#426 = CARTESIAN_POINT('',(0.889751894145,0.331689250537));
#427 = CARTESIAN_POINT('',(0.887157614002,0.360892145235));
#428 = CARTESIAN_POINT('',(0.885624318562,0.390080738698));
#429 = CARTESIAN_POINT('',(0.884896076949,0.419279444406));
#430 = CARTESIAN_POINT('',(0.884820913189,0.448508960878));
#431 = CARTESIAN_POINT('',(0.885462414858,0.485916724649));
#432 = CARTESIAN_POINT('',(0.885646374379,0.494050781704));
#433 = CARTESIAN_POINT('',(0.88587326819,0.502188783855));
#434 = CARTESIAN_POINT('',(0.886141985899,0.510331031743));
#435 = CARTESIAN_POINT('',(0.886451903832,0.518477793657));
#436 = CARTESIAN_POINT('',(0.886802885039,0.526629305539));
#437 = CARTESIAN_POINT('',(0.888526319322,0.562453306929));
#438 = CARTESIAN_POINT('',(0.890333814798,0.59017741972));
#439 = CARTESIAN_POINT('',(0.892632258743,0.617966661588));
#440 = CARTESIAN_POINT('',(0.895500155672,0.645824411178));
#441 = CARTESIAN_POINT('',(0.899095501325,0.673748645108));
#442 = CARTESIAN_POINT('',(0.903661514223,0.701731391894));
#443 = CARTESIAN_POINT('',(0.909628972255,0.729758608481));
#444 = ( GEOMETRIC_REPRESENTATION_CONTEXT(2) 
PARAMETRIC_REPRESENTATION_CONTEXT() REPRESENTATION_CONTEXT('2D SPACE',''
  ) );
#445 = ADVANCED_FACE('',(#446),#167,.F.);
#446 = FACE_BOUND('',#447,.F.);
#447 = EDGE_LOOP('',(#448,#471,#472,#473));
#448 = ORIENTED_EDGE('',*,*,#449,.F.);
#449 = EDGE_CURVE('',#69,#450,#452,.T.);
#450 = VERTEX_POINT('',#451);
#451 = CARTESIAN_POINT('',(-22.,-20.54828835492,-66.));
#452 = SURFACE_CURVE('',#453,(#457,#464),.PCURVE_S1.);
#453 = LINE('',#454,#455);
#454 = CARTESIAN_POINT('',(-22.,-142.,-66.));
#455 = VECTOR('',#456,1.);
#456 = DIRECTION('',(0.,1.,0.));
#457 = PCURVE('',#167,#458);
#458 = DEFINITIONAL_REPRESENTATION('',(#459),#463);
#459 = LINE('',#460,#461);
#460 = CARTESIAN_POINT('',(0.,0.));
#461 = VECTOR('',#462,1.);
#462 = DIRECTION('',(0.,1.));
#463 = ( GEOMETRIC_REPRESENTATION_CONTEXT(2) 
PARAMETRIC_REPRESENTATION_CONTEXT() REPRESENTATION_CONTEXT('2D SPACE',''
  ) );
#464 = PCURVE('',#118,#465);
#465 = DEFINITIONAL_REPRESENTATION('',(#466),#470);
#466 = LINE('',#467,#468);
#467 = CARTESIAN_POINT('',(0.,0.));
#468 = VECTOR('',#469,1.);
#469 = DIRECTION('',(0.,-1.));
#470 = ( GEOMETRIC_REPRESENTATION_CONTEXT(2) 
PARAMETRIC_REPRESENTATION_CONTEXT() REPRESENTATION_CONTEXT('2D SPACE',''
  ) );
#471 = ORIENTED_EDGE('',*,*,#147,.F.);
#472 = ORIENTED_EDGE('',*,*,#351,.T.);
#473 = ORIENTED_EDGE('',*,*,#474,.T.);
#474 = EDGE_CURVE('',#352,#450,#475,.T.);
#475 = SURFACE_CURVE('',#476,(#482,#491),.PCURVE_S1.);
#476 = B_SPLINE_CURVE_WITH_KNOTS('',4,(#477,#478,#479,#480,#481),
  .UNSPECIFIED.,.F.,.F.,(5,5),(0.,1.),.PIECEWISE_BEZIER_KNOTS.);
#477 = CARTESIAN_POINT('',(22.,-20.54828835492,-66.));
#478 = CARTESIAN_POINT('',(11.,-20.54828835492,-66.));
#479 = CARTESIAN_POINT('',(7.105427357601E-14,-20.54828835492,-66.));
#480 = CARTESIAN_POINT('',(-11.,-20.54828835492,-66.));
#481 = CARTESIAN_POINT('',(-22.,-20.54828835492,-66.));
#482 = PCURVE('',#167,#483);
#483 = DEFINITIONAL_REPRESENTATION('',(#484),#490);
#484 = B_SPLINE_CURVE_WITH_KNOTS('',4,(#485,#486,#487,#488,#489),
  .UNSPECIFIED.,.F.,.F.,(5,5),(0.,1.),.PIECEWISE_BEZIER_KNOTS.);
#485 = CARTESIAN_POINT('',(44.,121.45171164508));
#486 = CARTESIAN_POINT('',(33.,121.45171164508));
#487 = CARTESIAN_POINT('',(22.,121.45171164508));
#488 = CARTESIAN_POINT('',(11.,121.45171164508));
#489 = CARTESIAN_POINT('',(0.,121.45171164508));
#490 = ( GEOMETRIC_REPRESENTATION_CONTEXT(2) 
PARAMETRIC_REPRESENTATION_CONTEXT() REPRESENTATION_CONTEXT('2D SPACE',''
  ) );
#491 = PCURVE('',#326,#492);
#492 = DEFINITIONAL_REPRESENTATION('',(#493),#499);
#493 = B_SPLINE_CURVE_WITH_KNOTS('',4,(#494,#495,#496,#497,#498),
  .UNSPECIFIED.,.F.,.F.,(5,5),(0.,1.),.PIECEWISE_BEZIER_KNOTS.);
#494 = CARTESIAN_POINT('',(0.899842341042,0.273120916699));
#495 = CARTESIAN_POINT('',(0.699921170521,0.273120916699));
#496 = CARTESIAN_POINT('',(0.5,0.273120916699));
#497 = CARTESIAN_POINT('',(0.300078829479,0.273120916699));
#498 = CARTESIAN_POINT('',(0.100157658958,0.273120916699));
#499 = ( GEOMETRIC_REPRESENTATION_CONTEXT(2) 
PARAMETRIC_REPRESENTATION_CONTEXT() REPRESENTATION_CONTEXT('2D SPACE',''
  ) );
#500 = ADVANCED_FACE('',(#501),#118,.F.);
#501 = FACE_BOUND('',#502,.F.);
#502 = EDGE_LOOP('',(#503,#504,#505,#506));
#503 = ORIENTED_EDGE('',*,*,#261,.F.);
#504 = ORIENTED_EDGE('',*,*,#68,.T.);
#505 = ORIENTED_EDGE('',*,*,#449,.T.);
#506 = ORIENTED_EDGE('',*,*,#507,.F.);
#507 = EDGE_CURVE('',#262,#450,#508,.T.);
#508 = SURFACE_CURVE('',#509,(#530,#554),.PCURVE_S1.);
#509 = B_SPLINE_CURVE_WITH_KNOTS('',7,(#510,#511,#512,#513,#514,#515,
    #516,#517,#518,#519,#520,#521,#522,#523,#524,#525,#526,#527,#528,
    #529),.UNSPECIFIED.,.F.,.F.,(8,6,6,8),(0.,0.42427667878,
    0.958839783427,1.),.UNSPECIFIED.);
#510 = CARTESIAN_POINT('',(-22.,-20.02664231373,66.));
#511 = CARTESIAN_POINT('',(-22.,-20.33704441357,58.003713276216));
#512 = CARTESIAN_POINT('',(-22.,-20.58511085962,50.005164058489));
#513 = CARTESIAN_POINT('',(-22.,-20.78500273523,42.005186604787));
#514 = CARTESIAN_POINT('',(-22.,-20.94736887736,34.004387829646));
#515 = CARTESIAN_POINT('',(-22.,-21.07915227244,26.003142181106));
#516 = CARTESIAN_POINT('',(-22.,-21.18379641343,18.001595531708));
#517 = CARTESIAN_POINT('',(-22.,-21.35900929535,-8.228218309215E-02));
#518 = CARTESIAN_POINT('',(-22.,-21.41364410677,-10.16419910125));
#519 = CARTESIAN_POINT('',(-22.,-21.42529120639,-20.24656622609));
#520 = CARTESIAN_POINT('',(-22.,-21.38539354895,-30.32926960439));
#521 = CARTESIAN_POINT('',(-22.,-21.27706593112,-40.41159612153));
#522 = CARTESIAN_POINT('',(-22.,-21.07507112079,-50.49222976237));
#523 = CARTESIAN_POINT('',(-22.,-20.71810814726,-61.3451386442));
#524 = CARTESIAN_POINT('',(-22.,-20.69182043804,-62.1210209548));
#525 = CARTESIAN_POINT('',(-22.,-20.66474909385,-62.89687657129));
#526 = CARTESIAN_POINT('',(-22.,-20.63687744388,-63.67270395942));
#527 = CARTESIAN_POINT('',(-22.,-20.60818844424,-64.44850149087));
#528 = CARTESIAN_POINT('',(-22.,-20.57866467795,-65.22426744323));
#529 = CARTESIAN_POINT('',(-22.,-20.54828835492,-66.));
#530 = PCURVE('',#118,#531);
#531 = DEFINITIONAL_REPRESENTATION('',(#532),#553);
#532 = B_SPLINE_CURVE_WITH_KNOTS('',7,(#533,#534,#535,#536,#537,#538,
    #539,#540,#541,#542,#543,#544,#545,#546,#547,#548,#549,#550,#551,
    #552),.UNSPECIFIED.,.F.,.F.,(8,6,6,8),(0.,0.42427667878,
    0.958839783427,1.),.UNSPECIFIED.);
#533 = CARTESIAN_POINT('',(132.,-121.9733576862));
#534 = CARTESIAN_POINT('',(124.00371327621,-121.6629555864));
#535 = CARTESIAN_POINT('',(116.00516405848,-121.4148891403));
#536 = CARTESIAN_POINT('',(108.00518660478,-121.2149972647));
#537 = CARTESIAN_POINT('',(100.00438782964,-121.0526311226));
#538 = CARTESIAN_POINT('',(92.003142181106,-120.9208477275));
#539 = CARTESIAN_POINT('',(84.001595531708,-120.8162035865));
#540 = CARTESIAN_POINT('',(65.917717816908,-120.6409907046));
#541 = CARTESIAN_POINT('',(55.835800898749,-120.5863558932));
#542 = CARTESIAN_POINT('',(45.753433773904,-120.5747087936));
#543 = CARTESIAN_POINT('',(35.670730395604,-120.614606451));
#544 = CARTESIAN_POINT('',(25.588403878462,-120.7229340688));
#545 = CARTESIAN_POINT('',(15.507770237622,-120.9249288792));
#546 = CARTESIAN_POINT('',(4.654861355792,-121.2818918527));
#547 = CARTESIAN_POINT('',(3.878979045193,-121.3081795619));
#548 = CARTESIAN_POINT('',(3.103123428704,-121.3352509061));
#549 = CARTESIAN_POINT('',(2.327296040572,-121.3631225561));
#550 = CARTESIAN_POINT('',(1.551498509123,-121.3918115557));
#551 = CARTESIAN_POINT('',(0.775732556768,-121.421335322));
#552 = CARTESIAN_POINT('',(0.,-121.451711645));
#553 = ( GEOMETRIC_REPRESENTATION_CONTEXT(2) 
PARAMETRIC_REPRESENTATION_CONTEXT() REPRESENTATION_CONTEXT('2D SPACE',''
  ) );
#554 = PCURVE('',#326,#555);
#555 = DEFINITIONAL_REPRESENTATION('',(#556),#577);
#556 = B_SPLINE_CURVE_WITH_KNOTS('',7,(#557,#558,#559,#560,#561,#562,
    #563,#564,#565,#566,#567,#568,#569,#570,#571,#572,#573,#574,#575,
    #576),.UNSPECIFIED.,.F.,.F.,(8,6,6,8),(0.,0.42427667878,
    0.958839783427,1.),.UNSPECIFIED.);
#557 = CARTESIAN_POINT('',(9.037102774526E-02,0.729758608481));
#558 = CARTESIAN_POINT('',(9.633703589401E-02,0.701738201526));
#559 = CARTESIAN_POINT('',(0.100902279792,0.673762242464));
#560 = CARTESIAN_POINT('',(0.10449722392,0.645844764469));
#561 = CARTESIAN_POINT('',(0.107364953398,0.617993734844));
#562 = CARTESIAN_POINT('',(0.109663393026,0.590211178312));
#563 = CARTESIAN_POINT('',(0.111471045236,0.562493722374));
#564 = CARTESIAN_POINT('',(0.11447995442,0.49998175881));
#565 = CARTESIAN_POINT('',(0.115401650102,0.465222685017));
#566 = CARTESIAN_POINT('',(0.115592809397,0.430537389247));
#567 = CARTESIAN_POINT('',(0.114924944734,0.395898724667));
#568 = CARTESIAN_POINT('',(0.113090700636,0.361271187779));
#569 = CARTESIAN_POINT('',(0.109665655765,0.326610764364));
#570 = CARTESIAN_POINT('',(0.103244070871,0.289186121119));
#571 = CARTESIAN_POINT('',(0.102769926455,0.286510006632));
#572 = CARTESIAN_POINT('',(0.102280304466,0.283833356063));
#573 = CARTESIAN_POINT('',(0.101774751771,0.281156145728));
#574 = CARTESIAN_POINT('',(0.10125279396,0.278478351772));
#575 = CARTESIAN_POINT('',(0.100713935345,0.275799950163));
#576 = CARTESIAN_POINT('',(0.100157658958,0.273120916699));
#577 = ( GEOMETRIC_REPRESENTATION_CONTEXT(2) 
PARAMETRIC_REPRESENTATION_CONTEXT() REPRESENTATION_CONTEXT('2D SPACE',''
  ) );
#578 = ADVANCED_FACE('',(#579),#326,.F.);
#579 = FACE_BOUND('',#580,.F.);
#580 = EDGE_LOOP('',(#581,#582,#583,#584));
#581 = ORIENTED_EDGE('',*,*,#308,.T.);
#582 = ORIENTED_EDGE('',*,*,#507,.T.);
#583 = ORIENTED_EDGE('',*,*,#474,.F.);
#584 = ORIENTED_EDGE('',*,*,#374,.T.);
#585 = ( GEOMETRIC_REPRESENTATION_CONTEXT(3) 
GLOBAL_UNCERTAINTY_ASSIGNED_CONTEXT((#589)) GLOBAL_UNIT_ASSIGNED_CONTEXT
((#586,#587,#588)) REPRESENTATION_CONTEXT('Context #1',
  '3D Context with UNIT and UNCERTAINTY') );
#586 = ( LENGTH_UNIT() NAMED_UNIT(*) SI_UNIT(.MILLI.,.METRE.) );
#587 = ( NAMED_UNIT(*) PLANE_ANGLE_UNIT() SI_UNIT($,.RADIAN.) );
#588 = ( NAMED_UNIT(*) SI_UNIT($,.STERADIAN.) SOLID_ANGLE_UNIT() );
#589 = UNCERTAINTY_MEASURE_WITH_UNIT(LENGTH_MEASURE(5.E-06),#586,
  'distance_accuracy_value','confusion accuracy');
#590 = PRODUCT_RELATED_PRODUCT_CATEGORY('part',$,(#7));
ENDSEC;
END-ISO-10303-21;
