ISO-10303-21;
HEADER;
FILE_DESCRIPTION(('Open CASCADE Model'),'2;1');
FILE_NAME('Open CASCADE Shape Model','2026-09-05T04:29:48',('Author'),(
    'Open CASCADE'),'Open CASCADE STEP processor 7.8','Open CASCADE 7.8'
  ,'Unknown');
FILE_SCHEMA(('AUTOMOTIVE_DESIGN { 1 0 10303 214 1 1 1 1 }'));
ENDSEC;
DATA;
#1 = APPLICATION_PROTOCOL_DEFINITION('international standard',
  'automotive_design',2000,#2);
#2 = APPLICATION_CONTEXT(
  'core data for automotive mechanical design processes');
#3 = SHAPE_DEFINITION_REPRESENTATION(#4,#10);
#4 = PRODUCT_DEFINITION_SHAPE('','',#5);
#5 = PRODUCT_DEFINITION('design','',#6,#9);
#6 = PRODUCT_DEFINITION_FORMATION('','',#7);
#7 = PRODUCT('Open CASCADE STEP translator 7.8 74',
  'Open CASCADE STEP translator 7.8 74','',(#8));
#8 = PRODUCT_CONTEXT('',#2,'mechanical');
#9 = PRODUCT_DEFINITION_CONTEXT('part definition',#2,'design');
#10 = ADVANCED_BREP_SHAPE_REPRESENTATION('',(#11,#15),#1269);
#11 = AXIS2_PLACEMENT_3D('',#12,#13,#14);
#12 = CARTESIAN_POINT('',(0.,0.,0.));
#13 = DIRECTION('',(0.,0.,1.));
#14 = DIRECTION('',(1.,0.,-0.));
#15 = MANIFOLD_SOLID_BREP('',#16);
#16 = CLOSED_SHELL('',(#17,#564,#783,#973,#1094,#1262));
#17 = ADVANCED_FACE('',(#18),#52,.T.);
#18 = FACE_BOUND('',#19,.T.);
#19 = EDGE_LOOP('',(#20,#251,#381,#469));
#20 = ORIENTED_EDGE('',*,*,#21,.F.);
#21 = EDGE_CURVE('',#22,#24,#26,.T.);
#22 = VERTEX_POINT('',#23);
#23 = CARTESIAN_POINT('',(-29.5,-27.25401407188,-112.));
#24 = VERTEX_POINT('',#25);
#25 = CARTESIAN_POINT('',(-29.5,-34.33629301206,-62.));
#26 = SURFACE_CURVE('',#27,(#51,#219),.PCURVE_S1.);
#27 = B_SPLINE_CURVE_WITH_KNOTS('',8,(#28,#29,#30,#31,#32,#33,#34,#35,
    #36,#37,#38,#39,#40,#41,#42,#43,#44,#45,#46,#47,#48,#49,#50),
  .UNSPECIFIED.,.F.,.F.,(9,7,7,9),(0.,0.451194396377,0.917391005408,1.),
  .UNSPECIFIED.);
#28 = CARTESIAN_POINT('',(-29.5,-27.25401407188,-112.));
#29 = CARTESIAN_POINT('',(-29.5,-28.23637444662,-109.3113240026));
#30 = CARTESIAN_POINT('',(-29.5,-29.11400271947,-106.5849030886));
#31 = CARTESIAN_POINT('',(-29.5,-29.89536681097,-103.8283630964));
#32 = CARTESIAN_POINT('',(-29.5,-30.58780937108,-101.0480370835));
#33 = CARTESIAN_POINT('',(-29.5,-31.19825868604,-98.24915689061));
#34 = CARTESIAN_POINT('',(-29.5,-31.73315539841,-95.43583660248));
#35 = CARTESIAN_POINT('',(-29.5,-32.19850870261,-92.61109359107));
#36 = CARTESIAN_POINT('',(-29.5,-33.01453428358,-86.84833966223));
#37 = CARTESIAN_POINT('',(-29.5,-33.36078753018,-83.91033383228));
#38 = CARTESIAN_POINT('',(-29.5,-33.64471137802,-80.96529974054));
#39 = CARTESIAN_POINT('',(-29.5,-33.87179349812,-78.0152994673));
#40 = CARTESIAN_POINT('',(-29.5,-34.04703017005,-75.06198628062));
#41 = CARTESIAN_POINT('',(-29.5,-34.174982275,-72.10660893779));
#42 = CARTESIAN_POINT('',(-29.5,-34.2598027729,-69.15001365954));
#43 = CARTESIAN_POINT('',(-29.5,-34.31333201453,-65.66860864584));
#44 = CARTESIAN_POINT('',(-29.5,-34.32015391693,-65.14455097538));
#45 = CARTESIAN_POINT('',(-29.5,-34.32576128124,-64.62047802057));
#46 = CARTESIAN_POINT('',(-29.5,-34.33017481873,-64.09639328838));
#47 = CARTESIAN_POINT('',(-29.5,-34.33341490026,-63.57230009363));
#48 = CARTESIAN_POINT('',(-29.5,-34.33550155633,-63.04820155899));
#49 = CARTESIAN_POINT('',(-29.5,-34.33645447703,-62.52410061498));
#50 = CARTESIAN_POINT('',(-29.5,-34.33629301206,-62.));
#51 = PCURVE('',#52,#193);
#52 = ( BOUNDED_SURFACE() B_SPLINE_SURFACE(14,4,(
    (#53,#54,#55,#56,#57)
    ,(#58,#59,#60,#61,#62)
    ,(#63,#64,#65,#66,#67)
    ,(#68,#69,#70,#71,#72)
    ,(#73,#74,#75,#76,#77)
    ,(#78,#79,#80,#81,#82)
    ,(#83,#84,#85,#86,#87)
    ,(#88,#89,#90,#91,#92)
    ,(#93,#94,#95,#96,#97)
    ,(#98,#99,#100,#101,#102)
    ,(#103,#104,#105,#106,#107)
    ,(#108,#109,#110,#111,#112)
    ,(#113,#114,#115,#116,#117)
    ,(#118,#119,#120,#121,#122)
    ,(#123,#124,#125,#126,#127)
    ,(#128,#129,#130,#131,#132)
    ,(#133,#134,#135,#136,#137)
    ,(#138,#139,#140,#141,#142)
    ,(#143,#144,#145,#146,#147)
    ,(#148,#149,#150,#151,#152)
    ,(#153,#154,#155,#156,#157)
    ,(#158,#159,#160,#161,#162)
    ,(#163,#164,#165,#166,#167)
    ,(#168,#169,#170,#171,#172)
    ,(#173,#174,#175,#176,#177)
    ,(#178,#179,#180,#181,#182)
    ,(#183,#184,#185,#186,#187)
    ,(#188,#189,#190,#191,#192
)),.UNSPECIFIED.,.T.,.F.,.F.) B_SPLINE_SURFACE_WITH_KNOTS((15,13,15),(5,
5),(0.,0.5,1.),(0.,1.),.UNSPECIFIED.) GEOMETRIC_REPRESENTATION_ITEM() 
RATIONAL_B_SPLINE_SURFACE((
    (1.,1.,1.,1.,1.)
    ,(1.,1.,1.,1.,1.)
    ,(1.,1.,1.,1.,1.)
    ,(1.,1.,1.,1.,1.)
    ,(1.,1.,1.,1.,1.)
    ,(1.,1.,1.,1.,1.)
    ,(1.,1.,1.,1.,1.)
    ,(1.,1.,1.,1.,1.)
    ,(1.,1.,1.,1.,1.)
    ,(1.,1.,1.,1.,1.)
    ,(1.,1.,1.,1.,1.)
    ,(1.,1.,1.,1.,1.)
    ,(1.,1.,1.,1.,1.)
    ,(1.,1.,1.,1.,1.)
    ,(1.,1.,1.,1.,1.)
    ,(1.,1.,1.,1.,1.)
    ,(1.,1.,1.,1.,1.)
    ,(1.,1.,1.,1.,1.)
    ,(1.,1.,1.,1.,1.)
    ,(1.,1.,1.,1.,1.)
    ,(1.,1.,1.,1.,1.)
    ,(1.,1.,1.,1.,1.)
    ,(1.,1.,1.,1.,1.)
    ,(1.,1.,1.,1.,1.)
    ,(1.,1.,1.,1.,1.)
    ,(1.,1.,1.,1.,1.)
    ,(1.,1.,1.,1.,1.)
,(1.,1.,1.,1.,1.))) REPRESENTATION_ITEM('') SURFACE() );
#53 = CARTESIAN_POINT('',(35.1,-2.526528164824E-14,-134.));
#54 = CARTESIAN_POINT('',(81.760837080153,-8.349631432644E-15,
    -76.09157987452));
#55 = CARTESIAN_POINT('',(36.354567428881,4.16214942914E-14,
    5.923158805326));
#56 = CARTESIAN_POINT('',(51.998719407027,-9.17837277314E-15,
    65.036627364389));
#57 = CARTESIAN_POINT('',(30.24,2.58226646963E-15,134.));
#58 = CARTESIAN_POINT('',(35.100000000002,5.688526697754,-134.));
#59 = CARTESIAN_POINT('',(81.760837080146,13.250675343601,
    -76.09157987452));
#60 = CARTESIAN_POINT('',(36.354567428884,5.891849783606,5.923158805326)
  );
#61 = CARTESIAN_POINT('',(51.998719407026,8.427239418686,65.036627364389
    ));
#62 = CARTESIAN_POINT('',(30.240000000001,4.900884539604,134.));
#63 = CARTESIAN_POINT('',(33.196576480474,11.377054445386,-134.));
#64 = CARTESIAN_POINT('',(77.327061209793,26.501347369064,
    -76.09157987452));
#65 = CARTESIAN_POINT('',(34.383110344124,11.783699777349,5.923158805326
    ));
#66 = CARTESIAN_POINT('',(49.178902290257,16.854481220251,
    65.036627364389));
#67 = CARTESIAN_POINT('',(28.600127429332,9.801769983716,134.));
#68 = CARTESIAN_POINT('',(29.38972822475,16.705682949218,-134.));
#69 = CARTESIAN_POINT('',(68.459513063207,38.913710846632,
    -76.09157987452));
#70 = CARTESIAN_POINT('',(30.440195892857,17.302791251468,5.923158805326
    ));
#71 = CARTESIAN_POINT('',(43.539265331325,24.748547860378,
    65.036627364389));
#72 = CARTESIAN_POINT('',(25.320381239784,14.392588387019,134.));
#73 = CARTESIAN_POINT('',(23.821777192709,21.31453220762,-134.));
#74 = CARTESIAN_POINT('',(55.489692929149,49.649380123126,
    -76.09157987452));
#75 = CARTESIAN_POINT('',(24.673229954672,22.076367058619,5.923158805326
    ));
#76 = CARTESIAN_POINT('',(35.290653559058,31.576310189771,
    65.036627364389));
#77 = CARTESIAN_POINT('',(20.523377273719,18.363289286565,134.));
#78 = CARTESIAN_POINT('',(16.777354717983,24.875981716772,-134.));
#79 = CARTESIAN_POINT('',(39.08064901523,57.945337667237,-76.09157987452
    ));
#80 = CARTESIAN_POINT('',(17.377022964416,25.765116661747,5.923158805326
    ));
#81 = CARTESIAN_POINT('',(24.85472733751,36.852397589582,65.036627364389
    ));
#82 = CARTESIAN_POINT('',(14.454336372417,21.431615017526,134.));
#83 = CARTESIAN_POINT('',(8.667814734469,27.12701994193,-134.));
#84 = CARTESIAN_POINT('',(20.190531990515,63.188835722565,
    -76.09157987452));
#85 = CARTESIAN_POINT('',(8.977625004256,28.096613037584,5.923158805326)
  );
#86 = CARTESIAN_POINT('',(12.840891248709,40.187186857369,
    65.036627364389));
#87 = CARTESIAN_POINT('',(7.467655771235,23.370971026894,134.));
#88 = CARTESIAN_POINT('',(-3.146633087425E-08,27.897072112849,-134.));
#89 = CARTESIAN_POINT('',(5.699579655815E-08,64.982552696615,
    -76.09157987452));
#90 = CARTESIAN_POINT('',(-1.276043384448E-08,28.894186128972,
    5.923158805326));
#91 = CARTESIAN_POINT('',(-6.532247455171E-08,41.327979429179,
    65.036627364389));
#92 = CARTESIAN_POINT('',(-2.710945956608E-08,24.034400589531,134.));
#93 = CARTESIAN_POINT('',(-8.667814540826,27.127020980862,-134.));
#94 = CARTESIAN_POINT('',(-20.19053234127,63.188833840701,
    -76.09157987452));
#95 = CARTESIAN_POINT('',(-8.97762492573,28.096613458873,5.923158805326)
  );
#96 = CARTESIAN_POINT('',(-12.84089084671,40.18718901415,65.036627364389
    ));
#97 = CARTESIAN_POINT('',(-7.467655604404,23.370971921974,134.));
#98 = CARTESIAN_POINT('',(-16.77735532517,24.875981942444,-134.));
#99 = CARTESIAN_POINT('',(-39.08064791537,57.945337258451,
    -76.09157987452));
#100 = CARTESIAN_POINT('',(-17.37702321064,25.76511675327,5.923158805326
    ));
#101 = CARTESIAN_POINT('',(-24.85472859802,36.852398058065,
    65.036627364389));
#102 = CARTESIAN_POINT('',(-14.45433689553,21.431615211952,134.));
#103 = CARTESIAN_POINT('',(-23.82177626384,21.314529723648,-134.));
#104 = CARTESIAN_POINT('',(-55.48969461166,49.649384622488,
    -76.09157987452));
#105 = CARTESIAN_POINT('',(-24.673229578,22.076366051337,5.923158805326)
  );
#106 = CARTESIAN_POINT('',(-35.29065163077,31.576305033154,
    65.036627364389));
#107 = CARTESIAN_POINT('',(-20.52337647346,18.363287146528,134.));
#108 = CARTESIAN_POINT('',(-29.38972889724,16.705685751247,-134.));
#109 = CARTESIAN_POINT('',(-68.45951184507,38.91370577117,
    -76.09157987452));
#110 = CARTESIAN_POINT('',(-30.44019616556,17.302792387715,
    5.923158805326));
#111 = CARTESIAN_POINT('',(-43.53926672739,24.748553677273,
    65.036627364389));
#112 = CARTESIAN_POINT('',(-25.32038181916,14.392590801074,134.));
#113 = CARTESIAN_POINT('',(-33.19657629598,11.377053320335,-134.));
#114 = CARTESIAN_POINT('',(-77.32706154397,26.501349406914,
    -76.09157987452));
#115 = CARTESIAN_POINT('',(-34.38311026931,11.783699321142,
    5.923158805326));
#116 = CARTESIAN_POINT('',(-49.17890190725,16.854478884687,
    65.036627364389));
#117 = CARTESIAN_POINT('',(-28.60012727038,9.801769014442,134.));
#118 = CARTESIAN_POINT('',(-35.09999999534,5.688526660168,-134.));
#119 = CARTESIAN_POINT('',(-81.76083708857,13.250675411693,
    -76.09157987452));
#120 = CARTESIAN_POINT('',(-36.35456742699,5.891849768356,5.923158805326
    ));
#121 = CARTESIAN_POINT('',(-51.99871939737,8.427239340662,
    65.036627364389));
#122 = CARTESIAN_POINT('',(-30.23999999599,4.900884507221,134.));
#123 = CARTESIAN_POINT('',(-35.09999999534,-5.688526660168,-134.));
#124 = CARTESIAN_POINT('',(-81.76083708857,-13.25067541169,
    -76.09157987452));
#125 = CARTESIAN_POINT('',(-36.35456742699,-5.891849768356,
    5.923158805326));
#126 = CARTESIAN_POINT('',(-51.99871939737,-8.427239340662,
    65.036627364389));
#127 = CARTESIAN_POINT('',(-30.23999999599,-4.900884507221,134.));
#128 = CARTESIAN_POINT('',(-33.19657629598,-11.37705332033,-134.));
#129 = CARTESIAN_POINT('',(-77.32706154396,-26.50134940691,
    -76.09157987452));
#130 = CARTESIAN_POINT('',(-34.38311026931,-11.78369932114,
    5.923158805326));
#131 = CARTESIAN_POINT('',(-49.17890190725,-16.85447888468,
    65.036627364389));
#132 = CARTESIAN_POINT('',(-28.60012727038,-9.801769014442,134.));
#133 = CARTESIAN_POINT('',(-29.38972889724,-16.70568575124,-134.));
#134 = CARTESIAN_POINT('',(-68.45951184508,-38.91370577116,
    -76.09157987452));
#135 = CARTESIAN_POINT('',(-30.44019616556,-17.30279238771,
    5.923158805326));
#136 = CARTESIAN_POINT('',(-43.53926672739,-24.74855367727,
    65.036627364389));
#137 = CARTESIAN_POINT('',(-25.32038181916,-14.39259080107,134.));
#138 = CARTESIAN_POINT('',(-23.82177626384,-21.31452972364,-134.));
#139 = CARTESIAN_POINT('',(-55.48969461166,-49.64938462249,
    -76.09157987452));
#140 = CARTESIAN_POINT('',(-24.673229578,-22.07636605133,5.923158805326)
  );
#141 = CARTESIAN_POINT('',(-35.29065163077,-31.57630503315,
    65.036627364389));
#142 = CARTESIAN_POINT('',(-20.52337647346,-18.36328714652,134.));
#143 = CARTESIAN_POINT('',(-16.77735532517,-24.87598194244,-134.));
#144 = CARTESIAN_POINT('',(-39.08064791537,-57.94533725845,
    -76.09157987452));
#145 = CARTESIAN_POINT('',(-17.37702321064,-25.76511675327,
    5.923158805326));
#146 = CARTESIAN_POINT('',(-24.85472859802,-36.85239805806,
    65.036627364389));
#147 = CARTESIAN_POINT('',(-14.45433689553,-21.43161521195,134.));
#148 = CARTESIAN_POINT('',(-8.667814540826,-27.12702098086,-134.));
#149 = CARTESIAN_POINT('',(-20.19053234127,-63.18883384069,
    -76.09157987452));
#150 = CARTESIAN_POINT('',(-8.977624925729,-28.09661345887,
    5.923158805326));
#151 = CARTESIAN_POINT('',(-12.84089084671,-40.18718901415,
    65.036627364389));
#152 = CARTESIAN_POINT('',(-7.467655604404,-23.37097192197,134.));
#153 = CARTESIAN_POINT('',(-3.146637617135E-08,-27.89707211284,-134.));
#154 = CARTESIAN_POINT('',(5.699798695812E-08,-64.98255269661,
    -76.09157987452));
#155 = CARTESIAN_POINT('',(-1.276185049236E-08,-28.89418612897,
    5.923158805326));
#156 = CARTESIAN_POINT('',(-6.532208323988E-08,-41.32797942917,
    65.036627364389));
#157 = CARTESIAN_POINT('',(-2.710948399098E-08,-24.03440058953,134.));
#158 = CARTESIAN_POINT('',(8.667814734469,-27.12701994193,-134.));
#159 = CARTESIAN_POINT('',(20.190531990521,-63.18883572257,
    -76.09157987452));
#160 = CARTESIAN_POINT('',(8.977625004255,-28.09661303758,5.923158805326
    ));
#161 = CARTESIAN_POINT('',(12.840891248709,-40.18718685736,
    65.036627364389));
#162 = CARTESIAN_POINT('',(7.467655771235,-23.37097102689,134.));
#163 = CARTESIAN_POINT('',(16.777354717983,-24.87598171677,-134.));
#164 = CARTESIAN_POINT('',(39.080649015224,-57.94533766723,
    -76.09157987452));
#165 = CARTESIAN_POINT('',(17.377022964417,-25.76511666174,
    5.923158805326));
#166 = CARTESIAN_POINT('',(24.85472733751,-36.85239758958,
    65.036627364389));
#167 = CARTESIAN_POINT('',(14.454336372416,-21.43161501752,134.));
#168 = CARTESIAN_POINT('',(23.82177719271,-21.31453220761,-134.));
#169 = CARTESIAN_POINT('',(55.489692929145,-49.64938012312,
    -76.09157987452));
#170 = CARTESIAN_POINT('',(24.673229954673,-22.07636705861,
    5.923158805326));
#171 = CARTESIAN_POINT('',(35.290653559058,-31.57631018977,
    65.036627364389));
#172 = CARTESIAN_POINT('',(20.523377273719,-18.36328928656,134.));
#173 = CARTESIAN_POINT('',(29.38972822475,-16.70568294921,-134.));
#174 = CARTESIAN_POINT('',(68.459513063219,-38.91371084665,
    -76.09157987452));
#175 = CARTESIAN_POINT('',(30.440195892855,-17.30279125146,
    5.923158805326));
#176 = CARTESIAN_POINT('',(43.539265331325,-24.74854786037,
    65.036627364389));
#177 = CARTESIAN_POINT('',(25.320381239785,-14.39258838701,134.));
#178 = CARTESIAN_POINT('',(33.196576480473,-11.37705444539,-134.));
#179 = CARTESIAN_POINT('',(77.327061209782,-26.50134736903,
    -76.09157987452));
#180 = CARTESIAN_POINT('',(34.383110344125,-11.78369977735,
    5.923158805326));
#181 = CARTESIAN_POINT('',(49.178902290258,-16.85448122026,
    65.036627364389));
#182 = CARTESIAN_POINT('',(28.600127429331,-9.801769983726,134.));
#183 = CARTESIAN_POINT('',(35.100000000003,-5.688526697748,-134.));
#184 = CARTESIAN_POINT('',(81.760837080149,-13.25067534361,
    -76.09157987452));
#185 = CARTESIAN_POINT('',(36.354567428885,-5.891849783601,
    5.923158805326));
#186 = CARTESIAN_POINT('',(51.998719407025,-8.427239418677,
    65.036627364389));
#187 = CARTESIAN_POINT('',(30.240000000002,-4.900884539597,134.));
#188 = CARTESIAN_POINT('',(35.1,1.736728226372E-14,-134.));
#189 = CARTESIAN_POINT('',(81.760837080153,-3.265418011057E-14,
    -76.09157987452));
#190 = CARTESIAN_POINT('',(36.354567428881,1.627200124006E-14,
    5.923158805326));
#191 = CARTESIAN_POINT('',(51.998719407026,-1.820148566052E-14,
    65.036627364389));
#192 = CARTESIAN_POINT('',(30.24,-1.162858844686E-14,134.));
#193 = DEFINITIONAL_REPRESENTATION('',(#194),#218);
#194 = B_SPLINE_CURVE_WITH_KNOTS('',8,(#195,#196,#197,#198,#199,#200,
    #201,#202,#203,#204,#205,#206,#207,#208,#209,#210,#211,#212,#213,
    #214,#215,#216,#217),.UNSPECIFIED.,.F.,.F.,(9,7,7,9),(0.,
    0.451194396377,0.917391005408,1.),.UNSPECIFIED.);
#195 = CARTESIAN_POINT('',(0.644399539648,9.044693660385E-02));
#196 = CARTESIAN_POINT('',(0.647183067969,0.101056534374));
#197 = CARTESIAN_POINT('',(0.649527497369,0.1117160532));
#198 = CARTESIAN_POINT('',(0.651520063995,0.122400629201));
#199 = CARTESIAN_POINT('',(0.653220300407,0.133091824354));
#200 = CARTESIAN_POINT('',(0.65467369725,0.143776029516));
#201 = CARTESIAN_POINT('',(0.655915360221,0.154444057126));
#202 = CARTESIAN_POINT('',(0.656973459992,0.165090735305));
#203 = CARTESIAN_POINT('',(0.658797875293,0.186692053324));
#204 = CARTESIAN_POINT('',(0.659553118082,0.197642732072));
#205 = CARTESIAN_POINT('',(0.660161598563,0.208564016759));
#206 = CARTESIAN_POINT('',(0.660642204225,0.219454398952));
#207 = CARTESIAN_POINT('',(0.661009925903,0.230313530722));
#208 = CARTESIAN_POINT('',(0.661277022927,0.241142173045));
#209 = CARTESIAN_POINT('',(0.661453595901,0.251942183394));
#210 = CARTESIAN_POINT('',(0.66156489947,0.264625699983));
#211 = CARTESIAN_POINT('',(0.661579077851,0.266534061646));
#212 = CARTESIAN_POINT('',(0.66159072777,0.268441609945));
#213 = CARTESIAN_POINT('',(0.661599894937,0.270348357267));
#214 = CARTESIAN_POINT('',(0.661606623632,0.272254316362));
#215 = CARTESIAN_POINT('',(0.661610956711,0.274159500341));
#216 = CARTESIAN_POINT('',(0.661612935601,0.276063922676));
#217 = CARTESIAN_POINT('',(0.661612600304,0.2779675972));
#218 = ( GEOMETRIC_REPRESENTATION_CONTEXT(2) 
PARAMETRIC_REPRESENTATION_CONTEXT() REPRESENTATION_CONTEXT('2D SPACE',''
  ) );
#219 = PCURVE('',#220,#225);
#220 = PLANE('',#221);
#221 = AXIS2_PLACEMENT_3D('',#222,#223,#224);
#222 = CARTESIAN_POINT('',(-29.5,-142.,-112.));
#223 = DIRECTION('',(1.,0.,0.));
#224 = DIRECTION('',(0.,0.,1.));
#225 = DEFINITIONAL_REPRESENTATION('',(#226),#250);
#226 = B_SPLINE_CURVE_WITH_KNOTS('',8,(#227,#228,#229,#230,#231,#232,
    #233,#234,#235,#236,#237,#238,#239,#240,#241,#242,#243,#244,#245,
    #246,#247,#248,#249),.UNSPECIFIED.,.F.,.F.,(9,7,7,9),(0.,
    0.451194396377,0.917391005408,1.),.UNSPECIFIED.);
#227 = CARTESIAN_POINT('',(0.,-114.7459859281));
#228 = CARTESIAN_POINT('',(2.688675997325,-113.7636255533));
#229 = CARTESIAN_POINT('',(5.415096911364,-112.8859972805));
#230 = CARTESIAN_POINT('',(8.171636903537,-112.104633189));
#231 = CARTESIAN_POINT('',(10.951962916466,-111.4121906289));
#232 = CARTESIAN_POINT('',(13.750843109387,-110.8017413139));
#233 = CARTESIAN_POINT('',(16.56416339752,-110.2668446015));
#234 = CARTESIAN_POINT('',(19.388906408923,-109.8014912973));
#235 = CARTESIAN_POINT('',(25.151660337764,-108.9854657164));
#236 = CARTESIAN_POINT('',(28.089666167715,-108.6392124698));
#237 = CARTESIAN_POINT('',(31.034700259458,-108.3552886219));
#238 = CARTESIAN_POINT('',(33.984700532695,-108.1282065018));
#239 = CARTESIAN_POINT('',(36.938013719373,-107.9529698299));
#240 = CARTESIAN_POINT('',(39.89339106221,-107.8250177249));
#241 = CARTESIAN_POINT('',(42.84998634046,-107.740197227));
#242 = CARTESIAN_POINT('',(46.331391354153,-107.6866679854));
#243 = CARTESIAN_POINT('',(46.85544902462,-107.679846083));
#244 = CARTESIAN_POINT('',(47.379521979429,-107.6742387187));
#245 = CARTESIAN_POINT('',(47.903606711617,-107.6698251812));
#246 = CARTESIAN_POINT('',(48.427699906367,-107.6665850997));
#247 = CARTESIAN_POINT('',(48.951798441008,-107.6644984436));
#248 = CARTESIAN_POINT('',(49.475899385012,-107.6635455229));
#249 = CARTESIAN_POINT('',(50.,-107.6637069879));
#250 = ( GEOMETRIC_REPRESENTATION_CONTEXT(2) 
PARAMETRIC_REPRESENTATION_CONTEXT() REPRESENTATION_CONTEXT('2D SPACE',''
  ) );
#251 = ORIENTED_EDGE('',*,*,#252,.F.);
#252 = EDGE_CURVE('',#253,#22,#255,.T.);
#253 = VERTEX_POINT('',#254);
#254 = CARTESIAN_POINT('',(29.5,-27.25401407185,-112.));
#255 = SURFACE_CURVE('',#256,(#294,#335),.PCURVE_S1.);
#256 = B_SPLINE_CURVE_WITH_KNOTS('',8,(#257,#258,#259,#260,#261,#262,
    #263,#264,#265,#266,#267,#268,#269,#270,#271,#272,#273,#274,#275,
    #276,#277,#278,#279,#280,#281,#282,#283,#284,#285,#286,#287,#288,
    #289,#290,#291,#292,#293),.UNSPECIFIED.,.F.,.F.,(9,7,7,7,7,9),(0.,
    0.134396584672,0.500019430791,0.764437909795,0.865606669273,1.),
  .UNSPECIFIED.);
#257 = CARTESIAN_POINT('',(29.5,-27.25401407185,-112.));
#258 = CARTESIAN_POINT('',(28.600883639164,-27.76164624252,-112.));
#259 = CARTESIAN_POINT('',(27.68958273969,-28.24766968665,-112.));
#260 = CARTESIAN_POINT('',(26.767015386601,-28.71233722144,-112.));
#261 = CARTESIAN_POINT('',(25.834040421799,-29.15589449306,-112.));
#262 = CARTESIAN_POINT('',(24.891458305044,-29.57858168423,-112.));
#263 = CARTESIAN_POINT('',(23.940011322534,-29.98063384932,-112.));
#264 = CARTESIAN_POINT('',(22.980383143093,-30.36227987696,-112.));
#265 = CARTESIAN_POINT('',(19.381991822922,-31.70708432648,-112.));
#266 = CARTESIAN_POINT('',(16.695767390773,-32.54069263903,-112.));
#267 = CARTESIAN_POINT('',(13.96617867405,-33.22954664969,-112.));
#268 = CARTESIAN_POINT('',(11.203698093991,-33.77701635843,-112.));
#269 = CARTESIAN_POINT('',(8.417809345889,-34.18571874561,-112.));
#270 = CARTESIAN_POINT('',(5.617018702922,-34.45750814978,-112.));
#271 = CARTESIAN_POINT('',(2.808875475033,-34.59347111462,-112.));
#272 = CARTESIAN_POINT('',(-2.031534608588,-34.59346452531,-112.));
#273 = CARTESIAN_POINT('',(-4.062831285865,-34.5223484049,-112.));
#274 = CARTESIAN_POINT('',(-6.091285019576,-34.38013815768,-112.));
#275 = CARTESIAN_POINT('',(-8.114011528405,-34.16656037041,-112.));
#276 = CARTESIAN_POINT('',(-10.1279441215,-33.88110997885,-112.));
#277 = CARTESIAN_POINT('',(-12.1298337195,-33.52306396419,-112.));
#278 = CARTESIAN_POINT('',(-14.11624232438,-33.09144775573,-112.));
#279 = CARTESIAN_POINT('',(-16.83623091501,-32.39116564981,-112.));
#280 = CARTESIAN_POINT('',(-17.58610932312,-32.18642174958,-112.));
#281 = CARTESIAN_POINT('',(-18.33295170478,-31.97065286124,-112.));
#282 = CARTESIAN_POINT('',(-19.07653329705,-31.74378485949,-112.));
#283 = CARTESIAN_POINT('',(-19.81661798289,-31.50573914813,-112.));
#284 = CARTESIAN_POINT('',(-20.55295824236,-31.2564325368,-112.));
#285 = CARTESIAN_POINT('',(-21.28529510376,-30.99577711779,-112.));
#286 = CARTESIAN_POINT('',(-22.98052237391,-30.36222450232,-112.));
#287 = CARTESIAN_POINT('',(-23.94012964569,-29.98058384732,-112.));
#288 = CARTESIAN_POINT('',(-24.89155598842,-29.57853787736,-112.));
#289 = CARTESIAN_POINT('',(-25.83411777153,-29.1558577173,-112.));
#290 = CARTESIAN_POINT('',(-26.76707275159,-28.71230832692,-112.));
#291 = CARTESIAN_POINT('',(-27.68962051614,-28.24764953819,-112.));
#292 = CARTESIAN_POINT('',(-28.60090227513,-27.76163572021,-112.));
#293 = CARTESIAN_POINT('',(-29.5,-27.25401407188,-112.));
#294 = PCURVE('',#52,#295);
#295 = DEFINITIONAL_REPRESENTATION('',(#296),#334);
#296 = B_SPLINE_CURVE_WITH_KNOTS('',8,(#297,#298,#299,#300,#301,#302,
    #303,#304,#305,#306,#307,#308,#309,#310,#311,#312,#313,#314,#315,
    #316,#317,#318,#319,#320,#321,#322,#323,#324,#325,#326,#327,#328,
    #329,#330,#331,#332,#333),.UNSPECIFIED.,.F.,.F.,(9,7,7,7,7,9),(0.,
    0.134396584672,0.500019430791,0.764437909795,0.865606669273,1.),
  .UNSPECIFIED.);
#297 = CARTESIAN_POINT('',(0.855600460347,9.044693660385E-02));
#298 = CARTESIAN_POINT('',(0.851808389841,9.044693660385E-02));
#299 = CARTESIAN_POINT('',(0.848045651354,9.044693660385E-02));
#300 = CARTESIAN_POINT('',(0.844310651907,9.044693660385E-02));
#301 = CARTESIAN_POINT('',(0.840601875837,9.044693660385E-02));
#302 = CARTESIAN_POINT('',(0.836917854193,9.044693660385E-02));
#303 = CARTESIAN_POINT('',(0.833257137952,9.044693660385E-02));
#304 = CARTESIAN_POINT('',(0.829618275046,9.044693660385E-02));
#305 = CARTESIAN_POINT('',(0.816155788351,9.044693660385E-02));
#306 = CARTESIAN_POINT('',(0.80646602267,9.044693660385E-02));
#307 = CARTESIAN_POINT('',(0.79689697586,9.044693660385E-02));
#308 = CARTESIAN_POINT('',(0.787422558726,9.044693660385E-02));
#309 = CARTESIAN_POINT('',(0.778019128877,9.044693660385E-02));
#310 = CARTESIAN_POINT('',(0.768663915347,9.044693660385E-02));
#311 = CARTESIAN_POINT('',(0.759333174196,9.044693660385E-02));
#312 = CARTESIAN_POINT('',(0.743249730525,9.044693660385E-02));
#313 = CARTESIAN_POINT('',(0.736500245867,9.044693660385E-02));
#314 = CARTESIAN_POINT('',(0.72974172418,9.044693660385E-02));
#315 = CARTESIAN_POINT('',(0.722965220762,9.044693660385E-02));
#316 = CARTESIAN_POINT('',(0.716162023196,9.044693660385E-02));
#317 = CARTESIAN_POINT('',(0.709323244023,9.044693660385E-02));
#318 = CARTESIAN_POINT('',(0.702439350951,9.044693660385E-02));
#319 = CARTESIAN_POINT('',(0.692844440088,9.044693660385E-02));
#320 = CARTESIAN_POINT('',(0.690181155733,9.044693660385E-02));
#321 = CARTESIAN_POINT('',(0.687509215453,9.044693660385E-02));
#322 = CARTESIAN_POINT('',(0.684828053447,9.044693660385E-02));
#323 = CARTESIAN_POINT('',(0.682137099313,9.044693660385E-02));
#324 = CARTESIAN_POINT('',(0.67943577318,9.044693660385E-02));
#325 = CARTESIAN_POINT('',(0.676723480825,9.044693660385E-02));
#326 = CARTESIAN_POINT('',(0.670381196992,9.044693660385E-02));
#327 = CARTESIAN_POINT('',(0.666742406791,9.044693660385E-02));
#328 = CARTESIAN_POINT('',(0.663081764012,9.044693660385E-02));
#329 = CARTESIAN_POINT('',(0.659397816675,9.044693660385E-02));
#330 = CARTESIAN_POINT('',(0.655689115845,9.044693660385E-02));
#331 = CARTESIAN_POINT('',(0.651954192662,9.044693660385E-02));
#332 = CARTESIAN_POINT('',(0.648191531555,9.044693660385E-02));
#333 = CARTESIAN_POINT('',(0.644399539648,9.044693660385E-02));
#334 = ( GEOMETRIC_REPRESENTATION_CONTEXT(2) 
PARAMETRIC_REPRESENTATION_CONTEXT() REPRESENTATION_CONTEXT('2D SPACE',''
  ) );
#335 = PCURVE('',#336,#341);
#336 = PLANE('',#337);
#337 = AXIS2_PLACEMENT_3D('',#338,#339,#340);
#338 = CARTESIAN_POINT('',(-29.5,-142.,-112.));
#339 = DIRECTION('',(0.,0.,1.));
#340 = DIRECTION('',(1.,0.,0.));
#341 = DEFINITIONAL_REPRESENTATION('',(#342),#380);
#342 = B_SPLINE_CURVE_WITH_KNOTS('',8,(#343,#344,#345,#346,#347,#348,
    #349,#350,#351,#352,#353,#354,#355,#356,#357,#358,#359,#360,#361,
    #362,#363,#364,#365,#366,#367,#368,#369,#370,#371,#372,#373,#374,
    #375,#376,#377,#378,#379),.UNSPECIFIED.,.F.,.F.,(9,7,7,7,7,9),(0.,
    0.134396584672,0.500019430791,0.764437909795,0.865606669273,1.),
  .UNSPECIFIED.);
#343 = CARTESIAN_POINT('',(59.,114.74598592814));
#344 = CARTESIAN_POINT('',(58.100883639164,114.23835375747));
#345 = CARTESIAN_POINT('',(57.18958273969,113.75233031334));
#346 = CARTESIAN_POINT('',(56.267015386601,113.28766277855));
#347 = CARTESIAN_POINT('',(55.334040421799,112.84410550693));
#348 = CARTESIAN_POINT('',(54.391458305044,112.42141831576));
#349 = CARTESIAN_POINT('',(53.440011322534,112.01936615067));
#350 = CARTESIAN_POINT('',(52.480383143093,111.63772012303));
#351 = CARTESIAN_POINT('',(48.881991822922,110.29291567351));
#352 = CARTESIAN_POINT('',(46.195767390773,109.45930736096));
#353 = CARTESIAN_POINT('',(43.46617867405,108.7704533503));
#354 = CARTESIAN_POINT('',(40.703698093991,108.22298364156));
#355 = CARTESIAN_POINT('',(37.917809345889,107.81428125439));
#356 = CARTESIAN_POINT('',(35.117018702922,107.54249185021));
#357 = CARTESIAN_POINT('',(32.308875475033,107.40652888538));
#358 = CARTESIAN_POINT('',(27.468465391412,107.40653547468));
#359 = CARTESIAN_POINT('',(25.437168714135,107.47765159509));
#360 = CARTESIAN_POINT('',(23.408714980424,107.61986184231));
#361 = CARTESIAN_POINT('',(21.385988471595,107.83343962958));
#362 = CARTESIAN_POINT('',(19.372055878498,108.11889002115));
#363 = CARTESIAN_POINT('',(17.370166280499,108.47693603581));
#364 = CARTESIAN_POINT('',(15.383757675611,108.90855224426));
#365 = CARTESIAN_POINT('',(12.663769084985,109.60883435018));
#366 = CARTESIAN_POINT('',(11.913890676877,109.81357825041));
#367 = CARTESIAN_POINT('',(11.167048295212,110.02934713875));
#368 = CARTESIAN_POINT('',(10.42346670295,110.2562151405));
#369 = CARTESIAN_POINT('',(9.68338201711,110.49426085186));
#370 = CARTESIAN_POINT('',(8.947041757632,110.74356746319));
#371 = CARTESIAN_POINT('',(8.214704896233,111.0042228822));
#372 = CARTESIAN_POINT('',(6.51947762609,111.63777549767));
#373 = CARTESIAN_POINT('',(5.559870354308,112.01941615267));
#374 = CARTESIAN_POINT('',(4.608444011574,112.42146212264));
#375 = CARTESIAN_POINT('',(3.665882228469,112.84414228269));
#376 = CARTESIAN_POINT('',(2.732927248406,113.28769167307));
#377 = CARTESIAN_POINT('',(1.810379483851,113.7523504618));
#378 = CARTESIAN_POINT('',(0.89909772487,114.23836427978));
#379 = CARTESIAN_POINT('',(0.,114.74598592811));
#380 = ( GEOMETRIC_REPRESENTATION_CONTEXT(2) 
PARAMETRIC_REPRESENTATION_CONTEXT() REPRESENTATION_CONTEXT('2D SPACE',''
  ) );
#381 = ORIENTED_EDGE('',*,*,#382,.T.);
#382 = EDGE_CURVE('',#253,#383,#385,.T.);
#383 = VERTEX_POINT('',#384);
#384 = CARTESIAN_POINT('',(29.5,-34.33629300982,-62.));
#385 = SURFACE_CURVE('',#386,(#410,#437),.PCURVE_S1.);
#386 = B_SPLINE_CURVE_WITH_KNOTS('',8,(#387,#388,#389,#390,#391,#392,
    #393,#394,#395,#396,#397,#398,#399,#400,#401,#402,#403,#404,#405,
    #406,#407,#408,#409),.UNSPECIFIED.,.F.,.F.,(9,7,7,9),(0.,
    0.451194395452,0.917391004465,1.),.UNSPECIFIED.);
#387 = CARTESIAN_POINT('',(29.5,-27.25401407185,-112.));
#388 = CARTESIAN_POINT('',(29.5,-28.23637444501,-109.3113240083));
#389 = CARTESIAN_POINT('',(29.5,-29.11400271628,-106.5849031));
#390 = CARTESIAN_POINT('',(29.5,-29.8953668064,-103.8283631135));
#391 = CARTESIAN_POINT('',(29.5,-30.58780936534,-101.0480371064));
#392 = CARTESIAN_POINT('',(29.5,-31.19825867941,-98.24915691933));
#393 = CARTESIAN_POINT('',(29.5,-31.73315539114,-95.43583663712));
#394 = CARTESIAN_POINT('',(29.5,-32.19850869494,-92.61109363163));
#395 = CARTESIAN_POINT('',(29.5,-33.0145342764,-86.84833970893));
#396 = CARTESIAN_POINT('',(29.5,-33.36078752363,-83.91033387916));
#397 = CARTESIAN_POINT('',(29.5,-33.64471137208,-80.96529978762));
#398 = CARTESIAN_POINT('',(29.5,-33.87179349278,-78.01529951454));
#399 = CARTESIAN_POINT('',(29.5,-34.04703016529,-75.061986328));
#400 = CARTESIAN_POINT('',(29.5,-34.17498227082,-72.10660898535));
#401 = CARTESIAN_POINT('',(29.5,-34.2598027693,-69.15001370721));
#402 = CARTESIAN_POINT('',(29.5,-34.31333201169,-65.66860868768));
#403 = CARTESIAN_POINT('',(29.5,-34.32015391425,-65.14455101124));
#404 = CARTESIAN_POINT('',(29.5,-34.3257612787,-64.62047805045));
#405 = CARTESIAN_POINT('',(29.5,-34.3301748163,-64.09639331229));
#406 = CARTESIAN_POINT('',(29.5,-34.33341489792,-63.57230011156));
#407 = CARTESIAN_POINT('',(29.5,-34.33550155405,-63.04820157094));
#408 = CARTESIAN_POINT('',(29.5,-34.33645447478,-62.52410062096));
#409 = CARTESIAN_POINT('',(29.5,-34.33629300982,-62.));
#410 = PCURVE('',#52,#411);
#411 = DEFINITIONAL_REPRESENTATION('',(#412),#436);
#412 = B_SPLINE_CURVE_WITH_KNOTS('',8,(#413,#414,#415,#416,#417,#418,
    #419,#420,#421,#422,#423,#424,#425,#426,#427,#428,#429,#430,#431,
    #432,#433,#434,#435),.UNSPECIFIED.,.F.,.F.,(9,7,7,9),(0.,
    0.451194395452,0.917391004465,1.),.UNSPECIFIED.);
#413 = CARTESIAN_POINT('',(0.855600460347,9.044693660385E-02));
#414 = CARTESIAN_POINT('',(0.852816932034,0.101056534352));
#415 = CARTESIAN_POINT('',(0.850472502639,0.111716053155));
#416 = CARTESIAN_POINT('',(0.848479936017,0.122400629135));
#417 = CARTESIAN_POINT('',(0.846779699608,0.133091824266));
#418 = CARTESIAN_POINT('',(0.845326302767,0.143776029406));
#419 = CARTESIAN_POINT('',(0.844084639797,0.154444056995));
#420 = CARTESIAN_POINT('',(0.843026540027,0.165090735152));
#421 = CARTESIAN_POINT('',(0.841202124723,0.18669205315));
#422 = CARTESIAN_POINT('',(0.840446881933,0.197642731898));
#423 = CARTESIAN_POINT('',(0.83983840145,0.208564016585));
#424 = CARTESIAN_POINT('',(0.839357795787,0.219454398778));
#425 = CARTESIAN_POINT('',(0.838990074108,0.230313530548));
#426 = CARTESIAN_POINT('',(0.838722977083,0.241142172871));
#427 = CARTESIAN_POINT('',(0.838546404108,0.251942183219));
#428 = CARTESIAN_POINT('',(0.838435100537,0.26462569983));
#429 = CARTESIAN_POINT('',(0.838420922156,0.266534061515));
#430 = CARTESIAN_POINT('',(0.838409272236,0.268441609836));
#431 = CARTESIAN_POINT('',(0.838400105069,0.27034835718));
#432 = CARTESIAN_POINT('',(0.838393376374,0.272254316297));
#433 = CARTESIAN_POINT('',(0.838389043295,0.274159500297));
#434 = CARTESIAN_POINT('',(0.838387064404,0.276063922654));
#435 = CARTESIAN_POINT('',(0.838387399701,0.2779675972));
#436 = ( GEOMETRIC_REPRESENTATION_CONTEXT(2) 
PARAMETRIC_REPRESENTATION_CONTEXT() REPRESENTATION_CONTEXT('2D SPACE',''
  ) );
#437 = PCURVE('',#438,#443);
#438 = PLANE('',#439);
#439 = AXIS2_PLACEMENT_3D('',#440,#441,#442);
#440 = CARTESIAN_POINT('',(29.5,-142.,-112.));
#441 = DIRECTION('',(1.,0.,0.));
#442 = DIRECTION('',(0.,0.,1.));
#443 = DEFINITIONAL_REPRESENTATION('',(#444),#468);
#444 = B_SPLINE_CURVE_WITH_KNOTS('',8,(#445,#446,#447,#448,#449,#450,
    #451,#452,#453,#454,#455,#456,#457,#458,#459,#460,#461,#462,#463,
    #464,#465,#466,#467),.UNSPECIFIED.,.F.,.F.,(9,7,7,9),(0.,
    0.451194395452,0.917391004465,1.),.UNSPECIFIED.);
#445 = CARTESIAN_POINT('',(0.,-114.7459859281));
#446 = CARTESIAN_POINT('',(2.688675991635,-113.7636255549));
#447 = CARTESIAN_POINT('',(5.415096899972,-112.8859972837));
#448 = CARTESIAN_POINT('',(8.171636886448,-112.1046331935));
#449 = CARTESIAN_POINT('',(10.951962893537,-111.4121906346));
#450 = CARTESIAN_POINT('',(13.750843080662,-110.8017413205));
#451 = CARTESIAN_POINT('',(16.564163362874,-110.2668446088));
#452 = CARTESIAN_POINT('',(19.388906368371,-109.801491305));
#453 = CARTESIAN_POINT('',(25.151660291067,-108.9854657235));
#454 = CARTESIAN_POINT('',(28.08966612084,-108.6392124763));
#455 = CARTESIAN_POINT('',(31.034700212371,-108.3552886279));
#456 = CARTESIAN_POINT('',(33.984700485457,-108.1282065072));
#457 = CARTESIAN_POINT('',(36.938013671994,-107.9529698347));
#458 = CARTESIAN_POINT('',(39.89339101465,-107.8250177291));
#459 = CARTESIAN_POINT('',(42.849986292781,-107.7401972306));
#460 = CARTESIAN_POINT('',(46.331391312313,-107.6866679883));
#461 = CARTESIAN_POINT('',(46.855448988756,-107.6798460857));
#462 = CARTESIAN_POINT('',(47.379521949542,-107.6742387212));
#463 = CARTESIAN_POINT('',(47.903606687707,-107.6698251836));
#464 = CARTESIAN_POINT('',(48.427699888435,-107.666585102));
#465 = CARTESIAN_POINT('',(48.951798429052,-107.6644984459));
#466 = CARTESIAN_POINT('',(49.475899379034,-107.6635455252));
#467 = CARTESIAN_POINT('',(50.,-107.6637069901));
#468 = ( GEOMETRIC_REPRESENTATION_CONTEXT(2) 
PARAMETRIC_REPRESENTATION_CONTEXT() REPRESENTATION_CONTEXT('2D SPACE',''
  ) );
#469 = ORIENTED_EDGE('',*,*,#470,.T.);
#470 = EDGE_CURVE('',#383,#24,#471,.T.);
#471 = SURFACE_CURVE('',#472,(#499,#529),.PCURVE_S1.);
#472 = B_SPLINE_CURVE_WITH_KNOTS('',7,(#473,#474,#475,#476,#477,#478,
    #479,#480,#481,#482,#483,#484,#485,#486,#487,#488,#489,#490,#491,
    #492,#493,#494,#495,#496,#497,#498),.UNSPECIFIED.,.F.,.F.,(8,6,6,6,8
    ),(0.,0.136669159994,0.50000173801,0.863334188312,1.),
  .UNSPECIFIED.);
#473 = CARTESIAN_POINT('',(29.5,-34.33629300982,-62.));
#474 = CARTESIAN_POINT('',(28.418860085168,-34.8207912541,-62.));
#475 = CARTESIAN_POINT('',(27.327019610339,-35.28139349759,-62.));
#476 = CARTESIAN_POINT('',(26.22535281898,-35.71838515737,-62.));
#477 = CARTESIAN_POINT('',(25.114677011326,-36.13203567261,-62.));
#478 = CARTESIAN_POINT('',(23.995752807906,-36.52259895576,-62.));
#479 = CARTESIAN_POINT('',(22.86928441308,-36.89031384369,-62.));
#480 = CARTESIAN_POINT('',(18.722890032043,-38.15282216908,-62.));
#481 = CARTESIAN_POINT('',(15.661673720186,-38.91017392094,-62.));
#482 = CARTESIAN_POINT('',(12.563754866648,-39.51197937577,-62.));
#483 = CARTESIAN_POINT('',(9.43956223638,-39.96117924768,-62.));
#484 = CARTESIAN_POINT('',(6.298612394743,-40.25987206312,-62.));
#485 = CARTESIAN_POINT('',(3.149505192576,-40.40925712801,-62.));
#486 = CARTESIAN_POINT('',(-3.14971501555,-40.40924855223,-62.));
#487 = CARTESIAN_POINT('',(-6.298820701817,-40.25985501797,-62.));
#488 = CARTESIAN_POINT('',(-9.43976863085,-39.96115379718,-62.));
#489 = CARTESIAN_POINT('',(-12.56395894456,-39.51194554514,-62.));
#490 = CARTESIAN_POINT('',(-15.66187505305,-38.91013169824,-62.));
#491 = CARTESIAN_POINT('',(-18.72308814829,-38.15277150843,-62.));
#492 = CARTESIAN_POINT('',(-22.86944999877,-36.890259793,-62.));
#493 = CARTESIAN_POINT('',(-23.99588987181,-36.5225511153,-62.));
#494 = CARTESIAN_POINT('',(-25.11478585388,-36.13199513851,-62.));
#495 = CARTESIAN_POINT('',(-26.22543378868,-35.71835304204,-62.));
#496 = CARTESIAN_POINT('',(-27.32707310886,-35.28137093129,-62.));
#497 = CARTESIAN_POINT('',(-28.41888657257,-34.82077938657,-62.));
#498 = CARTESIAN_POINT('',(-29.5,-34.33629301206,-62.));
#499 = PCURVE('',#52,#500);
#500 = DEFINITIONAL_REPRESENTATION('',(#501),#528);
#501 = B_SPLINE_CURVE_WITH_KNOTS('',7,(#502,#503,#504,#505,#506,#507,
    #508,#509,#510,#511,#512,#513,#514,#515,#516,#517,#518,#519,#520,
    #521,#522,#523,#524,#525,#526,#527),.UNSPECIFIED.,.F.,.F.,(8,6,6,6,8
    ),(0.,0.136669159994,0.50000173801,0.863334188312,1.),
  .UNSPECIFIED.);
#502 = CARTESIAN_POINT('',(0.838387399701,0.2779675972));
#503 = CARTESIAN_POINT('',(0.834768142277,0.2779675972));
#504 = CARTESIAN_POINT('',(0.831172643258,0.2779675972));
#505 = CARTESIAN_POINT('',(0.827599367034,0.2779675972));
#506 = CARTESIAN_POINT('',(0.824046851721,0.2779675972));
#507 = CARTESIAN_POINT('',(0.82051368144,0.2779675972));
#508 = CARTESIAN_POINT('',(0.816998458604,0.2779675972));
#509 = CARTESIAN_POINT('',(0.804198590055,0.2779675972));
#510 = CARTESIAN_POINT('',(0.795016010803,0.2779675972));
#511 = CARTESIAN_POINT('',(0.785923344467,0.2779675972));
#512 = CARTESIAN_POINT('',(0.7768974671,0.2779675972));
#513 = CARTESIAN_POINT('',(0.767916574713,0.2779675972));
#514 = CARTESIAN_POINT('',(0.758958854575,0.2779675972));
#515 = CARTESIAN_POINT('',(0.741040548574,0.2779675972));
#516 = CARTESIAN_POINT('',(0.73208283053,0.2779675972));
#517 = CARTESIAN_POINT('',(0.723101939198,0.2779675972));
#518 = CARTESIAN_POINT('',(0.71407606185,0.2779675972));
#519 = CARTESIAN_POINT('',(0.704983394487,0.2779675972));
#520 = CARTESIAN_POINT('',(0.695800813147,0.2779675972));
#521 = CARTESIAN_POINT('',(0.683001024678,0.2779675972));
#522 = CARTESIAN_POINT('',(0.679485885764,0.2779675972));
#523 = CARTESIAN_POINT('',(0.675952800148,0.2779675972));
#524 = CARTESIAN_POINT('',(0.672400370344,0.2779675972));
#525 = CARTESIAN_POINT('',(0.668827180573,0.2779675972));
#526 = CARTESIAN_POINT('',(0.665231769058,0.2779675972));
#527 = CARTESIAN_POINT('',(0.661612600304,0.2779675972));
#528 = ( GEOMETRIC_REPRESENTATION_CONTEXT(2) 
PARAMETRIC_REPRESENTATION_CONTEXT() REPRESENTATION_CONTEXT('2D SPACE',''
  ) );
#529 = PCURVE('',#530,#535);
#530 = PLANE('',#531);
#531 = AXIS2_PLACEMENT_3D('',#532,#533,#534);
#532 = CARTESIAN_POINT('',(-29.5,-142.,-62.));
#533 = DIRECTION('',(0.,0.,1.));
#534 = DIRECTION('',(1.,0.,0.));
#535 = DEFINITIONAL_REPRESENTATION('',(#536),#563);
#536 = B_SPLINE_CURVE_WITH_KNOTS('',7,(#537,#538,#539,#540,#541,#542,
    #543,#544,#545,#546,#547,#548,#549,#550,#551,#552,#553,#554,#555,
    #556,#557,#558,#559,#560,#561,#562),.UNSPECIFIED.,.F.,.F.,(8,6,6,6,8
    ),(0.,0.136669159994,0.50000173801,0.863334188312,1.),
  .UNSPECIFIED.);
#537 = CARTESIAN_POINT('',(59.,107.66370699017));
#538 = CARTESIAN_POINT('',(57.918860085168,107.1792087459));
#539 = CARTESIAN_POINT('',(56.827019610339,106.7186065024));
#540 = CARTESIAN_POINT('',(55.72535281898,106.28161484262));
#541 = CARTESIAN_POINT('',(54.614677011326,105.86796432738));
#542 = CARTESIAN_POINT('',(53.495752807906,105.47740104423));
#543 = CARTESIAN_POINT('',(52.36928441308,105.1096861563));
#544 = CARTESIAN_POINT('',(48.222890032043,103.84717783092));
#545 = CARTESIAN_POINT('',(45.161673720186,103.08982607905));
#546 = CARTESIAN_POINT('',(42.063754866648,102.48802062422));
#547 = CARTESIAN_POINT('',(38.93956223638,102.03882075231));
#548 = CARTESIAN_POINT('',(35.798612394743,101.74012793687));
#549 = CARTESIAN_POINT('',(32.649505192576,101.59074287199));
#550 = CARTESIAN_POINT('',(26.35028498445,101.59075144776));
#551 = CARTESIAN_POINT('',(23.201179298183,101.74014498202));
#552 = CARTESIAN_POINT('',(20.06023136915,102.03884620281));
#553 = CARTESIAN_POINT('',(16.936041055431,102.48805445485));
#554 = CARTESIAN_POINT('',(13.838124946949,103.08986830175));
#555 = CARTESIAN_POINT('',(10.776911851701,103.84722849156));
#556 = CARTESIAN_POINT('',(6.630550001224,105.10974020699));
#557 = CARTESIAN_POINT('',(5.504110128189,105.47744888469));
#558 = CARTESIAN_POINT('',(4.385214146111,105.86800486148));
#559 = CARTESIAN_POINT('',(3.274566211314,106.28164695795));
#560 = CARTESIAN_POINT('',(2.172926891139,106.7186290687));
#561 = CARTESIAN_POINT('',(1.081113427424,107.17922061342));
#562 = CARTESIAN_POINT('',(0.,107.66370698793));
#563 = ( GEOMETRIC_REPRESENTATION_CONTEXT(2) 
PARAMETRIC_REPRESENTATION_CONTEXT() REPRESENTATION_CONTEXT('2D SPACE',''
  ) );
#564 = ADVANCED_FACE('',(#565),#220,.F.);
#565 = FACE_BOUND('',#566,.F.);
#566 = EDGE_LOOP('',(#567,#590,#591,#614));
#567 = ORIENTED_EDGE('',*,*,#568,.F.);
#568 = EDGE_CURVE('',#24,#569,#571,.T.);
#569 = VERTEX_POINT('',#570);
#570 = CARTESIAN_POINT('',(-29.5,-30.93018920359,-62.));
#571 = SURFACE_CURVE('',#572,(#576,#583),.PCURVE_S1.);
#572 = LINE('',#573,#574);
#573 = CARTESIAN_POINT('',(-29.5,-142.,-62.));
#574 = VECTOR('',#575,1.);
#575 = DIRECTION('',(0.,1.,0.));
#576 = PCURVE('',#220,#577);
#577 = DEFINITIONAL_REPRESENTATION('',(#578),#582);
#578 = LINE('',#579,#580);
#579 = CARTESIAN_POINT('',(50.,0.));
#580 = VECTOR('',#581,1.);
#581 = DIRECTION('',(0.,-1.));
#582 = ( GEOMETRIC_REPRESENTATION_CONTEXT(2) 
PARAMETRIC_REPRESENTATION_CONTEXT() REPRESENTATION_CONTEXT('2D SPACE',''
  ) );
#583 = PCURVE('',#530,#584);
#584 = DEFINITIONAL_REPRESENTATION('',(#585),#589);
#585 = LINE('',#586,#587);
#586 = CARTESIAN_POINT('',(0.,0.));
#587 = VECTOR('',#588,1.);
#588 = DIRECTION('',(0.,1.));
#589 = ( GEOMETRIC_REPRESENTATION_CONTEXT(2) 
PARAMETRIC_REPRESENTATION_CONTEXT() REPRESENTATION_CONTEXT('2D SPACE',''
  ) );
#590 = ORIENTED_EDGE('',*,*,#21,.F.);
#591 = ORIENTED_EDGE('',*,*,#592,.T.);
#592 = EDGE_CURVE('',#22,#593,#595,.T.);
#593 = VERTEX_POINT('',#594);
#594 = CARTESIAN_POINT('',(-29.5,-23.90785303736,-112.));
#595 = SURFACE_CURVE('',#596,(#600,#607),.PCURVE_S1.);
#596 = LINE('',#597,#598);
#597 = CARTESIAN_POINT('',(-29.5,-142.,-112.));
#598 = VECTOR('',#599,1.);
#599 = DIRECTION('',(0.,1.,0.));
#600 = PCURVE('',#220,#601);
#601 = DEFINITIONAL_REPRESENTATION('',(#602),#606);
#602 = LINE('',#603,#604);
#603 = CARTESIAN_POINT('',(0.,0.));
#604 = VECTOR('',#605,1.);
#605 = DIRECTION('',(0.,-1.));
#606 = ( GEOMETRIC_REPRESENTATION_CONTEXT(2) 
PARAMETRIC_REPRESENTATION_CONTEXT() REPRESENTATION_CONTEXT('2D SPACE',''
  ) );
#607 = PCURVE('',#336,#608);
#608 = DEFINITIONAL_REPRESENTATION('',(#609),#613);
#609 = LINE('',#610,#611);
#610 = CARTESIAN_POINT('',(0.,0.));
#611 = VECTOR('',#612,1.);
#612 = DIRECTION('',(0.,1.));
#613 = ( GEOMETRIC_REPRESENTATION_CONTEXT(2) 
PARAMETRIC_REPRESENTATION_CONTEXT() REPRESENTATION_CONTEXT('2D SPACE',''
  ) );
#614 = ORIENTED_EDGE('',*,*,#615,.T.);
#615 = EDGE_CURVE('',#593,#569,#616,.T.);
#616 = SURFACE_CURVE('',#617,(#645,#676),.PCURVE_S1.);
#617 = B_SPLINE_CURVE_WITH_KNOTS('',6,(#618,#619,#620,#621,#622,#623,
    #624,#625,#626,#627,#628,#629,#630,#631,#632,#633,#634,#635,#636,
    #637,#638,#639,#640,#641,#642,#643,#644),.UNSPECIFIED.,.F.,.F.,(7,5,
    5,5,5,7),(0.,0.201931459657,0.405469372291,0.611763550618,
    0.820366752162,1.),.UNSPECIFIED.);
#618 = CARTESIAN_POINT('',(-29.5,-23.90785303736,-112.));
#619 = CARTESIAN_POINT('',(-29.5,-24.498724818,-110.3977181889));
#620 = CARTESIAN_POINT('',(-29.5,-25.04754752397,-108.7799717826));
#621 = CARTESIAN_POINT('',(-29.5,-25.55713005333,-107.1492639425));
#622 = CARTESIAN_POINT('',(-29.5,-26.02994226794,-105.5076544359));
#623 = CARTESIAN_POINT('',(-29.5,-26.46827070446,-103.8568090658));
#624 = CARTESIAN_POINT('',(-29.5,-27.28340029722,-100.5259939603));
#625 = CARTESIAN_POINT('',(-29.5,-27.65967068075,-98.84595375811));
#626 = CARTESIAN_POINT('',(-29.5,-28.00518436921,-97.159219175));
#627 = CARTESIAN_POINT('',(-29.5,-28.32187591077,-95.46690822201));
#628 = CARTESIAN_POINT('',(-29.5,-28.61152323741,-93.76992950162));
#629 = CARTESIAN_POINT('',(-29.5,-29.14357535104,-90.34500586389));
#630 = CARTESIAN_POINT('',(-29.5,-29.38528320592,-88.61698172033));
#631 = CARTESIAN_POINT('',(-29.5,-29.60258275014,-86.88565843813));
#632 = CARTESIAN_POINT('',(-29.5,-29.79701489922,-85.15165979576));
#633 = CARTESIAN_POINT('',(-29.5,-29.96998658585,-83.41549014168));
#634 = CARTESIAN_POINT('',(-29.5,-30.27731352118,-79.92013210758));
#635 = CARTESIAN_POINT('',(-29.5,-30.4112133336,-78.16091964692));
#636 = CARTESIAN_POINT('',(-29.5,-30.52583304216,-76.40030912791));
#637 = CARTESIAN_POINT('',(-29.5,-30.62239107419,-74.63864053173));
#638 = CARTESIAN_POINT('',(-29.5,-30.70200275845,-72.87618588665));
#639 = CARTESIAN_POINT('',(-29.5,-30.82054663718,-69.59495799061));
#640 = CARTESIAN_POINT('',(-29.5,-30.86359250908,-68.07634073982));
#641 = CARTESIAN_POINT('',(-29.5,-30.89549181765,-66.55743357643));
#642 = CARTESIAN_POINT('',(-29.5,-30.91685307966,-65.03834992943));
#643 = CARTESIAN_POINT('',(-29.5,-30.9282423984,-63.5191818249));
#644 = CARTESIAN_POINT('',(-29.5,-30.93018920359,-62.));
#645 = PCURVE('',#220,#646);
#646 = DEFINITIONAL_REPRESENTATION('',(#647),#675);
#647 = B_SPLINE_CURVE_WITH_KNOTS('',6,(#648,#649,#650,#651,#652,#653,
    #654,#655,#656,#657,#658,#659,#660,#661,#662,#663,#664,#665,#666,
    #667,#668,#669,#670,#671,#672,#673,#674),.UNSPECIFIED.,.F.,.F.,(7,5,
    5,5,5,7),(0.,0.201931459657,0.405469372291,0.611763550618,
    0.820366752162,1.),.UNSPECIFIED.);
#648 = CARTESIAN_POINT('',(0.,-118.0921469626));
#649 = CARTESIAN_POINT('',(1.602281811051,-117.5012751819));
#650 = CARTESIAN_POINT('',(3.220028217333,-116.952452476));
#651 = CARTESIAN_POINT('',(4.850736057446,-116.4428699466));
#652 = CARTESIAN_POINT('',(6.492345564009,-115.970057732));
#653 = CARTESIAN_POINT('',(8.143190934153,-115.5317292955));
#654 = CARTESIAN_POINT('',(11.474006039699,-114.7165997027));
#655 = CARTESIAN_POINT('',(13.154046241887,-114.3403293192));
#656 = CARTESIAN_POINT('',(14.840780825,-113.9948156307));
#657 = CARTESIAN_POINT('',(16.53309177799,-113.6781240892));
#658 = CARTESIAN_POINT('',(18.230070498375,-113.3884767625));
#659 = CARTESIAN_POINT('',(21.654994136101,-112.8564246489));
#660 = CARTESIAN_POINT('',(23.383018279669,-112.614716794));
#661 = CARTESIAN_POINT('',(25.114341561869,-112.3974172498));
#662 = CARTESIAN_POINT('',(26.848340204238,-112.2029851007));
#663 = CARTESIAN_POINT('',(28.584509858312,-112.0300134141));
#664 = CARTESIAN_POINT('',(32.079867892419,-111.7226864788));
#665 = CARTESIAN_POINT('',(33.839080353073,-111.5887866663));
#666 = CARTESIAN_POINT('',(35.599690872084,-111.4741669578));
#667 = CARTESIAN_POINT('',(37.361359468263,-111.3776089258));
#668 = CARTESIAN_POINT('',(39.123814113341,-111.2979972415));
#669 = CARTESIAN_POINT('',(42.405042009385,-111.1794533628));
#670 = CARTESIAN_POINT('',(43.923659260174,-111.1364074909));
#671 = CARTESIAN_POINT('',(45.442566423561,-111.1045081823));
#672 = CARTESIAN_POINT('',(46.961650070561,-111.0831469203));
#673 = CARTESIAN_POINT('',(48.480818175097,-111.0717576015));
#674 = CARTESIAN_POINT('',(50.,-111.0698107964));
#675 = ( GEOMETRIC_REPRESENTATION_CONTEXT(2) 
PARAMETRIC_REPRESENTATION_CONTEXT() REPRESENTATION_CONTEXT('2D SPACE',''
  ) );
#676 = PCURVE('',#677,#753);
#677 = ( BOUNDED_SURFACE() B_SPLINE_SURFACE(14,4,(
    (#678,#679,#680,#681,#682)
    ,(#683,#684,#685,#686,#687)
    ,(#688,#689,#690,#691,#692)
    ,(#693,#694,#695,#696,#697)
    ,(#698,#699,#700,#701,#702)
    ,(#703,#704,#705,#706,#707)
    ,(#708,#709,#710,#711,#712)
    ,(#713,#714,#715,#716,#717)
    ,(#718,#719,#720,#721,#722)
    ,(#723,#724,#725,#726,#727)
    ,(#728,#729,#730,#731,#732)
    ,(#733,#734,#735,#736,#737)
    ,(#738,#739,#740,#741,#742)
    ,(#743,#744,#745,#746,#747)
    ,(#748,#749,#750,#751,#752
)),.UNSPECIFIED.,.T.,.F.,.F.) B_SPLINE_SURFACE_WITH_KNOTS((15,15),(5,5),
  (0.,1.),(0.,1.),.PIECEWISE_BEZIER_KNOTS.) 
GEOMETRIC_REPRESENTATION_ITEM() RATIONAL_B_SPLINE_SURFACE((
    (1.,1.,1.,1.,1.)
    ,(1.,1.,1.,1.,1.)
    ,(1.,1.,1.,1.,1.)
    ,(1.,1.,1.,1.,1.)
    ,(1.,1.,1.,1.,1.)
    ,(1.,1.,1.,1.,1.)
    ,(1.,1.,1.,1.,1.)
    ,(1.,1.,1.,1.,1.)
    ,(1.,1.,1.,1.,1.)
    ,(1.,1.,1.,1.,1.)
    ,(1.,1.,1.,1.,1.)
    ,(1.,1.,1.,1.,1.)
    ,(1.,1.,1.,1.,1.)
    ,(1.,1.,1.,1.,1.)
,(1.,1.,1.,1.,1.))) REPRESENTATION_ITEM('') SURFACE() );
#678 = CARTESIAN_POINT('',(32.1,-2.564307894757E-14,-134.));
#679 = CARTESIAN_POINT('',(77.519272445364,1.122230280113E-14,
    -79.84359658809));
#680 = CARTESIAN_POINT('',(34.989405435005,2.704220358324E-14,
    8.192265131916));
#681 = CARTESIAN_POINT('',(48.412219079797,-1.189706666412E-13,
    64.334725954523));
#682 = CARTESIAN_POINT('',(27.24,1.644659442488E-14,134.));
#683 = CARTESIAN_POINT('',(32.100000000003,10.030656543969,-134.));
#684 = CARTESIAN_POINT('',(77.519272445363,24.752522293144,
    -79.84359658809));
#685 = CARTESIAN_POINT('',(34.989405435018,10.967206968898,
    8.192265131916));
#686 = CARTESIAN_POINT('',(48.412219079811,15.317978124321,
    64.334725954523));
#687 = CARTESIAN_POINT('',(27.240000000005,8.455372227667,134.));
#688 = CARTESIAN_POINT('',(25.137049005487,20.061316790465,-134.));
#689 = CARTESIAN_POINT('',(60.704228982247,49.505053722966,
    -79.84359658809));
#690 = CARTESIAN_POINT('',(27.399700906269,21.934417986084,
    8.192265131916));
#691 = CARTESIAN_POINT('',(37.910913503794,30.635961902777,
    64.334725954523));
#692 = CARTESIAN_POINT('',(21.331252800909,16.910747576394,134.));
#693 = CARTESIAN_POINT('',(11.211138115033,27.553512395916,-134.));
#694 = CARTESIAN_POINT('',(27.074120559442,67.993448568871,
    -79.84359658809));
#695 = CARTESIAN_POINT('',(12.220282146371,30.126150949398,
    8.192265131916));
#696 = CARTESIAN_POINT('',(16.908288927195,42.077415200052,
    64.334725954523));
#697 = CARTESIAN_POINT('',(9.513750849042,23.226316489438,134.));
#698 = CARTESIAN_POINT('',(-7.595200733078,29.969061266701,-134.));
#699 = CARTESIAN_POINT('',(-18.34188270707,73.954267485567,
    -79.84359658809));
#700 = CARTESIAN_POINT('',(-8.278864729537,32.76723673445,8.192265131916
    ));
#701 = CARTESIAN_POINT('',(-11.45484491755,45.76623901686,
    64.334725954523));
#702 = CARTESIAN_POINT('',(-6.4452731455,25.262510705362,134.));
#703 = CARTESIAN_POINT('',(-27.11729869901,25.679632843593,-134.));
#704 = CARTESIAN_POINT('',(-65.48639457455,63.369300070709,
    -79.84359658809));
#705 = CARTESIAN_POINT('',(-29.5581980831,28.077309500402,8.192265131916
    ));
#706 = CARTESIAN_POINT('',(-40.89746434436,39.215783375482,
    64.334725954523));
#707 = CARTESIAN_POINT('',(-23.01168898936,21.646724061435,134.));
#708 = CARTESIAN_POINT('',(-42.02023862314,14.882535231639,-134.));
#709 = CARTESIAN_POINT('',(-101.4759603125,36.725441000251,
    -79.84359658809));
#710 = CARTESIAN_POINT('',(-45.80259083115,16.272099777051,
    8.192265131916));
#711 = CARTESIAN_POINT('',(-63.37361364575,22.727360677584,
    64.334725954523));
#712 = CARTESIAN_POINT('',(-35.65829595318,12.545278020774,134.));
#713 = CARTESIAN_POINT('',(-47.63089812586,3.13957248772E-10,-134.));
#714 = CARTESIAN_POINT('',(-115.0253136651,8.197103801326E-10,
    -79.84359658809));
#715 = CARTESIAN_POINT('',(-51.91828055258,-2.519716012955E-10,
    8.192265131916));
#716 = CARTESIAN_POINT('',(-71.83543535874,1.011642244352E-09,
    64.334725954523));
#717 = CARTESIAN_POINT('',(-40.41949111981,2.567429617555E-10,134.));
#718 = CARTESIAN_POINT('',(-42.02023862314,-14.88253523221,-134.));
#719 = CARTESIAN_POINT('',(-101.4759603126,-36.72544100174,
    -79.84359658809));
#720 = CARTESIAN_POINT('',(-45.80259083116,-16.2720997766,8.192265131916
    ));
#721 = CARTESIAN_POINT('',(-63.37361364574,-22.72736067943,
    64.334725954523));
#722 = CARTESIAN_POINT('',(-35.65829595316,-12.54527802124,134.));
#723 = CARTESIAN_POINT('',(-27.117298699,-25.67963284315,-134.));
#724 = CARTESIAN_POINT('',(-65.48639457438,-63.36930006957,
    -79.84359658809));
#725 = CARTESIAN_POINT('',(-29.5581980831,-28.07730950072,8.192265131916
    ));
#726 = CARTESIAN_POINT('',(-40.89746434437,-39.21578337407,
    64.334725954523));
#727 = CARTESIAN_POINT('',(-23.01168898939,-21.64672406107,134.));
#728 = CARTESIAN_POINT('',(-7.595200733082,-29.96906126697,-134.));
#729 = CARTESIAN_POINT('',(-18.34188270721,-73.95426748626,
    -79.84359658809));
#730 = CARTESIAN_POINT('',(-8.278864729544,-32.76723673427,
    8.192265131916));
#731 = CARTESIAN_POINT('',(-11.45484491755,-45.76623901772,
    64.334725954523));
#732 = CARTESIAN_POINT('',(-6.445273145477,-25.26251070558,134.));
#733 = CARTESIAN_POINT('',(11.211138115035,-27.55351239577,-134.));
#734 = CARTESIAN_POINT('',(27.074120559526,-67.99344856852,
    -79.84359658809));
#735 = CARTESIAN_POINT('',(12.220282146378,-30.12615094947,
    8.192265131916));
#736 = CARTESIAN_POINT('',(16.908288927192,-42.07741519962,
    64.334725954523));
#737 = CARTESIAN_POINT('',(9.513750849028,-23.22631648933,134.));
#738 = CARTESIAN_POINT('',(25.137049005486,-20.06131679051,-134.));
#739 = CARTESIAN_POINT('',(60.704228982214,-49.50505372308,
    -79.84359658809));
#740 = CARTESIAN_POINT('',(27.399700906266,-21.93441798606,
    8.192265131916));
#741 = CARTESIAN_POINT('',(37.910913503795,-30.63596190292,
    64.334725954523));
#742 = CARTESIAN_POINT('',(21.331252800915,-16.91074757643,134.));
#743 = CARTESIAN_POINT('',(32.100000000003,-10.03065654395,-134.));
#744 = CARTESIAN_POINT('',(77.51927244537,-24.75252229311,
    -79.84359658809));
#745 = CARTESIAN_POINT('',(34.989405435018,-10.9672069689,8.192265131916
    ));
#746 = CARTESIAN_POINT('',(48.412219079811,-15.31797812428,
    64.334725954523));
#747 = CARTESIAN_POINT('',(27.240000000003,-8.455372227659,134.));
#748 = CARTESIAN_POINT('',(32.1,2.778630276841E-15,-134.));
#749 = CARTESIAN_POINT('',(77.519272445364,1.517253753152E-14,
    -79.84359658809));
#750 = CARTESIAN_POINT('',(34.989405435005,-3.122893899549E-14,
    8.192265131916));
#751 = CARTESIAN_POINT('',(48.412219079797,7.286590347136E-14,
    64.334725954523));
#752 = CARTESIAN_POINT('',(27.24,-1.908054253677E-14,134.));
#753 = DEFINITIONAL_REPRESENTATION('',(#754),#782);
#754 = B_SPLINE_CURVE_WITH_KNOTS('',6,(#755,#756,#757,#758,#759,#760,
    #761,#762,#763,#764,#765,#766,#767,#768,#769,#770,#771,#772,#773,
    #774,#775,#776,#777,#778,#779,#780,#781),.UNSPECIFIED.,.F.,.F.,(7,5,
    5,5,5,7),(0.,0.201931459657,0.405469372291,0.611763550618,
    0.820366752162,1.),.UNSPECIFIED.);
#755 = CARTESIAN_POINT('',(0.636200587619,9.420493216827E-02));
#756 = CARTESIAN_POINT('',(0.638119071804,0.100658139522));
#757 = CARTESIAN_POINT('',(0.639836041476,0.107119351791));
#758 = CARTESIAN_POINT('',(0.641381142135,0.113580821522));
#759 = CARTESIAN_POINT('',(0.64277644998,0.120036981579));
#760 = CARTESIAN_POINT('',(0.644039815946,0.126483932119));
#761 = CARTESIAN_POINT('',(0.646340966752,0.139405871629));
#762 = CARTESIAN_POINT('',(0.647376841587,0.145880455298));
#763 = CARTESIAN_POINT('',(0.648308402875,0.152340488034));
#764 = CARTESIAN_POINT('',(0.649147232539,0.158784266817));
#765 = CARTESIAN_POINT('',(0.649902872913,0.165210808411));
#766 = CARTESIAN_POINT('',(0.651272907108,0.178115588517));
#767 = CARTESIAN_POINT('',(0.651885244767,0.184593239317));
#768 = CARTESIAN_POINT('',(0.652428558714,0.191052378207));
#769 = CARTESIAN_POINT('',(0.652909521878,0.197492973356));
#770 = CARTESIAN_POINT('',(0.653333628745,0.203915316411));
#771 = CARTESIAN_POINT('',(0.65408174816,0.21679636986));
#772 = CARTESIAN_POINT('',(0.654404581101,0.223254623764));
#773 = CARTESIAN_POINT('',(0.654678956076,0.229695347201));
#774 = CARTESIAN_POINT('',(0.654908879395,0.236119250107));
#775 = CARTESIAN_POINT('',(0.655097715694,0.242527169105));
#776 = CARTESIAN_POINT('',(0.655378140247,0.254425151119));
#777 = CARTESIAN_POINT('',(0.655479589643,0.259919074338));
#778 = CARTESIAN_POINT('',(0.655554599615,0.265402443164));
#779 = CARTESIAN_POINT('',(0.655604775399,0.270875876037));
#780 = CARTESIAN_POINT('',(0.655631520849,0.276340012323));
#781 = CARTESIAN_POINT('',(0.655636092729,0.281795518316));
#782 = ( GEOMETRIC_REPRESENTATION_CONTEXT(2) 
PARAMETRIC_REPRESENTATION_CONTEXT() REPRESENTATION_CONTEXT('2D SPACE',''
  ) );
#783 = ADVANCED_FACE('',(#784),#530,.T.);
#784 = FACE_BOUND('',#785,.T.);
#785 = EDGE_LOOP('',(#786,#787,#788,#811));
#786 = ORIENTED_EDGE('',*,*,#568,.F.);
#787 = ORIENTED_EDGE('',*,*,#470,.F.);
#788 = ORIENTED_EDGE('',*,*,#789,.T.);
#789 = EDGE_CURVE('',#383,#790,#792,.T.);
#790 = VERTEX_POINT('',#791);
#791 = CARTESIAN_POINT('',(29.5,-30.93018921372,-62.));
#792 = SURFACE_CURVE('',#793,(#797,#804),.PCURVE_S1.);
#793 = LINE('',#794,#795);
#794 = CARTESIAN_POINT('',(29.5,-142.,-62.));
#795 = VECTOR('',#796,1.);
#796 = DIRECTION('',(0.,1.,0.));
#797 = PCURVE('',#530,#798);
#798 = DEFINITIONAL_REPRESENTATION('',(#799),#803);
#799 = LINE('',#800,#801);
#800 = CARTESIAN_POINT('',(59.,0.));
#801 = VECTOR('',#802,1.);
#802 = DIRECTION('',(0.,1.));
#803 = ( GEOMETRIC_REPRESENTATION_CONTEXT(2) 
PARAMETRIC_REPRESENTATION_CONTEXT() REPRESENTATION_CONTEXT('2D SPACE',''
  ) );
#804 = PCURVE('',#438,#805);
#805 = DEFINITIONAL_REPRESENTATION('',(#806),#810);
#806 = LINE('',#807,#808);
#807 = CARTESIAN_POINT('',(50.,0.));
#808 = VECTOR('',#809,1.);
#809 = DIRECTION('',(0.,-1.));
#810 = ( GEOMETRIC_REPRESENTATION_CONTEXT(2) 
PARAMETRIC_REPRESENTATION_CONTEXT() REPRESENTATION_CONTEXT('2D SPACE',''
  ) );
#811 = ORIENTED_EDGE('',*,*,#812,.T.);
#812 = EDGE_CURVE('',#790,#569,#813,.T.);
#813 = SURFACE_CURVE('',#814,(#865,#919),.PCURVE_S1.);
#814 = B_SPLINE_CURVE_WITH_KNOTS('',4,(#815,#816,#817,#818,#819,#820,
    #821,#822,#823,#824,#825,#826,#827,#828,#829,#830,#831,#832,#833,
    #834,#835,#836,#837,#838,#839,#840,#841,#842,#843,#844,#845,#846,
    #847,#848,#849,#850,#851,#852,#853,#854,#855,#856,#857,#858,#859,
    #860,#861,#862,#863,#864),.UNSPECIFIED.,.F.,.F.,(5,3,3,3,3,3,3,3,3,3
    ,3,3,3,3,3,3,5),(0.,5.999679930906E-02,0.12076913605,0.18251344231,
    0.244823420505,0.308077885191,0.371851473407,0.435974952723,
    0.500001635537,0.564300518561,0.628422866561,0.692194585587,
    0.755179779847,0.817753207287,0.879493633768,0.940261522701,1.),
  .UNSPECIFIED.);
#815 = CARTESIAN_POINT('',(29.5,-30.93018921372,-62.));
#816 = CARTESIAN_POINT('',(28.675918321164,-31.32243419351,-62.));
#817 = CARTESIAN_POINT('',(27.843593984665,-31.69736033048,-62.));
#818 = CARTESIAN_POINT('',(27.003826124443,-32.05524718109,-62.));
#819 = CARTESIAN_POINT('',(25.299821442675,-32.74186521042,-62.));
#820 = CARTESIAN_POINT('',(24.435409929018,-33.07015928042,-62.));
#821 = CARTESIAN_POINT('',(23.564767900162,-33.38150038203,-62.));
#822 = CARTESIAN_POINT('',(21.798225551062,-33.97545807662,-62.));
#823 = CARTESIAN_POINT('',(20.90214511377,-34.25753535254,-62.));
#824 = CARTESIAN_POINT('',(20.000901431022,-34.52260091086,-62.));
#825 = CARTESIAN_POINT('',(18.180903042974,-35.02139817684,-62.));
#826 = CARTESIAN_POINT('',(17.262064561197,-35.25482041654,-62.));
#827 = CARTESIAN_POINT('',(16.339109274687,-35.471342233,-62.));
#828 = CARTESIAN_POINT('',(14.471938522539,-35.87395651694,-62.));
#829 = CARTESIAN_POINT('',(13.527613757505,-36.05953790954,-62.));
#830 = CARTESIAN_POINT('',(12.580104789989,-36.2280587266,-62.));
#831 = CARTESIAN_POINT('',(10.671886977242,-36.53249251946,-62.));
#832 = CARTESIAN_POINT('',(9.711134431938,-36.66812649624,-62.));
#833 = CARTESIAN_POINT('',(8.748132999527,-36.78669341196,-62.));
#834 = CARTESIAN_POINT('',(6.813261081841,-36.9904340396,-62.));
#835 = CARTESIAN_POINT('',(5.841371666511,-37.07542095675,-62.));
#836 = CARTESIAN_POINT('',(4.868144198509,-37.14333909535,-62.));
#837 = CARTESIAN_POINT('',(2.921380226384,-37.24505393142,-62.));
#838 = CARTESIAN_POINT('',(1.947847095045,-37.27890197707,-62.));
#839 = CARTESIAN_POINT('',(0.973873944207,-37.29582536214,-62.));
#840 = CARTESIAN_POINT('',(-0.978213688821,-37.29582276328,-62.));
#841 = CARTESIAN_POINT('',(-1.956327494923,-37.27875256772,-62.));
#842 = CARTESIAN_POINT('',(-2.933995609699,-37.24461349802,-62.));
#843 = CARTESIAN_POINT('',(-4.884854457399,-37.142244148,-62.));
#844 = CARTESIAN_POINT('',(-5.858049418443,-37.07410772831,-62.));
#845 = CARTESIAN_POINT('',(-6.829902459309,-36.98890253215,-62.));
#846 = CARTESIAN_POINT('',(-8.764682670586,-36.78472733847,-62.));
#847 = CARTESIAN_POINT('',(-9.727628855725,-36.66594453401,-62.));
#848 = CARTESIAN_POINT('',(-10.68832220227,-36.53009468307,-62.));
#849 = CARTESIAN_POINT('',(-12.59239696775,-36.22587237005,-62.));
#850 = CARTESIAN_POINT('',(-13.53584498048,-36.05792172625,-62.));
#851 = CARTESIAN_POINT('',(-14.47613355311,-35.87305467627,-62.));
#852 = CARTESIAN_POINT('',(-16.34321662261,-35.47045386102,-62.));
#853 = CARTESIAN_POINT('',(-17.27005826773,-35.25294294464,-62.));
#854 = CARTESIAN_POINT('',(-18.19274600781,-35.01838763965,-62.));
#855 = CARTESIAN_POINT('',(-20.01643233809,-34.5181083358,-62.));
#856 = CARTESIAN_POINT('',(-20.91755514974,-34.25284098655,-62.));
#857 = CARTESIAN_POINT('',(-21.81351026068,-33.97056210873,-62.));
#858 = CARTESIAN_POINT('',(-23.57978547835,-33.37620759215,-62.));
#859 = CARTESIAN_POINT('',(-24.45028596575,-33.0646716147,-62.));
#860 = CARTESIAN_POINT('',(-25.31455123258,-32.73618299344,-62.));
#861 = CARTESIAN_POINT('',(-27.01467281288,-32.05062347174,-62.));
#862 = CARTESIAN_POINT('',(-27.85076112784,-31.69413143874,-62.));
#863 = CARTESIAN_POINT('',(-28.67946648352,-31.32074533331,-62.));
#864 = CARTESIAN_POINT('',(-29.5,-30.93018920359,-62.));
#865 = PCURVE('',#530,#866);
#866 = DEFINITIONAL_REPRESENTATION('',(#867),#918);
#867 = B_SPLINE_CURVE_WITH_KNOTS('',4,(#868,#869,#870,#871,#872,#873,
    #874,#875,#876,#877,#878,#879,#880,#881,#882,#883,#884,#885,#886,
    #887,#888,#889,#890,#891,#892,#893,#894,#895,#896,#897,#898,#899,
    #900,#901,#902,#903,#904,#905,#906,#907,#908,#909,#910,#911,#912,
    #913,#914,#915,#916,#917),.UNSPECIFIED.,.F.,.F.,(5,3,3,3,3,3,3,3,3,3
    ,3,3,3,3,3,3,5),(0.,5.999679930906E-02,0.12076913605,0.18251344231,
    0.244823420505,0.308077885191,0.371851473407,0.435974952723,
    0.500001635537,0.564300518561,0.628422866561,0.692194585587,
    0.755179779847,0.817753207287,0.879493633768,0.940261522701,1.),
  .UNSPECIFIED.);
#868 = CARTESIAN_POINT('',(59.,111.06981078628));
#869 = CARTESIAN_POINT('',(58.175918321164,110.67756580648));
#870 = CARTESIAN_POINT('',(57.343593984665,110.30263966951));
#871 = CARTESIAN_POINT('',(56.503826124443,109.9447528189));
#872 = CARTESIAN_POINT('',(54.799821442675,109.25813478957));
#873 = CARTESIAN_POINT('',(53.935409929018,108.92984071957));
#874 = CARTESIAN_POINT('',(53.064767900162,108.61849961797));
#875 = CARTESIAN_POINT('',(51.298225551062,108.02454192337));
#876 = CARTESIAN_POINT('',(50.40214511377,107.74246464745));
#877 = CARTESIAN_POINT('',(49.500901431022,107.47739908913));
#878 = CARTESIAN_POINT('',(47.680903042974,106.97860182315));
#879 = CARTESIAN_POINT('',(46.762064561197,106.74517958345));
#880 = CARTESIAN_POINT('',(45.839109274687,106.52865776699));
#881 = CARTESIAN_POINT('',(43.971938522539,106.12604348305));
#882 = CARTESIAN_POINT('',(43.027613757505,105.94046209045));
#883 = CARTESIAN_POINT('',(42.080104789989,105.77194127339));
#884 = CARTESIAN_POINT('',(40.171886977242,105.46750748053));
#885 = CARTESIAN_POINT('',(39.211134431938,105.33187350375));
#886 = CARTESIAN_POINT('',(38.248132999527,105.21330658803));
#887 = CARTESIAN_POINT('',(36.313261081841,105.00956596039));
#888 = CARTESIAN_POINT('',(35.341371666511,104.92457904324));
#889 = CARTESIAN_POINT('',(34.368144198509,104.85666090464));
#890 = CARTESIAN_POINT('',(32.421380226384,104.75494606858));
#891 = CARTESIAN_POINT('',(31.447847095045,104.72109802292));
#892 = CARTESIAN_POINT('',(30.473873944207,104.70417463785));
#893 = CARTESIAN_POINT('',(28.521786311179,104.70417723671));
#894 = CARTESIAN_POINT('',(27.543672505077,104.72124743227));
#895 = CARTESIAN_POINT('',(26.566004390301,104.75538650197));
#896 = CARTESIAN_POINT('',(24.615145542601,104.857755852));
#897 = CARTESIAN_POINT('',(23.641950581557,104.92589227168));
#898 = CARTESIAN_POINT('',(22.670097540691,105.01109746784));
#899 = CARTESIAN_POINT('',(20.735317329414,105.21527266152));
#900 = CARTESIAN_POINT('',(19.772371144275,105.33405546598));
#901 = CARTESIAN_POINT('',(18.811677797729,105.46990531692));
#902 = CARTESIAN_POINT('',(16.907603032246,105.77412762994));
#903 = CARTESIAN_POINT('',(15.96415501952,105.94207827374));
#904 = CARTESIAN_POINT('',(15.023866446881,106.12694532372));
#905 = CARTESIAN_POINT('',(13.156783377385,106.52954613898));
#906 = CARTESIAN_POINT('',(12.229941732265,106.74705705536));
#907 = CARTESIAN_POINT('',(11.307253992185,106.98161236034));
#908 = CARTESIAN_POINT('',(9.483567661907,107.48189166419));
#909 = CARTESIAN_POINT('',(8.582444850258,107.74715901344));
#910 = CARTESIAN_POINT('',(7.686489739312,108.02943789126));
#911 = CARTESIAN_POINT('',(5.920214521649,108.62379240785));
#912 = CARTESIAN_POINT('',(5.049714034245,108.9353283853));
#913 = CARTESIAN_POINT('',(4.185448767418,109.26381700655));
#914 = CARTESIAN_POINT('',(2.485327187115,109.94937652825));
#915 = CARTESIAN_POINT('',(1.649238872153,110.30586856125));
#916 = CARTESIAN_POINT('',(0.820533516479,110.67925466668));
#917 = CARTESIAN_POINT('',(0.,111.0698107964));
#918 = ( GEOMETRIC_REPRESENTATION_CONTEXT(2) 
PARAMETRIC_REPRESENTATION_CONTEXT() REPRESENTATION_CONTEXT('2D SPACE',''
  ) );
#919 = PCURVE('',#677,#920);
#920 = DEFINITIONAL_REPRESENTATION('',(#921),#972);
#921 = B_SPLINE_CURVE_WITH_KNOTS('',4,(#922,#923,#924,#925,#926,#927,
    #928,#929,#930,#931,#932,#933,#934,#935,#936,#937,#938,#939,#940,
    #941,#942,#943,#944,#945,#946,#947,#948,#949,#950,#951,#952,#953,
    #954,#955,#956,#957,#958,#959,#960,#961,#962,#963,#964,#965,#966,
    #967,#968,#969,#970,#971),.UNSPECIFIED.,.F.,.F.,(5,3,3,3,3,3,3,3,3,3
    ,3,3,3,3,3,3,5),(0.,5.999679930906E-02,0.12076913605,0.18251344231,
    0.244823420505,0.308077885191,0.371851473407,0.435974952723,
    0.500001635537,0.564300518561,0.628422866561,0.692194585587,
    0.755179779847,0.817753207287,0.879493633768,0.940261522701,1.),
  .UNSPECIFIED.);
#922 = CARTESIAN_POINT('',(0.84436390666,0.281795518542));
#923 = CARTESIAN_POINT('',(0.841368321565,0.281795518542));
#924 = CARTESIAN_POINT('',(0.838393424311,0.281795518542));
#925 = CARTESIAN_POINT('',(0.83543772452,0.281795518542));
#926 = CARTESIAN_POINT('',(0.829523896934,0.281795518542));
#927 = CARTESIAN_POINT('',(0.826566233251,0.281795518542));
#928 = CARTESIAN_POINT('',(0.823625329884,0.281795518542));
#929 = CARTESIAN_POINT('',(0.817727449747,0.281795518542));
#930 = CARTESIAN_POINT('',(0.814770969277,0.281795518542));
#931 = CARTESIAN_POINT('',(0.811828873841,0.281795518542));
#932 = CARTESIAN_POINT('',(0.80594383247,0.281795518542));
#933 = CARTESIAN_POINT('',(0.803001126399,0.281795518542));
#934 = CARTESIAN_POINT('',(0.800070221602,0.281795518542));
#935 = CARTESIAN_POINT('',(0.794185023532,0.281795518542));
#936 = CARTESIAN_POINT('',(0.7912310496,0.281795518542));
#937 = CARTESIAN_POINT('',(0.788286410806,0.281795518542));
#938 = CARTESIAN_POINT('',(0.782388973069,0.281795518542));
#939 = CARTESIAN_POINT('',(0.779436305759,0.281795518542));
#940 = CARTESIAN_POINT('',(0.776490342125,0.281795518542));
#941 = CARTESIAN_POINT('',(0.770592980842,0.281795518542));
#942 = CARTESIAN_POINT('',(0.767641642212,0.281795518542));
#943 = CARTESIAN_POINT('',(0.764694336201,0.281795518542));
#944 = CARTESIAN_POINT('',(0.758809537003,0.281795518542));
#945 = CARTESIAN_POINT('',(0.755872035807,0.281795518542));
#946 = CARTESIAN_POINT('',(0.752935867955,0.281795518542));
#947 = CARTESIAN_POINT('',(0.74705104935,0.281795518542));
#948 = CARTESIAN_POINT('',(0.744102398667,0.281795518542));
#949 = CARTESIAN_POINT('',(0.741152397437,0.281795518542));
#950 = CARTESIAN_POINT('',(0.735255081025,0.281795518542));
#951 = CARTESIAN_POINT('',(0.732307780794,0.281795518542));
#952 = CARTESIAN_POINT('',(0.72935643643,0.281795518542));
#953 = CARTESIAN_POINT('',(0.723459074887,0.281795518542));
#954 = CARTESIAN_POINT('',(0.720513116979,0.281795518542));
#955 = CARTESIAN_POINT('',(0.717560444014,0.281795518542));
#956 = CARTESIAN_POINT('',(0.711675387713,0.281795518542));
#957 = CARTESIAN_POINT('',(0.708743203544,0.281795518542));
#958 = CARTESIAN_POINT('',(0.705801757407,0.281795518542));
#959 = CARTESIAN_POINT('',(0.69991682893,0.281795518542));
#960 = CARTESIAN_POINT('',(0.696973486061,0.281795518542));
#961 = CARTESIAN_POINT('',(0.694018235975,0.281795518542));
#962 = CARTESIAN_POINT('',(0.688120541752,0.281795518542));
#963 = CARTESIAN_POINT('',(0.685178451572,0.281795518542));
#964 = CARTESIAN_POINT('',(0.682221965907,0.281795518542));
#965 = CARTESIAN_POINT('',(0.676324084876,0.281795518542));
#966 = CARTESIAN_POINT('',(0.67338318646,0.281795518542));
#967 = CARTESIAN_POINT('',(0.670425517837,0.281795518542));
#968 = CARTESIAN_POINT('',(0.664524096252,0.281795518542));
#969 = CARTESIAN_POINT('',(0.661580957872,0.281795518542));
#970 = CARTESIAN_POINT('',(0.658618780621,0.281795518542));
#971 = CARTESIAN_POINT('',(0.655636093304,0.281795518542));
#972 = ( GEOMETRIC_REPRESENTATION_CONTEXT(2) 
PARAMETRIC_REPRESENTATION_CONTEXT() REPRESENTATION_CONTEXT('2D SPACE',''
  ) );
#973 = ADVANCED_FACE('',(#974),#438,.T.);
#974 = FACE_BOUND('',#975,.T.);
#975 = EDGE_LOOP('',(#976,#977,#978,#1001));
#976 = ORIENTED_EDGE('',*,*,#789,.F.);
#977 = ORIENTED_EDGE('',*,*,#382,.F.);
#978 = ORIENTED_EDGE('',*,*,#979,.T.);
#979 = EDGE_CURVE('',#253,#980,#982,.T.);
#980 = VERTEX_POINT('',#981);
#981 = CARTESIAN_POINT('',(29.5,-23.90785302754,-112.));
#982 = SURFACE_CURVE('',#983,(#987,#994),.PCURVE_S1.);
#983 = LINE('',#984,#985);
#984 = CARTESIAN_POINT('',(29.5,-142.,-112.));
#985 = VECTOR('',#986,1.);
#986 = DIRECTION('',(0.,1.,0.));
#987 = PCURVE('',#438,#988);
#988 = DEFINITIONAL_REPRESENTATION('',(#989),#993);
#989 = LINE('',#990,#991);
#990 = CARTESIAN_POINT('',(0.,0.));
#991 = VECTOR('',#992,1.);
#992 = DIRECTION('',(0.,-1.));
#993 = ( GEOMETRIC_REPRESENTATION_CONTEXT(2) 
PARAMETRIC_REPRESENTATION_CONTEXT() REPRESENTATION_CONTEXT('2D SPACE',''
  ) );
#994 = PCURVE('',#336,#995);
#995 = DEFINITIONAL_REPRESENTATION('',(#996),#1000);
#996 = LINE('',#997,#998);
#997 = CARTESIAN_POINT('',(59.,0.));
#998 = VECTOR('',#999,1.);
#999 = DIRECTION('',(0.,1.));
#1000 = ( GEOMETRIC_REPRESENTATION_CONTEXT(2) 
PARAMETRIC_REPRESENTATION_CONTEXT() REPRESENTATION_CONTEXT('2D SPACE',''
  ) );
#1001 = ORIENTED_EDGE('',*,*,#1002,.T.);
#1002 = EDGE_CURVE('',#980,#790,#1003,.T.);
#1003 = SURFACE_CURVE('',#1004,(#1032,#1063),.PCURVE_S1.);
#1004 = B_SPLINE_CURVE_WITH_KNOTS('',6,(#1005,#1006,#1007,#1008,#1009,
    #1010,#1011,#1012,#1013,#1014,#1015,#1016,#1017,#1018,#1019,#1020,
    #1021,#1022,#1023,#1024,#1025,#1026,#1027,#1028,#1029,#1030,#1031),
  .UNSPECIFIED.,.F.,.F.,(7,5,5,5,5,7),(0.,0.201931458903,0.40546937153,
    0.611763549834,0.82036675135,1.),.UNSPECIFIED.);
#1005 = CARTESIAN_POINT('',(29.5,-23.90785302754,-112.));
#1006 = CARTESIAN_POINT('',(29.5,-24.49872480814,-110.3977181955));
#1007 = CARTESIAN_POINT('',(29.5,-25.04754751417,-108.7799717958));
#1008 = CARTESIAN_POINT('',(29.5,-25.55713004365,-107.1492639623));
#1009 = CARTESIAN_POINT('',(29.5,-26.02994225846,-105.5076544622));
#1010 = CARTESIAN_POINT('',(29.5,-26.46827069523,-103.8568090986));
#1011 = CARTESIAN_POINT('',(29.5,-27.28340029013,-100.5259939999));
#1012 = CARTESIAN_POINT('',(29.5,-27.6596706753,-98.84595379799));
#1013 = CARTESIAN_POINT('',(29.5,-28.00518436526,-97.15921921507));
#1014 = CARTESIAN_POINT('',(29.5,-28.32187590817,-95.46690826224));
#1015 = CARTESIAN_POINT('',(29.5,-28.61152323602,-93.76992954197));
#1016 = CARTESIAN_POINT('',(29.5,-29.14357535188,-90.34500590453));
#1017 = CARTESIAN_POINT('',(29.5,-29.38528320777,-88.61698176115));
#1018 = CARTESIAN_POINT('',(29.5,-29.6025827529,-86.8856584791));
#1019 = CARTESIAN_POINT('',(29.5,-29.7970149028,-85.15165983687));
#1020 = CARTESIAN_POINT('',(29.5,-29.96998659018,-83.41549018291));
#1021 = CARTESIAN_POINT('',(29.5,-30.2773135269,-79.92013214905));
#1022 = CARTESIAN_POINT('',(29.5,-30.41121333995,-78.16091968851));
#1023 = CARTESIAN_POINT('',(29.5,-30.52583304907,-76.40030916962));
#1024 = CARTESIAN_POINT('',(29.5,-30.62239108163,-74.63864057355));
#1025 = CARTESIAN_POINT('',(29.5,-30.70200276635,-72.87618592857));
#1026 = CARTESIAN_POINT('',(29.5,-30.82054664612,-69.59495802563));
#1027 = CARTESIAN_POINT('',(29.5,-30.8635925185,-68.07634076784));
#1028 = CARTESIAN_POINT('',(29.5,-30.89549182742,-66.55743359745));
#1029 = CARTESIAN_POINT('',(29.5,-30.91685308966,-65.03834994345));
#1030 = CARTESIAN_POINT('',(29.5,-30.92824240851,-63.51918183191));
#1031 = CARTESIAN_POINT('',(29.5,-30.93018921372,-62.));
#1032 = PCURVE('',#438,#1033);
#1033 = DEFINITIONAL_REPRESENTATION('',(#1034),#1062);
#1034 = B_SPLINE_CURVE_WITH_KNOTS('',6,(#1035,#1036,#1037,#1038,#1039,
    #1040,#1041,#1042,#1043,#1044,#1045,#1046,#1047,#1048,#1049,#1050,
    #1051,#1052,#1053,#1054,#1055,#1056,#1057,#1058,#1059,#1060,#1061),
  .UNSPECIFIED.,.F.,.F.,(7,5,5,5,5,7),(0.,0.201931458903,0.40546937153,
    0.611763549834,0.82036675135,1.),.UNSPECIFIED.);
#1035 = CARTESIAN_POINT('',(0.,-118.0921469724));
#1036 = CARTESIAN_POINT('',(1.602281804437,-117.5012751918));
#1037 = CARTESIAN_POINT('',(3.22002820413,-116.9524524858));
#1038 = CARTESIAN_POINT('',(4.850736037694,-116.4428699563));
#1039 = CARTESIAN_POINT('',(6.492345537726,-115.9700577415));
#1040 = CARTESIAN_POINT('',(8.143190901371,-115.5317293047));
#1041 = CARTESIAN_POINT('',(11.474006000089,-114.7165997098));
#1042 = CARTESIAN_POINT('',(13.154046202003,-114.3403293246));
#1043 = CARTESIAN_POINT('',(14.840780784921,-113.9948156347));
#1044 = CARTESIAN_POINT('',(16.533091737751,-113.6781240918));
#1045 = CARTESIAN_POINT('',(18.230070458029,-113.3884767639));
#1046 = CARTESIAN_POINT('',(21.654994095462,-112.8564246481));
#1047 = CARTESIAN_POINT('',(23.383018238846,-112.6147167922));
#1048 = CARTESIAN_POINT('',(25.114341520891,-112.397417247));
#1049 = CARTESIAN_POINT('',(26.848340163128,-112.2029850971));
#1050 = CARTESIAN_POINT('',(28.584509817083,-112.0300134098));
#1051 = CARTESIAN_POINT('',(32.079867850947,-111.7226864731));
#1052 = CARTESIAN_POINT('',(33.839080311481,-111.58878666));
#1053 = CARTESIAN_POINT('',(35.599690830375,-111.4741669509));
#1054 = CARTESIAN_POINT('',(37.361359426446,-111.3776089183));
#1055 = CARTESIAN_POINT('',(39.12381407143,-111.2979972336));
#1056 = CARTESIAN_POINT('',(42.405041974369,-111.1794533538));
#1057 = CARTESIAN_POINT('',(43.923659232153,-111.1364074814));
#1058 = CARTESIAN_POINT('',(45.442566402543,-111.1045081725));
#1059 = CARTESIAN_POINT('',(46.961650056549,-111.0831469103));
#1060 = CARTESIAN_POINT('',(48.480818168089,-111.0717575914));
#1061 = CARTESIAN_POINT('',(50.,-111.0698107862));
#1062 = ( GEOMETRIC_REPRESENTATION_CONTEXT(2) 
PARAMETRIC_REPRESENTATION_CONTEXT() REPRESENTATION_CONTEXT('2D SPACE',''
  ) );
#1063 = PCURVE('',#677,#1064);
#1064 = DEFINITIONAL_REPRESENTATION('',(#1065),#1093);
#1065 = B_SPLINE_CURVE_WITH_KNOTS('',6,(#1066,#1067,#1068,#1069,#1070,
    #1071,#1072,#1073,#1074,#1075,#1076,#1077,#1078,#1079,#1080,#1081,
    #1082,#1083,#1084,#1085,#1086,#1087,#1088,#1089,#1090,#1091,#1092),
  .UNSPECIFIED.,.F.,.F.,(7,5,5,5,5,7),(0.,0.201931458903,0.40546937153,
    0.611763549834,0.82036675135,1.),.UNSPECIFIED.);
#1066 = CARTESIAN_POINT('',(0.863799412357,9.420493216827E-02));
#1067 = CARTESIAN_POINT('',(0.861880928178,0.100658139495));
#1068 = CARTESIAN_POINT('',(0.86016395851,0.107119351738));
#1069 = CARTESIAN_POINT('',(0.858618857854,0.113580821444));
#1070 = CARTESIAN_POINT('',(0.857223550012,0.120036981476));
#1071 = CARTESIAN_POINT('',(0.855960184047,0.126483931991));
#1072 = CARTESIAN_POINT('',(0.85365903324,0.139405871476));
#1073 = CARTESIAN_POINT('',(0.852623158403,0.145880455145));
#1074 = CARTESIAN_POINT('',(0.851691597113,0.152340487881));
#1075 = CARTESIAN_POINT('',(0.850852767446,0.158784266664));
#1076 = CARTESIAN_POINT('',(0.85009712707,0.165210808258));
#1077 = CARTESIAN_POINT('',(0.848727092872,0.178115588364));
#1078 = CARTESIAN_POINT('',(0.848114755211,0.184593239165));
#1079 = CARTESIAN_POINT('',(0.847571441262,0.191052378055));
#1080 = CARTESIAN_POINT('',(0.847090478098,0.197492973203));
#1081 = CARTESIAN_POINT('',(0.846666371229,0.203915316258));
#1082 = CARTESIAN_POINT('',(0.845918251812,0.216796369708));
#1083 = CARTESIAN_POINT('',(0.845595418871,0.223254623612));
#1084 = CARTESIAN_POINT('',(0.845321043894,0.229695347048));
#1085 = CARTESIAN_POINT('',(0.845091120575,0.236119249954));
#1086 = CARTESIAN_POINT('',(0.844902284275,0.242527168953));
#1087 = CARTESIAN_POINT('',(0.84462185972,0.254425150992));
#1088 = CARTESIAN_POINT('',(0.844520410323,0.259919074237));
#1089 = CARTESIAN_POINT('',(0.84444540035,0.265402443089));
#1090 = CARTESIAN_POINT('',(0.844395224566,0.270875875987));
#1091 = CARTESIAN_POINT('',(0.844368479115,0.276340012298));
#1092 = CARTESIAN_POINT('',(0.844363907235,0.281795518316));
#1093 = ( GEOMETRIC_REPRESENTATION_CONTEXT(2) 
PARAMETRIC_REPRESENTATION_CONTEXT() REPRESENTATION_CONTEXT('2D SPACE',''
  ) );
#1094 = ADVANCED_FACE('',(#1095),#336,.F.);
#1095 = FACE_BOUND('',#1096,.F.);
#1096 = EDGE_LOOP('',(#1097,#1098,#1099,#1100));
#1097 = ORIENTED_EDGE('',*,*,#592,.F.);
#1098 = ORIENTED_EDGE('',*,*,#252,.F.);
#1099 = ORIENTED_EDGE('',*,*,#979,.T.);
#1100 = ORIENTED_EDGE('',*,*,#1101,.T.);
#1101 = EDGE_CURVE('',#980,#593,#1102,.T.);
#1102 = SURFACE_CURVE('',#1103,(#1154,#1208),.PCURVE_S1.);
#1103 = B_SPLINE_CURVE_WITH_KNOTS('',4,(#1104,#1105,#1106,#1107,#1108,
    #1109,#1110,#1111,#1112,#1113,#1114,#1115,#1116,#1117,#1118,#1119,
    #1120,#1121,#1122,#1123,#1124,#1125,#1126,#1127,#1128,#1129,#1130,
    #1131,#1132,#1133,#1134,#1135,#1136,#1137,#1138,#1139,#1140,#1141,
    #1142,#1143,#1144,#1145,#1146,#1147,#1148,#1149,#1150,#1151,#1152,
    #1153),.UNSPECIFIED.,.F.,.F.,(5,3,3,3,3,3,3,3,3,3,3,3,3,3,3,3,5),(0.
    ,6.374159014447E-02,0.12907325503,0.179185602385,0.230098192894,
    0.296712393997,0.363979548974,0.431840391762,0.50000137353,
    0.568390738921,0.636250056665,0.703514708494,0.769904459444,
    0.820817011321,0.870929314558,0.936260913327,1.),.UNSPECIFIED.);
#1104 = CARTESIAN_POINT('',(29.5,-23.90785302754,-112.));
#1105 = CARTESIAN_POINT('',(28.660264577464,-24.42095163484,-112.));
#1106 = CARTESIAN_POINT('',(27.805334646793,-24.90917760488,-112.));
#1107 = CARTESIAN_POINT('',(26.937023904172,-25.37304051357,-112.));
#1108 = CARTESIAN_POINT('',(25.154587621337,-26.26402981227,-112.));
#1109 = CARTESIAN_POINT('',(24.239864244879,-26.6899487,-112.));
#1110 = CARTESIAN_POINT('',(23.31417965702,-27.09134701658,-112.));
#1111 = CARTESIAN_POINT('',(21.661316933279,-27.75817238164,-112.));
#1112 = CARTESIAN_POINT('',(20.938132507169,-28.03349090613,-112.));
#1113 = CARTESIAN_POINT('',(20.209816620948,-28.29489006095,-112.));
#1114 = CARTESIAN_POINT('',(18.732203187027,-28.79419257492,-112.));
#1115 = CARTESIAN_POINT('',(17.982757222878,-29.03165386252,-112.));
#1116 = CARTESIAN_POINT('',(17.229041445047,-29.25515082615,-112.));
#1117 = CARTESIAN_POINT('',(15.480346741762,-29.73923392883,-112.));
#1118 = CARTESIAN_POINT('',(14.48265135786,-29.99000083683,-112.));
#1119 = CARTESIAN_POINT('',(13.47943008557,-30.21754169724,-112.));
#1120 = CARTESIAN_POINT('',(11.453793174807,-30.6287568664,-112.));
#1121 = CARTESIAN_POINT('',(10.431288245821,-30.81197914362,-112.));
#1122 = CARTESIAN_POINT('',(9.404931531244,-30.97211179532,-112.));
#1123 = CARTESIAN_POINT('',(7.337026680155,-31.2478064458,-112.));
#1124 = CARTESIAN_POINT('',(6.29542655783,-31.36296253464,-112.));
#1125 = CARTESIAN_POINT('',(5.251542150486,-31.45502574612,-112.));
#1126 = CARTESIAN_POINT('',(3.156109452085,-31.59347525854,-112.));
#1127 = CARTESIAN_POINT('',(2.10454963536,-31.6396577215,-112.));
#1128 = CARTESIAN_POINT('',(1.052232864507,-31.66274829413,-112.));
#1129 = CARTESIAN_POINT('',(-1.055928445029,-31.66274549836,-112.));
#1130 = CARTESIAN_POINT('',(-2.111771087152,-31.63949712435,-112.));
#1131 = CARTESIAN_POINT('',(-3.166849100356,-31.59300185166,-112.));
#1132 = CARTESIAN_POINT('',(-5.265745364644,-31.45384976029,-112.));
#1133 = CARTESIAN_POINT('',(-6.309585563007,-31.36155352142,-112.));
#1134 = CARTESIAN_POINT('',(-7.351136236332,-31.24616440432,-112.));
#1135 = CARTESIAN_POINT('',(-9.418916609543,-30.97000709502,-112.));
#1136 = CARTESIAN_POINT('',(-10.44519847939,-30.80964549366,-112.));
#1137 = CARTESIAN_POINT('',(-11.4676231413,-30.62619429547,-112.));
#1138 = CARTESIAN_POINT('',(-13.48973061751,-30.21520552229,-112.));
#1139 = CARTESIAN_POINT('',(-14.48953387196,-29.98827259079,-112.));
#1140 = CARTESIAN_POINT('',(-15.48384498667,-29.73826854623,-112.));
#1141 = CARTESIAN_POINT('',(-17.22919812027,-29.25510512565,-112.));
#1142 = CARTESIAN_POINT('',(-17.98291268504,-29.03160616772,-112.));
#1143 = CARTESIAN_POINT('',(-18.73235739276,-28.79414288768,-112.));
#1144 = CARTESIAN_POINT('',(-20.20996815325,-28.29483645202,-112.));
#1145 = CARTESIAN_POINT('',(-20.93828262502,-28.03343537125,-112.));
#1146 = CARTESIAN_POINT('',(-21.66146559096,-27.75811492412,-112.));
#1147 = CARTESIAN_POINT('',(-23.3143247155,-27.09128518583,-112.));
#1148 = CARTESIAN_POINT('',(-24.24000713277,-26.68988442689,-112.));
#1149 = CARTESIAN_POINT('',(-25.15472825219,-26.26396310663,-112.));
#1150 = CARTESIAN_POINT('',(-26.93712620756,-25.3729858581,-112.));
#1151 = CARTESIAN_POINT('',(-27.80540179702,-24.90913925693,-112.));
#1152 = CARTESIAN_POINT('',(-28.6602975562,-24.42093148916,-112.));
#1153 = CARTESIAN_POINT('',(-29.5,-23.90785303736,-112.));
#1154 = PCURVE('',#336,#1155);
#1155 = DEFINITIONAL_REPRESENTATION('',(#1156),#1207);
#1156 = B_SPLINE_CURVE_WITH_KNOTS('',4,(#1157,#1158,#1159,#1160,#1161,
    #1162,#1163,#1164,#1165,#1166,#1167,#1168,#1169,#1170,#1171,#1172,
    #1173,#1174,#1175,#1176,#1177,#1178,#1179,#1180,#1181,#1182,#1183,
    #1184,#1185,#1186,#1187,#1188,#1189,#1190,#1191,#1192,#1193,#1194,
    #1195,#1196,#1197,#1198,#1199,#1200,#1201,#1202,#1203,#1204,#1205,
    #1206),.UNSPECIFIED.,.F.,.F.,(5,3,3,3,3,3,3,3,3,3,3,3,3,3,3,3,5),(0.
    ,6.374159014447E-02,0.12907325503,0.179185602385,0.230098192894,
    0.296712393997,0.363979548974,0.431840391762,0.50000137353,
    0.568390738921,0.636250056665,0.703514708494,0.769904459444,
    0.820817011321,0.870929314558,0.936260913327,1.),.UNSPECIFIED.);
#1157 = CARTESIAN_POINT('',(59.,118.09214697245));
#1158 = CARTESIAN_POINT('',(58.160264577464,117.57904836515));
#1159 = CARTESIAN_POINT('',(57.305334646793,117.09082239511));
#1160 = CARTESIAN_POINT('',(56.437023904172,116.62695948643));
#1161 = CARTESIAN_POINT('',(54.654587621337,115.73597018772));
#1162 = CARTESIAN_POINT('',(53.739864244879,115.31005129999));
#1163 = CARTESIAN_POINT('',(52.81417965702,114.90865298341));
#1164 = CARTESIAN_POINT('',(51.161316933279,114.24182761835));
#1165 = CARTESIAN_POINT('',(50.438132507169,113.96650909386));
#1166 = CARTESIAN_POINT('',(49.709816620948,113.70510993904));
#1167 = CARTESIAN_POINT('',(48.232203187027,113.20580742507));
#1168 = CARTESIAN_POINT('',(47.482757222878,112.96834613747));
#1169 = CARTESIAN_POINT('',(46.729041445047,112.74484917384));
#1170 = CARTESIAN_POINT('',(44.980346741762,112.26076607117));
#1171 = CARTESIAN_POINT('',(43.98265135786,112.00999916316));
#1172 = CARTESIAN_POINT('',(42.97943008557,111.78245830275));
#1173 = CARTESIAN_POINT('',(40.953793174807,111.37124313359));
#1174 = CARTESIAN_POINT('',(39.931288245821,111.18802085637));
#1175 = CARTESIAN_POINT('',(38.904931531244,111.02788820468));
#1176 = CARTESIAN_POINT('',(36.837026680155,110.75219355419));
#1177 = CARTESIAN_POINT('',(35.79542655783,110.63703746535));
#1178 = CARTESIAN_POINT('',(34.751542150486,110.54497425387));
#1179 = CARTESIAN_POINT('',(32.656109452085,110.40652474145));
#1180 = CARTESIAN_POINT('',(31.60454963536,110.3603422785));
#1181 = CARTESIAN_POINT('',(30.552232864507,110.33725170586));
#1182 = CARTESIAN_POINT('',(28.444071554971,110.33725450163));
#1183 = CARTESIAN_POINT('',(27.388228912848,110.36050287564));
#1184 = CARTESIAN_POINT('',(26.333150899644,110.40699814833));
#1185 = CARTESIAN_POINT('',(24.234254635356,110.5461502397));
#1186 = CARTESIAN_POINT('',(23.190414436993,110.63844647857));
#1187 = CARTESIAN_POINT('',(22.148863763668,110.75383559567));
#1188 = CARTESIAN_POINT('',(20.081083390457,111.02999290498));
#1189 = CARTESIAN_POINT('',(19.054801520606,111.19035450633));
#1190 = CARTESIAN_POINT('',(18.032376858695,111.37380570452));
#1191 = CARTESIAN_POINT('',(16.010269382487,111.7847944777));
#1192 = CARTESIAN_POINT('',(15.010466128034,112.0117274092));
#1193 = CARTESIAN_POINT('',(14.016155013327,112.26173145377));
#1194 = CARTESIAN_POINT('',(12.270801879726,112.74489487434));
#1195 = CARTESIAN_POINT('',(11.51708731496,112.96839383227));
#1196 = CARTESIAN_POINT('',(10.767642607233,113.20585711231));
#1197 = CARTESIAN_POINT('',(9.290031846743,113.70516354797));
#1198 = CARTESIAN_POINT('',(8.561717374977,113.96656462874));
#1199 = CARTESIAN_POINT('',(7.838534409035,114.24188507587));
#1200 = CARTESIAN_POINT('',(6.185675284494,114.90871481416));
#1201 = CARTESIAN_POINT('',(5.259992867223,115.3101155731));
#1202 = CARTESIAN_POINT('',(4.345271747809,115.73603689336));
#1203 = CARTESIAN_POINT('',(2.562873792434,116.62701414189));
#1204 = CARTESIAN_POINT('',(1.694598202973,117.09086074306));
#1205 = CARTESIAN_POINT('',(0.839702443791,117.57906851083));
#1206 = CARTESIAN_POINT('',(0.,118.09214696263));
#1207 = ( GEOMETRIC_REPRESENTATION_CONTEXT(2) 
PARAMETRIC_REPRESENTATION_CONTEXT() REPRESENTATION_CONTEXT('2D SPACE',''
  ) );
#1208 = PCURVE('',#677,#1209);
#1209 = DEFINITIONAL_REPRESENTATION('',(#1210),#1261);
#1210 = B_SPLINE_CURVE_WITH_KNOTS('',4,(#1211,#1212,#1213,#1214,#1215,
    #1216,#1217,#1218,#1219,#1220,#1221,#1222,#1223,#1224,#1225,#1226,
    #1227,#1228,#1229,#1230,#1231,#1232,#1233,#1234,#1235,#1236,#1237,
    #1238,#1239,#1240,#1241,#1242,#1243,#1244,#1245,#1246,#1247,#1248,
    #1249,#1250,#1251,#1252,#1253,#1254,#1255,#1256,#1257,#1258,#1259,
    #1260),.UNSPECIFIED.,.F.,.F.,(5,3,3,3,3,3,3,3,3,3,3,3,3,3,3,3,5),(0.
    ,6.374159014447E-02,0.12907325503,0.179185602385,0.230098192894,
    0.296712393997,0.363979548974,0.431840391762,0.50000137353,
    0.568390738921,0.636250056665,0.703514708494,0.769904459444,
    0.820817011321,0.870929314558,0.936260913327,1.),.UNSPECIFIED.);
#1211 = CARTESIAN_POINT('',(0.863799412415,9.420493216827E-02));
#1212 = CARTESIAN_POINT('',(0.859865628622,9.420493216827E-02));
#1213 = CARTESIAN_POINT('',(0.855973226822,9.420493216827E-02));
#1214 = CARTESIAN_POINT('',(0.852118996511,9.420493216827E-02));
#1215 = CARTESIAN_POINT('',(0.844385367557,9.420493216827E-02));
#1216 = CARTESIAN_POINT('',(0.840507749441,9.420493216827E-02));
#1217 = CARTESIAN_POINT('',(0.836663612065,9.420493216827E-02));
#1218 = CARTESIAN_POINT('',(0.829924432305,9.420493216827E-02));
#1219 = CARTESIAN_POINT('',(0.827016909806,9.420493216827E-02));
#1220 = CARTESIAN_POINT('',(0.824125810092,9.420493216827E-02));
#1221 = CARTESIAN_POINT('',(0.818327833724,9.420493216827E-02));
#1222 = CARTESIAN_POINT('',(0.815421443398,9.420493216827E-02));
#1223 = CARTESIAN_POINT('',(0.812529201961,9.420493216827E-02));
#1224 = CARTESIAN_POINT('',(0.805882315386,9.420493216827E-02));
#1225 = CARTESIAN_POINT('',(0.802136792172,9.420493216827E-02));
#1226 = CARTESIAN_POINT('',(0.798410207704,9.420493216827E-02));
#1227 = CARTESIAN_POINT('',(0.790952929624,9.420493216827E-02));
#1228 = CARTESIAN_POINT('',(0.787222555089,9.420493216827E-02));
#1229 = CARTESIAN_POINT('',(0.783505739677,9.420493216827E-02));
#1230 = CARTESIAN_POINT('',(0.776061023319,9.420493216827E-02));
#1231 = CARTESIAN_POINT('',(0.772333314703,9.420493216827E-02));
#1232 = CARTESIAN_POINT('',(0.768613789665,9.420493216827E-02));
#1233 = CARTESIAN_POINT('',(0.761169219277,9.420493216827E-02));
#1234 = CARTESIAN_POINT('',(0.757444222571,9.420493216827E-02));
#1235 = CARTESIAN_POINT('',(0.753721961389,9.420493216827E-02));
#1236 = CARTESIAN_POINT('',(0.746264966614,9.420493216827E-02));
#1237 = CARTESIAN_POINT('',(0.742530233215,9.420493216827E-02));
#1238 = CARTESIAN_POINT('',(0.738792736514,9.420493216827E-02));
#1239 = CARTESIAN_POINT('',(0.731335637923,9.420493216827E-02));
#1240 = CARTESIAN_POINT('',(0.72761612215,9.420493216827E-02));
#1241 = CARTESIAN_POINT('',(0.723888404389,9.420493216827E-02));
#1242 = CARTESIAN_POINT('',(0.716443687362,9.420493216827E-02));
#1243 = CARTESIAN_POINT('',(0.71272688107,9.420493216827E-02));
#1244 = CARTESIAN_POINT('',(0.708996497587,9.420493216827E-02));
#1245 = CARTESIAN_POINT('',(0.701551529726,9.420493216827E-02));
#1246 = CARTESIAN_POINT('',(0.697837372214,9.420493216827E-02));
#1247 = CARTESIAN_POINT('',(0.694104393146,9.420493216827E-02));
#1248 = CARTESIAN_POINT('',(0.687470198219,9.420493216827E-02));
#1249 = CARTESIAN_POINT('',(0.684577956843,9.420493216827E-02));
#1250 = CARTESIAN_POINT('',(0.681671566457,9.420493216827E-02));
#1251 = CARTESIAN_POINT('',(0.675873590079,9.420493216827E-02));
#1252 = CARTESIAN_POINT('',(0.672982490423,9.420493216827E-02));
#1253 = CARTESIAN_POINT('',(0.670074967866,9.420493216827E-02));
#1254 = CARTESIAN_POINT('',(0.663335788214,9.420493216827E-02));
#1255 = CARTESIAN_POINT('',(0.65949165093,9.420493216827E-02));
#1256 = CARTESIAN_POINT('',(0.65561403272,9.420493216827E-02));
#1257 = CARTESIAN_POINT('',(0.647880549353,9.420493216827E-02));
#1258 = CARTESIAN_POINT('',(0.644026467516,9.420493216827E-02));
#1259 = CARTESIAN_POINT('',(0.640134216781,9.420493216827E-02));
#1260 = CARTESIAN_POINT('',(0.636200587482,9.420493216827E-02));
#1261 = ( GEOMETRIC_REPRESENTATION_CONTEXT(2) 
PARAMETRIC_REPRESENTATION_CONTEXT() REPRESENTATION_CONTEXT('2D SPACE',''
  ) );
#1262 = ADVANCED_FACE('',(#1263),#677,.F.);
#1263 = FACE_BOUND('',#1264,.F.);
#1264 = EDGE_LOOP('',(#1265,#1266,#1267,#1268));
#1265 = ORIENTED_EDGE('',*,*,#615,.F.);
#1266 = ORIENTED_EDGE('',*,*,#1101,.F.);
#1267 = ORIENTED_EDGE('',*,*,#1002,.T.);
#1268 = ORIENTED_EDGE('',*,*,#812,.T.);
#1269 = ( GEOMETRIC_REPRESENTATION_CONTEXT(3) 
GLOBAL_UNCERTAINTY_ASSIGNED_CONTEXT((#1273)) 
GLOBAL_UNIT_ASSIGNED_CONTEXT((#1270,#1271,#1272)) REPRESENTATION_CONTEXT
('Context #1','3D Context with UNIT and UNCERTAINTY') );
#1270 = ( LENGTH_UNIT() NAMED_UNIT(*) SI_UNIT(.MILLI.,.METRE.) );
#1271 = ( NAMED_UNIT(*) PLANE_ANGLE_UNIT() SI_UNIT($,.RADIAN.) );
#1272 = ( NAMED_UNIT(*) SI_UNIT($,.STERADIAN.) SOLID_ANGLE_UNIT() );
#1273 = UNCERTAINTY_MEASURE_WITH_UNIT(LENGTH_MEASURE(5.E-06),#1270,
  'distance_accuracy_value','confusion accuracy');
#1274 = PRODUCT_RELATED_PRODUCT_CATEGORY('part',$,(#7));
ENDSEC;
END-ISO-10303-21;
