ISO-10303-21;
HEADER;
FILE_DESCRIPTION(('Open CASCADE Model'),'2;1');
FILE_NAME('Open CASCADE Shape Model','2026-09-05T04:29:44',('Author'),(
    'Open CASCADE'),'Open CASCADE STEP processor 7.8','Open CASCADE 7.8'
  ,'Unknown');
FILE_SCHEMA(('AUTOMOTIVE_DESIGN { 1 0 10303 214 1 1 1 1 }'));
ENDSEC;
DATA;
#1 = APPLICATION_PROTOCOL_DEFINITION('international standard',
  'automotive_design',2000,#2);
#2 = APPLICATION_CONTEXT(
  'core data for automotive mechanical design processes');
#3 = SHAPE_DEFINITION_REPRESENTATION(#4,#10);
#4 = PRODUCT_DEFINITION_SHAPE('','',#5);
#5 = PRODUCT_DEFINITION('design','',#6,#9);
#6 = PRODUCT_DEFINITION_FORMATION('','',#7);
#7 = PRODUCT('Open CASCADE STEP translator 7.8 6',
  'Open CASCADE STEP translator 7.8 6','',(#8));
#8 = PRODUCT_CONTEXT('',#2,'mechanical');
#9 = PRODUCT_DEFINITION_CONTEXT('part definition',#2,'design');
#10 = ADVANCED_BREP_SHAPE_REPRESENTATION('',(#11,#15),#1297);
#11 = AXIS2_PLACEMENT_3D('',#12,#13,#14);
#12 = CARTESIAN_POINT('',(0.,0.,0.));
#13 = DIRECTION('',(0.,0.,1.));
#14 = DIRECTION('',(1.,0.,-0.));
#15 = MANIFOLD_SOLID_BREP('',#16);
#16 = CLOSED_SHELL('',(#17,#617,#784,#1188,#1259,#1290));
#17 = ADVANCED_FACE('',(#18),#44,.T.);
#18 = FACE_BOUND('',#19,.T.);
#19 = EDGE_LOOP('',(#20,#150,#182,#234));
#20 = ORIENTED_EDGE('',*,*,#21,.T.);
#21 = EDGE_CURVE('',#22,#24,#26,.T.);
#22 = VERTEX_POINT('',#23);
#23 = CARTESIAN_POINT('',(-38.34999999491,4.440892098501E-15,-82.));
#24 = VERTEX_POINT('',#25);
#25 = CARTESIAN_POINT('',(38.35,0.,-82.));
#26 = SURFACE_CURVE('',#27,(#43,#126),.PCURVE_S1.);
#27 = B_SPLINE_CURVE_WITH_KNOTS('',14,(#28,#29,#30,#31,#32,#33,#34,#35,
    #36,#37,#38,#39,#40,#41,#42),.UNSPECIFIED.,.T.,.F.,(15,15),(0.,1.),
  .PIECEWISE_BEZIER_KNOTS.);
#28 = CARTESIAN_POINT('',(38.35,-1.806939060149E-14,-82.));
#29 = CARTESIAN_POINT('',(38.350000000011,9.043298852842,-82.));
#30 = CARTESIAN_POINT('',(30.031334247956,18.086601043743,-82.));
#31 = CARTESIAN_POINT('',(13.393992109485,24.841309833483,-82.));
#32 = CARTESIAN_POINT('',(-9.074017075388,27.019086555824,-82.));
#33 = CARTESIAN_POINT('',(-32.3971465762,23.151883749474,-82.));
#34 = CARTESIAN_POINT('',(-50.20174925895,13.417587691913,-82.));
#35 = CARTESIAN_POINT('',(-56.90482688818,4.515913186803E-10,-82.));
#36 = CARTESIAN_POINT('',(-50.20174925895,-13.41758769273,-82.));
#37 = CARTESIAN_POINT('',(-32.3971465762,-23.15188374884,-82.));
#38 = CARTESIAN_POINT('',(-9.074017075389,-27.01908655621,-82.));
#39 = CARTESIAN_POINT('',(13.393992109486,-24.84130983329,-82.));
#40 = CARTESIAN_POINT('',(30.031334247957,-18.08660104381,-82.));
#41 = CARTESIAN_POINT('',(38.350000000011,-9.043298852827,-82.));
#42 = CARTESIAN_POINT('',(38.35,1.03523186432E-14,-82.));
#43 = PCURVE('',#44,#120);
#44 = ( BOUNDED_SURFACE() B_SPLINE_SURFACE(14,4,(
    (#45,#46,#47,#48,#49)
    ,(#50,#51,#52,#53,#54)
    ,(#55,#56,#57,#58,#59)
    ,(#60,#61,#62,#63,#64)
    ,(#65,#66,#67,#68,#69)
    ,(#70,#71,#72,#73,#74)
    ,(#75,#76,#77,#78,#79)
    ,(#80,#81,#82,#83,#84)
    ,(#85,#86,#87,#88,#89)
    ,(#90,#91,#92,#93,#94)
    ,(#95,#96,#97,#98,#99)
    ,(#100,#101,#102,#103,#104)
    ,(#105,#106,#107,#108,#109)
    ,(#110,#111,#112,#113,#114)
    ,(#115,#116,#117,#118,#119
)),.UNSPECIFIED.,.T.,.F.,.F.) B_SPLINE_SURFACE_WITH_KNOTS((15,15),(5,5),
  (0.,1.),(0.,1.),.PIECEWISE_BEZIER_KNOTS.) 
GEOMETRIC_REPRESENTATION_ITEM() RATIONAL_B_SPLINE_SURFACE((
    (1.,1.,1.,1.,1.)
    ,(1.,1.,1.,1.,1.)
    ,(1.,1.,1.,1.,1.)
    ,(1.,1.,1.,1.,1.)
    ,(1.,1.,1.,1.,1.)
    ,(1.,1.,1.,1.,1.)
    ,(1.,1.,1.,1.,1.)
    ,(1.,1.,1.,1.,1.)
    ,(1.,1.,1.,1.,1.)
    ,(1.,1.,1.,1.,1.)
    ,(1.,1.,1.,1.,1.)
    ,(1.,1.,1.,1.,1.)
    ,(1.,1.,1.,1.,1.)
    ,(1.,1.,1.,1.,1.)
,(1.,1.,1.,1.,1.))) REPRESENTATION_ITEM('') SURFACE() );
#45 = CARTESIAN_POINT('',(38.35,-1.806939060149E-14,-82.));
#46 = CARTESIAN_POINT('',(82.67698175165,1.40715165874E-13,
    -58.37469820884));
#47 = CARTESIAN_POINT('',(48.354537343835,-1.1354676313E-13,
    10.181560023757));
#48 = CARTESIAN_POINT('',(53.68580173917,8.840922490944E-14,
    37.996344167293));
#49 = CARTESIAN_POINT('',(33.04,-1.172842520672E-14,82.));
#50 = CARTESIAN_POINT('',(38.350000000011,9.043298852842,-82.));
#51 = CARTESIAN_POINT('',(82.676981751701,19.49602748973,-58.37469820884
    ));
#52 = CARTESIAN_POINT('',(48.354537343771,11.402464982815,
    10.181560023757));
#53 = CARTESIAN_POINT('',(53.685801739207,12.659628403692,
    37.996344167293));
#54 = CARTESIAN_POINT('',(33.040000000001,7.791149780908,82.));
#55 = CARTESIAN_POINT('',(30.031334247956,18.086601043743,-82.));
#56 = CARTESIAN_POINT('',(64.743157068872,38.99206217582,-58.37469820884
    ));
#57 = CARTESIAN_POINT('',(37.8657437651,22.804934174547,10.181560023757)
  );
#58 = CARTESIAN_POINT('',(42.040580349277,25.319261480326,
    37.996344167293));
#59 = CARTESIAN_POINT('',(25.873149505972,15.582302437695,82.));
#60 = CARTESIAN_POINT('',(13.393992109485,24.841309833483,-82.));
#61 = CARTESIAN_POINT('',(28.875484777852,53.55422476638,-58.37469820884
    ));
#62 = CARTESIAN_POINT('',(16.888143196958,31.321774289679,
    10.181560023757));
#63 = CARTESIAN_POINT('',(18.750122683078,34.775114332723,
    37.996344167293));
#64 = CARTESIAN_POINT('',(11.539439355749,21.401743856514,82.));
#65 = CARTESIAN_POINT('',(-9.074017075388,27.019086555824,-82.));
#66 = CARTESIAN_POINT('',(-19.56225147802,58.249192336899,
    -58.37469820884));
#67 = CARTESIAN_POINT('',(-11.44119680449,34.067677441159,
    10.181560023757));
#68 = CARTESIAN_POINT('',(-12.70263055299,37.823763338014,
    37.996344167293));
#69 = CARTESIAN_POINT('',(-7.817614710859,23.277982263531,82.));
#70 = CARTESIAN_POINT('',(-32.3971465762,23.151883749474,-82.));
#71 = CARTESIAN_POINT('',(-69.84350185775,49.91206962909,-58.37469820884
    ));
#72 = CARTESIAN_POINT('',(-40.84873622112,29.191620008568,
    10.181560023757));
#73 = CARTESIAN_POINT('',(-45.35245861729,32.410102760294,
    37.996344167293));
#74 = CARTESIAN_POINT('',(-27.9113878199,19.946238307153,82.));
#75 = CARTESIAN_POINT('',(-50.20174925895,13.417587691913,-82.));
#76 = CARTESIAN_POINT('',(-108.2276168823,28.926353396326,
    -58.37469820884));
#77 = CARTESIAN_POINT('',(-63.2981058435,16.917894266896,10.181560023757
    ));
#78 = CARTESIAN_POINT('',(-70.2769532651,18.783153915331,37.996344167293
    ));
#79 = CARTESIAN_POINT('',(-43.25073782254,11.559767857764,82.));
#80 = CARTESIAN_POINT('',(-56.90482688818,4.515913186803E-10,-82.));
#81 = CARTESIAN_POINT('',(-122.6784702517,1.183859718814E-09,
    -58.37469820884));
#82 = CARTESIAN_POINT('',(-71.749845554,-1.361690199916E-10,
    10.181560023757));
#83 = CARTESIAN_POINT('',(-79.66052814278,4.319436710874E-10,
    37.996344167293));
#84 = CARTESIAN_POINT('',(-49.02569701196,2.611123462933E-10,82.));
#85 = CARTESIAN_POINT('',(-50.20174925895,-13.41758769273,-82.));
#86 = CARTESIAN_POINT('',(-108.2276168823,-28.92635339848,
    -58.37469820884));
#87 = CARTESIAN_POINT('',(-63.29810584346,-16.91789426665,
    10.181560023757));
#88 = CARTESIAN_POINT('',(-70.27695326512,-18.78315391612,
    37.996344167293));
#89 = CARTESIAN_POINT('',(-43.25073782255,-11.55976785824,82.));
#90 = CARTESIAN_POINT('',(-32.3971465762,-23.15188374884,-82.));
#91 = CARTESIAN_POINT('',(-69.84350185769,-49.91206962745,
    -58.37469820884));
#92 = CARTESIAN_POINT('',(-40.84873622115,-29.19162000872,
    10.181560023757));
#93 = CARTESIAN_POINT('',(-45.35245861727,-32.41010275969,
    37.996344167293));
#94 = CARTESIAN_POINT('',(-27.91138781989,-19.94623830678,82.));
#95 = CARTESIAN_POINT('',(-9.074017075389,-27.01908655621,-82.));
#96 = CARTESIAN_POINT('',(-19.56225147806,-58.2491923379,-58.37469820884
    ));
#97 = CARTESIAN_POINT('',(-11.44119680448,-34.06767744108,
    10.181560023757));
#98 = CARTESIAN_POINT('',(-12.702630553,-37.82376333838,37.996344167293)
  );
#99 = CARTESIAN_POINT('',(-7.817614710872,-23.27798226376,82.));
#100 = CARTESIAN_POINT('',(13.393992109486,-24.84130983329,-82.));
#101 = CARTESIAN_POINT('',(28.875484777874,-53.55422476589,
    -58.37469820884));
#102 = CARTESIAN_POINT('',(16.888143196964,-31.3217742897,
    10.181560023757));
#103 = CARTESIAN_POINT('',(18.750122683075,-34.77511433254,
    37.996344167293));
#104 = CARTESIAN_POINT('',(11.539439355757,-21.4017438564,82.));
#105 = CARTESIAN_POINT('',(30.031334247957,-18.08660104381,-82.));
#106 = CARTESIAN_POINT('',(64.743157068865,-38.99206217599,
    -58.37469820884));
#107 = CARTESIAN_POINT('',(37.865743765091,-22.80493417454,
    10.181560023757));
#108 = CARTESIAN_POINT('',(42.040580349281,-25.31926148039,
    37.996344167293));
#109 = CARTESIAN_POINT('',(25.873149505969,-15.58230243773,82.));
#110 = CARTESIAN_POINT('',(38.350000000011,-9.043298852827,-82.));
#111 = CARTESIAN_POINT('',(82.676981751702,-19.49602748969,
    -58.37469820884));
#112 = CARTESIAN_POINT('',(48.354537343775,-11.40246498281,
    10.181560023757));
#113 = CARTESIAN_POINT('',(53.685801739205,-12.65962840367,
    37.996344167293));
#114 = CARTESIAN_POINT('',(33.040000000001,-7.791149780899,82.));
#115 = CARTESIAN_POINT('',(38.35,1.03523186432E-14,-82.));
#116 = CARTESIAN_POINT('',(82.67698175165,-1.81654627303E-13,
    -58.37469820884));
#117 = CARTESIAN_POINT('',(48.354537343835,2.564100807107E-13,
    10.181560023757));
#118 = CARTESIAN_POINT('',(53.68580173917,-1.635184345695E-13,
    37.996344167293));
#119 = CARTESIAN_POINT('',(33.04,9.587856706086E-15,82.));
#120 = DEFINITIONAL_REPRESENTATION('',(#121),#125);
#121 = LINE('',#122,#123);
#122 = CARTESIAN_POINT('',(0.,0.));
#123 = VECTOR('',#124,1.);
#124 = DIRECTION('',(1.,0.));
#125 = ( GEOMETRIC_REPRESENTATION_CONTEXT(2) 
PARAMETRIC_REPRESENTATION_CONTEXT() REPRESENTATION_CONTEXT('2D SPACE',''
  ) );
#126 = PCURVE('',#127,#132);
#127 = PLANE('',#128);
#128 = AXIS2_PLACEMENT_3D('',#129,#130,#131);
#129 = CARTESIAN_POINT('',(38.35,-1.806939060149E-14,-82.));
#130 = DIRECTION('',(0.,0.,-1.));
#131 = DIRECTION('',(-1.,2.934847809842E-16,0.));
#132 = DEFINITIONAL_REPRESENTATION('',(#133),#149);
#133 = B_SPLINE_CURVE_WITH_KNOTS('',14,(#134,#135,#136,#137,#138,#139,
    #140,#141,#142,#143,#144,#145,#146,#147,#148),.UNSPECIFIED.,.F.,.F.,
  (15,15),(0.,1.),.PIECEWISE_BEZIER_KNOTS.);
#134 = CARTESIAN_POINT('',(0.,0.));
#135 = CARTESIAN_POINT('',(-1.075051159205E-11,9.043298852842));
#136 = CARTESIAN_POINT('',(8.318665752043,18.086601043743));
#137 = CARTESIAN_POINT('',(24.956007890515,24.841309833483));
#138 = CARTESIAN_POINT('',(47.424017075388,27.019086555824));
#139 = CARTESIAN_POINT('',(70.747146576207,23.151883749474));
#140 = CARTESIAN_POINT('',(88.55174925895,13.417587691913));
#141 = CARTESIAN_POINT('',(95.254826888187,4.515814322289E-10));
#142 = CARTESIAN_POINT('',(88.551749258951,-13.41758769273));
#143 = CARTESIAN_POINT('',(70.747146576205,-23.15188374884));
#144 = CARTESIAN_POINT('',(47.424017075389,-27.01908655621));
#145 = CARTESIAN_POINT('',(24.956007890514,-24.84130983329));
#146 = CARTESIAN_POINT('',(8.318665752043,-18.08660104381));
#147 = CARTESIAN_POINT('',(-1.076472244677E-11,-9.043298852827));
#148 = CARTESIAN_POINT('',(7.105427357601E-15,2.842170924469E-14));
#149 = ( GEOMETRIC_REPRESENTATION_CONTEXT(2) 
PARAMETRIC_REPRESENTATION_CONTEXT() REPRESENTATION_CONTEXT('2D SPACE',''
  ) );
#150 = ORIENTED_EDGE('',*,*,#151,.T.);
#151 = EDGE_CURVE('',#24,#152,#154,.T.);
#152 = VERTEX_POINT('',#153);
#153 = CARTESIAN_POINT('',(33.04,0.,82.));
#154 = SURFACE_CURVE('',#155,(#161,#168),.PCURVE_S1.);
#155 = ( BOUNDED_CURVE() B_SPLINE_CURVE(4,(#156,#157,#158,#159,#160),
.UNSPECIFIED.,.F.,.F.) B_SPLINE_CURVE_WITH_KNOTS((5,5),(0.,1.),
.PIECEWISE_BEZIER_KNOTS.) CURVE() GEOMETRIC_REPRESENTATION_ITEM() 
RATIONAL_B_SPLINE_CURVE((1.,1.,1.,1.,1.)) REPRESENTATION_ITEM('') );
#156 = CARTESIAN_POINT('',(38.35,-1.806939060149E-14,-82.));
#157 = CARTESIAN_POINT('',(82.67698175165,1.40715165874E-13,
    -58.37469820884));
#158 = CARTESIAN_POINT('',(48.354537343835,-1.1354676313E-13,
    10.181560023757));
#159 = CARTESIAN_POINT('',(53.68580173917,8.840922490944E-14,
    37.996344167293));
#160 = CARTESIAN_POINT('',(33.04,-1.172842520672E-14,82.));
#161 = PCURVE('',#44,#162);
#162 = DEFINITIONAL_REPRESENTATION('',(#163),#167);
#163 = LINE('',#164,#165);
#164 = CARTESIAN_POINT('',(1.,0.));
#165 = VECTOR('',#166,1.);
#166 = DIRECTION('',(0.,1.));
#167 = ( GEOMETRIC_REPRESENTATION_CONTEXT(2) 
PARAMETRIC_REPRESENTATION_CONTEXT() REPRESENTATION_CONTEXT('2D SPACE',''
  ) );
#168 = PCURVE('',#169,#174);
#169 = PLANE('',#170);
#170 = AXIS2_PLACEMENT_3D('',#171,#172,#173);
#171 = CARTESIAN_POINT('',(-118.,0.,-98.4));
#172 = DIRECTION('',(0.,1.,0.));
#173 = DIRECTION('',(0.,0.,1.));
#174 = DEFINITIONAL_REPRESENTATION('',(#175),#181);
#175 = ( BOUNDED_CURVE() B_SPLINE_CURVE(4,(#176,#177,#178,#179,#180),
.UNSPECIFIED.,.F.,.F.) B_SPLINE_CURVE_WITH_KNOTS((5,5),(0.,1.),
.PIECEWISE_BEZIER_KNOTS.) CURVE() GEOMETRIC_REPRESENTATION_ITEM() 
RATIONAL_B_SPLINE_CURVE((1.,1.,1.,1.,1.)) REPRESENTATION_ITEM('') );
#176 = CARTESIAN_POINT('',(16.4,156.35));
#177 = CARTESIAN_POINT('',(40.025301791153,200.67698175165));
#178 = CARTESIAN_POINT('',(108.58156002375,166.35453734383));
#179 = CARTESIAN_POINT('',(136.39634416729,171.68580173917));
#180 = CARTESIAN_POINT('',(180.4,151.04));
#181 = ( GEOMETRIC_REPRESENTATION_CONTEXT(2) 
PARAMETRIC_REPRESENTATION_CONTEXT() REPRESENTATION_CONTEXT('2D SPACE',''
  ) );
#182 = ORIENTED_EDGE('',*,*,#183,.F.);
#183 = EDGE_CURVE('',#184,#152,#186,.T.);
#184 = VERTEX_POINT('',#185);
#185 = CARTESIAN_POINT('',(-33.03999999562,-2.062696122012E-14,82.));
#186 = SURFACE_CURVE('',#187,(#203,#210),.PCURVE_S1.);
#187 = B_SPLINE_CURVE_WITH_KNOTS('',14,(#188,#189,#190,#191,#192,#193,
    #194,#195,#196,#197,#198,#199,#200,#201,#202),.UNSPECIFIED.,.T.,.F.,
  (15,15),(0.,1.),.PIECEWISE_BEZIER_KNOTS.);
#188 = CARTESIAN_POINT('',(33.04,-1.172842520672E-14,82.));
#189 = CARTESIAN_POINT('',(33.040000000001,7.791149780908,82.));
#190 = CARTESIAN_POINT('',(25.873149505972,15.582302437695,82.));
#191 = CARTESIAN_POINT('',(11.539439355749,21.401743856514,82.));
#192 = CARTESIAN_POINT('',(-7.817614710859,23.277982263531,82.));
#193 = CARTESIAN_POINT('',(-27.9113878199,19.946238307153,82.));
#194 = CARTESIAN_POINT('',(-43.25073782254,11.559767857764,82.));
#195 = CARTESIAN_POINT('',(-49.02569701196,2.611123462933E-10,82.));
#196 = CARTESIAN_POINT('',(-43.25073782255,-11.55976785824,82.));
#197 = CARTESIAN_POINT('',(-27.91138781989,-19.94623830678,82.));
#198 = CARTESIAN_POINT('',(-7.817614710872,-23.27798226376,82.));
#199 = CARTESIAN_POINT('',(11.539439355757,-21.4017438564,82.));
#200 = CARTESIAN_POINT('',(25.873149505969,-15.58230243773,82.));
#201 = CARTESIAN_POINT('',(33.040000000001,-7.791149780899,82.));
#202 = CARTESIAN_POINT('',(33.04,9.587856706086E-15,82.));
#203 = PCURVE('',#44,#204);
#204 = DEFINITIONAL_REPRESENTATION('',(#205),#209);
#205 = LINE('',#206,#207);
#206 = CARTESIAN_POINT('',(0.,1.));
#207 = VECTOR('',#208,1.);
#208 = DIRECTION('',(1.,0.));
#209 = ( GEOMETRIC_REPRESENTATION_CONTEXT(2) 
PARAMETRIC_REPRESENTATION_CONTEXT() REPRESENTATION_CONTEXT('2D SPACE',''
  ) );
#210 = PCURVE('',#211,#216);
#211 = PLANE('',#212);
#212 = AXIS2_PLACEMENT_3D('',#213,#214,#215);
#213 = CARTESIAN_POINT('',(33.04,-1.172842520672E-14,82.));
#214 = DIRECTION('',(0.,0.,-1.));
#215 = DIRECTION('',(-1.,2.480532976881E-16,0.));
#216 = DEFINITIONAL_REPRESENTATION('',(#217),#233);
#217 = B_SPLINE_CURVE_WITH_KNOTS('',14,(#218,#219,#220,#221,#222,#223,
    #224,#225,#226,#227,#228,#229,#230,#231,#232),.UNSPECIFIED.,.F.,.F.,
  (15,15),(0.,1.),.PIECEWISE_BEZIER_KNOTS.);
#218 = CARTESIAN_POINT('',(0.,0.));
#219 = CARTESIAN_POINT('',(-6.963318810449E-13,7.791149780908));
#220 = CARTESIAN_POINT('',(7.166850494028,15.582302437695));
#221 = CARTESIAN_POINT('',(21.500560644251,21.401743856514));
#222 = CARTESIAN_POINT('',(40.857614710859,23.277982263531));
#223 = CARTESIAN_POINT('',(60.951387819908,19.946238307153));
#224 = CARTESIAN_POINT('',(76.290737822549,11.559767857764));
#225 = CARTESIAN_POINT('',(82.06569701196,2.611037180517E-10));
#226 = CARTESIAN_POINT('',(76.290737822558,-11.55976785824));
#227 = CARTESIAN_POINT('',(60.951387819894,-19.94623830678));
#228 = CARTESIAN_POINT('',(40.857614710872,-23.27798226376));
#229 = CARTESIAN_POINT('',(21.500560644243,-21.4017438564));
#230 = CARTESIAN_POINT('',(7.166850494031,-15.58230243773));
#231 = CARTESIAN_POINT('',(-1.399769189447E-12,-7.791149780899));
#232 = CARTESIAN_POINT('',(2.84217094304E-14,2.13162819128E-14));
#233 = ( GEOMETRIC_REPRESENTATION_CONTEXT(2) 
PARAMETRIC_REPRESENTATION_CONTEXT() REPRESENTATION_CONTEXT('2D SPACE',''
  ) );
#234 = ORIENTED_EDGE('',*,*,#235,.F.);
#235 = EDGE_CURVE('',#22,#184,#236,.T.);
#236 = SURFACE_CURVE('',#237,(#360,#486),.PCURVE_S1.);
#237 = B_SPLINE_CURVE_WITH_KNOTS('',6,(#238,#239,#240,#241,#242,#243,
    #244,#245,#246,#247,#248,#249,#250,#251,#252,#253,#254,#255,#256,
    #257,#258,#259,#260,#261,#262,#263,#264,#265,#266,#267,#268,#269,
    #270,#271,#272,#273,#274,#275,#276,#277,#278,#279,#280,#281,#282,
    #283,#284,#285,#286,#287,#288,#289,#290,#291,#292,#293,#294,#295,
    #296,#297,#298,#299,#300,#301,#302,#303,#304,#305,#306,#307,#308,
    #309,#310,#311,#312,#313,#314,#315,#316,#317,#318,#319,#320,#321,
    #322,#323,#324,#325,#326,#327,#328,#329,#330,#331,#332,#333,#334,
    #335,#336,#337,#338,#339,#340,#341,#342,#343,#344,#345,#346,#347,
    #348,#349,#350,#351,#352,#353,#354,#355,#356,#357,#358,#359),
  .UNSPECIFIED.,.F.,.F.,(7,5,5,5,5,5,5,5,5,5,5,5,5,5,5,5,5,5,5,5,5,5,5,5
    ,7),(0.,3.845865818589E-02,7.408835136804E-02,0.103765291288,
    0.132907050188,0.16321682466,0.193789111909,0.224814691742,
    0.267603340301,0.311291165706,0.355665859662,0.400336861434,
    0.438015346451,0.475490898677,0.544902386906,0.617370152446,
    0.643632949394,0.725279029658,0.805172644863,0.857418058707,
    0.898397863223,0.922827754046,0.947740488923,0.973482910177,1.),
  .UNSPECIFIED.);
#238 = CARTESIAN_POINT('',(-38.34999999491,0.,-82.));
#239 = CARTESIAN_POINT('',(-39.34345721775,0.,-81.47050925234));
#240 = CARTESIAN_POINT('',(-40.32063467243,0.,-80.91043337221));
#241 = CARTESIAN_POINT('',(-41.27961118211,0.,-80.31906984097));
#242 = CARTESIAN_POINT('',(-42.21835631881,0.,-79.69594218942));
#243 = CARTESIAN_POINT('',(-43.13479472896,0.,-79.04089954219));
#244 = CARTESIAN_POINT('',(-44.85337695018,0.,-77.7181233224));
#245 = CARTESIAN_POINT('',(-45.65900094442,0.,-77.0548434941));
#246 = CARTESIAN_POINT('',(-46.44212444044,0.,-76.36468484275));
#247 = CARTESIAN_POINT('',(-47.20125255963,0.,-75.64817971808));
#248 = CARTESIAN_POINT('',(-47.93507601005,0.,-74.90616568516));
#249 = CARTESIAN_POINT('',(-49.23174602011,0.,-73.50151994653));
#250 = CARTESIAN_POINT('',(-49.80269541459,0.,-72.84631522665));
#251 = CARTESIAN_POINT('',(-50.35473061936,0.,-72.17488487778));
#252 = CARTESIAN_POINT('',(-50.88739450829,0.,-71.48799973556));
#253 = CARTESIAN_POINT('',(-51.4003845469,0.,-70.78651758692));
#254 = CARTESIAN_POINT('',(-52.37780143336,0.,-69.36912465043));
#255 = CARTESIAN_POINT('',(-52.84294697483,0.,-68.65368778472));
#256 = CARTESIAN_POINT('',(-53.28882853872,0.,-67.92593696501));
#257 = CARTESIAN_POINT('',(-53.71546064186,0.,-67.18676676442));
#258 = CARTESIAN_POINT('',(-54.12298981438,0.,-66.43707347879));
#259 = CARTESIAN_POINT('',(-54.91591714213,0.,-64.88796600389));
#260 = CARTESIAN_POINT('',(-55.2997768582,0.,-64.08775667129));
#261 = CARTESIAN_POINT('',(-55.66352931177,0.,-63.27808813596));
#262 = CARTESIAN_POINT('',(-56.0075877592,0.,-62.45989555798));
#263 = CARTESIAN_POINT('',(-56.33245619075,0.,-61.63405392591));
#264 = CARTESIAN_POINT('',(-56.94758136855,0.,-59.96145780167));
#265 = CARTESIAN_POINT('',(-57.23751343069,0.,-59.11458568455));
#266 = CARTESIAN_POINT('',(-57.50906622026,0.,-58.26155817837));
#267 = CARTESIAN_POINT('',(-57.76286921327,0.,-57.40311670706));
#268 = CARTESIAN_POINT('',(-57.99957978202,0.,-56.53992381655));
#269 = CARTESIAN_POINT('',(-58.44340432979,0.,-54.79232692806));
#270 = CARTESIAN_POINT('',(-58.65002595468,0.,-53.90780439649));
#271 = CARTESIAN_POINT('',(-58.84041726043,0.,-53.01958819606));
#272 = CARTESIAN_POINT('',(-59.01527041604,0.,-52.12821005876));
#273 = CARTESIAN_POINT('',(-59.17526509851,0.,-51.23413082114));
#274 = CARTESIAN_POINT('',(-59.52212504252,0.,-49.10148597313));
#275 = CARTESIAN_POINT('',(-59.69617563872,0.,-47.86085513226));
#276 = CARTESIAN_POINT('',(-59.8449354568,0.,-46.61684958218));
#277 = CARTESIAN_POINT('',(-59.97002933156,0.,-45.37030470643));
#278 = CARTESIAN_POINT('',(-60.07297207692,0.,-44.1218861193));
#279 = CARTESIAN_POINT('',(-60.23907526648,0.,-41.59602735959));
#280 = CARTESIAN_POINT('',(-60.30135288086,0.,-40.31855303899));
#281 = CARTESIAN_POINT('',(-60.34348065926,0.,-39.04020153566));
#282 = CARTESIAN_POINT('',(-60.36681618368,0.,-37.76140795928));
#283 = CARTESIAN_POINT('',(-60.37259772138,0.,-36.48250695315));
#284 = CARTESIAN_POINT('',(-60.35114502756,0.,-33.90485394661));
#285 = CARTESIAN_POINT('',(-60.32339046873,0.,-32.60612168701));
#286 = CARTESIAN_POINT('',(-60.2798751933,0.,-31.30778928751));
#287 = CARTESIAN_POINT('',(-60.22166932161,0.,-30.0100558865));
#288 = CARTESIAN_POINT('',(-60.14974294313,0.,-28.71306623464));
#289 = CARTESIAN_POINT('',(-59.97965065359,0.,-26.11209924241));
#290 = CARTESIAN_POINT('',(-59.88131332475,0.,-24.8081422287));
#291 = CARTESIAN_POINT('',(-59.77086901511,0.,-23.50513543268));
#292 = CARTESIAN_POINT('',(-59.64913241082,0.,-22.20314876462));
#293 = CARTESIAN_POINT('',(-59.51684256255,0.,-20.90222485727));
#294 = CARTESIAN_POINT('',(-59.25475917972,0.,-18.50600121465));
#295 = CARTESIAN_POINT('',(-59.12781666492,0.,-17.41039379482));
#296 = CARTESIAN_POINT('',(-58.99425078455,0.,-16.31556672548));
#297 = CARTESIAN_POINT('',(-58.85443402868,0.,-15.22152452416));
#298 = CARTESIAN_POINT('',(-58.70871000276,0.,-14.12826498346));
#299 = CARTESIAN_POINT('',(-58.40689818422,0.,-11.94917660426));
#300 = CARTESIAN_POINT('',(-58.25087061415,0.,-10.86334077511));
#301 = CARTESIAN_POINT('',(-58.08962659707,0.,-9.778262664392));
#302 = CARTESIAN_POINT('',(-57.9234542303,0.,-8.69393095894));
#303 = CARTESIAN_POINT('',(-57.75261900712,0.,-7.610331363459));
#304 = CARTESIAN_POINT('',(-57.25276524747,0.,-4.521747678532));
#305 = CARTESIAN_POINT('',(-56.91301024952,0.,-2.518508102104));
#306 = CARTESIAN_POINT('',(-56.55965266385,0.,-0.51760885396));
#307 = CARTESIAN_POINT('',(-56.19401312196,0.,1.481066445788));
#308 = CARTESIAN_POINT('',(-55.81719717463,0.,3.477634583564));
#309 = CARTESIAN_POINT('',(-55.02598179796,0.,7.554620384434));
#310 = CARTESIAN_POINT('',(-54.61066000915,0.,9.63484853212));
#311 = CARTESIAN_POINT('',(-54.18517412655,0.,11.713030981623));
#312 = CARTESIAN_POINT('',(-53.75032092661,0.,13.789266825357));
#313 = CARTESIAN_POINT('',(-53.30665362154,0.,15.863620580047));
#314 = CARTESIAN_POINT('',(-52.69059510049,0.,18.687206878044));
#315 = CARTESIAN_POINT('',(-52.5256020754,0.,19.438050074728));
#316 = CARTESIAN_POINT('',(-52.35950473959,0.,20.18865011834));
#317 = CARTESIAN_POINT('',(-52.19231275137,0.,20.939007016732));
#318 = CARTESIAN_POINT('',(-52.02403119561,0.,21.689119815066));
#319 = CARTESIAN_POINT('',(-51.32811930942,0.,24.770180927044));
#320 = CARTESIAN_POINT('',(-50.79105418098,0.,27.098990114236));
#321 = CARTESIAN_POINT('',(-50.24347393349,0.,29.425369638359));
#322 = CARTESIAN_POINT('',(-49.68495736879,0.,31.749154693671));
#323 = CARTESIAN_POINT('',(-49.11459597796,0.,34.070046468794));
#324 = CARTESIAN_POINT('',(-47.95997288177,0.,38.655446813716));
#325 = CARTESIAN_POINT('',(-47.37627684496,0.,40.920079071311));
#326 = CARTESIAN_POINT('',(-46.77865089432,0.,43.181123026404));
#327 = CARTESIAN_POINT('',(-46.16541210252,0.,45.438009377831));
#328 = CARTESIAN_POINT('',(-45.53451633686,0.,47.690003184419));
#329 = CARTESIAN_POINT('',(-44.45826057904,0.,51.405182990692));
#330 = CARTESIAN_POINT('',(-44.02425094711,0.,52.871642363488));
#331 = CARTESIAN_POINT('',(-43.5811592012,0.,54.335405788808));
#332 = CARTESIAN_POINT('',(-43.12835888615,0.,55.79620429751));
#333 = CARTESIAN_POINT('',(-42.66523427146,0.,57.253749440118));
#334 = CARTESIAN_POINT('',(-41.81940382473,0.,59.848214297106));
#335 = CARTESIAN_POINT('',(-41.44089086075,0.,60.986500222267));
#336 = CARTESIAN_POINT('',(-41.05539782445,0.,62.122456025929));
#337 = CARTESIAN_POINT('',(-40.66266578959,0.,63.255933337739));
#338 = CARTESIAN_POINT('',(-40.26246155842,0.,64.386783361953));
#339 = CARTESIAN_POINT('',(-39.6114336557,0.,66.187356563363));
#340 = CARTESIAN_POINT('',(-39.36555483652,0.,66.858867759956));
#341 = CARTESIAN_POINT('',(-39.11690740828,0.,67.529362340748));
#342 = CARTESIAN_POINT('',(-38.86545352557,0.,68.198809972402));
#343 = CARTESIAN_POINT('',(-38.61115993486,0.,68.867181062934));
#344 = CARTESIAN_POINT('',(-38.09175334201,0.,70.214900619129));
#345 = CARTESIAN_POINT('',(-37.82652591062,0.,70.894205111264));
#346 = CARTESIAN_POINT('',(-37.55828541595,0.,71.572329645609));
#347 = CARTESIAN_POINT('',(-37.28700701646,0.,72.249245041653));
#348 = CARTESIAN_POINT('',(-37.0126712934,0.,72.924923530895));
#349 = CARTESIAN_POINT('',(-36.44861852601,0.,74.296214508593));
#350 = CARTESIAN_POINT('',(-36.15869345473,0.,74.991741604475));
#351 = CARTESIAN_POINT('',(-35.86547374301,0.,75.685891001188));
#352 = CARTESIAN_POINT('',(-35.56895013707,0.,76.378635812366));
#353 = CARTESIAN_POINT('',(-35.26911942343,0.,77.069951308576));
#354 = CARTESIAN_POINT('',(-34.65372717074,0.,78.470438642221));
#355 = CARTESIAN_POINT('',(-34.3379635836,0.,79.179521901968));
#356 = CARTESIAN_POINT('',(-34.01869689017,0.,79.887040099092));
#357 = CARTESIAN_POINT('',(-33.69593628623,0.,80.592971413454));
#358 = CARTESIAN_POINT('',(-33.3696969407,0.,81.297296802248));
#359 = CARTESIAN_POINT('',(-33.03999999562,0.,82.));
#360 = PCURVE('',#44,#361);
#361 = DEFINITIONAL_REPRESENTATION('',(#362),#485);
#362 = B_SPLINE_CURVE_WITH_KNOTS('',6,(#363,#364,#365,#366,#367,#368,
    #369,#370,#371,#372,#373,#374,#375,#376,#377,#378,#379,#380,#381,
    #382,#383,#384,#385,#386,#387,#388,#389,#390,#391,#392,#393,#394,
    #395,#396,#397,#398,#399,#400,#401,#402,#403,#404,#405,#406,#407,
    #408,#409,#410,#411,#412,#413,#414,#415,#416,#417,#418,#419,#420,
    #421,#422,#423,#424,#425,#426,#427,#428,#429,#430,#431,#432,#433,
    #434,#435,#436,#437,#438,#439,#440,#441,#442,#443,#444,#445,#446,
    #447,#448,#449,#450,#451,#452,#453,#454,#455,#456,#457,#458,#459,
    #460,#461,#462,#463,#464,#465,#466,#467,#468,#469,#470,#471,#472,
    #473,#474,#475,#476,#477,#478,#479,#480,#481,#482,#483,#484),
  .UNSPECIFIED.,.F.,.F.,(7,5,5,5,5,5,5,5,5,5,5,5,5,5,5,5,5,5,5,5,5,5,5,5
    ,7),(0.,3.845865818589E-02,7.408835136804E-02,0.103765291288,
    0.132907050188,0.16321682466,0.193789111909,0.224814691742,
    0.267603340301,0.311291165706,0.355665859662,0.400336861434,
    0.438015346451,0.475490898677,0.544902386906,0.617370152446,
    0.643632949394,0.725279029658,0.805172644863,0.857418058707,
    0.898397863223,0.922827754046,0.947740488923,0.973482910177,1.),
  .UNSPECIFIED.);
#363 = CARTESIAN_POINT('',(0.5,0.));
#364 = CARTESIAN_POINT('',(0.5,5.603005120751E-03));
#365 = CARTESIAN_POINT('',(0.5,1.131472043605E-02));
#366 = CARTESIAN_POINT('',(0.5,1.713383068629E-02));
#367 = CARTESIAN_POINT('',(0.5,2.305766615332E-02));
#368 = CARTESIAN_POINT('',(0.5,2.908188907251E-02));
#369 = CARTESIAN_POINT('',(0.5,4.086807126102E-02));
#370 = CARTESIAN_POINT('',(0.5,4.66169420208E-02));
#371 = CARTESIAN_POINT('',(0.5,5.244126985842E-02));
#372 = CARTESIAN_POINT('',(0.5,5.833486279452E-02));
#373 = CARTESIAN_POINT('',(0.5,6.429054124919E-02));
#374 = CARTESIAN_POINT('',(0.5,7.530544153963E-02));
#375 = CARTESIAN_POINT('',(0.5,8.034836985737E-02));
#376 = CARTESIAN_POINT('',(0.5,8.542404663372E-02));
#377 = CARTESIAN_POINT('',(0.5,9.052772160552E-02));
#378 = CARTESIAN_POINT('',(0.5,9.565463167186E-02));
#379 = CARTESIAN_POINT('',(0.5,0.105852578995));
#380 = CARTESIAN_POINT('',(0.5,0.110923059556));
#381 = CARTESIAN_POINT('',(0.5,0.116006985203));
#382 = CARTESIAN_POINT('',(0.5,0.121100242035));
#383 = CARTESIAN_POINT('',(0.5,0.12619905764));
#384 = CARTESIAN_POINT('',(0.5,0.136605390559));
#385 = CARTESIAN_POINT('',(0.5,0.141913125973));
#386 = CARTESIAN_POINT('',(0.5,0.147219421967));
#387 = CARTESIAN_POINT('',(0.5,0.152521046988));
#388 = CARTESIAN_POINT('',(0.5,0.157815301954));
#389 = CARTESIAN_POINT('',(0.5,0.168430468784));
#390 = CARTESIAN_POINT('',(0.5,0.173751204662));
#391 = CARTESIAN_POINT('',(0.5,0.179060014335));
#392 = CARTESIAN_POINT('',(0.5,0.184355183458));
#393 = CARTESIAN_POINT('',(0.5,0.189635453731));
#394 = CARTESIAN_POINT('',(0.5,0.200242603228));
#395 = CARTESIAN_POINT('',(0.5,0.205568975378));
#396 = CARTESIAN_POINT('',(0.5,0.210878271271));
#397 = CARTESIAN_POINT('',(0.5,0.216169967046));
#398 = CARTESIAN_POINT('',(0.5,0.221443848596));
#399 = CARTESIAN_POINT('',(0.5,0.233948973796));
#400 = CARTESIAN_POINT('',(0.5,0.24116409726));
#401 = CARTESIAN_POINT('',(0.5,0.248345675404));
#402 = CARTESIAN_POINT('',(0.5,0.255494528549));
#403 = CARTESIAN_POINT('',(0.5,0.262612006045));
#404 = CARTESIAN_POINT('',(0.5,0.276936943741));
#405 = CARTESIAN_POINT('',(0.5,0.284143014053));
#406 = CARTESIAN_POINT('',(0.5,0.291320177248));
#407 = CARTESIAN_POINT('',(0.5,0.298470519993));
#408 = CARTESIAN_POINT('',(0.5,0.305596300547));
#409 = CARTESIAN_POINT('',(0.5,0.319915385208));
#410 = CARTESIAN_POINT('',(0.5,0.327107902417));
#411 = CARTESIAN_POINT('',(0.5,0.334280109781));
#412 = CARTESIAN_POINT('',(0.5,0.341434513244));
#413 = CARTESIAN_POINT('',(0.5,0.34857362134));
#414 = CARTESIAN_POINT('',(0.5,0.362873964379));
#415 = CARTESIAN_POINT('',(0.5,0.3700349784));
#416 = CARTESIAN_POINT('',(0.5,0.377185632181));
#417 = CARTESIAN_POINT('',(0.5,0.38432841001));
#418 = CARTESIAN_POINT('',(0.5,0.391465732707));
#419 = CARTESIAN_POINT('',(0.5,0.404617514106));
#420 = CARTESIAN_POINT('',(0.5,0.410632837083));
#421 = CARTESIAN_POINT('',(0.5,0.416647395752));
#422 = CARTESIAN_POINT('',(0.5,0.422662561976));
#423 = CARTESIAN_POINT('',(0.5,0.42867966437));
#424 = CARTESIAN_POINT('',(0.5,0.440687910666));
#425 = CARTESIAN_POINT('',(0.5,0.446679012567));
#426 = CARTESIAN_POINT('',(0.5,0.452674578206));
#427 = CARTESIAN_POINT('',(0.5,0.45867582553));
#428 = CARTESIAN_POINT('',(0.5,0.464683923892));
#429 = CARTESIAN_POINT('',(0.5,0.481842859042));
#430 = CARTESIAN_POINT('',(0.5,0.493013045451));
#431 = CARTESIAN_POINT('',(0.5,0.504217742571));
#432 = CARTESIAN_POINT('',(0.5,0.515463431529));
#433 = CARTESIAN_POINT('',(0.5,0.526755858172));
#434 = CARTESIAN_POINT('',(0.5,0.549943639018));
#435 = CARTESIAN_POINT('',(0.5,0.561843587443));
#436 = CARTESIAN_POINT('',(0.5,0.573805447917));
#437 = CARTESIAN_POINT('',(0.5,0.58583370933));
#438 = CARTESIAN_POINT('',(0.5,0.597931443191));
#439 = CARTESIAN_POINT('',(0.5,0.614509965372));
#440 = CARTESIAN_POINT('',(0.5,0.618929228563));
#441 = CARTESIAN_POINT('',(0.5,0.623357852728));
#442 = CARTESIAN_POINT('',(0.5,0.627795866179));
#443 = CARTESIAN_POINT('',(0.5,0.632243262391));
#444 = CARTESIAN_POINT('',(0.5,0.650555156297));
#445 = CARTESIAN_POINT('',(0.5,0.664500546449));
#446 = CARTESIAN_POINT('',(0.5,0.678534948639));
#447 = CARTESIAN_POINT('',(0.5,0.692653505265));
#448 = CARTESIAN_POINT('',(0.5,0.70684670803));
#449 = CARTESIAN_POINT('',(0.5,0.735047356938));
#450 = CARTESIAN_POINT('',(0.5,0.749052147256));
#451 = CARTESIAN_POINT('',(0.5,0.763100770583));
#452 = CARTESIAN_POINT('',(0.5,0.777174702559));
#453 = CARTESIAN_POINT('',(0.5,0.791250168122));
#454 = CARTESIAN_POINT('',(0.5,0.814487708918));
#455 = CARTESIAN_POINT('',(0.5,0.823664415759));
#456 = CARTESIAN_POINT('',(0.5,0.832822500014));
#457 = CARTESIAN_POINT('',(0.5,0.841953629022));
#458 = CARTESIAN_POINT('',(0.5,0.851049069655));
#459 = CARTESIAN_POINT('',(0.5,0.867199290233));
#460 = CARTESIAN_POINT('',(0.5,0.874271195724));
#461 = CARTESIAN_POINT('',(0.5,0.881311454689));
#462 = CARTESIAN_POINT('',(0.5,0.888315781456));
#463 = CARTESIAN_POINT('',(0.5,0.895279970419));
#464 = CARTESIAN_POINT('',(0.5,0.906325338546));
#465 = CARTESIAN_POINT('',(0.5,0.910434985281));
#466 = CARTESIAN_POINT('',(0.5,0.914528084276));
#467 = CARTESIAN_POINT('',(0.5,0.918603810566));
#468 = CARTESIAN_POINT('',(0.5,0.922661370152));
#469 = CARTESIAN_POINT('',(0.5,0.930818451261));
#470 = CARTESIAN_POINT('',(0.5,0.934917219881));
#471 = CARTESIAN_POINT('',(0.5,0.938995497485));
#472 = CARTESIAN_POINT('',(0.5,0.943052522336));
#473 = CARTESIAN_POINT('',(0.5,0.94708757933));
#474 = CARTESIAN_POINT('',(0.5,0.955246049144));
#475 = CARTESIAN_POINT('',(0.5,0.959367931148));
#476 = CARTESIAN_POINT('',(0.5,0.963464909827));
#477 = CARTESIAN_POINT('',(0.5,0.967536311392));
#478 = CARTESIAN_POINT('',(0.5,0.97158152445));
#479 = CARTESIAN_POINT('',(0.5,0.979739403829));
#480 = CARTESIAN_POINT('',(0.5,0.983850437543));
#481 = CARTESIAN_POINT('',(0.5,0.987932502839));
#482 = CARTESIAN_POINT('',(0.5,0.991985074402));
#483 = CARTESIAN_POINT('',(0.5,0.996007699903));
#484 = CARTESIAN_POINT('',(0.5,1.));
#485 = ( GEOMETRIC_REPRESENTATION_CONTEXT(2) 
PARAMETRIC_REPRESENTATION_CONTEXT() REPRESENTATION_CONTEXT('2D SPACE',''
  ) );
#486 = PCURVE('',#487,#492);
#487 = PLANE('',#488);
#488 = AXIS2_PLACEMENT_3D('',#489,#490,#491);
#489 = CARTESIAN_POINT('',(-118.,0.,-98.4));
#490 = DIRECTION('',(0.,1.,0.));
#491 = DIRECTION('',(0.,0.,1.));
#492 = DEFINITIONAL_REPRESENTATION('',(#493),#616);
#493 = B_SPLINE_CURVE_WITH_KNOTS('',6,(#494,#495,#496,#497,#498,#499,
    #500,#501,#502,#503,#504,#505,#506,#507,#508,#509,#510,#511,#512,
    #513,#514,#515,#516,#517,#518,#519,#520,#521,#522,#523,#524,#525,
    #526,#527,#528,#529,#530,#531,#532,#533,#534,#535,#536,#537,#538,
    #539,#540,#541,#542,#543,#544,#545,#546,#547,#548,#549,#550,#551,
    #552,#553,#554,#555,#556,#557,#558,#559,#560,#561,#562,#563,#564,
    #565,#566,#567,#568,#569,#570,#571,#572,#573,#574,#575,#576,#577,
    #578,#579,#580,#581,#582,#583,#584,#585,#586,#587,#588,#589,#590,
    #591,#592,#593,#594,#595,#596,#597,#598,#599,#600,#601,#602,#603,
    #604,#605,#606,#607,#608,#609,#610,#611,#612,#613,#614,#615),
  .UNSPECIFIED.,.F.,.F.,(7,5,5,5,5,5,5,5,5,5,5,5,5,5,5,5,5,5,5,5,5,5,5,5
    ,7),(0.,3.845865818589E-02,7.408835136804E-02,0.103765291288,
    0.132907050188,0.16321682466,0.193789111909,0.224814691742,
    0.267603340301,0.311291165706,0.355665859662,0.400336861434,
    0.438015346451,0.475490898677,0.544902386906,0.617370152446,
    0.643632949394,0.725279029658,0.805172644863,0.857418058707,
    0.898397863223,0.922827754046,0.947740488923,0.973482910177,1.),
  .UNSPECIFIED.);
#494 = CARTESIAN_POINT('',(16.4,79.650000005082));
#495 = CARTESIAN_POINT('',(16.92949074766,78.656542782246));
#496 = CARTESIAN_POINT('',(17.489566627786,77.679365327564));
#497 = CARTESIAN_POINT('',(18.080930159028,76.720388817887));
#498 = CARTESIAN_POINT('',(18.704057810578,75.781643681182));
#499 = CARTESIAN_POINT('',(19.359100457802,74.865205271035));
#500 = CARTESIAN_POINT('',(20.6818766776,73.146623049819));
#501 = CARTESIAN_POINT('',(21.345156505893,72.340999055575));
#502 = CARTESIAN_POINT('',(22.035315157241,71.557875559557));
#503 = CARTESIAN_POINT('',(22.751820281911,70.798747440368));
#504 = CARTESIAN_POINT('',(23.493834314833,70.064923989943));
#505 = CARTESIAN_POINT('',(24.898480053467,68.768253979889));
#506 = CARTESIAN_POINT('',(25.553684773342,68.197304585408));
#507 = CARTESIAN_POINT('',(26.225115122215,67.645269380638));
#508 = CARTESIAN_POINT('',(26.91200026444,67.112605491703));
#509 = CARTESIAN_POINT('',(27.613482413074,66.5996154531));
#510 = CARTESIAN_POINT('',(29.030875349564,65.622198566633));
#511 = CARTESIAN_POINT('',(29.746312215276,65.157053025162));
#512 = CARTESIAN_POINT('',(30.474063034981,64.711171461271));
#513 = CARTESIAN_POINT('',(31.213233235572,64.284539358139));
#514 = CARTESIAN_POINT('',(31.962926521203,63.877010185618));
#515 = CARTESIAN_POINT('',(33.512033996102,63.084082857862));
#516 = CARTESIAN_POINT('',(34.312243328705,62.700223141796));
#517 = CARTESIAN_POINT('',(35.121911864032,62.336470688225));
#518 = CARTESIAN_POINT('',(35.940104442019,61.992412240797));
#519 = CARTESIAN_POINT('',(36.765946074089,61.667543809242));
#520 = CARTESIAN_POINT('',(38.438542198327,61.052418631446));
#521 = CARTESIAN_POINT('',(39.285414315443,60.762486569304));
#522 = CARTESIAN_POINT('',(40.138441821621,60.490933779738));
#523 = CARTESIAN_POINT('',(40.99688329294,60.23713078673));
#524 = CARTESIAN_POINT('',(41.860076183448,60.000420217974));
#525 = CARTESIAN_POINT('',(43.607673071934,59.55659567021));
#526 = CARTESIAN_POINT('',(44.492195603507,59.349974045316));
#527 = CARTESIAN_POINT('',(45.380411803935,59.159582739567));
#528 = CARTESIAN_POINT('',(46.271789941239,58.984729583951));
#529 = CARTESIAN_POINT('',(47.165869178852,58.824734901484));
#530 = CARTESIAN_POINT('',(49.298514026861,58.477874957477));
#531 = CARTESIAN_POINT('',(50.539144867731,58.303824361273));
#532 = CARTESIAN_POINT('',(51.783150417813,58.155064543195));
#533 = CARTESIAN_POINT('',(53.029695293569,58.02997066844));
#534 = CARTESIAN_POINT('',(54.278113880691,57.927027923073));
#535 = CARTESIAN_POINT('',(56.803972640403,57.760924733513));
#536 = CARTESIAN_POINT('',(58.081446961001,57.698647119136));
#537 = CARTESIAN_POINT('',(59.359798464336,57.65651934074));
#538 = CARTESIAN_POINT('',(60.638592040712,57.633183816313));
#539 = CARTESIAN_POINT('',(61.91749304685,57.627402278612));
#540 = CARTESIAN_POINT('',(64.49514605339,57.648854972433));
#541 = CARTESIAN_POINT('',(65.793878312988,57.676609531266));
#542 = CARTESIAN_POINT('',(67.092210712486,57.7201248067));
#543 = CARTESIAN_POINT('',(68.389944113499,57.778330678383));
#544 = CARTESIAN_POINT('',(69.686933765358,57.850257056866));
#545 = CARTESIAN_POINT('',(72.287900757587,58.020349346404));
#546 = CARTESIAN_POINT('',(73.591857771296,58.118686675246));
#547 = CARTESIAN_POINT('',(74.894864567319,58.22913098489));
#548 = CARTESIAN_POINT('',(76.196851235374,58.350867589176));
#549 = CARTESIAN_POINT('',(77.497775142723,58.48315743745));
#550 = CARTESIAN_POINT('',(79.893998785349,58.745240820277));
#551 = CARTESIAN_POINT('',(80.989606205175,58.872183335073));
#552 = CARTESIAN_POINT('',(82.084433274519,59.005749215448));
#553 = CARTESIAN_POINT('',(83.178475475834,59.145565971313));
#554 = CARTESIAN_POINT('',(84.271735016533,59.291289997236));
#555 = CARTESIAN_POINT('',(86.450823395731,59.593101815774));
#556 = CARTESIAN_POINT('',(87.536659224886,59.749129385848));
#557 = CARTESIAN_POINT('',(88.621737335608,59.910373402927));
#558 = CARTESIAN_POINT('',(89.70606904106,60.076545769691));
#559 = CARTESIAN_POINT('',(90.789668636541,60.247380992875));
#560 = CARTESIAN_POINT('',(93.878252321468,60.747234752528));
#561 = CARTESIAN_POINT('',(95.881491897896,61.086989750478));
#562 = CARTESIAN_POINT('',(97.88239114604,61.440347336141));
#563 = CARTESIAN_POINT('',(99.881066445787,61.805986878038));
#564 = CARTESIAN_POINT('',(101.87763458356,62.182802825369));
#565 = CARTESIAN_POINT('',(105.95462038443,62.974018202032));
#566 = CARTESIAN_POINT('',(108.03484853212,63.389339990843));
#567 = CARTESIAN_POINT('',(110.11303098162,63.814825873447));
#568 = CARTESIAN_POINT('',(112.18926682535,64.249679073389));
#569 = CARTESIAN_POINT('',(114.26362058004,64.693346378453));
#570 = CARTESIAN_POINT('',(117.08720687804,65.309404899504));
#571 = CARTESIAN_POINT('',(117.83805007472,65.474397924594));
#572 = CARTESIAN_POINT('',(118.58865011834,65.640495260403));
#573 = CARTESIAN_POINT('',(119.33900701673,65.807687248622));
#574 = CARTESIAN_POINT('',(120.08911981506,65.975968804385));
#575 = CARTESIAN_POINT('',(123.17018092704,66.671880690574));
#576 = CARTESIAN_POINT('',(125.49899011423,67.208945819012));
#577 = CARTESIAN_POINT('',(127.82536963835,67.756526066505));
#578 = CARTESIAN_POINT('',(130.14915469367,68.315042631209));
#579 = CARTESIAN_POINT('',(132.47004646879,68.885404022034));
#580 = CARTESIAN_POINT('',(137.05544681371,70.04002711823));
#581 = CARTESIAN_POINT('',(139.32007907131,70.623723155033));
#582 = CARTESIAN_POINT('',(141.5811230264,71.221349105675));
#583 = CARTESIAN_POINT('',(143.83800937783,71.834587897476));
#584 = CARTESIAN_POINT('',(146.09000318441,72.465483663139));
#585 = CARTESIAN_POINT('',(149.80518299069,73.54173942096));
#586 = CARTESIAN_POINT('',(151.27164236348,73.975749052882));
#587 = CARTESIAN_POINT('',(152.7354057888,74.4188407988));
#588 = CARTESIAN_POINT('',(154.19620429751,74.871641113843));
#589 = CARTESIAN_POINT('',(155.65374944011,75.33476572854));
#590 = CARTESIAN_POINT('',(158.2482142971,76.180596175269));
#591 = CARTESIAN_POINT('',(159.38650022226,76.559109139241));
#592 = CARTESIAN_POINT('',(160.52245602592,76.944602175543));
#593 = CARTESIAN_POINT('',(161.65593333773,77.33733421041));
#594 = CARTESIAN_POINT('',(162.78678336195,77.737538441573));
#595 = CARTESIAN_POINT('',(164.58735656336,78.388566344298));
#596 = CARTESIAN_POINT('',(165.25886775995,78.634445163474));
#597 = CARTESIAN_POINT('',(165.92936234074,78.883092591714));
#598 = CARTESIAN_POINT('',(166.5988099724,79.134546474423));
#599 = CARTESIAN_POINT('',(167.26718106293,79.388840065139));
#600 = CARTESIAN_POINT('',(168.61490061912,79.90824665799));
#601 = CARTESIAN_POINT('',(169.29420511126,80.173474089374));
#602 = CARTESIAN_POINT('',(169.9723296456,80.441714584043));
#603 = CARTESIAN_POINT('',(170.64924504165,80.71299298354));
#604 = CARTESIAN_POINT('',(171.32492353089,80.987328706594));
#605 = CARTESIAN_POINT('',(172.69621450859,81.55138147399));
#606 = CARTESIAN_POINT('',(173.39174160447,81.841306545264));
#607 = CARTESIAN_POINT('',(174.08589100118,82.134526256989));
#608 = CARTESIAN_POINT('',(174.77863581236,82.431049862929));
#609 = CARTESIAN_POINT('',(175.46995130857,82.730880576568));
#610 = CARTESIAN_POINT('',(176.87043864222,83.34627282926));
#611 = CARTESIAN_POINT('',(177.57952190196,83.662036416391));
#612 = CARTESIAN_POINT('',(178.28704009909,83.981303109826));
#613 = CARTESIAN_POINT('',(178.99297141345,84.304063713768));
#614 = CARTESIAN_POINT('',(179.69729680224,84.630303059299));
#615 = CARTESIAN_POINT('',(180.4,84.960000004378));
#616 = ( GEOMETRIC_REPRESENTATION_CONTEXT(2) 
PARAMETRIC_REPRESENTATION_CONTEXT() REPRESENTATION_CONTEXT('2D SPACE',''
  ) );
#617 = ADVANCED_FACE('',(#618),#127,.T.);
#618 = FACE_BOUND('',#619,.T.);
#619 = EDGE_LOOP('',(#620,#641,#642,#663));
#620 = ORIENTED_EDGE('',*,*,#621,.T.);
#621 = EDGE_CURVE('',#622,#24,#624,.T.);
#622 = VERTEX_POINT('',#623);
#623 = CARTESIAN_POINT('',(35.35,0.,-82.));
#624 = SURFACE_CURVE('',#625,(#629,#635),.PCURVE_S1.);
#625 = LINE('',#626,#627);
#626 = CARTESIAN_POINT('',(-39.825,0.,-82.));
#627 = VECTOR('',#628,1.);
#628 = DIRECTION('',(1.,-0.,0.));
#629 = PCURVE('',#127,#630);
#630 = DEFINITIONAL_REPRESENTATION('',(#631),#634);
#631 = B_SPLINE_CURVE_WITH_KNOTS('',1,(#632,#633),.UNSPECIFIED.,.F.,.F.,
  (2,2),(-17.07982688818,78.175000000011),.PIECEWISE_BEZIER_KNOTS.);
#632 = CARTESIAN_POINT('',(95.254826888187,-9.886451405471E-15));
#633 = CARTESIAN_POINT('',(-1.077182787412E-11,1.80693906015E-14));
#634 = ( GEOMETRIC_REPRESENTATION_CONTEXT(2) 
PARAMETRIC_REPRESENTATION_CONTEXT() REPRESENTATION_CONTEXT('2D SPACE',''
  ) );
#635 = PCURVE('',#169,#636);
#636 = DEFINITIONAL_REPRESENTATION('',(#637),#640);
#637 = B_SPLINE_CURVE_WITH_KNOTS('',1,(#638,#639),.UNSPECIFIED.,.F.,.F.,
  (2,2),(-17.07982688818,78.175000000011),.PIECEWISE_BEZIER_KNOTS.);
#638 = CARTESIAN_POINT('',(16.4,61.095173111813));
#639 = CARTESIAN_POINT('',(16.4,156.35000000001));
#640 = ( GEOMETRIC_REPRESENTATION_CONTEXT(2) 
PARAMETRIC_REPRESENTATION_CONTEXT() REPRESENTATION_CONTEXT('2D SPACE',''
  ) );
#641 = ORIENTED_EDGE('',*,*,#21,.F.);
#642 = ORIENTED_EDGE('',*,*,#643,.T.);
#643 = EDGE_CURVE('',#22,#644,#646,.T.);
#644 = VERTEX_POINT('',#645);
#645 = CARTESIAN_POINT('',(-35.34999999531,2.505738971319E-14,-82.));
#646 = SURFACE_CURVE('',#647,(#651,#657),.PCURVE_S1.);
#647 = LINE('',#648,#649);
#648 = CARTESIAN_POINT('',(-39.825,0.,-82.));
#649 = VECTOR('',#650,1.);
#650 = DIRECTION('',(1.,-0.,0.));
#651 = PCURVE('',#127,#652);
#652 = DEFINITIONAL_REPRESENTATION('',(#653),#656);
#653 = B_SPLINE_CURVE_WITH_KNOTS('',1,(#654,#655),.UNSPECIFIED.,.F.,.F.,
  (2,2),(-17.07982688818,78.175000000011),.PIECEWISE_BEZIER_KNOTS.);
#654 = CARTESIAN_POINT('',(95.254826888187,-9.886451405471E-15));
#655 = CARTESIAN_POINT('',(-1.077182787412E-11,1.80693906015E-14));
#656 = ( GEOMETRIC_REPRESENTATION_CONTEXT(2) 
PARAMETRIC_REPRESENTATION_CONTEXT() REPRESENTATION_CONTEXT('2D SPACE',''
  ) );
#657 = PCURVE('',#487,#658);
#658 = DEFINITIONAL_REPRESENTATION('',(#659),#662);
#659 = B_SPLINE_CURVE_WITH_KNOTS('',1,(#660,#661),.UNSPECIFIED.,.F.,.F.,
  (2,2),(-17.07982688818,78.175000000011),.PIECEWISE_BEZIER_KNOTS.);
#660 = CARTESIAN_POINT('',(16.4,61.095173111813));
#661 = CARTESIAN_POINT('',(16.4,156.35000000001));
#662 = ( GEOMETRIC_REPRESENTATION_CONTEXT(2) 
PARAMETRIC_REPRESENTATION_CONTEXT() REPRESENTATION_CONTEXT('2D SPACE',''
  ) );
#663 = ORIENTED_EDGE('',*,*,#664,.T.);
#664 = EDGE_CURVE('',#644,#622,#665,.T.);
#665 = SURFACE_CURVE('',#666,(#682,#701),.PCURVE_S1.);
#666 = B_SPLINE_CURVE_WITH_KNOTS('',14,(#667,#668,#669,#670,#671,#672,
    #673,#674,#675,#676,#677,#678,#679,#680,#681),.UNSPECIFIED.,.T.,.F.,
  (15,15),(0.,1.),.PIECEWISE_BEZIER_KNOTS.);
#667 = CARTESIAN_POINT('',(35.35,9.446570959896E-15,-82.));
#668 = CARTESIAN_POINT('',(35.350000000008,7.696902001302,-82.));
#669 = CARTESIAN_POINT('',(27.682077331568,15.393806843684,-82.));
#670 = CARTESIAN_POINT('',(12.346222192156,21.142851793749,-82.));
#671 = CARTESIAN_POINT('',(-8.364185231093,22.996393768378,-82.));
#672 = CARTESIAN_POINT('',(-29.86281959513,19.704953166384,-82.));
#673 = CARTESIAN_POINT('',(-46.27462415378,11.419931956206,-82.));
#674 = CARTESIAN_POINT('',(-52.45334108226,3.1156972651E-10,-82.));
#675 = CARTESIAN_POINT('',(-46.27462415375,-11.41993195677,-82.));
#676 = CARTESIAN_POINT('',(-29.86281959517,-19.70495316594,-82.));
#677 = CARTESIAN_POINT('',(-8.364185231061,-22.99639376865,-82.));
#678 = CARTESIAN_POINT('',(12.346222192136,-21.14285179361,-82.));
#679 = CARTESIAN_POINT('',(27.682077331576,-15.39380684373,-82.));
#680 = CARTESIAN_POINT('',(35.350000000006,-7.696902001291,-82.));
#681 = CARTESIAN_POINT('',(35.35,-1.186971127097E-14,-82.));
#682 = PCURVE('',#127,#683);
#683 = DEFINITIONAL_REPRESENTATION('',(#684),#700);
#684 = B_SPLINE_CURVE_WITH_KNOTS('',14,(#685,#686,#687,#688,#689,#690,
    #691,#692,#693,#694,#695,#696,#697,#698,#699),.UNSPECIFIED.,.F.,.F.,
  (15,15),(0.,1.),.PIECEWISE_BEZIER_KNOTS.);
#685 = CARTESIAN_POINT('',(3.,2.663550721844E-14));
#686 = CARTESIAN_POINT('',(2.999999999992,7.696902001302));
#687 = CARTESIAN_POINT('',(10.667922668432,15.393806843684));
#688 = CARTESIAN_POINT('',(26.003777807844,21.142851793749));
#689 = CARTESIAN_POINT('',(46.714185231093,22.996393768378));
#690 = CARTESIAN_POINT('',(68.212819595133,19.704953166384));
#691 = CARTESIAN_POINT('',(84.624624153781,11.419931956206));
#692 = CARTESIAN_POINT('',(90.803341082268,3.11561146502E-10));
#693 = CARTESIAN_POINT('',(84.624624153755,-11.41993195677));
#694 = CARTESIAN_POINT('',(68.212819595171,-19.70495316594));
#695 = CARTESIAN_POINT('',(46.714185231061,-22.99639376865));
#696 = CARTESIAN_POINT('',(26.003777807864,-21.14285179361));
#697 = CARTESIAN_POINT('',(10.667922668424,-15.39380684373));
#698 = CARTESIAN_POINT('',(2.999999999994,-7.696902001291));
#699 = CARTESIAN_POINT('',(3.,5.319224987569E-15));
#700 = ( GEOMETRIC_REPRESENTATION_CONTEXT(2) 
PARAMETRIC_REPRESENTATION_CONTEXT() REPRESENTATION_CONTEXT('2D SPACE',''
  ) );
#701 = PCURVE('',#702,#778);
#702 = ( BOUNDED_SURFACE() B_SPLINE_SURFACE(14,4,(
    (#703,#704,#705,#706,#707)
    ,(#708,#709,#710,#711,#712)
    ,(#713,#714,#715,#716,#717)
    ,(#718,#719,#720,#721,#722)
    ,(#723,#724,#725,#726,#727)
    ,(#728,#729,#730,#731,#732)
    ,(#733,#734,#735,#736,#737)
    ,(#738,#739,#740,#741,#742)
    ,(#743,#744,#745,#746,#747)
    ,(#748,#749,#750,#751,#752)
    ,(#753,#754,#755,#756,#757)
    ,(#758,#759,#760,#761,#762)
    ,(#763,#764,#765,#766,#767)
    ,(#768,#769,#770,#771,#772)
    ,(#773,#774,#775,#776,#777
)),.UNSPECIFIED.,.T.,.F.,.F.) B_SPLINE_SURFACE_WITH_KNOTS((15,15),(5,5),
  (0.,1.),(0.,1.),.PIECEWISE_BEZIER_KNOTS.) 
GEOMETRIC_REPRESENTATION_ITEM() RATIONAL_B_SPLINE_SURFACE((
    (1.,1.,1.,1.,1.)
    ,(1.,1.,1.,1.,1.)
    ,(1.,1.,1.,1.,1.)
    ,(1.,1.,1.,1.,1.)
    ,(1.,1.,1.,1.,1.)
    ,(1.,1.,1.,1.,1.)
    ,(1.,1.,1.,1.,1.)
    ,(1.,1.,1.,1.,1.)
    ,(1.,1.,1.,1.,1.)
    ,(1.,1.,1.,1.,1.)
    ,(1.,1.,1.,1.,1.)
    ,(1.,1.,1.,1.,1.)
    ,(1.,1.,1.,1.,1.)
    ,(1.,1.,1.,1.,1.)
,(1.,1.,1.,1.,1.))) REPRESENTATION_ITEM('') SURFACE() );
#703 = CARTESIAN_POINT('',(35.35,9.446570959896E-15,-82.));
#704 = CARTESIAN_POINT('',(79.67698175165,-1.602118142362E-13,
    -58.37469820884));
#705 = CARTESIAN_POINT('',(45.354537343834,1.668936482056E-13,
    10.181560023757));
#706 = CARTESIAN_POINT('',(50.68580173917,-1.027613520273E-13,
    37.996344167294));
#707 = CARTESIAN_POINT('',(30.04,-1.922995571154E-14,82.));
#708 = CARTESIAN_POINT('',(35.350000000008,7.696902001302,-82.));
#709 = CARTESIAN_POINT('',(79.676981751655,18.149630638186,
    -58.37469820884));
#710 = CARTESIAN_POINT('',(45.354537343825,10.056068131269,
    10.181560023757));
#711 = CARTESIAN_POINT('',(50.685801739175,11.313231552158,
    37.996344167294));
#712 = CARTESIAN_POINT('',(30.040000000004,6.444752929369,82.));
#713 = CARTESIAN_POINT('',(27.682077331568,15.393806843684,-82.));
#714 = CARTESIAN_POINT('',(62.393900152684,36.29926797578,
    -58.37469820884));
#715 = CARTESIAN_POINT('',(35.516486848446,20.112139974515,
    10.181560023757));
#716 = CARTESIAN_POINT('',(39.691323433023,22.626467280238,
    37.996344167294));
#717 = CARTESIAN_POINT('',(23.523892589554,12.889508237631,82.));
#718 = CARTESIAN_POINT('',(12.346222192156,21.142851793749,-82.));
#719 = CARTESIAN_POINT('',(27.827714859953,49.855766726596,
    -58.37469820884));
#720 = CARTESIAN_POINT('',(15.840373280381,27.62331624988,
    10.181560023757));
#721 = CARTESIAN_POINT('',(17.70235276537,31.076656293073,
    37.996344167294));
#722 = CARTESIAN_POINT('',(10.491669438505,17.703285816798,82.));
#723 = CARTESIAN_POINT('',(-8.364185231093,22.996393768378,-82.));
#724 = CARTESIAN_POINT('',(-18.85241963252,54.226499549562,
    -58.37469820884));
#725 = CARTESIAN_POINT('',(-10.73136496179,30.044984653832,
    10.181560023757));
#726 = CARTESIAN_POINT('',(-11.99279870791,33.801070550398,
    37.996344167294));
#727 = CARTESIAN_POINT('',(-7.107782866745,19.255289476048,82.));
#728 = CARTESIAN_POINT('',(-29.86281959513,19.704953166384,-82.));
#729 = CARTESIAN_POINT('',(-67.30917487866,46.465139045815,
    -58.37469820884));
#730 = CARTESIAN_POINT('',(-38.31440923738,25.744689425323,
    10.181560023757));
#731 = CARTESIAN_POINT('',(-42.8181316375,28.963172177476,
    37.996344167294));
#732 = CARTESIAN_POINT('',(-25.37706083853,16.499307724129,82.));
#733 = CARTESIAN_POINT('',(-46.27462415378,11.419931956206,-82.));
#734 = CARTESIAN_POINT('',(-104.3004917745,26.928697660886,
    -58.37469820884));
#735 = CARTESIAN_POINT('',(-59.37098074197,14.920238531336,
    10.181560023757));
#736 = CARTESIAN_POINT('',(-66.34982815822,16.785498179268,
    37.996344167294));
#737 = CARTESIAN_POINT('',(-39.32361271778,9.562112121967,82.));
#738 = CARTESIAN_POINT('',(-52.45334108226,3.1156972651E-10,-82.));
#739 = CARTESIAN_POINT('',(-118.2269844487,7.239989658469E-10,
    -58.37469820884));
#740 = CARTESIAN_POINT('',(-67.29835974395,-3.710415247737E-10,
    10.181560023757));
#741 = CARTESIAN_POINT('',(-75.20904233876,6.750093427735E-10,
    37.996344167294));
#742 = CARTESIAN_POINT('',(-44.57421120558,2.201053680444E-10,82.));
#743 = CARTESIAN_POINT('',(-46.27462415375,-11.41993195677,-82.));
#744 = CARTESIAN_POINT('',(-104.3004917745,-26.9286976622,
    -58.37469820884));
#745 = CARTESIAN_POINT('',(-59.37098074214,-14.92023853066,
    10.181560023757));
#746 = CARTESIAN_POINT('',(-66.34982815817,-16.7854981805,
    37.996344167294));
#747 = CARTESIAN_POINT('',(-39.32361271778,-9.56211212237,82.));
#748 = CARTESIAN_POINT('',(-29.86281959517,-19.70495316594,-82.));
#749 = CARTESIAN_POINT('',(-67.30917487865,-46.46513904481,
    -58.37469820884));
#750 = CARTESIAN_POINT('',(-38.31440923714,-25.74468942581,
    10.181560023757));
#751 = CARTESIAN_POINT('',(-42.81813163757,-28.96317217654,
    37.996344167294));
#752 = CARTESIAN_POINT('',(-25.37706083853,-16.49930772382,82.));
#753 = CARTESIAN_POINT('',(-8.364185231061,-22.99639376865,-82.));
#754 = CARTESIAN_POINT('',(-18.85241963253,-54.22649955018,
    -58.37469820884));
#755 = CARTESIAN_POINT('',(-10.731364962,-30.04498465354,10.181560023757
    ));
#756 = CARTESIAN_POINT('',(-11.99279870785,-33.80107055097,
    37.996344167294));
#757 = CARTESIAN_POINT('',(-7.107782866742,-19.25528947623,82.));
#758 = CARTESIAN_POINT('',(12.346222192136,-21.14285179361,-82.));
#759 = CARTESIAN_POINT('',(27.827714859955,-49.85576672629,
    -58.37469820884));
#760 = CARTESIAN_POINT('',(15.840373280509,-27.62331625001,
    10.181560023757));
#761 = CARTESIAN_POINT('',(17.702352765336,-31.07665629279,
    37.996344167294));
#762 = CARTESIAN_POINT('',(10.491669438502,-17.7032858167,82.));
#763 = CARTESIAN_POINT('',(27.682077331576,-15.39380684373,-82.));
#764 = CARTESIAN_POINT('',(62.393900152685,-36.29926797588,
    -58.37469820884));
#765 = CARTESIAN_POINT('',(35.516486848394,-20.11213997447,
    10.181560023757));
#766 = CARTESIAN_POINT('',(39.691323433037,-22.62646728033,
    37.996344167294));
#767 = CARTESIAN_POINT('',(23.523892589555,-12.88950823766,82.));
#768 = CARTESIAN_POINT('',(35.350000000006,-7.696902001291,-82.));
#769 = CARTESIAN_POINT('',(79.676981751654,-18.14963063816,
    -58.37469820884));
#770 = CARTESIAN_POINT('',(45.354537343838,-10.05606813127,
    10.181560023757));
#771 = CARTESIAN_POINT('',(50.685801739172,-11.31323155213,
    37.996344167294));
#772 = CARTESIAN_POINT('',(30.040000000004,-6.444752929362,82.));
#773 = CARTESIAN_POINT('',(35.35,-1.186971127097E-14,-82.));
#774 = CARTESIAN_POINT('',(79.67698175165,1.014126425009E-13,
    -58.37469820884));
#775 = CARTESIAN_POINT('',(45.354537343835,-1.437262539606E-13,
    10.181560023757));
#776 = CARTESIAN_POINT('',(50.68580173917,4.439521038821E-14,
    37.996344167294));
#777 = CARTESIAN_POINT('',(30.04,1.629718094411E-14,82.));
#778 = DEFINITIONAL_REPRESENTATION('',(#779),#783);
#779 = LINE('',#780,#781);
#780 = CARTESIAN_POINT('',(0.,0.));
#781 = VECTOR('',#782,1.);
#782 = DIRECTION('',(1.,0.));
#783 = ( GEOMETRIC_REPRESENTATION_CONTEXT(2) 
PARAMETRIC_REPRESENTATION_CONTEXT() REPRESENTATION_CONTEXT('2D SPACE',''
  ) );
#784 = ADVANCED_FACE('',(#785),#487,.T.);
#785 = FACE_BOUND('',#786,.T.);
#786 = EDGE_LOOP('',(#787,#788,#789,#810));
#787 = ORIENTED_EDGE('',*,*,#643,.F.);
#788 = ORIENTED_EDGE('',*,*,#235,.T.);
#789 = ORIENTED_EDGE('',*,*,#790,.T.);
#790 = EDGE_CURVE('',#184,#791,#793,.T.);
#791 = VERTEX_POINT('',#792);
#792 = CARTESIAN_POINT('',(-30.03999999601,-7.463183009747E-15,82.));
#793 = SURFACE_CURVE('',#794,(#798,#804),.PCURVE_S1.);
#794 = LINE('',#795,#796);
#795 = CARTESIAN_POINT('',(-42.48,0.,82.));
#796 = VECTOR('',#797,1.);
#797 = DIRECTION('',(1.,-0.,0.));
#798 = PCURVE('',#487,#799);
#799 = DEFINITIONAL_REPRESENTATION('',(#800),#803);
#800 = B_SPLINE_CURVE_WITH_KNOTS('',1,(#801,#802),.UNSPECIFIED.,.F.,.F.,
  (2,2),(-6.54569701196,75.520000000001),.PIECEWISE_BEZIER_KNOTS.);
#801 = CARTESIAN_POINT('',(180.4,68.97430298804));
#802 = CARTESIAN_POINT('',(180.4,151.04));
#803 = ( GEOMETRIC_REPRESENTATION_CONTEXT(2) 
PARAMETRIC_REPRESENTATION_CONTEXT() REPRESENTATION_CONTEXT('2D SPACE',''
  ) );
#804 = PCURVE('',#211,#805);
#805 = DEFINITIONAL_REPRESENTATION('',(#806),#809);
#806 = B_SPLINE_CURVE_WITH_KNOTS('',1,(#807,#808),.UNSPECIFIED.,.F.,.F.,
  (2,2),(-6.54569701196,75.520000000001),.PIECEWISE_BEZIER_KNOTS.);
#807 = CARTESIAN_POINT('',(82.06569701196,-8.628241564171E-15));
#808 = CARTESIAN_POINT('',(-1.39266376209E-12,1.172842520672E-14));
#809 = ( GEOMETRIC_REPRESENTATION_CONTEXT(2) 
PARAMETRIC_REPRESENTATION_CONTEXT() REPRESENTATION_CONTEXT('2D SPACE',''
  ) );
#810 = ORIENTED_EDGE('',*,*,#811,.F.);
#811 = EDGE_CURVE('',#644,#791,#812,.T.);
#812 = SURFACE_CURVE('',#813,(#936,#1062),.PCURVE_S1.);
#813 = B_SPLINE_CURVE_WITH_KNOTS('',6,(#814,#815,#816,#817,#818,#819,
    #820,#821,#822,#823,#824,#825,#826,#827,#828,#829,#830,#831,#832,
    #833,#834,#835,#836,#837,#838,#839,#840,#841,#842,#843,#844,#845,
    #846,#847,#848,#849,#850,#851,#852,#853,#854,#855,#856,#857,#858,
    #859,#860,#861,#862,#863,#864,#865,#866,#867,#868,#869,#870,#871,
    #872,#873,#874,#875,#876,#877,#878,#879,#880,#881,#882,#883,#884,
    #885,#886,#887,#888,#889,#890,#891,#892,#893,#894,#895,#896,#897,
    #898,#899,#900,#901,#902,#903,#904,#905,#906,#907,#908,#909,#910,
    #911,#912,#913,#914,#915,#916,#917,#918,#919,#920,#921,#922,#923,
    #924,#925,#926,#927,#928,#929,#930,#931,#932,#933,#934,#935),
  .UNSPECIFIED.,.F.,.F.,(7,5,5,5,5,5,5,5,5,5,5,5,5,5,5,5,5,5,5,5,5,5,5,5
    ,7),(0.,3.845865818595E-02,7.408835136816E-02,0.103765291288,
    0.132907050189,0.16321682466,0.193789111909,0.224814691742,
    0.267603340301,0.311291165707,0.355665859663,0.400336861435,
    0.438015346451,0.475490898678,0.544902386907,0.617370152447,
    0.643632949395,0.72527902966,0.805172644864,0.857418058708,
    0.898397863224,0.922827754047,0.947740488924,0.973482910177,1.),
  .UNSPECIFIED.);
#814 = CARTESIAN_POINT('',(-35.34999999531,0.,-82.));
#815 = CARTESIAN_POINT('',(-36.34345721814,0.,-81.47050925234));
#816 = CARTESIAN_POINT('',(-37.32063467283,0.,-80.91043337221));
#817 = CARTESIAN_POINT('',(-38.2796111825,0.,-80.31906984097));
#818 = CARTESIAN_POINT('',(-39.21835631921,0.,-79.69594218942));
#819 = CARTESIAN_POINT('',(-40.13479472936,0.,-79.04089954219));
#820 = CARTESIAN_POINT('',(-41.85337695057,0.,-77.71812332239));
#821 = CARTESIAN_POINT('',(-42.65900094482,0.,-77.0548434941));
#822 = CARTESIAN_POINT('',(-43.44212444084,0.,-76.36468484275));
#823 = CARTESIAN_POINT('',(-44.20125256003,0.,-75.64817971808));
#824 = CARTESIAN_POINT('',(-44.93507601045,0.,-74.90616568516));
#825 = CARTESIAN_POINT('',(-46.2317460205,0.,-73.50151994653));
#826 = CARTESIAN_POINT('',(-46.80269541498,0.,-72.84631522665));
#827 = CARTESIAN_POINT('',(-47.35473061975,0.,-72.17488487778));
#828 = CARTESIAN_POINT('',(-47.88739450869,0.,-71.48799973556));
#829 = CARTESIAN_POINT('',(-48.40038454729,0.,-70.78651758692));
#830 = CARTESIAN_POINT('',(-49.37780143376,0.,-69.36912465043));
#831 = CARTESIAN_POINT('',(-49.84294697523,0.,-68.65368778472));
#832 = CARTESIAN_POINT('',(-50.28882853912,0.,-67.92593696501));
#833 = CARTESIAN_POINT('',(-50.71546064225,0.,-67.18676676442));
#834 = CARTESIAN_POINT('',(-51.12298981478,0.,-66.43707347879));
#835 = CARTESIAN_POINT('',(-51.91591714253,0.,-64.88796600389));
#836 = CARTESIAN_POINT('',(-52.2997768586,0.,-64.08775667129));
#837 = CARTESIAN_POINT('',(-52.66352931217,0.,-63.27808813596));
#838 = CARTESIAN_POINT('',(-53.0075877596,0.,-62.45989555798));
#839 = CARTESIAN_POINT('',(-53.33245619115,0.,-61.63405392591));
#840 = CARTESIAN_POINT('',(-53.94758136895,0.,-59.96145780167));
#841 = CARTESIAN_POINT('',(-54.23751343109,0.,-59.11458568455));
#842 = CARTESIAN_POINT('',(-54.50906622065,0.,-58.26155817837));
#843 = CARTESIAN_POINT('',(-54.76286921366,0.,-57.40311670706));
#844 = CARTESIAN_POINT('',(-54.99957978242,0.,-56.53992381655));
#845 = CARTESIAN_POINT('',(-55.44340433018,0.,-54.79232692806));
#846 = CARTESIAN_POINT('',(-55.65002595508,0.,-53.90780439649));
#847 = CARTESIAN_POINT('',(-55.84041726083,0.,-53.01958819606));
#848 = CARTESIAN_POINT('',(-56.01527041644,0.,-52.12821005876));
#849 = CARTESIAN_POINT('',(-56.17526509891,0.,-51.23413082114));
#850 = CARTESIAN_POINT('',(-56.52212504292,0.,-49.10148597313));
#851 = CARTESIAN_POINT('',(-56.69617563912,0.,-47.86085513227));
#852 = CARTESIAN_POINT('',(-56.8449354572,0.,-46.61684958218));
#853 = CARTESIAN_POINT('',(-56.97002933195,0.,-45.37030470642));
#854 = CARTESIAN_POINT('',(-57.07297207732,0.,-44.12188611931));
#855 = CARTESIAN_POINT('',(-57.23907526688,0.,-41.59602735959));
#856 = CARTESIAN_POINT('',(-57.30135288126,0.,-40.318553039));
#857 = CARTESIAN_POINT('',(-57.34348065965,0.,-39.04020153566));
#858 = CARTESIAN_POINT('',(-57.36681618408,0.,-37.76140795928));
#859 = CARTESIAN_POINT('',(-57.37259772178,0.,-36.48250695315));
#860 = CARTESIAN_POINT('',(-57.35114502796,0.,-33.9048539466));
#861 = CARTESIAN_POINT('',(-57.32339046913,0.,-32.60612168701));
#862 = CARTESIAN_POINT('',(-57.27987519369,0.,-31.30778928751));
#863 = CARTESIAN_POINT('',(-57.22166932201,0.,-30.01005588649));
#864 = CARTESIAN_POINT('',(-57.14974294353,0.,-28.71306623464));
#865 = CARTESIAN_POINT('',(-56.97965065399,0.,-26.11209924241));
#866 = CARTESIAN_POINT('',(-56.88131332515,0.,-24.8081422287));
#867 = CARTESIAN_POINT('',(-56.7708690155,0.,-23.50513543268));
#868 = CARTESIAN_POINT('',(-56.64913241122,0.,-22.20314876462));
#869 = CARTESIAN_POINT('',(-56.51684256294,0.,-20.90222485727));
#870 = CARTESIAN_POINT('',(-56.25475918012,0.,-18.50600121464));
#871 = CARTESIAN_POINT('',(-56.12781666532,0.,-17.41039379482));
#872 = CARTESIAN_POINT('',(-55.99425078494,0.,-16.31556672548));
#873 = CARTESIAN_POINT('',(-55.85443402908,0.,-15.22152452416));
#874 = CARTESIAN_POINT('',(-55.70871000316,0.,-14.12826498346));
#875 = CARTESIAN_POINT('',(-55.40689818462,0.,-11.94917660427));
#876 = CARTESIAN_POINT('',(-55.25087061454,0.,-10.8633407751));
#877 = CARTESIAN_POINT('',(-55.08962659747,0.,-9.778262664393));
#878 = CARTESIAN_POINT('',(-54.9234542307,0.,-8.693930958945));
#879 = CARTESIAN_POINT('',(-54.75261900752,0.,-7.610331363455));
#880 = CARTESIAN_POINT('',(-54.25276524787,0.,-4.521747678532));
#881 = CARTESIAN_POINT('',(-53.91301024991,0.,-2.518508102105));
#882 = CARTESIAN_POINT('',(-53.55965266425,0.,-0.51760885396));
#883 = CARTESIAN_POINT('',(-53.19401312236,0.,1.481066445788));
#884 = CARTESIAN_POINT('',(-52.81719717502,0.,3.477634583564));
#885 = CARTESIAN_POINT('',(-52.02598179836,0.,7.554620384433));
#886 = CARTESIAN_POINT('',(-51.61066000955,0.,9.634848532121));
#887 = CARTESIAN_POINT('',(-51.18517412695,0.,11.713030981623));
#888 = CARTESIAN_POINT('',(-50.750320927,0.,13.789266825356));
#889 = CARTESIAN_POINT('',(-50.30665362194,0.,15.863620580048));
#890 = CARTESIAN_POINT('',(-49.69059510089,0.,18.687206878044));
#891 = CARTESIAN_POINT('',(-49.5256020758,0.,19.438050074728));
#892 = CARTESIAN_POINT('',(-49.35950473999,0.,20.18865011834));
#893 = CARTESIAN_POINT('',(-49.19231275177,0.,20.939007016732));
#894 = CARTESIAN_POINT('',(-49.02403119601,0.,21.689119815066));
#895 = CARTESIAN_POINT('',(-48.32811930982,0.,24.77018092705));
#896 = CARTESIAN_POINT('',(-47.79105418139,0.,27.098990114212));
#897 = CARTESIAN_POINT('',(-47.24347393388,0.,29.425369638399));
#898 = CARTESIAN_POINT('',(-46.68495736919,0.,31.749154693639));
#899 = CARTESIAN_POINT('',(-46.11459597836,0.,34.070046468804));
#900 = CARTESIAN_POINT('',(-44.95997288217,0.,38.655446813697));
#901 = CARTESIAN_POINT('',(-44.37627684534,0.,40.920079071375));
#902 = CARTESIAN_POINT('',(-43.77865089474,0.,43.181123026306));
#903 = CARTESIAN_POINT('',(-43.1654121029,0.,45.438009377906));
#904 = CARTESIAN_POINT('',(-42.53451633726,0.,47.690003184394));
#905 = CARTESIAN_POINT('',(-41.45826057943,0.,51.405182990691));
#906 = CARTESIAN_POINT('',(-41.02425094751,0.,52.871642363491));
#907 = CARTESIAN_POINT('',(-40.58115920159,0.,54.335405788808));
#908 = CARTESIAN_POINT('',(-40.12835888655,0.,55.796204297507));
#909 = CARTESIAN_POINT('',(-39.66523427185,0.,57.25374944012));
#910 = CARTESIAN_POINT('',(-38.81940382512,0.,59.848214297103));
#911 = CARTESIAN_POINT('',(-38.44089086115,0.,60.986500222272));
#912 = CARTESIAN_POINT('',(-38.05539782485,0.,62.122456025929));
#913 = CARTESIAN_POINT('',(-37.66266578998,0.,63.255933337735));
#914 = CARTESIAN_POINT('',(-37.26246155882,0.,64.386783361957));
#915 = CARTESIAN_POINT('',(-36.6114336561,0.,66.187356563364));
#916 = CARTESIAN_POINT('',(-36.36555483692,0.,66.858867759956));
#917 = CARTESIAN_POINT('',(-36.11690740868,0.,67.529362340749));
#918 = CARTESIAN_POINT('',(-35.86545352597,0.,68.198809972402));
#919 = CARTESIAN_POINT('',(-35.61115993525,0.,68.867181062934));
#920 = CARTESIAN_POINT('',(-35.0917533424,0.,70.214900619129));
#921 = CARTESIAN_POINT('',(-34.82652591102,0.,70.894205111264));
#922 = CARTESIAN_POINT('',(-34.55828541635,0.,71.572329645608));
#923 = CARTESIAN_POINT('',(-34.28700701685,0.,72.249245041653));
#924 = CARTESIAN_POINT('',(-34.0126712938,0.,72.924923530895));
#925 = CARTESIAN_POINT('',(-33.4486185264,0.,74.296214508594));
#926 = CARTESIAN_POINT('',(-33.15869345513,0.,74.991741604475));
#927 = CARTESIAN_POINT('',(-32.8654737434,0.,75.685891001188));
#928 = CARTESIAN_POINT('',(-32.56895013746,0.,76.378635812366));
#929 = CARTESIAN_POINT('',(-32.26911942383,0.,77.069951308577));
#930 = CARTESIAN_POINT('',(-31.65372717113,0.,78.470438642219));
#931 = CARTESIAN_POINT('',(-31.337963584,0.,79.179521901969));
#932 = CARTESIAN_POINT('',(-31.01869689057,0.,79.887040099093));
#933 = CARTESIAN_POINT('',(-30.69593628662,0.,80.592971413454));
#934 = CARTESIAN_POINT('',(-30.36969694109,0.,81.297296802247));
#935 = CARTESIAN_POINT('',(-30.03999999601,0.,82.));
#936 = PCURVE('',#487,#937);
#937 = DEFINITIONAL_REPRESENTATION('',(#938),#1061);
#938 = B_SPLINE_CURVE_WITH_KNOTS('',6,(#939,#940,#941,#942,#943,#944,
    #945,#946,#947,#948,#949,#950,#951,#952,#953,#954,#955,#956,#957,
    #958,#959,#960,#961,#962,#963,#964,#965,#966,#967,#968,#969,#970,
    #971,#972,#973,#974,#975,#976,#977,#978,#979,#980,#981,#982,#983,
    #984,#985,#986,#987,#988,#989,#990,#991,#992,#993,#994,#995,#996,
    #997,#998,#999,#1000,#1001,#1002,#1003,#1004,#1005,#1006,#1007,#1008
    ,#1009,#1010,#1011,#1012,#1013,#1014,#1015,#1016,#1017,#1018,#1019,
    #1020,#1021,#1022,#1023,#1024,#1025,#1026,#1027,#1028,#1029,#1030,
    #1031,#1032,#1033,#1034,#1035,#1036,#1037,#1038,#1039,#1040,#1041,
    #1042,#1043,#1044,#1045,#1046,#1047,#1048,#1049,#1050,#1051,#1052,
    #1053,#1054,#1055,#1056,#1057,#1058,#1059,#1060),.UNSPECIFIED.,.F.,
  .F.,(7,5,5,5,5,5,5,5,5,5,5,5,5,5,5,5,5,5,5,5,5,5,5,5,7),(0.,
    3.845865818595E-02,7.408835136816E-02,0.103765291288,0.132907050189,
    0.16321682466,0.193789111909,0.224814691742,0.267603340301,
    0.311291165707,0.355665859663,0.400336861435,0.438015346451,
    0.475490898678,0.544902386907,0.617370152447,0.643632949395,
    0.72527902966,0.805172644864,0.857418058708,0.898397863224,
    0.922827754047,0.947740488924,0.973482910177,1.),.UNSPECIFIED.);
#939 = CARTESIAN_POINT('',(16.4,82.650000004684));
#940 = CARTESIAN_POINT('',(16.929490747659,81.656542781851));
#941 = CARTESIAN_POINT('',(17.48956662779,80.679365327162));
#942 = CARTESIAN_POINT('',(18.080930159023,79.720388817496));
#943 = CARTESIAN_POINT('',(18.70405781058,78.781643680781));
#944 = CARTESIAN_POINT('',(19.359100457801,77.865205270638));
#945 = CARTESIAN_POINT('',(20.681876677601,76.146623049422));
#946 = CARTESIAN_POINT('',(21.345156505893,75.340999055178));
#947 = CARTESIAN_POINT('',(22.035315157241,74.55787555916));
#948 = CARTESIAN_POINT('',(22.751820281912,73.79874743997));
#949 = CARTESIAN_POINT('',(23.493834314833,73.064923989546));
#950 = CARTESIAN_POINT('',(24.898480053467,71.768253979492));
#951 = CARTESIAN_POINT('',(25.553684773342,71.197304585011));
#952 = CARTESIAN_POINT('',(26.225115122215,70.645269380241));
#953 = CARTESIAN_POINT('',(26.91200026444,70.112605491305));
#954 = CARTESIAN_POINT('',(27.613482413075,69.599615452703));
#955 = CARTESIAN_POINT('',(29.030875349564,68.622198566236));
#956 = CARTESIAN_POINT('',(29.746312215277,68.157053024764));
#957 = CARTESIAN_POINT('',(30.474063034981,67.711171460874));
#958 = CARTESIAN_POINT('',(31.213233235572,67.284539357741));
#959 = CARTESIAN_POINT('',(31.962926521203,66.87701018522));
#960 = CARTESIAN_POINT('',(33.512033996102,66.084082857465));
#961 = CARTESIAN_POINT('',(34.312243328706,65.700223141398));
#962 = CARTESIAN_POINT('',(35.121911864032,65.336470687828));
#963 = CARTESIAN_POINT('',(35.940104442019,64.9924122404));
#964 = CARTESIAN_POINT('',(36.765946074089,64.667543808845));
#965 = CARTESIAN_POINT('',(38.438542198327,64.052418631049));
#966 = CARTESIAN_POINT('',(39.285414315444,63.762486568906));
#967 = CARTESIAN_POINT('',(40.138441821621,63.490933779341));
#968 = CARTESIAN_POINT('',(40.996883292939,63.237130786333));
#969 = CARTESIAN_POINT('',(41.860076183448,63.000420217577));
#970 = CARTESIAN_POINT('',(43.607673071934,62.556595669812));
#971 = CARTESIAN_POINT('',(44.492195603506,62.349974044918));
#972 = CARTESIAN_POINT('',(45.380411803936,62.159582739169));
#973 = CARTESIAN_POINT('',(46.27178994124,61.984729583553));
#974 = CARTESIAN_POINT('',(47.165869178851,61.824734901087));
#975 = CARTESIAN_POINT('',(49.298514026862,61.477874957079));
#976 = CARTESIAN_POINT('',(50.539144867729,61.303824360876));
#977 = CARTESIAN_POINT('',(51.783150417813,61.155064542797));
#978 = CARTESIAN_POINT('',(53.029695293571,61.029970668042));
#979 = CARTESIAN_POINT('',(54.27811388069,60.927027922675));
#980 = CARTESIAN_POINT('',(56.803972640404,60.760924733115));
#981 = CARTESIAN_POINT('',(58.081446960999,60.698647118738));
#982 = CARTESIAN_POINT('',(59.359798464336,60.656519340342));
#983 = CARTESIAN_POINT('',(60.638592040713,60.633183815915));
#984 = CARTESIAN_POINT('',(61.917493046849,60.627402278214));
#985 = CARTESIAN_POINT('',(64.495146053391,60.648854972036));
#986 = CARTESIAN_POINT('',(65.793878312986,60.676609530869));
#987 = CARTESIAN_POINT('',(67.092210712486,60.720124806302));
#988 = CARTESIAN_POINT('',(68.389944113502,60.778330677986));
#989 = CARTESIAN_POINT('',(69.686933765356,60.850257056468));
#990 = CARTESIAN_POINT('',(72.287900757586,61.020349346007));
#991 = CARTESIAN_POINT('',(73.591857771297,61.118686674849));
#992 = CARTESIAN_POINT('',(74.894864567319,61.229130984492));
#993 = CARTESIAN_POINT('',(76.196851235372,61.350867588779));
#994 = CARTESIAN_POINT('',(77.497775142724,61.483157437053));
#995 = CARTESIAN_POINT('',(79.893998785351,61.74524081988));
#996 = CARTESIAN_POINT('',(80.989606205173,61.872183334676));
#997 = CARTESIAN_POINT('',(82.084433274518,62.005749215051));
#998 = CARTESIAN_POINT('',(83.178475475836,62.145565970916));
#999 = CARTESIAN_POINT('',(84.271735016532,62.291289996839));
#1000 = CARTESIAN_POINT('',(86.450823395728,62.593101815376));
#1001 = CARTESIAN_POINT('',(87.536659224891,62.749129385452));
#1002 = CARTESIAN_POINT('',(88.621737335607,62.910373402529));
#1003 = CARTESIAN_POINT('',(89.706069041055,63.076545769292));
#1004 = CARTESIAN_POINT('',(90.789668636545,63.247380992478));
#1005 = CARTESIAN_POINT('',(93.878252321468,63.74723475213));
#1006 = CARTESIAN_POINT('',(95.881491897895,64.086989750081));
#1007 = CARTESIAN_POINT('',(97.88239114604,64.440347335744));
#1008 = CARTESIAN_POINT('',(99.881066445788,64.80598687764));
#1009 = CARTESIAN_POINT('',(101.87763458356,65.182802824972));
#1010 = CARTESIAN_POINT('',(105.95462038443,65.974018201634));
#1011 = CARTESIAN_POINT('',(108.03484853212,66.389339990446));
#1012 = CARTESIAN_POINT('',(110.11303098162,66.81482587305));
#1013 = CARTESIAN_POINT('',(112.18926682535,67.249679072991));
#1014 = CARTESIAN_POINT('',(114.26362058004,67.693346378056));
#1015 = CARTESIAN_POINT('',(117.08720687804,68.309404899106));
#1016 = CARTESIAN_POINT('',(117.83805007472,68.474397924197));
#1017 = CARTESIAN_POINT('',(118.58865011834,68.640495260005));
#1018 = CARTESIAN_POINT('',(119.33900701673,68.807687248224));
#1019 = CARTESIAN_POINT('',(120.08911981506,68.975968803987));
#1020 = CARTESIAN_POINT('',(123.17018092705,69.671880690178));
#1021 = CARTESIAN_POINT('',(125.49899011421,70.208945818609));
#1022 = CARTESIAN_POINT('',(127.82536963839,70.756526066117));
#1023 = CARTESIAN_POINT('',(130.14915469363,71.315042630804));
#1024 = CARTESIAN_POINT('',(132.4700464688,71.885404021639));
#1025 = CARTESIAN_POINT('',(137.05544681369,73.040027117828));
#1026 = CARTESIAN_POINT('',(139.32007907137,73.623723154652));
#1027 = CARTESIAN_POINT('',(141.5811230263,74.221349105253));
#1028 = CARTESIAN_POINT('',(143.8380093779,74.834587897098));
#1029 = CARTESIAN_POINT('',(146.09000318439,75.465483662734));
#1030 = CARTESIAN_POINT('',(149.80518299069,76.541739420562));
#1031 = CARTESIAN_POINT('',(151.27164236349,76.975749052485));
#1032 = CARTESIAN_POINT('',(152.7354057888,77.418840798402));
#1033 = CARTESIAN_POINT('',(154.1962042975,77.871641113444));
#1034 = CARTESIAN_POINT('',(155.65374944012,78.334765728143));
#1035 = CARTESIAN_POINT('',(158.2482142971,79.180596174871));
#1036 = CARTESIAN_POINT('',(159.38650022227,79.559109138845));
#1037 = CARTESIAN_POINT('',(160.52245602592,79.944602175145));
#1038 = CARTESIAN_POINT('',(161.65593333773,80.337334210011));
#1039 = CARTESIAN_POINT('',(162.78678336195,80.737538441176));
#1040 = CARTESIAN_POINT('',(164.58735656336,81.3885663439));
#1041 = CARTESIAN_POINT('',(165.25886775995,81.634445163076));
#1042 = CARTESIAN_POINT('',(165.92936234074,81.883092591316));
#1043 = CARTESIAN_POINT('',(166.5988099724,82.134546474026));
#1044 = CARTESIAN_POINT('',(167.26718106293,82.388840064742));
#1045 = CARTESIAN_POINT('',(168.61490061912,82.908246657592));
#1046 = CARTESIAN_POINT('',(169.29420511126,83.173474088977));
#1047 = CARTESIAN_POINT('',(169.9723296456,83.441714583646));
#1048 = CARTESIAN_POINT('',(170.64924504165,83.712992983143));
#1049 = CARTESIAN_POINT('',(171.32492353089,83.987328706196));
#1050 = CARTESIAN_POINT('',(172.69621450859,84.551381473593));
#1051 = CARTESIAN_POINT('',(173.39174160447,84.841306544866));
#1052 = CARTESIAN_POINT('',(174.08589100118,85.134526256591));
#1053 = CARTESIAN_POINT('',(174.77863581236,85.431049862532));
#1054 = CARTESIAN_POINT('',(175.46995130857,85.73088057617));
#1055 = CARTESIAN_POINT('',(176.87043864221,86.346272828862));
#1056 = CARTESIAN_POINT('',(177.57952190196,86.662036415994));
#1057 = CARTESIAN_POINT('',(178.28704009909,86.981303109429));
#1058 = CARTESIAN_POINT('',(178.99297141345,87.304063713371));
#1059 = CARTESIAN_POINT('',(179.69729680224,87.630303058901));
#1060 = CARTESIAN_POINT('',(180.4,87.960000003981));
#1061 = ( GEOMETRIC_REPRESENTATION_CONTEXT(2) 
PARAMETRIC_REPRESENTATION_CONTEXT() REPRESENTATION_CONTEXT('2D SPACE',''
  ) );
#1062 = PCURVE('',#702,#1063);
#1063 = DEFINITIONAL_REPRESENTATION('',(#1064),#1187);
#1064 = B_SPLINE_CURVE_WITH_KNOTS('',6,(#1065,#1066,#1067,#1068,#1069,
    #1070,#1071,#1072,#1073,#1074,#1075,#1076,#1077,#1078,#1079,#1080,
    #1081,#1082,#1083,#1084,#1085,#1086,#1087,#1088,#1089,#1090,#1091,
    #1092,#1093,#1094,#1095,#1096,#1097,#1098,#1099,#1100,#1101,#1102,
    #1103,#1104,#1105,#1106,#1107,#1108,#1109,#1110,#1111,#1112,#1113,
    #1114,#1115,#1116,#1117,#1118,#1119,#1120,#1121,#1122,#1123,#1124,
    #1125,#1126,#1127,#1128,#1129,#1130,#1131,#1132,#1133,#1134,#1135,
    #1136,#1137,#1138,#1139,#1140,#1141,#1142,#1143,#1144,#1145,#1146,
    #1147,#1148,#1149,#1150,#1151,#1152,#1153,#1154,#1155,#1156,#1157,
    #1158,#1159,#1160,#1161,#1162,#1163,#1164,#1165,#1166,#1167,#1168,
    #1169,#1170,#1171,#1172,#1173,#1174,#1175,#1176,#1177,#1178,#1179,
    #1180,#1181,#1182,#1183,#1184,#1185,#1186),.UNSPECIFIED.,.F.,.F.,(7,
    5,5,5,5,5,5,5,5,5,5,5,5,5,5,5,5,5,5,5,5,5,5,5,7),(0.,
    3.845865818595E-02,7.408835136816E-02,0.103765291288,0.132907050189,
    0.16321682466,0.193789111909,0.224814691742,0.267603340301,
    0.311291165707,0.355665859663,0.400336861435,0.438015346451,
    0.475490898678,0.544902386907,0.617370152447,0.643632949395,
    0.72527902966,0.805172644864,0.857418058708,0.898397863224,
    0.922827754047,0.947740488924,0.973482910177,1.),.UNSPECIFIED.);
#1065 = CARTESIAN_POINT('',(0.5,0.));
#1066 = CARTESIAN_POINT('',(0.5,5.603005120739E-03));
#1067 = CARTESIAN_POINT('',(0.5,1.131472043608E-02));
#1068 = CARTESIAN_POINT('',(0.5,1.713383068625E-02));
#1069 = CARTESIAN_POINT('',(0.5,2.305766615334E-02));
#1070 = CARTESIAN_POINT('',(0.5,2.908188907251E-02));
#1071 = CARTESIAN_POINT('',(0.5,4.086807126102E-02));
#1072 = CARTESIAN_POINT('',(0.5,4.66169420208E-02));
#1073 = CARTESIAN_POINT('',(0.5,5.244126985842E-02));
#1074 = CARTESIAN_POINT('',(0.5,5.833486279452E-02));
#1075 = CARTESIAN_POINT('',(0.5,6.429054124919E-02));
#1076 = CARTESIAN_POINT('',(0.5,7.530544153963E-02));
#1077 = CARTESIAN_POINT('',(0.5,8.034836985737E-02));
#1078 = CARTESIAN_POINT('',(0.5,8.542404663372E-02));
#1079 = CARTESIAN_POINT('',(0.5,9.052772160552E-02));
#1080 = CARTESIAN_POINT('',(0.5,9.565463167186E-02));
#1081 = CARTESIAN_POINT('',(0.5,0.105852578995));
#1082 = CARTESIAN_POINT('',(0.5,0.110923059556));
#1083 = CARTESIAN_POINT('',(0.5,0.116006985203));
#1084 = CARTESIAN_POINT('',(0.5,0.121100242035));
#1085 = CARTESIAN_POINT('',(0.5,0.12619905764));
#1086 = CARTESIAN_POINT('',(0.5,0.136605390559));
#1087 = CARTESIAN_POINT('',(0.5,0.141913125973));
#1088 = CARTESIAN_POINT('',(0.5,0.147219421967));
#1089 = CARTESIAN_POINT('',(0.5,0.152521046988));
#1090 = CARTESIAN_POINT('',(0.5,0.157815301954));
#1091 = CARTESIAN_POINT('',(0.5,0.168430468784));
#1092 = CARTESIAN_POINT('',(0.5,0.173751204662));
#1093 = CARTESIAN_POINT('',(0.5,0.179060014335));
#1094 = CARTESIAN_POINT('',(0.5,0.184355183458));
#1095 = CARTESIAN_POINT('',(0.5,0.189635453731));
#1096 = CARTESIAN_POINT('',(0.5,0.200242603228));
#1097 = CARTESIAN_POINT('',(0.5,0.205568975378));
#1098 = CARTESIAN_POINT('',(0.5,0.210878271271));
#1099 = CARTESIAN_POINT('',(0.5,0.216169967046));
#1100 = CARTESIAN_POINT('',(0.5,0.221443848596));
#1101 = CARTESIAN_POINT('',(0.5,0.233948973796));
#1102 = CARTESIAN_POINT('',(0.5,0.24116409726));
#1103 = CARTESIAN_POINT('',(0.5,0.248345675404));
#1104 = CARTESIAN_POINT('',(0.5,0.255494528549));
#1105 = CARTESIAN_POINT('',(0.5,0.262612006045));
#1106 = CARTESIAN_POINT('',(0.5,0.276936943741));
#1107 = CARTESIAN_POINT('',(0.5,0.284143014053));
#1108 = CARTESIAN_POINT('',(0.5,0.291320177248));
#1109 = CARTESIAN_POINT('',(0.5,0.298470519993));
#1110 = CARTESIAN_POINT('',(0.5,0.305596300547));
#1111 = CARTESIAN_POINT('',(0.5,0.319915385208));
#1112 = CARTESIAN_POINT('',(0.5,0.327107902417));
#1113 = CARTESIAN_POINT('',(0.5,0.334280109781));
#1114 = CARTESIAN_POINT('',(0.5,0.341434513244));
#1115 = CARTESIAN_POINT('',(0.5,0.34857362134));
#1116 = CARTESIAN_POINT('',(0.5,0.362873964379));
#1117 = CARTESIAN_POINT('',(0.5,0.3700349784));
#1118 = CARTESIAN_POINT('',(0.5,0.377185632181));
#1119 = CARTESIAN_POINT('',(0.5,0.38432841001));
#1120 = CARTESIAN_POINT('',(0.5,0.391465732707));
#1121 = CARTESIAN_POINT('',(0.5,0.404617514106));
#1122 = CARTESIAN_POINT('',(0.5,0.410632837083));
#1123 = CARTESIAN_POINT('',(0.5,0.416647395752));
#1124 = CARTESIAN_POINT('',(0.5,0.422662561976));
#1125 = CARTESIAN_POINT('',(0.5,0.42867966437));
#1126 = CARTESIAN_POINT('',(0.5,0.440687910666));
#1127 = CARTESIAN_POINT('',(0.5,0.446679012567));
#1128 = CARTESIAN_POINT('',(0.5,0.452674578206));
#1129 = CARTESIAN_POINT('',(0.5,0.45867582553));
#1130 = CARTESIAN_POINT('',(0.5,0.464683923892));
#1131 = CARTESIAN_POINT('',(0.5,0.481842859042));
#1132 = CARTESIAN_POINT('',(0.5,0.493013045451));
#1133 = CARTESIAN_POINT('',(0.5,0.504217742571));
#1134 = CARTESIAN_POINT('',(0.5,0.515463431529));
#1135 = CARTESIAN_POINT('',(0.5,0.526755858172));
#1136 = CARTESIAN_POINT('',(0.5,0.549943639018));
#1137 = CARTESIAN_POINT('',(0.5,0.561843587443));
#1138 = CARTESIAN_POINT('',(0.5,0.573805447917));
#1139 = CARTESIAN_POINT('',(0.5,0.58583370933));
#1140 = CARTESIAN_POINT('',(0.5,0.597931443191));
#1141 = CARTESIAN_POINT('',(0.5,0.614509965372));
#1142 = CARTESIAN_POINT('',(0.5,0.618929228563));
#1143 = CARTESIAN_POINT('',(0.5,0.623357852728));
#1144 = CARTESIAN_POINT('',(0.5,0.627795866179));
#1145 = CARTESIAN_POINT('',(0.5,0.632243262391));
#1146 = CARTESIAN_POINT('',(0.5,0.650555156297));
#1147 = CARTESIAN_POINT('',(0.5,0.664500546449));
#1148 = CARTESIAN_POINT('',(0.5,0.678534948639));
#1149 = CARTESIAN_POINT('',(0.5,0.692653505265));
#1150 = CARTESIAN_POINT('',(0.5,0.70684670803));
#1151 = CARTESIAN_POINT('',(0.5,0.735047356938));
#1152 = CARTESIAN_POINT('',(0.5,0.749052147256));
#1153 = CARTESIAN_POINT('',(0.5,0.763100770582));
#1154 = CARTESIAN_POINT('',(0.5,0.77717470256));
#1155 = CARTESIAN_POINT('',(0.5,0.791250168121));
#1156 = CARTESIAN_POINT('',(0.5,0.814487708918));
#1157 = CARTESIAN_POINT('',(0.5,0.823664415759));
#1158 = CARTESIAN_POINT('',(0.5,0.832822500014));
#1159 = CARTESIAN_POINT('',(0.5,0.841953629022));
#1160 = CARTESIAN_POINT('',(0.5,0.851049069655));
#1161 = CARTESIAN_POINT('',(0.5,0.867199290233));
#1162 = CARTESIAN_POINT('',(0.5,0.874271195724));
#1163 = CARTESIAN_POINT('',(0.5,0.881311454689));
#1164 = CARTESIAN_POINT('',(0.5,0.888315781456));
#1165 = CARTESIAN_POINT('',(0.5,0.895279970419));
#1166 = CARTESIAN_POINT('',(0.5,0.906325338546));
#1167 = CARTESIAN_POINT('',(0.5,0.910434985281));
#1168 = CARTESIAN_POINT('',(0.5,0.914528084276));
#1169 = CARTESIAN_POINT('',(0.5,0.918603810566));
#1170 = CARTESIAN_POINT('',(0.5,0.922661370152));
#1171 = CARTESIAN_POINT('',(0.5,0.930818451261));
#1172 = CARTESIAN_POINT('',(0.5,0.934917219881));
#1173 = CARTESIAN_POINT('',(0.5,0.938995497485));
#1174 = CARTESIAN_POINT('',(0.5,0.943052522336));
#1175 = CARTESIAN_POINT('',(0.5,0.94708757933));
#1176 = CARTESIAN_POINT('',(0.5,0.955246049144));
#1177 = CARTESIAN_POINT('',(0.5,0.959367931148));
#1178 = CARTESIAN_POINT('',(0.5,0.963464909827));
#1179 = CARTESIAN_POINT('',(0.5,0.967536311392));
#1180 = CARTESIAN_POINT('',(0.5,0.97158152445));
#1181 = CARTESIAN_POINT('',(0.5,0.979739403829));
#1182 = CARTESIAN_POINT('',(0.5,0.983850437543));
#1183 = CARTESIAN_POINT('',(0.5,0.987932502839));
#1184 = CARTESIAN_POINT('',(0.5,0.991985074402));
#1185 = CARTESIAN_POINT('',(0.5,0.996007699903));
#1186 = CARTESIAN_POINT('',(0.5,1.));
#1187 = ( GEOMETRIC_REPRESENTATION_CONTEXT(2) 
PARAMETRIC_REPRESENTATION_CONTEXT() REPRESENTATION_CONTEXT('2D SPACE',''
  ) );
#1188 = ADVANCED_FACE('',(#1189),#211,.F.);
#1189 = FACE_BOUND('',#1190,.F.);
#1190 = EDGE_LOOP('',(#1191,#1212,#1213,#1214));
#1191 = ORIENTED_EDGE('',*,*,#1192,.T.);
#1192 = EDGE_CURVE('',#1193,#152,#1195,.T.);
#1193 = VERTEX_POINT('',#1194);
#1194 = CARTESIAN_POINT('',(30.04,0.,82.));
#1195 = SURFACE_CURVE('',#1196,(#1200,#1206),.PCURVE_S1.);
#1196 = LINE('',#1197,#1198);
#1197 = CARTESIAN_POINT('',(-42.48,0.,82.));
#1198 = VECTOR('',#1199,1.);
#1199 = DIRECTION('',(1.,-0.,0.));
#1200 = PCURVE('',#211,#1201);
#1201 = DEFINITIONAL_REPRESENTATION('',(#1202),#1205);
#1202 = B_SPLINE_CURVE_WITH_KNOTS('',1,(#1203,#1204),.UNSPECIFIED.,.F.,
  .F.,(2,2),(-6.54569701196,75.520000000001),.PIECEWISE_BEZIER_KNOTS.);
#1203 = CARTESIAN_POINT('',(82.06569701196,-8.628241564171E-15));
#1204 = CARTESIAN_POINT('',(-1.39266376209E-12,1.172842520672E-14));
#1205 = ( GEOMETRIC_REPRESENTATION_CONTEXT(2) 
PARAMETRIC_REPRESENTATION_CONTEXT() REPRESENTATION_CONTEXT('2D SPACE',''
  ) );
#1206 = PCURVE('',#169,#1207);
#1207 = DEFINITIONAL_REPRESENTATION('',(#1208),#1211);
#1208 = B_SPLINE_CURVE_WITH_KNOTS('',1,(#1209,#1210),.UNSPECIFIED.,.F.,
  .F.,(2,2),(-6.54569701196,75.520000000001),.PIECEWISE_BEZIER_KNOTS.);
#1209 = CARTESIAN_POINT('',(180.4,68.97430298804));
#1210 = CARTESIAN_POINT('',(180.4,151.04));
#1211 = ( GEOMETRIC_REPRESENTATION_CONTEXT(2) 
PARAMETRIC_REPRESENTATION_CONTEXT() REPRESENTATION_CONTEXT('2D SPACE',''
  ) );
#1212 = ORIENTED_EDGE('',*,*,#183,.F.);
#1213 = ORIENTED_EDGE('',*,*,#790,.T.);
#1214 = ORIENTED_EDGE('',*,*,#1215,.T.);
#1215 = EDGE_CURVE('',#791,#1193,#1216,.T.);
#1216 = SURFACE_CURVE('',#1217,(#1233,#1252),.PCURVE_S1.);
#1217 = B_SPLINE_CURVE_WITH_KNOTS('',14,(#1218,#1219,#1220,#1221,#1222,
    #1223,#1224,#1225,#1226,#1227,#1228,#1229,#1230,#1231,#1232),
  .UNSPECIFIED.,.T.,.F.,(15,15),(0.,1.),.PIECEWISE_BEZIER_KNOTS.);
#1218 = CARTESIAN_POINT('',(30.04,-1.922995571154E-14,82.));
#1219 = CARTESIAN_POINT('',(30.040000000004,6.444752929369,82.));
#1220 = CARTESIAN_POINT('',(23.523892589554,12.889508237631,82.));
#1221 = CARTESIAN_POINT('',(10.491669438505,17.703285816798,82.));
#1222 = CARTESIAN_POINT('',(-7.107782866745,19.255289476048,82.));
#1223 = CARTESIAN_POINT('',(-25.37706083853,16.499307724129,82.));
#1224 = CARTESIAN_POINT('',(-39.32361271778,9.562112121967,82.));
#1225 = CARTESIAN_POINT('',(-44.57421120558,2.201053680444E-10,82.));
#1226 = CARTESIAN_POINT('',(-39.32361271778,-9.56211212237,82.));
#1227 = CARTESIAN_POINT('',(-25.37706083853,-16.49930772382,82.));
#1228 = CARTESIAN_POINT('',(-7.107782866742,-19.25528947623,82.));
#1229 = CARTESIAN_POINT('',(10.491669438502,-17.7032858167,82.));
#1230 = CARTESIAN_POINT('',(23.523892589555,-12.88950823766,82.));
#1231 = CARTESIAN_POINT('',(30.040000000004,-6.444752929362,82.));
#1232 = CARTESIAN_POINT('',(30.04,1.629718094411E-14,82.));
#1233 = PCURVE('',#211,#1234);
#1234 = DEFINITIONAL_REPRESENTATION('',(#1235),#1251);
#1235 = B_SPLINE_CURVE_WITH_KNOTS('',14,(#1236,#1237,#1238,#1239,#1240,
    #1241,#1242,#1243,#1244,#1245,#1246,#1247,#1248,#1249,#1250),
  .UNSPECIFIED.,.F.,.F.,(15,15),(0.,1.),.PIECEWISE_BEZIER_KNOTS.);
#1236 = CARTESIAN_POINT('',(3.,-8.245690397886E-15));
#1237 = CARTESIAN_POINT('',(2.999999999996,6.444752929369));
#1238 = CARTESIAN_POINT('',(9.516107410446,12.889508237631));
#1239 = CARTESIAN_POINT('',(22.548330561495,17.703285816798));
#1240 = CARTESIAN_POINT('',(40.147782866745,19.255289476048));
#1241 = CARTESIAN_POINT('',(58.417060838534,16.499307724129));
#1242 = CARTESIAN_POINT('',(72.363612717789,9.562112121967));
#1243 = CARTESIAN_POINT('',(77.614211205582,2.200978440085E-10));
#1244 = CARTESIAN_POINT('',(72.363612717787,-9.56211212237));
#1245 = CARTESIAN_POINT('',(58.417060838537,-16.49930772382));
#1246 = CARTESIAN_POINT('',(40.147782866742,-19.25528947623));
#1247 = CARTESIAN_POINT('',(22.548330561498,-17.7032858167));
#1248 = CARTESIAN_POINT('',(9.516107410445,-12.88950823766));
#1249 = CARTESIAN_POINT('',(2.999999999996,-6.444752929362));
#1250 = CARTESIAN_POINT('',(3.,2.728144625777E-14));
#1251 = ( GEOMETRIC_REPRESENTATION_CONTEXT(2) 
PARAMETRIC_REPRESENTATION_CONTEXT() REPRESENTATION_CONTEXT('2D SPACE',''
  ) );
#1252 = PCURVE('',#702,#1253);
#1253 = DEFINITIONAL_REPRESENTATION('',(#1254),#1258);
#1254 = LINE('',#1255,#1256);
#1255 = CARTESIAN_POINT('',(0.,1.));
#1256 = VECTOR('',#1257,1.);
#1257 = DIRECTION('',(1.,0.));
#1258 = ( GEOMETRIC_REPRESENTATION_CONTEXT(2) 
PARAMETRIC_REPRESENTATION_CONTEXT() REPRESENTATION_CONTEXT('2D SPACE',''
  ) );
#1259 = ADVANCED_FACE('',(#1260),#169,.T.);
#1260 = FACE_BOUND('',#1261,.T.);
#1261 = EDGE_LOOP('',(#1262,#1263,#1264,#1289));
#1262 = ORIENTED_EDGE('',*,*,#151,.F.);
#1263 = ORIENTED_EDGE('',*,*,#621,.F.);
#1264 = ORIENTED_EDGE('',*,*,#1265,.T.);
#1265 = EDGE_CURVE('',#622,#1193,#1266,.T.);
#1266 = SURFACE_CURVE('',#1267,(#1273,#1282),.PCURVE_S1.);
#1267 = ( BOUNDED_CURVE() B_SPLINE_CURVE(4,(#1268,#1269,#1270,#1271,
#1272),.UNSPECIFIED.,.F.,.F.) B_SPLINE_CURVE_WITH_KNOTS((5,5),(0.,1.),
.PIECEWISE_BEZIER_KNOTS.) CURVE() GEOMETRIC_REPRESENTATION_ITEM() 
RATIONAL_B_SPLINE_CURVE((1.,1.,1.,1.,1.)) REPRESENTATION_ITEM('') );
#1268 = CARTESIAN_POINT('',(35.35,9.446570959896E-15,-82.));
#1269 = CARTESIAN_POINT('',(79.67698175165,-1.602118142362E-13,
    -58.37469820884));
#1270 = CARTESIAN_POINT('',(45.354537343834,1.668936482056E-13,
    10.181560023757));
#1271 = CARTESIAN_POINT('',(50.68580173917,-1.027613520273E-13,
    37.996344167294));
#1272 = CARTESIAN_POINT('',(30.04,-1.922995571154E-14,82.));
#1273 = PCURVE('',#169,#1274);
#1274 = DEFINITIONAL_REPRESENTATION('',(#1275),#1281);
#1275 = ( BOUNDED_CURVE() B_SPLINE_CURVE(4,(#1276,#1277,#1278,#1279,
#1280),.UNSPECIFIED.,.F.,.F.) B_SPLINE_CURVE_WITH_KNOTS((5,5),(0.,1.),
.PIECEWISE_BEZIER_KNOTS.) CURVE() GEOMETRIC_REPRESENTATION_ITEM() 
RATIONAL_B_SPLINE_CURVE((1.,1.,1.,1.,1.)) REPRESENTATION_ITEM('') );
#1276 = CARTESIAN_POINT('',(16.4,153.35));
#1277 = CARTESIAN_POINT('',(40.025301791153,197.67698175165));
#1278 = CARTESIAN_POINT('',(108.58156002375,163.35453734383));
#1279 = CARTESIAN_POINT('',(136.39634416729,168.68580173917));
#1280 = CARTESIAN_POINT('',(180.4,148.04));
#1281 = ( GEOMETRIC_REPRESENTATION_CONTEXT(2) 
PARAMETRIC_REPRESENTATION_CONTEXT() REPRESENTATION_CONTEXT('2D SPACE',''
  ) );
#1282 = PCURVE('',#702,#1283);
#1283 = DEFINITIONAL_REPRESENTATION('',(#1284),#1288);
#1284 = LINE('',#1285,#1286);
#1285 = CARTESIAN_POINT('',(1.,0.));
#1286 = VECTOR('',#1287,1.);
#1287 = DIRECTION('',(0.,1.));
#1288 = ( GEOMETRIC_REPRESENTATION_CONTEXT(2) 
PARAMETRIC_REPRESENTATION_CONTEXT() REPRESENTATION_CONTEXT('2D SPACE',''
  ) );
#1289 = ORIENTED_EDGE('',*,*,#1192,.T.);
#1290 = ADVANCED_FACE('',(#1291),#702,.F.);
#1291 = FACE_BOUND('',#1292,.F.);
#1292 = EDGE_LOOP('',(#1293,#1294,#1295,#1296));
#1293 = ORIENTED_EDGE('',*,*,#664,.T.);
#1294 = ORIENTED_EDGE('',*,*,#1265,.T.);
#1295 = ORIENTED_EDGE('',*,*,#1215,.F.);
#1296 = ORIENTED_EDGE('',*,*,#811,.F.);
#1297 = ( GEOMETRIC_REPRESENTATION_CONTEXT(3) 
GLOBAL_UNCERTAINTY_ASSIGNED_CONTEXT((#1301)) 
GLOBAL_UNIT_ASSIGNED_CONTEXT((#1298,#1299,#1300)) REPRESENTATION_CONTEXT
('Context #1','3D Context with UNIT and UNCERTAINTY') );
#1298 = ( LENGTH_UNIT() NAMED_UNIT(*) SI_UNIT(.MILLI.,.METRE.) );
#1299 = ( NAMED_UNIT(*) PLANE_ANGLE_UNIT() SI_UNIT($,.RADIAN.) );
#1300 = ( NAMED_UNIT(*) SI_UNIT($,.STERADIAN.) SOLID_ANGLE_UNIT() );
#1301 = UNCERTAINTY_MEASURE_WITH_UNIT(LENGTH_MEASURE(2.E-06),#1298,
  'distance_accuracy_value','confusion accuracy');
#1302 = PRODUCT_RELATED_PRODUCT_CATEGORY('part',$,(#7));
ENDSEC;
END-ISO-10303-21;
